<svg width="1200" height="675" viewBox="0 0 1200 675" fill="none" xmlns="http://www.w3.org/2000/svg">
<rect width="1200" height="675" fill="#332D37"/>
<path fill-rule="evenodd" clip-rule="evenodd" d="M849.304 227L842.577 227.181L835.489 227.889L831.949 228.416L828.409 229.124L824.861 229.832L821.321 230.721L817.6 231.61L814.06 232.845L810.52 234.088L806.799 235.504L803.078 237.101L799.538 238.871L795.817 240.641L792.096 242.765L788.556 244.889L784.835 247.367L781.295 249.853L777.574 252.685L774.034 255.517L770.486 258.703L766.946 262.07L763.406 265.61L759.858 269.331L756.318 273.225L759.685 270.747L763.76 268.269L769.251 264.902L776.158 261.362L780.052 259.411L784.3 257.468L788.729 255.698L793.512 253.92L798.476 252.15L803.786 250.561L809.277 249.145L815.122 247.902L820.967 247.013L827.166 246.132L833.539 245.778L840.092 245.597L846.645 245.778L853.559 246.305L860.466 247.367L864.006 247.902L867.547 248.61L871.267 249.499L874.808 250.561L878.529 251.623L882.069 252.858L885.79 254.274L889.51 255.871L893.231 257.468L896.952 259.238L900.846 261.181L904.567 263.313L908.281 265.61L912.182 268.096L905.095 280.848L958.588 285.804L931.661 235.15L925.816 247.721L924.754 247.013L921.568 245.243L916.611 242.584L909.878 239.579L905.803 237.982L901.555 236.212L896.772 234.615L891.815 233.026L886.498 231.61L880.833 230.186L874.988 229.124L868.789 228.062L862.59 227.354L856.037 227H849.304Z" fill="white"/>
<path fill-rule="evenodd" clip-rule="evenodd" d="M756.318 387.465L783.238 438.119L789.083 425.548L790.145 426.075L793.339 428.026L798.295 430.504L805.202 433.697L809.097 435.287L813.525 436.884L818.135 438.654L823.272 440.251L828.582 441.667L834.073 443.083L839.918 444.145L846.117 445.033L852.49 445.742L858.869 446.269H865.603L872.51 445.915L879.417 445.387L882.957 444.853L886.498 444.145L890.045 443.437L893.585 442.548L897.306 441.486L900.846 440.424L904.567 439.188L908.108 437.765L911.828 436.176L915.549 434.405L919.089 432.455L922.81 430.504L926.351 428.206L930.071 425.902L933.792 423.243L937.333 420.591L940.873 417.579L944.594 414.566L948.134 411.199L951.681 407.659L955.041 403.938L958.588 400.044L955.222 402.348L951.147 405L945.656 408.367L938.749 411.907L934.854 413.858L930.779 415.628L926.17 417.579L921.394 419.349L916.431 421.119L911.12 422.535L905.629 423.951L899.958 425.194L893.939 426.256L887.74 426.964L881.361 427.498L874.988 427.672L868.255 427.498L861.348 426.964L854.44 425.902L850.9 425.194L847.36 424.486L843.813 423.597L840.092 422.716L836.551 421.473L832.831 420.237L829.117 418.814L825.396 417.398L821.675 415.628L817.954 413.858L814.233 411.907L810.339 409.783L806.618 407.659L802.898 405.18L809.805 392.428L756.318 387.465V387.465Z" fill="white"/>
<path fill-rule="evenodd" clip-rule="evenodd" d="M803.786 296.785L837.259 375.422H860.285L893.405 296.785H875.516L848.776 361.788L821.849 296.785H803.786Z" fill="white"/>
<path fill-rule="evenodd" clip-rule="evenodd" d="M901.728 296.785V375.422H917.493V322.643L945.302 375.422H958.054L985.682 322.643V375.422H1001.45V296.785H980.372L951.681 351.868L922.984 296.785H901.728Z" fill="white"/>
<path fill-rule="evenodd" clip-rule="evenodd" d="M710.447 296.785V356.471L710.62 358.241L710.974 359.837L711.509 361.254L712.217 362.67L713.279 364.086L714.341 365.328L715.757 366.391L717.173 367.453L718.77 368.515L720.367 369.403L724.088 370.819L727.982 372.062L731.876 373.124L735.951 373.832L739.845 374.36L743.393 374.894L746.579 375.068L751.535 375.422H755.256L760.039 375.068L763.225 374.894L766.946 374.36L770.84 373.832L774.742 373.124L778.81 372.062L782.711 370.819L786.251 369.403L788.021 368.515L789.618 367.453L791.034 366.391L792.277 365.328L793.512 364.086L794.401 362.67L795.109 361.254L795.817 359.837L796.171 358.241V356.471V296.785H780.76V350.806L780.587 351.688L780.406 352.75L780.052 353.638L779.698 354.527L779.171 355.409L778.456 356.117L777.748 356.651L777.039 357.359L775.45 358.067L773.68 358.949L771.375 359.664L768.716 360.372L765.703 360.9L761.99 361.434L757.915 361.608L753.305 361.788L748.703 361.608L744.628 361.434L741.088 360.9L737.902 360.372L735.243 359.664L733.119 358.949L731.168 358.067L729.752 357.359L728.863 356.651L728.155 356.117L727.447 355.409L726.92 354.527L726.566 353.638L726.212 352.75L726.031 351.688V350.806V296.785H710.447Z" fill="white"/>
<path fill-rule="evenodd" clip-rule="evenodd" d="M430.65 218.633L404.97 257.488C404.154 258.724 402.498 259.094 401.262 258.279C400.026 257.488 399.655 255.832 400.471 254.596L426.176 215.692C426.844 214.703 427.783 213.789 428.871 213.096C429.958 212.404 431.342 211.836 432.899 211.836H482.654C488.883 211.836 492.145 218.114 489.55 223.255L489.501 223.329L351.829 457.421C351.087 458.706 349.431 459.127 348.146 458.385C346.861 457.644 346.44 456.012 347.182 454.727L484.755 220.808C485.225 219.844 485.101 218.93 484.755 218.287C484.384 217.669 483.717 217.175 482.654 217.175H432.899C432.652 217.175 432.257 217.274 431.787 217.595C431.318 217.892 430.922 218.312 430.675 218.658L430.65 218.633Z" fill="white"/>
<path fill-rule="evenodd" clip-rule="evenodd" d="M199.969 222.592C197.226 217.797 200.563 211 206.742 211H255.73C257.263 211 258.672 211.568 259.734 212.261C260.822 212.953 261.761 213.892 262.404 214.881V214.93L298.194 273.953H392.859C394.342 273.953 395.528 275.165 395.528 276.623C395.528 278.081 394.342 279.292 392.859 279.292H295.178L257.93 217.797C257.683 217.451 257.312 217.056 256.843 216.759C256.348 216.438 255.953 216.339 255.73 216.339H206.742C205.827 216.339 205.111 216.833 204.69 217.575C204.245 218.366 204.245 219.255 204.616 219.898L292.756 371.659L341.3 454.682C342.041 455.967 341.621 457.599 340.336 458.34C339.05 459.082 337.419 458.661 336.678 457.376L288.134 374.328L199.969 222.592Z" fill="white"/>
<path fill-rule="evenodd" clip-rule="evenodd" d="M399.21 284.402C400.496 285.119 400.965 286.75 400.224 288.036L352.298 372.74C350.939 375.113 348.615 376.447 346.168 376.447C343.721 376.447 341.373 375.113 340.039 372.764L320.784 339.867L283.685 361.271C282.399 362.013 280.768 361.568 280.002 360.307C279.26 359.022 279.705 357.391 280.99 356.649L322.737 332.575L344.71 370.12C345.155 370.886 345.748 371.108 346.193 371.108C346.638 371.108 347.231 370.886 347.651 370.12L395.577 285.44C396.294 284.155 397.95 283.685 399.235 284.427L399.21 284.402Z" fill="white"/>
<path fill-rule="evenodd" clip-rule="evenodd" d="M294.363 282.235C294.536 281.963 294.931 281.543 295.648 281.048C297.205 279.985 299.232 279.343 300.344 279.343C301.802 279.343 302.989 278.156 302.989 276.673C302.989 275.19 301.802 274.004 300.344 274.004C297.922 274.004 294.882 275.141 292.682 276.624C291.57 277.39 290.433 278.403 289.716 279.689C288.95 281.073 288.653 282.877 289.642 284.657L307.759 318.346L271.796 337.872C270.511 338.589 270.041 340.195 270.733 341.505C271.426 342.79 273.032 343.285 274.317 342.568L314.927 320.496L294.363 282.259V282.235Z" fill="white"/>
<path fill-rule="evenodd" clip-rule="evenodd" d="M413.176 255.934C404.08 255.934 396.689 263.448 396.689 272.741C396.689 282.035 404.08 289.548 413.176 289.548C422.271 289.548 429.662 282.035 429.662 272.741C429.662 263.448 422.271 255.934 413.176 255.934ZM391.351 272.741C391.351 260.457 401.139 250.496 413.176 250.496C425.213 250.496 435 260.457 435 272.741C435 285.025 425.213 294.986 413.176 294.986C401.139 294.986 391.351 285.025 391.351 272.741V272.741Z" fill="white"/>
<path fill-rule="evenodd" clip-rule="evenodd" d="M488.413 221.578C489.13 222.838 488.685 224.445 487.4 225.162L426.325 259.37C425.064 260.086 423.458 259.642 422.741 258.356C422.024 257.096 422.469 255.489 423.754 254.772L484.829 220.564C486.09 219.848 487.697 220.293 488.413 221.578V221.578Z" fill="white"/>
<path fill-rule="evenodd" clip-rule="evenodd" d="M470.716 251.806C471.507 253.141 471.112 254.871 469.826 255.687L435 277.759C433.715 278.574 432.01 278.179 431.219 276.844C430.428 275.51 430.823 273.779 432.109 272.964L466.934 250.892C468.22 250.076 469.925 250.472 470.716 251.806Z" fill="white"/>
<path fill-rule="evenodd" clip-rule="evenodd" d="M340.187 456.364L338.062 457.847C337.246 456.636 337.542 455.005 338.729 454.189C339.915 453.373 341.522 453.67 342.313 454.856C342.313 454.856 342.362 454.955 342.412 455.005C342.511 455.128 342.659 455.301 342.857 455.499C343.252 455.919 343.771 456.339 344.315 456.611C344.809 456.858 345.254 456.908 345.699 456.784C346.169 456.661 346.984 456.216 348.047 454.782C348.912 453.62 350.519 453.373 351.68 454.263C352.817 455.128 353.065 456.784 352.2 457.946C350.667 460.022 348.962 461.332 347.083 461.876C345.18 462.42 343.45 462.024 342.115 461.381C340.805 460.764 339.816 459.874 339.174 459.182C338.853 458.836 338.581 458.514 338.383 458.292C338.284 458.168 338.21 458.069 338.16 457.995L338.086 457.896V457.847C338.086 457.847 338.795 457.344 340.212 456.339L340.187 456.364Z" fill="white"/>
</svg>
