<svg xmlns="http://www.w3.org/2000/svg" viewBox="0 0 1200 675"><defs><style>.cls-1{fill:#332d37;}.cls-2{fill:#fff;}</style></defs><g id="Banners"><g id="lin"><rect id="bg" class="cls-1" width="1200" height="675"/></g><rect class="cls-2" x="435.3" y="515.65" width="23.38" height="2"/><polygon class="cls-2" points="443.26 523.43 436.48 516.65 443.26 509.87 437.51 509.87 430.72 516.65 437.51 523.43 443.26 523.43"/><polygon class="cls-2" points="450.71 523.43 457.49 516.65 450.71 509.87 456.46 509.87 463.25 516.65 456.46 523.43 450.71 523.43"/><rect class="cls-2" x="801.09" y="515.65" width="26.23" height="2"/><polygon class="cls-2" points="809.05 523.43 802.27 516.65 809.05 509.87 803.3 509.87 796.51 516.65 803.3 523.43 809.05 523.43"/><polygon class="cls-2" points="819.35 523.43 826.14 516.65 819.35 509.87 825.11 509.87 831.89 516.65 825.11 523.43 819.35 523.43"/></g><g id="Guides"><rect class="cls-2" x="262.75" y="206.82" width="2" height="246.66" transform="translate(-0.47 0.37) rotate(-0.08)"/><polygon class="cls-2" points="256.8 214.8 263.57 208.01 270.37 214.78 270.36 209.03 263.57 202.25 256.8 209.04 256.8 214.8"/><polygon class="cls-2" points="257.13 445.53 263.92 452.31 270.69 445.51 270.7 451.27 263.93 458.06 257.14 451.29 257.13 445.53"/><path class="cls-2" d="M445.66,225h-13.1v-2h13.1Zm-25.23,0H408.31v-2h12.12Zm-24.24,0H384.06v-2h12.13Zm-24.25,0H359.81v-2h12.13Zm-24.25,0H335.56v-2h12.13Zm-24.25,0H311.31v-2h12.13Zm-24.25,0H287.07v-2h12.12Zm-24.25,0H262.82v-2h12.12Zm-24.25,0H238.57v-2h12.12Zm-24.25,0H214.32v-2h12.12Zm-24.24,0H190.07v-2H202.2ZM178,225H165.82v-2H178Zm-24.25,0H141.57v-2H153.7Zm-24.25,0H117.32v-2h12.13Zm-24.25,0H93.08v-2H105.2Zm-24.65-1.39A5,5,0,0,1,79,220v-8.89h2V220a3,3,0,0,0,.93,2.17Zm369.13-9.5h-2V202h2ZM81,199H79V186.86h2Zm368.68-9.13h-2V177.74h2ZM81,174.74H79V162.61h2Zm368.68-9.13h-2V153.49h2ZM81,150.49H79V138.36h2Zm368.68-9.12h-2V129.24h2ZM81,126.24H79V114.12h2Zm368.68-9.12h-2V105h2ZM81,102H79V89.87h2Zm368.68-9.12h-2V84a3,3,0,0,0-.94-2.18l1.37-1.45A5,5,0,0,1,449.68,84ZM435.58,81H423.46V79h12.12Zm-24.24,0H399.21V79h12.13Zm-24.25,0H375V79h12.13Zm-24.25,0H350.71V79h12.13Zm-24.25,0H326.46V79h12.13Zm-24.25,0H302.22V79h12.12Zm-24.25,0H278V79h12.12Zm-24.25,0H253.72V79h12.12Zm-24.25,0H229.47V79h12.12Zm-24.24,0H205.22V79h12.13ZM193.1,81H181V79H193.1Zm-24.25,0H156.72V79h12.13ZM144.6,81H132.47V79H144.6Zm-24.25,0H108.23V79h12.12ZM96.1,81H84l0-2H96.1Z"/><path class="cls-2" d="M809.75,596H796.84v-2h12.91Zm-24.84,0H773v-2h11.94ZM761,596H749.1v-2H761Zm-23.87,0H725.23v-2h11.93Zm-23.87,0H701.36v-2h11.93Zm-23.87,0H677.48v-2h11.94Zm-23.87,0H653.61v-2h11.94Zm-23.87,0H629.74v-2h11.94Zm-23.87,0H605.87v-2h11.94Zm-23.87,0H582v-2h11.94Zm-23.88,0H558.13v-2h11.93Zm-23.87,0H534.26v-2h11.93Zm-23.87,0H510.39v-2h11.93Zm-23.87,0H486.51v-2h11.94Zm-23.87,0H462.64v-2h11.94Zm-23.87,0H438.77v-2h11.94Zm-23.87,0H414.9v-2h11.94ZM403,596H391v-2H403Zm-23.88,0H367.16v-2h11.93Zm-23.87,0H343.29v-2h11.93Zm-23.87,0H319.42v-2h11.93Zm-23.87,0H295.54v-2h11.94Zm-23.87,0H271.67v-2h11.94Zm-23.87,0H247.8v-2h11.94Zm-23.87,0H223.93v-2h11.94ZM212,596H200.06v-2H212Zm-23.88,0H176.19v-2h11.93Zm-23.87,0H152.32v-2h11.93Zm-23.87,0H128.45v-2h11.93Zm-23.87,0H104.58v-2h11.93Zm-23.87,0H84a5,5,0,0,1-3.67-1.61L81.8,593a3,3,0,0,0,2.2,1h8.64Zm721.14-10.7h-2V573.36h2ZM81,582.05H79V570.11h2Zm732.78-20.62h-2V549.49h2ZM81,558.18H79V546.24h2Zm732.78-20.62h-2V525.62h2ZM81,534.31H79V522.37h2Zm732.78-20.63h-2V501.75h2ZM81,510.44H79V498.5h2Zm732.78-20.63h-2V477.88h2ZM81,486.57H79V474.63h2Zm732.78-20.63h-2V454h2ZM81,462.69H79V450.76h2Zm732.78-20.62h-2V430.13h2ZM81,438.82H79V426.89h2ZM813.78,418.2h-2V406.26h2ZM81,415H79V403h2Zm732.78-20.62h-2V382.39h2ZM81,391.08H79V379.14h2Zm732.78-20.62h-2V358.52h2ZM81,367.21H79V355.27h2Zm732.78-20.62h-2v-8.93a3,3,0,0,0-.82-2.05l1.46-1.36a4.94,4.94,0,0,1,1.36,3.41ZM81,343.34H79v-5.68a5,5,0,0,1,5-5v2a3,3,0,0,0-3,3Zm719.11-8.68H788.18v-2h11.93Zm-23.87,0H764.31v-2h11.93Zm-23.87,0H740.43v-2h11.94Zm-23.87,0H716.56v-2H728.5Zm-23.87,0H692.69v-2h11.94Zm-23.87,0H668.82v-2h11.94Zm-23.87,0H645v-2h11.94Zm-23.88,0H621.08v-2H633Zm-23.87,0H597.21v-2h11.93Zm-23.87,0H573.34v-2h11.93Zm-23.87,0H549.46v-2H561.4Zm-23.87,0H525.59v-2h11.94Zm-23.87,0H501.72v-2h11.94Zm-23.87,0H477.85v-2h11.94Zm-23.87,0H454v-2h11.94Zm-23.88,0H430.11v-2H442Zm-23.87,0H406.24v-2h11.93Zm-23.87,0H382.37v-2H394.3Zm-23.87,0H358.5v-2h11.93Zm-23.87,0H334.62v-2h11.94Zm-23.87,0H310.75v-2h11.94Zm-23.87,0H286.88v-2h11.94Zm-23.87,0H263v-2H275Zm-23.88,0H239.14v-2h11.93Zm-23.87,0H215.27v-2H227.2Zm-23.87,0H191.4v-2h11.93Zm-23.87,0H167.53v-2h11.93Zm-23.87,0H143.65v-2h11.94Zm-23.87,0H119.78v-2h11.94Zm-23.87,0H95.91v-2h11.94Z"/><path class="cls-2" d="M426.72,203.25h-326a5,5,0,0,1-5-5V159.68a5,5,0,0,1,5-5h326a5,5,0,0,1,5,5v38.57A5,5,0,0,1,426.72,203.25Zm-326-46.57a3,3,0,0,0-3,3v38.57a3,3,0,0,0,3,3h326a3,3,0,0,0,3-3V159.68a3,3,0,0,0-3-3Z"/><rect class="cls-1" x="96.77" y="310.38" width="333.95" height="46.57" rx="4" transform="translate(527.5 667.32) rotate(180)"/><path class="cls-2" d="M426.72,357.94h-326a5,5,0,0,1-5-5V314.38a5,5,0,0,1,5-5h326a5,5,0,0,1,5,5v38.56A5,5,0,0,1,426.72,357.94Zm-326-46.56a3,3,0,0,0-3,3v38.56a3,3,0,0,0,3,3h326a3,3,0,0,0,3-3V314.38a3,3,0,0,0-3-3Z"/><rect class="cls-1" x="96.77" y="383.72" width="333.95" height="46.57" rx="4" transform="translate(527.5 814.01) rotate(180)"/><path class="cls-2" d="M426.72,431.29h-326a5,5,0,0,1-5-5V387.72a5,5,0,0,1,5-5h326a5,5,0,0,1,5,5v38.57A5,5,0,0,1,426.72,431.29Zm-326-46.57a3,3,0,0,0-3,3v38.57a3,3,0,0,0,3,3h326a3,3,0,0,0,3-3V387.72a3,3,0,0,0-3-3Z"/><path class="cls-2" d="M426.72,576.46h-326a5,5,0,0,1-5-5V461.84a5,5,0,0,1,5-5h326a5,5,0,0,1,5,5V571.46A5,5,0,0,1,426.72,576.46Zm-326-117.62a3,3,0,0,0-3,3V571.46a3,3,0,0,0,3,3h326a3,3,0,0,0,3-3V461.84a3,3,0,0,0-3-3Z"/><rect class="cls-1" x="463.25" y="457.84" width="333.95" height="117.61" rx="4" transform="translate(1260.45 1033.3) rotate(180)"/><path class="cls-2" d="M793.2,576.46h-326a5,5,0,0,1-5-5V461.84a5,5,0,0,1,5-5h326a5,5,0,0,1,5,5V571.46A5,5,0,0,1,793.2,576.46Zm-326-117.62a3,3,0,0,0-3,3V571.46a3,3,0,0,0,3,3h326a3,3,0,0,0,3-3V461.84a3,3,0,0,0-3-3Z"/><path class="cls-2" d="M1116,596H835.89a5,5,0,0,1-5-5V337.66a5,5,0,0,1,5-5H1116a5,5,0,0,1,5,5V591A5,5,0,0,1,1116,596ZM835.89,334.66a3,3,0,0,0-3,3V591a3,3,0,0,0,3,3H1116a3,3,0,0,0,3-3V337.66a3,3,0,0,0-3-3Z"/><rect class="cls-1" x="96.77" y="242.56" width="333.95" height="46.57" rx="4" transform="translate(527.5 531.7) rotate(180)"/><path class="cls-2" d="M426.72,290.13h-326a5,5,0,0,1-5-5V246.56a5,5,0,0,1,5-5h326a5,5,0,0,1,5,5v38.57A5,5,0,0,1,426.72,290.13Zm-326-46.57a3,3,0,0,0-3,3v38.57a3,3,0,0,0,3,3h326a3,3,0,0,0,3-3V246.56a3,3,0,0,0-3-3Z"/><path class="cls-2" d="M261.68,116.77l1.41-2a5.32,5.32,0,0,0,3.84,1.64c1.43,0,2.09-.63,2.09-1.34,0-2.09-6.94-.63-6.94-5.17,0-2,1.74-3.67,4.58-3.67a6.74,6.74,0,0,1,4.7,1.68l-1.43,1.92a5.21,5.21,0,0,0-3.51-1.32c-1.08,0-1.7.47-1.7,1.19,0,1.9,6.93.62,6.93,5.12,0,2.21-1.59,3.87-4.83,3.87A7,7,0,0,1,261.68,116.77Z"/><path class="cls-2" d="M281.52,118.47l-.76-2h-5.17l-.76,2h-2.91l4.64-12.06h3.22l4.65,12.06ZM278.17,109l-1.88,5.19h3.76Z"/><path class="cls-2" d="M287.17,118.47v-9.8h-3.52v-2.26h9.62v2.26h-3.51v9.8Z"/><path class="cls-2" d="M302.09,118.47l-.76-2h-5.17l-.76,2h-2.91l4.64-12.06h3.22L305,118.47ZM298.74,109l-1.88,5.19h3.76Z"/><path class="cls-2" d="M319.1,118.47l-.76-2h-5.17l-.76,2H309.5l4.64-12.06h3.22L322,118.47ZM315.75,109l-1.88,5.19h3.76Z"/><path class="cls-2" d="M329.08,118.47v-1.12a3.37,3.37,0,0,1-2.7,1.34c-2.19,0-3.87-1.66-3.87-4.59s1.65-4.58,3.87-4.58a3.34,3.34,0,0,1,2.7,1.34v-4.45h2.31v12.06Zm0-2.82v-3.09a2.48,2.48,0,0,0-2-1,2.56,2.56,0,0,0,0,5.08A2.49,2.49,0,0,0,329.08,115.65Z"/><path class="cls-2" d="M338.91,118.47v-.92a3.59,3.59,0,0,1-2.77,1.14,2.9,2.9,0,0,1-3-2.89,2.77,2.77,0,0,1,3-2.82,3.59,3.59,0,0,1,2.77,1.06v-1.1c0-.89-.76-1.46-1.92-1.46a3.66,3.66,0,0,0-2.51,1l-.9-1.61a5.62,5.62,0,0,1,3.81-1.38c2,0,3.84.8,3.84,3.31v5.64Zm0-2.09v-1.09a2.29,2.29,0,0,0-1.84-.78c-.91,0-1.65.49-1.65,1.32s.74,1.31,1.65,1.31A2.31,2.31,0,0,0,338.91,116.38Z"/><path class="cls-2" d="M345.78,117.35v4.45h-2.3V109.74h2.3v1.1a3.38,3.38,0,0,1,2.69-1.32c2.25,0,3.87,1.67,3.87,4.58s-1.62,4.59-3.87,4.59A3.34,3.34,0,0,1,345.78,117.35ZM350,114.1a2.27,2.27,0,0,0-2.22-2.53,2.54,2.54,0,0,0-2,1v3.07a2.6,2.6,0,0,0,2,1A2.28,2.28,0,0,0,350,114.1Z"/><path class="cls-2" d="M354.49,116.29v-4.54h-1.44v-2h1.44v-2.39h2.3v2.39h1.77v2h-1.77v3.92c0,.56.29,1,.79,1a1.19,1.19,0,0,0,.8-.27l.49,1.75a2.84,2.84,0,0,1-1.92.56A2.17,2.17,0,0,1,354.49,116.29Z"/><path class="cls-2" d="M359.57,114.1a4.46,4.46,0,0,1,4.52-4.58c2.62,0,4.38,2,4.38,4.79v.55H362a2.34,2.34,0,0,0,2.51,2,3.66,3.66,0,0,0,2.31-.85l1,1.52a5.45,5.45,0,0,1-3.59,1.21A4.43,4.43,0,0,1,359.57,114.1Zm4.52-2.7a2,2,0,0,0-2.13,1.87h4.3A2,2,0,0,0,364.09,111.4Z"/><path class="cls-2" d="M370.13,118.47v-8.73h2.29v1.17a3.88,3.88,0,0,1,2.79-1.39v2.25a2.62,2.62,0,0,0-.63-.06,3,3,0,0,0-2.16,1v5.76Z"/><path class="cls-2" d="M381.34,118.47V106.41h6.34c2.3,0,3.47,1.47,3.47,3.08a2.68,2.68,0,0,1-2.08,2.76,2.9,2.9,0,0,1,2.32,3,3.17,3.17,0,0,1-3.51,3.27Zm7.19-8.53a1.27,1.27,0,0,0-1.41-1.27H383.9v2.53h3.22A1.24,1.24,0,0,0,388.53,109.94Zm.24,4.9a1.39,1.39,0,0,0-1.54-1.38H383.9v2.75h3.33C388.19,116.21,388.77,115.71,388.77,114.84Z"/><path class="cls-2" d="M392.71,114.1a4.62,4.62,0,1,1,4.61,4.59A4.42,4.42,0,0,1,392.71,114.1Zm6.85,0a2.25,2.25,0,1,0-2.24,2.55A2.29,2.29,0,0,0,399.56,114.1Z"/><path class="cls-2" d="M408.9,118.47v-.92a3.55,3.55,0,0,1-2.76,1.14,2.9,2.9,0,0,1-3-2.89,2.77,2.77,0,0,1,3-2.82A3.57,3.57,0,0,1,408.9,114v-1.1c0-.89-.75-1.46-1.91-1.46a3.7,3.7,0,0,0-2.52,1l-.9-1.61a5.64,5.64,0,0,1,3.82-1.38c2,0,3.83.8,3.83,3.31v5.64Zm0-2.09v-1.09a2.29,2.29,0,0,0-1.84-.78c-.9,0-1.65.49-1.65,1.32s.75,1.31,1.65,1.31A2.31,2.31,0,0,0,408.9,116.38Z"/><path class="cls-2" d="M413.48,118.47v-8.73h2.29v1.17a3.88,3.88,0,0,1,2.79-1.39v2.25a2.72,2.72,0,0,0-.64-.06,3,3,0,0,0-2.15,1v5.76Z"/><path class="cls-2" d="M426,118.47v-1.12a3.37,3.37,0,0,1-2.7,1.34c-2.19,0-3.87-1.66-3.87-4.59s1.65-4.58,3.87-4.58a3.34,3.34,0,0,1,2.7,1.34v-4.45h2.31v12.06Zm0-2.82v-3.09a2.48,2.48,0,0,0-2-1,2.56,2.56,0,0,0,0,5.08A2.49,2.49,0,0,0,426,115.65Z"/><path class="cls-2" d="M651.44,366.56V354.5H660v2.26h-6v2.53h5.84v2.26H654v5Z"/><path class="cls-2" d="M661.76,366.56V354.5h5.64a3.88,3.88,0,1,1,0,7.76h-3.08v4.3Zm7.07-8.17a1.64,1.64,0,0,0-1.79-1.63h-2.72V360H667A1.63,1.63,0,0,0,668.83,358.39Z"/><path class="cls-2" d="M672.48,360.54a6.12,6.12,0,0,1,6.43-6.24,5.65,5.65,0,0,1,5,2.7l-2.12,1.15a3.46,3.46,0,0,0-2.86-1.57,4,4,0,0,0,0,7.92,4,4,0,0,0,2.55-.92v-1.45h-3.18v-2.24H684v4.63a6.69,6.69,0,0,1-5.12,2.26A6.13,6.13,0,0,1,672.48,360.54Z"/><path class="cls-2" d="M694.28,366.56l-.76-2h-5.17l-.76,2h-2.91l4.65-12.06h3.21l4.65,12.06Zm-3.34-9.49-1.89,5.19h3.77Z"/><path class="cls-2" d="M702.3,363.16v-2h4.34v2Z"/><path class="cls-2" d="M712.91,366.56V354.5h2.59v9.8h5.1v2.26Z"/><path class="cls-2" d="M722.06,355.51a1.37,1.37,0,0,1,2.73,0,1.37,1.37,0,1,1-2.73,0Zm.22,11.05v-8.73h2.29v8.73Z"/><path class="cls-2" d="M727.32,364.37v-4.54h-1.44v-2h1.44v-2.39h2.3v2.39h1.77v2h-1.77v3.93c0,.56.29,1,.79,1a1.14,1.14,0,0,0,.8-.27l.49,1.76a2.9,2.9,0,0,1-1.92.56A2.18,2.18,0,0,1,727.32,364.37Z"/><path class="cls-2" d="M732.4,362.18a4.45,4.45,0,0,1,4.52-4.57c2.62,0,4.38,1.95,4.38,4.79v.54h-6.49a2.34,2.34,0,0,0,2.51,2,3.66,3.66,0,0,0,2.31-.85l1,1.52a5.45,5.45,0,0,1-3.59,1.21A4.43,4.43,0,0,1,732.4,362.18Zm4.52-2.69a2,2,0,0,0-2.13,1.86h4.3A2,2,0,0,0,736.92,359.49Z"/><path class="cls-2" d="M750.88,366.56l-3-4.41-3,4.41h-3.06l4.38-6.18L742,354.5h3.05l2.77,4.12,2.73-4.12h3.09l-4.1,5.86,4.37,6.2Z"/><path class="cls-2" d="M758.9,364.86l1.41-2a5.29,5.29,0,0,0,3.84,1.65c1.42,0,2.09-.63,2.09-1.34,0-2.1-6.94-.63-6.94-5.17,0-2,1.74-3.67,4.57-3.67a6.75,6.75,0,0,1,4.71,1.68l-1.43,1.92a5.16,5.16,0,0,0-3.51-1.32c-1.09,0-1.7.47-1.7,1.19,0,1.9,6.92.62,6.92,5.12,0,2.2-1.59,3.87-4.82,3.87A7,7,0,0,1,758.9,364.86Z"/><path class="cls-2" d="M770,362.18a4.62,4.62,0,1,1,4.62,4.6A4.43,4.43,0,0,1,770,362.18Zm6.86,0a2.25,2.25,0,1,0-2.24,2.55A2.3,2.3,0,0,0,776.82,362.18Z"/><path class="cls-2" d="M780.4,360.54a6.12,6.12,0,0,1,6.43-6.24,5.49,5.49,0,0,1,5,2.95l-2.21,1.08a3.26,3.26,0,0,0-2.82-1.75,4,4,0,0,0,0,7.92,3.26,3.26,0,0,0,2.82-1.75l2.21,1.06a5.53,5.53,0,0,1-5,3A6.13,6.13,0,0,1,780.4,360.54Z"/><path class="cls-2" d="M211.72,185.93V173.87h8.54v2.26h-6v2.53h5.84v2.26h-5.84v2.75h6v2.26Z"/><path class="cls-2" d="M227.61,185.93l-2-3-2,3h-2.55l3.11-4.48-2.93-4.25h2.57l1.8,2.67,1.8-2.67H230l-2.91,4.25,3.11,4.48Z"/><path class="cls-2" d="M231.79,183.74V179.2h-1.45v-2h1.45v-2.39h2.29v2.39h1.78v2h-1.78v3.93c0,.56.29,1,.8,1a1.16,1.16,0,0,0,.8-.27l.48,1.76a2.84,2.84,0,0,1-1.91.56A2.18,2.18,0,0,1,231.79,183.74Z"/><path class="cls-2" d="M236.87,181.55a4.45,4.45,0,0,1,4.52-4.57c2.62,0,4.37,2,4.37,4.79v.54h-6.49a2.35,2.35,0,0,0,2.52,2,3.66,3.66,0,0,0,2.31-.85l1,1.52a5.47,5.47,0,0,1-3.6,1.21A4.42,4.42,0,0,1,236.87,181.55Zm4.52-2.69a2,2,0,0,0-2.14,1.86h4.31A2,2,0,0,0,241.39,178.86Z"/><path class="cls-2" d="M247.42,185.93V177.2h2.3v1.17a3.82,3.82,0,0,1,2.79-1.39v2.24a3.6,3.6,0,0,0-.64-.05,2.92,2.92,0,0,0-2.15,1v5.77Z"/><path class="cls-2" d="M259.83,185.93v-5.28a1.42,1.42,0,0,0-1.61-1.63,2.54,2.54,0,0,0-2,1v5.89h-2.3V177.2h2.3v1.12a4.07,4.07,0,0,1,3-1.34,2.54,2.54,0,0,1,2.86,2.78v6.17Z"/><path class="cls-2" d="M269.64,185.93V185a3.55,3.55,0,0,1-2.76,1.14,2.89,2.89,0,0,1-3-2.9,2.77,2.77,0,0,1,3-2.82,3.55,3.55,0,0,1,2.76,1.07v-1.1c0-.89-.76-1.47-1.91-1.47a3.68,3.68,0,0,0-2.52,1l-.9-1.61a5.68,5.68,0,0,1,3.81-1.37c2,0,3.84.79,3.84,3.31v5.64Zm0-2.1v-1.08a2.29,2.29,0,0,0-1.84-.78c-.91,0-1.65.49-1.65,1.32s.74,1.3,1.65,1.3A2.28,2.28,0,0,0,269.64,183.83Z"/><path class="cls-2" d="M274.21,185.93V173.87h2.3v12.06Z"/><path class="cls-2" d="M282.66,184.23l1.41-2a5.28,5.28,0,0,0,3.83,1.65c1.43,0,2.1-.63,2.1-1.34,0-2.1-6.95-.63-6.95-5.17,0-2,1.74-3.67,4.58-3.67a6.71,6.71,0,0,1,4.7,1.68l-1.43,1.92a5.16,5.16,0,0,0-3.51-1.32c-1.08,0-1.7.47-1.7,1.19,0,1.9,6.93.61,6.93,5.12,0,2.2-1.59,3.87-4.83,3.87A7,7,0,0,1,282.66,184.23Z"/><path class="cls-2" d="M293.5,184.23l1.41-2a5.29,5.29,0,0,0,3.84,1.65c1.42,0,2.09-.63,2.09-1.34,0-2.1-6.94-.63-6.94-5.17,0-2,1.74-3.67,4.57-3.67a6.75,6.75,0,0,1,4.71,1.68l-1.43,1.92a5.16,5.16,0,0,0-3.51-1.32c-1.09,0-1.7.47-1.7,1.19,0,1.9,6.93.61,6.93,5.12,0,2.2-1.6,3.87-4.83,3.87A7,7,0,0,1,293.5,184.23Z"/><path class="cls-2" d="M305.18,185.93V173.87h4.76c3.77,0,6.4,2.4,6.4,6s-2.63,6-6.39,6Zm8.53-6a3.52,3.52,0,0,0-3.76-3.76h-2.2v7.54h2.19A3.61,3.61,0,0,0,313.71,179.89Z"/><path class="cls-2" d="M200.63,269.72V257.66h8.54v2.26h-6v2.53H209v2.26H203.2v5Z"/><path class="cls-2" d="M221.44,269.72V261l-3.4,8.7h-1.12l-3.4-8.7v8.7H211V257.66h3.6l2.93,7.54,2.93-7.54H224v12.06Z"/><path class="cls-2" d="M225.83,263.7a6.12,6.12,0,0,1,6.44-6.24,5.5,5.5,0,0,1,5,2.94l-2.21,1.09a3.25,3.25,0,0,0-2.82-1.75,4,4,0,0,0,0,7.92,3.26,3.26,0,0,0,2.82-1.76L237.3,267a5.53,5.53,0,0,1-5,3A6.13,6.13,0,0,1,225.83,263.7Z"/><path class="cls-2" d="M242.9,263.7a6.12,6.12,0,0,1,6.43-6.24,5.5,5.5,0,0,1,5,2.94l-2.21,1.09a3.24,3.24,0,0,0-2.82-1.75,4,4,0,0,0,0,7.92,3.25,3.25,0,0,0,2.82-1.76l2.21,1.07a5.53,5.53,0,0,1-5,3A6.13,6.13,0,0,1,242.9,263.7Z"/><path class="cls-2" d="M255.28,265.34a4.62,4.62,0,1,1,4.61,4.59A4.42,4.42,0,0,1,255.28,265.34Zm6.85,0a2.25,2.25,0,1,0-2.24,2.55A2.29,2.29,0,0,0,262.13,265.34Z"/><path class="cls-2" d="M272.13,269.72v-5.28a1.42,1.42,0,0,0-1.61-1.63,2.58,2.58,0,0,0-2,1v5.9h-2.3V261h2.3v1.12a4.09,4.09,0,0,1,3.06-1.33,2.54,2.54,0,0,1,2.85,2.78v6.17Z"/><path class="cls-2" d="M282.6,269.72v-5.28a1.42,1.42,0,0,0-1.61-1.63,2.57,2.57,0,0,0-2,1v5.9h-2.3V261H279v1.12a4.07,4.07,0,0,1,3.05-1.33,2.54,2.54,0,0,1,2.86,2.78v6.17Z"/><path class="cls-2" d="M286.61,265.34a4.45,4.45,0,0,1,4.52-4.57c2.62,0,4.37,2,4.37,4.79v.54H289a2.34,2.34,0,0,0,2.52,1.95,3.6,3.6,0,0,0,2.31-.85l1,1.52a5.42,5.42,0,0,1-3.6,1.21A4.42,4.42,0,0,1,286.61,265.34Zm4.52-2.69a2,2,0,0,0-2.14,1.86h4.31A2,2,0,0,0,291.13,262.65Z"/><path class="cls-2" d="M296.6,265.34a4.44,4.44,0,0,1,4.63-4.57,4.07,4.07,0,0,1,3.46,1.57l-1.5,1.41a2.12,2.12,0,0,0-1.85-.94,2.55,2.55,0,0,0,0,5.08,2.18,2.18,0,0,0,1.85-1l1.5,1.41a4.07,4.07,0,0,1-3.46,1.59A4.44,4.44,0,0,1,296.6,265.34Z"/><path class="cls-2" d="M306.66,267.53V263h-1.45v-2h1.45V258.6H309V261h1.77v2H309v3.92c0,.56.29,1,.8,1a1.16,1.16,0,0,0,.79-.27l.49,1.75a2.82,2.82,0,0,1-1.92.56A2.17,2.17,0,0,1,306.66,267.53Z"/><path class="cls-2" d="M311.73,265.34a4.62,4.62,0,1,1,4.62,4.59A4.42,4.42,0,0,1,311.73,265.34Zm6.86,0a2.25,2.25,0,1,0-2.24,2.55A2.3,2.3,0,0,0,318.59,265.34Z"/><path class="cls-2" d="M322.69,269.72V261H325v1.18a3.82,3.82,0,0,1,2.78-1.39V263a2.62,2.62,0,0,0-.63-.06,2.93,2.93,0,0,0-2.15,1v5.77Z"/><path class="cls-2" d="M175.08,338.56v-5.08h-5.7v5.08h-2.56V326.5h2.56v4.74h5.7V326.5h2.59v12.06Z"/><path class="cls-2" d="M179.76,327.51a1.37,1.37,0,0,1,2.73,0,1.37,1.37,0,1,1-2.73,0Zm.22,11.05v-8.73h2.29v8.73Z"/><path class="cls-2" d="M184.37,340.8l1-1.64a3.52,3.52,0,0,0,2.73,1.06,2.15,2.15,0,0,0,2.42-2.24v-.85a3.37,3.37,0,0,1-2.71,1.36c-2.17,0-3.85-1.52-3.85-4.43s1.64-4.45,3.85-4.45a3.32,3.32,0,0,1,2.71,1.34v-1.12h2.3V338c0,3.31-2.57,4.12-4.72,4.12A5.31,5.31,0,0,1,184.37,340.8Zm6.18-5.33v-2.84a2.59,2.59,0,0,0-2-1,2.41,2.41,0,0,0,0,4.81A2.6,2.6,0,0,0,190.55,335.47Z"/><path class="cls-2" d="M201,338.56v-5.32c0-1.21-.64-1.59-1.61-1.59a2.51,2.51,0,0,0-2,1v5.89h-2.32V326.5h2.32V331a4.06,4.06,0,0,1,3.05-1.34,2.52,2.52,0,0,1,2.84,2.75v6.2Z"/><path class="cls-2" d="M209.5,337.42l1-1.66a5,5,0,0,0,3,1.21c1,0,1.46-.38,1.46-.92,0-1.43-5.17-.26-5.17-3.69,0-1.47,1.27-2.75,3.58-2.75a5.6,5.6,0,0,1,3.51,1.19l-.92,1.63a3.79,3.79,0,0,0-2.59-1c-.83,0-1.37.36-1.37.85,0,1.28,5.19.2,5.19,3.72,0,1.61-1.38,2.79-3.8,2.79A5.86,5.86,0,0,1,209.5,337.42Z"/><path class="cls-2" d="M221.17,337.44v4.45h-2.29V329.83h2.29v1.1a3.38,3.38,0,0,1,2.7-1.32c2.24,0,3.87,1.66,3.87,4.57s-1.63,4.6-3.87,4.6A3.4,3.4,0,0,1,221.17,337.44Zm4.2-3.26a2.28,2.28,0,0,0-2.23-2.53,2.55,2.55,0,0,0-2,1v3.07a2.59,2.59,0,0,0,2,1A2.29,2.29,0,0,0,225.37,334.18Z"/><path class="cls-2" d="M228.86,334.18a4.45,4.45,0,0,1,4.52-4.57c2.62,0,4.37,1.95,4.37,4.79v.54h-6.49a2.34,2.34,0,0,0,2.51,2,3.66,3.66,0,0,0,2.32-.85l1,1.52a5.47,5.47,0,0,1-3.6,1.21A4.42,4.42,0,0,1,228.86,334.18Zm4.52-2.69a2,2,0,0,0-2.14,1.86h4.31A2,2,0,0,0,233.38,331.49Z"/><path class="cls-2" d="M238.85,334.18a4.45,4.45,0,0,1,4.52-4.57c2.62,0,4.38,1.95,4.38,4.79v.54h-6.49a2.34,2.34,0,0,0,2.51,2,3.66,3.66,0,0,0,2.31-.85l1,1.52a5.49,5.49,0,0,1-3.6,1.21A4.43,4.43,0,0,1,238.85,334.18Zm4.52-2.69a2,2,0,0,0-2.13,1.86h4.3A2,2,0,0,0,243.37,331.49Z"/><path class="cls-2" d="M255.41,338.56v-1.12a3.34,3.34,0,0,1-2.69,1.34c-2.19,0-3.87-1.67-3.87-4.6s1.64-4.57,3.87-4.57a3.28,3.28,0,0,1,2.69,1.34V326.5h2.32v12.06Zm0-2.82v-3.09a2.49,2.49,0,0,0-2-1,2.56,2.56,0,0,0,0,5.08A2.48,2.48,0,0,0,255.41,335.74Z"/><path class="cls-2" d="M265.12,336.37v-4.54h-1.45v-2h1.45v-2.39h2.29v2.39h1.78v2h-1.78v3.93c0,.56.29,1,.8,1a1.16,1.16,0,0,0,.8-.27l.48,1.76a2.84,2.84,0,0,1-1.91.56A2.18,2.18,0,0,1,265.12,336.37Z"/><path class="cls-2" d="M270.76,338.56v-8.73h2.29V331a3.84,3.84,0,0,1,2.79-1.39v2.24a3.4,3.4,0,0,0-.63-.05,2.94,2.94,0,0,0-2.16,1v5.77Z"/><path class="cls-2" d="M282.51,338.56v-.92a3.59,3.59,0,0,1-2.77,1.14,2.9,2.9,0,0,1-3-2.9,2.77,2.77,0,0,1,3-2.82,3.56,3.56,0,0,1,2.77,1.07V333c0-.89-.76-1.47-1.92-1.47a3.66,3.66,0,0,0-2.51,1l-.91-1.61a5.7,5.7,0,0,1,3.82-1.37c2,0,3.83.8,3.83,3.31v5.64Zm0-2.1v-1.08a2.3,2.3,0,0,0-1.85-.78c-.9,0-1.64.49-1.64,1.32s.74,1.3,1.64,1.3A2.29,2.29,0,0,0,282.51,336.46Z"/><path class="cls-2" d="M293,338.56v-5.28a1.42,1.42,0,0,0-1.61-1.63,2.54,2.54,0,0,0-2,1v5.89h-2.3v-8.73h2.3V331a4.07,4.07,0,0,1,3.05-1.34,2.55,2.55,0,0,1,2.86,2.78v6.17Z"/><path class="cls-2" d="M296.79,337.42l1-1.66a5,5,0,0,0,3,1.21c1,0,1.47-.38,1.47-.92,0-1.43-5.17-.26-5.17-3.69,0-1.47,1.26-2.75,3.58-2.75a5.57,5.57,0,0,1,3.5,1.19l-.92,1.63a3.76,3.76,0,0,0-2.58-1c-.84,0-1.38.36-1.38.85,0,1.28,5.19.2,5.19,3.72,0,1.61-1.37,2.79-3.8,2.79A5.88,5.88,0,0,1,296.79,337.42Z"/><path class="cls-2" d="M305.61,334.18a4.44,4.44,0,0,1,4.63-4.57,4.07,4.07,0,0,1,3.45,1.57l-1.5,1.41a2.12,2.12,0,0,0-1.84-.94,2.55,2.55,0,0,0,0,5.08,2.18,2.18,0,0,0,1.84-1l1.5,1.41a4.08,4.08,0,0,1-3.45,1.59A4.45,4.45,0,0,1,305.61,334.18Z"/><path class="cls-2" d="M314.63,334.18a4.45,4.45,0,0,1,4.52-4.57c2.62,0,4.38,1.95,4.38,4.79v.54H317a2.34,2.34,0,0,0,2.51,2,3.66,3.66,0,0,0,2.31-.85l1,1.52a5.45,5.45,0,0,1-3.59,1.21A4.43,4.43,0,0,1,314.63,334.18Zm4.52-2.69a2,2,0,0,0-2.13,1.86h4.3A2,2,0,0,0,319.15,331.49Z"/><path class="cls-2" d="M325,327.51a1.37,1.37,0,0,1,2.73,0,1.37,1.37,0,1,1-2.73,0Zm.22,11.05v-8.73h2.29v8.73Z"/><path class="cls-2" d="M332,338.56l-3.51-8.73H331l2.28,6.07,2.3-6.07H338l-3.51,8.73Z"/><path class="cls-2" d="M338.47,334.18a4.45,4.45,0,0,1,4.52-4.57c2.63,0,4.38,1.95,4.38,4.79v.54h-6.49a2.34,2.34,0,0,0,2.51,2,3.68,3.68,0,0,0,2.32-.85l1,1.52a5.49,5.49,0,0,1-3.6,1.21A4.43,4.43,0,0,1,338.47,334.18Zm4.52-2.69a2,2,0,0,0-2.13,1.86h4.3A2,2,0,0,0,343,331.49Z"/><path class="cls-2" d="M349,338.56v-8.73h2.3V331a3.82,3.82,0,0,1,2.78-1.39v2.24a3.4,3.4,0,0,0-.63-.05,2.92,2.92,0,0,0-2.15,1v5.77Z"/><path class="cls-2" d="M354.78,337.42l1-1.66a5,5,0,0,0,3,1.21c1,0,1.47-.38,1.47-.92,0-1.43-5.17-.26-5.17-3.69,0-1.47,1.26-2.75,3.58-2.75a5.57,5.57,0,0,1,3.5,1.19l-.92,1.63a3.76,3.76,0,0,0-2.58-1c-.84,0-1.38.36-1.38.85,0,1.28,5.19.2,5.19,3.72,0,1.61-1.37,2.79-3.8,2.79A5.88,5.88,0,0,1,354.78,337.42Z"/><path class="cls-2" d="M206.06,414.69V402.63h2.58v9.8h5.1v2.26Z"/><path class="cls-2" d="M215.2,403.64a1.37,1.37,0,0,1,2.73,0,1.37,1.37,0,1,1-2.73,0Zm.22,11.05V406h2.3v8.73Z"/><path class="cls-2" d="M220.46,412.5V408H219v-2h1.44v-2.39h2.3V406h1.77v2h-1.77v3.92c0,.56.29,1,.79,1a1.14,1.14,0,0,0,.8-.28l.49,1.76a2.82,2.82,0,0,1-1.92.56A2.18,2.18,0,0,1,220.46,412.5Z"/><path class="cls-2" d="M225.54,410.32a4.46,4.46,0,0,1,4.52-4.58c2.62,0,4.38,1.95,4.38,4.79v.55H228a2.34,2.34,0,0,0,2.51,1.95,3.66,3.66,0,0,0,2.31-.85l1,1.52a5.49,5.49,0,0,1-3.6,1.21A4.43,4.43,0,0,1,225.54,410.32Zm4.52-2.7a2,2,0,0,0-2.13,1.87h4.3A2,2,0,0,0,230.06,407.62Z"/><path class="cls-2" d="M235.32,413l1.41-2a5.32,5.32,0,0,0,3.84,1.64c1.42,0,2.09-.63,2.09-1.34,0-2.09-6.94-.63-6.94-5.17,0-2,1.74-3.67,4.57-3.67a6.75,6.75,0,0,1,4.71,1.68l-1.43,1.92a5.21,5.21,0,0,0-3.51-1.32c-1.09,0-1.7.47-1.7,1.19,0,1.9,6.92.62,6.92,5.12,0,2.21-1.59,3.87-4.82,3.87A7,7,0,0,1,235.32,413Z"/><path class="cls-2" d="M255.15,414.69l-.75-2h-5.18l-.76,2h-2.91l4.65-12.06h3.22l4.65,12.06Zm-3.34-9.49-1.88,5.19h3.76Z"/><path class="cls-2" d="M260.81,414.69v-9.8h-3.52v-2.26h9.61v2.26h-3.5v9.8Z"/><path class="cls-2" d="M275.73,414.69l-.76-2H269.8l-.76,2h-2.92l4.65-12.06H274l4.65,12.06Zm-3.35-9.49-1.88,5.19h3.76Z"/><path class="cls-2" d="M283.82,408.67a6.13,6.13,0,0,1,6.44-6.24,5.49,5.49,0,0,1,5,2.95l-2.21,1.08a3.27,3.27,0,0,0-2.82-1.75,4,4,0,0,0,0,7.92,3.27,3.27,0,0,0,2.82-1.75l2.21,1.06a5.53,5.53,0,0,1-5,3A6.13,6.13,0,0,1,283.82,408.67Z"/><path class="cls-2" d="M296.21,410.32a4.62,4.62,0,1,1,4.61,4.59A4.42,4.42,0,0,1,296.21,410.32Zm6.85,0a2.25,2.25,0,1,0-2.24,2.55A2.29,2.29,0,0,0,303.06,410.32Z"/><path class="cls-2" d="M307.16,414.69V406h2.3v1.17a3.86,3.86,0,0,1,2.78-1.39V408a3.4,3.4,0,0,0-.63-.05,2.92,2.92,0,0,0-2.15,1v5.77Z"/><path class="cls-2" d="M313.11,410.32a4.46,4.46,0,0,1,4.52-4.58c2.62,0,4.37,1.95,4.37,4.79v.55h-6.49A2.34,2.34,0,0,0,318,413a3.66,3.66,0,0,0,2.31-.85l1,1.52a5.47,5.47,0,0,1-3.6,1.21A4.42,4.42,0,0,1,313.11,410.32Zm4.52-2.7a2,2,0,0,0-2.14,1.87h4.31A2,2,0,0,0,317.63,407.62Z"/><path class="cls-2" d="M230.42,501.09,225.77,489h2.91l3.34,9.26,3.35-9.26h2.91l-4.65,12.06Z"/><path class="cls-2" d="M237.7,496.71a4.45,4.45,0,0,1,4.52-4.57c2.62,0,4.38,1.95,4.38,4.79v.54h-6.5a2.35,2.35,0,0,0,2.52,2,3.66,3.66,0,0,0,2.31-.85l1,1.52a5.47,5.47,0,0,1-3.6,1.21A4.42,4.42,0,0,1,237.7,496.71Zm4.52-2.69a2,2,0,0,0-2.13,1.86h4.3A2,2,0,0,0,242.22,494Z"/><path class="cls-2" d="M253.66,501.09l-2-2.95-2,2.95h-2.55l3.11-4.48-2.93-4.25h2.57l1.8,2.67,1.79-2.67H256l-2.91,4.25,3.11,4.48Z"/><path class="cls-2" d="M264.24,501.09l-2.37-4.29H260v4.29h-2.57V489h5.64a3.77,3.77,0,0,1,4.07,3.89,3.5,3.5,0,0,1-2.66,3.58l2.73,4.59Zm.25-8.19a1.63,1.63,0,0,0-1.79-1.61H260v3.25h2.71A1.63,1.63,0,0,0,264.49,492.9Z"/><path class="cls-2" d="M268.77,490a1.37,1.37,0,0,1,2.73,0,1.37,1.37,0,1,1-2.73,0Zm.22,11v-8.73h2.3v8.73Z"/><path class="cls-2" d="M272.8,500l1-1.66a5,5,0,0,0,3,1.21c1,0,1.46-.38,1.46-.92,0-1.43-5.17-.26-5.17-3.69,0-1.47,1.27-2.75,3.58-2.75a5.6,5.6,0,0,1,3.51,1.19l-.92,1.63a3.79,3.79,0,0,0-2.59-1c-.83,0-1.37.36-1.37.85,0,1.28,5.19.2,5.19,3.72,0,1.61-1.38,2.79-3.8,2.79A5.91,5.91,0,0,1,272.8,500Z"/><path class="cls-2" d="M281.63,496.71a4.44,4.44,0,0,1,4.62-4.57,4.09,4.09,0,0,1,3.46,1.57l-1.5,1.41a2.14,2.14,0,0,0-1.85-.94,2.55,2.55,0,0,0,0,5.08,2.19,2.19,0,0,0,1.85-.95l1.5,1.41a4.1,4.1,0,0,1-3.46,1.59A4.44,4.44,0,0,1,281.63,496.71Z"/><path class="cls-2" d="M293.87,501.09,289.22,489h2.91l3.34,9.26,3.35-9.26h2.91l-4.65,12.06Z"/><path class="cls-2" d="M245.87,538.45a6.12,6.12,0,0,1,6.44-6.23,5.46,5.46,0,0,1,5,2.94l-2.2,1.09a3.26,3.26,0,0,0-2.82-1.76,4,4,0,0,0,0,7.92,3.25,3.25,0,0,0,2.82-1.75l2.2,1.07a5.51,5.51,0,0,1-5,3A6.13,6.13,0,0,1,245.87,538.45Z"/><path class="cls-2" d="M258.87,544.48V532.42h5.64a3.88,3.88,0,1,1,0,7.75h-3.07v4.31Zm7.07-8.18a1.63,1.63,0,0,0-1.79-1.62h-2.71v3.23h2.71A1.63,1.63,0,0,0,265.94,536.3Z"/><path class="cls-2" d="M270.17,539.65v-7.23h2.6v7.16a2.83,2.83,0,1,0,5.66,0v-7.16h2.62v7.23c0,3-1.77,5-5.44,5S270.17,542.63,270.17,539.65Z"/><path class="cls-2" d="M590.1,501.08V489h2.59v9.79h5.1v2.26Z"/><path class="cls-2" d="M599.25,490a1.37,1.37,0,0,1,2.73,0,1.37,1.37,0,1,1-2.73,0Zm.21,11v-8.72h2.3v8.72Z"/><path class="cls-2" d="M604.51,498.9v-4.54h-1.45v-2h1.45V490h2.29v2.39h1.78v2H606.8v3.92c0,.56.29,1,.8,1a1.21,1.21,0,0,0,.8-.27l.48,1.75a2.79,2.79,0,0,1-1.91.56A2.17,2.17,0,0,1,604.51,498.9Z"/><path class="cls-2" d="M609.59,496.71a4.45,4.45,0,0,1,4.52-4.57c2.62,0,4.37,1.95,4.37,4.79v.54H612a2.34,2.34,0,0,0,2.52,1.95,3.66,3.66,0,0,0,2.31-.85l1,1.52a5.47,5.47,0,0,1-3.6,1.21A4.42,4.42,0,0,1,609.59,496.71Zm4.52-2.69a2,2,0,0,0-2.14,1.86h4.31A2,2,0,0,0,614.11,494Z"/><path class="cls-2" d="M620.2,501.08V489H625c3.78,0,6.4,2.41,6.4,6s-2.62,6-6.38,6Zm8.53-6a3.52,3.52,0,0,0-3.76-3.76h-2.2v7.53H625A3.61,3.61,0,0,0,628.73,495.05Z"/><path class="cls-2" d="M640,501.08l-2.36-4.28h-1.88v4.28h-2.57V489h5.64a3.78,3.78,0,0,1,4.07,3.89,3.48,3.48,0,0,1-2.66,3.57l2.73,4.59Zm.26-8.18a1.63,1.63,0,0,0-1.79-1.61h-2.71v3.25h2.71A1.63,1.63,0,0,0,640.25,492.9Z"/><path class="cls-2" d="M653.14,501.08l-.76-2h-5.17l-.76,2h-2.91L648.18,489h3.22l4.65,12.05Zm-3.35-9.48-1.88,5.18h3.76Z"/><path class="cls-2" d="M667.65,501.08v-8.69l-3.4,8.69h-1.12l-3.4-8.69v8.69h-2.56V489h3.59l2.93,7.54,2.93-7.54h3.62v12.05Z"/><path class="cls-2" d="M569.33,544.45V532.4h4.76c3.78,0,6.4,2.4,6.4,6s-2.62,6-6.39,6Zm8.54-6a3.52,3.52,0,0,0-3.77-3.75h-2.2v7.53h2.19A3.62,3.62,0,0,0,577.87,538.41Z"/><path class="cls-2" d="M582.31,544.45V532.4h4.76c3.77,0,6.4,2.4,6.4,6s-2.63,6-6.39,6Zm8.53-6a3.51,3.51,0,0,0-3.76-3.75h-2.2v7.53h2.19A3.61,3.61,0,0,0,590.84,538.41Z"/><path class="cls-2" d="M602.11,544.45l-2.37-4.28h-1.88v4.28h-2.57V532.4h5.64a3.77,3.77,0,0,1,4.07,3.88,3.5,3.5,0,0,1-2.66,3.58l2.73,4.59Zm.25-8.19a1.63,1.63,0,0,0-1.79-1.6h-2.71v3.25h2.71A1.64,1.64,0,0,0,602.36,536.26Z"/><path class="cls-2" d="M611,538.43a6.12,6.12,0,0,1,6.44-6.23,5.46,5.46,0,0,1,5,2.94l-2.2,1.09a3.26,3.26,0,0,0-2.82-1.76,4,4,0,0,0,0,7.92,3.26,3.26,0,0,0,2.82-1.76l2.2,1.07a5.51,5.51,0,0,1-5,3A6.13,6.13,0,0,1,611,538.43Z"/><path class="cls-2" d="M623.36,540.08a4.62,4.62,0,1,1,4.61,4.58A4.43,4.43,0,0,1,623.36,540.08Zm6.86,0a2.25,2.25,0,1,0-2.25,2.54A2.3,2.3,0,0,0,630.22,540.08Z"/><path class="cls-2" d="M640.21,544.45v-5.28a1.41,1.41,0,0,0-1.61-1.62,2.55,2.55,0,0,0-2,1v5.89h-2.29v-8.73h2.29v1.12a4.1,4.1,0,0,1,3.06-1.34,2.55,2.55,0,0,1,2.86,2.79v6.16Z"/><path class="cls-2" d="M645.25,542.26v-4.53h-1.44v-2h1.44v-2.38h2.3v2.38h1.77v2h-1.77v3.92c0,.56.29,1,.8,1a1.11,1.11,0,0,0,.79-.27l.49,1.75a2.82,2.82,0,0,1-1.92.56A2.17,2.17,0,0,1,645.25,542.26Z"/><path class="cls-2" d="M650.89,544.45v-8.73h2.3v1.18a3.83,3.83,0,0,1,2.79-1.4v2.24a3.6,3.6,0,0,0-.64,0,2.92,2.92,0,0,0-2.15,1v5.77Z"/><path class="cls-2" d="M656.84,540.08a4.62,4.62,0,1,1,4.61,4.58A4.43,4.43,0,0,1,656.84,540.08Zm6.85,0a2.25,2.25,0,1,0-2.24,2.54A2.29,2.29,0,0,0,663.69,540.08Z"/><path class="cls-2" d="M667.8,544.45V532.4h2.29v12.05Z"/><path class="cls-2" d="M672.37,544.45V532.4h2.3v12.05Z"/><path class="cls-2" d="M676.38,540.08a4.46,4.46,0,0,1,4.52-4.58c2.62,0,4.38,2,4.38,4.79v.54h-6.49a2.34,2.34,0,0,0,2.51,2,3.66,3.66,0,0,0,2.31-.85l1,1.51a5.44,5.44,0,0,1-3.6,1.21A4.42,4.42,0,0,1,676.38,540.08Zm4.52-2.7a2,2,0,0,0-2.13,1.86h4.3A2,2,0,0,0,680.9,537.38Z"/><path class="cls-2" d="M686.94,544.45v-8.73h2.3v1.18a3.83,3.83,0,0,1,2.78-1.4v2.24a3.4,3.4,0,0,0-.63,0,2.92,2.92,0,0,0-2.15,1v5.77Z"/><path class="cls-2" d="M916.33,463.94a6.3,6.3,0,1,1,6.31,6.24A6.06,6.06,0,0,1,916.33,463.94Zm10,0a3.67,3.67,0,1,0-3.65,4A3.65,3.65,0,0,0,926.29,463.94Z"/><path class="cls-2" d="M936.58,470v-5.28a1.42,1.42,0,0,0-1.61-1.63,2.54,2.54,0,0,0-2,1V470h-2.3v-8.74H933v1.12a4.07,4.07,0,0,1,3-1.33,2.54,2.54,0,0,1,2.86,2.78V470Z"/><path class="cls-2" d="M945.85,470V457.91h6.34c2.3,0,3.48,1.46,3.48,3.07a2.7,2.7,0,0,1-2.08,2.77,2.88,2.88,0,0,1,2.31,2.94,3.17,3.17,0,0,1-3.51,3.28Zm7.19-8.54a1.26,1.26,0,0,0-1.41-1.26h-3.21v2.53h3.21A1.25,1.25,0,0,0,953,461.43Zm.24,4.9a1.37,1.37,0,0,0-1.54-1.37h-3.32v2.75h3.32C952.7,467.71,953.28,467.2,953.28,466.33Z"/><path class="cls-2" d="M957.22,465.59a4.62,4.62,0,1,1,4.61,4.59A4.41,4.41,0,0,1,957.22,465.59Zm6.85,0a2.25,2.25,0,1,0-2.24,2.55A2.29,2.29,0,0,0,964.07,465.59Z"/><path class="cls-2" d="M973.42,470V469a3.55,3.55,0,0,1-2.77,1.14,2.9,2.9,0,0,1-3-2.89,2.77,2.77,0,0,1,3-2.82,3.56,3.56,0,0,1,2.77,1.07v-1.11c0-.88-.76-1.46-1.92-1.46a3.66,3.66,0,0,0-2.51,1l-.91-1.61A5.63,5.63,0,0,1,971.9,461c2,0,3.83.79,3.83,3.3V470Zm0-2.1v-1.09a2.34,2.34,0,0,0-1.85-.77c-.9,0-1.64.48-1.64,1.32s.74,1.3,1.64,1.3A2.3,2.3,0,0,0,973.42,467.87Z"/><path class="cls-2" d="M978,470v-8.74h2.3v1.18a3.8,3.8,0,0,1,2.78-1.39v2.24a2.62,2.62,0,0,0-.63-.06,2.93,2.93,0,0,0-2.15,1V470Z"/><path class="cls-2" d="M990.5,470v-1.13a3.37,3.37,0,0,1-2.69,1.34c-2.19,0-3.87-1.66-3.87-4.59s1.64-4.57,3.87-4.57a3.31,3.31,0,0,1,2.69,1.33v-4.44h2.31V470Zm0-2.82v-3.1a2.48,2.48,0,0,0-2-1,2.56,2.56,0,0,0,0,5.08A2.51,2.51,0,0,0,990.5,467.15Z"/><path class="cls-2" d="M999.79,470V457.91h4.75c3.78,0,6.41,2.4,6.41,6s-2.63,6-6.39,6Zm8.53-6a3.52,3.52,0,0,0-3.76-3.76h-2.2v7.54h2.18A3.62,3.62,0,0,0,1008.32,463.93Z"/><path class="cls-2" d="M1012.77,470V457.91h4.75c3.78,0,6.4,2.4,6.4,6s-2.62,6-6.38,6Zm8.53-6a3.52,3.52,0,0,0-3.76-3.76h-2.2v7.54h2.18A3.62,3.62,0,0,0,1021.3,463.93Z"/><path class="cls-2" d="M1032.56,470l-2.36-4.29h-1.89V470h-2.56V457.91h5.64a3.77,3.77,0,0,1,4.07,3.88,3.48,3.48,0,0,1-2.66,3.58l2.73,4.6Zm.26-8.2a1.63,1.63,0,0,0-1.79-1.6h-2.72v3.25H1031A1.63,1.63,0,0,0,1032.82,461.77Z"/></g></svg>