<?xml version="1.0" encoding="UTF-8"?>
<!-- Generated by Pixelmator Pro 3.7.1 -->
<svg width="973" height="632" viewBox="0 0 973 632" xmlns="http://www.w3.org/2000/svg">
    <g id="Group">
        <g id="g1">
            <g id="g2">
                <g id="g3">
                    <g id="g4">
                        <g id="g5">
                            <g id="g6">
                                <path id="Path" fill="#a55aff" stroke="none" d="M 328.72998 125.52002 C 333 124.609985 337.349976 124.150024 341.719971 124.160034 L 342.460022 124.160034 L 342.460022 124.150024 L 343.190002 124.160034 L 345.710022 124.160034 L 343.190002 124.160034 L 536.48999 125.859985 C 536.900024 79.809998 504.919983 63.98999 490.059998 59.130005 C 486.070007 57.839966 481.909973 57.179993 477.719971 57.190002 L 341.710022 57.099976 C 337.349976 57.089966 332.98999 57.549988 328.719971 58.459961 C 293.719971 66.01001 280.659973 88.77002 275.940002 98.52002 C 273.700012 103.109985 272.530029 108.150024 272.530029 113.26001 L 272.669983 177.390015 C 273.030029 173.290039 274.130005 169.290039 275.940002 165.579956 C 280.669983 155.829956 293.72998 133.079956 328.72998 125.52002 Z"/>
                            </g>
                            <g id="g7">
                                <linearGradient id="linearGradient1" x1="344.7675" y1="91.4883" x2="474.7038" y2="91.4883" gradientUnits="userSpaceOnUse">
                                    <stop offset="1e-05" stop-color="#231f20" stop-opacity="0"/>
                                    <stop offset="1" stop-color="#231f20" stop-opacity="1"/>
                                </linearGradient>
                                <path id="path1" fill="url(#linearGradient1)" stroke="none" d="M 341.780029 124.25 L 536.5 125.869995 C 536.910034 79.820007 504.929993 64 490.070007 59.140015 C 486.080017 57.849976 481.919983 57.190002 477.72998 57.200012 L 341.780029 57.119995 L 341.780029 124.25 Z"/>
                            </g>
                            <g id="g8">
                                <path id="path2" fill="#31baa3" stroke="none" d="M 388.710022 292.049988 C 364.700012 292.049988 345.219971 272.690002 345.01001 248.719971 L 344.98999 248.73999 L 344.98999 248.73999 L 342.460022 124.160034 L 341.719971 124.160034 C 337.359985 124.150024 333 124.609985 328.72998 125.52002 C 293.72998 133.070007 280.669983 155.829956 275.950012 165.579956 C 274.140015 169.290039 273.039978 173.299988 272.679993 177.390015 L 272.869995 264.140015 C 274.210022 283.98999 280.809998 297.890015 289.559998 307.630005 L 289.559998 307.630005 C 289.559998 307.630005 289.559998 307.630005 289.559998 307.630005 C 290.179993 308.320007 290.809998 308.98999 291.460022 309.640015 C 291.469971 309.650024 291.48999 309.669983 291.5 309.679993 C 293.450012 311.650024 295.47998 313.429993 297.570007 315.039978 C 297.570007 315.039978 297.570007 315.039978 297.570007 315.039978 C 301.76001 318.27002 306.190002 320.820007 310.599976 322.830017 C 310.599976 322.830017 310.599976 322.830017 310.609985 322.830017 C 312.809998 323.830017 315 324.700012 317.159973 325.460022 C 317.169983 325.460022 317.179993 325.469971 317.190002 325.469971 C 319.340027 326.219971 321.450012 326.849976 323.48999 327.390015 C 323.52002 327.400024 323.549988 327.400024 323.570007 327.409973 C 324.219971 327.580017 324.859985 327.73999 325.5 327.890015 C 325.530029 327.900024 325.559998 327.909973 325.599976 327.909973 C 326.909973 328.219971 328.190002 328.48999 329.429993 328.72998 C 329.469971 328.73999 329.52002 328.75 329.559998 328.75 C 330.119995 328.859985 330.669983 328.950012 331.210022 329.049988 C 331.280029 329.059998 331.349976 329.070007 331.419983 329.090027 C 332.590027 329.289978 333.710022 329.450012 334.780029 329.590027 C 334.840027 329.599976 334.890015 329.599976 334.950012 329.609985 C 335.409973 329.669983 335.859985 329.719971 336.299988 329.77002 C 336.390015 329.780029 336.48999 329.789978 336.580017 329.799988 C 337.039978 329.849976 337.48999 329.900024 337.919983 329.940002 C 337.940002 329.940002 337.969971 329.940002 337.98999 329.950012 C 338.460022 329.98999 338.909973 330.030029 339.349976 330.070007 C 339.419983 330.080017 339.47998 330.080017 339.539978 330.080017 C 339.900024 330.109985 340.23999 330.130005 340.570007 330.150024 C 340.669983 330.159973 340.76001 330.159973 340.859985 330.169983 C 341.179993 330.190002 341.5 330.210022 341.799988 330.219971 C 341.849976 330.219971 341.909973 330.22998 341.969971 330.22998 C 342.320007 330.25 342.659973 330.26001 342.97998 330.27002 C 343.030029 330.27002 343.070007 330.27002 343.119995 330.27002 C 343.380005 330.280029 343.630005 330.289978 343.869995 330.289978 C 343.950012 330.289978 344.02002 330.289978 344.090027 330.289978 C 344.309998 330.289978 344.51001 330.299988 344.700012 330.299988 C 344.73999 330.299988 344.789978 330.299988 344.830017 330.299988 C 345.72998 330.309998 346.309998 330.289978 346.530029 330.280029 C 346.539978 330.280029 346.549988 330.280029 346.559998 330.280029 C 346.580017 330.280029 346.599976 330.280029 346.609985 330.280029 C 346.609985 330.280029 346.609985 330.280029 346.609985 330.280029 L 346.640015 330.280029 C 377.320007 333.419983 415.289978 284.070007 415.289978 284.070007 L 420.26001 278.530029 C 412.309998 286.869995 401.119995 292.049988 388.710022 292.049988 Z"/>
                            </g>
                            <path id="path3" fill="#0081e2" stroke="none" d="M 536.48999 125.869995 L 536.48999 124.929993 C 536.48999 124.450012 536.48999 123.969971 536.47998 123.5 L 536.47998 123.23999 C 536.47998 123.059998 536.469971 122.880005 536.459961 122.700012 C 536.449951 122.48999 536.449951 122.280029 536.439941 122.079956 C 536.439941 122.070007 536.439941 122.049988 536.439941 122.040039 C 536.439941 121.959961 536.430054 121.869995 536.430054 121.790039 C 536.430054 121.780029 536.430054 121.77002 536.430054 121.76001 C 536.430054 121.650024 536.430054 121.540039 536.420044 121.429993 C 536.420044 121.25 536.410034 121.059998 536.400024 120.869995 C 536.390015 120.76001 536.380005 120.650024 536.380005 120.549988 C 536.359985 120.130005 536.339966 119.719971 536.310059 119.299988 C 536.300049 119.099976 536.290039 118.890015 536.280029 118.679993 C 536.26001 118.5 536.25 118.320007 536.23999 118.140015 C 536.219971 117.969971 536.209961 117.809998 536.199951 117.640015 C 536.170044 117.27002 536.140015 116.920044 536.109985 116.570007 C 535.939941 114.650024 535.689941 112.790039 535.390015 110.97998 C 535.310059 110.5 535.219971 110.01001 535.130005 109.530029 C 535.109985 109.390015 535.089966 109.25 535.060059 109.109985 C 535.040039 109 535.02002 108.890015 535 108.790039 C 534.949951 108.530029 534.900024 108.280029 534.839966 108.030029 C 534.73999 107.52002 534.630005 107.01001 534.52002 106.51001 C 534.400024 105.969971 534.27002 105.440002 534.140015 104.920044 C 534.119995 104.820007 534.099976 104.719971 534.069946 104.619995 C 533.910034 103.98999 533.73999 103.369995 533.560059 102.75 C 533.390015 102.109985 533.189941 101.47998 532.98999 100.849976 C 532.849976 100.390015 532.699951 99.940002 532.540039 99.48999 C 532.48999 99.329956 532.439941 99.179993 532.380005 99.030029 C 532.329956 98.880005 532.27002 98.719971 532.219971 98.570007 C 532.170044 98.429993 532.119995 98.290039 532.060059 98.150024 C 531.949951 97.849976 531.839966 97.549988 531.72998 97.26001 C 531.709961 97.190002 531.680054 97.140015 531.660034 97.070007 C 531.550049 96.790039 531.439941 96.5 531.329956 96.22998 C 530.890015 95.109985 530.410034 94.030029 529.910034 92.969971 C 529.73999 92.599976 529.560059 92.22998 529.380005 91.859985 C 529.300049 91.690002 529.209961 91.51001 529.109985 91.339966 C 528.939941 90.969971 528.73999 90.619995 528.550049 90.26001 C 528.380005 89.950012 528.22998 89.650024 528.060059 89.349976 C 528.030029 89.280029 527.98999 89.219971 527.939941 89.160034 C 527.719971 88.75 527.48999 88.349976 527.26001 87.959961 C 526.859985 87.280029 526.449951 86.609985 526.030029 85.959961 C 525.859985 85.700012 525.699951 85.440002 525.530029 85.190002 C 525.170044 84.660034 524.810059 84.140015 524.449951 83.630005 C 524.23999 83.329956 524.030029 83.049988 523.819946 82.76001 C 523.420044 82.209961 523 81.670044 522.579956 81.140015 C 522.47998 81.01001 522.369995 80.880005 522.27002 80.76001 C 522.040039 80.459961 521.790039 80.160034 521.540039 79.859985 C 521.380005 79.679993 521.219971 79.5 521.069946 79.320007 C 520.910034 79.140015 520.75 78.950012 520.589966 78.77002 C 520.449951 78.599976 520.310059 78.450012 520.170044 78.290039 C 519.969971 78.070007 519.76001 77.839966 519.550049 77.619995 C 518.719971 76.709961 517.869995 75.849976 517 75.01001 C 516.680054 74.719971 516.380005 74.420044 516.060059 74.130005 C 514.829956 73 513.579956 71.940002 512.319946 70.950012 C 511.819946 70.549988 511.310059 70.170044 510.800049 69.790039 C 509.789978 69.030029 508.780029 68.320007 507.77002 67.670044 C 507.27002 67.329956 506.76001 67.01001 506.26001 66.700012 C 505.76001 66.380005 505.26001 66.079956 504.76001 65.780029 C 504.359985 65.549988 503.969971 65.320007 503.580017 65.099976 C 502.97998 64.76001 502.390015 64.429993 501.809998 64.130005 C 501.320007 63.880005 500.840027 63.630005 500.359985 63.390015 C 499.400024 62.900024 498.460022 62.459961 497.549988 62.049988 C 496.179993 61.429993 494.849976 60.880005 493.609985 60.410034 C 493.190002 60.25 492.789978 60.089966 492.390015 59.950012 C 492.109985 59.839966 491.820007 59.73999 491.539978 59.640015 C 491.049988 59.469971 490.570007 59.309998 490.109985 59.160034 C 486.119995 57.869995 481.960022 57.209961 477.77002 57.219971 L 450.539978 57.200012 L 450.25 57.150024 L 414.929993 57.119995 C 415.679993 57.119995 416.419983 57.140015 417.159973 57.170044 C 442.48999 58.339966 462.659973 79.23999 462.659973 104.859985 C 462.659973 112.130005 461.039978 119.030029 458.119995 125.200012 L 458.119995 125.209961 C 456.179993 129.309998 453.690002 133.089966 450.719971 136.440002 L 345.049988 248.73999 C 345.25 272.710022 364.73999 292.070007 388.75 292.070007 C 401.159973 292.070007 412.349976 286.890015 420.299988 278.590027 L 517.73999 170.01001 C 524.560059 164.01001 529.77002 153.969971 532.939941 146.589966 C 535.280029 141.119995 536.5 135.219971 536.550049 129.27002 L 536.569946 125.890015 L 536.48999 125.890015 Z"/>
                            <linearGradient id="linearGradient2" x1="466.4379" y1="176.6707" x2="330.2511" y2="312.8575" gradientUnits="userSpaceOnUse">
                                <stop offset="1e-05" stop-color="#231f20" stop-opacity="0"/>
                                <stop offset="1" stop-color="#000000" stop-opacity="1"/>
                            </linearGradient>
                            <path id="path4" fill="url(#linearGradient2)" stroke="none" d="M 466.380005 158.51001 C 459.580017 152.849976 452.890015 147.01001 446.47998 140.890015 L 345.02002 248.719971 C 345.219971 272.690002 364.710022 292.049988 388.719971 292.049988 C 401.130005 292.049988 412.320007 286.869995 420.27002 278.570007 L 502.530029 186.910034 C 490.119995 177.809998 478.070007 168.23999 466.380005 158.51001 Z"/>
                            <g id="g9">
                                <linearGradient id="linearGradient3" x1="308.3857" y1="215.8393" x2="308.3857" y2="117.6533" gradientUnits="userSpaceOnUse">
                                    <stop offset="1e-05" stop-color="#231f20" stop-opacity="0"/>
                                    <stop offset="1" stop-color="#000000" stop-opacity="1"/>
                                </linearGradient>
                                <path id="path5" fill="url(#linearGradient3)" stroke="none" d="M 344.080017 235.669983 L 342.460022 124.170044 L 341.719971 124.170044 C 337.359985 124.160034 333 124.619995 328.72998 125.530029 C 293.72998 133.079956 280.669983 155.839966 275.950012 165.589966 C 274.140015 169.299988 273.039978 173.309998 272.679993 177.400024 L 272.73999 235.669983 L 344.080017 235.669983 Z"/>
                            </g>
                        </g>
                        <g id="g10">
                            <g id="g11">
                                <path id="path6" fill="#a55aff" stroke="none" d="M 641.22998 333.909973 C 636.810059 334.849976 632.300049 335.330017 627.77002 335.320007 L 627 335.320007 L 627 335.330017 L 626.25 335.320007 L 623.640015 335.320007 L 626.25 335.320007 L 425.940002 333.559998 C 425.52002 381.280029 458.650024 397.679993 474.049988 402.710022 C 478.179993 404.049988 482.5 404.72998 486.840027 404.719971 L 627.780029 404.809998 C 632.300049 404.820007 636.810059 404.340027 641.23999 403.400024 C 677.51001 395.570007 691.040039 371.98999 695.930054 361.890015 C 698.25 357.130005 699.459961 351.909973 699.459961 346.609985 L 699.310059 280.150024 C 698.939941 284.400024 697.800049 288.549988 695.920044 292.390015 C 691.030029 302.5 677.5 326.080017 641.22998 333.909973 Z"/>
                            </g>
                            <g id="g12">
                                <linearGradient id="linearGradient4" x1="624.6143" y1="369.1814" x2="489.9658" y2="369.1814" gradientUnits="userSpaceOnUse">
                                    <stop offset="1e-05" stop-color="#231f20" stop-opacity="0"/>
                                    <stop offset="1" stop-color="#231f20" stop-opacity="1"/>
                                </linearGradient>
                                <path id="path7" fill="url(#linearGradient4)" stroke="none" d="M 627.709961 335.22998 L 425.929993 333.549988 C 425.51001 381.27002 458.640015 397.669983 474.039978 402.700012 C 478.169983 404.039978 482.48999 404.719971 486.830017 404.710022 L 627.709961 404.799988 L 627.709961 335.22998 Z"/>
                            </g>
                            <g id="g13">
                                <path id="path8" fill="#31baa3" stroke="none" d="M 579.069946 161.349976 C 603.949951 161.349976 624.140015 181.420044 624.359985 206.25 L 624.380005 206.219971 L 624.380005 206.219971 L 627 335.320007 L 627.77002 335.320007 C 632.290039 335.330017 636.800049 334.849976 641.22998 333.909973 C 677.5 326.080017 691.030029 302.5 695.920044 292.400024 C 697.800049 288.549988 698.930054 284.400024 699.310059 280.159973 L 699.109985 190.26001 C 697.72998 169.690002 690.880005 155.290039 681.810059 145.190002 L 681.810059 145.190002 C 681.810059 145.190002 681.810059 145.190002 681.810059 145.190002 C 681.170044 144.469971 680.51001 143.780029 679.839966 143.099976 C 679.829956 143.089966 679.810059 143.070007 679.800049 143.059998 C 677.780029 141.02002 675.680054 139.179993 673.51001 137.51001 C 673.51001 137.51001 673.51001 137.51001 673.51001 137.51001 C 669.160034 134.160034 664.579956 131.52002 660.01001 129.429993 C 660.01001 129.429993 660.01001 129.429993 660 129.429993 C 657.719971 128.390015 655.449951 127.48999 653.209961 126.709961 C 653.199951 126.709961 653.189941 126.700012 653.180054 126.700012 C 650.959961 125.920044 648.77002 125.27002 646.650024 124.709961 C 646.619995 124.700012 646.589966 124.700012 646.560059 124.690002 C 645.890015 124.51001 645.219971 124.349976 644.560059 124.190002 C 644.530029 124.179993 644.48999 124.170044 644.459961 124.170044 C 643.099976 123.849976 641.77002 123.570007 640.48999 123.320007 C 640.439941 123.309998 640.400024 123.299988 640.349976 123.290039 C 639.77002 123.179993 639.199951 123.079956 638.640015 122.97998 C 638.569946 122.969971 638.48999 122.950012 638.420044 122.940002 C 637.209961 122.73999 636.050049 122.570007 634.939941 122.420044 C 634.880005 122.410034 634.819946 122.410034 634.76001 122.400024 C 634.280029 122.339966 633.819946 122.280029 633.359985 122.22998 C 633.26001 122.219971 633.170044 122.209961 633.069946 122.200012 C 632.599976 122.150024 632.130005 122.099976 631.680054 122.059998 C 631.660034 122.059998 631.630005 122.049988 631.599976 122.049988 C 631.109985 122 630.640015 121.959961 630.189941 121.929993 C 630.119995 121.920044 630.060059 121.920044 629.98999 121.920044 C 629.619995 121.890015 629.26001 121.869995 628.920044 121.839966 C 628.819946 121.829956 628.719971 121.829956 628.619995 121.820007 C 628.280029 121.799988 627.959961 121.780029 627.650024 121.77002 C 627.589966 121.77002 627.530029 121.76001 627.47998 121.76001 C 627.109985 121.73999 626.76001 121.72998 626.430054 121.719971 C 626.380005 121.719971 626.339966 121.719971 626.290039 121.719971 C 626.02002 121.709961 625.76001 121.700012 625.51001 121.700012 C 625.430054 121.700012 625.359985 121.700012 625.280029 121.700012 C 625.060059 121.700012 624.849976 121.690002 624.650024 121.690002 C 624.609985 121.690002 624.560059 121.690002 624.52002 121.690002 C 623.589966 121.679993 622.98999 121.700012 622.76001 121.709961 C 622.75 121.709961 622.73999 121.709961 622.72998 121.709961 C 622.699951 121.709961 622.689941 121.709961 622.680054 121.709961 C 622.680054 121.709961 622.680054 121.709961 622.680054 121.709961 L 622.650024 121.709961 C 590.859985 118.450012 551.51001 169.589966 551.51001 169.589966 L 546.359985 175.329956 C 554.619995 166.719971 566.209961 161.349976 579.069946 161.349976 Z"/>
                            </g>
                            <path id="path9" fill="#0081e2" stroke="none" d="M 425.940002 333.559998 L 425.940002 334.539978 C 425.940002 335.039978 425.940002 335.530029 425.950012 336.02002 L 425.950012 336.289978 C 425.950012 336.47998 425.960022 336.659973 425.969971 336.849976 C 425.97998 337.070007 425.97998 337.280029 425.98999 337.48999 C 425.98999 337.5 425.98999 337.52002 425.98999 337.530029 C 425.98999 337.619995 426 337.700012 426 337.789978 C 426 337.799988 426 337.809998 426 337.820007 C 426 337.929993 426 338.049988 426.01001 338.169983 C 426.01001 338.359985 426.02002 338.559998 426.030029 338.75 C 426.039978 338.859985 426.049988 338.969971 426.049988 339.080017 C 426.070007 339.51001 426.090027 339.940002 426.130005 340.369995 C 426.140015 340.580017 426.150024 340.789978 426.159973 341.01001 C 426.179993 341.200012 426.190002 341.380005 426.200012 341.570007 C 426.219971 341.73999 426.22998 341.919983 426.23999 342.090027 C 426.27002 342.469971 426.299988 342.840027 426.330017 343.200012 C 426.51001 345.190002 426.76001 347.119995 427.070007 348.98999 C 427.159973 349.48999 427.23999 349.98999 427.340027 350.48999 C 427.359985 350.640015 427.380005 350.780029 427.419983 350.929993 C 427.440002 351.039978 427.460022 351.150024 427.47998 351.26001 C 427.530029 351.530029 427.580017 351.789978 427.640015 352.049988 C 427.73999 352.580017 427.859985 353.099976 427.97998 353.630005 C 428.099976 354.190002 428.23999 354.72998 428.380005 355.280029 C 428.400024 355.380005 428.419983 355.48999 428.460022 355.590027 C 428.619995 356.25 428.809998 356.880005 428.98999 357.52002 C 429.169983 358.179993 429.369995 358.840027 429.590027 359.48999 C 429.73999 359.960022 429.890015 360.429993 430.059998 360.900024 C 430.109985 361.059998 430.159973 361.219971 430.219971 361.369995 C 430.27002 361.530029 430.330017 361.690002 430.380005 361.840027 C 430.429993 361.98999 430.47998 362.130005 430.539978 362.280029 C 430.650024 362.590027 430.77002 362.900024 430.890015 363.200012 C 430.919983 363.27002 430.940002 363.330017 430.969971 363.400024 C 431.080017 363.690002 431.190002 363.98999 431.320007 364.27002 C 431.780029 365.429993 432.27002 366.549988 432.799988 367.640015 C 432.97998 368.030029 433.159973 368.409973 433.349976 368.789978 C 433.440002 368.969971 433.530029 369.150024 433.630005 369.330017 C 433.809998 369.710022 434.01001 370.080017 434.210022 370.450012 C 434.380005 370.77002 434.549988 371.080017 434.719971 371.390015 C 434.75 371.460022 434.789978 371.530029 434.840027 371.590027 C 435.059998 372.01001 435.309998 372.429993 435.549988 372.830017 C 435.960022 373.539978 436.390015 374.22998 436.830017 374.900024 C 437 375.169983 437.179993 375.440002 437.349976 375.700012 C 437.719971 376.25 438.090027 376.789978 438.469971 377.309998 C 438.690002 377.619995 438.900024 377.909973 439.130005 378.219971 C 439.539978 378.789978 439.97998 379.349976 440.419983 379.900024 C 440.52002 380.039978 440.640015 380.169983 440.73999 380.299988 C 440.97998 380.609985 441.23999 380.919983 441.5 381.22998 C 441.659973 381.419983 441.830017 381.599976 441.98999 381.789978 C 442.150024 381.97998 442.320007 382.169983 442.47998 382.359985 C 442.630005 382.530029 442.77002 382.700012 442.919983 382.859985 C 443.130005 383.090027 443.340027 383.330017 443.559998 383.559998 C 444.419983 384.5 445.299988 385.400024 446.200012 386.26001 C 446.530029 386.559998 446.849976 386.869995 447.179993 387.169983 C 448.460022 388.340027 449.75 389.440002 451.049988 390.469971 C 451.570007 390.880005 452.090027 391.280029 452.619995 391.669983 C 453.659973 392.460022 454.719971 393.190002 455.76001 393.869995 C 456.280029 394.219971 456.799988 394.549988 457.320007 394.880005 C 457.840027 395.210022 458.359985 395.52002 458.869995 395.830017 C 459.280029 396.070007 459.690002 396.299988 460.099976 396.539978 C 460.719971 396.890015 461.330017 397.22998 461.940002 397.549988 C 462.450012 397.809998 462.950012 398.070007 463.440002 398.320007 C 464.429993 398.830017 465.409973 399.289978 466.359985 399.710022 C 467.780029 400.359985 469.159973 400.919983 470.440002 401.409973 C 470.869995 401.570007 471.289978 401.73999 471.710022 401.880005 C 472 401.98999 472.309998 402.099976 472.590027 402.200012 C 473.099976 402.380005 473.599976 402.549988 474.070007 402.700012 C 478.200012 404.039978 482.52002 404.719971 486.859985 404.710022 L 515.079956 404.72998 L 515.380005 404.780029 L 551.97998 404.809998 C 551.199951 404.809998 550.439941 404.789978 549.670044 404.76001 C 523.430054 403.549988 502.52002 381.890015 502.52002 355.349976 C 502.52002 347.820007 504.200012 340.669983 507.219971 334.280029 L 507.219971 334.27002 C 509.22998 330.02002 511.810059 326.109985 514.880005 322.630005 L 624.380005 206.26001 C 624.170044 181.420044 603.97998 161.359985 579.099976 161.359985 C 566.23999 161.359985 554.640015 166.72998 546.400024 175.329956 L 445.409973 287.840027 C 438.340027 294.049988 432.950012 304.460022 429.659973 312.109985 C 427.23999 317.780029 425.969971 323.890015 425.919983 330.059998 L 425.890015 333.559998 L 425.940002 333.559998 Z"/>
                            <linearGradient id="linearGradient5" x1="498.5322" y1="280.9102" x2="639.6572" y2="139.7852" gradientUnits="userSpaceOnUse">
                                <stop offset="1e-05" stop-color="#231f20" stop-opacity="0"/>
                                <stop offset="1" stop-color="#000000" stop-opacity="1"/>
                            </linearGradient>
                            <path id="path10" fill="url(#linearGradient5)" stroke="none" d="M 498.590027 299.72998 C 505.630005 305.599976 512.569946 311.650024 519.209961 317.98999 L 624.359985 206.25 C 624.150024 181.410034 603.959961 161.349976 579.079956 161.349976 C 566.219971 161.349976 554.619995 166.719971 546.380005 175.320007 L 461.140015 270.309998 C 473.98999 279.72998 486.47998 289.650024 498.590027 299.72998 Z"/>
                            <g id="g14">
                                <linearGradient id="linearGradient6" x1="662.3154" y1="240.3213" x2="662.3154" y2="342.0676" gradientUnits="userSpaceOnUse">
                                    <stop offset="1e-05" stop-color="#231f20" stop-opacity="0"/>
                                    <stop offset="1" stop-color="#000000" stop-opacity="1"/>
                                </linearGradient>
                                <path id="path11" fill="url(#linearGradient6)" stroke="none" d="M 625.319946 219.77002 L 627 335.320007 L 627.77002 335.320007 C 632.290039 335.330017 636.800049 334.849976 641.22998 333.909973 C 677.5 326.080017 691.030029 302.5 695.920044 292.400024 C 697.800049 288.549988 698.930054 284.400024 699.310059 280.159973 L 699.25 219.780029 L 625.319946 219.780029 Z"/>
                            </g>
                        </g>
                    </g>
                </g>
            </g>
        </g>
        <g id="g15">
            <g id="g16">
                <path id="path12" fill="#203f5b" stroke="none" d="M 54.26001 449.5 L 81.159973 449.5 C 82.200012 449.619995 83.210022 449.669983 84.200012 449.669983 C 85.179993 449.669983 86.140015 449.72998 87.059998 449.840027 C 95.619995 450.070007 104.070007 451.140015 112.400024 453.049988 C 120.72998 454.960022 128.25 458.809998 134.969971 464.590027 C 140.869995 469.570007 145.640015 475.669983 149.289978 482.900024 C 152.940002 490.130005 155.280029 497.630005 156.320007 505.380005 C 156.549988 506.890015 156.719971 508.390015 156.840027 509.890015 C 156.950012 511.400024 157.01001 512.900024 157.01001 514.400024 C 157.01001 515.669983 156.97998 516.950012 156.919983 518.219971 C 156.859985 519.5 156.719971 520.77002 156.48999 522.039978 C 155.559998 529.789978 153.219971 537.309998 149.460022 544.609985 C 145.700012 551.900024 140.869995 558.090027 134.969971 563.179993 C 127.219971 569.780029 118.849976 573.859985 109.890015 575.419983 C 100.919983 576.97998 91.52002 577.76001 81.679993 577.76001 L 54.25 577.76001 L 54.25 449.5 Z M 80.98999 554.690002 C 87.700012 554.809998 94.119995 554.429993 100.26001 553.559998 C 106.390015 552.690002 112.23999 550.23999 117.789978 546.179993 C 122.76001 542.359985 126.580017 537.669983 129.25 532.119995 C 131.909973 526.570007 133.23999 520.659973 133.23999 514.409973 C 133.23999 507.700012 131.789978 501.309998 128.900024 495.22998 C 126.01001 489.150024 121.780029 484.210022 116.22998 480.390015 C 112.059998 477.5 107.580017 475.559998 102.780029 474.580017 C 97.97998 473.599976 93.090027 473.049988 88.109985 472.929993 C 86.719971 472.820007 85.330017 472.76001 83.940002 472.76001 C 82.549988 472.76001 81.159973 472.76001 79.77002 472.76001 L 78.030029 472.76001 L 78.030029 554.690002 L 80.98999 554.690002 Z"/>
                <path id="path13" fill="#203f5b" stroke="none" d="M 193.640015 539.929993 C 195.380005 545.599976 198.590027 550.109985 203.27002 553.469971 C 207.960022 556.830017 213.190002 558.5 218.97998 558.5 C 223.380005 558.5 227.51001 557.75 231.390015 556.23999 C 235.27002 554.73999 238.299988 552.710022 240.5 550.159973 L 266.02002 549.98999 C 263.130005 558.669983 257.25 565.98999 248.400024 571.950012 C 239.549988 577.909973 230.030029 580.890015 219.849976 580.890015 C 205.849976 580.890015 193.900024 576 184.01001 566.219971 C 174.119995 556.440002 169.169983 544.549988 169.169983 530.549988 C 169.169983 516.320007 174.090027 504.109985 183.919983 493.929993 C 193.75 483.75 205.849976 478.650024 220.200012 478.650024 C 233.969971 478.650024 245.630005 483.700012 255.179993 493.789978 C 264.72998 503.890015 269.5 515.630005 269.5 529.01001 C 269.5 530.51001 269.409973 531.97998 269.23999 533.429993 C 269.070007 534.869995 268.859985 536.289978 268.630005 537.669983 C 268.51001 538.130005 268.429993 538.539978 268.369995 538.890015 C 268.309998 539.23999 268.280029 539.580017 268.280029 539.929993 L 193.640015 539.929993 Z M 246.23999 519.450012 C 244.390015 513.780029 241.030029 509.330017 236.169983 506.080017 C 231.309998 502.840027 225.929993 501.219971 220.030029 501.219971 C 219.799988 501.219971 219.570007 501.219971 219.340027 501.219971 C 219.109985 501.219971 218.880005 501.219971 218.650024 501.219971 C 213.099976 501.559998 207.890015 503.369995 203.030029 506.640015 C 198.169983 509.909973 194.929993 514.179993 193.309998 519.450012 L 246.23999 519.450012 Z"/>
                <path id="path14" fill="#203f5b" stroke="none" d="M 284.419983 449.5 L 307.51001 449.5 L 307.51001 577.77002 L 284.419983 577.77002 L 284.419983 449.5 Z"/>
                <path id="path15" fill="#203f5b" stroke="none" d="M 373.809998 478.48999 C 387.929993 478.609985 399.849976 483.72998 409.570007 493.849976 C 419.289978 503.97998 424.150024 516.039978 424.150024 530.039978 C 424.150024 544.27002 419.119995 556.309998 409.049988 566.140015 C 398.97998 575.97998 386.890015 580.890015 372.77002 580.890015 C 358.880005 580.890015 346.929993 575.919983 336.929993 565.960022 C 326.919983 556.01001 321.919983 544.030029 321.919983 530.030029 C 321.919983 515.570007 326.97998 503.390015 337.109985 493.48999 C 347.22998 483.599976 359.469971 478.650024 373.820007 478.650024 L 373.820007 478.48999 Z M 370.690002 501.309998 C 370 501.369995 369.299988 501.460022 368.609985 501.570007 C 365.719971 502.150024 362.880005 503.190002 360.099976 504.690002 C 357.320007 506.200012 354.950012 507.98999 352.97998 510.070007 C 350.320007 512.72998 348.320007 515.77002 346.98999 519.179993 C 345.659973 522.590027 344.98999 526.210022 344.98999 530.030029 C 344.98999 537.780029 347.650024 544.469971 352.969971 550.080017 C 358.289978 555.690002 364.890015 558.5 372.76001 558.5 C 380.969971 558.5 387.73999 555.77002 393.070007 550.320007 C 398.390015 544.869995 401.049988 538.070007 401.049988 529.950012 C 401.049988 522.059998 398.330017 515.27002 392.890015 509.580017 C 387.450012 503.890015 380.73999 501.049988 372.75 501.049988 C 372.080017 501.169983 371.380005 501.26001 370.690002 501.309998 Z"/>
                <path id="path16" fill="#203f5b" stroke="none" d="M 475.530029 508 C 475.179993 505.799988 474.169983 504.119995 472.48999 502.969971 C 470.809998 501.809998 468.869995 501.22998 466.679993 501.22998 C 464.130005 501.22998 461.98999 501.900024 460.26001 503.22998 C 458.52002 504.559998 457.659973 506.559998 457.659973 509.219971 L 457.659973 509.390015 C 457.539978 511.590027 458.349976 513.299988 460.090027 514.51001 C 461.830017 515.719971 463.679993 516.679993 465.640015 517.369995 C 466.559998 517.599976 467.460022 517.830017 468.330017 518.059998 C 469.200012 518.289978 469.97998 518.52002 470.669983 518.75 C 478.419983 521.070007 485.359985 524.099976 491.5 527.859985 C 497.630005 531.619995 500.700012 538.299988 500.700012 547.909973 C 500.700012 552.419983 499.890015 556.619995 498.27002 560.48999 C 496.650024 564.369995 494.219971 567.869995 490.97998 570.98999 C 488.429993 573.309998 485.450012 575.27002 482.039978 576.890015 C 478.630005 578.51001 475.119995 579.669983 471.539978 580.359985 C 470.609985 580.469971 469.690002 580.590027 468.76001 580.710022 C 467.830017 580.820007 466.909973 580.880005 465.97998 580.880005 C 456.140015 580.880005 447.960022 577.809998 441.419983 571.679993 C 434.880005 565.549988 431.440002 557.559998 431.090027 547.72998 L 454.700012 547.72998 C 455.280029 550.849976 456.609985 553.460022 458.690002 555.539978 C 460.77002 557.619995 463.48999 558.659973 466.849976 558.659973 C 469.630005 558.659973 472.109985 557.880005 474.309998 556.320007 C 476.51001 554.76001 477.609985 552.469971 477.609985 549.460022 C 477.609985 546.559998 476.539978 544.330017 474.400024 542.77002 C 472.26001 541.200012 469.859985 539.950012 467.200012 539.030029 C 466.159973 538.570007 465.140015 538.190002 464.159973 537.900024 C 463.179993 537.609985 462.219971 537.289978 461.299988 536.940002 C 460.48999 536.710022 459.73999 536.47998 459.039978 536.25 C 458.349976 536.02002 457.650024 535.789978 456.960022 535.549988 C 455.690002 535.090027 454.469971 534.619995 453.309998 534.159973 C 452.150024 533.700012 450.98999 533.169983 449.840027 532.590027 C 448.909973 532.130005 447.960022 531.580017 446.97998 530.940002 C 446 530.299988 444.97998 529.52002 443.940002 528.590027 C 440.820007 525.919983 438.469971 522.909973 436.909973 519.539978 C 435.349976 516.179993 434.570007 512.460022 434.570007 508.400024 C 434.570007 499.469971 437.869995 492.27002 444.460022 486.820007 C 451.059998 481.369995 458.580017 478.640015 467.030029 478.640015 C 475.01001 478.640015 482.190002 481.48999 488.549988 487.179993 C 494.909973 492.880005 498.099976 499.809998 498.099976 507.969971 L 475.530029 507.969971 Z"/>
                <path id="path17" fill="#203f5b" stroke="none" d="M 534.660034 449.5 L 561.560059 449.5 C 562.599976 449.619995 563.609985 449.669983 564.599976 449.669983 C 565.579956 449.669983 566.540039 449.72998 567.459961 449.840027 C 576.02002 450.070007 584.469971 451.140015 592.800049 453.049988 C 601.130005 454.960022 608.650024 458.809998 615.369995 464.590027 C 621.27002 469.570007 626.040039 475.669983 629.689941 482.900024 C 633.339966 490.130005 635.680054 497.630005 636.719971 505.380005 C 636.949951 506.890015 637.119995 508.390015 637.23999 509.890015 C 637.349976 511.400024 637.410034 512.900024 637.410034 514.400024 C 637.410034 515.669983 637.380005 516.950012 637.319946 518.219971 C 637.26001 519.5 637.119995 520.77002 636.890015 522.039978 C 635.959961 529.789978 633.619995 537.309998 629.859985 544.609985 C 626.099976 551.900024 621.27002 558.090027 615.369995 563.179993 C 607.619995 569.780029 599.25 573.859985 590.290039 575.419983 C 581.319946 576.97998 571.920044 577.76001 562.079956 577.76001 L 534.650024 577.76001 L 534.650024 449.5 Z M 561.390015 554.690002 C 568.099976 554.809998 574.52002 554.429993 580.660034 553.559998 C 586.790039 552.690002 592.640015 550.23999 598.189941 546.179993 C 603.160034 542.359985 606.97998 537.669983 609.650024 532.119995 C 612.310059 526.570007 613.640015 520.659973 613.640015 514.409973 C 613.640015 507.700012 612.189941 501.309998 609.300049 495.22998 C 606.410034 489.150024 602.180054 484.210022 596.630005 480.390015 C 592.459961 477.5 587.97998 475.559998 583.180054 474.580017 C 578.380005 473.599976 573.48999 473.049988 568.51001 472.929993 C 567.119995 472.820007 565.72998 472.76001 564.339966 472.76001 C 562.949951 472.76001 561.560059 472.76001 560.170044 472.76001 L 558.430054 472.76001 L 558.430054 554.690002 L 561.390015 554.690002 Z"/>
                <path id="path18" fill="#203f5b" stroke="none" d="M 751.109985 577.77002 L 729.930054 577.77002 L 729.930054 564.75 L 729.579956 564.75 C 726.689941 568.919983 722.869995 572.330017 718.119995 574.98999 C 713.369995 577.650024 708.459961 579.440002 703.369995 580.369995 C 702.329956 580.47998 701.26001 580.599976 700.160034 580.719971 C 699.060059 580.830017 697.98999 580.890015 696.949951 580.890015 C 689.540039 580.890015 682.829956 579.469971 676.810059 576.640015 C 670.790039 573.809998 665.699951 569.900024 661.530029 564.919983 C 657.709961 560.289978 654.76001 554.969971 652.680054 548.950012 C 650.599976 542.929993 649.560059 536.570007 649.560059 529.859985 C 649.560059 523.150024 650.51001 516.960022 652.420044 511.289978 C 654.329956 505.619995 657.47998 500.299988 661.880005 495.320007 C 666.73999 489.650024 672.150024 485.460022 678.109985 482.73999 C 684.069946 480.02002 690.579956 478.659973 697.640015 478.659973 C 704.23999 478.659973 710.310059 480.080017 715.869995 482.909973 C 721.430054 485.75 726.109985 489.880005 729.930054 495.320007 L 729.930054 481.609985 L 751.109985 481.609985 L 751.109985 577.77002 Z M 729.23999 529.52002 C 729.23999 521.539978 726.660034 514.799988 721.52002 509.299988 C 716.369995 503.809998 709.689941 501.119995 701.469971 501.22998 C 693.02002 501.119995 686.109985 503.890015 680.72998 509.559998 C 675.349976 515.22998 672.660034 522.289978 672.660034 530.73999 C 672.660034 538.609985 675.459961 545.22998 681.079956 550.619995 C 686.689941 556 693.369995 558.630005 701.130005 558.52002 C 709.459961 558.640015 716.22998 555.919983 721.439941 550.359985 C 726.650024 544.809998 729.25 537.919983 729.25 529.700012 L 729.25 529.52002 Z"/>
                <path id="path19" fill="#203f5b" stroke="none" d="M 771.76001 502.090027 L 760.47998 502.090027 L 760.47998 481.609985 L 771.76001 481.609985 L 771.76001 449.5 L 794.849976 449.5 L 794.849976 481.609985 L 808.73999 481.609985 L 808.73999 502.090027 L 794.849976 502.090027 L 794.849976 577.77002 L 771.76001 577.77002 L 771.76001 502.090027 Z"/>
                <path id="path20" fill="#203f5b" stroke="none" d="M 917.73999 577.77002 L 896.560059 577.77002 L 896.560059 564.75 L 896.209961 564.75 C 893.319946 568.919983 889.5 572.330017 884.75 574.98999 C 880 577.650024 875.089966 579.440002 870 580.369995 C 868.959961 580.47998 867.890015 580.599976 866.790039 580.719971 C 865.689941 580.830017 864.619995 580.890015 863.579956 580.890015 C 856.170044 580.890015 849.459961 579.469971 843.449951 576.640015 C 837.430054 573.809998 832.339966 569.900024 828.170044 564.919983 C 824.349976 560.289978 821.400024 554.969971 819.319946 548.950012 C 817.23999 542.929993 816.199951 536.570007 816.199951 529.859985 C 816.199951 523.150024 817.150024 516.960022 819.060059 511.289978 C 820.969971 505.619995 824.119995 500.299988 828.52002 495.320007 C 833.380005 489.650024 838.790039 485.460022 844.75 482.73999 C 850.709961 480.02002 857.219971 478.659973 864.280029 478.659973 C 870.880005 478.659973 876.949951 480.080017 882.51001 482.909973 C 888.069946 485.75 892.75 489.880005 896.569946 495.320007 L 896.569946 481.609985 L 917.75 481.609985 L 917.75 577.77002 Z M 895.869995 529.52002 C 895.869995 521.539978 893.290039 514.799988 888.150024 509.299988 C 883 503.809998 876.319946 501.119995 868.099976 501.22998 C 859.650024 501.119995 852.73999 503.890015 847.359985 509.559998 C 841.97998 515.22998 839.290039 522.289978 839.290039 530.73999 C 839.290039 538.609985 842.089966 545.22998 847.709961 550.619995 C 853.319946 556 860.01001 558.630005 867.76001 558.52002 C 876.089966 558.640015 882.859985 555.919983 888.069946 550.359985 C 893.280029 544.809998 895.880005 537.919983 895.880005 529.700012 L 895.880005 529.52002 Z"/>
            </g>
        </g>
    </g>
</svg>
