<svg xmlns="http://www.w3.org/2000/svg" width="173" height="48" viewBox="0 0 173 48">
  <g id="Header_Main_Logo" data-name="Header Main Logo" transform="translate(-26 -89.525)">
    <rect id="Rectangle_24353" data-name="Rectangle 24353" width="173" height="48" transform="translate(26 89.525)" fill="none"/>
    <g id="_1.2_Horizontal_Secondary_Wordmark_Hero_Color_RGB_1_" data-name="1.2 Horizontal Secondary Wordmark Hero_Color_RGB (1)" transform="translate(-30.125 49.066)">
      <g id="Group_26610" data-name="Group 26610" transform="translate(87.574 56.1)">
        <path id="Path_24173" data-name="Path 24173" d="M222.2,61.1h2.957v2.609H227.5V65.8h-2.348V70.84a1.372,1.372,0,0,0,1.435,1.522,2.422,2.422,0,0,0,.826-.087V74.1a6.88,6.88,0,0,1-2.044.3c-2.435,0-3.174-1.565-3.174-3.522V61.1" transform="translate(-181.152 -58.926)"/>
        <path id="Path_24174" data-name="Path 24174" d="M281.457,66.7H278.5V77.1h3V70.835c0-1.261.652-2.087,1.87-2.087a1.837,1.837,0,0,1,1.87,2.087V77.1h3V70.14a3.414,3.414,0,0,0-3.7-3.74,3.077,3.077,0,0,0-2.957,1.565h-.043V66.7Z" transform="translate(-212.97 -61.921)"/>
        <path id="Path_24175" data-name="Path 24175" d="M268.062,66.4c-2.7,0-3.348,1.522-3.522,2H264.5V66.7h-2.7V77.1h3V71.922a2.932,2.932,0,0,1,3.261-3.131Z" transform="translate(-203.532 -61.921)"/>
        <path id="Path_24176" data-name="Path 24176" d="M205.483,69.561l1.913-1.3c-.261-.435-1.261-1.957-4.261-1.957-2.218,0-4.087,1.131-4.087,3.174,0,1.87,1.348,2.783,2.87,3.261.435.13.913.261,1.3.391.826.261,1.435.478,1.435,1.087,0,.565-.609.957-1.7.957a2.479,2.479,0,0,1-2.261-1.218l-2,1.131c.174.478,1.261,2.218,4.479,2.218,2.435,0,4.479-1.044,4.479-3.3,0-1.913-1.348-2.783-2.957-3.261a12,12,0,0,0-1.174-.348c-.739-.217-1.478-.435-1.478-1.087,0-.522.478-.826,1.348-.826A2.223,2.223,0,0,1,205.483,69.561Z" transform="translate(-167.87 -61.865)"/>
        <path id="Path_24177" data-name="Path 24177" d="M145.715,56.7l-2.739,10.61-2.7-10.61h-3.74l-2.783,10.914L130.974,56.7H127.8l3.87,14.915h3.957l2.7-10.566,2.7,10.566h3.74l3.87-14.915Z" transform="translate(-127.8 -56.439)"/>
        <path id="Path_24178" data-name="Path 24178" d="M183.906,71.879c0-2.739-1.609-5.479-5.131-5.479-3.174,0-5.175,2.392-5.175,5.479s1.957,5.479,5.3,5.479a4.477,4.477,0,0,0,4.3-2.3l-2-1.174a2.319,2.319,0,0,1-2.261,1.3,2.351,2.351,0,0,1-2.3-2.435h7.349C183.906,72.792,183.906,71.922,183.906,71.879ZM176.6,70.748c.13-1.174.739-2.218,2.174-2.218a2.163,2.163,0,0,1,2.174,2.218Z" transform="translate(-153.685 -61.921)"/>
        <path id="Path_24179" data-name="Path 24179" d="M245.206,71.879c0-2.739-1.609-5.479-5.131-5.479-3.174,0-5.175,2.392-5.175,5.479s1.957,5.479,5.3,5.479a4.477,4.477,0,0,0,4.3-2.3l-2-1.174a2.319,2.319,0,0,1-2.261,1.3,2.351,2.351,0,0,1-2.3-2.435h7.349C245.206,72.792,245.206,71.922,245.206,71.879ZM237.9,70.748c.13-1.174.739-2.218,2.174-2.218a2.163,2.163,0,0,1,2.174,2.218Z" transform="translate(-188.329 -61.921)"/>
        <path id="Path_24180" data-name="Path 24180" d="M396.4,61.1h2.957v2.609H401.7V65.8h-2.348V70.84a1.372,1.372,0,0,0,1.435,1.522,2.422,2.422,0,0,0,.826-.087V74.1a6.881,6.881,0,0,1-2.044.3c-2.435,0-3.174-1.565-3.174-3.522V61.1" transform="translate(-279.603 -58.926)"/>
        <path id="Path_24181" data-name="Path 24181" d="M319.088,56.7H314V71.615h5.088c4.74,0,7.566-2.261,7.566-7.479C326.61,58.961,323.7,56.7,319.088,56.7Zm-.217,12.436h-1.7V59.179h1.7c3.87,0,4.435,2.609,4.435,5C323.349,66.527,322.784,69.136,318.87,69.136Z" transform="translate(-233.034 -56.439)"/>
        <rect id="Rectangle_24354" data-name="Rectangle 24354" width="3.087" height="14.915" transform="translate(134.103 0.261)"/>
        <path id="Path_24182" data-name="Path 24182" d="M448.361,85.8a1.261,1.261,0,1,0,1.261,1.261A1.262,1.262,0,0,0,448.361,85.8Zm0,2.348A1.044,1.044,0,1,1,449.4,87.1,1.058,1.058,0,0,1,448.361,88.148Z" transform="translate(-308.257 -72.885)"/>
        <path id="Path_24183" data-name="Path 24183" d="M449.857,88.044a.29.29,0,0,0-.217-.3h0a.339.339,0,0,0,.261-.348c0-.3-.217-.391-.522-.391H448.9v1.478h.261V87.87h.174c.174,0,.261.087.3.348a1.537,1.537,0,0,0,.044.261h.261C449.9,88.478,449.857,88.218,449.857,88.044Zm-.478-.391h-.217v-.435h.217a.245.245,0,0,1,.261.217C449.639,87.565,449.552,87.652,449.378,87.652Z" transform="translate(-309.275 -73.564)"/>
        <path id="Path_24184" data-name="Path 24184" d="M364.118,66.7v1.131h-.043a3.055,3.055,0,0,0-2.826-1.435c-3.174,0-4.348,2.609-4.348,5.261s1.174,5.218,4.348,5.218a2.93,2.93,0,0,0,2.826-1.435h.043v1.218a2.17,2.17,0,0,1-2.218,2.3,2.579,2.579,0,0,1-2.261-1.261c-.261.13-2,1.174-2,1.174.217.435,1.087,2.3,4.348,2.3,3.435,0,5.088-2.174,5.088-5.262V66.7Zm-2,7.957c-1.7,0-2-1.652-2-3,0-1.522.435-3,2-3s2,1.478,2,3C364.118,72.966,363.77,74.662,362.118,74.662Z" transform="translate(-257.279 -61.921)"/>
        <path id="Path_24185" data-name="Path 24185" d="M414.448,66.4a4.787,4.787,0,0,0-4.087,1.826l1.739,1.3a2.54,2.54,0,0,1,2.131-1.044c1.348,0,2.174.652,2.174,1.783v.217h-1.3c-3.044,0-5,1.131-5,3.479a3.562,3.562,0,0,0,6.349,2h.043V77.01h2.913V70.531C419.405,67.531,417.014,66.4,414.448,66.4Zm1.957,6.566c0,1.218-.522,2.3-1.826,2.3a1.384,1.384,0,0,1-1.522-1.391c0-.87.609-1.522,2.174-1.522h1.174Z" transform="translate(-287.346 -61.921)"/>
        <rect id="Rectangle_24355" data-name="Rectangle 24355" width="3.087" height="10.393" transform="translate(95.142 4.783)"/>
        <circle id="Ellipse_534" data-name="Ellipse 534" cx="1.652" cy="1.652" r="1.652" transform="translate(95.055)"/>
        <rect id="Rectangle_24356" data-name="Rectangle 24356" width="3.087" height="10.393" transform="translate(111.796 4.783)"/>
        <circle id="Ellipse_535" data-name="Ellipse 535" cx="1.652" cy="1.652" r="1.652" transform="translate(111.709)"/>
      </g>
      <path id="Path_24186" data-name="Path 24186" d="M99.028,56.7h3.479a1.541,1.541,0,0,1,1.522,1.522V61.7a1.514,1.514,0,0,1-2.566,1.087l-3.479-3.479A1.51,1.51,0,0,1,99.028,56.7Z" transform="translate(-23.108 -0.339)" fill="#5da7fb"/>
      <path id="Path_24187" data-name="Path 24187" d="M68.267,65.092H65.789a2.635,2.635,0,0,1-2.652-2.652h0V58.222A1.541,1.541,0,0,0,61.614,56.7H58.136a1.514,1.514,0,0,0-1.087,2.566L58.4,60.614l1.826,1.826.043.043.3.3,4.914,4.87.435.435.13.13,1.826,1.826,1.087,1.131a1.5,1.5,0,0,0,2.566-1.087V66.614a1.541,1.541,0,0,0-1.522-1.522Z" transform="translate(0 -0.339)" fill="#fc1859"/>
      <path id="Path_24188" data-name="Path 24188" d="M89.867,65.092H87.389a2.635,2.635,0,0,1-2.652-2.652h0V58.222A1.541,1.541,0,0,0,83.214,56.7H79.736a1.514,1.514,0,0,0-1.087,2.566L80,60.614l1.826,1.826.043.043.3.3L87.084,67.7l.435.435.13.13,1.826,1.826,1.131,1.131a1.5,1.5,0,0,0,2.566-1.087V66.658a1.541,1.541,0,0,0-1.522-1.522H89.867Z" transform="translate(-12.208 -0.339)" fill="#995dff"/>
      <g id="Group_26611" data-name="Group 26611" transform="translate(82.399 69.754)">
        <path id="Path_24189" data-name="Path 24189" d="M117.031,87.674h-.478v1.348h-.174V87.674H115.9V87.5h1.174v.174Z" transform="translate(-115.9 -87.5)" fill="#995dff"/>
        <path id="Path_24190" data-name="Path 24190" d="M119.1,87.6h.261l.522,1.174h0L120.4,87.6h.261v1.478h-.174V87.817h0l-.565,1.261h-.087l-.522-1.261h0v1.261h-.174V87.6Z" transform="translate(-117.709 -87.557)" fill="#995dff"/>
      </g>
    </g>
  </g>
</svg>
