<?xml version="1.0" encoding="UTF-8"?> <svg xmlns="http://www.w3.org/2000/svg" xmlns:xlink="http://www.w3.org/1999/xlink" version="1.1" x="0" y="0" width="1400" height="700" viewBox="0, 0, 1400, 700"><g id="Background"><rect x="0" y="0" width="1400" height="700" fill="#FFFFFF"></rect></g><g id="MyAbsoluteZeroLogo"><g><path d="M502.891,338.162 L571.832,338.162 L571.832,317.555 C571.832,308.072 564.144,300.384 554.661,300.384 L520.061,300.384 C510.579,300.384 502.891,308.072 502.891,317.555 z M475.26,380.654 L475.26,319.346 C475.26,295.638 494.479,276.419 518.187,276.419 L556.82,276.419 C580.528,276.419 599.747,295.638 599.747,319.346 L599.747,361.276 L502.891,361.276 L502.891,382.446 C502.891,391.927 510.579,399.615 520.061,399.615 L596.687,399.615 L596.687,406.41 C596.687,415.892 588.999,423.579 579.516,423.579 L518.187,423.579 C494.479,423.579 475.26,404.36 475.26,380.654" fill="#231F20" id="path22"></path><path d="M982.212,382.425 L982.212,317.575 C982.212,308.093 989.9,300.405 999.383,300.405 L1035.515,300.405 C1044.998,300.405 1052.684,308.093 1052.684,317.575 L1052.684,382.425 C1052.684,391.907 1044.998,399.595 1035.515,399.595 L999.383,399.595 C989.9,399.595 982.212,391.907 982.212,382.425 M955.206,319.329 L955.206,380.671 C955.206,404.378 974.424,423.597 998.131,423.597 L1036.766,423.597 C1060.474,423.597 1079.692,404.378 1079.692,380.671 L1079.692,319.329 C1079.692,295.621 1060.474,276.402 1036.766,276.402 L998.131,276.402 C974.424,276.402 955.206,295.621 955.206,319.329" fill="#231F20" id="path26"></path><path d="M1128.195,462.705 L1153.333,462.705 L1153.333,237.295 L1128.195,237.295 z" fill="#231F20" id="path28"></path><path d="M881.565,462.705 L906.704,462.705 L906.704,237.295 L881.565,237.295 z" fill="#231F20" id="path30"></path><path d="M246.667,423.58 L246.667,402.441 L331.151,300.385 L258.745,300.385 C253.724,300.385 249.653,296.541 249.653,291.8 L249.653,276.42 L368.167,276.42 L368.167,297.278 L283.687,399.614 L362.061,399.614 C367.083,399.614 371.153,403.458 371.153,408.201 L371.153,423.58 z" fill="#231F20" id="path34"></path><path d="M707.073,423.58 L707.073,306.469 C707.073,289.873 720.526,276.42 737.121,276.42 L786.572,276.42 L786.572,291.8 C786.572,296.541 782.728,300.385 777.988,300.385 L743.001,300.385 C738.261,300.385 734.417,304.228 734.417,308.969 L734.417,423.58 z" fill="#231F20" id="path38"></path></g></g></svg> 