<svg width="1200" height="675" viewBox="0 0 1200 675" fill="none" xmlns="http://www.w3.org/2000/svg">
<g clip-path="url(#clip0_1474_1114)">
<rect width="1200" height="675" fill="white"/>
<g clip-path="url(#clip1_1474_1114)">
<g opacity="0.8">
<g opacity="0.6">
<path d="M1545.76 316.919C1555.19 322.359 1555.25 331.229 1545.87 336.679L628.09 870.039C618.72 875.479 603.41 875.479 593.98 870.039L-345.89 327.389C-355.33 321.939 -355.38 313.069 -346.01 307.629L571.78 -225.721C581.16 -231.171 596.46 -231.161 605.89 -225.721L1545.76 316.919ZM626.09 868.869L1543.87 335.509C1552.14 330.699 1552.09 322.869 1543.77 318.069L603.9 -224.561C595.57 -229.371 582.06 -229.371 573.79 -224.561L-344 308.799C-352.27 313.609 -352.23 321.429 -343.9 326.239L595.97 868.879C604.29 873.689 617.81 873.689 626.08 868.879" fill="black" fill-opacity="0.5"/>
</g>
<g opacity="0.6">
<path d="M1356.64 311.77C1364.28 316.18 1364.31 323.35 1356.72 327.76L624.72 753.15C617.13 757.56 604.75 757.56 597.12 753.15L-152.51 320.35C-160.15 315.94 -160.19 308.77 -152.61 304.36L579.39 -121.03C586.98 -125.44 599.36 -125.44 607 -121.03L1356.63 311.77H1356.64ZM622.71 751.99L1354.71 326.6C1361.2 322.83 1361.16 316.69 1354.64 312.93L605.01 -119.87C598.48 -123.64 587.89 -123.64 581.4 -119.87L-150.59 305.52C-157.07 309.29 -157.04 315.42 -150.51 319.19L599.12 751.99C605.64 755.76 616.23 755.76 622.71 751.99Z" fill="black" fill-opacity="0.5"/>
</g>
<g opacity="0.6">
<path d="M1202.13 119.139L1110.46 172.418L1108.45 171.259L1200.12 117.979L1202.13 119.139Z" fill="black" fill-opacity="0.5"/>
<path d="M1111.43 66.7791L1019.76 120.049L1017.75 118.889L1109.42 65.6191L1111.43 66.7791Z" fill="black" fill-opacity="0.5"/>
<path d="M1020.73 14.4078L929.06 67.6878L927.06 66.5278L1018.73 13.2578L1020.73 14.4078Z" fill="black" fill-opacity="0.5"/>
<path d="M930.04 -37.9514L838.37 15.3187L836.36 14.1587L928.03 -39.1113L930.04 -37.9514Z" fill="black" fill-opacity="0.5"/>
<path d="M1292.83 171.508L1201.16 224.778L1199.15 223.618L1290.82 170.348L1292.83 171.508Z" fill="black" fill-opacity="0.5"/>
</g>
<g opacity="0.6">
<path d="M945.28 683.619L943.28 684.779L840.96 625.699L842.96 624.539L945.28 683.619Z" fill="black" fill-opacity="0.5"/>
<path d="M1245.07 509.4L1243.07 510.56L1140.75 451.48L1142.75 450.32L1245.07 509.4Z" fill="black" fill-opacity="0.5"/>
<path d="M1145.14 567.471L1143.14 568.631L1040.82 509.561L1042.82 508.391L1145.14 567.471Z" fill="black" fill-opacity="0.5"/>
<path d="M1045.21 625.541L1043.21 626.701L940.89 567.631L942.89 566.471L1045.21 625.541Z" fill="black" fill-opacity="0.5"/>
</g>
<g opacity="0.6">
<path d="M375.59 624.209L275.19 682.549L273.18 681.389L373.58 623.049L375.59 624.209Z" fill="black" fill-opacity="0.5"/>
<path d="M276.25 566.859L175.85 625.199L173.84 624.039L274.24 565.699L276.25 566.859Z" fill="black" fill-opacity="0.5"/>
<path d="M176.92 509.5L76.52 567.85L74.5 566.69L174.9 508.34L176.92 509.5Z" fill="black" fill-opacity="0.5"/>
<path d="M77.5799 452.148L-22.8201 510.498L-24.8301 509.338L75.5699 450.988L77.5799 452.148Z" fill="black" fill-opacity="0.5"/>
</g>
<g opacity="0.6">
<path d="M0.430145 216.559L-1.56985 217.719L-94.0898 164.299L-92.0898 163.139L0.430145 216.559Z" fill="black" fill-opacity="0.5"/>
<path d="M90.79 164.049L88.79 165.209L-3.72998 111.789L-1.73996 110.629L90.79 164.049Z" fill="black" fill-opacity="0.5"/>
<path d="M181.15 111.539L179.15 112.699L86.6201 59.2791L88.6201 58.1191L181.15 111.539Z" fill="black" fill-opacity="0.5"/>
<path d="M361.87 6.5079L359.87 7.66791L267.35 -45.7521L269.35 -46.9121L361.87 6.5079Z" fill="black" fill-opacity="0.5"/>
<path d="M271.51 59.0176L269.52 60.1776L176.99 6.75766L178.99 5.59766L271.51 59.0176Z" fill="black" fill-opacity="0.5"/>
</g>
</g>
<path d="M756.41 173.19C753.67 174.78 749.81 175.06 746.37 174.11L744.5 180.53L739.91 177.88L741.63 171.9L738.65 170.18L732.64 173.67L728.64 171.36L747.17 160.59L755.62 165.47C759.68 167.81 760.09 171.05 756.42 173.19H756.41ZM746.29 170.36C748.28 171.51 750.7 171.71 752.28 170.79C753.86 169.87 753.51 168.47 751.52 167.32L747.53 165.02L742.3 168.06L746.29 170.36Z" fill="black"/>
<path d="M827.33 92.5806C828.43 92.4106 829.59 92.4106 830.7 92.5806C831.8 92.7506 832.81 93.0806 833.63 93.5506L851.75 104.011L851.25 105.181L841.38 128.601C841.53 128.661 841.66 128.731 841.78 128.801L880.81 151.331C881.01 151.451 881.19 151.571 881.35 151.711C882.76 150.501 884.88 149.631 887.31 149.251C889.75 148.871 892.34 149.001 894.64 149.631L921.56 145.771L923.58 145.481L941.7 155.941C942.53 156.431 943.12 157.011 943.42 157.641C943.72 158.281 943.72 158.951 943.43 159.591C943.13 160.231 942.56 160.811 941.75 161.271C940.94 161.731 939.93 162.051 938.83 162.211L795.82 182.711C794.74 182.861 793.6 182.851 792.53 182.681C791.45 182.501 790.47 182.171 789.67 181.711C788.87 181.251 788.3 180.681 787.99 180.051C787.68 179.431 787.66 178.771 787.92 178.141L822.85 95.2406C823.12 94.6006 823.68 94.0206 824.46 93.5506C825.25 93.0806 826.24 92.7406 827.34 92.5706L827.33 92.5806ZM878.73 155.891L826.71 163.501C825.92 163.621 825.09 163.611 824.3 163.491C823.51 163.361 822.8 163.121 822.22 162.791C821.64 162.461 821.22 162.041 821 161.581C820.78 161.121 820.77 160.641 820.97 160.191L825.65 149.301L805.24 146.101L791.51 178.671C791.4 178.941 791.41 179.221 791.54 179.491C791.67 179.761 791.92 180.001 792.26 180.191C792.6 180.381 793.01 180.531 793.47 180.601C793.94 180.681 794.42 180.681 794.88 180.611L915.32 163.341L896.28 160.351C894.74 160.961 892.94 161.321 891.09 161.401C889.23 161.481 887.35 161.271 885.66 160.801C884.56 160.491 883.57 160.091 882.72 159.591C882.25 159.321 881.83 159.031 881.45 158.711C880.38 157.811 879.73 156.771 879.57 155.691C879.3 155.761 879.02 155.821 878.74 155.861M828.35 94.6306C827.87 94.7006 827.45 94.8506 827.11 95.0506C826.77 95.2606 826.53 95.5106 826.42 95.7806L808.62 138.031L829.08 141.241L833.9 130.051C834.09 129.581 834.51 129.151 835.09 128.811C835.67 128.471 836.4 128.221 837.2 128.091C837.4 128.061 837.6 128.031 837.8 128.021L847.65 104.651L831.04 95.0606C830.68 94.8406 830.26 94.7006 829.81 94.6306C829.33 94.5506 828.84 94.5506 828.37 94.6306M838.21 130.161C838.04 130.191 837.89 130.241 837.77 130.311C837.65 130.381 837.55 130.471 837.52 130.571L831.8 143.861L807.77 140.101L806.12 144.031L830.09 147.781L824.52 160.721C824.47 160.821 824.47 160.921 824.52 161.021C824.57 161.121 824.66 161.201 824.79 161.281C824.92 161.361 825.06 161.401 825.23 161.431C825.4 161.461 825.58 161.461 825.75 161.431L877.77 153.831C877.94 153.811 878.09 153.751 878.22 153.691C878.35 153.621 878.44 153.531 878.48 153.431C878.52 153.331 878.52 153.231 878.48 153.131C878.43 153.041 878.35 152.951 878.24 152.891L858.69 141.611L839.18 130.341C839.05 130.271 838.9 130.211 838.73 130.181C838.56 130.151 838.38 130.151 838.21 130.181M922.48 147.861L898.38 151.311C898.8 151.601 899.18 151.931 899.51 152.261L937.55 158.221L939.92 158.601C939.93 158.391 939.85 158.171 939.71 157.971C939.57 157.781 939.36 157.601 939.1 157.451L922.49 147.861M920.79 162.001L936.61 160.291L900.83 154.691C901.07 156.071 900.49 157.451 899.2 158.621L920.79 162.001ZM890.15 151.191C888.29 151.191 886.52 151.611 885.22 152.371C884.25 152.931 883.6 153.651 883.33 154.441C883.07 155.231 883.22 156.041 883.76 156.781C884.12 157.271 884.64 157.721 885.3 158.101C885.62 158.291 885.98 158.451 886.36 158.601C887.51 159.051 888.87 159.291 890.25 159.291C891.63 159.291 892.98 159.061 894.12 158.621C895.26 158.181 896.16 157.551 896.67 156.811C897.19 156.071 897.32 155.251 897.05 154.471C896.77 153.681 896.09 152.961 895.11 152.391C893.79 151.631 892.01 151.201 890.16 151.191" fill="black"/>
<path d="M747.87 182.461L766.39 171.701L770.43 174.031L751.91 184.801L747.87 182.461Z" fill="black"/>
<path d="M778.09 178.451L763.15 187.131L772.48 192.521L768.9 194.601L755.52 186.881L774.04 176.111L778.09 178.451Z" fill="black"/>
<path d="M797.48 189.65L801.99 192.25L791.12 207.43L786.59 204.81L788.29 202.43L779.93 197.6L775.82 198.6L771.31 196L797.48 189.65ZM784.7 196.45L790.26 199.66L794.24 194.12L784.69 196.45" fill="black"/>
<path d="M804.17 197.67L807.76 195.58L823.49 204.67L819.9 206.75L814.06 203.38L799.12 212.06L795.08 209.73L810.01 201.04L804.17 197.67Z" fill="black"/>
<path d="M835.23 222.151C830.14 225.111 821.48 225.111 816.01 222.171L815.3 221.761C810.26 218.641 810.2 213.591 815.3 210.641C820.4 207.691 829.46 207.731 834.84 210.831C840.28 213.971 840.44 219.131 835.24 222.151H835.23ZM819.27 219.881C822.44 221.711 827.88 221.631 831.09 219.771C834.3 217.911 834.36 214.751 831.22 212.941C828.08 211.131 822.68 211.171 819.45 213.051C816.22 214.931 816.14 218.071 819.27 219.881Z" fill="black"/>
<path d="M701.91 155.931L697.4 153.321L708.27 138.141L712.81 140.761L705.14 151.461L723.57 146.981L728.08 149.581L701.91 155.931Z" fill="black"/>
<path d="M711.77 161.629L730.3 150.859L744.75 159.199L741.16 161.289L730.74 155.279L727.05 157.419L736.47 162.859L732.88 164.949L723.46 159.509L719.39 161.869L729.8 167.889L726.22 169.969L711.77 161.629Z" fill="black"/>
<path d="M856.71 231.1C853.97 232.69 850.11 232.97 846.65 232.01L844.82 238.43L840.22 235.8L841.94 229.82L838.96 228.1L832.95 231.59L828.95 229.28L847.48 218.51L855.92 223.38C859.99 225.73 860.39 228.96 856.72 231.1H856.71ZM846.59 228.28C848.58 229.43 850.99 229.63 852.58 228.71C854.17 227.79 853.81 226.39 851.82 225.24L847.83 222.94L842.6 225.98L846.59 228.28Z" fill="black"/>
<path d="M702.24 453.28C702.02 452.62 701.61 451.77 701.28 451.15C701.01 450.64 700.59 450 700.26 449.54C699.16 448.01 698 446.99 697.99 446.98C697.56 446.61 697.01 446.09 696.56 445.76C695.76 445.18 694.67 444.45 693.83 443.93L686.56 439.73L679.29 435.53L672.02 431.33L664.75 427.13L657.48 422.93L650.21 418.73L642.94 414.53L635.67 410.33L628.4 406.13L621.13 401.93C619.39 400.93 617.94 400.36 617.93 400.36C617.47 400.18 616.85 399.92 616.38 399.77C615.91 399.62 615.28 399.4 614.8 399.26C614.31 399.12 613.65 398.95 613.16 398.83C612.2 398.59 610.54 398.3 609.93 398.23C609.45 398.17 608.8 398.09 608.32 398.05C607.84 398.01 607.19 397.97 606.7 397.94C606.18 397.9 605.49 397.9 604.97 397.9C604 397.9 602.71 397.98 601.74 398.04C601.25 398.07 600.6 398.17 600.11 398.22C599.4 398.3 597.72 398.6 596.84 398.82C596.33 398.95 595.64 399.11 595.14 399.27C594.19 399.57 592.94 400.01 592.01 400.37C591.48 400.58 590.8 400.9 590.29 401.15C589.84 401.37 589.26 401.71 588.81 401.95L581.58 406.15L574.35 410.35L567.12 414.55L559.89 418.75L552.66 422.95L545.43 427.15L538.2 431.35L530.97 435.55L523.74 439.75L516.51 443.95C515.88 444.33 515.06 444.85 514.47 445.28C513.99 445.62 513.36 446.11 512.92 446.51C511.75 447.59 510.89 448.4 509.66 450.27C509.4 450.67 508.52 452.2 508.18 453.33C507.94 454.13 507.71 455.22 507.57 456.04C507.5 456.45 507.51 457.01 507.49 457.42C507.4 490.13 507.3 525 507.21 557.7C507.2 561.33 509.34 564.93 513.93 567.75C514.29 568.11 514.59 568.26 514.9 568.45L523.62 573.37L530.89 577.57L538.16 581.77L545.43 585.97L552.7 590.17L559.97 594.37L567.24 598.57L574.51 602.77L581.78 606.97L589.05 611.17C588.82 611.04 588.62 610.89 588.44 610.72C597.96 615.6 612.42 615.62 621.91 610.76C621.74 610.9 621.57 611.04 621.37 611.16L628.6 606.96L635.83 602.76L643.06 598.56L650.29 594.36L657.52 590.16L664.75 585.96L671.98 581.76L679.21 577.56L686.44 573.36L693.67 569.16C694.21 568.84 694.9 568.4 695.42 568.04C695.82 567.77 696.32 567.36 696.7 567.07C697.17 566.71 697.73 566.15 698.17 565.75C698.69 565.27 699.29 564.53 699.73 563.98C700.01 563.63 700.33 563.14 700.57 562.77C700.88 562.29 701.25 561.61 701.49 561.08C701.75 560.5 702.04 559.71 702.22 559.1C702.34 558.7 702.47 558.16 702.53 557.74C702.58 557.4 702.62 557 702.65 556.6C702.68 556.3 702.71 555.99 702.71 555.69C702.8 522.98 702.9 490.28 702.99 457.57C702.99 455.69 702.63 454.4 702.26 453.29L702.24 453.28Z" fill="#00D0C9" stroke="white" stroke-width="2.13" stroke-miterlimit="10"/>
<path d="M527.14 471.92C519.76 467.66 513.7 471.11 513.67 479.59L513.49 542.17C513.47 550.65 519.49 561.08 526.87 565.35L581.33 596.79C588.71 601.05 594.77 597.6 594.8 589.11L594.98 526.53C595 518.05 588.98 507.62 581.6 503.36L527.14 471.92Z" fill="#00D0C9" stroke="white" stroke-width="2.13" stroke-miterlimit="10"/>
<path d="M682.96 471.92C690.34 467.66 696.4 471.11 696.43 479.59L696.61 542.17C696.63 550.65 690.61 561.08 683.23 565.35L628.77 596.79C621.39 601.05 615.33 597.6 615.3 589.11L615.12 526.53C615.1 518.05 621.12 507.62 628.5 503.36L682.96 471.92Z" fill="#00D0C9" stroke="white" stroke-width="2.13" stroke-miterlimit="10"/>
<path d="M673.25 444.05C680.7 448.35 680.74 455.38 673.34 459.68L618.77 491.39C611.37 495.69 599.23 495.69 591.78 491.39L536.85 459.68C529.4 455.38 529.36 448.35 536.76 444.05L591.33 412.34C598.73 408.04 610.87 408.04 618.32 412.34L673.25 444.05Z" fill="#00D0C9" stroke="white" stroke-width="2.13" stroke-miterlimit="10"/>
<path d="M544.99 514.16L544.92 539.39L550.94 542.87L550.92 549.89L529.93 537.77L529.95 530.75L537.3 534.99L537.35 518.31L531.16 514.73L531.18 509.34C535.17 510.93 537.11 511.23 539.42 510.94L545 514.16H544.99Z" fill="white"/>
<path d="M571.56 529.5L571.49 554.73L577.52 558.21L577.5 565.23L556.51 553.11L556.53 546.09L563.88 550.33L563.93 533.65L557.73 530.07L557.75 524.68C561.74 526.27 563.69 526.58 566 526.28L571.57 529.5H571.56Z" fill="white"/>
<path d="M649.23 524.189L649.3 549.419L655.32 545.939L655.34 552.959L634.35 565.079L634.33 558.059L641.68 553.819L641.63 537.139L635.44 540.719L635.42 535.329C639.4 532.319 641.34 530.379 643.64 527.419L649.22 524.199L649.23 524.189Z" fill="white"/>
<path d="M669.92 511.64C675.94 508.16 680.16 509.9 680.18 516.31C680.19 521.5 675.52 529.91 670.93 537.04C672.48 535.95 674.6 534.52 675.97 533.72L681.64 530.45L681.66 537.77L660.05 550.24V545.25C667.5 533.92 672.97 525.35 672.96 520.98C672.96 518.08 671.35 517.62 668.87 519.05C666.79 520.25 665.16 522.72 663.66 525.12L659.61 522.77C662.66 517.45 665.49 514.18 669.91 511.63L669.92 511.64Z" fill="white"/>
<path d="M609.57 436.31L587.76 448.99L593.78 452.47L587.71 456L566.72 443.88L572.79 440.35L580.15 444.6L594.58 436.21L588.38 432.63L593.04 429.92C597.64 431.86 600.28 432.58 604 433.09L609.57 436.31Z" fill="white"/>
<path d="M630.57 447.82C637.04 451.55 638.56 455.69 633.49 458.64C630.81 460.2 626.97 460.33 622.33 459.17L622.15 459.27C624.64 461.82 625.01 464.59 621.49 466.64C616.21 469.71 607.86 468.25 601.8 464.75C597.02 461.99 594.88 459.02 595.13 456.32L603.33 455.55C603.61 457.55 604.94 459.54 607.07 460.77C609.82 462.36 612.64 462.97 614.4 461.95C616.51 460.72 616.19 459.11 609.95 455.51L615.23 452.44C620.27 455.35 623.36 455.71 625.3 454.58C626.97 453.61 626.52 452.34 624.3 451.06C622.26 449.88 619.89 449.42 616.44 449.17L617.21 444.32C622.37 444.65 626.92 445.75 630.56 447.84L630.57 447.82Z" fill="white"/>
<path d="M344.67 335.46C344.45 334.8 344.04 333.95 343.71 333.33C343.44 332.82 343.02 332.18 342.69 331.72C341.59 330.19 340.43 329.17 340.42 329.16C339.99 328.79 339.44 328.27 338.99 327.94C338.19 327.36 337.1 326.63 336.26 326.11L328.99 321.91L321.72 317.71L314.45 313.51L307.18 309.31L299.91 305.11L292.64 300.91L285.37 296.71L278.1 292.51L270.83 288.31L263.56 284.11C261.82 283.11 260.37 282.54 260.36 282.54C259.9 282.36 259.28 282.1 258.81 281.95C258.34 281.8 257.71 281.58 257.23 281.44C256.74 281.3 256.08 281.13 255.59 281.01C254.63 280.77 252.97 280.48 252.36 280.41C251.88 280.35 251.23 280.27 250.75 280.23C250.27 280.19 249.62 280.15 249.13 280.12C248.61 280.08 247.92 280.08 247.4 280.08C246.43 280.08 245.14 280.16 244.17 280.22C243.68 280.25 243.03 280.35 242.54 280.4C241.83 280.48 240.15 280.78 239.27 281C238.76 281.13 238.07 281.29 237.57 281.45C236.62 281.75 235.37 282.19 234.44 282.55C233.91 282.76 233.23 283.08 232.72 283.33C232.27 283.55 231.69 283.89 231.24 284.13L224.01 288.33L216.78 292.53L209.55 296.73L202.32 300.93L195.09 305.13L187.86 309.33L180.63 313.53L173.4 317.73L166.17 321.93L158.94 326.13C158.31 326.51 157.49 327.03 156.9 327.46C156.42 327.8 155.79 328.29 155.35 328.69C154.18 329.77 153.32 330.58 152.09 332.45C151.83 332.85 150.95 334.38 150.61 335.51C150.37 336.31 150.14 337.4 150 338.22C149.93 338.63 149.94 339.19 149.92 339.6C149.83 372.31 149.73 407.18 149.64 439.88C149.63 443.51 151.77 447.11 156.36 449.93C156.72 450.29 157.02 450.44 157.33 450.63L166.05 455.55L173.32 459.75L180.59 463.95L187.86 468.15L195.13 472.35L202.4 476.55L209.67 480.75L216.94 484.95L224.21 489.15L231.48 493.35C231.25 493.22 231.05 493.07 230.87 492.9C240.39 497.78 254.85 497.8 264.34 492.94C264.17 493.08 264 493.22 263.8 493.34L271.03 489.14L278.26 484.94L285.49 480.74L292.72 476.54L299.95 472.34L307.18 468.14L314.41 463.94L321.64 459.74L328.87 455.54L336.1 451.34C336.64 451.02 337.33 450.58 337.85 450.22C338.25 449.95 338.75 449.54 339.13 449.25C339.6 448.89 340.16 448.33 340.6 447.93C341.12 447.45 341.72 446.71 342.16 446.16C342.44 445.81 342.76 445.32 343 444.95C343.31 444.47 343.68 443.79 343.92 443.26C344.18 442.68 344.47 441.89 344.65 441.28C344.77 440.88 344.9 440.34 344.96 439.92C345.01 439.58 345.05 439.18 345.08 438.78C345.11 438.48 345.14 438.17 345.14 437.87C345.23 405.16 345.33 372.46 345.42 339.75C345.42 337.87 345.06 336.58 344.69 335.47L344.67 335.46Z" fill="#243284" stroke="white" stroke-width="2.13" stroke-miterlimit="10"/>
<path d="M169.57 354.1C162.19 349.84 156.13 353.29 156.1 361.77L155.92 424.35C155.9 432.83 161.92 443.26 169.3 447.53L223.76 478.97C231.14 483.23 237.2 479.78 237.23 471.29L237.41 408.71C237.43 400.23 231.41 389.8 224.03 385.54L169.57 354.1Z" fill="#243284" stroke="white" stroke-width="2.13" stroke-miterlimit="10"/>
<path d="M325.38 354.1C332.76 349.84 338.82 353.29 338.85 361.77L339.03 424.35C339.05 432.83 333.03 443.26 325.65 447.53L271.19 478.97C263.81 483.23 257.75 479.78 257.72 471.29L257.54 408.71C257.52 400.23 263.54 389.8 270.92 385.54L325.38 354.1Z" fill="#243284" stroke="white" stroke-width="2.13" stroke-miterlimit="10"/>
<path d="M315.67 326.23C323.12 330.53 323.16 337.56 315.76 341.86L261.19 373.57C253.79 377.87 241.65 377.87 234.2 373.57L179.27 341.86C171.82 337.56 171.78 330.53 179.18 326.23L233.75 294.52C241.15 290.22 253.29 290.22 260.74 294.52L315.67 326.23Z" fill="#243284" stroke="white" stroke-width="2.13" stroke-miterlimit="10"/>
<path d="M196.36 416.209C201.14 418.969 205.03 424.259 205.01 431.189C204.99 438.119 200.15 439.389 194.62 436.189C189 432.939 183.03 425.019 183.07 413.319C183.11 401.619 189.1 399.479 195.34 403.079C199.55 405.509 202.77 409.299 204.71 412.569L200.71 415.459C199.65 413.719 197.8 411.539 196.02 410.509C193 408.769 190.36 409.459 190.01 415.859C191.95 414.849 194.55 415.159 196.36 416.209ZM194.45 429.579C196.26 430.629 198.09 430.609 198.1 427.199C198.1 424.349 196.6 422.459 194.66 421.329C193.22 420.499 191.7 420.369 190.25 421.559C190.97 426.509 192.94 428.699 194.46 429.569" fill="white"/>
<path d="M253.11 334.899C254.58 337.439 254.64 340.019 250.95 342.159C246.46 344.769 239.22 344.459 232.23 340.419C225.68 336.639 224.68 332.499 229.26 329.839C232.51 327.949 236.62 328.079 240.86 328.889L241.04 328.789C240.37 326.469 240.71 324.319 243.61 322.629C248.54 319.769 255.64 320.399 261.44 323.749C267.06 326.999 267.84 330.899 263.08 333.669C260.53 335.149 256.69 335.279 253.29 334.789L253.12 334.889L253.11 334.899ZM237.6 337.509C239.64 338.689 242.01 339.149 244.13 337.919C246.25 336.689 244.64 334.949 242.38 332.009C240.26 331.909 238.1 332.289 236.69 333.109C234.5 334.389 235.3 336.169 237.61 337.499M256.06 326.679C254.37 325.709 252.18 325.349 250.24 326.469C248.3 327.589 249.33 329.209 251.23 331.529C253.44 331.469 255.12 331.119 256.35 330.409C258.28 329.289 258.19 327.909 256.06 326.679Z" fill="white"/>
<path d="M310.52 392.801L310.54 398.191C303.57 410.931 302.75 417.001 302.21 429.901L294.6 434.291C295.15 423.781 296.81 416.351 302.45 404.791L289.17 412.461L289.15 405.141L310.53 392.801H310.52Z" fill="white"/>
<path d="M417.36 69.3206C419.33 70.4606 420.3 71.8206 420.35 72.9906L416.37 73.3406C416.11 72.3906 415.54 71.7106 414.6 71.1606C412.46 69.9206 409.59 69.8706 407.44 71.1206C405.29 72.3706 405.38 74.0106 407.43 75.1906C408.74 75.9506 410.38 76.2306 411.89 76.4006L411.06 78.6206C408.3 78.4806 405.81 77.7006 404.11 76.7206C400.18 74.4506 399.54 71.3306 403.65 68.9406C407.76 66.5506 413.53 67.1106 417.36 69.3306V69.3206Z" fill="black"/>
<path d="M446.44 86.0995C449.95 88.1195 450.26 90.3994 446.47 92.6094L439.38 96.7295L436.36 94.9894L437.49 94.0194L437.39 93.9594C435.19 93.7794 432.88 93.3195 431.28 92.3895C428.76 90.9295 428.83 89.0595 430.92 87.8495C433.7 86.2395 437.43 86.7495 443.67 89.9395C444.65 89.2195 444.48 88.3395 442.81 87.3795C441.61 86.6895 439.95 86.2594 437.85 85.8594L438.94 83.6895C441.65 84.1195 444.33 84.8694 446.45 86.0894L446.44 86.0995ZM439.41 92.4195L441.44 91.2394C437.59 89.2294 435.81 89.1195 434.75 89.7295C433.95 90.1895 434.24 90.8095 435.29 91.4095C436.4 92.0495 437.84 92.2995 439.41 92.4095" fill="black"/>
<path d="M461.56 94.8391C463.79 96.1291 464.79 97.7091 465.27 98.9291L461.4 99.2591C460.9 98.0891 459.88 97.0091 458.5 96.2191C457.34 95.5491 456.36 95.4591 455.77 95.7991C455.09 96.1991 455.69 96.7291 457.34 98.2291C460.33 100.949 460.31 102.199 458.29 103.369C456.05 104.669 452.14 104.449 448.14 102.129C445.92 100.849 444.47 99.0191 443.94 97.5091L447.81 97.0791C448.4 98.5191 449.59 99.8091 451.38 100.839C452.75 101.629 453.8 101.719 454.42 101.359C455.1 100.959 454.75 100.459 452.82 98.7491C450.14 96.3691 450.03 94.8791 451.95 93.7591C454.26 92.4191 458 92.7691 461.56 94.8191V94.8391Z" fill="black"/>
<path d="M437.22 75.2108L424.43 82.6408C422.9 83.5308 423.39 84.3908 424.43 85.0008C425 85.3308 425.73 85.6108 426.78 85.8808L424.89 87.9208C423.18 87.4108 422.06 87.0608 420.5 86.1608C417.37 84.3508 417.73 82.2508 420.88 80.4208L430.65 74.7408L426.73 72.4708L429.61 70.8008L437.23 75.2008L437.22 75.2108Z" fill="black"/>
<path d="M476.64 103.539C478.87 104.829 479.88 106.409 480.36 107.639L476.49 107.969C476 106.799 474.98 105.719 473.59 104.929C472.44 104.269 471.46 104.169 470.87 104.509C470.19 104.909 470.79 105.439 472.44 106.939C475.43 109.659 475.41 110.909 473.39 112.079C471.15 113.379 467.25 113.159 463.24 110.849C461.01 109.559 459.57 107.739 459.03 106.229L462.9 105.799C463.49 107.239 464.68 108.529 466.47 109.559C467.84 110.349 468.89 110.439 469.51 110.079C470.19 109.679 469.85 109.189 467.91 107.469C465.24 105.099 465.13 103.599 467.05 102.489C469.36 101.149 473.09 101.489 476.65 103.539H476.64Z" fill="black"/>
<path d="M512.03 119.47C514.11 120.67 514.83 122.23 514.85 123.5L510.53 123.64C510.47 122.78 510.04 122 508.85 121.32C506.53 119.98 502.87 120.14 499.61 122.03C496.35 123.92 496.02 126.08 498.49 127.51C499.67 128.19 501.23 128.42 502.87 128.38L502.68 130.86C499.78 131 497.12 130.41 494.92 129.14C490.85 126.79 490.19 123.1 495.67 119.91C501.07 116.77 507.64 116.94 512.02 119.47H512.03Z" fill="black"/>
<path d="M536.96 138.369C539.19 139.659 540.2 141.239 540.68 142.469L536.81 142.799C536.32 141.629 535.3 140.549 533.91 139.759C532.76 139.099 531.78 138.999 531.19 139.339C530.51 139.739 531.11 140.269 532.76 141.769C535.75 144.489 535.73 145.739 533.71 146.909C531.47 148.209 527.57 147.989 523.56 145.679C521.33 144.389 519.89 142.569 519.35 141.059L523.22 140.629C523.8 142.069 525 143.359 526.78 144.389C528.15 145.179 529.2 145.269 529.82 144.909C530.5 144.509 530.16 144.019 528.23 142.309C525.55 139.929 525.44 138.439 527.36 137.319C529.67 135.979 533.4 136.319 536.96 138.369Z" fill="black"/>
<path d="M527.71 127.461L514.92 134.891C513.39 135.781 513.88 136.641 514.92 137.251C515.49 137.581 516.22 137.861 517.27 138.131L515.38 140.171C513.67 139.661 512.54 139.301 510.99 138.411C507.85 136.601 508.22 134.501 511.37 132.671L521.14 126.991L517.22 124.721L520.1 123.051L527.72 127.451L527.71 127.461Z" fill="black"/>
<path d="M544.55 151.23C546.59 152.41 546.07 153.961 543.39 155.521C540.22 157.361 536.12 157.64 531.61 156.24L532.82 154.48C535.78 155.29 538.07 155.2 539.61 154.3C539.51 154.25 539.42 154.201 539.33 154.151C537.9 153.331 537.51 152.051 539.17 151.091C540.72 150.191 542.99 150.33 544.56 151.24L544.55 151.23Z" fill="black"/>
<path d="M546.83 149.751C545.1 148.751 545.19 147.321 546.83 146.361C548.47 145.401 550.96 145.341 552.69 146.341C554.42 147.341 554.31 148.791 552.67 149.741C551.03 150.691 548.55 150.751 546.82 149.751H546.83Z" fill="black"/>
<path d="M435.12 114.281C436.21 114.911 436.62 115.351 437.01 115.951L433.18 117.311C432.63 116.721 432.26 116.361 431.33 115.821C429.79 114.931 427.39 114.481 424.09 115.151L417.65 118.891L413.95 116.761L426.34 109.561L429.38 111.311L426.97 113.051L427.06 113.101C430.31 112.631 433.13 113.121 435.12 114.271V114.281Z" fill="black"/>
<path d="M446.64 120.93C450.15 122.95 450.45 125.24 446.66 127.44L439.58 131.55L436.55 129.8L437.68 128.84L437.58 128.78C435.38 128.59 433.07 128.14 431.47 127.21C428.95 125.75 429.02 123.88 431.11 122.67C433.88 121.06 437.61 121.56 443.85 124.76C444.83 124.05 444.67 123.16 443 122.2C441.79 121.5 440.13 121.08 438.03 120.68L439.12 118.52C441.83 118.95 444.51 119.69 446.64 120.92V120.93ZM439.6 127.25L441.63 126.07C437.79 124.06 436.02 123.95 434.95 124.57C434.15 125.03 434.44 125.64 435.48 126.25C436.59 126.89 438.04 127.14 439.6 127.25Z" fill="black"/>
<path d="M463.41 130.61C466.23 132.24 465.55 134.07 462.43 135.88L454.78 140.33L451.08 138.2L458.25 134.03C459.9 133.07 460.16 132.37 458.81 131.59C457.82 131.02 456.69 130.9 454.99 130.89L446.73 135.69L443.02 133.55L455.41 126.35L458.43 128.09L457.05 129.21L457.15 129.27C459.28 129.28 461.56 129.55 463.41 130.62V130.61Z" fill="black"/>
<path d="M483.36 136.57L487.07 138.71L469.58 148.87L466.56 147.13L467.56 146.24L467.47 146.19C465.66 146.19 463.69 145.83 462.44 145.11C459.26 143.27 459.62 140.65 463.67 138.3C467.72 135.95 472.79 136.03 475.5 137.6C476.87 138.39 477.31 139.21 477.31 140.19L477.4 140.24L479.14 139.03L483.36 136.58V136.57ZM469.72 144.49L474.73 141.58C474.66 140.84 474.19 140.32 473.47 139.9C472.11 139.12 469.85 139.08 467.5 140.45C465.15 141.82 464.88 143.02 466.39 143.9C467.23 144.39 468.24 144.61 469.72 144.49Z" fill="black"/>
<path d="M497.95 154.24L500.83 152.57L509.54 157.6L497.16 164.8L493.46 162.66L502.97 157.14L497.95 154.24Z" fill="black"/>
<path d="M509.46 155.309C508.03 154.489 507.9 153.379 509.25 152.589C510.6 151.799 512.56 151.859 513.99 152.679C515.42 153.499 515.5 154.639 514.16 155.419C512.82 156.199 510.89 156.129 509.46 155.309Z" fill="black"/>
<path d="M523.74 165.449C526.56 167.079 525.88 168.909 522.75 170.719L515.1 175.169L511.4 173.039L518.57 168.869C520.22 167.909 520.48 167.209 519.13 166.429C518.14 165.859 517.01 165.739 515.31 165.729L507.05 170.529L503.35 168.399L515.74 161.199L518.75 162.939L517.37 164.059L517.47 164.119C519.61 164.139 521.88 164.399 523.74 165.479V165.449Z" fill="black"/>
<path d="M540.88 171.301L537.09 173.501L542.35 176.531L539.47 178.201L534.21 175.171L529.88 177.691C528 178.791 528.09 179.661 529.91 180.711C530.83 181.241 531.82 181.591 532.8 181.871L530.82 183.801C529.38 183.351 527.73 182.801 526.07 181.841C522.1 179.551 522.88 177.461 526.13 175.581L530.5 173.041L527.36 171.231L530.1 169.641L533.54 171.471L537.8 169.551L540.85 171.311L540.88 171.301Z" fill="black"/>
<path d="M573.04 194.261L562.61 195.611L560.92 201.611L556.94 199.311L557.56 197.311C557.79 196.641 558.05 195.901 558.29 195.231L558.19 195.171C557.11 195.371 555.96 195.551 554.85 195.761L551.59 196.231L547.73 194.001L558.49 192.751L560.4 186.961L564.38 189.261L563.66 191.161C563.34 191.781 563.1 192.501 562.83 193.131L562.93 193.191C563.93 192.981 565.08 192.771 566.09 192.551L569.18 192.031L573.04 194.261Z" fill="black"/>
<path d="M577.18 202C575.45 201 575.54 199.56 577.2 198.6C578.86 197.64 581.32 197.59 583.05 198.59C584.78 199.59 584.67 201.04 583.05 201.98C581.43 202.92 578.92 203 577.19 202H577.18Z" fill="black"/>
<path d="M574.91 203.469C576.95 204.649 576.42 206.199 573.75 207.749C570.58 209.589 566.48 209.869 561.96 208.469L563.17 206.709C566.13 207.519 568.43 207.429 569.96 206.529C569.86 206.479 569.77 206.429 569.68 206.379C568.26 205.559 567.88 204.279 569.52 203.329C571.07 202.429 573.34 202.559 574.91 203.469Z" fill="black"/>
<path d="M446.87 155.791C449.09 157.071 450.1 158.661 450.57 159.891L446.71 160.221C446.2 159.051 445.19 157.971 443.81 157.181C442.65 156.511 441.67 156.421 441.08 156.761C440.4 157.161 441 157.691 442.65 159.191C445.64 161.921 445.62 163.171 443.61 164.341C441.37 165.641 437.46 165.421 433.46 163.101C431.24 161.821 429.78 160.001 429.25 158.481L433.12 158.061C433.71 159.491 434.9 160.791 436.68 161.821C438.05 162.611 439.12 162.701 439.73 162.351C440.42 161.951 440.06 161.451 438.14 159.741C435.46 157.361 435.35 155.871 437.26 154.761C439.57 153.421 443.32 153.761 446.88 155.811L446.87 155.791Z" fill="#1E498E"/>
<path d="M433.44 148.03C436.26 149.66 435.59 151.489 432.46 153.299L424.81 157.75L421.11 155.62L428.29 151.45C429.94 150.49 430.2 149.79 428.85 149.01C427.86 148.44 426.73 148.319 425.04 148.299L416.77 153.109L413.06 150.969L425.45 143.77L428.47 145.51L427.09 146.63L427.19 146.69C429.32 146.7 431.6 146.969 433.45 148.039L433.44 148.03Z" fill="#1E498E"/>
<path d="M416.39 138.19C419.69 140.09 420.37 143.24 416.25 145.64C412.13 148.04 406.7 147.64 403.41 145.74C400.12 143.84 399.43 140.7 403.54 138.31C407.66 135.91 413.1 136.3 416.39 138.2V138.19ZM406.38 144.01C408.09 144.99 410.33 144.7 412.47 143.45C414.61 142.2 415.14 140.89 413.43 139.91C411.72 138.93 409.47 139.24 407.33 140.48C405.19 141.72 404.68 143.03 406.38 144.01Z" fill="#1E498E"/>
<path d="M402.67 130.27C404.64 131.41 405.61 132.77 405.65 133.94L401.68 134.28C401.41 133.33 400.85 132.65 399.91 132.1C397.77 130.86 394.89 130.81 392.75 132.06C390.61 133.31 390.69 134.95 392.74 136.13C394.05 136.89 395.69 137.18 397.2 137.34L396.38 139.55C393.62 139.41 391.13 138.63 389.43 137.65C385.5 135.38 384.86 132.26 388.97 129.87C393.08 127.48 398.85 128.04 402.68 130.26L402.67 130.27Z" fill="#1E498E"/>
<path d="M480.56 175.23C481.65 175.86 482.06 176.31 482.46 176.91L478.63 178.27C478.09 177.68 477.7 177.31 476.78 176.78C475.23 175.89 472.84 175.43 469.55 176.1L463.1 179.85L459.39 177.71L471.78 170.51L474.83 172.27L472.41 174.01L472.5 174.06C475.75 173.59 478.58 174.09 480.56 175.23Z" fill="#1E498E"/>
<path d="M465.67 162.59L461.88 164.8L467.14 167.84L464.26 169.51L459 166.47L454.68 168.98C452.8 170.08 452.9 170.95 454.71 172C455.64 172.54 456.61 172.89 457.61 173.17L455.62 175.1C454.18 174.65 452.54 174.09 450.87 173.13C446.9 170.84 447.67 168.76 450.92 166.87L455.29 164.33L452.15 162.52L454.89 160.93L458.33 162.76L462.6 160.83L465.65 162.59H465.67Z" fill="#1E498E"/>
<path d="M509.66 190.141C508.23 189.321 508.1 188.201 509.44 187.411C510.78 186.621 512.76 186.681 514.18 187.511C515.6 188.341 515.7 189.471 514.35 190.251C513 191.031 511.08 190.961 509.65 190.141H509.66Z" fill="#1E498E"/>
<path d="M523.93 200.27C526.75 201.9 526.08 203.73 522.95 205.54L515.3 209.99L511.59 207.85L518.77 203.68C520.42 202.72 520.69 202.02 519.33 201.24C518.35 200.67 517.22 200.55 515.52 200.53L507.25 205.34L503.55 203.21L515.94 196.01L518.96 197.75L517.57 198.86L517.67 198.92C519.8 198.93 522.08 199.2 523.93 200.27Z" fill="#1E498E"/>
<path d="M498.13 189.071L501.01 187.391L509.74 192.431L497.35 199.631L493.65 197.491L503.16 191.961L498.13 189.071Z" fill="#1E498E"/>
<path d="M492.08 181.881C495.59 183.901 495.9 186.181 492.1 188.391L485.02 192.501L482 190.761L483.13 189.791L483.03 189.731C480.83 189.551 478.52 189.091 476.92 188.161C474.4 186.701 474.47 184.831 476.56 183.621C479.34 182.011 483.06 182.521 489.3 185.721C490.28 185.001 490.11 184.121 488.44 183.151C487.24 182.461 485.58 182.031 483.48 181.631L484.57 179.471C487.27 179.901 489.96 180.641 492.08 181.861V181.881ZM485.05 188.201L487.07 187.021C483.22 185.011 481.45 184.901 480.38 185.511C479.58 185.971 479.88 186.591 480.93 187.191C482.04 187.831 483.49 188.081 485.05 188.191" fill="#1E498E"/>
<path d="M541.08 206.129L537.29 208.339L542.55 211.369L539.67 213.039L534.41 210.009L530.09 212.519C528.21 213.619 528.3 214.489 530.12 215.539C531.05 216.079 532.03 216.429 533.02 216.709L531.03 218.639C529.6 218.189 527.95 217.639 526.29 216.679C522.32 214.389 523.09 212.309 526.34 210.419L530.71 207.879L527.56 206.059L530.3 204.469L533.75 206.299L538.01 204.369L541.07 206.139L541.08 206.129Z" fill="#1E498E"/>
<path d="M573.23 229.089L562.8 230.429L561.1 236.439L557.12 234.139L557.73 232.129C557.97 231.469 558.23 230.719 558.46 230.049L558.36 229.989C557.28 230.179 556.14 230.359 555.02 230.579L551.75 231.049L547.89 228.819L558.65 227.569L560.56 221.779L564.53 224.069L563.82 225.969C563.5 226.589 563.26 227.309 562.99 227.939L563.09 227.999C564.1 227.789 565.25 227.579 566.26 227.369L569.34 226.849L573.2 229.079L573.23 229.089Z" fill="#1E498E"/>
<path d="M574.3 245.611L571.53 247.211L559.46 240.251L562.23 238.641L574.3 245.611Z" fill="#1E498E"/>
<path d="M612.73 251.539C616.23 253.559 616.55 255.839 612.75 258.049L605.67 262.159L602.64 260.409L603.77 259.439L603.68 259.389C601.48 259.209 599.17 258.749 597.57 257.819C595.05 256.359 595.12 254.489 597.21 253.279C599.99 251.669 603.7 252.179 609.94 255.369C610.92 254.649 610.76 253.769 609.08 252.799C607.88 252.109 606.23 251.679 604.12 251.279L605.21 249.119C607.91 249.549 610.6 250.289 612.73 251.519V251.539ZM605.7 257.859L607.72 256.679C603.88 254.669 602.1 254.559 601.03 255.169C600.23 255.629 600.53 256.249 601.58 256.849C602.69 257.489 604.14 257.739 605.7 257.849" fill="#1E498E"/>
<path d="M601.21 244.89C602.3 245.52 602.7 245.96 603.1 246.56L599.27 247.92C598.73 247.33 598.35 246.97 597.42 246.43C595.88 245.54 593.49 245.08 590.19 245.75L583.74 249.5L580.04 247.37L592.43 240.17L595.47 241.92L593.06 243.66L593.15 243.71C596.4 243.24 599.22 243.73 601.21 244.88V244.89Z" fill="#1E498E"/>
<path d="M657.95 284.54C657.28 284.93 656.51 285.26 656.15 285.4L647.63 280.48C646.2 281.73 646.72 282.96 648.77 284.14C649.9 284.79 651.18 285.18 652.84 285.5L651.85 287.49C649.52 287.19 647.13 286.44 645.46 285.48C641.57 283.23 640.92 280.1 645.04 277.71C649.09 275.35 654.67 275.76 658.01 277.69C661.86 279.91 661.31 282.58 657.94 284.54H657.95ZM650.14 279.08L655.49 282.17C656.83 281.17 656.78 280.21 655.35 279.39C653.92 278.57 652.06 278.39 650.14 279.08Z" fill="#1E498E"/>
<path d="M634.04 275.849C637.3 277.729 638.2 279.299 635.97 280.589C633.39 282.089 628.62 281.509 624.07 278.889C620.82 277.019 619.37 275.079 621.6 273.789C622.6 273.209 624.11 273.109 626.02 273.469L626.12 273.409C625.85 272.759 625.92 272.059 626.97 271.459C627.8 270.979 629.29 270.809 630.79 270.969L630.89 270.909C630.57 270.029 630.97 268.949 632.42 268.109C635.39 266.389 639.43 266.959 642.25 268.589C642.99 269.019 643.59 269.479 643.99 269.949L649.06 272.879L646.36 274.449L643.85 272.999C643.76 273.379 643.4 273.879 642.77 274.249C639.92 275.909 636.37 275.369 633.47 273.699C632.97 273.409 632.46 273.029 632.01 272.559C631.37 272.489 630.96 272.519 630.55 272.769C629.89 273.149 630.28 273.689 631.74 274.539L634.05 275.869L634.04 275.849ZM626.93 277.849C628.94 279.009 630.96 279.429 631.82 278.929C632.61 278.469 632.01 277.939 630.58 277.109L629.01 276.209C628.1 275.689 627.61 275.349 627.28 275.019C626.26 274.879 625.62 274.949 625.17 275.219C624.24 275.759 624.99 276.739 626.93 277.859M639.77 270.019C638.74 269.429 637.18 269.359 635.89 270.109C634.6 270.859 634.67 271.799 635.69 272.389C636.71 272.979 638.29 273.069 639.64 272.279C640.99 271.489 640.8 270.619 639.77 270.019Z" fill="#1E498E"/>
<path d="M629.5 261.219C632.32 262.849 631.65 264.679 628.52 266.489L620.87 270.939L617.16 268.799L624.34 264.629C625.99 263.669 626.26 262.969 624.9 262.189C623.92 261.619 622.79 261.499 621.09 261.479L612.82 266.289L609.12 264.149L621.51 256.949L624.53 258.689L623.14 259.799L623.24 259.859C625.37 259.869 627.65 260.139 629.5 261.209V261.219Z" fill="#1E498E"/>
<path d="M697.79 294.869L695.84 296.009L694.8 295.409C692.7 294.199 691.88 294.139 690.5 294.949C689.12 295.759 688.02 296.519 686.54 297.379C684.65 298.479 683.21 298.489 681.1 297.619L681.01 297.679C682.52 298.899 682.5 299.729 680.61 300.829C679.09 301.709 677.77 302.349 676.43 303.129C675.09 303.909 675.14 304.419 677.23 305.629L678.27 306.229L676.32 307.359L674.38 306.239C671.14 304.369 670.55 303.029 673.24 301.469C675.01 300.439 676.17 300.059 677.75 299.139C678.64 298.619 678.82 297.669 676.15 296.079L678.31 294.819C681.07 296.359 682.72 296.249 683.6 295.739C685.16 294.839 685.87 294.129 687.61 293.119C690.31 291.549 692.62 291.889 695.86 293.759L697.8 294.879L697.79 294.869Z" fill="#1E498E"/>
<path d="M724.04 316.16L713.61 317.5L711.91 323.51L707.93 321.21L708.54 319.2C708.78 318.54 709.03 317.79 709.27 317.12L709.17 317.06C708.09 317.25 706.95 317.43 705.83 317.65L702.56 318.12L698.7 315.89L709.46 314.64L711.37 308.85L715.34 311.14L714.63 313.04C714.31 313.66 714.07 314.38 713.8 315.01L713.9 315.07C714.91 314.86 716.06 314.65 717.07 314.44L720.15 313.92L724.01 316.15L724.04 316.16Z" fill="#1E498E"/>
<path d="M746.23 324.99L749.69 334.24L747.15 335.71L731.18 333.74L734.5 331.8L745.33 333.24L745.42 333.19L742.89 326.93L746.23 324.99Z" fill="#1E498E"/>
<path d="M786.62 348.26L783.53 350.06L776.94 346.26L773.71 347.83C774.69 348.11 775.38 348.37 776.16 348.82C779.1 350.52 780.1 352.89 776.72 354.85C773.34 356.81 768.21 356.35 764.93 354.45C762.15 352.85 761.26 351.2 761.18 349.71L765.18 349.32C765.35 350.43 765.86 351.55 767.36 352.41C769.18 353.46 771.3 353.7 772.93 352.75C774.56 351.8 774.14 350.62 772.47 349.65C771.41 349.04 770.66 348.84 768.98 348.56L768.38 346.99L776.84 342.59L786.62 348.24V348.26Z" fill="#1E498E"/>
<path d="M788.52 358.719C786.79 357.719 786.88 356.289 788.52 355.329C790.16 354.369 792.64 354.319 794.37 355.309C796.1 356.299 795.99 357.759 794.37 358.699C792.72 359.659 790.25 359.709 788.52 358.719Z" fill="#1E498E"/>
<path d="M786.24 360.2C788.28 361.38 787.76 362.93 785.08 364.49C781.91 366.33 777.81 366.61 773.28 365.21L774.5 363.45C777.46 364.26 779.75 364.17 781.29 363.27C781.19 363.22 781.1 363.17 781.01 363.12C779.58 362.3 779.2 361.02 780.85 360.06C782.4 359.16 784.67 359.29 786.25 360.2H786.24Z" fill="#1E498E"/>
<path d="M829.61 377.111L819.18 378.451L817.48 384.461L813.5 382.161L814.11 380.151C814.35 379.491 814.61 378.741 814.84 378.071L814.74 378.011C813.66 378.201 812.52 378.381 811.4 378.601L808.13 379.071L804.27 376.841L815.03 375.591L816.94 369.801L820.91 372.091L820.2 373.991C819.88 374.611 819.64 375.331 819.37 375.961L819.47 376.021C820.48 375.811 821.63 375.601 822.64 375.391L825.72 374.871L829.58 377.101L829.61 377.111Z" fill="#1E498E"/>
<path d="M861.97 391.82L858.64 393.76L847.82 392.31L847.73 392.37L850.25 398.63L846.92 400.56L843.45 391.31L845.99 389.84L861.97 391.82Z" fill="#1E498E"/>
<path d="M862.81 396.199L874.38 402.879L871.78 404.389L860.21 397.709L862.81 396.199Z" fill="#1E498E"/>
<path d="M854.39 401.09L856.99 399.58L868.56 406.27L865.97 407.77L854.39 401.09Z" fill="#1E498E"/>
<path d="M906.89 429.86C908.93 431.04 908.41 432.59 905.73 434.15C902.56 435.99 898.46 436.27 893.94 434.87L895.15 433.11C898.11 433.92 900.4 433.83 901.94 432.93C901.84 432.88 901.75 432.83 901.66 432.78C900.23 431.96 899.85 430.68 901.5 429.72C903.05 428.82 905.33 428.96 906.9 429.86H906.89Z" fill="#1E498E"/>
<path d="M909.17 428.38C907.44 427.38 907.53 425.95 909.17 424.99C910.81 424.03 913.29 423.98 915.02 424.97C916.75 425.96 916.64 427.42 915.02 428.36C913.4 429.3 910.9 429.37 909.17 428.38Z" fill="#1E498E"/>
<path d="M897.61 421.16C898.46 422.62 898.59 424.06 896.44 425.31C893.94 426.76 889.88 426.6 885.99 424.36C882.3 422.23 881.78 419.87 884.35 418.38C886.29 417.25 888.8 417.38 891.23 417.86L891.33 417.8C890.92 416.5 891.09 415.25 892.74 414.29C895.45 412.72 899.39 413.04 902.57 414.88C905.75 416.72 906.08 418.9 903.44 420.43C901.98 421.28 899.72 421.37 897.7 421.11L897.6 421.17L897.61 421.16ZM888.63 422.92C890.13 423.78 891.79 424 893.12 423.24C894.56 422.4 893.48 421.22 892.03 419.42C890.5 419.26 889 419.4 887.98 419.99C886.6 420.79 887 421.99 888.63 422.93M899.93 416.3C898.76 415.62 897.23 415.44 896 416.15C894.77 416.86 895.39 418 896.63 419.46C898.17 419.49 899.34 419.28 900.17 418.8C901.39 418.09 901.38 417.14 899.93 416.3Z" fill="#1E498E"/>
<path d="M946.26 438.319C949.5 440.189 950.08 441.519 947.38 443.089C945.64 444.099 944.4 444.509 942.85 445.409C941.97 445.919 941.79 446.879 944.47 448.479L942.31 449.739C939.54 448.189 937.9 448.289 937.01 448.809C935.43 449.729 934.79 450.409 933.02 451.439C930.32 453.009 928.02 452.669 924.79 450.799L922.86 449.679L924.81 448.549L925.84 449.139C927.91 450.339 928.74 450.399 930.14 449.589C931.54 448.779 932.59 448.049 934.12 447.169C936.01 446.069 937.45 446.059 939.56 446.919L939.65 446.859C938.15 445.639 938.16 444.809 940.06 443.709C941.54 442.849 942.91 442.159 944.23 441.399C945.61 440.599 945.51 440.109 943.44 438.919L942.41 438.329L944.36 437.189L946.29 438.309L946.26 438.319Z" fill="#1E498E"/>
<path d="M375.18 149.11C376.27 149.74 376.69 150.18 377.08 150.78L373.24 152.15C372.7 151.56 372.32 151.2 371.39 150.66C369.85 149.77 367.46 149.31 364.16 149.98L357.71 153.73L354.01 151.6L366.41 144.4L369.45 146.15L367.03 147.9L367.12 147.95C370.38 147.48 373.19 147.97 375.18 149.12V149.11Z" fill="black"/>
<path d="M386.7 155.769C390.21 157.789 390.52 160.069 386.73 162.279L379.64 166.399L376.61 164.649L377.75 163.689L377.65 163.629C375.45 163.449 373.14 162.989 371.54 162.059C369.02 160.599 369.09 158.729 371.18 157.519C373.95 155.909 377.68 156.409 383.92 159.609C384.9 158.899 384.73 158.019 383.06 157.049C381.85 156.349 380.2 155.929 378.1 155.529L379.19 153.369C381.9 153.799 384.57 154.549 386.7 155.769ZM379.67 162.079L381.7 160.899C377.86 158.889 376.08 158.789 375.02 159.399C374.22 159.859 374.51 160.469 375.55 161.079C376.66 161.719 378.1 161.969 379.67 162.079Z" fill="black"/>
<path d="M423.42 171.4L427.13 173.54L409.63 183.71L406.61 181.97L407.62 181.07L407.53 181.02C405.72 181.02 403.75 180.66 402.5 179.94C399.32 178.1 399.67 175.48 403.72 173.13C407.77 170.77 412.84 170.86 415.55 172.43C416.92 173.22 417.36 174.04 417.36 175.02L417.45 175.07L419.19 173.85L423.41 171.4H423.42ZM409.79 179.32L414.79 176.42C414.73 175.68 414.25 175.16 413.53 174.74C412.17 173.96 409.92 173.92 407.56 175.29C405.2 176.66 404.95 177.86 406.46 178.73C407.3 179.22 408.31 179.44 409.79 179.32Z" fill="black"/>
<path d="M403.47 165.449C406.29 167.079 405.62 168.909 402.49 170.719L394.84 175.169L391.14 173.039L398.32 168.869C399.97 167.909 400.22 167.209 398.87 166.429C397.88 165.859 396.76 165.729 395.06 165.719L386.79 170.529L383.08 168.389L395.48 161.189L398.5 162.929L397.12 164.049L397.22 164.109C399.35 164.119 401.62 164.399 403.47 165.469V165.449Z" fill="black"/>
<path d="M463.8 200.279C466.62 201.909 465.94 203.729 462.81 205.549L455.16 209.999L451.46 207.869L458.64 203.699C460.29 202.739 460.54 202.039 459.19 201.259C458.2 200.689 457.08 200.559 455.38 200.549L447.11 205.359L443.41 203.229L455.81 196.029L458.82 197.769L457.44 198.889L457.54 198.949C459.68 198.969 461.94 199.239 463.8 200.309V200.279Z" fill="black"/>
<path d="M438.02 189.071L440.89 187.391L449.61 192.431L437.22 199.631L433.52 197.501L443.04 191.961L438.02 189.071Z" fill="black"/>
<path d="M449.53 190.139C448.1 189.319 447.97 188.209 449.32 187.419C450.67 186.629 452.64 186.679 454.06 187.509C455.48 188.339 455.57 189.469 454.22 190.259C452.87 191.049 450.95 190.969 449.53 190.139Z" fill="black"/>
<path d="M480.95 206.129L477.16 208.329L482.42 211.359L479.54 213.029L474.28 209.999L469.95 212.519C468.07 213.619 468.16 214.489 469.98 215.539C470.9 216.069 471.89 216.419 472.87 216.699L470.89 218.639C469.45 218.189 467.81 217.629 466.14 216.669C462.17 214.379 462.95 212.289 466.19 210.409L470.57 207.859L467.43 206.049L470.16 204.459L473.61 206.279L477.87 204.359L480.92 206.119L480.95 206.129Z" fill="black"/>
<path d="M514.97 238.3C517.01 239.48 516.49 241.03 513.81 242.58C510.64 244.42 506.54 244.7 502.03 243.3L503.24 241.54C506.2 242.35 508.49 242.26 510.03 241.36C509.93 241.31 509.84 241.26 509.75 241.21C508.33 240.39 507.94 239.12 509.59 238.16C511.14 237.26 513.4 237.4 514.97 238.3Z" fill="black"/>
<path d="M513.59 229.36L496.15 233.8C491.84 234.91 488.74 234.98 485.59 233.16C484.87 232.74 484.33 232.31 483.94 231.92L487.4 230.67C487.63 230.91 487.9 231.14 488.2 231.31C489.64 232.14 491.08 232.2 492.44 231.88L493.33 231.64L500.02 221.51L503.69 223.63L500.45 227.93C499.73 228.86 498.87 229.82 497.97 230.8L498.07 230.86C499.65 230.34 501.33 229.84 502.93 229.36L510.08 227.32L513.58 229.34L513.59 229.36Z" fill="black"/>
<path d="M517.25 236.821C515.52 235.821 515.61 234.391 517.25 233.431C518.89 232.471 521.38 232.411 523.11 233.411C524.84 234.411 524.73 235.861 523.09 236.811C521.45 237.761 518.97 237.821 517.24 236.831L517.25 236.821Z" fill="black"/>
<path d="M342.74 165.09C344.71 166.23 345.68 167.59 345.72 168.76L341.74 169.11C341.47 168.16 340.92 167.47 339.98 166.93C337.84 165.69 334.96 165.64 332.82 166.89C330.68 168.14 330.75 169.78 332.8 170.96C334.11 171.72 335.75 172 337.26 172.17L336.43 174.39C333.67 174.25 331.18 173.47 329.48 172.49C325.55 170.22 324.91 167.1 329.03 164.71C333.15 162.31 338.91 162.88 342.74 165.1V165.09Z" fill="#00D0C9"/>
<path d="M373.51 182.86C376.33 184.49 375.65 186.32 372.53 188.13L364.88 192.58L361.18 190.45L368.35 186.28C370 185.32 370.25 184.62 368.9 183.84C367.91 183.27 366.79 183.14 365.09 183.13L356.83 187.93L353.12 185.79L365.51 178.59L368.53 180.33L367.15 181.45L367.25 181.51C369.38 181.51 371.66 181.79 373.51 182.86Z" fill="#00D0C9"/>
<path d="M356.46 173.02C359.76 174.92 360.44 178.07 356.32 180.47C352.2 182.87 346.77 182.47 343.47 180.57C340.18 178.67 339.5 175.52 343.61 173.13C347.72 170.74 353.17 171.12 356.46 173.02ZM346.44 178.84C348.15 179.82 350.4 179.52 352.54 178.28C354.68 177.04 355.21 175.72 353.5 174.74C351.79 173.76 349.54 174.07 347.4 175.31C345.26 176.55 344.74 177.86 346.44 178.84Z" fill="#00D0C9"/>
<path d="M420.62 210.06C421.71 210.69 422.12 211.14 422.52 211.74L418.69 213.1C418.14 212.51 417.76 212.14 416.84 211.61C415.29 210.72 412.9 210.26 409.6 210.94L403.16 214.68L399.45 212.54L411.84 205.34L414.89 207.1L412.47 208.84L412.56 208.89C415.81 208.42 418.64 208.92 420.62 210.06Z" fill="#00D0C9"/>
<path d="M405.73 197.429L401.94 199.629L407.2 202.669L404.32 204.339L399.06 201.299L394.73 203.819C392.85 204.919 392.95 205.789 394.76 206.839C395.69 207.379 396.67 207.719 397.66 208.009L395.68 209.939C394.24 209.489 392.59 208.939 390.92 207.979C386.95 205.689 387.73 203.599 390.98 201.719L395.35 199.179L392.21 197.369L394.95 195.779L398.39 197.609L402.65 195.689L405.7 197.449L405.73 197.429Z" fill="#00D0C9"/>
<path d="M386.94 190.609C389.16 191.889 390.16 193.48 390.64 194.71L386.78 195.039C386.27 193.869 385.26 192.789 383.88 191.999C382.72 191.329 381.73 191.24 381.15 191.58C380.46 191.98 381.07 192.509 382.71 194.009C385.71 196.729 385.69 197.98 383.68 199.15C381.43 200.46 377.52 200.229 373.52 197.919C371.3 196.639 369.85 194.809 369.32 193.289L373.19 192.869C373.78 194.299 374.97 195.599 376.75 196.629C378.12 197.419 379.18 197.509 379.8 197.159C380.49 196.759 380.13 196.259 378.2 194.549C375.53 192.169 375.42 190.669 377.33 189.559C379.64 188.219 383.39 188.559 386.95 190.609H386.94Z" fill="#00D0C9"/>
<path d="M449.73 224.971C448.3 224.151 448.16 223.031 449.51 222.241C450.86 221.451 452.83 221.511 454.25 222.341C455.67 223.171 455.76 224.301 454.42 225.081C453.08 225.861 451.15 225.791 449.72 224.971H449.73Z" fill="#00D0C9"/>
<path d="M438.2 223.891L441.08 222.221L449.81 227.261L437.42 234.461L433.71 232.321L443.22 226.791L438.2 223.891Z" fill="#00D0C9"/>
<path d="M432.14 216.711C435.65 218.731 435.95 221.021 432.16 223.221L425.08 227.331L422.06 225.591L423.18 224.631L423.08 224.571C420.89 224.391 418.57 223.931 416.97 223.001C414.45 221.541 414.52 219.671 416.61 218.461C419.39 216.851 423.12 217.361 429.36 220.551C430.34 219.831 430.17 218.951 428.5 217.981C427.3 217.291 425.63 216.861 423.53 216.461L424.63 214.301C427.33 214.731 430.02 215.471 432.14 216.691V216.711ZM425.11 223.041L427.14 221.861C423.29 219.851 421.51 219.741 420.45 220.351C419.65 220.811 419.94 221.431 420.99 222.031C422.1 222.671 423.55 222.921 425.11 223.031" fill="#00D0C9"/>
<path d="M464 235.1C466.82 236.73 466.14 238.56 463.02 240.37L455.37 244.82L451.66 242.68L458.83 238.51C460.48 237.55 460.74 236.86 459.38 236.07C458.4 235.5 457.28 235.38 455.57 235.36L447.31 240.16L443.61 238.03L456 230.83L459.02 232.57L457.63 233.68L457.73 233.74C459.86 233.74 462.14 234.02 463.99 235.09L464 235.1Z" fill="#00D0C9"/>
<path d="M481.14 240.959L477.35 243.159L482.61 246.189L479.73 247.859L474.47 244.829L470.14 247.349C468.26 248.449 468.35 249.319 470.17 250.369C471.1 250.909 472.09 251.259 473.07 251.539L471.09 253.469C469.66 253.019 468.01 252.469 466.34 251.509C462.37 249.219 463.15 247.129 466.4 245.249L470.77 242.709L467.62 240.889L470.36 239.299L473.81 241.129L478.07 239.199L481.13 240.969L481.14 240.959Z" fill="#00D0C9"/>
<path d="M514.36 280.441L511.6 282.041L499.53 275.071L502.29 273.471L514.36 280.441Z" fill="#00D0C9"/>
<path d="M513.79 264.2L496.35 268.64C492.04 269.74 488.95 269.82 485.8 268C485.07 267.58 484.53 267.16 484.14 266.75L487.6 265.5C487.83 265.75 488.11 265.97 488.41 266.15C489.85 266.98 491.28 267.04 492.65 266.72L493.54 266.48L500.21 256.35L503.88 258.47L500.65 262.78C499.94 263.71 499.07 264.67 498.17 265.65L498.27 265.71C499.84 265.18 501.54 264.69 503.13 264.21L510.28 262.17L513.78 264.19L513.79 264.2Z" fill="#00D0C9"/>
<path d="M569.57 296.049C572.39 297.679 571.71 299.51 568.59 301.32L560.94 305.77L557.23 303.63L564.4 299.46C566.05 298.5 566.31 297.81 564.95 297.02C563.97 296.45 562.85 296.33 561.14 296.31L552.88 301.109L549.18 298.969L561.57 291.77L564.59 293.51L563.2 294.62L563.3 294.68C565.43 294.68 567.71 294.96 569.56 296.03L569.57 296.049Z" fill="#00D0C9"/>
<path d="M552.8 286.371C556.3 288.391 556.61 290.681 552.82 292.881L545.74 296.991L542.71 295.241L543.83 294.281L543.74 294.231C541.54 294.041 539.23 293.591 537.63 292.661C535.11 291.201 535.18 289.331 537.27 288.121C540.05 286.511 543.77 287.011 550.01 290.211C550.99 289.491 550.83 288.611 549.15 287.641C547.95 286.951 546.29 286.531 544.18 286.121L545.28 283.961C547.98 284.391 550.67 285.131 552.8 286.361V286.371ZM545.76 292.691L547.79 291.511C543.95 289.501 542.16 289.391 541.1 290.001C540.3 290.461 540.59 291.081 541.64 291.681C542.75 292.321 544.2 292.571 545.76 292.681" fill="#00D0C9"/>
<path d="M541.28 279.72C542.37 280.35 542.77 280.79 543.17 281.39L539.34 282.75C538.79 282.16 538.42 281.8 537.49 281.26C535.95 280.37 533.55 279.92 530.25 280.59L523.81 284.33L520.11 282.2L532.5 275L535.54 276.75L533.13 278.49L533.22 278.54C536.47 278.07 539.29 278.56 541.28 279.71V279.72Z" fill="#00D0C9"/>
<path d="M574.11 310.679C577.37 312.559 578.27 314.129 576.04 315.429C573.46 316.929 568.69 316.349 564.14 313.729C560.89 311.859 559.45 309.909 561.67 308.629C562.68 308.039 564.18 307.949 566.09 308.309L566.19 308.249C565.92 307.599 565.99 306.899 567.03 306.299C567.86 305.819 569.35 305.649 570.86 305.809L570.96 305.749C570.64 304.869 571.04 303.789 572.49 302.949C575.46 301.219 579.51 301.789 582.33 303.419C583.07 303.849 583.67 304.309 584.07 304.779L589.14 307.709L586.44 309.279L583.93 307.829C583.83 308.209 583.48 308.709 582.84 309.089C580 310.739 576.45 310.209 573.55 308.529C573.05 308.239 572.54 307.859 572.09 307.389C571.44 307.319 571.03 307.359 570.63 307.599C569.96 307.989 570.36 308.519 571.82 309.369L574.13 310.699L574.11 310.679ZM566.99 312.679C569 313.839 571.03 314.249 571.88 313.759C572.68 313.299 572.07 312.769 570.64 311.939L569.07 311.039C568.16 310.519 567.68 310.179 567.34 309.849C566.32 309.709 565.69 309.779 565.24 310.039C564.31 310.579 565.05 311.559 566.99 312.679ZM579.84 304.849C578.81 304.259 577.25 304.189 575.95 304.949C574.65 305.709 574.74 306.629 575.76 307.229C576.78 307.829 578.36 307.909 579.71 307.119C581.06 306.329 580.88 305.449 579.84 304.849Z" fill="#00D0C9"/>
<path d="M598.02 319.369C597.35 319.759 596.58 320.089 596.22 320.229L587.7 315.309C586.27 316.559 586.78 317.799 588.83 318.979C589.96 319.629 591.25 320.009 592.9 320.329L591.91 322.319C589.58 322.019 587.19 321.279 585.52 320.309C581.63 318.059 580.99 314.929 585.1 312.539C589.21 310.149 594.74 310.589 598.08 312.509C601.93 314.729 601.37 317.399 598.01 319.359L598.02 319.369ZM590.2 313.909L595.56 316.999C596.91 315.999 596.85 315.039 595.42 314.209C593.99 313.379 592.13 313.209 590.21 313.899" fill="#00D0C9"/>
<path d="M637.85 329.699L635.91 330.829L634.87 330.229C632.77 329.019 631.95 328.959 630.56 329.769C629.25 330.529 628.08 331.339 626.61 332.199C624.72 333.299 623.27 333.319 621.17 332.439L621.07 332.499C622.58 333.719 622.56 334.549 620.67 335.649C619.16 336.529 617.83 337.169 616.49 337.949C615.15 338.729 615.2 339.239 617.29 340.449L618.33 341.049L616.39 342.179L614.45 341.059C611.21 339.189 610.62 337.849 613.31 336.289C615.08 335.259 616.24 334.879 617.82 333.959C618.7 333.449 618.89 332.489 616.22 330.899L618.38 329.639C621.14 331.179 622.79 331.069 623.67 330.559C625.23 329.659 625.93 328.949 627.68 327.939C630.38 326.369 632.69 326.709 635.92 328.579L637.86 329.699H637.85Z" fill="#00D0C9"/>
<path d="M664.6 351.27L647.16 355.71C642.85 356.81 639.76 356.89 636.6 355.06C635.88 354.64 635.34 354.22 634.95 353.82L638.41 352.57C638.64 352.82 638.92 353.04 639.22 353.22C640.66 354.05 642.09 354.11 643.46 353.79L644.35 353.55L651.02 343.42L654.69 345.54L651.46 349.85C650.75 350.78 649.88 351.74 648.98 352.72L649.08 352.78C650.66 352.26 652.36 351.76 653.95 351.28L661.09 349.24L664.6 351.26V351.27Z" fill="#00D0C9"/>
<path d="M686.29 359.82L689.75 369.07L687.21 370.54L671.24 368.57L674.57 366.63L685.39 368.08L685.49 368.02L682.96 361.76L686.29 359.82Z" fill="#00D0C9"/>
<path d="M724.03 381.56L711.13 389.06L714.76 391.151L711.79 392.87L700.17 386.16L703.14 384.44L707.44 386.92L716.6 381.6L713.06 379.56L715.35 378.23C717.83 379.29 719.35 379.72 721.32 380L724.03 381.57V381.56Z" fill="#00D0C9"/>
<path d="M730.76 392.29C731.82 392.9 731.89 393.81 730.74 394.48C729.59 395.15 728.01 395.12 726.95 394.51C725.89 393.9 725.81 392.98 726.97 392.31C728.13 391.64 729.69 391.68 730.76 392.29Z" fill="#00D0C9"/>
<path d="M736.97 388.679C740.67 390.819 740.35 393.819 734.94 396.959C729.53 400.099 724.21 400.379 720.51 398.239C716.81 396.109 717.28 392.999 722.67 389.869C728.06 386.739 733.28 386.539 736.97 388.669V388.679ZM723.35 396.599C724.93 397.509 727.53 397.459 731.64 395.069C735.75 392.679 735.7 391.259 734.12 390.339C732.54 389.419 730.08 389.389 725.96 391.789C721.84 394.179 721.77 395.689 723.35 396.599Z" fill="#00D0C9"/>
<path d="M741.39 403.73C743.43 404.91 742.9 406.46 740.23 408.02C737.06 409.86 732.96 410.14 728.44 408.74L729.65 406.98C732.61 407.79 734.91 407.7 736.44 406.8C736.34 406.75 736.25 406.7 736.16 406.65C734.73 405.83 734.35 404.55 736 403.59C737.55 402.69 739.83 402.83 741.4 403.73H741.39Z" fill="#00D0C9"/>
<path d="M743.66 402.261C741.93 401.261 742.02 399.821 743.68 398.861C745.34 397.901 747.8 397.851 749.53 398.841C751.26 399.831 751.15 401.291 749.53 402.231C747.91 403.171 745.4 403.251 743.67 402.251L743.66 402.261Z" fill="#00D0C9"/>
<path d="M785.25 420.92L767.81 425.36C763.51 426.46 760.41 426.54 757.26 424.72C756.54 424.3 755.99 423.88 755.61 423.48L759.07 422.23C759.29 422.48 759.57 422.7 759.87 422.87C761.31 423.7 762.75 423.77 764.11 423.44L765 423.2L771.67 413.07L775.34 415.19L772.11 419.5C771.4 420.43 770.53 421.39 769.63 422.37L769.73 422.43C771.31 421.91 773 421.41 774.59 420.93L781.74 418.89L785.24 420.91L785.25 420.92Z" fill="#00D0C9"/>
<path d="M817.95 439.75L829.52 446.42L826.92 447.93L815.36 441.25L817.95 439.75Z" fill="#00D0C9"/>
<path d="M809.55 444.629L812.14 443.119L823.71 449.799L821.11 451.309L809.55 444.629Z" fill="#00D0C9"/>
<path d="M817.12 435.351L813.78 437.291L802.97 435.841L802.87 435.901L805.4 442.161L802.06 444.101L798.6 434.861L801.14 433.381L817.12 435.351Z" fill="#00D0C9"/>
<path d="M877.12 482.1C879.16 483.28 878.63 484.83 875.96 486.39C872.79 488.23 868.68 488.5 864.16 487.11L865.38 485.35C868.34 486.16 870.64 486.07 872.17 485.17C872.07 485.12 871.98 485.07 871.89 485.02C870.46 484.2 870.08 482.92 871.73 481.96C873.28 481.06 875.55 481.19 877.13 482.1H877.12Z" fill="#00D0C9"/>
<path d="M879.39 480.63C877.66 479.63 877.75 478.19 879.41 477.23C881.07 476.27 883.53 476.22 885.26 477.21C886.99 478.2 886.88 479.66 885.26 480.6C883.64 481.54 881.13 481.62 879.4 480.62L879.39 480.63Z" fill="#00D0C9"/>
<path d="M872.08 466.69C875.57 468.7 876.41 471.01 873.63 472.62C872 473.57 869.69 473.59 867.05 472.91L866.95 472.97C868.44 474.43 868.72 476.08 866.66 477.28C863.71 478.99 859.09 478.25 855.71 476.31C852.98 474.73 851.9 473.05 852 471.56L856.03 471.19C856.15 472.34 856.87 473.54 858.31 474.37C860.05 475.37 861.98 475.71 863.2 475C864.59 474.19 864.36 473.07 860.64 470.92L863.24 469.41C866.36 471.21 868.39 471.38 869.66 470.65C870.77 470.01 870.48 469.11 869.04 468.28C867.79 467.56 866.23 467.25 864.27 467.13L864.64 464.75C867.44 464.92 870.03 465.51 872.09 466.7L872.08 466.69Z" fill="#00D0C9"/>
<path d="M859.76 459.92L846.86 467.42L850.49 469.51L847.52 471.23L835.89 464.51L838.86 462.79L843.17 465.28L852.33 459.96L848.79 457.92L851.08 456.59C853.56 457.65 855.08 458.08 857.04 458.36L859.76 459.93V459.92Z" fill="#00D0C9"/>
<path d="M916.48 490.569C919.73 492.439 920.31 493.769 917.61 495.339C915.86 496.349 914.64 496.759 913.09 497.669C912.21 498.179 912.02 499.139 914.71 500.739L912.55 501.999C909.77 500.449 908.13 500.559 907.25 501.069C905.67 501.989 905.02 502.669 903.25 503.699C900.55 505.269 898.26 504.939 895.02 503.059L893.09 501.939L895.03 500.809L896.06 501.399C898.14 502.599 898.97 502.659 900.36 501.849C901.75 501.039 902.81 500.309 904.33 499.429C906.22 498.329 907.65 498.309 909.77 499.179L909.87 499.119C908.35 497.899 908.38 497.069 910.28 495.969C911.75 495.119 913.12 494.429 914.44 493.659C915.83 492.849 915.73 492.369 913.65 491.169L912.62 490.579L914.56 489.449L916.49 490.569H916.48Z" fill="#00D0C9"/>
<path d="M283.22 165.449C286.04 167.079 285.37 168.909 282.24 170.719L274.59 175.169L270.89 173.039L278.06 168.869C279.71 167.909 279.97 167.209 278.61 166.419C277.63 165.849 276.5 165.729 274.81 165.719L266.54 170.529L262.83 168.389L275.22 161.189L278.24 162.929L276.85 164.039L276.95 164.099C279.08 164.109 281.36 164.379 283.21 165.449H283.22Z" fill="black"/>
<path d="M266.43 162.64C265.76 163.03 264.99 163.36 264.63 163.5L256.12 158.59C254.69 159.84 255.21 161.07 257.25 162.25C258.38 162.9 259.66 163.29 261.32 163.61L260.33 165.6C258 165.31 255.61 164.56 253.94 163.59C250.05 161.34 249.42 158.21 253.54 155.82C257.66 153.43 263.16 153.87 266.51 155.79C270.36 158.01 269.81 160.68 266.44 162.64H266.43ZM258.62 157.19L263.97 160.28C265.31 159.28 265.27 158.33 263.83 157.5C262.39 156.67 260.55 156.51 258.62 157.2" fill="black"/>
<path d="M332.63 188.41L319.83 195.85C318.3 196.74 318.8 197.6 319.84 198.2C320.41 198.53 321.14 198.81 322.19 199.08L320.3 201.12C318.58 200.62 317.45 200.26 315.9 199.36C312.76 197.55 313.14 195.44 316.28 193.61L326.05 187.93L322.13 185.66L325.01 183.99L332.63 188.39V188.41Z" fill="black"/>
<path d="M312.77 182.51C314.74 183.65 315.71 185.01 315.75 186.18L311.78 186.52C311.51 185.57 310.95 184.89 310.01 184.34C307.87 183.1 304.99 183.05 302.85 184.3C300.71 185.55 300.79 187.19 302.84 188.37C304.15 189.13 305.79 189.42 307.3 189.58L306.48 191.79C303.72 191.65 301.22 190.88 299.52 189.9C295.59 187.63 294.95 184.51 299.07 182.12C303.19 179.72 308.95 180.29 312.78 182.51H312.77Z" fill="black"/>
<path d="M303.17 171.4L306.87 173.53L289.37 183.7L286.36 181.96L287.36 181.07L287.27 181.02C285.46 181 283.49 180.66 282.24 179.94C279.06 178.1 279.42 175.48 283.47 173.13C287.52 170.78 292.59 170.86 295.3 172.43C296.67 173.22 297.11 174.04 297.11 175.02L297.2 175.07L298.95 173.85L303.17 171.4ZM289.54 179.32L294.54 176.42C294.48 175.68 294 175.16 293.27 174.74C291.92 173.96 289.67 173.92 287.31 175.29C284.95 176.66 284.7 177.86 286.21 178.73C287.05 179.22 288.06 179.44 289.54 179.32Z" fill="black"/>
<path d="M372.05 216.741C374.28 218.031 375.29 219.611 375.76 220.841L371.89 221.161C371.38 219.991 370.37 218.911 368.99 218.121C367.84 217.461 366.86 217.361 366.27 217.701C365.59 218.101 366.19 218.631 367.84 220.131C370.82 222.851 370.81 224.101 368.79 225.271C366.55 226.571 362.64 226.361 358.64 224.041C356.41 222.751 354.98 220.931 354.44 219.411L358.3 218.981C358.9 220.421 360.08 221.711 361.87 222.741C363.24 223.531 364.3 223.611 364.91 223.261C365.6 222.861 365.25 222.371 363.32 220.651C360.64 218.271 360.54 216.781 362.45 215.671C364.76 214.331 368.5 214.671 372.06 216.721L372.05 216.741Z" fill="black"/>
<path d="M356.97 208.031C359.19 209.311 360.2 210.901 360.67 212.131L356.81 212.461C356.3 211.291 355.29 210.211 353.91 209.421C352.75 208.751 351.77 208.661 351.18 209.001C350.5 209.401 351.1 209.931 352.75 211.431C355.74 214.161 355.73 215.401 353.71 216.581C351.47 217.881 347.55 217.661 343.55 215.351C341.33 214.071 339.89 212.241 339.35 210.721L343.22 210.301C343.81 211.731 345 213.031 346.78 214.061C348.15 214.851 349.22 214.941 349.83 214.591C350.52 214.191 350.16 213.691 348.24 211.981C345.56 209.601 345.45 208.111 347.36 207.001C349.67 205.661 353.42 206.001 356.98 208.051L356.97 208.031Z" fill="black"/>
<path d="M341.85 199.301C345.36 201.321 345.67 203.601 341.87 205.811L334.79 209.921L331.77 208.181L332.9 207.211L332.8 207.151C330.6 206.971 328.28 206.511 326.68 205.591C324.16 204.131 324.24 202.261 326.32 201.051C329.1 199.431 332.83 199.951 339.07 203.141C340.05 202.421 339.89 201.541 338.21 200.571C337.01 199.881 335.34 199.451 333.25 199.051L334.33 196.891C337.04 197.321 339.73 198.071 341.84 199.291L341.85 199.301ZM334.83 205.621L336.85 204.441C333 202.431 331.23 202.321 330.17 202.931C329.37 203.401 329.66 204.011 330.71 204.611C331.81 205.251 333.26 205.501 334.83 205.611" fill="black"/>
</g>
</g>
<defs>
<clipPath id="clip0_1474_1114">
<rect width="1200" height="675" fill="white"/>
</clipPath>
<clipPath id="clip1_1474_1114">
<rect width="1905.87" height="1456.22" fill="white" transform="translate(-353 -391)"/>
</clipPath>
</defs>
</svg>
