<svg width="1127" height="584" viewBox="0 0 1127 584" fill="none" xmlns="http://www.w3.org/2000/svg">
<rect width="1127" height="584" fill="#332D37"/>
<rect x="579.5" y="173.5" width="483" height="237" stroke="white" stroke-width="3" stroke-dasharray="10 10"/>
<rect x="607.5" y="302.814" width="91" height="51.3144" stroke="white" stroke-width="3"/>
<path d="M634.436 337.941V333.423C635.138 334.359 636.128 334.845 637.226 334.845C639.476 334.845 641.078 333.135 641.078 330.273C641.078 327.411 639.476 325.719 637.226 325.719C636.092 325.719 635.084 326.259 634.436 327.123V325.935H632.546V337.941H634.436ZM639.116 330.273C639.116 331.965 638.162 333.171 636.668 333.171C635.786 333.171 634.85 332.631 634.436 332.001V328.563C634.85 327.915 635.786 327.393 636.668 327.393C638.162 327.393 639.116 328.599 639.116 330.273ZM646.912 334.845C649.702 334.845 651.394 332.775 651.394 330.273C651.394 327.789 649.702 325.719 646.912 325.719C644.158 325.719 642.448 327.789 642.448 330.273C642.448 332.775 644.158 334.845 646.912 334.845ZM646.912 333.171C645.31 333.171 644.41 331.821 644.41 330.273C644.41 328.743 645.31 327.393 646.912 327.393C648.532 327.393 649.432 328.743 649.432 330.273C649.432 331.821 648.532 333.171 646.912 333.171ZM659.174 334.629H661.064V328.509C661.064 326.727 660.128 325.719 658.256 325.719C656.888 325.719 655.772 326.439 655.196 327.123V325.935H653.306V334.629H655.196V328.563C655.628 327.969 656.456 327.393 657.428 327.393C658.49 327.393 659.174 327.843 659.174 329.193V334.629ZM663.411 336.861C664.473 337.833 665.571 338.157 667.047 338.157C669.189 338.157 671.511 337.311 671.511 334.179V325.935H669.621V327.141C668.919 326.223 667.929 325.719 666.831 325.719C664.599 325.719 662.979 327.375 662.979 330.183C662.979 333.045 664.617 334.647 666.831 334.647C667.965 334.647 668.955 334.071 669.621 333.207V334.251C669.621 336.033 668.289 336.609 667.047 336.609C665.895 336.609 664.995 336.303 664.293 335.493L663.411 336.861ZM669.621 331.803C669.207 332.451 668.271 332.973 667.389 332.973C665.895 332.973 664.941 331.857 664.941 330.183C664.941 328.509 665.895 327.393 667.389 327.393C668.271 327.393 669.207 327.915 669.621 328.563V331.803Z" fill="white"/>
<rect x="778.5" y="211.5" width="91" height="51.3144" stroke="white" stroke-width="3"/>
<path d="M801.187 238.958C801.187 241.712 803.131 243.53 805.741 243.53C807.127 243.53 808.405 243.098 809.269 242.27L808.405 241.028C807.793 241.64 806.785 241.982 805.939 241.982C804.301 241.982 803.311 240.902 803.167 239.588H809.881V239.138C809.881 236.402 808.207 234.404 805.597 234.404C803.023 234.404 801.187 236.438 801.187 238.958ZM805.597 235.952C807.307 235.952 808.009 237.23 808.045 238.256H803.149C803.239 237.194 803.977 235.952 805.597 235.952ZM814.032 243.314H816.066L819.612 234.62H817.578L815.04 241.136L812.502 234.62H810.486L814.032 243.314ZM820.259 238.958C820.259 241.712 822.203 243.53 824.813 243.53C826.199 243.53 827.477 243.098 828.341 242.27L827.477 241.028C826.865 241.64 825.857 241.982 825.011 241.982C823.373 241.982 822.383 240.902 822.239 239.588H828.953V239.138C828.953 236.402 827.279 234.404 824.669 234.404C822.095 234.404 820.259 236.438 820.259 238.958ZM824.669 235.952C826.379 235.952 827.081 237.23 827.117 238.256H822.221C822.311 237.194 823.049 235.952 824.669 235.952ZM836.687 243.314H838.577V237.194C838.577 235.412 837.641 234.404 835.769 234.404C834.401 234.404 833.285 235.124 832.709 235.808V234.62H830.819V243.314H832.709V237.248C833.141 236.654 833.969 236.078 834.941 236.078C836.003 236.078 836.687 236.528 836.687 237.878V243.314ZM843.642 243.53C844.524 243.53 845.082 243.296 845.424 242.972L844.974 241.55C844.83 241.712 844.488 241.856 844.128 241.856C843.588 241.856 843.3 241.424 843.3 240.83V236.276H845.064V234.62H843.3V232.244H841.41V234.62H839.97V236.276H841.41V241.298C841.41 242.738 842.184 243.53 843.642 243.53Z" fill="white"/>
<rect x="893.5" y="211.5" width="91" height="51.3144" stroke="white" stroke-width="3"/>
<path d="M916.187 238.958C916.187 241.712 918.131 243.53 920.741 243.53C922.127 243.53 923.405 243.098 924.269 242.27L923.405 241.028C922.793 241.64 921.785 241.982 920.939 241.982C919.301 241.982 918.311 240.902 918.167 239.588H924.881V239.138C924.881 236.402 923.207 234.404 920.597 234.404C918.023 234.404 916.187 236.438 916.187 238.958ZM920.597 235.952C922.307 235.952 923.009 237.23 923.045 238.256H918.149C918.239 237.194 918.977 235.952 920.597 235.952ZM929.032 243.314H931.066L934.612 234.62H932.578L930.04 241.136L927.502 234.62H925.486L929.032 243.314ZM935.259 238.958C935.259 241.712 937.203 243.53 939.813 243.53C941.199 243.53 942.477 243.098 943.341 242.27L942.477 241.028C941.865 241.64 940.857 241.982 940.011 241.982C938.373 241.982 937.383 240.902 937.239 239.588H943.953V239.138C943.953 236.402 942.279 234.404 939.669 234.404C937.095 234.404 935.259 236.438 935.259 238.958ZM939.669 235.952C941.379 235.952 942.081 237.23 942.117 238.256H937.221C937.311 237.194 938.049 235.952 939.669 235.952ZM951.687 243.314H953.577V237.194C953.577 235.412 952.641 234.404 950.769 234.404C949.401 234.404 948.285 235.124 947.709 235.808V234.62H945.819V243.314H947.709V237.248C948.141 236.654 948.969 236.078 949.941 236.078C951.003 236.078 951.687 236.528 951.687 237.878V243.314ZM958.642 243.53C959.524 243.53 960.082 243.296 960.424 242.972L959.974 241.55C959.83 241.712 959.488 241.856 959.128 241.856C958.588 241.856 958.3 241.424 958.3 240.83V236.276H960.064V234.62H958.3V232.244H956.41V234.62H954.97V236.276H956.41V241.298C956.41 242.738 957.184 243.53 958.642 243.53Z" fill="white"/>
<rect x="835.5" y="302.5" width="91" height="51.3144" stroke="white" stroke-width="3"/>
<path d="M858.187 329.958C858.187 332.712 860.131 334.53 862.741 334.53C864.127 334.53 865.405 334.098 866.269 333.27L865.405 332.028C864.793 332.64 863.785 332.982 862.939 332.982C861.301 332.982 860.311 331.902 860.167 330.588H866.881V330.138C866.881 327.402 865.207 325.404 862.597 325.404C860.023 325.404 858.187 327.438 858.187 329.958ZM862.597 326.952C864.307 326.952 865.009 328.23 865.045 329.256H860.149C860.239 328.194 860.977 326.952 862.597 326.952ZM871.032 334.314H873.066L876.612 325.62H874.578L872.04 332.136L869.502 325.62H867.486L871.032 334.314ZM877.259 329.958C877.259 332.712 879.203 334.53 881.813 334.53C883.199 334.53 884.477 334.098 885.341 333.27L884.477 332.028C883.865 332.64 882.857 332.982 882.011 332.982C880.373 332.982 879.383 331.902 879.239 330.588H885.953V330.138C885.953 327.402 884.279 325.404 881.669 325.404C879.095 325.404 877.259 327.438 877.259 329.958ZM881.669 326.952C883.379 326.952 884.081 328.23 884.117 329.256H879.221C879.311 328.194 880.049 326.952 881.669 326.952ZM893.687 334.314H895.577V328.194C895.577 326.412 894.641 325.404 892.769 325.404C891.401 325.404 890.285 326.124 889.709 326.808V325.62H887.819V334.314H889.709V328.248C890.141 327.654 890.969 327.078 891.941 327.078C893.003 327.078 893.687 327.528 893.687 328.878V334.314ZM900.642 334.53C901.524 334.53 902.082 334.296 902.424 333.972L901.974 332.55C901.83 332.712 901.488 332.856 901.128 332.856C900.588 332.856 900.3 332.424 900.3 331.83V327.276H902.064V325.62H900.3V323.244H898.41V325.62H896.97V327.276H898.41V332.298C898.41 333.738 899.184 334.53 900.642 334.53Z" fill="white"/>
<rect x="721.5" y="302.5" width="91" height="51.3144" stroke="white" stroke-width="3"/>
<path d="M744.187 329.958C744.187 332.712 746.131 334.53 748.741 334.53C750.127 334.53 751.405 334.098 752.269 333.27L751.405 332.028C750.793 332.64 749.785 332.982 748.939 332.982C747.301 332.982 746.311 331.902 746.167 330.588H752.881V330.138C752.881 327.402 751.207 325.404 748.597 325.404C746.023 325.404 744.187 327.438 744.187 329.958ZM748.597 326.952C750.307 326.952 751.009 328.23 751.045 329.256H746.149C746.239 328.194 746.977 326.952 748.597 326.952ZM757.032 334.314H759.066L762.612 325.62H760.578L758.04 332.136L755.502 325.62H753.486L757.032 334.314ZM763.259 329.958C763.259 332.712 765.203 334.53 767.813 334.53C769.199 334.53 770.477 334.098 771.341 333.27L770.477 332.028C769.865 332.64 768.857 332.982 768.011 332.982C766.373 332.982 765.383 331.902 765.239 330.588H771.953V330.138C771.953 327.402 770.279 325.404 767.669 325.404C765.095 325.404 763.259 327.438 763.259 329.958ZM767.669 326.952C769.379 326.952 770.081 328.23 770.117 329.256H765.221C765.311 328.194 766.049 326.952 767.669 326.952ZM779.687 334.314H781.577V328.194C781.577 326.412 780.641 325.404 778.769 325.404C777.401 325.404 776.285 326.124 775.709 326.808V325.62H773.819V334.314H775.709V328.248C776.141 327.654 776.969 327.078 777.941 327.078C779.003 327.078 779.687 327.528 779.687 328.878V334.314ZM786.642 334.53C787.524 334.53 788.082 334.296 788.424 333.972L787.974 332.55C787.83 332.712 787.488 332.856 787.128 332.856C786.588 332.856 786.3 332.424 786.3 331.83V327.276H788.064V325.62H786.3V323.244H784.41V325.62H782.97V327.276H784.41V332.298C784.41 333.738 785.184 334.53 786.642 334.53Z" fill="white"/>
<rect x="663.5" y="211.5" width="91" height="51.3144" stroke="white" stroke-width="3"/>
<path d="M693.425 246.626V242.108C694.127 243.044 695.117 243.53 696.215 243.53C698.465 243.53 700.067 241.82 700.067 238.958C700.067 236.096 698.465 234.404 696.215 234.404C695.081 234.404 694.073 234.944 693.425 235.808V234.62H691.535V246.626H693.425ZM698.105 238.958C698.105 240.65 697.151 241.856 695.657 241.856C694.775 241.856 693.839 241.316 693.425 240.686V237.248C693.839 236.6 694.775 236.078 695.657 236.078C697.151 236.078 698.105 237.284 698.105 238.958ZM702.912 233.18C703.56 233.18 704.082 232.658 704.082 232.01C704.082 231.362 703.56 230.84 702.912 230.84C702.282 230.84 701.742 231.362 701.742 232.01C701.742 232.658 702.282 233.18 702.912 233.18ZM701.976 243.314H703.866V234.62H701.976V243.314ZM712.186 243.314H714.076V237.194C714.076 235.412 713.14 234.404 711.268 234.404C709.9 234.404 708.784 235.124 708.208 235.808V234.62H706.318V243.314H708.208V237.248C708.64 236.654 709.468 236.078 710.44 236.078C711.502 236.078 712.186 236.528 712.186 237.878V243.314ZM716.423 245.546C717.485 246.518 718.583 246.842 720.059 246.842C722.201 246.842 724.523 245.996 724.523 242.864V234.62H722.633V235.826C721.931 234.908 720.941 234.404 719.843 234.404C717.611 234.404 715.991 236.06 715.991 238.868C715.991 241.73 717.629 243.332 719.843 243.332C720.977 243.332 721.967 242.756 722.633 241.892V242.936C722.633 244.718 721.301 245.294 720.059 245.294C718.907 245.294 718.007 244.988 717.305 244.178L716.423 245.546ZM722.633 240.488C722.219 241.136 721.283 241.658 720.401 241.658C718.907 241.658 717.953 240.542 717.953 238.868C717.953 237.194 718.907 236.078 720.401 236.078C721.283 236.078 722.219 236.6 722.633 237.248V240.488Z" fill="white"/>
<rect x="949.5" y="302.5" width="91" height="51.3144" stroke="white" stroke-width="3"/>
<path d="M972.187 329.958C972.187 332.712 974.131 334.53 976.741 334.53C978.127 334.53 979.405 334.098 980.269 333.27L979.405 332.028C978.793 332.64 977.785 332.982 976.939 332.982C975.301 332.982 974.311 331.902 974.167 330.588H980.881V330.138C980.881 327.402 979.207 325.404 976.597 325.404C974.023 325.404 972.187 327.438 972.187 329.958ZM976.597 326.952C978.307 326.952 979.009 328.23 979.045 329.256H974.149C974.239 328.194 974.977 326.952 976.597 326.952ZM985.032 334.314H987.066L990.612 325.62H988.578L986.04 332.136L983.502 325.62H981.486L985.032 334.314ZM991.259 329.958C991.259 332.712 993.203 334.53 995.813 334.53C997.199 334.53 998.477 334.098 999.341 333.27L998.477 332.028C997.865 332.64 996.857 332.982 996.011 332.982C994.373 332.982 993.383 331.902 993.239 330.588H999.953V330.138C999.953 327.402 998.279 325.404 995.669 325.404C993.095 325.404 991.259 327.438 991.259 329.958ZM995.669 326.952C997.379 326.952 998.081 328.23 998.117 329.256H993.221C993.311 328.194 994.049 326.952 995.669 326.952ZM1007.69 334.314H1009.58V328.194C1009.58 326.412 1008.64 325.404 1006.77 325.404C1005.4 325.404 1004.28 326.124 1003.71 326.808V325.62H1001.82V334.314H1003.71V328.248C1004.14 327.654 1004.97 327.078 1005.94 327.078C1007 327.078 1007.69 327.528 1007.69 328.878V334.314ZM1014.64 334.53C1015.52 334.53 1016.08 334.296 1016.42 333.972L1015.97 332.55C1015.83 332.712 1015.49 332.856 1015.13 332.856C1014.59 332.856 1014.3 332.424 1014.3 331.83V327.276H1016.06V325.62H1014.3V323.244H1012.41V325.62H1010.97V327.276H1012.41V332.298C1012.41 333.738 1013.18 334.53 1014.64 334.53Z" fill="white"/>
<path d="M112.541 337.451C112.599 338.496 112.951 339.305 113.597 339.878C114.25 340.444 115.138 340.727 116.263 340.727C117.112 340.727 118.037 340.502 119.038 340.052C120.039 339.595 120.645 339.367 120.855 339.367C121.073 339.367 121.254 339.436 121.399 339.573C121.544 339.711 121.617 339.882 121.617 340.085C121.617 340.295 121.54 340.487 121.388 340.662C121.236 340.836 120.993 341.006 120.659 341.173C119.934 341.528 119.183 341.801 118.407 341.989C117.638 342.178 116.872 342.272 116.11 342.272C114.456 342.272 113.133 341.797 112.139 340.847C111.145 339.889 110.648 338.623 110.648 337.049C110.648 335.446 111.174 334.147 112.226 333.153C113.278 332.159 114.649 331.662 116.339 331.662C117.87 331.662 119.139 332.127 120.148 333.055C121.156 333.984 121.66 335.108 121.66 336.429C121.66 336.835 121.573 337.107 121.399 337.245C121.232 337.383 120.771 337.451 120.017 337.451H119.854H112.541ZM112.596 336.026H119.68C119.571 335.163 119.208 334.47 118.592 333.948C117.982 333.418 117.231 333.153 116.339 333.153C115.374 333.153 114.562 333.407 113.902 333.915C113.241 334.423 112.806 335.126 112.596 336.026ZM125.556 340.466V333.491H125.349C124.856 333.491 124.515 333.432 124.326 333.316C124.145 333.2 124.054 332.997 124.054 332.707C124.054 332.439 124.13 332.246 124.283 332.13C124.435 332.007 124.682 331.945 125.023 331.945H125.534H126.579C126.775 331.945 126.927 331.985 127.036 332.065C127.145 332.145 127.199 332.254 127.199 332.391V333.131C127.729 332.638 128.251 332.275 128.766 332.043C129.288 331.804 129.829 331.684 130.387 331.684C131.483 331.684 132.342 332.025 132.966 332.707C133.597 333.389 133.913 334.332 133.913 335.536V340.466H134.424C134.787 340.466 135.048 340.527 135.208 340.651C135.367 340.767 135.447 340.955 135.447 341.217C135.447 341.499 135.36 341.703 135.186 341.826C135.019 341.942 134.718 342 134.283 342H131.878C131.414 342 131.116 341.946 130.986 341.837C130.855 341.728 130.79 341.521 130.79 341.217C130.79 340.934 130.866 340.738 131.018 340.629C131.171 340.52 131.457 340.466 131.878 340.466H132.259V335.939C132.259 335.09 132.067 334.444 131.682 334.002C131.298 333.552 130.739 333.327 130.006 333.327C129.266 333.327 128.614 333.578 128.048 334.078C127.482 334.579 127.199 335.199 127.199 335.939V340.466H127.58C128.015 340.466 128.309 340.52 128.461 340.629C128.614 340.738 128.69 340.934 128.69 341.217C128.69 341.521 128.624 341.728 128.494 341.837C128.363 341.946 128.044 342 127.536 342H125.556H124.968C124.671 342 124.446 341.938 124.294 341.815C124.148 341.684 124.076 341.485 124.076 341.217C124.076 340.926 124.159 340.73 124.326 340.629C124.5 340.52 124.834 340.466 125.327 340.466H125.556ZM146.264 342C146.111 342 146.003 341.964 145.937 341.891C145.879 341.811 145.85 341.663 145.85 341.445V340.553C145.415 341.097 144.871 341.521 144.218 341.826C143.565 342.123 142.858 342.272 142.096 342.272C140.725 342.272 139.575 341.786 138.646 340.814C137.725 339.835 137.265 338.619 137.265 337.169C137.265 335.667 137.758 334.419 138.744 333.425C139.731 332.424 140.961 331.924 142.433 331.924C143.181 331.924 143.852 332.058 144.446 332.326C145.041 332.587 145.553 332.975 145.981 333.491V329.323H145.404C144.773 329.323 144.363 329.268 144.174 329.16C143.993 329.044 143.902 328.837 143.902 328.539C143.902 328.278 143.975 328.082 144.12 327.952C144.272 327.821 144.49 327.756 144.773 327.756H147.004C147.221 327.756 147.377 327.792 147.472 327.865C147.573 327.937 147.624 328.05 147.624 328.202V340.466H148.114C148.469 340.466 148.727 340.527 148.886 340.651C149.046 340.767 149.126 340.955 149.126 341.217C149.126 341.463 149.057 341.655 148.919 341.793C148.781 341.931 148.596 342 148.364 342H146.264ZM139.136 337.114C139.136 338.115 139.459 338.935 140.105 339.573C140.75 340.212 141.57 340.531 142.564 340.531C143.565 340.531 144.388 340.201 145.034 339.541C145.68 338.873 146.003 338.028 146.003 337.005C146.003 335.997 145.68 335.166 145.034 334.513C144.396 333.86 143.572 333.534 142.564 333.534C141.541 333.534 140.714 333.864 140.083 334.524C139.452 335.184 139.136 336.048 139.136 337.114Z" fill="#E95741"/>
<path d="M165.22 286.028C165.075 286.028 164.958 285.985 164.871 285.898C164.792 285.803 164.752 285.676 164.752 285.517V284.363C164.752 284.225 164.792 284.117 164.871 284.037C164.958 283.957 165.075 283.917 165.22 283.917H174.241C174.407 283.917 174.538 283.957 174.632 284.037C174.727 284.117 174.774 284.225 174.774 284.363V285.517C174.774 285.647 174.719 285.767 174.61 285.876C174.502 285.977 174.378 286.028 174.241 286.028H165.22ZM186.047 283.112L178.093 279.477C177.759 279.325 177.523 279.176 177.385 279.031C177.247 278.879 177.179 278.708 177.179 278.52C177.179 278.309 177.24 278.143 177.364 278.019C177.494 277.896 177.668 277.834 177.886 277.834C177.995 277.834 178.114 277.856 178.245 277.9C178.383 277.936 178.553 278.001 178.756 278.095L187.407 282.067C187.436 282.082 187.48 282.104 187.538 282.133C188.191 282.423 188.517 282.749 188.517 283.112C188.517 283.467 188.198 283.794 187.56 284.091C187.487 284.12 187.436 284.142 187.407 284.157L178.756 288.194L178.713 288.215C178.336 288.382 178.06 288.466 177.886 288.466C177.668 288.466 177.494 288.4 177.364 288.27C177.24 288.139 177.179 287.965 177.179 287.747C177.179 287.559 177.247 287.392 177.385 287.247C177.523 287.095 177.759 286.942 178.093 286.79L186.047 283.112ZM193.719 292.786H196.33C196.606 292.786 196.813 292.851 196.951 292.982C197.088 293.112 197.157 293.308 197.157 293.569C197.157 293.852 197.088 294.052 196.951 294.168C196.82 294.284 196.584 294.342 196.243 294.342H191.444C191.154 294.342 190.933 294.277 190.781 294.146C190.636 294.015 190.563 293.823 190.563 293.569C190.563 293.279 190.654 293.076 190.835 292.96C191.024 292.844 191.368 292.786 191.869 292.786H192.076V281.491H191.869C191.368 281.491 191.024 281.432 190.835 281.316C190.654 281.2 190.563 280.997 190.563 280.707C190.563 280.453 190.636 280.265 190.781 280.141C190.933 280.011 191.154 279.945 191.444 279.945H193.099C193.316 279.945 193.472 279.982 193.566 280.054C193.668 280.127 193.719 280.239 193.719 280.391V281.447C194.212 280.939 194.756 280.558 195.351 280.304C195.953 280.051 196.599 279.924 197.288 279.924C198.746 279.924 199.965 280.417 200.944 281.403C201.924 282.39 202.413 283.627 202.413 285.114C202.413 286.543 201.949 287.718 201.02 288.64C200.092 289.561 198.906 290.022 197.462 290.022C196.693 290.022 195.986 289.888 195.34 289.619C194.694 289.343 194.154 288.952 193.719 288.444V292.786ZM197.092 288.422C198.1 288.422 198.927 288.107 199.573 287.475C200.219 286.837 200.542 286.014 200.542 285.005C200.542 284.019 200.215 283.206 199.562 282.568C198.917 281.922 198.093 281.599 197.092 281.599C196.091 281.599 195.271 281.919 194.633 282.557C193.994 283.195 193.675 284.011 193.675 285.005C193.675 286.006 193.991 286.826 194.622 287.465C195.26 288.103 196.084 288.422 197.092 288.422ZM208.91 276.811C208.91 276.028 208.979 275.535 209.116 275.331C209.261 275.128 209.566 275.027 210.03 275.027C210.48 275.027 210.778 275.114 210.923 275.288C211.068 275.455 211.14 275.857 211.14 276.496C211.14 277.12 211.071 277.508 210.934 277.66C210.803 277.805 210.502 277.878 210.03 277.878C209.566 277.878 209.261 277.809 209.116 277.671C208.979 277.533 208.91 277.247 208.91 276.811ZM210.923 288.466H214.416C214.699 288.466 214.905 288.527 215.036 288.651C215.174 288.767 215.243 288.955 215.243 289.217C215.243 289.514 215.177 289.721 215.047 289.837C214.924 289.946 214.691 290 214.35 290H205.906C205.616 290 205.398 289.935 205.253 289.804C205.108 289.674 205.036 289.478 205.036 289.217C205.036 288.963 205.112 288.774 205.264 288.651C205.417 288.527 205.645 288.466 205.95 288.466H209.269V281.491H207.147C206.849 281.491 206.621 281.425 206.461 281.295C206.309 281.157 206.233 280.961 206.233 280.707C206.233 280.453 206.305 280.265 206.45 280.141C206.595 280.011 206.813 279.945 207.103 279.945H210.292C210.487 279.945 210.64 279.985 210.749 280.065C210.865 280.145 210.923 280.254 210.923 280.391V288.466ZM219.247 288.466V281.491H219.04C218.547 281.491 218.206 281.432 218.018 281.316C217.836 281.2 217.746 280.997 217.746 280.707C217.746 280.439 217.822 280.246 217.974 280.13C218.126 280.007 218.373 279.945 218.714 279.945H219.225H220.27C220.466 279.945 220.618 279.985 220.727 280.065C220.836 280.145 220.89 280.254 220.89 280.391V281.131C221.42 280.638 221.942 280.275 222.457 280.043C222.98 279.804 223.52 279.684 224.079 279.684C225.174 279.684 226.034 280.025 226.658 280.707C227.289 281.389 227.604 282.332 227.604 283.536V288.466H228.116C228.479 288.466 228.74 288.527 228.899 288.651C229.059 288.767 229.139 288.955 229.139 289.217C229.139 289.499 229.052 289.703 228.878 289.826C228.711 289.942 228.41 290 227.974 290H225.569C225.105 290 224.808 289.946 224.677 289.837C224.547 289.728 224.481 289.521 224.481 289.217C224.481 288.934 224.557 288.738 224.71 288.629C224.862 288.52 225.149 288.466 225.569 288.466H225.95V283.939C225.95 283.09 225.758 282.444 225.374 282.002C224.989 281.552 224.431 281.327 223.698 281.327C222.958 281.327 222.305 281.578 221.739 282.078C221.173 282.579 220.89 283.199 220.89 283.939V288.466H221.271C221.706 288.466 222 288.52 222.153 288.629C222.305 288.738 222.381 288.934 222.381 289.217C222.381 289.521 222.316 289.728 222.185 289.837C222.055 289.946 221.735 290 221.228 290H219.247H218.66C218.362 290 218.137 289.938 217.985 289.815C217.84 289.684 217.767 289.485 217.767 289.217C217.767 288.926 217.851 288.73 218.018 288.629C218.192 288.52 218.525 288.466 219.019 288.466H219.247ZM236.375 281.556C235.425 281.556 234.648 281.85 234.046 282.437C233.444 283.025 233.143 283.787 233.143 284.722C233.143 285.644 233.444 286.402 234.046 286.997C234.648 287.584 235.425 287.878 236.375 287.878C237.318 287.878 238.091 287.584 238.693 286.997C239.302 286.402 239.607 285.644 239.607 284.722C239.607 283.801 239.302 283.043 238.693 282.448C238.091 281.853 237.318 281.556 236.375 281.556ZM241.098 289.423C241.098 290.439 241.047 291.157 240.945 291.578C240.844 292.006 240.67 292.379 240.423 292.699C240.017 293.235 239.447 293.642 238.715 293.917C237.982 294.2 237.119 294.342 236.125 294.342C235.298 294.342 234.692 294.262 234.307 294.102C233.93 293.943 233.742 293.689 233.742 293.341C233.742 293.116 233.832 292.916 234.014 292.742C234.202 292.575 234.424 292.492 234.677 292.492C234.873 292.492 235.174 292.517 235.581 292.568C235.987 292.626 236.295 292.655 236.506 292.655C237.579 292.655 238.341 292.408 238.791 291.915C239.241 291.422 239.465 290.577 239.465 289.38V288.063C239.023 288.578 238.533 288.955 237.996 289.195C237.46 289.434 236.843 289.554 236.146 289.554C234.79 289.554 233.665 289.104 232.773 288.205C231.888 287.298 231.446 286.152 231.446 284.766C231.446 283.373 231.903 282.22 232.817 281.306C233.731 280.384 234.862 279.924 236.212 279.924C236.77 279.924 237.314 280.029 237.844 280.239C238.381 280.442 238.921 280.754 239.465 281.175V280.391C239.465 280.239 239.513 280.127 239.607 280.054C239.708 279.982 239.864 279.945 240.075 279.945H241.718C242.008 279.945 242.226 280.011 242.371 280.141C242.516 280.265 242.588 280.453 242.588 280.707C242.588 280.997 242.498 281.2 242.316 281.316C242.135 281.432 241.794 281.491 241.294 281.491H241.098V289.423ZM248.704 287.345C248.769 287.105 248.845 286.953 248.932 286.888C249.02 286.823 249.168 286.79 249.379 286.79H251.631C251.725 286.79 251.802 286.812 251.86 286.855C251.925 286.899 251.958 286.953 251.958 287.018C251.958 287.04 251.95 287.08 251.936 287.138C251.921 287.196 251.9 287.251 251.871 287.301L249.063 293.145C249.005 293.261 248.94 293.344 248.867 293.395C248.802 293.446 248.718 293.471 248.617 293.471C248.559 293.471 248.512 293.468 248.475 293.46C248.446 293.46 248.421 293.457 248.399 293.449L247.681 293.188C247.572 293.145 247.489 293.09 247.431 293.025C247.38 292.96 247.355 292.887 247.355 292.807C247.355 292.778 247.355 292.746 247.355 292.71C247.362 292.673 247.376 292.615 247.398 292.535L248.704 287.345ZM247.866 282.198C247.866 281.632 248.062 281.168 248.454 280.805C248.853 280.442 249.368 280.261 249.999 280.261C250.645 280.261 251.167 280.442 251.566 280.805C251.965 281.16 252.164 281.625 252.164 282.198C252.164 282.771 251.965 283.239 251.566 283.602C251.167 283.957 250.645 284.135 249.999 284.135C249.36 284.135 248.845 283.957 248.454 283.602C248.062 283.246 247.866 282.778 247.866 282.198ZM171.792 305.858V305.597C171.792 304.589 171.625 303.816 171.292 303.279C170.958 302.742 170.486 302.474 169.877 302.474C168.963 302.474 168.248 303.029 167.733 304.139C167.225 305.249 166.972 306.812 166.972 308.829C166.972 311.129 167.265 312.859 167.853 314.02C168.448 315.173 169.329 315.75 170.497 315.75C170.824 315.75 171.205 315.681 171.64 315.543C172.075 315.405 172.354 315.336 172.478 315.336C172.616 315.336 172.732 315.391 172.826 315.499C172.92 315.601 172.967 315.732 172.967 315.891C172.967 316.247 172.721 316.544 172.227 316.783C171.734 317.03 171.121 317.153 170.388 317.153C168.814 317.153 167.603 316.457 166.754 315.064C165.905 313.671 165.481 311.673 165.481 309.068C165.481 306.537 165.872 304.578 166.656 303.192C167.439 301.807 168.542 301.114 169.964 301.114C171.103 301.114 171.937 301.531 172.467 302.365C172.996 303.192 173.261 304.52 173.261 306.348V310.788C173.421 310.991 173.526 311.147 173.577 311.256C173.635 311.364 173.664 311.466 173.664 311.56C173.664 311.8 173.573 312.014 173.392 312.202C173.21 312.384 173.004 312.474 172.771 312.474C172.648 312.474 172.521 312.438 172.391 312.366C172.267 312.286 172.119 312.152 171.944 311.963C171.647 312.101 171.364 312.199 171.096 312.257C170.827 312.315 170.555 312.344 170.28 312.344C169.561 312.344 168.963 312.064 168.484 311.506C168.013 310.94 167.777 310.218 167.777 309.34C167.777 308.259 168.103 307.407 168.756 306.783C169.409 306.152 170.294 305.836 171.411 305.836C171.455 305.836 171.516 305.84 171.596 305.847C171.683 305.855 171.749 305.858 171.792 305.858ZM171.792 310.722V307.11C171.734 307.102 171.676 307.099 171.618 307.099C171.56 307.092 171.477 307.088 171.368 307.088C170.7 307.088 170.171 307.284 169.779 307.676C169.395 308.067 169.202 308.6 169.202 309.275C169.202 309.819 169.333 310.24 169.594 310.537C169.862 310.835 170.236 310.984 170.715 310.984C170.838 310.984 170.991 310.962 171.172 310.918C171.353 310.875 171.56 310.809 171.792 310.722ZM180.334 318.786H182.946C183.222 318.786 183.428 318.851 183.566 318.982C183.704 319.112 183.773 319.308 183.773 319.569C183.773 319.852 183.704 320.052 183.566 320.168C183.436 320.284 183.2 320.342 182.859 320.342H178.06C177.77 320.342 177.549 320.277 177.396 320.146C177.251 320.015 177.179 319.823 177.179 319.569C177.179 319.279 177.269 319.076 177.451 318.96C177.639 318.844 177.984 318.786 178.484 318.786H178.691V307.491H178.484C177.984 307.491 177.639 307.432 177.451 307.316C177.269 307.2 177.179 306.997 177.179 306.707C177.179 306.453 177.251 306.265 177.396 306.141C177.549 306.011 177.77 305.945 178.06 305.945H179.714C179.932 305.945 180.088 305.982 180.182 306.054C180.283 306.127 180.334 306.239 180.334 306.391V307.447C180.828 306.939 181.372 306.558 181.967 306.304C182.569 306.051 183.214 305.924 183.903 305.924C185.362 305.924 186.58 306.417 187.56 307.403C188.539 308.39 189.029 309.627 189.029 311.114C189.029 312.543 188.564 313.718 187.636 314.64C186.707 315.561 185.521 316.022 184.078 316.022C183.309 316.022 182.601 315.888 181.956 315.619C181.31 315.343 180.77 314.952 180.334 314.444V318.786ZM183.708 314.422C184.716 314.422 185.543 314.107 186.189 313.475C186.834 312.837 187.157 312.014 187.157 311.005C187.157 310.019 186.831 309.206 186.178 308.568C185.532 307.922 184.709 307.599 183.708 307.599C182.706 307.599 181.887 307.919 181.248 308.557C180.61 309.195 180.291 310.011 180.291 311.005C180.291 312.006 180.606 312.826 181.237 313.465C181.876 314.103 182.699 314.422 183.708 314.422ZM196.526 314.749C197.643 314.749 198.557 314.397 199.268 313.693C199.987 312.982 200.346 312.079 200.346 310.984C200.346 309.888 199.987 308.985 199.268 308.274C198.55 307.556 197.636 307.197 196.526 307.197C195.416 307.197 194.502 307.556 193.784 308.274C193.073 308.985 192.718 309.888 192.718 310.984C192.718 312.086 193.073 312.989 193.784 313.693C194.495 314.397 195.409 314.749 196.526 314.749ZM202.239 310.984C202.239 312.536 201.71 313.806 200.65 314.792C199.591 315.779 198.217 316.272 196.526 316.272C194.843 316.272 193.472 315.779 192.413 314.792C191.354 313.806 190.824 312.536 190.824 310.984C190.824 309.431 191.354 308.165 192.413 307.186C193.472 306.199 194.843 305.706 196.526 305.706C198.209 305.706 199.58 306.199 200.64 307.186C201.706 308.172 202.239 309.438 202.239 310.984ZM205.863 314.466V307.491H205.656C205.163 307.491 204.822 307.432 204.633 307.316C204.452 307.2 204.361 306.997 204.361 306.707C204.361 306.439 204.437 306.246 204.59 306.13C204.742 306.007 204.989 305.945 205.33 305.945H205.841H206.886C207.081 305.945 207.234 305.985 207.343 306.065C207.451 306.145 207.506 306.254 207.506 306.391V307.131C208.035 306.638 208.558 306.275 209.073 306.043C209.595 305.804 210.136 305.684 210.694 305.684C211.79 305.684 212.649 306.025 213.273 306.707C213.904 307.389 214.22 308.332 214.22 309.536V314.466H214.731C215.094 314.466 215.355 314.527 215.515 314.651C215.674 314.767 215.754 314.955 215.754 315.217C215.754 315.499 215.667 315.703 215.493 315.826C215.326 315.942 215.025 316 214.59 316H212.185C211.721 316 211.423 315.946 211.293 315.837C211.162 315.728 211.097 315.521 211.097 315.217C211.097 314.934 211.173 314.738 211.325 314.629C211.478 314.52 211.764 314.466 212.185 314.466H212.566V309.939C212.566 309.09 212.374 308.444 211.989 308.002C211.605 307.552 211.046 307.327 210.313 307.327C209.573 307.327 208.92 307.578 208.355 308.078C207.789 308.579 207.506 309.199 207.506 309.939V314.466H207.887C208.322 314.466 208.616 314.52 208.768 314.629C208.92 314.738 208.997 314.934 208.997 315.217C208.997 315.521 208.931 315.728 208.801 315.837C208.67 315.946 208.351 316 207.843 316H205.863H205.275C204.978 316 204.753 315.938 204.6 315.815C204.455 315.684 204.383 315.485 204.383 315.217C204.383 314.926 204.466 314.73 204.633 314.629C204.807 314.52 205.141 314.466 205.634 314.466H205.863ZM222.991 307.556C222.04 307.556 221.264 307.85 220.662 308.437C220.06 309.025 219.759 309.787 219.759 310.722C219.759 311.644 220.06 312.402 220.662 312.997C221.264 313.584 222.04 313.878 222.991 313.878C223.934 313.878 224.706 313.584 225.308 312.997C225.918 312.402 226.222 311.644 226.222 310.722C226.222 309.801 225.918 309.043 225.308 308.448C224.706 307.853 223.934 307.556 222.991 307.556ZM227.713 315.423C227.713 316.439 227.662 317.157 227.561 317.578C227.459 318.006 227.285 318.379 227.039 318.699C226.632 319.235 226.063 319.642 225.33 319.917C224.597 320.2 223.734 320.342 222.74 320.342C221.913 320.342 221.307 320.262 220.923 320.102C220.546 319.943 220.357 319.689 220.357 319.341C220.357 319.116 220.448 318.916 220.629 318.742C220.818 318.575 221.039 318.492 221.293 318.492C221.489 318.492 221.79 318.517 222.196 318.568C222.602 318.626 222.911 318.655 223.121 318.655C224.195 318.655 224.956 318.408 225.406 317.915C225.856 317.422 226.081 316.577 226.081 315.38V314.063C225.638 314.578 225.149 314.955 224.612 315.195C224.075 315.434 223.458 315.554 222.762 315.554C221.405 315.554 220.281 315.104 219.389 314.205C218.504 313.298 218.061 312.152 218.061 310.766C218.061 309.373 218.518 308.22 219.432 307.306C220.346 306.384 221.478 305.924 222.827 305.924C223.386 305.924 223.93 306.029 224.46 306.239C224.996 306.442 225.537 306.754 226.081 307.175V306.391C226.081 306.239 226.128 306.127 226.222 306.054C226.324 305.982 226.48 305.945 226.69 305.945H228.333C228.624 305.945 228.841 306.011 228.986 306.141C229.131 306.265 229.204 306.453 229.204 306.707C229.204 306.997 229.113 307.2 228.932 307.316C228.751 307.432 228.41 307.491 227.909 307.491H227.713V315.423ZM235.319 313.345C235.385 313.105 235.461 312.953 235.548 312.888C235.635 312.823 235.784 312.79 235.994 312.79H238.247C238.341 312.79 238.417 312.812 238.475 312.855C238.54 312.899 238.573 312.953 238.573 313.018C238.573 313.04 238.566 313.08 238.551 313.138C238.537 313.196 238.515 313.251 238.486 313.301L235.679 319.145C235.621 319.261 235.555 319.344 235.483 319.395C235.417 319.446 235.334 319.471 235.232 319.471C235.174 319.471 235.127 319.468 235.091 319.46C235.062 319.46 235.037 319.457 235.015 319.449L234.297 319.188C234.188 319.145 234.104 319.09 234.046 319.025C233.996 318.96 233.97 318.887 233.97 318.807C233.97 318.778 233.97 318.746 233.97 318.71C233.977 318.673 233.992 318.615 234.014 318.535L235.319 313.345ZM234.482 308.198C234.482 307.632 234.677 307.168 235.069 306.805C235.468 306.442 235.983 306.261 236.614 306.261C237.26 306.261 237.782 306.442 238.181 306.805C238.58 307.16 238.78 307.625 238.78 308.198C238.78 308.771 238.58 309.239 238.181 309.602C237.782 309.957 237.26 310.135 236.614 310.135C235.976 310.135 235.461 309.957 235.069 309.602C234.677 309.246 234.482 308.778 234.482 308.198Z" fill="#E8DCB7"/>
<path d="M168.201 258.211H170.541L171.52 255.469H169.181L168.201 258.211ZM165.97 264.403C165.912 264.562 165.836 264.678 165.742 264.751C165.655 264.831 165.546 264.871 165.415 264.871C165.176 264.871 164.98 264.809 164.828 264.686C164.683 264.562 164.61 264.399 164.61 264.196C164.61 264.167 164.617 264.131 164.632 264.087C164.646 264.044 164.661 264 164.676 263.956L166.286 259.473H163.838C163.613 259.473 163.439 259.422 163.315 259.321C163.199 259.212 163.141 259.056 163.141 258.853C163.141 258.65 163.203 258.494 163.326 258.385C163.45 258.269 163.62 258.211 163.838 258.211H166.732L167.712 255.469H164.817C164.592 255.469 164.418 255.414 164.295 255.306C164.179 255.197 164.121 255.041 164.121 254.838C164.121 254.634 164.182 254.475 164.306 254.359C164.436 254.235 164.607 254.174 164.817 254.174H168.158L169.92 249.244C169.979 249.085 170.051 248.969 170.138 248.896C170.232 248.816 170.345 248.777 170.475 248.777C170.708 248.777 170.896 248.838 171.041 248.961C171.186 249.085 171.259 249.248 171.259 249.451C171.259 249.509 171.255 249.556 171.248 249.593C171.241 249.629 171.23 249.662 171.215 249.691L169.627 254.174H171.966L173.751 249.244C173.802 249.092 173.874 248.976 173.968 248.896C174.07 248.816 174.182 248.777 174.306 248.777C174.531 248.777 174.719 248.842 174.872 248.972C175.031 249.096 175.111 249.248 175.111 249.429C175.111 249.473 175.104 249.516 175.089 249.56C175.082 249.604 175.068 249.647 175.046 249.691L173.435 254.174H175.71C175.927 254.174 176.098 254.232 176.221 254.348C176.344 254.464 176.406 254.62 176.406 254.816C176.406 255.019 176.344 255.179 176.221 255.295C176.098 255.411 175.927 255.469 175.71 255.469H172.989L172.01 258.211H174.708C174.926 258.211 175.097 258.269 175.22 258.385C175.343 258.494 175.405 258.65 175.405 258.853C175.405 259.056 175.343 259.212 175.22 259.321C175.104 259.422 174.933 259.473 174.708 259.473H171.564L169.801 264.403C169.75 264.562 169.677 264.678 169.583 264.751C169.489 264.831 169.376 264.871 169.246 264.871C169.014 264.871 168.821 264.809 168.669 264.686C168.524 264.562 168.451 264.399 168.451 264.196C168.451 264.167 168.455 264.131 168.462 264.087C168.477 264.044 168.495 264 168.517 263.956L170.095 259.473H167.755L165.97 264.403ZM180.541 252.324C180.447 252.338 180.374 252.349 180.323 252.357C180.28 252.364 180.24 252.367 180.204 252.367C179.979 252.367 179.794 252.306 179.649 252.182C179.511 252.052 179.442 251.881 179.442 251.671C179.442 251.497 179.504 251.345 179.627 251.214C179.75 251.083 179.928 250.985 180.16 250.92L183.392 250.05C183.472 250.028 183.548 250.013 183.621 250.006C183.7 249.992 183.78 249.984 183.86 249.984C183.998 249.984 184.107 250.05 184.186 250.18C184.266 250.304 184.306 250.474 184.306 250.692V262.466H186.047C186.693 262.466 187.103 262.52 187.277 262.629C187.451 262.73 187.538 262.926 187.538 263.217C187.538 263.478 187.465 263.674 187.32 263.804C187.175 263.935 186.958 264 186.667 264H180.16C179.87 264 179.652 263.935 179.507 263.804C179.362 263.674 179.29 263.478 179.29 263.217C179.29 262.926 179.377 262.73 179.551 262.629C179.725 262.52 180.135 262.466 180.78 262.466H182.587V251.834L180.541 252.324ZM196.526 251.475C195.692 251.475 195.043 251.968 194.578 252.955C194.114 253.942 193.882 255.335 193.882 257.134C193.882 258.94 194.114 260.34 194.578 261.334C195.043 262.321 195.692 262.814 196.526 262.814C197.368 262.814 198.021 262.321 198.485 261.334C198.949 260.34 199.181 258.94 199.181 257.134C199.181 255.335 198.949 253.942 198.485 252.955C198.021 251.968 197.368 251.475 196.526 251.475ZM196.526 264.359C195.162 264.359 194.078 263.717 193.273 262.433C192.475 261.142 192.076 259.375 192.076 257.134C192.076 254.899 192.475 253.14 193.273 251.856C194.078 250.565 195.162 249.919 196.526 249.919C197.89 249.919 198.975 250.565 199.78 251.856C200.585 253.147 200.988 254.907 200.988 257.134C200.988 259.361 200.585 261.124 199.78 262.422C198.975 263.713 197.89 264.359 196.526 264.359Z" fill="#F2BE4F"/>
<path d="M208.321 261.345C208.386 261.105 208.463 260.953 208.55 260.888C208.637 260.823 208.785 260.79 208.996 260.79H211.248C211.343 260.79 211.419 260.812 211.477 260.855C211.542 260.899 211.575 260.953 211.575 261.018C211.575 261.04 211.568 261.08 211.553 261.138C211.539 261.196 211.517 261.251 211.488 261.301L208.68 267.145C208.622 267.261 208.557 267.344 208.484 267.395C208.419 267.446 208.336 267.471 208.234 267.471C208.176 267.471 208.129 267.468 208.093 267.46C208.064 267.46 208.038 267.457 208.016 267.449L207.298 267.188C207.189 267.145 207.106 267.09 207.048 267.025C206.997 266.96 206.972 266.887 206.972 266.807C206.972 266.778 206.972 266.746 206.972 266.71C206.979 266.673 206.994 266.615 207.015 266.535L208.321 261.345ZM207.483 256.198C207.483 255.632 207.679 255.168 208.071 254.805C208.47 254.442 208.985 254.261 209.616 254.261C210.262 254.261 210.784 254.442 211.183 254.805C211.582 255.16 211.782 255.625 211.782 256.198C211.782 256.771 211.582 257.239 211.183 257.602C210.784 257.957 210.262 258.135 209.616 258.135C208.978 258.135 208.463 257.957 208.071 257.602C207.679 257.246 207.483 256.778 207.483 256.198Z" fill="#E8DCB7"/>
<path d="M115.218 224.811C115.218 224.028 115.287 223.535 115.425 223.331C115.57 223.128 115.875 223.027 116.339 223.027C116.789 223.027 117.086 223.114 117.231 223.288C117.376 223.455 117.449 223.857 117.449 224.496C117.449 225.12 117.38 225.508 117.242 225.66C117.112 225.805 116.811 225.878 116.339 225.878C115.875 225.878 115.57 225.809 115.425 225.671C115.287 225.533 115.218 225.247 115.218 224.811ZM117.231 236.466H120.724C121.007 236.466 121.214 236.527 121.345 236.651C121.482 236.767 121.551 236.955 121.551 237.217C121.551 237.514 121.486 237.721 121.355 237.837C121.232 237.946 121 238 120.659 238H112.215C111.925 238 111.707 237.935 111.562 237.804C111.417 237.674 111.344 237.478 111.344 237.217C111.344 236.963 111.42 236.774 111.573 236.651C111.725 236.527 111.954 236.466 112.258 236.466H115.577V229.491H113.455C113.158 229.491 112.929 229.425 112.77 229.295C112.617 229.157 112.541 228.961 112.541 228.707C112.541 228.453 112.614 228.265 112.759 228.141C112.904 228.011 113.122 227.945 113.412 227.945H116.6C116.796 227.945 116.948 227.985 117.057 228.065C117.173 228.145 117.231 228.254 117.231 228.391V236.466ZM125.556 236.466V229.491H125.349C124.856 229.491 124.515 229.432 124.326 229.316C124.145 229.2 124.054 228.997 124.054 228.707C124.054 228.439 124.13 228.246 124.283 228.13C124.435 228.007 124.682 227.945 125.023 227.945H125.534H126.579C126.775 227.945 126.927 227.985 127.036 228.065C127.145 228.145 127.199 228.254 127.199 228.391V229.131C127.729 228.638 128.251 228.275 128.766 228.043C129.288 227.804 129.829 227.684 130.387 227.684C131.483 227.684 132.342 228.025 132.966 228.707C133.597 229.389 133.913 230.332 133.913 231.536V236.466H134.424C134.787 236.466 135.048 236.527 135.208 236.651C135.367 236.767 135.447 236.955 135.447 237.217C135.447 237.499 135.36 237.703 135.186 237.826C135.019 237.942 134.718 238 134.283 238H131.878C131.414 238 131.116 237.946 130.986 237.837C130.855 237.728 130.79 237.521 130.79 237.217C130.79 236.934 130.866 236.738 131.018 236.629C131.171 236.52 131.457 236.466 131.878 236.466H132.259V231.939C132.259 231.09 132.067 230.444 131.682 230.002C131.298 229.552 130.739 229.327 130.006 229.327C129.266 229.327 128.614 229.578 128.048 230.078C127.482 230.579 127.199 231.199 127.199 231.939V236.466H127.58C128.015 236.466 128.309 236.52 128.461 236.629C128.614 236.738 128.69 236.934 128.69 237.217C128.69 237.521 128.624 237.728 128.494 237.837C128.363 237.946 128.044 238 127.536 238H125.556H124.968C124.671 238 124.446 237.938 124.294 237.815C124.148 237.684 124.076 237.485 124.076 237.217C124.076 236.926 124.159 236.73 124.326 236.629C124.5 236.52 124.834 236.466 125.327 236.466H125.556ZM141.987 224.811C141.987 224.028 142.056 223.535 142.194 223.331C142.339 223.128 142.644 223.027 143.108 223.027C143.558 223.027 143.855 223.114 144 223.288C144.145 223.455 144.218 223.857 144.218 224.496C144.218 225.12 144.149 225.508 144.011 225.66C143.881 225.805 143.58 225.878 143.108 225.878C142.644 225.878 142.339 225.809 142.194 225.671C142.056 225.533 141.987 225.247 141.987 224.811ZM144 236.466H147.493C147.776 236.466 147.983 236.527 148.114 236.651C148.251 236.767 148.32 236.955 148.32 237.217C148.32 237.514 148.255 237.721 148.124 237.837C148.001 237.946 147.769 238 147.428 238H138.984C138.694 238 138.476 237.935 138.331 237.804C138.186 237.674 138.113 237.478 138.113 237.217C138.113 236.963 138.189 236.774 138.342 236.651C138.494 236.527 138.723 236.466 139.027 236.466H142.346V229.491H140.224C139.927 229.491 139.698 229.425 139.539 229.295C139.386 229.157 139.31 228.961 139.31 228.707C139.31 228.453 139.383 228.265 139.528 228.141C139.673 228.011 139.891 227.945 140.181 227.945H143.369C143.565 227.945 143.717 227.985 143.826 228.065C143.942 228.145 144 228.254 144 228.391V236.466ZM159.343 228.555C159.699 228.555 159.956 228.616 160.116 228.74C160.283 228.863 160.366 229.059 160.366 229.327C160.366 229.581 160.29 229.773 160.138 229.904C159.985 230.027 159.757 230.089 159.452 230.089H155.045V233.723C155.045 234.913 155.198 235.697 155.502 236.074C155.814 236.451 156.344 236.64 157.091 236.64C157.751 236.64 158.542 236.448 159.463 236.063C160.384 235.679 160.954 235.486 161.172 235.486C161.375 235.486 161.545 235.559 161.683 235.704C161.828 235.849 161.901 236.027 161.901 236.237C161.901 236.477 161.81 236.687 161.629 236.868C161.455 237.042 161.153 237.213 160.725 237.38C160.015 237.663 159.372 237.869 158.799 238C158.234 238.131 157.7 238.196 157.2 238.196C156.351 238.196 155.636 238.062 155.056 237.793C154.483 237.518 154.055 237.111 153.772 236.574C153.627 236.321 153.522 236.02 153.456 235.671C153.398 235.323 153.369 234.786 153.369 234.061V233.723V230.089H151.52C151.215 230.089 150.994 230.031 150.856 229.915C150.718 229.792 150.649 229.596 150.649 229.327C150.649 229.03 150.743 228.827 150.932 228.718C151.121 228.609 151.523 228.555 152.14 228.555H153.369V226.324V225.747C153.369 225.435 153.435 225.207 153.565 225.062C153.703 224.909 153.914 224.833 154.196 224.833C154.516 224.833 154.737 224.924 154.86 225.105C154.984 225.287 155.045 225.7 155.045 226.346V228.555H159.343ZM168.756 224.811C168.756 224.028 168.825 223.535 168.963 223.331C169.108 223.128 169.413 223.027 169.877 223.027C170.327 223.027 170.624 223.114 170.769 223.288C170.914 223.455 170.987 223.857 170.987 224.496C170.987 225.12 170.918 225.508 170.78 225.66C170.65 225.805 170.348 225.878 169.877 225.878C169.413 225.878 169.108 225.809 168.963 225.671C168.825 225.533 168.756 225.247 168.756 224.811ZM170.769 236.466H174.262C174.545 236.466 174.752 236.527 174.883 236.651C175.02 236.767 175.089 236.955 175.089 237.217C175.089 237.514 175.024 237.721 174.893 237.837C174.77 237.946 174.538 238 174.197 238H165.753C165.463 238 165.245 237.935 165.1 237.804C164.955 237.674 164.882 237.478 164.882 237.217C164.882 236.963 164.958 236.774 165.111 236.651C165.263 236.527 165.492 236.466 165.796 236.466H169.115V229.491H166.993C166.696 229.491 166.467 229.425 166.308 229.295C166.155 229.157 166.079 228.961 166.079 228.707C166.079 228.453 166.152 228.265 166.297 228.141C166.442 228.011 166.66 227.945 166.95 227.945H170.138C170.334 227.945 170.486 227.985 170.595 228.065C170.711 228.145 170.769 228.254 170.769 228.391V236.466ZM185.557 233.19C185.158 233.06 184.77 232.965 184.393 232.907C184.023 232.842 183.653 232.809 183.283 232.809C182.166 232.809 181.285 232.998 180.639 233.375C179.993 233.753 179.67 234.26 179.67 234.899C179.67 235.392 179.87 235.798 180.269 236.117C180.675 236.437 181.19 236.596 181.814 236.596C182.736 236.596 183.588 236.357 184.371 235.878C185.162 235.392 185.557 234.888 185.557 234.366V233.19ZM185.645 236.618C185.05 237.155 184.4 237.565 183.697 237.848C183 238.131 182.282 238.272 181.542 238.272C180.461 238.272 179.587 237.971 178.92 237.369C178.259 236.767 177.929 235.983 177.929 235.018C177.929 233.872 178.368 232.984 179.246 232.352C180.131 231.721 181.372 231.406 182.968 231.406C183.388 231.406 183.813 231.435 184.241 231.493C184.669 231.544 185.108 231.627 185.557 231.743V231.667C185.557 230.833 185.358 230.216 184.959 229.817C184.56 229.418 183.94 229.218 183.098 229.218C182.532 229.218 181.901 229.371 181.205 229.676C180.508 229.98 180.048 230.133 179.823 230.133C179.612 230.133 179.438 230.049 179.301 229.882C179.163 229.708 179.094 229.487 179.094 229.218C179.094 228.79 179.493 228.428 180.291 228.13C181.096 227.833 182.122 227.684 183.37 227.684C184.647 227.684 185.612 228.011 186.265 228.664C186.918 229.309 187.244 230.267 187.244 231.536V236.466H187.777C188.292 236.466 188.637 236.52 188.811 236.629C188.985 236.738 189.072 236.934 189.072 237.217C189.072 237.478 189 237.674 188.855 237.804C188.71 237.935 188.492 238 188.202 238H186.493C186.29 238 186.123 237.938 185.993 237.815C185.862 237.692 185.775 237.514 185.732 237.282L185.645 236.618ZM195.797 225.323H193.947C193.244 225.323 192.801 225.268 192.62 225.16C192.446 225.044 192.359 224.837 192.359 224.539C192.359 224.278 192.431 224.082 192.576 223.952C192.729 223.821 192.946 223.756 193.229 223.756H196.82C197.016 223.756 197.168 223.796 197.277 223.876C197.386 223.955 197.44 224.064 197.44 224.202V236.466H200.857C201.133 236.466 201.332 236.527 201.456 236.651C201.586 236.767 201.652 236.955 201.652 237.217C201.652 237.514 201.59 237.721 201.467 237.837C201.343 237.946 201.111 238 200.77 238H192.739C192.456 238 192.239 237.935 192.087 237.804C191.941 237.674 191.869 237.478 191.869 237.217C191.869 236.963 191.945 236.774 192.097 236.651C192.25 236.527 192.478 236.466 192.783 236.466H195.797V225.323ZM226.647 236.444C226.944 236.444 227.169 236.509 227.321 236.64C227.481 236.77 227.561 236.963 227.561 237.217C227.561 237.478 227.485 237.674 227.332 237.804C227.187 237.935 226.973 238 226.69 238H219.574C219.276 238 219.048 237.935 218.888 237.804C218.736 237.674 218.66 237.478 218.66 237.217C218.66 236.963 218.732 236.77 218.877 236.64C219.03 236.509 219.247 236.444 219.53 236.444H221.38V229.795H219.595C219.298 229.795 219.066 229.726 218.899 229.588C218.739 229.451 218.66 229.255 218.66 229.001C218.66 228.74 218.736 228.544 218.888 228.413C219.04 228.283 219.262 228.217 219.552 228.217H221.271V227.477C221.271 226.164 221.645 225.214 222.392 224.626C223.139 224.032 224.347 223.734 226.016 223.734C226.828 223.734 227.427 223.825 227.811 224.006C228.203 224.187 228.399 224.47 228.399 224.855C228.399 225.08 228.315 225.265 228.148 225.41C227.982 225.555 227.768 225.628 227.506 225.628C227.376 225.628 227.06 225.584 226.56 225.497C226.066 225.41 225.642 225.366 225.287 225.366C224.467 225.366 223.879 225.54 223.524 225.889C223.168 226.23 222.991 226.799 222.991 227.597V228.217H226.843C227.14 228.217 227.365 228.283 227.517 228.413C227.677 228.544 227.757 228.74 227.757 229.001C227.757 229.247 227.677 229.443 227.517 229.588C227.358 229.726 227.14 229.795 226.864 229.795H223.099V236.444H226.647ZM236.68 236.749C237.797 236.749 238.711 236.397 239.422 235.693C240.14 234.982 240.499 234.079 240.499 232.984C240.499 231.888 240.14 230.985 239.422 230.274C238.704 229.556 237.79 229.197 236.68 229.197C235.57 229.197 234.656 229.556 233.938 230.274C233.227 230.985 232.871 231.888 232.871 232.984C232.871 234.086 233.227 234.989 233.938 235.693C234.648 236.397 235.563 236.749 236.68 236.749ZM242.393 232.984C242.393 234.536 241.863 235.806 240.804 236.792C239.745 237.779 238.37 238.272 236.68 238.272C234.997 238.272 233.626 237.779 232.566 236.792C231.507 235.806 230.978 234.536 230.978 232.984C230.978 231.431 231.507 230.165 232.566 229.186C233.626 228.199 234.997 227.706 236.68 227.706C238.363 227.706 239.734 228.199 240.793 229.186C241.859 230.172 242.393 231.438 242.393 232.984ZM248.998 236.466H252.61C252.893 236.466 253.1 236.527 253.231 236.651C253.369 236.767 253.438 236.955 253.438 237.217C253.438 237.514 253.372 237.721 253.242 237.837C253.118 237.946 252.886 238 252.545 238H245.429C245.146 238 244.932 237.935 244.787 237.804C244.641 237.674 244.569 237.478 244.569 237.217C244.569 236.963 244.641 236.774 244.787 236.651C244.939 236.527 245.171 236.466 245.483 236.466H247.376V229.491H246.636C245.933 229.491 245.494 229.436 245.32 229.327C245.146 229.211 245.059 229.004 245.059 228.707C245.059 228.453 245.128 228.265 245.265 228.141C245.41 228.011 245.628 227.945 245.918 227.945H248.399C248.595 227.945 248.744 227.985 248.845 228.065C248.947 228.138 248.998 228.246 248.998 228.391V230.241C249.687 229.378 250.405 228.736 251.152 228.315C251.9 227.895 252.705 227.684 253.568 227.684C254.214 227.684 254.736 227.815 255.135 228.076C255.534 228.337 255.734 228.674 255.734 229.088C255.734 229.356 255.632 229.596 255.429 229.806C255.233 230.009 255.015 230.111 254.776 230.111C254.609 230.111 254.326 230.002 253.927 229.784C253.535 229.559 253.184 229.447 252.872 229.447C252.306 229.447 251.707 229.65 251.076 230.056C250.452 230.455 249.759 231.09 248.998 231.961V236.466ZM259.771 233.451C259.829 234.496 260.181 235.305 260.826 235.878C261.479 236.444 262.368 236.727 263.492 236.727C264.341 236.727 265.266 236.502 266.267 236.052C267.268 235.595 267.874 235.367 268.084 235.367C268.302 235.367 268.483 235.436 268.628 235.573C268.773 235.711 268.846 235.882 268.846 236.085C268.846 236.295 268.77 236.487 268.617 236.662C268.465 236.836 268.222 237.006 267.888 237.173C267.163 237.528 266.412 237.801 265.636 237.989C264.867 238.178 264.102 238.272 263.34 238.272C261.686 238.272 260.362 237.797 259.368 236.847C258.374 235.889 257.877 234.623 257.877 233.049C257.877 231.446 258.403 230.147 259.455 229.153C260.507 228.159 261.878 227.662 263.568 227.662C265.099 227.662 266.369 228.127 267.377 229.055C268.385 229.984 268.89 231.108 268.89 232.429C268.89 232.835 268.802 233.107 268.628 233.245C268.462 233.383 268.001 233.451 267.246 233.451H267.083H259.771ZM259.825 232.026H266.909C266.8 231.163 266.438 230.47 265.821 229.948C265.212 229.418 264.461 229.153 263.568 229.153C262.604 229.153 261.791 229.407 261.131 229.915C260.471 230.423 260.035 231.126 259.825 232.026ZM271.849 229.491C271.371 229.491 271.04 229.432 270.859 229.316C270.685 229.2 270.598 228.997 270.598 228.707C270.598 228.453 270.67 228.265 270.816 228.141C270.961 228.011 271.178 227.945 271.468 227.945H274.515C274.929 227.945 275.205 228.003 275.342 228.119C275.48 228.228 275.549 228.424 275.549 228.707C275.549 228.997 275.458 229.2 275.277 229.316C275.096 229.432 274.762 229.491 274.276 229.491H273.873L276.703 236.531L279.847 229.491H279.194C278.636 229.491 278.259 229.436 278.063 229.327C277.867 229.211 277.769 229.004 277.769 228.707C277.769 228.424 277.838 228.228 277.976 228.119C278.114 228.003 278.389 227.945 278.803 227.945H282.165C282.455 227.945 282.673 228.011 282.818 228.141C282.963 228.265 283.036 228.453 283.036 228.707C283.036 228.997 282.945 229.2 282.764 229.316C282.59 229.432 282.263 229.491 281.784 229.491H281.588L277.997 237.423C277.816 237.822 277.635 238.08 277.453 238.196C277.279 238.319 277.022 238.381 276.681 238.381C276.369 238.381 276.126 238.323 275.952 238.207C275.785 238.091 275.611 237.83 275.429 237.423L271.849 229.491ZM286.54 233.451C286.598 234.496 286.95 235.305 287.595 235.878C288.248 236.444 289.137 236.727 290.261 236.727C291.11 236.727 292.035 236.502 293.036 236.052C294.037 235.595 294.643 235.367 294.853 235.367C295.071 235.367 295.252 235.436 295.397 235.573C295.542 235.711 295.615 235.882 295.615 236.085C295.615 236.295 295.539 236.487 295.386 236.662C295.234 236.836 294.991 237.006 294.657 237.173C293.932 237.528 293.181 237.801 292.405 237.989C291.636 238.178 290.871 238.272 290.109 238.272C288.455 238.272 287.131 237.797 286.137 236.847C285.143 235.889 284.646 234.623 284.646 233.049C284.646 231.446 285.172 230.147 286.224 229.153C287.276 228.159 288.647 227.662 290.337 227.662C291.868 227.662 293.138 228.127 294.146 229.055C295.154 229.984 295.658 231.108 295.658 232.429C295.658 232.835 295.571 233.107 295.397 233.245C295.23 233.383 294.77 233.451 294.015 233.451H293.852H286.54ZM286.594 232.026H293.678C293.569 231.163 293.206 230.47 292.59 229.948C291.98 229.418 291.23 229.153 290.337 229.153C289.373 229.153 288.56 229.407 287.9 229.915C287.24 230.423 286.804 231.126 286.594 232.026ZM302.536 236.466H306.148C306.431 236.466 306.638 236.527 306.769 236.651C306.907 236.767 306.975 236.955 306.975 237.217C306.975 237.514 306.91 237.721 306.78 237.837C306.656 237.946 306.424 238 306.083 238H298.967C298.684 238 298.47 237.935 298.325 237.804C298.179 237.674 298.107 237.478 298.107 237.217C298.107 236.963 298.179 236.774 298.325 236.651C298.477 236.527 298.709 236.466 299.021 236.466H300.914V229.491H300.174C299.471 229.491 299.032 229.436 298.858 229.327C298.684 229.211 298.597 229.004 298.597 228.707C298.597 228.453 298.665 228.265 298.803 228.141C298.948 228.011 299.166 227.945 299.456 227.945H301.937C302.133 227.945 302.282 227.985 302.383 228.065C302.485 228.138 302.536 228.246 302.536 228.391V230.241C303.225 229.378 303.943 228.736 304.69 228.315C305.438 227.895 306.243 227.684 307.106 227.684C307.752 227.684 308.274 227.815 308.673 228.076C309.072 228.337 309.272 228.674 309.272 229.088C309.272 229.356 309.17 229.596 308.967 229.806C308.771 230.009 308.553 230.111 308.314 230.111C308.147 230.111 307.864 230.002 307.465 229.784C307.073 229.559 306.722 229.447 306.41 229.447C305.844 229.447 305.245 229.65 304.614 230.056C303.99 230.455 303.297 231.09 302.536 231.961V236.466ZM330.959 236.487C331.982 236.487 332.812 236.165 333.451 235.519C334.089 234.873 334.408 234.035 334.408 233.005C334.408 231.997 334.082 231.166 333.429 230.513C332.783 229.86 331.96 229.534 330.959 229.534C329.95 229.534 329.123 229.86 328.478 230.513C327.839 231.159 327.52 231.99 327.52 233.005C327.52 234.021 327.839 234.855 328.478 235.508C329.123 236.161 329.95 236.487 330.959 236.487ZM327.564 229.512C327.97 229.004 328.478 228.616 329.087 228.348C329.696 228.08 330.386 227.945 331.155 227.945C332.613 227.945 333.828 228.439 334.8 229.425C335.772 230.405 336.258 231.62 336.258 233.071C336.258 234.5 335.758 235.711 334.756 236.705C333.763 237.699 332.547 238.196 331.111 238.196C330.349 238.196 329.686 238.062 329.12 237.793C328.554 237.525 328.09 237.119 327.727 236.574V237.445C327.727 237.641 327.691 237.782 327.618 237.869C327.553 237.956 327.44 238 327.281 238H325.289C325.006 238 324.796 237.935 324.658 237.804C324.52 237.674 324.451 237.478 324.451 237.217C324.451 236.926 324.535 236.73 324.702 236.629C324.869 236.52 325.199 236.466 325.692 236.466H325.921V225.323H325.714C325.22 225.323 324.883 225.265 324.702 225.149C324.52 225.033 324.43 224.83 324.43 224.539C324.43 224.278 324.502 224.082 324.647 223.952C324.792 223.821 325.006 223.756 325.289 223.756H326.943C327.161 223.756 327.317 223.792 327.411 223.865C327.513 223.937 327.564 224.05 327.564 224.202V229.512ZM340.078 233.451C340.136 234.496 340.487 235.305 341.133 235.878C341.786 236.444 342.675 236.727 343.799 236.727C344.648 236.727 345.573 236.502 346.574 236.052C347.575 235.595 348.181 235.367 348.391 235.367C348.609 235.367 348.79 235.436 348.935 235.573C349.08 235.711 349.153 235.882 349.153 236.085C349.153 236.295 349.077 236.487 348.924 236.662C348.772 236.836 348.529 237.006 348.195 237.173C347.47 237.528 346.719 237.801 345.943 237.989C345.174 238.178 344.408 238.272 343.647 238.272C341.993 238.272 340.669 237.797 339.675 236.847C338.681 235.889 338.184 234.623 338.184 233.049C338.184 231.446 338.71 230.147 339.762 229.153C340.814 228.159 342.185 227.662 343.875 227.662C345.406 227.662 346.676 228.127 347.684 229.055C348.692 229.984 349.196 231.108 349.196 232.429C349.196 232.835 349.109 233.107 348.935 233.245C348.768 233.383 348.308 233.451 347.553 233.451H347.39H340.078ZM340.132 232.026H347.216C347.107 231.163 346.744 230.47 346.128 229.948C345.518 229.418 344.768 229.153 343.875 229.153C342.91 229.153 342.098 229.407 341.438 229.915C340.778 230.423 340.342 231.126 340.132 232.026ZM356.835 229.556C355.885 229.556 355.109 229.85 354.507 230.437C353.905 231.025 353.604 231.787 353.604 232.722C353.604 233.644 353.905 234.402 354.507 234.997C355.109 235.584 355.885 235.878 356.835 235.878C357.778 235.878 358.551 235.584 359.153 234.997C359.763 234.402 360.067 233.644 360.067 232.722C360.067 231.801 359.763 231.043 359.153 230.448C358.551 229.853 357.778 229.556 356.835 229.556ZM361.558 237.423C361.558 238.439 361.507 239.157 361.406 239.578C361.304 240.006 361.13 240.379 360.883 240.699C360.477 241.235 359.908 241.642 359.175 241.917C358.442 242.2 357.579 242.342 356.585 242.342C355.758 242.342 355.152 242.262 354.768 242.102C354.391 241.943 354.202 241.689 354.202 241.341C354.202 241.116 354.293 240.916 354.474 240.742C354.663 240.575 354.884 240.492 355.138 240.492C355.334 240.492 355.635 240.517 356.041 240.568C356.447 240.626 356.756 240.655 356.966 240.655C358.04 240.655 358.801 240.408 359.251 239.915C359.701 239.422 359.926 238.577 359.926 237.38V236.063C359.483 236.578 358.994 236.955 358.457 237.195C357.92 237.434 357.303 237.554 356.607 237.554C355.25 237.554 354.126 237.104 353.234 236.205C352.348 235.298 351.906 234.152 351.906 232.766C351.906 231.373 352.363 230.22 353.277 229.306C354.191 228.384 355.323 227.924 356.672 227.924C357.231 227.924 357.775 228.029 358.304 228.239C358.841 228.442 359.382 228.754 359.926 229.175V228.391C359.926 228.239 359.973 228.127 360.067 228.054C360.169 227.982 360.325 227.945 360.535 227.945H362.178C362.468 227.945 362.686 228.011 362.831 228.141C362.976 228.265 363.049 228.453 363.049 228.707C363.049 228.997 362.958 229.2 362.777 229.316C362.595 229.432 362.254 229.491 361.754 229.491H361.558V237.423ZM369.523 224.811C369.523 224.028 369.592 223.535 369.73 223.331C369.875 223.128 370.18 223.027 370.644 223.027C371.094 223.027 371.391 223.114 371.537 223.288C371.682 223.455 371.754 223.857 371.754 224.496C371.754 225.12 371.685 225.508 371.547 225.66C371.417 225.805 371.116 225.878 370.644 225.878C370.18 225.878 369.875 225.809 369.73 225.671C369.592 225.533 369.523 225.247 369.523 224.811ZM371.537 236.466H375.03C375.313 236.466 375.519 236.527 375.65 236.651C375.788 236.767 375.857 236.955 375.857 237.217C375.857 237.514 375.791 237.721 375.661 237.837C375.537 237.946 375.305 238 374.964 238H366.52C366.23 238 366.012 237.935 365.867 237.804C365.722 237.674 365.65 237.478 365.65 237.217C365.65 236.963 365.726 236.774 365.878 236.651C366.03 236.527 366.259 236.466 366.564 236.466H369.883V229.491H367.761C367.463 229.491 367.235 229.425 367.075 229.295C366.923 229.157 366.847 228.961 366.847 228.707C366.847 228.453 366.919 228.265 367.064 228.141C367.209 228.011 367.427 227.945 367.717 227.945H370.905C371.101 227.945 371.254 227.985 371.362 228.065C371.479 228.145 371.537 228.254 371.537 228.391V236.466ZM379.861 236.466V229.491H379.654C379.161 229.491 378.82 229.432 378.631 229.316C378.45 229.2 378.359 228.997 378.359 228.707C378.359 228.439 378.436 228.246 378.588 228.13C378.74 228.007 378.987 227.945 379.328 227.945H379.839H380.884C381.08 227.945 381.232 227.985 381.341 228.065C381.45 228.145 381.504 228.254 381.504 228.391V229.131C382.034 228.638 382.556 228.275 383.071 228.043C383.593 227.804 384.134 227.684 384.693 227.684C385.788 227.684 386.648 228.025 387.271 228.707C387.903 229.389 388.218 230.332 388.218 231.536V236.466H388.73C389.092 236.466 389.354 236.527 389.513 236.651C389.673 236.767 389.753 236.955 389.753 237.217C389.753 237.499 389.665 237.703 389.491 237.826C389.325 237.942 389.023 238 388.588 238H386.183C385.719 238 385.422 237.946 385.291 237.837C385.16 237.728 385.095 237.521 385.095 237.217C385.095 236.934 385.171 236.738 385.324 236.629C385.476 236.52 385.763 236.466 386.183 236.466H386.564V231.939C386.564 231.09 386.372 230.444 385.987 230.002C385.603 229.552 385.044 229.327 384.312 229.327C383.572 229.327 382.919 229.578 382.353 230.078C381.787 230.579 381.504 231.199 381.504 231.939V236.466H381.885C382.32 236.466 382.614 236.52 382.766 236.629C382.919 236.738 382.995 236.934 382.995 237.217C382.995 237.521 382.93 237.728 382.799 237.837C382.669 237.946 382.349 238 381.842 238H379.861H379.273C378.976 238 378.751 237.938 378.599 237.815C378.454 237.684 378.381 237.485 378.381 237.217C378.381 236.926 378.465 236.73 378.631 236.629C378.806 236.52 379.139 236.466 379.633 236.466H379.861Z" fill="#E95741"/>
<rect x="270" y="287" width="3" height="238" transform="rotate(-90 270 287)" fill="white"/>
<rect x="270" y="312" width="3" height="238" transform="rotate(-90 270 312)" fill="white"/>
<rect x="505" y="236" width="2.99999" height="51" fill="white"/>
<rect x="505" y="309" width="3" height="21" fill="white"/>
<rect x="505" y="239" width="2.99999" height="138" transform="rotate(-90 505 239)" fill="white"/>
<path d="M639.455 244L634 244L639.455 239.052L639.455 235.948L634 231L639.455 231L646 236.586L646 238.565L639.455 244Z" fill="white"/>
<rect x="505" y="330" width="3" height="91" transform="rotate(-90 505 330)" fill="white"/>
<path d="M593.455 335L588 335L593.455 330.052L593.455 326.948L588 322L593.455 322L600 327.586L600 329.565L593.455 335Z" fill="white"/>
<path d="M757.062 387.644C757.062 390.398 759.006 392.216 761.616 392.216C763.002 392.216 764.28 391.784 765.144 390.956L764.28 389.714C763.668 390.326 762.66 390.668 761.814 390.668C760.176 390.668 759.186 389.588 759.042 388.274H765.756V387.824C765.756 385.088 764.082 383.09 761.472 383.09C758.898 383.09 757.062 385.124 757.062 387.644ZM761.472 384.638C763.182 384.638 763.884 385.916 763.92 386.942H759.024C759.114 385.88 759.852 384.638 761.472 384.638ZM769.907 392H771.941L775.487 383.306H773.453L770.915 389.822L768.377 383.306H766.361L769.907 392ZM776.134 387.644C776.134 390.398 778.078 392.216 780.688 392.216C782.074 392.216 783.352 391.784 784.216 390.956L783.352 389.714C782.74 390.326 781.732 390.668 780.886 390.668C779.248 390.668 778.258 389.588 778.114 388.274H784.828V387.824C784.828 385.088 783.154 383.09 780.544 383.09C777.97 383.09 776.134 385.124 776.134 387.644ZM780.544 384.638C782.254 384.638 782.956 385.916 782.992 386.942H778.096C778.186 385.88 778.924 384.638 780.544 384.638ZM792.562 392H794.452V385.88C794.452 384.098 793.516 383.09 791.644 383.09C790.276 383.09 789.16 383.81 788.584 384.494V383.306H786.694V392H788.584V385.934C789.016 385.34 789.844 384.764 790.816 384.764C791.878 384.764 792.562 385.214 792.562 386.564V392ZM799.517 392.216C800.399 392.216 800.957 391.982 801.299 391.658L800.849 390.236C800.705 390.398 800.363 390.542 800.003 390.542C799.463 390.542 799.175 390.11 799.175 389.516V384.962H800.939V383.306H799.175V380.93H797.285V383.306H795.845V384.962H797.285V389.984C797.285 391.424 798.059 392.216 799.517 392.216ZM813.398 392H815.288V379.994H813.398V384.512C812.696 383.594 811.688 383.09 810.608 383.09C808.358 383.09 806.738 384.854 806.738 387.662C806.738 390.524 808.376 392.216 810.608 392.216C811.724 392.216 812.732 391.676 813.398 390.812V392ZM813.398 389.39C812.966 390.038 812.048 390.542 811.148 390.542C809.654 390.542 808.7 389.336 808.7 387.662C808.7 385.97 809.654 384.764 811.148 384.764C812.048 384.764 812.966 385.286 813.398 385.934V389.39ZM818.673 381.866C819.321 381.866 819.843 381.344 819.843 380.696C819.843 380.048 819.321 379.526 818.673 379.526C818.043 379.526 817.503 380.048 817.503 380.696C817.503 381.344 818.043 381.866 818.673 381.866ZM817.737 392H819.627V383.306H817.737V392ZM821.322 390.866C822.222 391.748 823.572 392.216 825.048 392.216C827.388 392.216 828.666 391.046 828.666 389.516C828.666 387.464 826.812 387.032 825.3 386.708C824.274 386.474 823.41 386.24 823.41 385.574C823.41 384.962 824.04 384.602 825.03 384.602C826.11 384.602 827.082 385.052 827.604 385.646L828.396 384.314C827.604 383.612 826.488 383.09 825.012 383.09C822.816 383.09 821.592 384.314 821.592 385.736C821.592 387.68 823.374 388.076 824.868 388.4C825.93 388.634 826.848 388.904 826.848 389.66C826.848 390.308 826.272 390.722 825.138 390.722C824.004 390.722 822.798 390.128 822.186 389.498L821.322 390.866ZM832.459 395.312V390.794C833.161 391.73 834.151 392.216 835.249 392.216C837.499 392.216 839.101 390.506 839.101 387.644C839.101 384.782 837.499 383.09 835.249 383.09C834.115 383.09 833.107 383.63 832.459 384.494V383.306H830.569V395.312H832.459ZM837.139 387.644C837.139 389.336 836.185 390.542 834.691 390.542C833.809 390.542 832.873 390.002 832.459 389.372V385.934C832.873 385.286 833.809 384.764 834.691 384.764C836.185 384.764 837.139 385.97 837.139 387.644ZM846.32 392H848.21V386.24C848.21 383.9 846.518 383.09 844.592 383.09C843.206 383.09 841.946 383.54 840.938 384.494L841.712 385.808C842.468 385.07 843.314 384.71 844.286 384.71C845.492 384.71 846.32 385.322 846.32 386.33V387.626C845.69 386.888 844.682 386.51 843.512 386.51C842.09 386.51 840.488 387.338 840.488 389.336C840.488 391.262 842.09 392.216 843.512 392.216C844.664 392.216 845.672 391.802 846.32 391.064V392ZM846.32 390.02C845.888 390.614 845.078 390.92 844.25 390.92C843.188 390.92 842.396 390.308 842.396 389.372C842.396 388.418 843.188 387.806 844.25 387.806C845.078 387.806 845.888 388.112 846.32 388.706V390.02ZM853.271 392.216C854.153 392.216 854.711 391.982 855.053 391.658L854.603 390.236C854.459 390.398 854.117 390.542 853.757 390.542C853.217 390.542 852.929 390.11 852.929 389.516V384.962H854.693V383.306H852.929V380.93H851.039V383.306H849.599V384.962H851.039V389.984C851.039 391.424 851.813 392.216 853.271 392.216ZM855.869 387.644C855.869 390.29 857.723 392.216 860.369 392.216C862.061 392.216 863.087 391.496 863.699 390.668L862.457 389.516C861.971 390.182 861.305 390.542 860.459 390.542C858.875 390.542 857.831 389.336 857.831 387.644C857.831 385.952 858.875 384.764 860.459 384.764C861.305 384.764 861.971 385.106 862.457 385.79L863.699 384.638C863.087 383.81 862.061 383.09 860.369 383.09C857.723 383.09 855.869 385.016 855.869 387.644ZM871.242 392H873.132V385.844C873.132 384.062 872.196 383.09 870.324 383.09C868.956 383.09 867.822 383.81 867.246 384.494V379.994H865.356V392H867.246V385.934C867.696 385.34 868.524 384.764 869.478 384.764C870.54 384.764 871.242 385.178 871.242 386.528V392ZM875.046 387.644C875.046 390.398 876.99 392.216 879.6 392.216C880.986 392.216 882.264 391.784 883.128 390.956L882.264 389.714C881.652 390.326 880.644 390.668 879.798 390.668C878.16 390.668 877.17 389.588 877.026 388.274H883.74V387.824C883.74 385.088 882.066 383.09 879.456 383.09C876.882 383.09 875.046 385.124 875.046 387.644ZM879.456 384.638C881.166 384.638 881.868 385.916 881.904 386.942H877.008C877.098 385.88 877.836 384.638 879.456 384.638ZM885.606 392H887.496V386.078C887.874 385.466 888.936 384.926 889.728 384.926C889.962 384.926 890.16 384.944 890.322 384.98V383.108C889.188 383.108 888.144 383.756 887.496 384.584V383.306H885.606V392Z" fill="white"/>
<path d="M424.236 272H426.126V266.078C426.504 265.466 427.566 264.926 428.358 264.926C428.592 264.926 428.79 264.944 428.952 264.98V263.108C427.818 263.108 426.774 263.756 426.126 264.584V263.306H424.236V272ZM429.936 267.644C429.936 270.398 431.88 272.216 434.49 272.216C435.876 272.216 437.154 271.784 438.018 270.956L437.154 269.714C436.542 270.326 435.534 270.668 434.688 270.668C433.05 270.668 432.06 269.588 431.916 268.274H438.63V267.824C438.63 265.088 436.956 263.09 434.346 263.09C431.772 263.09 429.936 265.124 429.936 267.644ZM434.346 264.638C436.056 264.638 436.758 265.916 436.794 266.942H431.898C431.988 265.88 432.726 264.638 434.346 264.638ZM439.739 270.866C440.639 271.748 441.989 272.216 443.465 272.216C445.805 272.216 447.083 271.046 447.083 269.516C447.083 267.464 445.229 267.032 443.717 266.708C442.691 266.474 441.827 266.24 441.827 265.574C441.827 264.962 442.457 264.602 443.447 264.602C444.527 264.602 445.499 265.052 446.021 265.646L446.813 264.314C446.021 263.612 444.905 263.09 443.429 263.09C441.233 263.09 440.009 264.314 440.009 265.736C440.009 267.68 441.791 268.076 443.285 268.4C444.347 268.634 445.265 268.904 445.265 269.66C445.265 270.308 444.689 270.722 443.555 270.722C442.421 270.722 441.215 270.128 440.603 269.498L439.739 270.866ZM454.854 272H456.744V263.306H454.854V269.408C454.404 270.002 453.576 270.542 452.622 270.542C451.56 270.542 450.876 270.128 450.876 268.778V263.306H448.986V269.462C448.986 271.244 449.904 272.216 451.776 272.216C453.144 272.216 454.224 271.55 454.854 270.848V272ZM469.855 272H471.745V265.718C471.745 263.954 470.845 263.09 469.243 263.09C467.947 263.09 466.795 263.9 466.291 264.692C466.003 263.738 465.211 263.09 463.915 263.09C462.601 263.09 461.449 263.954 461.089 264.494V263.306H459.199V272H461.089V265.934C461.485 265.358 462.259 264.764 463.087 264.764C464.113 264.764 464.527 265.394 464.527 266.33V272H466.417V265.916C466.795 265.358 467.587 264.764 468.433 264.764C469.441 264.764 469.855 265.394 469.855 266.33V272ZM473.653 267.644C473.653 270.398 475.597 272.216 478.207 272.216C479.593 272.216 480.871 271.784 481.735 270.956L480.871 269.714C480.259 270.326 479.251 270.668 478.405 270.668C476.767 270.668 475.777 269.588 475.633 268.274H482.347V267.824C482.347 265.088 480.673 263.09 478.063 263.09C475.489 263.09 473.653 265.124 473.653 267.644ZM478.063 264.638C479.773 264.638 480.475 265.916 480.511 266.942H475.615C475.705 265.88 476.443 264.638 478.063 264.638Z" fill="white"/>
<path d="M418.805 334.866C419.705 335.748 421.055 336.216 422.531 336.216C424.871 336.216 426.149 335.046 426.149 333.516C426.149 331.464 424.295 331.032 422.783 330.708C421.757 330.474 420.893 330.24 420.893 329.574C420.893 328.962 421.523 328.602 422.513 328.602C423.593 328.602 424.565 329.052 425.087 329.646L425.879 328.314C425.087 327.612 423.971 327.09 422.495 327.09C420.299 327.09 419.075 328.314 419.075 329.736C419.075 331.68 420.857 332.076 422.351 332.4C423.413 332.634 424.331 332.904 424.331 333.66C424.331 334.308 423.755 334.722 422.621 334.722C421.487 334.722 420.281 334.128 419.669 333.498L418.805 334.866ZM433.919 336H435.809V327.306H433.919V333.408C433.469 334.002 432.641 334.542 431.687 334.542C430.625 334.542 429.941 334.128 429.941 332.778V327.306H428.051V333.462C428.051 335.244 428.969 336.216 430.841 336.216C432.209 336.216 433.289 335.55 433.919 334.848V336ZM437.508 334.866C438.408 335.748 439.758 336.216 441.234 336.216C443.574 336.216 444.852 335.046 444.852 333.516C444.852 331.464 442.998 331.032 441.486 330.708C440.46 330.474 439.596 330.24 439.596 329.574C439.596 328.962 440.226 328.602 441.216 328.602C442.296 328.602 443.268 329.052 443.79 329.646L444.582 328.314C443.79 327.612 442.674 327.09 441.198 327.09C439.002 327.09 437.778 328.314 437.778 329.736C437.778 331.68 439.56 332.076 441.054 332.4C442.116 332.634 443.034 332.904 443.034 333.66C443.034 334.308 442.458 334.722 441.324 334.722C440.19 334.722 438.984 334.128 438.372 333.498L437.508 334.866ZM448.644 339.312V334.794C449.346 335.73 450.336 336.216 451.434 336.216C453.684 336.216 455.286 334.506 455.286 331.644C455.286 328.782 453.684 327.09 451.434 327.09C450.3 327.09 449.292 327.63 448.644 328.494V327.306H446.754V339.312H448.644ZM453.324 331.644C453.324 333.336 452.37 334.542 450.876 334.542C449.994 334.542 449.058 334.002 448.644 333.372V329.934C449.058 329.286 449.994 328.764 450.876 328.764C452.37 328.764 453.324 329.97 453.324 331.644ZM456.656 331.644C456.656 334.398 458.6 336.216 461.21 336.216C462.596 336.216 463.874 335.784 464.738 334.956L463.874 333.714C463.262 334.326 462.254 334.668 461.408 334.668C459.77 334.668 458.78 333.588 458.636 332.274H465.35V331.824C465.35 329.088 463.676 327.09 461.066 327.09C458.492 327.09 456.656 329.124 456.656 331.644ZM461.066 328.638C462.776 328.638 463.478 329.916 463.514 330.942H458.618C458.708 329.88 459.446 328.638 461.066 328.638ZM473.083 336H474.973V329.88C474.973 328.098 474.037 327.09 472.165 327.09C470.797 327.09 469.681 327.81 469.105 328.494V327.306H467.215V336H469.105V329.934C469.537 329.34 470.365 328.764 471.337 328.764C472.399 328.764 473.083 329.214 473.083 330.564V336ZM483.548 336H485.438V323.994H483.548V328.512C482.846 327.594 481.838 327.09 480.758 327.09C478.508 327.09 476.888 328.854 476.888 331.662C476.888 334.524 478.526 336.216 480.758 336.216C481.874 336.216 482.882 335.676 483.548 334.812V336ZM483.548 333.39C483.116 334.038 482.198 334.542 481.298 334.542C479.804 334.542 478.85 333.336 478.85 331.662C478.85 329.97 479.804 328.764 481.298 328.764C482.198 328.764 483.116 329.286 483.548 329.934V333.39Z" fill="white"/>
</svg>
