<svg width="1200" height="675" viewBox="0 0 1200 675" fill="none" xmlns="http://www.w3.org/2000/svg">
<g clip-path="url(#clip0_2136_4921)">
<rect width="1200" height="675" fill="white"/>
<g clip-path="url(#clip1_2136_4921)">
<path d="M706.562 505.539L706.555 506.636L705.841 506.222L705.847 505.125L706.562 505.539Z" fill="#252A80"/>
<path d="M836.716 430.73L707.277 505.951L706.562 505.537L705.847 505.123L835.28 429.902L836.716 430.73Z" fill="#252A80"/>
<path d="M836.716 430.73L836.709 431.822L707.27 507.048L707.276 505.951L836.716 430.73Z" fill="#252A80"/>
<path d="M707.276 505.949L707.27 507.046L706.555 506.633L706.562 505.535L707.276 505.949Z" fill="#252A80"/>
<path d="M671.068 488.238V489.336L670.347 488.922L670.353 487.824L671.068 488.238Z" fill="#252A80"/>
<path d="M801.222 413.433L671.783 488.654L671.068 488.24L670.353 487.826L799.792 412.605L801.222 413.433Z" fill="#252A80"/>
<path d="M801.222 413.434V414.525L671.783 489.751V488.654L801.222 413.434Z" fill="#252A80"/>
<path d="M671.783 488.652V489.75L671.068 489.336V488.238L671.783 488.652Z" fill="#252A80"/>
<path d="M641.136 467.879L641.13 468.97L640.415 468.556V467.465L641.136 467.879Z" fill="#252A80"/>
<path d="M771.291 393.068L641.851 468.294L641.136 467.88L640.415 467.467L769.854 392.246L771.291 393.068Z" fill="#252A80"/>
<path d="M771.291 393.066L771.285 394.164L641.845 469.384L641.852 468.293L771.291 393.066Z" fill="#252A80"/>
<path d="M641.851 468.293L641.845 469.384L641.13 468.97L641.136 467.879L641.851 468.293Z" fill="#252A80"/>
<path d="M449.27 541.113L449.263 542.211L448.549 541.797L448.555 540.699L449.27 541.113Z" fill="#252A80"/>
<path d="M746 369.493L449.978 541.525L449.269 541.111L448.555 540.697L744.57 368.672L746 369.493Z" fill="#252A80"/>
<path d="M746 369.492L745.994 370.59L449.978 542.615V541.524L746 369.492Z" fill="#252A80"/>
<path d="M449.978 541.523V542.614L449.263 542.207L449.269 541.109L449.978 541.523Z" fill="#252A80"/>
<path d="M415.676 523.082L415.669 524.173L414.955 523.759L414.961 522.668L415.676 523.082Z" fill="#252A80"/>
<path d="M712.413 351.464L416.391 523.49L415.676 523.082L414.961 522.669L710.977 350.637L712.413 351.464Z" fill="#252A80"/>
<path d="M712.412 351.465L712.406 352.562L416.391 524.588V523.49L712.412 351.465Z" fill="#252A80"/>
<path d="M416.391 523.49V524.587L415.67 524.173L415.676 523.082L416.391 523.49Z" fill="#252A80"/>
<path d="M972.658 359.867L792.374 464.636L610.904 359.867L791.189 255.098L972.658 359.867Z" fill="#B7EBE9" stroke="#252A80" stroke-width="2.68398" stroke-linecap="round" stroke-linejoin="round"/>
<path d="M957 359.762L792.541 455.762L627 359.762L791.459 263.762L957 359.762Z" fill="#B7EBE9" stroke="#252A80" stroke-width="2.68398" stroke-linecap="round" stroke-linejoin="round"/>
<path d="M972.658 359.867L972.633 369.223L792.349 473.993L792.374 464.636L972.658 359.867Z" fill="#252A80" stroke="#252A80" stroke-width="2.68398" stroke-linecap="round" stroke-linejoin="round"/>
<path d="M792.374 464.636L792.349 473.993L610.879 369.223L610.904 359.867L792.374 464.636Z" fill="#252A80" stroke="#252A80" stroke-width="2.68398" stroke-linecap="round" stroke-linejoin="round"/>
<path d="M377.893 436.299C380.477 434.806 382.722 434.079 384.609 434.11C386.497 434.148 387.971 434.832 389.03 436.155C390.09 437.478 390.623 439.372 390.629 441.836C390.636 444.175 390.09 446.702 388.986 449.424C387.883 452.146 386.277 455.093 384.177 458.266L376.595 469.278C375.121 471.41 373.986 473.398 373.196 475.267C372.406 477.129 371.961 478.854 371.854 480.447L391.269 469.24L391.282 474.019L366.712 488.204L366.699 483.739C366.699 482.34 366.938 480.804 367.439 479.136C367.935 477.468 368.65 475.681 369.59 473.774C370.525 471.874 371.679 469.93 373.046 467.949L381.066 456.36C382.032 455.037 382.866 453.67 383.587 452.259C384.308 450.848 384.866 449.48 385.268 448.157C385.675 446.84 385.876 445.668 385.87 444.652C385.87 443.159 385.544 441.993 384.91 441.146C384.277 440.3 383.387 439.848 382.239 439.779C381.091 439.723 379.743 440.137 378.188 441.033C376.633 441.93 375.341 443.009 374.193 444.332C373.052 445.649 372.111 447.066 371.371 448.578C370.631 450.089 370.098 451.556 369.772 452.98L365 454.648C365.439 452.484 366.235 450.233 367.396 447.907C368.556 445.574 370.042 443.373 371.854 441.309C373.66 439.246 375.679 437.566 377.893 436.286V436.299Z" fill="#252A80"/>
<path d="M421.828 411.703L421.84 416.544L405.31 426.089L404.187 440.976C405.222 439.653 406.363 438.418 407.624 437.27C408.884 436.122 410.157 435.169 411.449 434.423C413.813 433.056 415.927 432.435 417.783 432.554C419.633 432.68 421.1 433.495 422.179 435C423.257 436.505 423.803 438.637 423.809 441.403C423.816 444.168 423.257 447.159 422.135 449.994C421.012 452.834 419.464 455.443 417.488 457.82C415.513 460.19 413.236 462.122 410.647 463.621C409.091 464.517 407.511 465.17 405.899 465.565C404.288 465.966 402.77 466.022 401.347 465.74C399.917 465.458 398.738 464.712 397.81 463.508L401.572 458.842C402.877 459.965 404.281 460.516 405.799 460.491C407.317 460.466 408.891 459.983 410.521 459.043C413.073 457.569 415.149 455.468 416.754 452.734C418.36 450 419.156 447.166 419.15 444.237C419.144 441.308 418.36 439.433 416.798 438.505C415.237 437.577 413.205 437.834 410.69 439.289C409.323 440.079 407.975 441.208 406.646 442.682C405.316 444.149 404.281 445.61 403.548 447.059L399.327 448.344L401.146 423.674L421.84 411.728L421.828 411.703Z" fill="#252A80"/>
<path d="M447.056 394.133L432.006 455.877L427.29 458.598L442.447 396.792L447.056 394.133Z" fill="#252A80"/>
<path d="M476.015 380.414L476.028 384.873L457.723 435.661L452.568 438.64L470.904 388.278L450.235 400.212L450.223 395.308L476.015 380.414Z" fill="#252A80"/>
<path d="M505.081 363.637L505.094 368.478L488.563 378.022L487.441 392.91C488.476 391.586 489.617 390.351 490.877 389.203C492.138 388.056 493.411 387.103 494.703 386.356C497.067 384.989 499.18 384.369 501.036 384.488C502.886 384.613 504.354 385.428 505.432 386.933C506.511 388.438 507.057 390.571 507.063 393.336C507.069 396.102 506.511 399.093 505.388 401.927C504.266 404.768 502.723 407.377 500.748 409.747C498.773 412.118 496.49 414.055 493.9 415.548C492.345 416.445 490.765 417.097 489.153 417.492C487.541 417.893 486.024 417.95 484.6 417.667C483.17 417.385 481.991 416.639 481.063 415.435L484.832 410.763C486.13 411.892 487.541 412.437 489.059 412.412C490.576 412.387 492.15 411.904 493.781 410.964C496.333 409.49 498.409 407.389 500.014 404.655C501.62 401.921 502.416 399.087 502.41 396.158C502.403 393.229 501.62 391.354 500.058 390.426C498.497 389.498 496.465 389.755 493.95 391.21C492.583 392 491.235 393.129 489.905 394.603C488.576 396.07 487.541 397.531 486.808 398.98L482.587 400.265L484.406 375.595L505.1 363.649L505.081 363.637Z" fill="#252A80"/>
<path d="M378.433 358.163C380.684 356.859 382.716 356.2 384.509 356.188C386.303 356.169 387.72 356.746 388.767 357.912C389.808 359.079 390.329 360.766 390.335 362.973C390.335 364.848 389.959 366.723 389.181 368.617C388.41 370.511 387.331 372.367 385.945 374.186C385.381 374.932 384.772 375.659 384.133 376.355C385.073 376.274 385.939 376.312 386.735 376.475C388.203 376.782 389.331 377.528 390.128 378.732C390.931 379.93 391.332 381.61 391.338 383.774C391.344 386.408 390.786 389.042 389.67 391.669C388.548 394.297 387.024 396.705 385.105 398.9C383.18 401.094 381.06 402.863 378.734 404.205C376.846 405.296 375.134 405.954 373.598 406.186C372.061 406.412 370.744 406.306 369.653 405.873C368.562 405.446 367.697 404.813 367.063 403.985L370.939 399.257C371.346 399.614 371.861 399.991 372.469 400.38C373.077 400.775 373.867 400.944 374.833 400.9C375.792 400.856 376.978 400.43 378.382 399.614C380.897 398.166 382.91 396.172 384.421 393.638C385.933 391.105 386.685 388.584 386.679 386.075C386.679 384.169 386.215 382.815 385.306 382.012C384.396 381.215 383.092 380.971 381.386 381.278C379.68 381.585 377.649 382.419 375.284 383.787L374.231 384.395V383.95L374.218 379.804L375.272 379.196C378.458 377.359 380.979 375.277 382.835 372.95C384.704 370.617 385.632 368.285 385.619 365.946C385.619 364.673 385.318 363.663 384.722 362.923C384.133 362.177 383.267 361.807 382.139 361.8C381.01 361.794 379.706 362.214 378.226 363.067C377.222 363.644 376.294 364.346 375.422 365.162C374.557 365.983 373.761 366.911 373.039 367.94C372.318 368.968 371.666 370.128 371.077 371.408L367.408 371.094C368.104 369.376 369.001 367.708 370.086 366.102C371.171 364.497 372.419 363.011 373.823 361.644C375.228 360.283 376.758 359.116 378.426 358.157L378.433 358.163Z" fill="#252A80"/>
<path d="M421.251 334.199L421.263 339.047L404.733 348.591L403.61 363.478C404.639 362.162 405.786 360.926 407.041 359.772C408.295 358.618 409.574 357.671 410.866 356.925C413.23 355.558 415.343 354.937 417.2 355.056C419.05 355.182 420.517 355.997 421.596 357.502C422.674 359.007 423.22 361.139 423.226 363.905C423.232 366.67 422.674 369.662 421.552 372.496C420.435 375.337 418.886 377.946 416.911 380.316C414.936 382.686 412.653 384.624 410.063 386.117C408.508 387.013 406.928 387.659 405.316 388.061C403.704 388.462 402.187 388.518 400.763 388.236C399.34 387.954 398.155 387.208 397.233 385.998L400.995 381.332C402.293 382.461 403.704 383.006 405.222 382.981C406.74 382.956 408.314 382.473 409.944 381.533C412.496 380.059 414.572 377.958 416.177 375.218C417.777 372.49 418.573 369.655 418.567 366.721C418.56 363.786 417.777 361.917 416.215 360.989C414.654 360.061 412.622 360.318 410.107 361.773C408.74 362.563 407.392 363.692 406.062 365.165C404.733 366.633 403.698 368.094 402.964 369.542L398.744 370.828L400.563 346.158L421.257 334.212L421.251 334.199Z" fill="#252A80"/>
<path d="M446.479 316.637L431.435 378.381L426.719 381.102L441.876 319.296L446.479 316.637Z" fill="#252A80"/>
<path d="M462.075 309.87C464.326 308.566 466.358 307.908 468.151 307.895C469.945 307.876 471.362 308.453 472.409 309.619C473.45 310.786 473.971 312.473 473.977 314.68C473.977 316.555 473.601 318.43 472.823 320.324C472.052 322.218 470.973 324.074 469.587 325.893C469.023 326.639 468.415 327.366 467.775 328.062C468.716 327.981 469.581 328.019 470.378 328.182C471.845 328.489 472.974 329.235 473.77 330.439C474.573 331.637 474.974 333.318 474.981 335.481C474.987 338.115 474.429 340.749 473.312 343.376C472.19 346.004 470.666 348.412 468.747 350.607C466.822 352.801 464.702 354.57 462.376 355.912C460.488 357.003 458.776 357.661 457.24 357.894C455.704 358.119 454.387 358.013 453.295 357.58C452.198 357.154 451.333 356.52 450.706 355.692L454.581 350.964C454.989 351.322 455.503 351.698 456.111 352.087C456.719 352.482 457.51 352.651 458.475 352.607C459.435 352.563 460.62 352.137 462.031 351.322C464.539 349.873 466.559 347.879 468.07 345.345C469.581 342.818 470.334 340.291 470.327 337.782C470.327 335.876 469.863 334.522 468.954 333.725C468.045 332.929 466.74 332.684 465.035 332.991C463.335 333.292 461.297 334.126 458.933 335.494L457.873 336.102V335.657L457.861 331.511L458.921 330.903C462.1 329.066 464.621 326.984 466.483 324.657C468.346 322.325 469.274 319.992 469.268 317.653C469.268 316.38 468.967 315.37 468.371 314.624C467.775 313.877 466.91 313.508 465.781 313.501C464.652 313.495 463.348 313.915 461.868 314.768C460.865 315.345 459.936 316.047 459.065 316.862C458.199 317.684 457.403 318.612 456.682 319.641C455.961 320.669 455.308 321.829 454.725 323.102L451.057 322.795C451.753 321.077 452.65 319.408 453.734 317.803C454.819 316.198 456.067 314.712 457.472 313.344C458.877 311.984 460.407 310.817 462.075 309.858V309.87Z" fill="#252A80"/>
<path d="M504.899 285.914L504.912 290.762L488.381 300.306L487.259 315.193C488.287 313.876 489.435 312.635 490.695 311.487C491.95 310.333 493.223 309.386 494.521 308.64C496.885 307.279 498.992 306.658 500.848 306.778C502.704 306.903 504.166 307.718 505.244 309.223C506.323 310.728 506.868 312.86 506.875 315.626C506.881 318.391 506.323 321.383 505.2 324.217C504.084 327.058 502.535 329.667 500.56 332.037C498.584 334.408 496.302 336.345 493.712 337.838C492.157 338.735 490.576 339.38 488.965 339.782C487.359 340.177 485.835 340.24 484.412 339.957C482.988 339.675 481.803 338.929 480.881 337.719L484.644 333.053C485.942 334.182 487.353 334.727 488.871 334.702C490.388 334.677 491.962 334.194 493.586 333.254C496.139 331.78 498.214 329.679 499.82 326.939C501.419 324.211 502.215 321.376 502.209 318.442C502.203 315.507 501.419 313.638 499.857 312.71C498.302 311.776 496.264 312.039 493.749 313.488C492.382 314.278 491.034 315.406 489.698 316.88C488.369 318.348 487.334 319.809 486.6 321.257L482.386 322.537L484.205 297.867L504.893 285.92L504.899 285.914Z" fill="#252A80"/>
<path d="M392.178 293.679C393.276 295.24 393.828 297.423 393.834 300.226C393.84 303.029 393.295 305.782 392.191 308.61C391.087 311.438 389.545 314.028 387.576 316.38C385.6 318.738 383.299 320.669 380.671 322.187C378.044 323.704 375.767 324.432 373.955 324.306C372.136 324.187 370.694 323.435 369.615 322.055C368.537 320.676 367.766 318.813 367.295 316.468C366.825 314.122 366.587 311.482 366.58 308.547C366.568 304.722 366.906 301.104 367.577 297.692C368.248 294.281 369.233 291.146 370.525 288.298C371.81 285.451 373.378 282.937 375.222 280.767C377.065 278.597 379.154 276.835 381.486 275.493C383.405 274.383 385.324 273.631 387.231 273.229C389.137 272.828 390.83 272.822 392.31 273.198L389.714 278.528C388.529 278.277 387.249 278.284 385.882 278.541C384.509 278.804 383.198 279.293 381.944 280.015C378.175 282.191 375.309 285.671 373.359 290.462C371.722 294.494 370.857 299.411 370.769 305.224C371.61 303.18 372.701 301.242 374.055 299.417C376.012 296.777 378.32 294.689 380.978 293.152C383.455 291.722 385.669 291.064 387.613 291.171C389.557 291.283 391.075 292.118 392.178 293.673V293.679ZM388.052 308.51C388.767 306.629 389.124 304.728 389.118 302.816C389.112 300.903 388.748 299.423 388.021 298.376C387.293 297.329 386.29 296.764 385.017 296.695C383.738 296.62 382.264 297.072 380.602 298.031C378.94 298.99 377.517 300.213 376.225 301.769C374.933 303.324 373.917 305.042 373.184 306.942C372.45 308.836 372.086 310.736 372.086 312.649C372.086 314.561 372.462 316.041 373.209 317.076C373.955 318.111 374.971 318.675 376.269 318.757C377.567 318.838 379.028 318.405 380.652 317.471C382.277 316.537 383.788 315.245 385.061 313.683C386.334 312.122 387.331 310.391 388.046 308.516" fill="#252A80"/>
<path d="M422.819 252.402L422.831 257.25L406.301 266.794L405.178 281.682C406.213 280.358 407.354 279.123 408.615 277.969C409.869 276.822 411.148 275.868 412.44 275.122C414.804 273.755 416.918 273.134 418.774 273.253C420.624 273.379 422.091 274.194 423.17 275.693C424.248 277.198 424.794 279.33 424.8 282.095C424.807 284.861 424.248 287.852 423.126 290.687C422.003 293.527 420.461 296.136 418.485 298.507C416.51 300.883 414.227 302.821 411.637 304.314C410.082 305.21 408.502 305.856 406.89 306.258C405.279 306.659 403.761 306.715 402.338 306.433C400.914 306.151 399.729 305.405 398.801 304.194L402.563 299.535C403.868 300.658 405.272 301.209 406.79 301.184C408.308 301.159 409.882 300.676 411.512 299.736C414.064 298.262 416.14 296.161 417.745 293.427C419.351 290.693 420.147 287.858 420.141 284.924C420.135 281.989 419.351 280.126 417.789 279.198C416.228 278.27 414.196 278.527 411.681 279.982C410.314 280.772 408.966 281.901 407.637 283.368C406.307 284.842 405.272 286.297 404.539 287.746L400.318 289.031L402.137 264.361L422.831 252.415L422.819 252.402Z" fill="#252A80"/>
<path d="M448.04 234.836L432.996 296.58L428.281 299.302L443.437 237.495L448.04 234.836Z" fill="#252A80"/>
<path d="M477.044 244.683C478.141 246.244 478.693 248.427 478.699 251.23C478.705 254.033 478.16 256.786 477.056 259.614C475.953 262.442 474.41 265.032 472.441 267.384C470.465 269.742 468.164 271.673 465.536 273.191C462.909 274.708 460.633 275.436 458.82 275.31C457.002 275.191 455.559 274.439 454.481 273.059C453.402 271.679 452.631 269.817 452.16 267.472C451.69 265.126 451.452 262.486 451.446 259.551C451.433 255.726 451.772 252.108 452.443 248.696C453.114 245.285 454.098 242.149 455.39 239.302C456.676 236.455 458.243 233.941 460.087 231.771C461.931 229.601 464.025 227.839 466.352 226.497C468.271 225.387 470.189 224.635 472.096 224.233C474.002 223.832 475.695 223.826 477.175 224.202L474.579 229.532C473.394 229.281 472.115 229.288 470.748 229.545C469.374 229.808 468.064 230.297 466.809 231.018C463.041 233.194 460.175 236.675 458.224 241.466C456.588 245.498 455.722 250.415 455.635 256.228C456.475 254.183 457.566 252.246 458.914 250.421C460.871 247.781 463.179 245.693 465.844 244.156C468.321 242.726 470.534 242.068 472.478 242.175C474.422 242.287 475.94 243.121 477.044 244.677V244.683ZM472.917 259.514C473.632 257.632 473.99 255.732 473.983 253.82C473.977 251.907 473.613 250.427 472.886 249.38C472.159 248.326 471.155 247.768 469.882 247.699C468.603 247.624 467.129 248.076 465.467 249.035C463.806 249.994 462.382 251.217 461.09 252.772C459.798 254.328 458.783 256.052 458.049 257.946C457.315 259.84 456.951 261.74 456.951 263.653C456.951 265.565 457.328 267.045 458.074 268.08C458.814 269.115 459.836 269.679 461.134 269.761C462.432 269.842 463.893 269.409 465.518 268.475C467.142 267.541 468.653 266.249 469.926 264.687C471.199 263.126 472.196 261.395 472.911 259.52" fill="#252A80"/>
<path d="M507.677 203.406L507.69 208.254L491.16 217.798L490.037 232.685C491.072 231.362 492.213 230.127 493.474 228.973C494.728 227.825 496.007 226.872 497.299 226.126C499.663 224.759 501.776 224.138 503.626 224.264C505.482 224.389 506.944 225.198 508.022 226.703C509.101 228.208 509.646 230.34 509.653 233.106C509.659 235.871 509.101 238.862 507.978 241.697C506.856 244.538 505.307 247.146 503.332 249.517C501.356 251.893 499.08 253.825 496.49 255.317C494.935 256.214 493.354 256.86 491.743 257.261C490.131 257.663 488.614 257.719 487.19 257.437C485.76 257.155 484.581 256.409 483.653 255.198L487.416 250.539C488.72 251.661 490.125 252.213 491.642 252.188C493.16 252.163 494.734 251.68 496.364 250.74C498.917 249.266 500.992 247.165 502.598 244.431C504.203 241.697 505 238.862 504.993 235.928C504.987 232.993 504.203 231.13 502.642 230.202C501.08 229.274 499.048 229.531 496.534 230.986C495.167 231.776 493.818 232.905 492.489 234.372C491.16 235.846 490.125 237.301 489.391 238.749L485.171 240.035L486.989 215.365L507.684 203.419L507.677 203.406Z" fill="#252A80"/>
<path d="M391.796 195.801L391.809 200.648L375.278 210.193L374.156 225.08C375.19 223.757 376.332 222.521 377.592 221.374C378.846 220.22 380.126 219.273 381.418 218.527C383.782 217.16 385.889 216.539 387.745 216.664C389.601 216.79 391.062 217.599 392.141 219.104C393.219 220.603 393.765 222.741 393.771 225.506C393.778 228.272 393.219 231.263 392.097 234.098C390.974 236.938 389.426 239.547 387.45 241.918C385.475 244.294 383.198 246.226 380.602 247.724C379.053 248.621 377.473 249.267 375.861 249.668C374.25 250.07 372.732 250.126 371.309 249.844C369.879 249.562 368.7 248.816 367.772 247.605L371.534 242.946C372.833 244.075 374.244 244.62 375.761 244.595C377.279 244.57 378.853 244.087 380.483 243.147C383.035 241.673 385.111 239.572 386.716 236.838C388.322 234.104 389.118 231.269 389.112 228.335C389.106 225.4 388.322 223.537 386.76 222.609C385.199 221.681 383.167 221.938 380.652 223.393C379.285 224.183 377.937 225.312 376.608 226.786C375.278 228.253 374.244 229.714 373.51 231.163L369.289 232.448L371.108 207.778L391.802 195.832L391.796 195.801Z" fill="#252A80"/>
<path d="M425.622 202.512C426.788 203.798 427.378 205.736 427.384 208.326C427.39 210.784 426.813 213.28 425.659 215.801C424.499 218.315 422.875 220.711 420.787 222.956C418.705 225.201 416.234 227.145 413.387 228.788C410.54 230.431 408.169 231.277 406.062 231.453C403.955 231.628 402.319 231.121 401.171 229.935C400.023 228.744 399.44 226.919 399.434 224.461C399.428 221.865 399.992 219.262 401.133 216.647C402.275 214.038 403.899 211.574 406 209.272C406.138 209.122 406.269 208.978 406.407 208.833C404.695 208.84 403.353 208.3 402.381 207.209C401.34 206.043 400.82 204.293 400.807 201.954C400.795 199.615 401.309 197.176 402.344 194.749C403.372 192.328 404.827 190.058 406.715 187.951C408.596 185.844 410.778 184.069 413.255 182.64C415.732 181.21 418.015 180.401 419.884 180.344C421.759 180.282 423.22 180.865 424.28 182.081C425.339 183.298 425.872 185.098 425.879 187.475C425.885 189.851 425.365 192.171 424.317 194.536C423.339 196.756 422.003 198.838 420.31 200.794C420.448 200.782 420.586 200.769 420.718 200.763C422.812 200.637 424.443 201.22 425.615 202.5L425.622 202.512ZM420.078 217.939C421.809 215.431 422.674 212.96 422.668 210.539C422.662 208.119 421.784 206.57 420.047 206.024C418.303 205.478 416.065 205.993 413.331 207.573C411.556 208.595 409.976 209.862 408.59 211.361C407.204 212.866 406.119 214.471 405.329 216.183C404.539 217.895 404.144 219.582 404.15 221.237C404.156 222.893 404.557 224.047 405.354 224.818C406.157 225.59 407.248 225.922 408.634 225.796C410.026 225.677 411.606 225.1 413.381 224.078C416.115 222.498 418.354 220.454 420.084 217.939M405.423 199.816C405.423 201.986 406.169 203.309 407.655 203.792C409.135 204.274 411.023 203.854 413.318 202.531C415.613 201.208 417.557 199.414 419.056 197.213C420.548 195.012 421.295 192.824 421.288 190.66C421.282 188.283 420.53 186.791 419.025 186.189C417.526 185.593 415.607 185.957 413.274 187.305C410.941 188.653 409.098 190.453 407.624 192.773C406.144 195.094 405.417 197.445 405.423 199.822" fill="#252A80"/>
<path d="M451.082 158.57L436.031 220.314L431.322 223.036L446.479 161.229L451.082 158.57Z" fill="#252A80"/>
<path d="M480.048 144.848L480.06 149.313L461.755 200.101L456.594 203.08L474.937 152.718L454.268 164.651L454.255 159.741L480.048 144.848Z" fill="#252A80"/>
<path d="M509.107 128.066L509.12 132.914L492.589 142.458L491.467 157.346C492.495 156.029 493.643 154.793 494.897 153.639C496.151 152.486 497.431 151.539 498.722 150.792C501.087 149.425 503.2 148.805 505.056 148.924C506.906 149.049 508.373 149.864 509.452 151.369C510.531 152.868 511.076 155.007 511.082 157.772C511.089 160.538 510.531 163.529 509.408 166.363C508.292 169.204 506.743 171.813 504.768 174.183C502.792 176.56 500.51 178.498 497.92 179.99C496.365 180.887 494.784 181.533 493.173 181.934C491.561 182.335 490.043 182.392 488.62 182.11C487.196 181.828 486.011 181.081 485.083 179.871L488.852 175.205C490.15 176.334 491.561 176.88 493.079 176.855C494.596 176.83 496.17 176.347 497.801 175.406C500.353 173.932 502.429 171.832 504.034 169.091C505.633 166.363 506.429 163.529 506.423 160.594C506.417 157.659 505.633 155.797 504.072 154.869C502.51 153.94 500.478 154.198 497.964 155.652C496.597 156.443 495.248 157.571 493.919 159.045C492.589 160.512 491.555 161.974 490.821 163.422L486.601 164.708L488.419 140.038L509.113 128.091L509.107 128.066Z" fill="#252A80"/>
<path d="M378.953 123.722C381.204 122.418 383.236 121.759 385.029 121.747C386.823 121.728 388.24 122.305 389.287 123.471C390.328 124.637 390.849 126.324 390.855 128.532C390.855 130.407 390.479 132.282 389.701 134.176C388.93 136.069 387.851 137.926 386.466 139.744C385.901 140.49 385.293 141.218 384.653 141.914C385.594 141.832 386.459 141.87 387.256 142.033C388.723 142.334 389.852 143.087 390.648 144.284C391.451 145.482 391.852 147.163 391.859 149.333C391.865 151.966 391.307 154.6 390.191 157.221C389.068 159.849 387.544 162.257 385.625 164.458C383.7 166.653 381.58 168.421 379.254 169.763C377.366 170.855 375.654 171.513 374.118 171.739C372.582 171.965 371.265 171.864 370.174 171.432C369.082 171.005 368.217 170.372 367.584 169.544L371.459 164.816C371.867 165.173 372.381 165.549 372.989 165.938C373.597 166.333 374.388 166.503 375.353 166.459C376.313 166.415 377.498 165.988 378.903 165.173C381.417 163.724 383.43 161.73 384.942 159.197C386.453 156.663 387.206 154.142 387.199 151.634C387.199 149.728 386.735 148.373 385.826 147.57C384.917 146.774 383.612 146.529 381.907 146.837C380.201 147.138 378.169 147.972 375.805 149.339L374.751 149.947V149.502L374.739 145.363L375.792 144.755C378.978 142.917 381.499 140.835 383.355 138.503C385.224 136.17 386.152 133.837 386.139 131.504C386.139 130.231 385.838 129.222 385.243 128.482C384.653 127.735 383.788 127.365 382.659 127.359C381.53 127.353 380.226 127.773 378.746 128.626C377.743 129.203 376.815 129.905 375.943 130.72C375.071 131.536 374.281 132.47 373.56 133.498C372.839 134.527 372.187 135.681 371.597 136.96L367.929 136.653C368.625 134.934 369.521 133.266 370.606 131.661C371.691 130.056 372.939 128.569 374.344 127.202C375.748 125.835 377.279 124.675 378.947 123.716L378.953 123.722Z" fill="#252A80"/>
<path d="M419.307 130.239L427.239 125.661L427.252 130.44L419.319 135.018L419.351 145.854L414.804 148.481L414.773 137.645L396.857 147.992L396.844 143.847L414.453 103.995L419.225 101.242L419.307 130.245V130.239ZM414.76 132.867L414.697 111.702L402.224 140.103L414.76 132.867Z" fill="#252A80"/>
<path d="M449.552 80.7266L434.508 142.471L429.792 145.186L444.955 83.3792L449.552 80.7266Z" fill="#252A80"/>
<path d="M465.148 73.9602C467.399 72.6558 469.431 71.9974 471.224 71.9848C473.018 71.966 474.441 72.5429 475.482 73.7093C476.523 74.8757 477.044 76.5626 477.05 78.77C477.05 80.645 476.674 82.5201 475.896 84.4139C475.125 86.3077 474.046 88.1639 472.667 89.9825C472.096 90.7288 471.494 91.4562 470.848 92.1586C471.789 92.077 472.654 92.1147 473.444 92.284C474.912 92.585 476.04 93.3375 476.843 94.5353C477.64 95.7393 478.041 97.4199 478.047 99.5834C478.053 102.217 477.495 104.851 476.379 107.472C475.257 110.1 473.733 112.508 471.814 114.709C469.895 116.898 467.769 118.672 465.443 120.014C463.555 121.105 461.843 121.764 460.307 121.99C458.77 122.215 457.453 122.115 456.362 121.682C455.265 121.256 454.399 120.623 453.772 119.795L457.648 115.073C458.055 115.43 458.57 115.806 459.178 116.195C459.792 116.584 460.576 116.76 461.542 116.716C462.501 116.672 463.693 116.239 465.098 115.43C467.612 113.982 469.625 111.987 471.137 109.454C472.648 106.927 473.4 104.4 473.394 101.891C473.394 99.9847 472.93 98.6302 472.021 97.8338C471.111 97.0374 469.807 96.7928 468.108 97.0938C466.402 97.3948 464.37 98.2289 462.006 99.5959L460.946 100.204V99.759L460.934 95.6201L461.993 95.0119C465.173 93.1745 467.694 91.0925 469.556 88.7597C471.419 86.4332 472.347 84.1004 472.341 81.7613C472.341 80.4883 472.04 79.4786 471.444 78.7324C470.848 77.9861 469.983 77.6162 468.854 77.6099C467.725 77.6036 466.421 78.0238 464.941 78.8766C463.937 79.4536 463.009 80.1559 462.138 80.9711C461.266 81.7864 460.476 82.7145 459.755 83.7492C459.034 84.7839 458.381 85.9315 457.798 87.2045L454.13 86.8972C454.832 85.1727 455.722 83.5046 456.807 81.9055C457.899 80.3001 459.14 78.8139 460.545 77.4468C461.95 76.0798 463.486 74.9196 465.148 73.9602Z" fill="#252A80"/>
<path d="M507.972 50L507.985 54.8475L491.454 64.3919L490.332 79.2792C491.36 77.9623 492.508 76.7206 493.768 75.5668C495.023 74.4192 496.296 73.4723 497.594 72.7198C499.958 71.3527 502.065 70.7319 503.921 70.8573C505.777 70.9827 507.238 71.7979 508.317 73.2967C509.396 74.8017 509.941 76.9339 509.947 79.6994C509.954 82.4649 509.396 85.4561 508.279 88.2906C507.157 91.1314 505.608 93.7401 503.633 96.1105C501.657 98.4872 499.375 100.425 496.785 101.917C495.229 102.814 493.649 103.46 492.038 103.861C490.432 104.257 488.908 104.319 487.485 104.031C486.055 103.749 484.876 103.002 483.948 101.792L487.711 97.1327C489.009 98.2615 490.42 98.807 491.937 98.782C493.455 98.7569 495.029 98.274 496.653 97.3334C499.205 95.8597 501.281 93.7589 502.886 91.0185C504.492 88.2843 505.282 85.4561 505.276 82.5213C505.269 79.5865 504.485 77.724 502.93 76.7959C501.369 75.8678 499.337 76.1249 496.822 77.5798C495.455 78.3699 494.107 79.4987 492.771 80.9661C491.442 82.4398 490.407 83.8946 489.673 85.3432L485.453 86.6288L487.272 61.9588L507.972 50Z" fill="#252A80"/>
<path d="M730.629 529.735L730.905 529.898L730.347 530.224L730.065 530.061L697.945 511.518L698.503 511.191L730.629 529.735Z" fill="#252A80"/>
<path d="M534.812 416.684L535.088 416.847L567.214 435.39L566.65 435.716L534.53 417.173L534.248 417.01L534.812 416.684Z" fill="#252A80"/>
<path d="M567.214 436.041L567.772 435.715L599.892 454.258L599.334 454.584L567.214 436.041Z" fill="#252A80"/>
<path d="M502.341 435.551L502.617 435.714L534.743 454.257L534.179 454.583L502.059 436.04L501.776 435.877L502.341 435.551Z" fill="#252A80"/>
<path d="M599.892 454.912L600.457 454.586L632.577 473.129L632.019 473.455L599.892 454.912Z" fill="#252A80"/>
<path d="M534.743 454.912L535.301 454.586L567.427 473.129L566.863 473.455L534.743 454.912Z" fill="#252A80"/>
<path d="M632.577 473.779L633.141 473.453L665.261 491.996L664.703 492.322L632.577 473.779Z" fill="#252A80"/>
<path d="M567.421 473.779L567.986 473.453L600.106 491.996L599.547 492.322L567.421 473.779Z" fill="#252A80"/>
<path d="M437.399 473.293L437.675 473.456L469.801 491.999L469.237 492.325L437.117 473.782L436.834 473.619L437.399 473.293Z" fill="#252A80"/>
<path d="M665.261 492.65L665.819 492.324L697.946 510.868L697.381 511.194L665.261 492.65Z" fill="#252A80"/>
<path d="M600.106 492.65L600.67 492.324L632.79 510.868L632.232 511.194L600.106 492.65Z" fill="#252A80"/>
<path d="M404.928 492.16L405.204 492.323L437.33 510.866L436.772 511.193L404.646 492.649L404.363 492.486L404.928 492.16Z" fill="#252A80"/>
<path d="M567.635 511.518L568.199 511.191L600.319 529.735L599.761 530.061L567.635 511.518Z" fill="#252A80"/>
<path d="M534.95 492.65L535.514 492.324L567.634 510.868L567.076 511.194L534.95 492.65Z" fill="#252A80"/>
<path d="M502.485 511.518L503.043 511.191L535.163 529.735L534.605 530.061L502.485 511.518Z" fill="#252A80"/>
<path d="M698.159 548.606L698.435 548.769L697.877 549.095L697.594 548.932L665.474 530.389L666.032 530.062L698.159 548.606Z" fill="#252A80"/>
<path d="M632.646 435.872L600.457 454.584L599.892 454.91L567.986 473.454L567.421 473.78L535.514 492.323L534.956 492.649L503.043 511.192L502.485 511.518L470.572 530.062L470.014 530.388L438.101 548.931L437.261 548.768L469.45 530.062L470.014 529.736L501.921 511.192L502.485 510.866L534.392 492.323L534.956 491.997L566.863 473.454L567.427 473.127L599.334 454.584L599.892 454.258L631.805 435.715L632.646 435.872Z" fill="#252A80"/>
<path d="M632.79 511.518L633.348 511.191L665.474 529.735L664.91 530.061L632.79 511.518Z" fill="#252A80"/>
<path d="M600.319 530.389L600.883 530.062L633.003 548.606L632.445 548.932L600.319 530.389Z" fill="#252A80"/>
<path d="M567.848 549.26L568.412 548.934L600.532 567.477L599.974 567.803L567.848 549.26Z" fill="#252A80"/>
<path d="M665.33 454.743L633.141 473.455L632.577 473.781L600.67 492.325L600.106 492.651L568.199 511.194L567.635 511.52L535.728 530.063L535.163 530.39L503.257 548.933L502.692 549.259L470.785 567.802L469.945 567.639L502.134 548.933L502.699 548.607L534.605 530.063L535.163 529.737L567.076 511.194L567.635 510.868L599.548 492.325L600.106 491.999L632.019 473.455L632.577 473.129L664.49 454.586L665.33 454.743Z" fill="#252A80"/>
<path d="M535.376 568.127L535.941 567.801L568.061 586.344L567.503 586.67L535.376 568.127Z" fill="#252A80"/>
<path d="M665.688 567.477L665.964 567.64L665.406 567.966L665.123 567.803L633.003 549.26L633.562 548.934L665.688 567.477Z" fill="#252A80"/>
<path d="M633.216 586.344L633.498 586.507L632.934 586.833L632.652 586.67L600.532 568.127L601.09 567.801L633.216 586.344Z" fill="#252A80"/>
<path d="M600.745 605.215L601.027 605.378L600.463 605.704L600.181 605.541L568.061 586.998L568.619 586.672L600.745 605.215Z" fill="#252A80"/>
<path d="M730.699 492.481L698.504 511.194L697.946 511.52L666.033 530.063L665.474 530.389L633.561 548.932L633.003 549.258L601.09 567.802L600.532 568.128L568.625 586.671L568.061 586.997L536.154 605.541L535.314 605.377L567.503 586.671L568.061 586.345L599.974 567.802L600.532 567.476L632.445 548.932L633.003 548.606L664.91 530.063L665.474 529.737L697.381 511.194L697.946 510.868L729.852 492.324L730.699 492.481Z" fill="#252A80"/>
<path d="M567.001 397.651L371.616 511.193L568.274 624.736L763.659 511.187L567.001 397.645V397.651ZM697.594 548.932L665.681 567.475L665.963 567.638L665.399 567.964L665.117 567.801L633.204 586.345L633.486 586.508L632.922 586.834L632.639 586.671L600.168 605.54L568.255 624.083L535.571 605.214L502.887 586.345L470.202 567.475L437.518 548.606L404.833 529.736L372.707 511.187L405.178 492.318L437.65 473.448L470.121 454.579L502.592 435.709L535.063 416.84L566.97 398.297L599.654 417.166L632.338 436.035L665.023 454.905L697.707 473.774L730.391 492.644L762.511 511.193L730.04 530.063L697.569 548.932" fill="#252A80"/>
<path d="M470.146 454.585L469.87 454.422L469.306 454.748L469.588 454.911L501.708 473.454L502.272 473.128L470.146 454.585Z" fill="#252A80"/>
<path d="M502.272 473.779L502.83 473.453L534.956 491.996L534.392 492.322L502.272 473.779Z" fill="#252A80"/>
<path d="M469.801 492.65L470.359 492.324L502.486 510.868L501.921 511.194L469.801 492.65Z" fill="#252A80"/>
<path d="M437.33 511.518L437.888 511.191L470.014 529.735L469.45 530.061L437.33 511.518Z" fill="#252A80"/>
<path d="M599.968 417.004L567.773 435.717L567.214 436.043L535.301 454.586L534.743 454.913L502.83 473.456L502.272 473.782L470.359 492.325L469.801 492.651L437.888 511.195L437.33 511.521L405.417 530.064L404.583 529.901L436.772 511.195L437.33 510.868L469.237 492.325L469.801 491.999L501.708 473.456L502.272 473.13L534.179 454.586L534.743 454.26L566.65 435.717L567.214 435.391L599.121 416.848L599.968 417.004Z" fill="#252A80"/>
<path d="M535.163 530.389L535.728 530.062L567.848 548.606L567.29 548.932L535.163 530.389Z" fill="#252A80"/>
<path d="M470.014 530.389L470.572 530.062L502.699 548.606L502.134 548.932L470.014 530.389Z" fill="#252A80"/>
<path d="M502.692 549.26L503.257 548.934L535.376 567.477L534.818 567.803L502.692 549.26Z" fill="#252A80"/>
<path d="M698.014 473.61L665.819 492.322L665.261 492.649L633.348 511.192L632.79 511.518L600.883 530.061L600.319 530.387L568.412 548.931L567.848 549.257L535.941 567.8L535.377 568.126L503.47 586.669L502.63 586.506L534.818 567.8L535.377 567.474L567.29 548.931L567.848 548.605L599.761 530.061L600.319 529.735L632.232 511.192L632.79 510.866L664.703 492.322L665.261 491.996L697.174 473.453L698.014 473.61Z" fill="#252A80"/>
<path d="M602.57 567.8L633.009 550.109L663.649 567.8L633.21 585.49L602.57 567.8Z" fill="#B7EBE9"/>
<path d="M537.628 605.542L568.067 587.852L598.707 605.542L568.268 623.232L537.628 605.542Z" fill="#B7EBE9"/>
<path d="M601.761 604.952C602.325 605.278 602.332 605.805 601.767 606.131C601.203 606.457 600.294 606.457 599.729 606.131L598.707 605.541L568.067 587.851L570.099 586.672L600.739 604.362L601.761 604.952Z" fill="#252A80"/>
<path d="M504.943 586.671L535.383 568.98L566.023 586.671L535.583 604.361L504.943 586.671Z" fill="#B7EBE9"/>
<path d="M436.521 548.342C435.963 548.668 435.956 549.195 436.521 549.521L403.836 530.652C404.401 530.978 405.316 530.978 405.874 530.652L406.89 530.062L437.53 547.753L436.514 548.342H436.521Z" fill="#252A80"/>
<path d="M535.546 416.255C534.981 415.928 534.066 415.928 533.508 416.255L565.979 397.385C566.242 397.228 566.612 397.141 566.995 397.141C567.371 397.141 567.747 397.228 568.017 397.385L600.701 416.255C600.137 415.928 599.221 415.928 598.663 416.255L597.647 416.844L567.007 399.154L536.568 416.844L535.546 416.255Z" fill="#252A80"/>
<path d="M536.568 416.843L567.007 399.152L597.647 416.843L567.208 434.533L536.568 416.843Z" fill="#B7EBE9"/>
<path d="M600.707 417.429C601.266 417.103 601.266 416.576 600.701 416.25L633.386 435.119C632.821 434.793 631.906 434.793 631.347 435.119L630.332 435.709L599.692 418.018L600.707 417.429Z" fill="#252A80"/>
<path d="M535.546 416.256L536.568 416.846L567.208 434.536L565.176 435.715L534.536 418.025L533.514 417.435C532.95 417.109 532.95 416.582 533.514 416.256C534.078 415.93 534.988 415.93 535.552 416.256H535.546Z" fill="#252A80"/>
<path d="M503.074 435.123C502.51 434.797 501.601 434.797 501.036 435.123L533.508 416.254C532.949 416.58 532.943 417.107 533.508 417.433L534.53 418.022L504.09 435.713L503.068 435.123H503.074Z" fill="#252A80"/>
<path d="M569.246 435.714L599.685 418.023L630.325 435.714L599.892 453.404L569.246 435.714Z" fill="#B7EBE9"/>
<path d="M504.097 435.714L534.536 418.023L565.176 435.714L534.737 453.404L504.097 435.714Z" fill="#B7EBE9"/>
<path d="M633.385 436.304C633.944 435.978 633.944 435.451 633.379 435.125L666.063 453.994C665.499 453.668 664.584 453.668 664.025 453.994L663.01 454.584L632.37 436.893L633.385 436.304Z" fill="#252A80"/>
<path d="M567.214 436.894L569.246 435.715L599.892 453.405L597.854 454.584L567.214 436.894Z" fill="#252A80"/>
<path d="M503.075 435.123L504.097 435.713L534.737 453.403L532.705 454.582L502.065 436.892L501.043 436.302C500.478 435.976 500.478 435.45 501.043 435.123C501.607 434.797 502.516 434.797 503.081 435.123H503.075Z" fill="#252A80"/>
<path d="M470.603 453.994C470.039 453.668 469.13 453.668 468.565 453.994L501.037 435.125C500.478 435.451 500.472 435.978 501.037 436.304L502.059 436.893L471.619 454.584L470.597 453.994H470.603Z" fill="#252A80"/>
<path d="M601.93 454.581L632.369 436.891L663.01 454.581L632.57 472.271L601.93 454.581Z" fill="#B7EBE9"/>
<path d="M536.781 454.581L567.214 436.891L597.86 454.581L567.421 472.271L536.781 454.581Z" fill="#B7EBE9"/>
<path d="M471.626 454.581L502.065 436.891L532.705 454.581L502.266 472.271L471.626 454.581Z" fill="#B7EBE9"/>
<path d="M666.064 453.995C666.628 454.321 666.628 454.847 666.07 455.174L665.054 455.763L634.615 473.453L632.583 474.632L602.144 492.323L600.112 493.502L569.672 511.192L567.641 512.371L537.201 530.062L535.169 531.241L504.73 548.931L502.698 550.11L472.259 567.8L471.243 568.39C470.685 568.716 469.769 568.716 469.205 568.39C468.641 568.064 468.641 567.537 469.205 567.211L470.221 566.621L500.66 548.931L502.692 547.752L533.131 530.062L535.163 528.883L565.603 511.192L567.634 510.013L598.074 492.323L600.105 491.144L630.545 473.453L632.577 472.274L663.016 454.584L664.032 453.995C664.59 453.668 665.506 453.668 666.07 453.995H666.064Z" fill="#252A80"/>
<path d="M666.07 455.171C666.628 454.845 666.628 454.318 666.064 453.992L698.748 472.862C698.184 472.535 697.268 472.535 696.71 472.862L695.694 473.451L665.054 455.761L666.07 455.171Z" fill="#252A80"/>
<path d="M599.899 455.761L601.93 454.582L632.57 472.272L630.539 473.451L599.899 455.761Z" fill="#252A80"/>
<path d="M534.743 455.761L536.781 454.582L567.421 472.272L565.389 473.451L534.743 455.761Z" fill="#252A80"/>
<path d="M470.603 453.995L471.626 454.584L502.266 472.274L500.234 473.453L469.594 455.763L468.572 455.174C468.007 454.847 468.007 454.321 468.572 453.995C469.136 453.668 470.039 453.668 470.61 453.995H470.603Z" fill="#252A80"/>
<path d="M438.132 472.862C437.568 472.535 436.659 472.535 436.094 472.862L468.565 453.992C468.007 454.318 468.001 454.845 468.565 455.171L469.588 455.761L439.148 473.451L438.126 472.862H438.132Z" fill="#252A80"/>
<path d="M634.615 473.452L665.054 455.762L695.694 473.452L665.255 491.143L634.615 473.452Z" fill="#B7EBE9"/>
<path d="M504.31 473.452L534.743 455.762L565.389 473.452L534.95 491.143L504.31 473.452Z" fill="#B7EBE9"/>
<path d="M439.154 473.452L469.594 455.762L500.234 473.452L469.794 491.143L439.154 473.452Z" fill="#B7EBE9"/>
<path d="M698.754 474.042C699.312 473.716 699.312 473.189 698.754 472.863L731.439 491.733C730.874 491.407 729.959 491.407 729.401 491.733L728.385 492.322L697.745 474.632L698.761 474.042H698.754Z" fill="#252A80"/>
<path d="M632.583 474.632L634.615 473.453L665.255 491.144L663.223 492.322L632.583 474.632Z" fill="#252A80"/>
<path d="M567.427 474.632L569.459 473.453L600.099 491.144L598.067 492.322L567.427 474.632Z" fill="#252A80"/>
<path d="M502.272 474.632L504.31 473.453L534.95 491.144L532.918 492.322L502.272 474.632Z" fill="#252A80"/>
<path d="M438.132 472.862L439.154 473.451L469.794 491.142L467.763 492.321L437.123 474.63L436.1 474.041C435.536 473.715 435.536 473.188 436.1 472.862C436.665 472.536 437.574 472.536 438.138 472.862H438.132Z" fill="#252A80"/>
<path d="M405.661 491.733C405.097 491.407 404.187 491.407 403.623 491.733L436.094 472.863C435.536 473.189 435.53 473.716 436.094 474.042L437.116 474.632L406.677 492.322L405.655 491.733H405.661Z" fill="#252A80"/>
<path d="M667.299 492.323L697.738 474.633L728.378 492.323L697.939 510.014L667.299 492.323Z" fill="#B7EBE9"/>
<path d="M602.144 492.323L632.583 474.633L663.223 492.323L632.784 510.014L602.144 492.323Z" fill="#B7EBE9"/>
<path d="M471.839 492.323L502.272 474.633L532.918 492.323L502.479 510.014L471.839 492.323Z" fill="#B7EBE9"/>
<path d="M406.69 492.323L437.123 474.633L467.763 492.323L437.323 510.014L406.69 492.323Z" fill="#B7EBE9"/>
<path d="M665.267 493.499L667.299 492.32L697.939 510.011L695.907 511.19L665.267 493.499Z" fill="#252A80"/>
<path d="M600.112 493.499L602.143 492.32L632.783 510.011L630.752 511.19L600.112 493.499Z" fill="#252A80"/>
<path d="M534.956 493.499L536.988 492.32L567.628 510.011L565.596 511.19L534.956 493.499Z" fill="#252A80"/>
<path d="M469.807 493.499L471.839 492.32L502.479 510.011L500.447 511.19L469.807 493.499Z" fill="#252A80"/>
<path d="M405.661 491.733L406.683 492.322L437.323 510.013L435.291 511.192L404.651 493.501L403.629 492.912C403.065 492.586 403.065 492.059 403.629 491.733C404.194 491.407 405.103 491.407 405.667 491.733H405.661Z" fill="#252A80"/>
<path d="M730.416 493.5L761.063 511.19L730.623 528.881L699.983 511.19L730.416 493.5Z" fill="#B7EBE9"/>
<path d="M634.828 511.19L665.267 493.5L695.907 511.19L665.468 528.881L634.828 511.19Z" fill="#B7EBE9"/>
<path d="M569.672 511.19L600.112 493.5L630.752 511.19L600.312 528.881L569.672 511.19Z" fill="#B7EBE9"/>
<path d="M504.517 511.19L534.956 493.5L565.596 511.19L535.163 528.881L504.517 511.19Z" fill="#B7EBE9"/>
<path d="M374.219 511.192L404.652 493.508L435.292 511.192L404.852 528.882L374.219 511.192Z" fill="#B7EBE9"/>
<path d="M632.796 512.37L634.828 511.191L665.468 528.882L663.436 530.061L632.796 512.37Z" fill="#252A80"/>
<path d="M567.641 512.37L569.673 511.191L600.313 528.882L598.281 530.061L567.641 512.37Z" fill="#252A80"/>
<path d="M502.485 512.37L504.523 511.191L535.163 528.882L533.125 530.061L502.485 512.37Z" fill="#252A80"/>
<path d="M731.432 491.733C731.997 492.059 731.997 492.586 731.438 492.912L730.423 493.501L699.983 511.192L697.951 512.371L667.512 530.061L665.48 531.24L635.041 548.93L633.009 550.109L602.57 567.8L600.538 568.979L570.099 586.669L568.067 587.848L537.628 605.539L536.612 606.128C536.054 606.454 535.138 606.454 534.574 606.128C534.009 605.802 534.009 605.275 534.574 604.949L535.589 604.36L566.029 586.669L568.061 585.49L598.5 567.8L600.532 566.621L630.971 548.93L633.003 547.752L663.442 530.061L665.474 528.882L695.913 511.192L697.945 510.013L728.384 492.322L729.4 491.733C729.958 491.407 730.874 491.407 731.438 491.733H731.432Z" fill="#252A80"/>
<path d="M764.543 511.189C764.543 511.409 764.393 511.622 764.123 511.779L731.652 530.648C732.21 530.322 732.21 529.795 731.645 529.469L730.623 528.88L761.063 511.189L730.423 493.499L731.439 492.909C731.997 492.583 731.997 492.057 731.432 491.73L764.117 510.6C764.386 510.757 764.543 510.97 764.543 511.189Z" fill="#252A80"/>
<path d="M437.336 512.37L439.368 511.191L470.008 528.882L467.976 530.061L437.336 512.37Z" fill="#252A80"/>
<path d="M731.645 529.471C732.21 529.797 732.21 530.324 731.652 530.65C731.094 530.976 730.178 530.976 729.614 530.65L728.591 530.061L697.951 512.37L699.983 511.191L730.623 528.882L731.645 529.471Z" fill="#252A80"/>
<path d="M600.701 416.256C601.265 416.582 601.265 417.109 600.707 417.435L599.691 418.025L569.252 435.715L567.22 436.894L536.781 454.585L534.749 455.763L504.31 473.454L502.278 474.633L471.839 492.323L469.807 493.502L439.368 511.193L437.336 512.372L406.896 530.062L405.881 530.652C405.322 530.978 404.407 530.978 403.842 530.652C403.278 530.325 403.278 529.799 403.842 529.473L404.858 528.883L435.298 511.193L437.33 510.014L467.769 492.323L469.801 491.144L500.24 473.454L502.272 472.275L532.711 454.585L534.743 453.406L565.182 435.715L567.214 434.536L597.653 416.846L598.669 416.256C599.227 415.93 600.143 415.93 600.707 416.256H600.701Z" fill="#252A80"/>
<path d="M403.836 529.469C403.278 529.795 403.272 530.322 403.836 530.648L371.152 511.779C370.882 511.622 370.732 511.409 370.732 511.189C370.732 510.97 370.882 510.757 371.152 510.6L403.623 491.73C403.065 492.057 403.059 492.583 403.623 492.909L404.645 493.499L374.206 511.189L404.846 528.88L403.83 529.469H403.836Z" fill="#252A80"/>
<path d="M667.512 530.062L697.945 512.371L728.591 530.062L698.152 547.752L667.512 530.062Z" fill="#B7EBE9"/>
<path d="M602.357 530.062L632.796 512.371L663.436 530.062L632.997 547.752L602.357 530.062Z" fill="#B7EBE9"/>
<path d="M537.201 530.062L567.641 512.371L598.281 530.062L567.841 547.752L537.201 530.062Z" fill="#B7EBE9"/>
<path d="M472.052 530.062L502.485 512.371L533.131 530.062L502.692 547.752L472.052 530.062Z" fill="#B7EBE9"/>
<path d="M406.896 530.062L437.336 512.371L467.976 530.062L437.536 547.752L406.896 530.062Z" fill="#B7EBE9"/>
<path d="M600.325 531.238L602.357 530.059L632.997 547.749L630.965 548.928L600.325 531.238Z" fill="#252A80"/>
<path d="M535.17 531.238L537.201 530.059L567.841 547.749L565.81 548.928L535.17 531.238Z" fill="#252A80"/>
<path d="M470.014 531.238L472.052 530.059L502.692 547.749L500.66 548.928L470.014 531.238Z" fill="#252A80"/>
<path d="M729.607 530.648C730.172 530.974 731.087 530.974 731.646 530.648L699.174 549.517C699.733 549.191 699.733 548.665 699.168 548.338L698.146 547.749L728.585 530.059L729.607 530.648Z" fill="#252A80"/>
<path d="M699.174 548.338C699.739 548.665 699.745 549.191 699.181 549.517C698.616 549.844 697.707 549.844 697.143 549.517L696.12 548.928L665.48 531.238L667.512 530.059L698.152 547.749L699.174 548.338Z" fill="#252A80"/>
<path d="M633.379 435.123C633.944 435.45 633.944 435.976 633.386 436.302L632.37 436.892L601.93 454.582L599.899 455.761L569.459 473.452L567.428 474.631L536.988 492.321L534.956 493.5L504.517 511.19L502.485 512.369L472.046 530.06L470.014 531.239L439.575 548.929L438.559 549.519C438.001 549.845 437.085 549.845 436.521 549.519C435.956 549.193 435.956 548.666 436.521 548.34L437.537 547.75L467.976 530.06L470.008 528.881L500.447 511.19L502.479 510.012L532.918 492.321L534.95 491.142L565.389 473.452L567.421 472.273L597.861 454.582L599.892 453.403L630.332 435.713L631.348 435.123C631.906 434.797 632.821 434.797 633.386 435.123H633.379Z" fill="#252A80"/>
<path d="M635.041 548.929L665.48 531.238L696.12 548.929L665.681 566.619L635.041 548.929Z" fill="#B7EBE9"/>
<path d="M569.886 548.929L600.325 531.238L630.965 548.929L600.526 566.619L569.886 548.929Z" fill="#B7EBE9"/>
<path d="M504.73 548.929L535.169 531.238L565.809 548.929L535.376 566.619L504.73 548.929Z" fill="#B7EBE9"/>
<path d="M439.581 548.929L470.014 531.238L500.66 548.929L470.221 566.619L439.581 548.929Z" fill="#B7EBE9"/>
<path d="M567.854 550.109L569.886 548.93L600.526 566.62L598.494 567.799L567.854 550.109Z" fill="#252A80"/>
<path d="M502.698 550.109L504.73 548.93L535.376 566.62L533.338 567.799L502.698 550.109Z" fill="#252A80"/>
<path d="M697.143 549.519C697.707 549.845 698.622 549.845 699.181 549.519L666.709 568.389C667.268 568.062 667.268 567.536 666.703 567.21L665.681 566.62L696.12 548.93L697.143 549.519Z" fill="#252A80"/>
<path d="M666.703 567.21C667.268 567.536 667.274 568.062 666.71 568.389C666.145 568.715 665.236 568.715 664.671 568.389L663.649 567.799L633.009 550.109L635.041 548.93L665.681 566.62L666.703 567.21Z" fill="#252A80"/>
<path d="M469.205 567.21C468.647 567.536 468.641 568.062 469.205 568.389L436.521 549.519C437.085 549.845 438.001 549.845 438.559 549.519L439.575 548.93L470.215 566.62L469.199 567.21H469.205Z" fill="#252A80"/>
<path d="M537.414 567.8L567.854 550.109L598.494 567.8L568.054 585.49L537.414 567.8Z" fill="#B7EBE9"/>
<path d="M535.383 568.98L537.415 567.801L568.055 585.491L566.023 586.67L535.383 568.98Z" fill="#252A80"/>
<path d="M664.671 568.39C665.236 568.716 666.151 568.716 666.71 568.39L634.238 587.26C634.797 586.934 634.797 586.407 634.232 586.081L633.21 585.491L663.649 567.801L664.671 568.39Z" fill="#252A80"/>
<path d="M634.232 586.081C634.797 586.407 634.803 586.934 634.239 587.26C633.674 587.586 632.765 587.586 632.201 587.26L631.178 586.67L600.538 568.98L602.57 567.801L633.21 585.491L634.232 586.081Z" fill="#252A80"/>
<path d="M501.889 586.081C501.331 586.407 501.325 586.934 501.889 587.26L469.205 568.39C469.769 568.716 470.685 568.716 471.243 568.39L472.259 567.801L502.899 585.491L501.883 586.081H501.889Z" fill="#252A80"/>
<path d="M698.748 472.862C699.312 473.188 699.312 473.715 698.754 474.041L697.738 474.63L667.299 492.321L665.267 493.5L634.828 511.19L632.796 512.369L602.356 530.059L600.325 531.238L569.885 548.929L567.854 550.108L537.414 567.798L535.382 568.977L504.943 586.668L503.927 587.257C503.369 587.583 502.453 587.583 501.889 587.257C501.325 586.931 501.325 586.404 501.889 586.078L502.905 585.489L533.344 567.798L535.376 566.619L565.815 548.929L567.847 547.75L598.287 530.059L600.318 528.88L630.758 511.19L632.79 510.011L663.229 492.321L665.261 491.142L695.7 473.451L696.716 472.862C697.274 472.536 698.19 472.536 698.754 472.862H698.748Z" fill="#252A80"/>
<path d="M570.099 586.667L600.538 568.977L631.178 586.667L600.739 604.357L570.099 586.667Z" fill="#B7EBE9"/>
<path d="M632.2 587.257C632.765 587.584 633.68 587.584 634.238 587.257L601.767 606.127C602.325 605.801 602.325 605.274 601.761 604.948L600.739 604.358L631.178 586.668L632.2 587.257Z" fill="#252A80"/>
<path d="M534.574 604.948C534.016 605.274 534.009 605.801 534.574 606.127L501.889 587.257C502.454 587.584 503.369 587.584 503.927 587.257L504.943 586.668L535.583 604.358L534.567 604.948H534.574Z" fill="#252A80"/>
<path d="M599.729 606.129C600.294 606.455 601.209 606.455 601.767 606.129L569.296 624.998C569.026 625.155 568.657 625.242 568.28 625.242C567.904 625.242 567.528 625.155 567.258 624.998L534.574 606.129C535.138 606.455 536.054 606.455 536.612 606.129L537.628 605.539L568.268 623.229L598.707 605.539L599.729 606.129Z" fill="#252A80"/>
<path d="M472.259 567.8L502.698 550.109L533.338 567.8L502.905 585.49L472.259 567.8Z" fill="#B7EBE9"/>
<path d="M569.459 473.452L599.898 455.762L630.538 473.452L600.105 491.143L569.459 473.452Z" fill="white"/>
<path d="M536.988 492.323L567.427 474.633L598.067 492.323L567.634 510.014L536.988 492.323Z" fill="white"/>
<path d="M439.367 511.194L469.807 493.504L500.447 511.194L470.007 528.885L439.367 511.194Z" fill="white"/>
<path d="M693.386 505.5L693.374 510.36L568.042 583.191L568.055 578.331L693.386 505.5Z" fill="#252A80" stroke="#252A80" stroke-width="2.68398" stroke-linecap="round" stroke-linejoin="round"/>
<path d="M568.055 578.331L568.042 583.191L441.889 510.36L441.901 505.5L568.055 578.331Z" fill="#252A80" stroke="#252A80" stroke-width="2.68398" stroke-linecap="round" stroke-linejoin="round"/>
<path d="M693.386 505.498L568.054 578.329L441.901 505.498L567.233 432.66L693.386 505.498Z" fill="#00D0C9" stroke="#252A80" stroke-width="2.68398" stroke-linecap="round" stroke-linejoin="round"/>
<path d="M680 505.764L567.867 570.762L455 505.764L567.133 440.762L680 505.764Z" fill="#00D0C9" stroke="#252A80" stroke-width="2.68398" stroke-linecap="round" stroke-linejoin="round"/>
<path d="M693.386 430.34L693.374 435.2L568.042 508.037L568.055 503.177L693.386 430.34Z" fill="#252A80" stroke="#252A80" stroke-width="2.68398" stroke-linecap="round" stroke-linejoin="round"/>
<path d="M568.055 503.177L568.042 508.037L441.889 435.2L441.901 430.34L568.055 503.177Z" fill="#252A80" stroke="#252A80" stroke-width="2.68398" stroke-linecap="round" stroke-linejoin="round"/>
<path d="M693.386 430.341L568.054 503.179L441.901 430.341L567.233 357.504L693.386 430.341Z" fill="#0F8CAB" stroke="#252A80" stroke-width="2.68398" stroke-linecap="round" stroke-linejoin="round"/>
<path d="M680 430.167L567.867 495.333L455 430.167L567.133 365L680 430.167Z" fill="#0F8CAB" stroke="#252A80" stroke-width="2.68398" stroke-linecap="round" stroke-linejoin="round"/>
<path d="M693.386 355.184L693.374 360.044L568.042 432.881L568.055 428.021L693.386 355.184Z" fill="#252A80" stroke="#252A80" stroke-width="2.68398" stroke-linecap="round" stroke-linejoin="round"/>
<path d="M568.055 428.021L568.042 432.881L441.889 360.05L441.901 355.184L568.055 428.021Z" fill="#252A80" stroke="#252A80" stroke-width="2.68398" stroke-linecap="round" stroke-linejoin="round"/>
<path d="M693.386 355.183L568.054 428.02L441.901 355.183L567.233 282.352L693.386 355.183Z" fill="#196299" stroke="#252A80" stroke-width="2.68398" stroke-linecap="round" stroke-linejoin="round"/>
<path d="M679 355.161L566.867 420.328L454 355.161L566.133 290L679 355.161Z" fill="#196299" stroke="#252A80" stroke-width="2.68398" stroke-linecap="round" stroke-linejoin="round"/>
<path d="M693.386 280.031L693.374 284.891L568.042 357.722L568.055 352.862L693.386 280.031Z" fill="#252A80" stroke="#252A80" stroke-width="2.68398" stroke-linecap="round" stroke-linejoin="round"/>
<path d="M568.055 352.862L568.042 357.722L441.889 284.891L441.901 280.031L568.055 352.862Z" fill="#252A80" stroke="#252A80" stroke-width="2.68398" stroke-linecap="round" stroke-linejoin="round"/>
<path d="M693.386 280.033L568.054 352.864L441.901 280.033L567.233 207.195L693.386 280.033Z" fill="#1E498E" stroke="#252A80" stroke-width="2.68398" stroke-linecap="round" stroke-linejoin="round"/>
<path d="M681 280.167L568.867 345.328L456 280.167L568.133 215L681 280.167Z" fill="#1E498E" stroke="#252A80" stroke-width="2.68398" stroke-linecap="round" stroke-linejoin="round"/>
<path d="M693.386 204.875L693.374 209.735L568.042 282.572L568.055 277.712L693.386 204.875Z" fill="#252A80" stroke="#252A80" stroke-width="2.68398" stroke-linecap="round" stroke-linejoin="round"/>
<path d="M568.054 277.712L568.042 282.572L441.889 209.735L441.901 204.875L568.054 277.712Z" fill="#252A80" stroke="#252A80" stroke-width="2.68398" stroke-linecap="round" stroke-linejoin="round"/>
<path d="M693.386 204.874L568.054 277.712L441.901 204.874L567.233 132.043L693.386 204.874Z" fill="#243284" stroke="#252A80" stroke-width="2.68398" stroke-linecap="round" stroke-linejoin="round"/>
<path d="M680 205.161L567.867 270.328L455 205.161L567.133 140L680 205.161Z" fill="#243284" stroke="#00D0C9" stroke-width="2.68398" stroke-linecap="round" stroke-linejoin="round"/>
<path d="M591.558 193.044C589.84 192.937 587.946 193.169 585.858 193.74L582.892 189.689C585.958 188.767 589.125 188.434 592.411 188.704C595.697 188.967 598.6 189.833 601.128 191.288C604.269 193.1 605.931 195.075 606.126 197.207C606.32 199.34 605.041 201.202 602.294 202.801C600.764 203.692 599.127 204.287 597.384 204.588C595.634 204.889 592.919 205.046 589.238 205.04C586.541 205.04 584.591 205.172 583.399 205.441C582.202 205.711 580.722 206.357 578.947 207.385L573.41 204.187C576.219 202.55 578.364 201.578 579.831 201.259C581.305 200.939 583.933 200.851 587.745 200.995C590.135 201.033 591.959 200.97 593.214 200.807C594.474 200.644 595.528 200.318 596.387 199.822C597.798 199.007 598.45 198.092 598.349 197.076C598.249 196.06 597.465 195.132 595.985 194.279C594.75 193.564 593.276 193.156 591.558 193.05V193.044Z" fill="#00D0C9"/>
<path d="M572.137 208.127C573.184 208.729 573.711 209.475 573.711 210.366C573.711 211.256 573.197 212.003 572.162 212.605C571.127 213.207 569.835 213.514 568.305 213.514C566.769 213.514 565.477 213.213 564.436 212.611C563.395 212.009 562.862 211.263 562.862 210.372C562.856 209.482 563.37 208.736 564.411 208.133C565.452 207.531 566.738 207.23 568.274 207.23C569.804 207.23 571.096 207.531 572.143 208.14L572.137 208.127Z" fill="#00D0C9"/>
<path d="M637.342 201.942C637.355 203.616 636.345 205.033 634.332 206.206L590.304 231.792C588.285 232.964 585.839 233.554 582.948 233.554C580.07 233.554 577.611 232.97 575.58 231.798L531.263 206.212C529.231 205.04 528.209 203.616 528.202 201.948C528.196 200.28 529.199 198.856 531.212 197.684L575.241 172.098C577.26 170.925 579.706 170.342 582.597 170.336C585.475 170.336 587.94 170.925 589.971 172.098L634.288 197.684C636.32 198.856 637.336 200.28 637.342 201.948V201.942ZM582.923 227.527L626.951 201.942L582.634 176.356L538.606 201.942L582.923 227.527Z" fill="#00D0C9"/>
<path d="M560.523 172.1L509.164 201.95L560.861 231.8L553.524 236.064L501.826 206.214C499.795 205.042 498.773 203.618 498.766 201.95C498.754 200.276 499.757 198.858 501.776 197.686L553.136 167.836L560.523 172.1Z" fill="#00D0C9"/>
<path d="M823.779 359.869L792.449 378.073L760.918 359.869L792.248 341.664L823.779 359.869ZM792.386 365.939L802.827 359.869L792.317 353.798L781.876 359.869L792.386 365.939Z" fill="#252A80"/>
<path d="M844.868 384.142L834.358 378.072L823.917 384.142L834.427 390.212L823.986 396.276L813.475 390.206L803.034 396.276C800.162 397.944 796.676 398.778 792.568 398.778C788.461 398.778 784.968 397.944 782.077 396.276L771.567 390.206L761.125 396.276L750.615 390.212L761.056 384.142L750.546 378.072L740.105 384.142L729.595 378.072L740.036 372.001L729.526 365.931C726.635 364.263 725.18 362.237 725.174 359.861C725.161 357.484 726.591 355.465 729.463 353.797L739.904 347.726L729.394 341.656L739.835 335.592L750.346 341.662L760.787 335.592L750.277 329.522L760.718 323.451L771.228 329.522L781.669 323.451C784.541 321.783 788.028 320.949 792.129 320.949C796.23 320.949 799.736 321.783 802.62 323.451L813.131 329.522L823.572 323.458L834.082 329.528L823.641 335.592L834.151 341.662L844.592 335.598L855.102 341.662L844.661 347.726L855.171 353.797C858.062 355.465 859.511 357.49 859.523 359.867C859.542 362.244 858.106 364.269 855.24 365.937L844.799 372.008L855.309 378.078L844.868 384.148V384.142ZM792.518 390.206L844.73 359.861L792.173 329.515L739.961 359.861L792.518 390.206Z" fill="#252A80"/>
</g>
<g clip-path="url(#clip2_2136_4921)">
<path d="M192.335 62H175.774L175.076 63.1601L165.779 78.5679C164.233 79.1267 162.936 80.2127 162.12 81.6324C161.305 83.0522 161.022 84.7135 161.324 86.3206C161.145 86.2852 160.963 86.2665 160.78 86.2648H125.098C124.984 86.2661 124.869 86.2745 124.756 86.2899L110.8 63.1601L110.101 62H93.5398C92.7978 62.0021 92.0695 62.1989 91.4287 62.5706C90.7879 62.9423 90.2574 63.4757 89.8908 64.1166C89.5257 64.756 89.3383 65.4803 89.3476 66.2154C89.357 66.9504 89.5629 67.6698 89.9441 68.2998L139.346 150.166C139.72 150.785 140.249 151.297 140.882 151.653C141.514 152.009 142.229 152.196 142.956 152.196C143.683 152.196 144.397 152.009 145.03 151.653C145.662 151.297 146.191 150.785 146.566 150.166L195.968 68.2998C196.348 67.6672 196.552 66.9457 196.56 66.2089C196.567 65.4722 196.378 64.7467 196.011 64.1065C195.644 63.4663 195.112 62.9345 194.47 62.5654C193.828 62.1962 193.099 62.0031 192.358 62.0055L192.335 62ZM187.536 76.4038L174.963 83.6183C174.637 82.1033 173.807 80.7411 172.608 79.7503L193.441 67.7922L187.536 76.4038ZM177.15 64.3899H192.335C192.575 64.3884 192.813 64.435 193.035 64.5271C193.256 64.6191 193.456 64.7546 193.624 64.9254L192.24 65.7174L170.09 78.4229C169.675 78.3029 169.249 78.2225 168.819 78.183L177.15 64.3899ZM168.168 80.5395C169.067 80.5395 169.946 80.8045 170.694 81.3009C171.442 81.7973 172.025 82.5029 172.369 83.3284C172.713 84.1539 172.803 85.0623 172.628 85.9387C172.452 86.815 172.019 87.62 171.383 88.2518C170.747 88.8836 169.937 89.3139 169.055 89.4882C168.173 89.6626 167.258 89.5731 166.428 89.2312C165.597 88.8892 164.886 88.3101 164.387 87.5672C163.887 86.8243 163.62 85.9508 163.62 85.0573C163.62 83.8591 164.1 82.71 164.952 81.8627C165.805 81.0155 166.962 80.5395 168.168 80.5395ZM142.947 88.6575H160.788C160.903 88.6568 161.016 88.6865 161.116 88.7434C161.215 88.8003 161.298 88.8824 161.355 88.9814C161.412 89.0804 161.442 89.1927 161.441 89.3068C161.44 89.4209 161.408 89.5327 161.35 89.6308L143.495 119.526C143.438 119.624 143.356 119.705 143.257 119.762C143.159 119.818 143.047 119.848 142.933 119.848C142.82 119.848 142.708 119.818 142.609 119.762C142.511 119.705 142.429 119.624 142.372 119.526L134.715 106.698L120.759 114.71L118.412 110.825L132.405 102.799L124.545 89.6252C124.486 89.5271 124.455 89.4153 124.454 89.3012C124.453 89.1871 124.483 89.0748 124.54 88.9758C124.597 88.8768 124.68 88.7947 124.779 88.7378C124.879 88.6809 124.992 88.6513 125.107 88.652L142.947 88.6575ZM93.5454 64.3955H108.734L122.659 87.4751C122.578 87.5811 122.504 87.692 122.437 87.807C122.17 88.2755 122.032 88.8057 122.036 89.3441C122.041 89.8826 122.188 90.4104 122.462 90.8746L129.084 101.968L117.205 108.781L117.171 108.801L91.9988 67.0811C91.8322 66.8108 91.7418 66.501 91.737 66.1841C91.7323 65.8672 91.8133 65.5549 91.9717 65.2798C92.1301 65.0047 92.36 64.777 92.6374 64.6204C92.9147 64.4639 93.2293 64.3843 93.5482 64.3899L93.5454 64.3955ZM144.488 148.933C144.327 149.196 144.1 149.414 143.83 149.565C143.56 149.716 143.255 149.795 142.945 149.795C142.634 149.795 142.33 149.716 142.059 149.565C141.789 149.414 141.562 149.196 141.401 148.933L121.991 116.765L133.875 109.944L140.317 120.739C140.587 121.193 140.972 121.569 141.433 121.83C141.894 122.092 142.415 122.229 142.946 122.229C143.477 122.229 143.998 122.092 144.459 121.83C144.92 121.569 145.305 121.193 145.575 120.739L163.424 90.8383C163.519 90.6716 163.6 90.4971 163.665 90.3168C164.591 91.1021 165.708 91.6319 166.905 91.8532C168.102 92.0744 169.336 91.9793 170.485 91.5774C171.633 91.1755 172.654 90.4809 173.447 89.5632C174.24 88.6455 174.777 87.5369 175.003 86.3485L186.093 79.9846L144.488 148.933Z" fill="#252A80"/>
<path d="M80.3164 166.916L75.3958 154.902H71.25L78.2393 171.95H82.3598L89.3547 154.902H85.2369L80.3164 166.916Z" fill="#252A80"/>
<path d="M91.3842 171.958H104.591V168.659H95.0753V164.911H103.69V161.611H95.0753V158.209H104.594V154.91H91.3842V171.958Z" fill="#252A80"/>
<path d="M120.975 160.666C120.975 157.295 118.232 154.91 114.519 154.91H106.8V171.958H110.457V166.422H113.18L117.11 171.958H121.303L117.093 166.007C119.428 165.184 120.975 163.193 120.975 160.666ZM114.109 163.07H110.46V158.251H114.109C115.931 158.251 117.197 159.196 117.197 160.661C117.197 162.125 115.931 163.07 114.109 163.07Z" fill="#252A80"/>
<path d="M128.076 154.902H124.377V171.95H128.076V154.902Z" fill="#252A80"/>
<path d="M135.071 154.902H131.372V171.95H143.607V168.651V168.648H135.071V154.902Z" fill="#252A80"/>
<path d="M152.805 154.902L145.811 171.95H149.931L151.031 169.273H158.678L159.775 171.95H163.921L156.926 154.902H152.805ZM152.311 166.169L154.854 159.942L157.4 166.169H152.311Z" fill="#252A80"/>
<path d="M162.195 158.209H167.542V171.955H171.236V158.209H176.583V154.91H162.195V158.209Z" fill="#252A80"/>
<path d="M186.649 154.605C181.734 154.605 177.534 158.627 177.534 163.415C177.534 168.203 181.728 172.255 186.649 172.25C191.62 172.25 195.763 168.203 195.763 163.415C195.763 158.627 191.617 154.605 186.649 154.605ZM186.649 168.926C183.78 168.926 181.332 166.391 181.332 163.415C181.332 160.439 183.78 157.93 186.649 157.93C189.517 157.93 191.982 160.462 191.982 163.415C191.982 166.368 189.548 168.923 186.654 168.923L186.649 168.926Z" fill="#252A80"/>
<path d="M208.776 166.004C211.128 165.184 212.674 163.193 212.674 160.666C212.674 157.295 209.932 154.91 206.218 154.91H198.499V171.958H202.16V166.422H204.885L208.815 171.958H213.008L208.776 166.004ZM205.809 163.07H202.16V158.251H205.809C207.63 158.251 208.896 159.196 208.896 160.661C208.896 162.125 207.628 163.07 205.809 163.07Z" fill="#252A80"/>
</g>
<path fill-rule="evenodd" clip-rule="evenodd" d="M138.451 235L135.377 235.083L132.138 235.406L130.521 235.647L128.903 235.971L127.282 236.294L125.664 236.7L123.964 237.106L122.346 237.671L120.729 238.239L119.028 238.886L117.328 239.615L115.71 240.424L114.01 241.233L112.31 242.204L110.692 243.174L108.992 244.307L107.374 245.443L105.674 246.737L104.056 248.031L102.435 249.487L100.817 251.025L99.1997 252.643L97.5787 254.343L95.9609 256.123L97.4994 254.99L99.3615 253.858L101.871 252.319L105.027 250.702L106.806 249.81L108.748 248.922L110.771 248.113L112.957 247.301L115.225 246.492L117.652 245.766L120.161 245.119L122.832 244.551L125.502 244.145L128.335 243.742L131.247 243.581L134.241 243.498L137.236 243.581L140.395 243.822L143.552 244.307L145.169 244.551L146.787 244.875L148.487 245.281L150.105 245.766L151.805 246.251L153.423 246.816L155.123 247.463L156.823 248.193L158.524 248.922L160.224 249.731L162.003 250.619L163.704 251.593L165.401 252.643L167.183 253.779L163.945 259.606L188.389 261.871L176.084 238.724L173.413 244.469L172.928 244.145L171.472 243.336L169.207 242.121L166.13 240.748L164.268 240.018L162.327 239.209L160.141 238.48L157.877 237.753L155.447 237.106L152.858 236.456L150.187 235.971L147.355 235.485L144.522 235.162L141.528 235H138.451Z" fill="#252A80"/>
<path fill-rule="evenodd" clip-rule="evenodd" d="M95.9609 308.324L108.262 331.471L110.933 325.726L111.418 325.967L112.878 326.859L115.142 327.991L118.299 329.45L120.078 330.177L122.102 330.906L124.208 331.715L126.556 332.445L128.982 333.092L131.491 333.739L134.162 334.224L136.995 334.63L139.907 334.954L142.822 335.195H145.899L149.055 335.033L152.211 334.792L153.829 334.548L155.447 334.224L157.068 333.901L158.685 333.495L160.386 333.009L162.003 332.524L163.704 331.959L165.321 331.309L167.022 330.583L168.722 329.774L170.34 328.882L172.04 327.991L173.658 326.941L175.358 325.888L177.058 324.673L178.676 323.461L180.294 322.085L181.994 320.708L183.611 319.17L185.232 317.552L186.768 315.852L188.389 314.072L186.85 315.125L184.988 316.337L182.479 317.875L179.323 319.493L177.543 320.384L175.681 321.193L173.575 322.085L171.393 322.894L169.125 323.702L166.698 324.35L164.189 324.997L161.597 325.564L158.847 326.05L156.015 326.373L153.099 326.618L150.187 326.697L147.111 326.618L143.954 326.373L140.798 325.888L139.18 325.564L137.563 325.241L135.942 324.835L134.241 324.432L132.624 323.864L130.923 323.3L129.226 322.649L127.526 322.002L125.826 321.193L124.126 320.384L122.425 319.493L120.646 318.522L118.946 317.552L117.245 316.419L120.402 310.592L95.9609 308.324Z" fill="#252A80"/>
<path fill-rule="evenodd" clip-rule="evenodd" d="M117.652 266.887L132.947 302.82H143.469L158.603 266.887H150.428L138.21 296.59L125.905 266.887H117.652Z" fill="#252A80"/>
<path fill-rule="evenodd" clip-rule="evenodd" d="M162.406 266.887V302.82H169.61V278.703L182.317 302.82H188.144L200.769 278.703V302.82H207.973V266.887H198.343L185.233 292.057L172.119 266.887H162.406Z" fill="#252A80"/>
<path fill-rule="evenodd" clip-rule="evenodd" d="M75 266.887V294.16L75.0792 294.969L75.241 295.699L75.4853 296.346L75.8088 296.993L76.2942 297.64L76.7795 298.208L77.4266 298.693L78.0737 299.178L78.8033 299.664L79.5329 300.07L81.2332 300.717L83.0127 301.285L84.7921 301.77L86.6541 302.094L88.4336 302.335L90.0547 302.579L91.5106 302.658L93.7754 302.82H95.4757L97.6612 302.658L99.1172 302.579L100.817 302.335L102.597 302.094L104.38 301.77L106.238 301.285L108.021 300.717L109.639 300.07L110.448 299.664L111.177 299.178L111.824 298.693L112.392 298.208L112.957 297.64L113.363 296.993L113.687 296.346L114.01 295.699L114.172 294.969V294.16V266.887H107.13V291.572L107.051 291.975L106.968 292.46L106.806 292.866L106.645 293.272L106.404 293.675L106.077 293.998L105.753 294.243L105.43 294.566L104.703 294.89L103.894 295.293L102.841 295.619L101.626 295.943L100.25 296.184L98.5526 296.428L96.6906 296.507L94.5843 296.59L92.4813 296.507L90.6192 296.428L89.0015 296.184L87.5456 295.943L86.3306 295.619L85.36 295.293L84.4686 294.89L83.8215 294.566L83.4154 294.243L83.0919 293.998L82.7683 293.675L82.5273 293.272L82.3656 292.866L82.2038 292.46L82.1212 291.975V291.572V266.887H75Z" fill="#252A80"/>
<path d="M1047.58 531.5H1042.27V567.031H1047.58V531.5Z" fill="#10BBB7"/>
<path d="M1001.62 567.031H1012.69C1014.84 567.031 1015.93 565.941 1015.93 563.784H1015.91V554.99H1010.62V562.456H1003.75V536.051H1010.62V543.067H1015.91V534.771C1015.91 532.59 1014.82 531.5 1012.66 531.5H1001.59C999.508 531.5 998.442 532.59 998.465 534.771V563.784C998.465 565.941 999.508 567.031 1001.62 567.031Z" fill="#10BBB7"/>
<path d="M1084.58 555.582V562.551H1078.08V555.322H1072.78V563.784C1072.78 565.941 1073.84 567.031 1075.97 567.031H1086.67C1088.82 567.031 1089.89 565.941 1089.89 563.784V555.322C1089.89 554.113 1089.51 553.165 1088.73 552.43L1078.08 542.403V535.98H1084.58V542.664H1089.89V534.724C1089.89 532.567 1088.82 531.5 1086.67 531.5H1075.97C1073.84 531.5 1072.78 532.59 1072.78 534.771V542.664C1072.78 543.826 1073.15 544.774 1073.94 545.508L1084.58 555.582Z" fill="#10BBB7"/>
<path d="M1025.42 551.079H1032.6V567.031H1037.95V531.5H1032.6V546.148H1025.42V531.5H1020.11V567.031H1025.42V551.079Z" fill="#10BBB7"/>
<path d="M1097.21 594.217C1097.21 594.833 1097.31 595.686 1097.54 596.777L1089.04 574.875H1084.39V610.406H1089.56V590.614C1089.56 589.998 1089.46 589.144 1089.22 588.054L1097.73 610.406H1102.38V574.875H1097.21V594.217Z" fill="#252A80"/>
<path d="M1068.98 574.828L1062.11 610.312V610.406H1067.35L1068.41 603.675H1075.07L1076.14 610.406H1081.4L1074.58 574.828H1068.98ZM1069.12 599.1L1071.73 583.077L1074.32 599.1H1069.12Z" fill="#252A80"/>
<path d="M1059.05 574.875H1053.74V610.406H1059.05V574.875Z" fill="#252A80"/>
<path d="M1133.62 605.713V594.572H1141.61V589.95H1133.62V579.592H1142.89V574.875H1128.31V610.406H1143.03V605.713H1133.62Z" fill="#252A80"/>
<path d="M1120.87 574.875H1109.8C1107.69 574.875 1106.65 575.965 1106.65 578.146V607.159C1106.65 609.316 1107.69 610.406 1109.8 610.406H1120.87C1123.03 610.406 1124.12 609.316 1124.12 607.159V598.365H1118.83V605.831H1111.96V579.426H1118.83V586.442H1124.12V578.146C1124.12 575.965 1123.03 574.875 1120.87 574.875Z" fill="#252A80"/>
<path d="M1004.04 574.828L997.162 610.312V610.406H1002.4L1003.47 603.675H1010.13L1011.19 610.406H1016.46L1009.63 574.828H1004.04ZM1004.18 599.1L1006.79 583.077L1009.37 599.1H1004.18Z" fill="#252A80"/>
<path d="M984.599 575.564C982.276 575.564 980.262 577.175 979.716 579.403H972.771V573.762H967.13V570.373H972.771V556.814H967.13V553.401H972.771V547.76H979.716C979.93 548.684 980.404 549.49 981.044 550.13C981.945 551.031 983.201 551.6 984.576 551.6C985.95 551.6 987.207 551.031 988.107 550.13C989.008 549.229 989.577 547.973 989.577 546.598C989.577 543.825 987.325 541.597 984.576 541.597C982.253 541.597 980.238 543.209 979.693 545.437H972.748V539.796H967.106V533.277H928.47V539.796H922.829V553.401H928.47V556.791H922.829V562.432H915.884C915.339 560.18 913.324 558.592 911.001 558.592C908.252 558.568 906 560.82 906 563.594C906 564.968 906.569 566.225 907.47 567.125C908.37 568.026 909.627 568.595 911.001 568.595C912.376 568.595 913.632 568.026 914.533 567.125C915.173 566.485 915.647 565.656 915.86 564.755H922.829V570.396H928.47V573.786H922.829V587.344H928.47V590.734H922.829V596.375H915.884C915.339 594.123 913.324 592.535 911.001 592.535C908.252 592.559 906 594.81 906 597.56C906 600.333 908.252 602.561 911.001 602.561C913.324 602.561 915.339 600.95 915.884 598.721H922.829V604.363H928.47V611H967.13V604.363H972.7V590.757H967.13V587.368H972.771V581.75H979.716C979.93 582.674 980.404 583.48 981.044 584.12C981.945 585.021 983.201 585.59 984.576 585.59C985.95 585.59 987.207 585.021 988.107 584.12C989.008 583.22 989.577 581.963 989.577 580.589C989.601 577.815 987.349 575.564 984.599 575.564Z" fill="#252A80"/>
<path d="M982.703 544.704C983.177 544.23 983.865 543.922 984.599 543.922C985.334 543.922 986.022 544.23 986.496 544.704C986.97 545.178 987.278 545.866 987.278 546.6C987.278 547.335 986.97 548.023 986.496 548.497C986.022 548.971 985.334 549.279 984.599 549.279C983.865 549.279 983.177 548.971 982.703 548.497C982.229 548.023 981.921 547.335 981.921 546.6C981.921 545.866 982.229 545.178 982.703 544.704Z" fill="#00D0C9"/>
<path d="M912.898 565.489C912.4 565.963 911.736 566.271 911.002 566.271C910.267 566.271 909.579 565.963 909.105 565.489C908.631 565.015 908.323 564.327 908.323 563.593C908.323 562.099 909.508 560.914 911.002 560.914C912.495 560.914 913.68 562.099 913.68 563.593C913.68 564.327 913.396 564.991 912.898 565.489Z" fill="#252A80"/>
<path d="M912.898 599.458C912.4 599.932 911.736 600.24 911.002 600.24C910.267 600.24 909.579 599.932 909.105 599.458C908.631 598.983 908.323 598.296 908.323 597.561C908.323 596.826 908.631 596.139 909.105 595.665C909.579 595.191 910.267 594.883 911.002 594.883C911.736 594.883 912.424 595.191 912.898 595.665C913.372 596.139 913.68 596.826 913.68 597.561C913.68 598.32 913.396 598.983 912.898 599.458Z" fill="#252A80"/>
<path d="M970.448 542.145H961.512V551.057H970.448V542.145Z" fill="white"/>
<path d="M934.111 559.113H925.175V568.049H934.111V559.113Z" fill="white"/>
<path d="M934.111 576.109H925.175V585.045H934.111V576.109Z" fill="#252A80"/>
<path d="M934.111 593.105H925.175V602.042H934.111V593.105Z" fill="white"/>
<path d="M964.903 608.749H964.808H930.794V604.458H936.435V590.853H930.794V587.463H936.435V573.858H930.794V570.468H936.435V556.886H930.794V553.473H936.435V539.867H930.794V535.672H964.808V539.867H959.19V553.473H964.832V556.863H959.214V570.444H964.855V573.834H959.238V587.44H964.879V590.829H959.261V604.435H964.903V608.749Z" fill="#00D0C9"/>
<path d="M970.448 576.109H961.512V585.045H970.448V576.109Z" fill="white"/>
<path d="M986.496 582.485C986.022 582.959 985.334 583.267 984.599 583.267C983.865 583.267 983.177 582.959 982.703 582.485C982.229 582.011 981.921 581.323 981.921 580.589C981.921 579.854 982.229 579.166 982.703 578.692C983.177 578.218 983.865 577.91 984.599 577.91C985.334 577.91 986.022 578.218 986.496 578.692C986.97 579.166 987.278 579.854 987.278 580.589C987.278 581.323 986.97 581.987 986.496 582.485Z" fill="#00D0C9"/>
<path d="M1024.73 574.875H1019.42V610.406H1033.38V605.665H1024.73V574.875Z" fill="#252A80"/>
<path d="M1057.25 554.16H1065.85C1068.01 554.16 1069.1 553.046 1069.1 550.842V534.771C1069.1 532.59 1068.01 531.5 1065.85 531.5H1051.94V567.031H1057.25V554.16ZM1057.25 536.051H1063.74V549.585H1057.25V536.051Z" fill="#10BBB7"/>
<path d="M1041.84 574.875H1036.53V610.406H1050.49V605.665H1041.84V574.875Z" fill="#252A80"/>
</g>
<defs>
<clipPath id="clip0_2136_4921">
<rect width="1200" height="675" fill="white"/>
</clipPath>
<clipPath id="clip1_2136_4921">
<rect width="609" height="575.25" fill="white" transform="translate(365 50)"/>
</clipPath>
<clipPath id="clip2_2136_4921">
<rect width="141.75" height="110.25" fill="white" transform="translate(71.25 62)"/>
</clipPath>
</defs>
</svg>
