<svg xmlns="http://www.w3.org/2000/svg" role="img" viewBox="-7.99 -7.99 415.74 149.99"><g fill-rule="evenodd" stroke="none"><path fill="#2c2c7c" d="M37.667 8.333v5.5h-9.334v23.334h9.334V42.5h-9.334v9.667H16.899L16.523 51c-.206-.642-.441-1.167-.521-1.167-.081 0-.197-.159-.259-.355-.099-.313-1.109-1.387-2.266-2.409-.216-.192-.769-.488-1.227-.658-.458-.171-.876-.372-.929-.448-.352-.506-5.457-.503-5.811.004-.052.074-.459.27-.905.438-.446.167-.932.445-1.079.616-.147.172-.344.314-.438.315-.208.003-1.588 1.41-1.588 1.619 0 .082-.132.294-.294.472-1.456 1.6-1.633 8.265-.246 9.225.077.054.311.378.519.72 1.887 3.105 7.177 4.372 10.841 2.597 1.163-.564 3.202-2.409 3.418-3.094.065-.206.185-.375.267-.375.082 0 .293-.469.469-1.042l.32-1.041 5.77-.044 5.769-.044v9.504h9.334v5.5h-9.334V94.5h9.334v5.333h-9.334v9.5H16.846l-.184-.708c-.592-2.281-2.66-4.334-5.412-5.375-1.267-.48-4.731-.575-5.266-.145-.129.103-.421.243-.651.31-.611.179-1.534.624-1.827.881-1.885 1.65-2.629 2.593-3.121 3.954-.679 1.878-.212 7.75.616 7.75.079 0 .192.154.252.342.156.493 1.946 2.229 2.56 2.483.286.118.52.274.52.346 0 .072.432.27.959.438 1.893.607 7.208.283 7.208-.439 0-.076.234-.219.52-.319.596-.207 2.813-2.389 2.813-2.767 0-.138.073-.251.161-.251.088 0 .304-.468.48-1.041l.32-1.042 5.77-.044 5.769-.044v9.671h9.334v10.834h65.666v-10.834h9.334v-23.5h-9.334V94.5h9.5V85h5.75c4.489 0 5.751.046 5.751.208.002.4.347 1.449.547 1.664.111.12.347.476.525.792.177.316.636.877 1.021 1.247 1.365 1.314 1.689 1.526 2.99 1.952.366.12.72.294.785.386.222.313 4.475.208 5.048-.124.275-.159.564-.29.641-.291.733-.005 2.584-1.477 3.964-3.151.329-.399.747-1.343.894-2.017.069-.32.209-.635.31-.7.274-.173.258-4.166-.017-4.258-.115-.038-.209-.203-.209-.368 0-.442-.478-1.731-.712-1.923-.113-.092-.315-.381-.45-.643-.5-.968-2.215-2.35-3.763-3.032-1.425-.628-6.644-.438-7.074.257-.053.085-.368.269-.701.408-.656.274-2.8 2.33-2.8 2.685 0 .12-.093.317-.208.438-.307.324-.792 1.432-.792 1.809 0 .319-.144.328-5.75.328h-5.75v-9.5h-9.5v-5.334h9.5V42.5h-9.5v-5.333h9.5v-9.5h11.417l.294 1c.161.55.368 1 .458 1 .091 0 .165.101.165.226 0 .378 1.127 1.729 1.962 2.353.433.323.936.701 1.118.841.181.139.744.372 1.25.518.506.146 1.05.331 1.209.413.382.196 3.384.192 3.755-.005.159-.085.652-.247 1.097-.36.968-.246 3.775-2.14 3.775-2.548 0-.039.25-.442.555-.895.304-.453.655-1.192.779-1.642.124-.45.305-.871.402-.936.24-.159.24-4.105 0-4.264-.097-.065-.278-.484-.401-.931-.371-1.351-2.415-3.895-3.372-4.199-.181-.057-.456-.231-.611-.386-.155-.155-.729-.385-1.275-.51-.546-.126-1.065-.292-1.152-.369-.204-.18-3.258-.184-3.258-.004 0 .075-.498.235-1.106.356-.608.121-1.238.353-1.4.514-.162.162-.445.343-.629.401-.485.154-2.52 2.24-2.636 2.701-.054.216-.155.392-.224.392-.155 0-.672 1.32-.672 1.714 0 .265-.427.286-5.75.286h-5.75v-9.5h-9.5v-11H37.667v5.5m61.666 1.084V13h-9.5v22.828l4.709.044 4.708.045v5.833l-4.708.044-4.709.045v22.656l4.709.044 4.708.044v5.834l-4.708.044-4.709.044v22.656l4.709.045 4.708.044v5.833l-4.708.045-4.709.044v22.656l4.709.044 4.708.045v7.333l-28.708.042-28.709.042v-7.495l4.709-.045 4.708-.044.043-11.292.043-11.291h-9.503v-6h9.5V70.5h-9.5v-6h9.5V41.833h-9.5v-6h9.503l-.043-11.375-.043-11.375-4.708-.044-4.709-.044V5.833h57.5v3.584m9.5 16.085v7.668l-7.625-.043-7.625-.044-.043-7.416c-.024-4.08-.008-7.511.036-7.625.063-.163 1.752-.209 7.669-.209h7.588v7.669m25.767-4.184c4.418 2.006 2.863 8.773-2.011 8.751-4.953-.024-6.29-6.834-1.73-8.814.821-.356 2.895-.322 3.741.063M47.63 53.833c.025 3.988.005 7.42-.046 7.627l-.091.377-7.622-.044-7.621-.043-.043-7.417c-.024-4.079-.008-7.511.037-7.626.063-.166 1.695-.201 7.71-.167l7.629.043.047 7.25m146.088 19.292c1.266.028 3.291.028 4.5-.001 1.209-.028.174-.051-2.301-.051s-3.465.023-2.199.052m28.834 0c1.266.028 3.291.028 4.5-.001 1.209-.028.173-.051-2.302-.051s-3.464.023-2.198.052m28.823 0c1.26.028 3.323.028 4.583 0 1.261-.029.23-.052-2.291-.052s-3.552.023-2.292.052m51.593 0c1.128.028 2.928.028 4-.001s.149-.052-2.051-.052-3.077.024-1.949.053m21.75 0c1.266.028 3.291.028 4.5-.001 1.209-.028.174-.051-2.301-.051s-3.465.023-2.199.052m23.574 0c2.773.026 7.31.026 10.083 0 2.773-.026.504-.047-5.042-.047-5.546 0-7.814.021-5.041.047m32.904 0c3.362.025 8.912.025 12.333 0 3.422-.025.671-.046-6.112-.046-6.784 0-9.583.021-6.221.046m-272.363 9.71v7.668l-7.625-.043-7.625-.043L93.54 83c-.024-4.079-.008-7.51.036-7.625.063-.162 1.752-.208 7.669-.208h7.588v7.668m25.804-4.127c4.261 2.112 2.891 8.629-1.82 8.656-2.688.016-4.488-1.55-4.75-4.133-.348-3.42 3.479-6.054 6.57-4.523m-86.973 32.667c-.001 4.056-.062 7.47-.136 7.585-.105.165-1.758.201-7.706.167l-7.572-.044-.043-7.541-.044-7.542h15.504l-.003 7.375"/><path fill="#fafafb" d="M93.707 25.542l.043 7.541h15l.043-7.541.044-7.542H93.663l.044 7.542M32.333 54.168v7.502l7.542-.043 7.542-.044.043-7.458.043-7.458h-15.17v7.501m61.334 28.665v7.5h15.166v-15H93.667v7.5m-61.294 28.709l.044 7.541 7.405.044c5.814.034 7.435-.002 7.54-.167.073-.115.134-3.529.135-7.585L47.5 104H32.33l.043 7.542"/><path fill="#1424ac" d="M165.268 73.097c-.056.145-.101.445-.101.667 0 .221-.058.403-.128.403s-.308 1.162-.528 2.583c-.221 1.421-.451 2.583-.512 2.583-.06 0-.114.094-.118.209-.022.593-.743 4.743-.86 4.958-.076.137-.311 1.337-.524 2.667-.212 1.329-.437 2.454-.5 2.5-.063.045-.287 1.208-.497 2.583-.21 1.375-.433 2.537-.494 2.583-.062.046-.288 1.209-.503 2.584-.214 1.375-.442 2.575-.508 2.666-.065.092-.295 1.254-.511 2.584-.216 1.329-.436 2.454-.488 2.5-.051.045-.27 1.208-.485 2.583-.214 1.375-.444 2.575-.51 2.667-.065.091-.291 1.254-.501 2.583-.21 1.329-.436 2.492-.503 2.583-.066.092-.284 1.217-.484 2.5-.201 1.284-.43 2.455-.51 2.604-.08.149-.314 1.349-.52 2.667-.206 1.318-.426 2.433-.488 2.479-.063.046-.286 1.209-.496 2.584-.21 1.375-.448 2.585-.528 2.689-.081.104-.193.685-.25 1.291l-.103 1.103h9.215v-.389c0-.214.057-.445.125-.513.069-.069.33-1.525.58-3.237.25-1.711.602-4.011.783-5.111.181-1.1.333-2.056.337-2.125.005-.069 2.44-.125 5.412-.125h5.404l.087.458c.049.252.138.871.199 1.375s.167.992.236 1.084c.069.091.298 1.535.508 3.208.21 1.673.445 3.042.522 3.042.078 0 .141.243.143.541.001.298.048.823.105 1.167l.103.625H186.5v-.528c0-.703-.318-2.637-.502-3.055-.081-.184-.267-1.159-.413-2.167-.147-1.008-.375-2.208-.508-2.667-.132-.458-.399-1.846-.592-3.083-.193-1.237-.408-2.325-.477-2.417-.069-.091-.297-1.291-.507-2.666-.21-1.375-.428-2.538-.486-2.584-.098-.078-.433-1.868-1.464-7.833-.246-1.421-.492-2.621-.547-2.667-.055-.046-.272-1.164-.484-2.484-.211-1.321-.447-2.521-.524-2.667-.077-.146-.306-1.353-.509-2.682s-.423-2.492-.488-2.583c-.066-.092-.296-1.292-.51-2.667-.215-1.375-.438-2.538-.494-2.583-.057-.046-.308-1.246-.557-2.667-.249-1.421-.637-3.633-.861-4.917-.224-1.283-.479-2.52-.565-2.75-.087-.229-.281-1.204-.43-2.166-.15-.963-.348-1.994-.44-2.292l-.168-.542h-4.802c-4.226 0-4.815.032-4.904.264m109.418.611c-.093.482-.261 1.475-.371 2.209-.111.733-.254 1.37-.318 1.416-.064.046-.288 1.209-.498 2.584-.21 1.375-.438 2.575-.506 2.666-.068.092-.289 1.217-.49 2.5-.202 1.284-.433 2.484-.514 2.667-.081.183-.334 1.383-.561 2.667-.929 5.247-1.362 7.509-1.47 7.683-.062.1-.272 1.225-.466 2.5-.195 1.274-.413 2.392-.484 2.483-.072.092-.3 1.292-.508 2.667-.208 1.375-.434 2.575-.504 2.667-.07.091-.291 1.216-.491 2.5-.2 1.283-.424 2.45-.499 2.593-.075.143-.307 1.306-.516 2.583-.209 1.278-.424 2.361-.477 2.407-.053.046-.107.158-.12.25-.261 1.837-.781 4.747-.893 5-.081.183-.306 1.346-.499 2.583-.193 1.238-.423 2.424-.511 2.636-.174.422-.657 3.441-.657 4.113v.418h4.49c2.777 0 4.529-.063 4.592-.165.056-.09.186-.859.289-1.708.102-.849.237-1.581.299-1.627.062-.046.284-1.433.493-3.083.209-1.65.445-3.072.525-3.159.08-.087.147-.349.148-.583.001-.234.047-.594.103-.8l.1-.375h10.78l.089.542c.048.298.207 1.441.352 2.541.145 1.1.327 2.15.406 2.334.078.183.267 1.345.418 2.583.152 1.237.348 2.532.437 2.878l.16.627 4.535-.044 4.534-.044-.025-.584c-.037-.846-.879-5.69-1.058-6.083-.084-.183-.307-1.346-.497-2.583-.189-1.238-.414-2.4-.5-2.584-.085-.183-.313-1.34-.505-2.571-.193-1.23-.412-2.355-.486-2.5-.074-.144-.305-1.387-.514-2.762-.209-1.375-.433-2.538-.497-2.583-.064-.046-.281-1.171-.482-2.5-.201-1.33-.434-2.567-.518-2.75-.084-.184-.309-1.33-.499-2.547-.191-1.218-.417-2.38-.502-2.584-.085-.203-.309-1.382-.498-2.619-.189-1.238-.412-2.4-.496-2.584-.084-.183-.313-1.376-.51-2.65s-.423-2.437-.503-2.583c-.08-.147-.302-1.317-.493-2.6-.191-1.283-.414-2.483-.497-2.667-.082-.183-.307-1.346-.5-2.583-.192-1.238-.415-2.4-.495-2.583-.08-.184-.311-1.384-.513-2.667s-.433-2.405-.514-2.492c-.081-.087-.148-.363-.148-.614s-.073-.648-.162-.883l-.163-.428h-9.651l-.171.875m-83.353 29.585v30.209l11.875-.043 11.875-.042.045-4.209.044-4.208H200.5V73.083h-9.167v30.21m28.834-.001V133.5h11.899c10.696 0 11.909-.027 12-.264.131-.344.131-7.628 0-7.972-.091-.235-.893-.264-7.333-.264h-7.232l-.042-25.922-.042-25.922-4.625-.036-4.625-.037v30.209m33.541-30.164l-4.541.044v60.333l4.625-.044 4.625-.044.042-30.075c.023-16.541-.015-30.116-.084-30.167-.069-.05-2.169-.072-4.667-.047m51.167 0l-4.042.045v29.9c0 16.445.046 30.018.101 30.163.089.232.643.264 4.5.264h4.399v-17.677c0-9.722.062-17.638.138-17.591.076.047.277.558.446 1.135.169.577.394 1.162.499 1.3.105.137.293.587.418 1 .124.412.359 1.05.521 1.416.163.367.46 1.154.662 1.75.201.596.413 1.121.471 1.167.112.09.701 1.871.796 2.409.032.18.116.367.188.417.127.088.671 1.483 1.436 3.681.208.6.466 1.237.572 1.417.106.179.335.738.508 1.243.172.504.589 1.629.926 2.5.337.87.779 2.082.982 2.691.203.61.446 1.21.54 1.334.094.123.273.562.397.975.125.412.36 1.05.522 1.416.163.367.457 1.154.654 1.75.197.596.495 1.384.662 1.75.167.367.399 1.004.517 1.417.117.412.258.787.314.833.088.073.625 1.448 1.221 3.125l.192.542h8.085V73.083l-4.5.047-4.5.047v17.12c0 19.069.08 17.89-1.006 14.703-.203-.596-.433-1.164-.512-1.263-.078-.099-.301-.694-.495-1.322-.194-.628-.449-1.298-.568-1.487-.118-.19-.345-.757-.506-1.261-.16-.505-.357-1.001-.438-1.104-.081-.103-.265-.59-.408-1.083-.144-.493-.357-1.047-.472-1.23-.116-.183-.383-.858-.594-1.5-.211-.642-.431-1.204-.49-1.25-.058-.046-.285-.665-.504-1.375-.22-.71-.449-1.292-.51-1.292s-.248-.468-.416-1.041c-.168-.573-.39-1.154-.494-1.292-.103-.138-.364-.775-.58-1.417-.215-.641-.445-1.241-.51-1.333-.066-.092-.25-.579-.41-1.083-.161-.505-.389-1.073-.508-1.263-.118-.191-.33-.731-.47-1.202-.139-.471-.37-1.102-.511-1.404-.251-.534-.69-1.669-1.566-4.048-.236-.642-.475-1.204-.53-1.25-.056-.046-.241-.553-.412-1.127-.409-1.375-.11-1.296-4.715-1.245m37.337.059c-.162.057-.595.199-.962.317-.975.314-1.523.782-2.128 1.821l-.539.925-.043 26.641c-.043 26.146-.013 27.942.466 27.942.089 0 .161.122.161.27 0 .466 1.417 1.678 2.115 1.809.349.065.688.205.753.312.089.143 2.935.193 11.001.193h10.881l1.13-.391c1.497-.519 2.786-1.793 2.786-2.754 0-.134.094-.275.209-.314.162-.054.219-1.976.258-8.683l.05-8.614-4.717.045-4.716.044-.044 6.292-.044 6.291h-11.162V81h11.162l.044 5.875.044 5.875 4.708.044 4.708.045v-7.648c0-10.179-.346-11.279-3.754-11.937-.688-.133-21.996-.197-22.367-.067m45.08-.062l-12.459.044v29.902c0 16.446.046 30.02.101 30.165.092.238 1.355.264 12.584.264H400V125h-15.667v-18.333h13.334V98.5h-13.334v-17h15.5v-4.25c0-2.338-.018-4.232-.041-4.209-.023.022-5.648.06-12.5.084M170.545 91.429c.169 1.276.352 2.433.407 2.571.095.237.481 2.614 1.53 9.417.254 1.65.508 3.112.563 3.25.093.228.832 5.471.84 5.958.002.115.066.208.143.208.076 0 .139.225.139.5v.5H170c-3.841 0-4.392-.054-4.042-.401.123-.121.647-3.339 1.469-9.015.226-1.559.486-3.059.578-3.334.093-.275.333-1.737.534-3.25.201-1.512.414-2.787.473-2.833.06-.046.284-1.416.499-3.044.468-3.553.624-3.633 1.034-.527m109.288-1.679c0 .412.063.75.139.75.077 0 .31 1.331.517 2.958.208 1.627.436 3.034.507 3.125.07.092.301 1.517.514 3.167.212 1.65.435 3.037.495 3.083.059.046.276 1.388.481 2.981.205 1.594.437 3.019.516 3.167.123.229.666 4.028.665 4.644 0 .161-.932.208-4.101.208-3.338 0-4.086-.041-4.017-.221.047-.121.14-.74.207-1.375.067-.634.173-1.191.237-1.237.124-.09.841-4.956.841-5.708-.001-.252.061-.459.135-.459.075 0 .305-1.293.51-2.875.205-1.581.44-3.025.522-3.208.081-.183.306-1.571.499-3.083.193-1.513.421-2.9.506-3.084.133-.287.494-2.75.494-3.37 0-.117.075-.213.167-.213.091 0 .166.337.166.75"/><path fill="#14cccc" d="M158.708.282c-.481.143-.875.326-.875.406 0 .08-.079.145-.176.145-.369 0-1.144 1.084-1.33 1.859-.106.445-.261.808-.343.808-.087 0-.149 11.036-.149 26.5 0 15.202.063 26.5.147 26.5.081 0 .195.255.254.566.058.312.26.762.447 1 .188.239.292.434.233.434-.455 0 1.225 1.043 2.266 1.407 1.076.376 22.378.382 23.099.006.258-.134.602-.245.764-.245.35-.002 1.788-1.282 1.788-1.592 0-.118.077-.241.171-.272.554-.184.659-1.791.661-10.096l.002-8.208h-9.334v12.667h-11.166V7.833h11.166v11.834H185.684l-.055-8.125c-.055-8.152-.096-8.75-.656-9.456-.074-.093-.323-.405-.553-.692-.23-.288-.775-.7-1.211-.917l-.792-.394L171 .052c-9.934-.027-11.53.003-12.292.23m33.667 29.76l.042 30.041 4.625.045 4.625.044V33.333H213.5v26.834h9.333V0H213.5v24.5h-11.833V0h-9.335l.043 30.042m37.333 0l.042 30.041 4.708.045 4.709.044V0H229.666l.042 30.042m16.459.041v30.084h9.333v-21.65l8.208-.056 8.209-.057.825-.455c1.18-.65 1.564-1.057 2.154-2.282l.521-1.084.048-14.75c.048-14.916-.01-16.735-.552-17.277-.136-.136-.246-.351-.246-.478 0-.128-.295-.523-.654-.879C272.78-.021 273.053 0 258.781 0h-12.614v30.083M284.75.117c-3.298.829-3.445 1.374-3.382 12.53l.049 8.633.541.871c.298.479.544.922.547.985.003.063.538.602 1.189 1.197.65.596 1.379 1.275 1.62 1.508.24.234.898.847 1.463 1.363.564.515.983.981.93 1.033-.053.053-.005.096.106.096s1.08.848 2.153 1.885c1.073 1.036 2.782 2.667 3.797 3.625 1.016.957 2.778 2.619 3.917 3.693 1.138 1.074 2.389 2.249 2.778 2.612l.709.659v11.526H290.5V40.167h-9.167v8.064c0 10.156.12 10.616 3.021 11.581 1.142.381 21.724.567 22.448.204.155-.078.576-.236.937-.351.807-.257 1.614-1.02 2.219-2.098l.459-.817v-9.167c0-8.631-.05-10-.369-10.236-.072-.053-.259-.374-.416-.713-.156-.338-1.131-1.434-2.167-2.435-3.783-3.656-5.227-5.027-5.772-5.479-.307-.254-1.219-1.119-2.028-1.924-.808-.804-1.509-1.463-1.557-1.463-.048 0-.786-.674-1.639-1.498-.854-.824-2.368-2.286-3.366-3.25-.997-.963-1.867-1.752-1.932-1.752-.615 0-.671-.495-.671-5.888V7.667h10.667v11.5h9.333v-7.51c0-7.55-.08-8.759-.613-9.294-.121-.121-.22-.311-.22-.422 0-.306-1.068-1.247-1.782-1.57-.62-.281-22.092-.516-23.135-.254M41.833 9.5V13h9.669l-.043 11.458-.042 11.459-4.792.044-4.792.044v5.657l4.792.044 4.792.044.042 11.458.043 11.459h-9.669v5.666h9.669l-.043 11.459-.042 11.458-4.792.044-4.792.044V99h9.669l-.043 11.458-.042 11.459-4.792.044-4.792.044v7.162h57.334v-7.162l-4.709-.044-4.708-.044-.043-11.459L89.664 99h9.503v-5.661l-4.709-.045-4.708-.044-.043-11.458-.043-11.459h9.503v-5.666h-9.503l.043-11.459.043-11.458 4.708-.044 4.709-.045v-5.656l-4.709-.044-4.708-.044-.043-11.459L89.664 13h9.503V6H41.833v3.5m224.334 9.583v11.25H255.5v-22.5h10.667v11.25m-135.142 2.308c-3.647 1.47-3.738 6.596-.145 8.183 4.645 2.053 8.53-4.166 4.642-7.43-1.334-1.12-2.926-1.387-4.497-.753m-.089 57.354c-1.954.697-3.093 3.066-2.53 5.263 1.274 4.974 8.657 4.048 8.667-1.088.005-3.191-3.055-5.273-6.137-4.175"/><path fill="#24a4b4" d="M70.455 5.958l28.705.043.049 3.541.048 3.541.038-3.625.038-3.625-28.791.042-28.792.041 28.705.042M51.294 24.414l.044 11.414-4.752.048-4.753.048 4.792-.003 4.792-.004.042-11.459C51.483 18.156 51.446 13 51.376 13c-.069 0-.106 5.136-.082 11.414m38.454.086l.002 11.417 4.708.044 4.709.044v5.656l-4.709.045-4.708.044-.043 11.458-.043 11.459h9.503v5.666h-9.503l.043 11.459.043 11.458 4.708.044 4.709.045V99h-9.503l.043 11.458.043 11.459 4.708.044 4.709.044v7.161l-28.667.043-28.667.042h28.709l28.708-.001v-7.333l-4.708-.045-4.709-.044V99.172l4.709-.044 4.708-.045V93.25l-4.708-.044-4.709-.045V70.505l4.709-.044 4.708-.044v-5.834l-4.708-.044-4.709-.044V41.839l4.709-.045 4.708-.044v-5.833l-4.707-.045-4.707-.044-.045-11.372-.044-11.373.001 11.417m3.863-6.556c-.154.155-.14 15.018.014 15.114.069.042.105-3.328.08-7.489l-.045-7.566 7.628-.045 7.629-.045-7.598-.04c-4.178-.022-7.647.01-7.708.071m37.118 3.376c-.378.171-.733.384-.787.473-.055.088.179.032.521-.125.341-.158.808-.367 1.037-.466.229-.099.304-.183.167-.187-.138-.004-.56.133-.938.305m3.188-.064c.275.126.58.232.678.236.347.015 1.588 1.22 1.914 1.859.388.761.543.849.308.175-.349-1.001-2.285-2.543-3.15-2.509-.138.006-.025.113.25.239m-4.797 1.275c-1.142 1.524-1.406 3.511-.655 4.927.503.95.602.9.164-.083-.669-1.504-.42-3.508.577-4.645.278-.316.465-.614.416-.663-.048-.049-.275.16-.502.464m7.293 5.31c-.385.744-1.015 1.302-1.996 1.768-.459.218-.646.351-.417.296 1.055-.254 3.156-2.138 2.791-2.503-.055-.055-.225.143-.378.439m-7.08.909c.216.229.418.417.45.417.032 0-.065-.188-.215-.417-.15-.229-.352-.417-.45-.417-.097 0 0 .188.215.417m.667.511c0 .129 1.362.757 1.524.703.091-.03-.215-.216-.679-.412-.465-.196-.845-.327-.845-.291m2.294.857c.207.04.507.038.666-.003.16-.042-.01-.075-.377-.073-.366.002-.497.036-.289.076M46.583 41.79l4.75.048v22.657l-4.791.047-4.792.047 4.876.039 4.876.039-.043-11.459-.042-11.458-4.792-.004-4.792-.004 4.75.048m-14.339 4.917c-.045.115-.061 3.547-.037 7.626l.043 7.417 7.621.043 7.622.044.091-.377c.051-.207.071-3.639.046-7.627l-.047-7.25-7.629-.043c-6.015-.034-7.647.001-7.71.167m15.216 7.418l-.043 7.458-7.542.044-7.542.043V46.667h15.17l-.043 7.458m-.918 16.333l4.791.047v22.657l-4.75.048-4.75.048 4.792-.004 4.792-.004.042-11.458.043-11.459-4.876.039-4.876.039 4.792.047m47.034 4.917c-.044.115-.06 3.546-.036 7.625l.043 7.417 7.584.002 7.583.003-7.542-.046-7.541-.046V75.337l7.625-.045 7.625-.045-7.631-.04c-5.98-.032-7.647.005-7.71.168m37.299 3.199c-.771.346-.67.432.167.142.731-.254 2.714-.235 3.375.032.28.113.298.097.117-.098-.317-.341-2.95-.395-3.659-.076m-1.535 1.105c-1.222 1.259-1.632 3.259-1.007 4.903.287.756.325.405.063-.582-.425-1.599-.025-3.095 1.147-4.292.381-.389.64-.708.575-.708-.065 0-.415.306-.778.679m6.35-.08c.334.358.768.951.964 1.318.215.401.313.501.247.25-.142-.541-.94-1.633-1.432-1.961-.236-.158-.15-.005.221.393m.67 5.656c-.361.604-.79 1.052-1.285 1.342-.765.448-1.033.731-.367.388 1.019-.525 2.559-2.274 2.264-2.569-.038-.038-.313.34-.612.839m-7.538.189c.217.449 1.423 1.494 1.855 1.607.508.133.38-.015-.321-.373-.354-.18-.883-.613-1.176-.961-.293-.349-.454-.472-.358-.273M46.543 99.125l4.793.047-.043 11.289-.043 11.289-4.75.089-4.75.088 4.833-.005 4.834-.005.042-11.459L51.502 99l-4.876.039-4.876.039 4.793.047m-14.339 12.323c-.021 4.143.019 7.567.088 7.61.113.07.111-5.668-.005-12.475-.025-1.466-.063.723-.083 4.865m15.336-.17c-.022 4.049-.083 7.499-.136 7.667-.086.275-.078.277.085.025.125-.193.167-2.563.136-7.667l-.045-7.386-.04 7.361"/></g></svg>