<svg width="1200" height="626" viewBox="0 0 1200 626" fill="none" xmlns="http://www.w3.org/2000/svg">
<rect width="1200" height="626" fill="#332D37"/>
<rect x="161.5" y="73.5" width="843" height="444" stroke="white" stroke-width="3" stroke-dasharray="10 10"/>
<rect x="218.5" y="198.5" width="99" height="55" rx="8.5" stroke="white" stroke-width="3"/>
<rect x="359.5" y="392.5" width="181" height="83" rx="8.5" stroke="white" stroke-width="3"/>
<path d="M243.787 228.644C243.787 231.29 245.641 233.216 248.287 233.216C249.979 233.216 251.005 232.496 251.617 231.668L250.375 230.516C249.889 231.182 249.223 231.542 248.377 231.542C246.793 231.542 245.749 230.336 245.749 228.644C245.749 226.952 246.793 225.764 248.377 225.764C249.223 225.764 249.889 226.106 250.375 226.79L251.617 225.638C251.005 224.81 249.979 224.09 248.287 224.09C245.641 224.09 243.787 226.016 243.787 228.644ZM258.584 233H260.474V227.24C260.474 224.9 258.782 224.09 256.856 224.09C255.47 224.09 254.21 224.54 253.202 225.494L253.976 226.808C254.732 226.07 255.578 225.71 256.55 225.71C257.756 225.71 258.584 226.322 258.584 227.33V228.626C257.954 227.888 256.946 227.51 255.776 227.51C254.354 227.51 252.752 228.338 252.752 230.336C252.752 232.262 254.354 233.216 255.776 233.216C256.928 233.216 257.936 232.802 258.584 232.064V233ZM258.584 231.02C258.152 231.614 257.342 231.92 256.514 231.92C255.452 231.92 254.66 231.308 254.66 230.372C254.66 229.418 255.452 228.806 256.514 228.806C257.342 228.806 258.152 229.112 258.584 229.706V231.02ZM262.384 228.644C262.384 231.29 264.238 233.216 266.884 233.216C268.576 233.216 269.602 232.496 270.214 231.668L268.972 230.516C268.486 231.182 267.82 231.542 266.974 231.542C265.39 231.542 264.346 230.336 264.346 228.644C264.346 226.952 265.39 225.764 266.974 225.764C267.82 225.764 268.486 226.106 268.972 226.79L270.214 225.638C269.602 224.81 268.576 224.09 266.884 224.09C264.238 224.09 262.384 226.016 262.384 228.644ZM277.757 233H279.647V226.844C279.647 225.062 278.711 224.09 276.839 224.09C275.471 224.09 274.337 224.81 273.761 225.494V220.994H271.871V233H273.761V226.934C274.211 226.34 275.039 225.764 275.993 225.764C277.055 225.764 277.757 226.178 277.757 227.528V233ZM281.562 228.644C281.562 231.398 283.506 233.216 286.116 233.216C287.502 233.216 288.78 232.784 289.644 231.956L288.78 230.714C288.168 231.326 287.16 231.668 286.314 231.668C284.676 231.668 283.686 230.588 283.542 229.274H290.256V228.824C290.256 226.088 288.582 224.09 285.972 224.09C283.398 224.09 281.562 226.124 281.562 228.644ZM285.972 225.638C287.682 225.638 288.384 226.916 288.42 227.942H283.524C283.614 226.88 284.352 225.638 285.972 225.638Z" fill="white"/>
<rect x="563.5" y="115.5" width="219" height="61" rx="8.5" stroke="white" stroke-width="3"/>
<path d="M606.352 152H608.242V145.88C608.242 144.098 607.306 143.09 605.434 143.09C604.066 143.09 602.95 143.81 602.374 144.494V143.306H600.484V152H602.374V145.934C602.806 145.34 603.634 144.764 604.606 144.764C605.668 144.764 606.352 145.214 606.352 146.564V152ZM610.157 147.644C610.157 150.398 612.101 152.216 614.711 152.216C616.097 152.216 617.375 151.784 618.239 150.956L617.375 149.714C616.763 150.326 615.755 150.668 614.909 150.668C613.271 150.668 612.281 149.588 612.137 148.274H618.851V147.824C618.851 145.088 617.177 143.09 614.567 143.09C611.993 143.09 610.157 145.124 610.157 147.644ZM614.567 144.638C616.277 144.638 616.979 145.916 617.015 146.942H612.119C612.209 145.88 612.947 144.638 614.567 144.638ZM626.026 152H627.916V146.24C627.916 143.9 626.224 143.09 624.298 143.09C622.912 143.09 621.652 143.54 620.644 144.494L621.418 145.808C622.174 145.07 623.02 144.71 623.992 144.71C625.198 144.71 626.026 145.322 626.026 146.33V147.626C625.396 146.888 624.388 146.51 623.218 146.51C621.796 146.51 620.194 147.338 620.194 149.336C620.194 151.262 621.796 152.216 623.218 152.216C624.37 152.216 625.378 151.802 626.026 151.064V152ZM626.026 150.02C625.594 150.614 624.784 150.92 623.956 150.92C622.894 150.92 622.102 150.308 622.102 149.372C622.102 148.418 622.894 147.806 623.956 147.806C624.784 147.806 625.594 148.112 626.026 148.706V150.02ZM630.367 152H632.257V146.078C632.635 145.466 633.697 144.926 634.489 144.926C634.723 144.926 634.921 144.944 635.083 144.98V143.108C633.949 143.108 632.905 143.756 632.257 144.584V143.306H630.367V152ZM636.067 147.644C636.067 150.398 638.011 152.216 640.621 152.216C642.007 152.216 643.285 151.784 644.149 150.956L643.285 149.714C642.673 150.326 641.665 150.668 640.819 150.668C639.181 150.668 638.191 149.588 638.047 148.274H644.761V147.824C644.761 145.088 643.087 143.09 640.477 143.09C637.903 143.09 636.067 145.124 636.067 147.644ZM640.477 144.638C642.187 144.638 642.889 145.916 642.925 146.942H638.029C638.119 145.88 638.857 144.638 640.477 144.638ZM645.87 150.866C646.77 151.748 648.12 152.216 649.596 152.216C651.936 152.216 653.214 151.046 653.214 149.516C653.214 147.464 651.36 147.032 649.848 146.708C648.822 146.474 647.958 146.24 647.958 145.574C647.958 144.962 648.588 144.602 649.578 144.602C650.658 144.602 651.63 145.052 652.152 145.646L652.944 144.314C652.152 143.612 651.036 143.09 649.56 143.09C647.364 143.09 646.14 144.314 646.14 145.736C646.14 147.68 647.922 148.076 649.416 148.4C650.478 148.634 651.396 148.904 651.396 149.66C651.396 150.308 650.82 150.722 649.686 150.722C648.552 150.722 647.346 150.128 646.734 149.498L645.87 150.866ZM657.727 152.216C658.609 152.216 659.167 151.982 659.509 151.658L659.059 150.236C658.915 150.398 658.573 150.542 658.213 150.542C657.673 150.542 657.385 150.11 657.385 149.516V144.962H659.149V143.306H657.385V140.93H655.495V143.306H654.055V144.962H655.495V149.984C655.495 151.424 656.269 152.216 657.727 152.216ZM671.356 152H673.246V145.88C673.246 144.098 672.31 143.09 670.438 143.09C669.07 143.09 667.954 143.81 667.378 144.494V143.306H665.488V152H667.378V145.934C667.81 145.34 668.638 144.764 669.61 144.764C670.672 144.764 671.356 145.214 671.356 146.564V152ZM675.161 147.644C675.161 150.398 677.105 152.216 679.715 152.216C681.101 152.216 682.379 151.784 683.243 150.956L682.379 149.714C681.767 150.326 680.759 150.668 679.913 150.668C678.275 150.668 677.285 149.588 677.141 148.274H683.855V147.824C683.855 145.088 682.181 143.09 679.571 143.09C676.997 143.09 675.161 145.124 675.161 147.644ZM679.571 144.638C681.281 144.638 681.983 145.916 682.019 146.942H677.123C677.213 145.88 677.951 144.638 679.571 144.638ZM686.656 141.866C687.304 141.866 687.826 141.344 687.826 140.696C687.826 140.048 687.304 139.526 686.656 139.526C686.026 139.526 685.486 140.048 685.486 140.696C685.486 141.344 686.026 141.866 686.656 141.866ZM685.72 152H687.61V143.306H685.72V152ZM689.954 154.232C691.016 155.204 692.114 155.528 693.59 155.528C695.732 155.528 698.054 154.682 698.054 151.55V143.306H696.164V144.512C695.462 143.594 694.472 143.09 693.374 143.09C691.142 143.09 689.522 144.746 689.522 147.554C689.522 150.416 691.16 152.018 693.374 152.018C694.508 152.018 695.498 151.442 696.164 150.578V151.622C696.164 153.404 694.832 153.98 693.59 153.98C692.438 153.98 691.538 153.674 690.836 152.864L689.954 154.232ZM696.164 149.174C695.75 149.822 694.814 150.344 693.932 150.344C692.438 150.344 691.484 149.228 691.484 147.554C691.484 145.88 692.438 144.764 693.932 144.764C694.814 144.764 695.75 145.286 696.164 145.934V149.174ZM706.389 152H708.279V145.844C708.279 144.062 707.343 143.09 705.471 143.09C704.103 143.09 702.969 143.81 702.393 144.494V139.994H700.503V152H702.393V145.934C702.843 145.34 703.671 144.764 704.625 144.764C705.687 144.764 706.389 145.178 706.389 146.528V152ZM710.734 152H712.624V150.812C713.29 151.676 714.28 152.216 715.414 152.216C717.628 152.216 719.266 150.524 719.266 147.662C719.266 144.854 717.646 143.09 715.414 143.09C714.316 143.09 713.308 143.594 712.624 144.512V139.994H710.734V152ZM712.624 149.39V145.952C713.038 145.304 713.974 144.764 714.856 144.764C716.368 144.764 717.322 145.97 717.322 147.662C717.322 149.354 716.368 150.542 714.856 150.542C713.974 150.542 713.038 150.038 712.624 149.39ZM725.117 152.216C727.907 152.216 729.599 150.146 729.599 147.644C729.599 145.16 727.907 143.09 725.117 143.09C722.363 143.09 720.653 145.16 720.653 147.644C720.653 150.146 722.363 152.216 725.117 152.216ZM725.117 150.542C723.515 150.542 722.615 149.192 722.615 147.644C722.615 146.114 723.515 144.764 725.117 144.764C726.737 144.764 727.637 146.114 727.637 147.644C727.637 149.192 726.737 150.542 725.117 150.542ZM737.379 152H739.269V143.306H737.379V149.408C736.929 150.002 736.101 150.542 735.147 150.542C734.085 150.542 733.401 150.128 733.401 148.778V143.306H731.511V149.462C731.511 151.244 732.429 152.216 734.301 152.216C735.669 152.216 736.749 151.55 737.379 150.848V152ZM741.724 152H743.614V146.078C743.992 145.466 745.054 144.926 745.846 144.926C746.08 144.926 746.278 144.944 746.44 144.98V143.108C745.306 143.108 744.262 143.756 743.614 144.584V143.306H741.724V152Z" fill="white"/>
<rect x="563.5" y="195.5" width="219" height="61" rx="8.5" stroke="white" stroke-width="3"/>
<path d="M644.42 232H646.31V230.812C646.976 231.676 647.966 232.216 649.1 232.216C651.314 232.216 652.952 230.524 652.952 227.662C652.952 224.854 651.332 223.09 649.1 223.09C648.002 223.09 646.994 223.594 646.31 224.512V219.994H644.42V232ZM646.31 229.39V225.952C646.724 225.304 647.66 224.764 648.542 224.764C650.054 224.764 651.008 225.97 651.008 227.662C651.008 229.354 650.054 230.542 648.542 230.542C647.66 230.542 646.724 230.038 646.31 229.39ZM655.815 221.866C656.463 221.866 656.985 221.344 656.985 220.696C656.985 220.048 656.463 219.526 655.815 219.526C655.185 219.526 654.645 220.048 654.645 220.696C654.645 221.344 655.185 221.866 655.815 221.866ZM654.879 232H656.769V223.306H654.879V232ZM659.221 232H661.111V219.994H659.221V232ZM664.499 221.866C665.147 221.866 665.669 221.344 665.669 220.696C665.669 220.048 665.147 219.526 664.499 219.526C663.869 219.526 663.329 220.048 663.329 220.696C663.329 221.344 663.869 221.866 664.499 221.866ZM663.563 232H665.453V223.306H663.563V232ZM673.773 232H675.663V225.88C675.663 224.098 674.727 223.09 672.855 223.09C671.487 223.09 670.371 223.81 669.795 224.494V223.306H667.905V232H669.795V225.934C670.227 225.34 671.055 224.764 672.027 224.764C673.089 224.764 673.773 225.214 673.773 226.564V232ZM677.578 227.644C677.578 230.398 679.522 232.216 682.132 232.216C683.518 232.216 684.796 231.784 685.66 230.956L684.796 229.714C684.184 230.326 683.176 230.668 682.33 230.668C680.692 230.668 679.702 229.588 679.558 228.274H686.272V227.824C686.272 225.088 684.598 223.09 681.988 223.09C679.414 223.09 677.578 225.124 677.578 227.644ZM681.988 224.638C683.698 224.638 684.4 225.916 684.436 226.942H679.54C679.63 225.88 680.368 224.638 681.988 224.638ZM693.447 232H695.337V226.24C695.337 223.9 693.645 223.09 691.719 223.09C690.333 223.09 689.073 223.54 688.065 224.494L688.839 225.808C689.595 225.07 690.441 224.71 691.413 224.71C692.619 224.71 693.447 225.322 693.447 226.33V227.626C692.817 226.888 691.809 226.51 690.639 226.51C689.217 226.51 687.615 227.338 687.615 229.336C687.615 231.262 689.217 232.216 690.639 232.216C691.791 232.216 692.799 231.802 693.447 231.064V232ZM693.447 230.02C693.015 230.614 692.205 230.92 691.377 230.92C690.315 230.92 689.523 230.308 689.523 229.372C689.523 228.418 690.315 227.806 691.377 227.806C692.205 227.806 693.015 228.112 693.447 228.706V230.02ZM697.787 232H699.677V226.078C700.055 225.466 701.117 224.926 701.909 224.926C702.143 224.926 702.341 224.944 702.503 224.98V223.108C701.369 223.108 700.325 223.756 699.677 224.584V223.306H697.787V232Z" fill="white"/>
<rect x="563.5" y="275.5" width="219" height="61" rx="8.5" stroke="white" stroke-width="3"/>
<path d="M617.786 307.644C617.786 310.398 619.73 312.216 622.34 312.216C623.726 312.216 625.004 311.784 625.868 310.956L625.004 309.714C624.392 310.326 623.384 310.668 622.538 310.668C620.9 310.668 619.91 309.588 619.766 308.274H626.48V307.824C626.48 305.088 624.806 303.09 622.196 303.09C619.622 303.09 617.786 305.124 617.786 307.644ZM622.196 304.638C623.906 304.638 624.608 305.916 624.644 306.942H619.748C619.838 305.88 620.576 304.638 622.196 304.638ZM634.465 312H636.355V299.994H634.465V304.512C633.763 303.594 632.755 303.09 631.675 303.09C629.425 303.09 627.805 304.854 627.805 307.662C627.805 310.524 629.443 312.216 631.675 312.216C632.791 312.216 633.799 311.676 634.465 310.812V312ZM634.465 309.39C634.033 310.038 633.115 310.542 632.215 310.542C630.721 310.542 629.767 309.336 629.767 307.662C629.767 305.97 630.721 304.764 632.215 304.764C633.115 304.764 634.033 305.286 634.465 305.934V309.39ZM638.696 314.232C639.758 315.204 640.856 315.528 642.332 315.528C644.474 315.528 646.796 314.682 646.796 311.55V303.306H644.906V304.512C644.204 303.594 643.214 303.09 642.116 303.09C639.884 303.09 638.264 304.746 638.264 307.554C638.264 310.416 639.902 312.018 642.116 312.018C643.25 312.018 644.24 311.442 644.906 310.578V311.622C644.906 313.404 643.574 313.98 642.332 313.98C641.18 313.98 640.28 313.674 639.578 312.864L638.696 314.232ZM644.906 309.174C644.492 309.822 643.556 310.344 642.674 310.344C641.18 310.344 640.226 309.228 640.226 307.554C640.226 305.88 641.18 304.764 642.674 304.764C643.556 304.764 644.492 305.286 644.906 305.934V309.174ZM648.705 307.644C648.705 310.398 650.649 312.216 653.259 312.216C654.645 312.216 655.923 311.784 656.787 310.956L655.923 309.714C655.311 310.326 654.303 310.668 653.457 310.668C651.819 310.668 650.829 309.588 650.685 308.274H657.399V307.824C657.399 305.088 655.725 303.09 653.115 303.09C650.541 303.09 648.705 305.124 648.705 307.644ZM653.115 304.638C654.825 304.638 655.527 305.916 655.563 306.942H650.667C650.757 305.88 651.495 304.638 653.115 304.638ZM670.008 312H671.898V299.994H670.008V304.512C669.306 303.594 668.298 303.09 667.218 303.09C664.968 303.09 663.348 304.854 663.348 307.662C663.348 310.524 664.986 312.216 667.218 312.216C668.334 312.216 669.342 311.676 670.008 310.812V312ZM670.008 309.39C669.576 310.038 668.658 310.542 667.758 310.542C666.264 310.542 665.31 309.336 665.31 307.662C665.31 305.97 666.264 304.764 667.758 304.764C668.658 304.764 669.576 305.286 670.008 305.934V309.39ZM675.283 301.866C675.931 301.866 676.453 301.344 676.453 300.696C676.453 300.048 675.931 299.526 675.283 299.526C674.653 299.526 674.113 300.048 674.113 300.696C674.113 301.344 674.653 301.866 675.283 301.866ZM674.347 312H676.237V303.306H674.347V312ZM678.689 312H680.579V306.078C680.957 305.466 682.019 304.926 682.811 304.926C683.045 304.926 683.243 304.944 683.405 304.98V303.108C682.271 303.108 681.227 303.756 680.579 304.584V303.306H678.689V312ZM684.389 307.644C684.389 310.398 686.333 312.216 688.943 312.216C690.329 312.216 691.607 311.784 692.471 310.956L691.607 309.714C690.995 310.326 689.987 310.668 689.141 310.668C687.503 310.668 686.513 309.588 686.369 308.274H693.083V307.824C693.083 305.088 691.409 303.09 688.799 303.09C686.225 303.09 684.389 305.124 684.389 307.644ZM688.799 304.638C690.509 304.638 691.211 305.916 691.247 306.942H686.351C686.441 305.88 687.179 304.638 688.799 304.638ZM694.409 307.644C694.409 310.29 696.263 312.216 698.909 312.216C700.601 312.216 701.627 311.496 702.239 310.668L700.997 309.516C700.511 310.182 699.845 310.542 698.999 310.542C697.415 310.542 696.371 309.336 696.371 307.644C696.371 305.952 697.415 304.764 698.999 304.764C699.845 304.764 700.511 305.106 700.997 305.79L702.239 304.638C701.627 303.81 700.601 303.09 698.909 303.09C696.263 303.09 694.409 305.016 694.409 307.644ZM706.506 312.216C707.388 312.216 707.946 311.982 708.288 311.658L707.838 310.236C707.694 310.398 707.352 310.542 706.992 310.542C706.452 310.542 706.164 310.11 706.164 309.516V304.962H707.928V303.306H706.164V300.93H704.274V303.306H702.834V304.962H704.274V309.984C704.274 311.424 705.048 312.216 706.506 312.216ZM709.104 307.644C709.104 310.398 711.048 312.216 713.658 312.216C715.044 312.216 716.322 311.784 717.186 310.956L716.322 309.714C715.71 310.326 714.702 310.668 713.856 310.668C712.218 310.668 711.228 309.588 711.084 308.274H717.798V307.824C717.798 305.088 716.124 303.09 713.514 303.09C710.94 303.09 709.104 305.124 709.104 307.644ZM713.514 304.638C715.224 304.638 715.926 305.916 715.962 306.942H711.066C711.156 305.88 711.894 304.638 713.514 304.638ZM725.783 312H727.673V299.994H725.783V304.512C725.081 303.594 724.073 303.09 722.993 303.09C720.743 303.09 719.123 304.854 719.123 307.662C719.123 310.524 720.761 312.216 722.993 312.216C724.109 312.216 725.117 311.676 725.783 310.812V312ZM725.783 309.39C725.351 310.038 724.433 310.542 723.533 310.542C722.039 310.542 721.085 309.336 721.085 307.662C721.085 305.97 722.039 304.764 723.533 304.764C724.433 304.764 725.351 305.286 725.783 305.934V309.39Z" fill="white"/>
<path d="M74.182 222H76.072V216.078C76.45 215.466 77.512 214.926 78.304 214.926C78.538 214.926 78.736 214.944 78.898 214.98V213.108C77.764 213.108 76.72 213.756 76.072 214.584V213.306H74.182V222ZM85.7322 222H87.6222V216.24C87.6222 213.9 85.9302 213.09 84.0042 213.09C82.6182 213.09 81.3582 213.54 80.3502 214.494L81.1242 215.808C81.8802 215.07 82.7262 214.71 83.6982 214.71C84.9042 214.71 85.7322 215.322 85.7322 216.33V217.626C85.1022 216.888 84.0942 216.51 82.9242 216.51C81.5022 216.51 79.9002 217.338 79.9002 219.336C79.9002 221.262 81.5022 222.216 82.9242 222.216C84.0762 222.216 85.0842 221.802 85.7322 221.064V222ZM85.7322 220.02C85.3002 220.614 84.4902 220.92 83.6622 220.92C82.6002 220.92 81.8082 220.308 81.8082 219.372C81.8082 218.418 82.6002 217.806 83.6622 217.806C84.4902 217.806 85.3002 218.112 85.7322 218.706V220.02ZM97.6506 222H99.6306L102.331 213.306H100.369L98.5326 219.624L96.4626 213.306H94.8066L92.7366 219.624L90.9006 213.306H88.9386L91.6386 222H93.6186L95.6346 215.628L97.6506 222ZM79.5901 244H81.4801V231.994H79.5901V236.512C78.8881 235.594 77.8801 235.09 76.8001 235.09C74.5501 235.09 72.9301 236.854 72.9301 239.662C72.9301 242.524 74.5681 244.216 76.8001 244.216C77.9161 244.216 78.9241 243.676 79.5901 242.812V244ZM79.5901 241.39C79.1581 242.038 78.2401 242.542 77.3401 242.542C75.8461 242.542 74.8921 241.336 74.8921 239.662C74.8921 237.97 75.8461 236.764 77.3401 236.764C78.2401 236.764 79.1581 237.286 79.5901 237.934V241.39ZM89.2391 244H91.1291V238.24C91.1291 235.9 89.4371 235.09 87.5111 235.09C86.1251 235.09 84.8651 235.54 83.8571 236.494L84.6311 237.808C85.3871 237.07 86.2331 236.71 87.2051 236.71C88.4111 236.71 89.2391 237.322 89.2391 238.33V239.626C88.6091 238.888 87.6011 238.51 86.4311 238.51C85.0091 238.51 83.4071 239.338 83.4071 241.336C83.4071 243.262 85.0091 244.216 86.4311 244.216C87.5831 244.216 88.5911 243.802 89.2391 243.064V244ZM89.2391 242.02C88.8071 242.614 87.9971 242.92 87.1691 242.92C86.1071 242.92 85.3151 242.308 85.3151 241.372C85.3151 240.418 86.1071 239.806 87.1691 239.806C87.9971 239.806 88.8071 240.112 89.2391 240.706V242.02ZM96.1895 244.216C97.0715 244.216 97.6295 243.982 97.9715 243.658L97.5215 242.236C97.3775 242.398 97.0355 242.542 96.6755 242.542C96.1355 242.542 95.8475 242.11 95.8475 241.516V236.962H97.6115V235.306H95.8475V232.93H93.9575V235.306H92.5175V236.962H93.9575V241.984C93.9575 243.424 94.7315 244.216 96.1895 244.216ZM104.638 244H106.528V238.24C106.528 235.9 104.836 235.09 102.91 235.09C101.524 235.09 100.264 235.54 99.2555 236.494L100.03 237.808C100.786 237.07 101.632 236.71 102.604 236.71C103.81 236.71 104.638 237.322 104.638 238.33V239.626C104.008 238.888 103 238.51 101.83 238.51C100.408 238.51 98.8055 239.338 98.8055 241.336C98.8055 243.262 100.408 244.216 101.83 244.216C102.982 244.216 103.99 243.802 104.638 243.064V244ZM104.638 242.02C104.206 242.614 103.396 242.92 102.568 242.92C101.506 242.92 100.714 242.308 100.714 241.372C100.714 240.418 101.506 239.806 102.568 239.806C103.396 239.806 104.206 240.112 104.638 240.706V242.02Z" fill="white"/>
<path d="M403.899 568H406.149L409.569 555.994H407.211L404.889 565.246L402.405 555.994H400.731L398.247 565.246L395.907 555.994H393.549L396.987 568H399.237L401.559 559.144L403.899 568ZM411.861 557.866C412.509 557.866 413.031 557.344 413.031 556.696C413.031 556.048 412.509 555.526 411.861 555.526C411.231 555.526 410.691 556.048 410.691 556.696C410.691 557.344 411.231 557.866 411.861 557.866ZM410.925 568H412.815V559.306H410.925V568ZM414.511 566.866C415.411 567.748 416.761 568.216 418.237 568.216C420.577 568.216 421.855 567.046 421.855 565.516C421.855 563.464 420.001 563.032 418.489 562.708C417.463 562.474 416.599 562.24 416.599 561.574C416.599 560.962 417.229 560.602 418.219 560.602C419.299 560.602 420.271 561.052 420.793 561.646L421.585 560.314C420.793 559.612 419.677 559.09 418.201 559.09C416.005 559.09 414.781 560.314 414.781 561.736C414.781 563.68 416.563 564.076 418.057 564.4C419.119 564.634 420.037 564.904 420.037 565.66C420.037 566.308 419.461 566.722 418.327 566.722C417.193 566.722 415.987 566.128 415.375 565.498L414.511 566.866ZM429.643 568H431.533V561.844C431.533 560.062 430.597 559.09 428.725 559.09C427.357 559.09 426.223 559.81 425.647 560.494V555.994H423.757V568H425.647V561.934C426.097 561.34 426.925 560.764 427.879 560.764C428.941 560.764 429.643 561.178 429.643 562.528V568ZM433.988 568H435.878V566.812C436.544 567.676 437.534 568.216 438.668 568.216C440.882 568.216 442.52 566.524 442.52 563.662C442.52 560.854 440.9 559.09 438.668 559.09C437.57 559.09 436.562 559.594 435.878 560.512V555.994H433.988V568ZM435.878 565.39V561.952C436.292 561.304 437.228 560.764 438.11 560.764C439.622 560.764 440.576 561.97 440.576 563.662C440.576 565.354 439.622 566.542 438.11 566.542C437.228 566.542 436.292 566.038 435.878 565.39ZM448.371 568.216C451.161 568.216 452.853 566.146 452.853 563.644C452.853 561.16 451.161 559.09 448.371 559.09C445.617 559.09 443.907 561.16 443.907 563.644C443.907 566.146 445.617 568.216 448.371 568.216ZM448.371 566.542C446.769 566.542 445.869 565.192 445.869 563.644C445.869 562.114 446.769 560.764 448.371 560.764C449.991 560.764 450.891 562.114 450.891 563.644C450.891 565.192 449.991 566.542 448.371 566.542ZM460.633 568H462.523V561.88C462.523 560.098 461.587 559.09 459.715 559.09C458.347 559.09 457.231 559.81 456.655 560.494V559.306H454.765V568H456.655V561.934C457.087 561.34 457.915 560.764 458.887 560.764C459.949 560.764 460.633 561.214 460.633 562.564V568ZM464.438 563.644C464.438 566.398 466.382 568.216 468.992 568.216C470.378 568.216 471.656 567.784 472.52 566.956L471.656 565.714C471.044 566.326 470.036 566.668 469.19 566.668C467.552 566.668 466.562 565.588 466.418 564.274H473.132V563.824C473.132 561.088 471.458 559.09 468.848 559.09C466.274 559.09 464.438 561.124 464.438 563.644ZM468.848 560.638C470.558 560.638 471.26 561.916 471.296 562.942H466.4C466.49 561.88 467.228 560.638 468.848 560.638ZM479.62 568H481.51V566.812C482.176 567.676 483.166 568.216 484.3 568.216C486.514 568.216 488.152 566.524 488.152 563.662C488.152 560.854 486.532 559.09 484.3 559.09C483.202 559.09 482.194 559.594 481.51 560.512V555.994H479.62V568ZM481.51 565.39V561.952C481.924 561.304 482.86 560.764 483.742 560.764C485.254 560.764 486.208 561.97 486.208 563.662C486.208 565.354 485.254 566.542 483.742 566.542C482.86 566.542 481.924 566.038 481.51 565.39ZM495.947 568H497.837V559.306H495.947V565.408C495.497 566.002 494.669 566.542 493.715 566.542C492.653 566.542 491.969 566.128 491.969 564.778V559.306H490.079V565.462C490.079 567.244 490.997 568.216 492.869 568.216C494.237 568.216 495.317 567.55 495.947 566.848V568ZM499.536 566.866C500.436 567.748 501.786 568.216 503.262 568.216C505.602 568.216 506.88 567.046 506.88 565.516C506.88 563.464 505.026 563.032 503.514 562.708C502.488 562.474 501.624 562.24 501.624 561.574C501.624 560.962 502.254 560.602 503.244 560.602C504.324 560.602 505.296 561.052 505.818 561.646L506.61 560.314C505.818 559.612 504.702 559.09 503.226 559.09C501.03 559.09 499.806 560.314 499.806 561.736C499.806 563.68 501.588 564.076 503.082 564.4C504.144 564.634 505.062 564.904 505.062 565.66C505.062 566.308 504.486 566.722 503.352 566.722C502.218 566.722 501.012 566.128 500.4 565.498L499.536 566.866Z" fill="white"/>
<path d="M397.922 424.644C397.922 427.29 399.776 429.216 402.422 429.216C404.114 429.216 405.14 428.496 405.752 427.668L404.51 426.516C404.024 427.182 403.358 427.542 402.512 427.542C400.928 427.542 399.884 426.336 399.884 424.644C399.884 422.952 400.928 421.764 402.512 421.764C403.358 421.764 404.024 422.106 404.51 422.79L405.752 421.638C405.14 420.81 404.114 420.09 402.422 420.09C399.776 420.09 397.922 422.016 397.922 424.644ZM411.334 429.216C414.124 429.216 415.816 427.146 415.816 424.644C415.816 422.16 414.124 420.09 411.334 420.09C408.58 420.09 406.87 422.16 406.87 424.644C406.87 427.146 408.58 429.216 411.334 429.216ZM411.334 427.542C409.732 427.542 408.832 426.192 408.832 424.644C408.832 423.114 409.732 421.764 411.334 421.764C412.954 421.764 413.854 423.114 413.854 424.644C413.854 426.192 412.954 427.542 411.334 427.542ZM423.596 429H425.486V422.88C425.486 421.098 424.55 420.09 422.678 420.09C421.31 420.09 420.194 420.81 419.618 421.494V420.306H417.728V429H419.618V422.934C420.05 422.34 420.878 421.764 421.85 421.764C422.912 421.764 423.596 422.214 423.596 423.564V429ZM434.421 418.866C435.069 418.866 435.591 418.344 435.591 417.696C435.591 417.048 435.069 416.526 434.421 416.526C433.791 416.526 433.251 417.048 433.251 417.696C433.251 418.344 433.791 418.866 434.421 418.866ZM428.391 429H430.281V421.962H432.045V420.306H430.281V419.82C430.281 418.848 430.749 418.362 431.487 418.362C431.811 418.362 432.063 418.434 432.243 418.56L432.657 417.156C432.279 416.94 431.739 416.814 431.145 416.814C429.543 416.814 428.391 417.876 428.391 419.82V420.306H426.951V421.962H428.391V429ZM433.485 429H435.375V420.306H433.485V429ZM437.712 431.232C438.774 432.204 439.872 432.528 441.348 432.528C443.49 432.528 445.812 431.682 445.812 428.55V420.306H443.922V421.512C443.22 420.594 442.23 420.09 441.132 420.09C438.9 420.09 437.28 421.746 437.28 424.554C437.28 427.416 438.918 429.018 441.132 429.018C442.266 429.018 443.256 428.442 443.922 427.578V428.622C443.922 430.404 442.59 430.98 441.348 430.98C440.196 430.98 439.296 430.674 438.594 429.864L437.712 431.232ZM443.922 426.174C443.508 426.822 442.572 427.344 441.69 427.344C440.196 427.344 439.242 426.228 439.242 424.554C439.242 422.88 440.196 421.764 441.69 421.764C442.572 421.764 443.508 422.286 443.922 422.934V426.174ZM454.129 429H456.019V420.306H454.129V426.408C453.679 427.002 452.851 427.542 451.897 427.542C450.835 427.542 450.151 427.128 450.151 425.778V420.306H448.261V426.462C448.261 428.244 449.179 429.216 451.051 429.216C452.419 429.216 453.499 428.55 454.129 427.848V429ZM458.474 429H460.364V423.078C460.742 422.466 461.804 421.926 462.596 421.926C462.83 421.926 463.028 421.944 463.19 421.98V420.108C462.056 420.108 461.012 420.756 460.364 421.584V420.306H458.474V429ZM470.024 429H471.914V423.24C471.914 420.9 470.222 420.09 468.296 420.09C466.91 420.09 465.65 420.54 464.642 421.494L465.416 422.808C466.172 422.07 467.018 421.71 467.99 421.71C469.196 421.71 470.024 422.322 470.024 423.33V424.626C469.394 423.888 468.386 423.51 467.216 423.51C465.794 423.51 464.192 424.338 464.192 426.336C464.192 428.262 465.794 429.216 467.216 429.216C468.368 429.216 469.376 428.802 470.024 428.064V429ZM470.024 427.02C469.592 427.614 468.782 427.92 467.954 427.92C466.892 427.92 466.1 427.308 466.1 426.372C466.1 425.418 466.892 424.806 467.954 424.806C468.782 424.806 469.592 425.112 470.024 425.706V427.02ZM476.975 429.216C477.857 429.216 478.415 428.982 478.757 428.658L478.307 427.236C478.163 427.398 477.821 427.542 477.461 427.542C476.921 427.542 476.633 427.11 476.633 426.516V421.962H478.397V420.306H476.633V417.93H474.743V420.306H473.303V421.962H474.743V426.984C474.743 428.424 475.517 429.216 476.975 429.216ZM481.049 418.866C481.697 418.866 482.219 418.344 482.219 417.696C482.219 417.048 481.697 416.526 481.049 416.526C480.419 416.526 479.879 417.048 479.879 417.696C479.879 418.344 480.419 418.866 481.049 418.866ZM480.113 429H482.003V420.306H480.113V429ZM488.378 429.216C491.168 429.216 492.86 427.146 492.86 424.644C492.86 422.16 491.168 420.09 488.378 420.09C485.624 420.09 483.914 422.16 483.914 424.644C483.914 427.146 485.624 429.216 488.378 429.216ZM488.378 427.542C486.776 427.542 485.876 426.192 485.876 424.644C485.876 423.114 486.776 421.764 488.378 421.764C489.998 421.764 490.898 423.114 490.898 424.644C490.898 426.192 489.998 427.542 488.378 427.542ZM500.641 429H502.531V422.88C502.531 421.098 501.595 420.09 499.723 420.09C498.355 420.09 497.239 420.81 496.663 421.494V420.306H494.773V429H496.663V422.934C497.095 422.34 497.923 421.764 498.895 421.764C499.957 421.764 500.641 422.214 500.641 423.564V429ZM420.953 451H422.843V445.078C423.221 444.466 424.283 443.926 425.075 443.926C425.309 443.926 425.507 443.944 425.669 443.98V442.108C424.535 442.108 423.491 442.756 422.843 443.584V442.306H420.953V451ZM426.654 446.644C426.654 449.398 428.598 451.216 431.208 451.216C432.594 451.216 433.872 450.784 434.736 449.956L433.872 448.714C433.26 449.326 432.252 449.668 431.406 449.668C429.768 449.668 428.778 448.588 428.634 447.274H435.348V446.824C435.348 444.088 433.674 442.09 431.064 442.09C428.49 442.09 426.654 444.124 426.654 446.644ZM431.064 443.638C432.774 443.638 433.476 444.916 433.512 445.942H428.616C428.706 444.88 429.444 443.638 431.064 443.638ZM437.105 453.232C438.167 454.204 439.265 454.528 440.741 454.528C442.883 454.528 445.205 453.682 445.205 450.55V442.306H443.315V443.512C442.613 442.594 441.623 442.09 440.525 442.09C438.293 442.09 436.673 443.746 436.673 446.554C436.673 449.416 438.311 451.018 440.525 451.018C441.659 451.018 442.649 450.442 443.315 449.578V450.622C443.315 452.404 441.983 452.98 440.741 452.98C439.589 452.98 438.689 452.674 437.987 451.864L437.105 453.232ZM443.315 448.174C442.901 448.822 441.965 449.344 441.083 449.344C439.589 449.344 438.635 448.228 438.635 446.554C438.635 444.88 439.589 443.764 441.083 443.764C441.965 443.764 442.901 444.286 443.315 444.934V448.174ZM448.591 440.866C449.239 440.866 449.761 440.344 449.761 439.696C449.761 439.048 449.239 438.526 448.591 438.526C447.961 438.526 447.421 439.048 447.421 439.696C447.421 440.344 447.961 440.866 448.591 440.866ZM447.655 451H449.545V442.306H447.655V451ZM451.24 449.866C452.14 450.748 453.49 451.216 454.966 451.216C457.306 451.216 458.584 450.046 458.584 448.516C458.584 446.464 456.73 446.032 455.218 445.708C454.192 445.474 453.328 445.24 453.328 444.574C453.328 443.962 453.958 443.602 454.948 443.602C456.028 443.602 457 444.052 457.522 444.646L458.314 443.314C457.522 442.612 456.406 442.09 454.93 442.09C452.734 442.09 451.51 443.314 451.51 444.736C451.51 446.68 453.292 447.076 454.786 447.4C455.848 447.634 456.766 447.904 456.766 448.66C456.766 449.308 456.19 449.722 455.056 449.722C453.922 449.722 452.716 449.128 452.104 448.498L451.24 449.866ZM463.097 451.216C463.979 451.216 464.537 450.982 464.879 450.658L464.429 449.236C464.285 449.398 463.943 449.542 463.583 449.542C463.043 449.542 462.755 449.11 462.755 448.516V443.962H464.519V442.306H462.755V439.93H460.865V442.306H459.425V443.962H460.865V448.984C460.865 450.424 461.639 451.216 463.097 451.216ZM465.695 446.644C465.695 449.398 467.639 451.216 470.249 451.216C471.635 451.216 472.913 450.784 473.777 449.956L472.913 448.714C472.301 449.326 471.293 449.668 470.447 449.668C468.809 449.668 467.819 448.588 467.675 447.274H474.389V446.824C474.389 444.088 472.715 442.09 470.105 442.09C467.531 442.09 465.695 444.124 465.695 446.644ZM470.105 443.638C471.815 443.638 472.517 444.916 472.553 445.942H467.657C467.747 444.88 468.485 443.638 470.105 443.638ZM476.254 451H478.144V445.078C478.522 444.466 479.584 443.926 480.376 443.926C480.61 443.926 480.808 443.944 480.97 443.98V442.108C479.836 442.108 478.792 442.756 478.144 443.584V442.306H476.254V451Z" fill="white"/>
<path d="M1056.59 225.312V220.794C1057.29 221.73 1058.28 222.216 1059.38 222.216C1061.63 222.216 1063.23 220.506 1063.23 217.644C1063.23 214.782 1061.63 213.09 1059.38 213.09C1058.25 213.09 1057.24 213.63 1056.59 214.494V213.306H1054.7V225.312H1056.59ZM1061.27 217.644C1061.27 219.336 1060.32 220.542 1058.82 220.542C1057.94 220.542 1057 220.002 1056.59 219.372V215.934C1057 215.286 1057.94 214.764 1058.82 214.764C1060.32 214.764 1061.27 215.97 1061.27 217.644ZM1065.14 222H1067.03V216.078C1067.41 215.466 1068.47 214.926 1069.26 214.926C1069.5 214.926 1069.69 214.944 1069.86 214.98V213.108C1068.72 213.108 1067.68 213.756 1067.03 214.584V213.306H1065.14V222ZM1075.31 222.216C1078.1 222.216 1079.79 220.146 1079.79 217.644C1079.79 215.16 1078.1 213.09 1075.31 213.09C1072.55 213.09 1070.84 215.16 1070.84 217.644C1070.84 220.146 1072.55 222.216 1075.31 222.216ZM1075.31 220.542C1073.7 220.542 1072.8 219.192 1072.8 217.644C1072.8 216.114 1073.7 214.764 1075.31 214.764C1076.93 214.764 1077.83 216.114 1077.83 217.644C1077.83 219.192 1076.93 220.542 1075.31 220.542ZM1081.16 217.644C1081.16 220.29 1083.01 222.216 1085.66 222.216C1087.35 222.216 1088.38 221.496 1088.99 220.668L1087.75 219.516C1087.26 220.182 1086.6 220.542 1085.75 220.542C1084.17 220.542 1083.12 219.336 1083.12 217.644C1083.12 215.952 1084.17 214.764 1085.75 214.764C1086.6 214.764 1087.26 215.106 1087.75 215.79L1088.99 214.638C1088.38 213.81 1087.35 213.09 1085.66 213.09C1083.01 213.09 1081.16 215.016 1081.16 217.644ZM1090.11 217.644C1090.11 220.398 1092.05 222.216 1094.66 222.216C1096.05 222.216 1097.32 221.784 1098.19 220.956L1097.32 219.714C1096.71 220.326 1095.7 220.668 1094.86 220.668C1093.22 220.668 1092.23 219.588 1092.09 218.274H1098.8V217.824C1098.8 215.088 1097.13 213.09 1094.52 213.09C1091.94 213.09 1090.11 215.124 1090.11 217.644ZM1094.52 214.638C1096.23 214.638 1096.93 215.916 1096.96 216.942H1092.07C1092.16 215.88 1092.9 214.638 1094.52 214.638ZM1099.91 220.866C1100.81 221.748 1102.16 222.216 1103.64 222.216C1105.98 222.216 1107.25 221.046 1107.25 219.516C1107.25 217.464 1105.4 217.032 1103.89 216.708C1102.86 216.474 1102 216.24 1102 215.574C1102 214.962 1102.63 214.602 1103.62 214.602C1104.7 214.602 1105.67 215.052 1106.19 215.646L1106.98 214.314C1106.19 213.612 1105.08 213.09 1103.6 213.09C1101.4 213.09 1100.18 214.314 1100.18 215.736C1100.18 217.68 1101.96 218.076 1103.46 218.4C1104.52 218.634 1105.44 218.904 1105.44 219.66C1105.44 220.308 1104.86 220.722 1103.73 220.722C1102.59 220.722 1101.39 220.128 1100.77 219.498L1099.91 220.866ZM1108.4 220.866C1109.3 221.748 1110.65 222.216 1112.13 222.216C1114.47 222.216 1115.74 221.046 1115.74 219.516C1115.74 217.464 1113.89 217.032 1112.38 216.708C1111.35 216.474 1110.49 216.24 1110.49 215.574C1110.49 214.962 1111.12 214.602 1112.11 214.602C1113.19 214.602 1114.16 215.052 1114.68 215.646L1115.47 214.314C1114.68 213.612 1113.57 213.09 1112.09 213.09C1109.89 213.09 1108.67 214.314 1108.67 215.736C1108.67 217.68 1110.45 218.076 1111.95 218.4C1113.01 218.634 1113.93 218.904 1113.93 219.66C1113.93 220.308 1113.35 220.722 1112.22 220.722C1111.08 220.722 1109.88 220.128 1109.26 219.498L1108.4 220.866ZM1117.11 217.644C1117.11 220.398 1119.05 222.216 1121.66 222.216C1123.05 222.216 1124.32 221.784 1125.19 220.956L1124.32 219.714C1123.71 220.326 1122.7 220.668 1121.86 220.668C1120.22 220.668 1119.23 219.588 1119.09 218.274H1125.8V217.824C1125.8 215.088 1124.13 213.09 1121.52 213.09C1118.94 213.09 1117.11 215.124 1117.11 217.644ZM1121.52 214.638C1123.23 214.638 1123.93 215.916 1123.96 216.942H1119.07C1119.16 215.88 1119.9 214.638 1121.52 214.638ZM1133.79 222H1135.68V209.994H1133.79V214.512C1133.08 213.594 1132.08 213.09 1131 213.09C1128.75 213.09 1127.13 214.854 1127.13 217.662C1127.13 220.524 1128.76 222.216 1131 222.216C1132.11 222.216 1133.12 221.676 1133.79 220.812V222ZM1133.79 219.39C1133.35 220.038 1132.44 220.542 1131.54 220.542C1130.04 220.542 1129.09 219.336 1129.09 217.662C1129.09 215.97 1130.04 214.764 1131.54 214.764C1132.44 214.764 1133.35 215.286 1133.79 215.934V219.39ZM1087.09 244H1088.98V231.994H1087.09V236.512C1086.39 235.594 1085.38 235.09 1084.3 235.09C1082.05 235.09 1080.43 236.854 1080.43 239.662C1080.43 242.524 1082.07 244.216 1084.3 244.216C1085.42 244.216 1086.42 243.676 1087.09 242.812V244ZM1087.09 241.39C1086.66 242.038 1085.74 242.542 1084.84 242.542C1083.35 242.542 1082.39 241.336 1082.39 239.662C1082.39 237.97 1083.35 236.764 1084.84 236.764C1085.74 236.764 1086.66 237.286 1087.09 237.934V241.39ZM1096.74 244H1098.63V238.24C1098.63 235.9 1096.94 235.09 1095.01 235.09C1093.63 235.09 1092.37 235.54 1091.36 236.494L1092.13 237.808C1092.89 237.07 1093.73 236.71 1094.71 236.71C1095.91 236.71 1096.74 237.322 1096.74 238.33V239.626C1096.11 238.888 1095.1 238.51 1093.93 238.51C1092.51 238.51 1090.91 239.338 1090.91 241.336C1090.91 243.262 1092.51 244.216 1093.93 244.216C1095.08 244.216 1096.09 243.802 1096.74 243.064V244ZM1096.74 242.02C1096.31 242.614 1095.5 242.92 1094.67 242.92C1093.61 242.92 1092.82 242.308 1092.82 241.372C1092.82 240.418 1093.61 239.806 1094.67 239.806C1095.5 239.806 1096.31 240.112 1096.74 240.706V242.02ZM1103.69 244.216C1104.57 244.216 1105.13 243.982 1105.47 243.658L1105.02 242.236C1104.88 242.398 1104.54 242.542 1104.18 242.542C1103.64 242.542 1103.35 242.11 1103.35 241.516V236.962H1105.11V235.306H1103.35V232.93H1101.46V235.306H1100.02V236.962H1101.46V241.984C1101.46 243.424 1102.23 244.216 1103.69 244.216ZM1112.14 244H1114.03V238.24C1114.03 235.9 1112.34 235.09 1110.41 235.09C1109.02 235.09 1107.76 235.54 1106.76 236.494L1107.53 237.808C1108.29 237.07 1109.13 236.71 1110.1 236.71C1111.31 236.71 1112.14 237.322 1112.14 238.33V239.626C1111.51 238.888 1110.5 238.51 1109.33 238.51C1107.91 238.51 1106.31 239.338 1106.31 241.336C1106.31 243.262 1107.91 244.216 1109.33 244.216C1110.48 244.216 1111.49 243.802 1112.14 243.064V244ZM1112.14 242.02C1111.71 242.614 1110.9 242.92 1110.07 242.92C1109.01 242.92 1108.21 242.308 1108.21 241.372C1108.21 240.418 1109.01 239.806 1110.07 239.806C1110.9 239.806 1111.71 240.112 1112.14 240.706V242.02Z" fill="white"/>
<rect x="385.5" y="115.5" width="118.861" height="220.961" rx="8.5" stroke="white" stroke-width="3"/>
<path d="M415.025 232.002H419.489C423.233 232.002 425.771 229.536 425.771 226.008C425.771 222.48 423.233 219.996 419.489 219.996H415.025V232.002ZM417.131 230.148V221.85H419.489C422.171 221.85 423.611 223.686 423.611 226.008C423.611 228.276 422.099 230.148 419.489 230.148H417.131ZM427.21 227.646C427.21 230.4 429.154 232.218 431.764 232.218C433.15 232.218 434.428 231.786 435.292 230.958L434.428 229.716C433.816 230.328 432.808 230.67 431.962 230.67C430.324 230.67 429.334 229.59 429.19 228.276H435.904V227.826C435.904 225.09 434.23 223.092 431.62 223.092C429.046 223.092 427.21 225.126 427.21 227.646ZM431.62 224.64C433.33 224.64 434.032 225.918 434.068 226.944H429.172C429.262 225.882 430 224.64 431.62 224.64ZM437.086 228.456H441.406V226.836H437.086V228.456ZM453.588 232.002H455.694V219.996H452.724L449.448 228.078L446.19 219.996H443.22V232.002H445.326V222.912L448.998 232.002H449.898L453.588 222.912V232.002ZM464.063 232.002H465.953V223.308H464.063V229.41C463.613 230.004 462.785 230.544 461.831 230.544C460.769 230.544 460.085 230.13 460.085 228.78V223.308H458.195V229.464C458.195 231.246 459.113 232.218 460.985 232.218C462.353 232.218 463.433 231.552 464.063 230.85V232.002ZM473.898 232.002H476.022L472.818 227.538L475.824 223.308H473.7L471.648 226.26L469.578 223.308H467.454L470.46 227.538L467.274 232.002H469.38L471.648 228.798L473.898 232.002Z" fill="white"/>
<rect x="857.639" y="115.52" width="84.8616" height="220.961" rx="8.5" stroke="white" stroke-width="3"/>
<path d="M894.277 232.021H896.383V220.015H893.413L890.137 228.097L886.879 220.015H883.909V232.021H886.015V222.931L889.687 232.021H890.587L894.277 222.931V232.021ZM904.753 232.021H906.643V223.327H904.753V229.429C904.303 230.023 903.475 230.563 902.521 230.563C901.459 230.563 900.775 230.149 900.775 228.799V223.327H898.885V229.483C898.885 231.265 899.803 232.237 901.675 232.237C903.043 232.237 904.123 231.571 904.753 230.869V232.021ZM914.588 232.021H916.712L913.508 227.557L916.514 223.327H914.39L912.338 226.279L910.268 223.327H908.144L911.15 227.557L907.964 232.021H910.07L912.338 228.817L914.588 232.021Z" fill="white"/>
<rect x="329" y="228" width="3" height="29" transform="rotate(-90 329 228)" fill="white"/>
<path d="M357.521 233.766L352 233.766L357.521 228.85L357.521 224.916L352 220L357.521 220L364.146 225.9L364.146 227.866L357.521 233.766Z" fill="white"/>
<rect x="954" y="228" width="3" height="76" transform="rotate(-90 954 228)" fill="white"/>
<path d="M1026.52 233.766L1021 233.766L1026.52 228.85L1026.52 224.916L1021 220L1026.52 220L1033.15 225.9L1033.15 227.866L1026.52 233.766Z" fill="white"/>
<rect x="128" y="228" width="3" height="76" transform="rotate(-90 128 228)" fill="white"/>
<path d="M200.521 233.766L195 233.766L200.521 228.85L200.521 224.916L195 220L200.521 220L207.146 225.9L207.146 227.866L200.521 233.766Z" fill="white"/>
<rect x="516" y="148" width="3" height="29" transform="rotate(-90 516 148)" fill="white"/>
<path d="M544.521 153.766L539 153.766L544.521 148.85L544.521 144.916L539 140L544.521 140L551.146 145.9L551.146 147.866L544.521 153.766Z" fill="white"/>
<rect x="516" y="228" width="3" height="29" transform="rotate(-90 516 228)" fill="white"/>
<path d="M544.521 233.766L539 233.766L544.521 228.85L544.521 224.916L539 220L544.521 220L551.146 225.9L551.146 227.866L544.521 233.766Z" fill="white"/>
<rect x="794" y="228" width="3" height="49" transform="rotate(-90 794 228)" fill="white"/>
<rect x="794" y="309" width="3" height="26" transform="rotate(-90 794 309)" fill="white"/>
<rect x="794" y="148" width="3" height="26" transform="rotate(-90 794 148)" fill="white"/>
<rect x="820" y="308" width="2.99999" height="160" transform="rotate(180 820 308)" fill="white"/>
<path d="M839.521 233.766L834 233.766L839.521 228.85L839.521 224.916L834 220L839.521 220L846.146 225.9L846.146 227.866L839.521 233.766Z" fill="white"/>
<rect x="516" y="308" width="3" height="29" transform="rotate(-90 516 308)" fill="white"/>
<path d="M544.521 313.766L539 313.766L544.521 308.85L544.521 304.916L539 300L544.521 300L551.146 305.9L551.146 307.866L544.521 313.766Z" fill="white"/>
<rect x="448.766" y="348" width="3" height="29" fill="white"/>
<path d="M445 376.091V372L448.929 376.091H452.071L456 372V376.091L451.286 381H449.714L445 376.091Z" fill="white"/>
<path d="M452 536L449 536L449 493L452 493L452 536Z" fill="white"/>
<path d="M552 435L552 432L901 432L901 435L552 435Z" fill="white"/>
<path d="M457 493L457 498L452.357 493L448.642 493L444 498L444 493L449.571 487L451.428 487L457 493Z" fill="white"/>
<path d="M901 435L898 435L898 354L901 354L901 435Z" fill="white"/>
<path d="M906 354L906 359L901.357 354L897.643 354L893 359L893 354L898.571 348L900.429 348L906 354Z" fill="white"/>
<path d="M444 535V530L448.642 535H452.357L457 530V535L451.428 541H449.571L444 535Z" fill="white"/>
</svg>
