<svg width="1200" height="631" viewBox="0 0 1200 631" fill="none" xmlns="http://www.w3.org/2000/svg">
<g clip-path="url(#clip0_313_6138)">
<rect width="1200" height="630" transform="translate(0 0.5)" fill="black"/>
<path d="M408 50.9922C408 46.5739 411.582 42.9922 416 42.9922H1101C1105.42 42.9922 1109 46.5739 1109 50.9922V83.9922H408V50.9922Z" fill="#0A0A0B" stroke="#313135"/>
<circle cx="1058" cy="62.9922" r="4" fill="#BCBCC3"/>
<circle cx="1072" cy="62.9922" r="4" fill="#BCBCC3"/>
<circle cx="1086" cy="62.9922" r="4" fill="#BCBCC3"/>
<g clip-path="url(#clip1_313_6138)">
<rect width="16" height="16" transform="translate(419 54.9922)" fill="#0A0A0B"/>
<path d="M426.999 69.3258C426.131 69.3258 425.312 69.1594 424.541 68.8265C423.77 68.4936 423.098 68.0404 422.525 67.4668C421.951 66.8934 421.498 66.2214 421.165 65.4508C420.832 64.6803 420.666 63.8608 420.666 62.9925C420.666 62.1173 420.832 61.2961 421.165 60.529C421.498 59.7619 421.951 59.0916 422.525 58.5182C423.098 57.9446 423.77 57.4914 424.541 57.1585C425.312 56.8256 426.131 56.6592 426.999 56.6592C427.875 56.6592 428.696 56.8256 429.463 57.1585C430.23 57.4914 430.9 57.9446 431.474 58.5182C432.047 59.0916 432.5 59.7619 432.833 60.529C433.166 61.2961 433.333 62.1173 433.333 62.9925C433.333 63.8608 433.166 64.6803 432.833 65.4508C432.5 66.2214 432.047 66.8934 431.474 67.4668C430.9 68.0404 430.23 68.4936 429.463 68.8265C428.696 69.1594 427.875 69.3258 426.999 69.3258ZM426.999 68.3117C427.34 67.8605 427.626 67.4053 427.858 66.9463C428.091 66.4873 428.28 65.9856 428.426 65.4412H425.572C425.727 66.0027 425.919 66.513 426.147 66.972C426.375 67.431 426.659 67.8776 426.999 68.3117ZM425.708 68.1283C425.453 67.7617 425.223 67.3448 425.02 66.8778C424.816 66.4107 424.658 65.9318 424.546 65.4412H422.284C422.636 66.1335 423.108 66.7152 423.701 67.1862C424.293 67.6571 424.962 67.9711 425.708 68.1283ZM428.29 68.1283C429.036 67.9711 429.706 67.6571 430.298 67.1862C430.89 66.7152 431.363 66.1335 431.715 65.4412H429.453C429.319 65.9361 429.15 66.4171 428.947 66.8842C428.743 67.3513 428.525 67.766 428.29 68.1283ZM421.865 64.4412H424.343C424.301 64.1934 424.271 63.9505 424.252 63.7123C424.233 63.4743 424.224 63.2344 424.224 62.9925C424.224 62.7506 424.233 62.5107 424.252 62.2727C424.271 62.0346 424.301 61.7916 424.343 61.5438H421.865C421.801 61.7703 421.751 62.0057 421.717 62.2502C421.683 62.4946 421.666 62.7421 421.666 62.9925C421.666 63.243 421.683 63.4904 421.717 63.7348C421.751 63.9793 421.801 64.2147 421.865 64.4412ZM425.343 64.4412H428.656C428.698 64.1934 428.728 63.9526 428.747 63.7188C428.766 63.4851 428.775 63.243 428.775 62.9925C428.775 62.7421 428.766 62.5 428.747 62.2662C428.728 62.0324 428.698 61.7916 428.656 61.5438H425.343C425.301 61.7916 425.271 62.0324 425.252 62.2662C425.233 62.5 425.224 62.7421 425.224 62.9925C425.224 63.243 425.233 63.4851 425.252 63.7188C425.271 63.9526 425.301 64.1934 425.343 64.4412ZM429.656 64.4412H432.134C432.198 64.2147 432.247 63.9793 432.281 63.7348C432.316 63.4904 432.333 63.243 432.333 62.9925C432.333 62.7421 432.316 62.4946 432.281 62.2502C432.247 62.0057 432.198 61.7703 432.134 61.5438H429.656C429.698 61.7916 429.728 62.0346 429.747 62.2727C429.766 62.5107 429.775 62.7506 429.775 62.9925C429.775 63.2344 429.766 63.4743 429.747 63.7123C429.728 63.9505 429.698 64.1934 429.656 64.4412ZM429.453 60.5438H431.715C431.358 59.843 430.889 59.2613 430.308 58.7988C429.726 58.3365 429.054 58.0203 428.29 57.8502C428.546 58.2382 428.773 58.6626 428.972 59.1233C429.172 59.584 429.332 60.0575 429.453 60.5438ZM425.572 60.5438H428.426C428.272 59.9865 428.077 59.473 427.842 59.0033C427.608 58.5337 427.327 58.0903 426.999 57.6733C426.672 58.0903 426.391 58.5337 426.156 59.0033C425.922 59.473 425.727 59.9865 425.572 60.5438ZM422.284 60.5438H424.546C424.667 60.0575 424.827 59.584 425.026 59.1233C425.225 58.6626 425.453 58.2382 425.708 57.8502C424.941 58.0203 424.267 58.3376 423.688 58.8022C423.108 59.2666 422.64 59.8472 422.284 60.5438Z" fill="#BCBCC3"/>
</g>
<rect x="524" y="90.9922" width="469" height="27" rx="13.5" fill="black"/>
<rect x="408" y="83.9922" width="701" height="41" fill="#111112" stroke="#313135"/>
<path d="M433 110.146L427.347 104.493L433 98.8389L434.054 99.8926L429.454 104.493L434.054 109.093L433 110.146Z" fill="#BCBCC3"/>
<path d="M452.999 110.146L458.653 104.493L452.999 98.8389L451.945 99.8926L456.545 104.493L451.945 109.093L452.999 110.146Z" fill="#57575C"/>
<path d="M479.038 111.992C476.944 111.992 475.171 111.266 473.718 109.813C472.265 108.36 471.538 106.587 471.538 104.494C471.538 102.4 472.265 100.627 473.718 99.1729C475.171 97.7191 476.944 96.9922 479.038 96.9922C480.207 96.9922 481.314 97.2521 482.357 97.7719C483.401 98.2919 484.269 99.0256 484.961 99.9729V96.9922H486.461V103.107H480.346V101.608H484.296C483.769 100.642 483.038 99.8816 482.103 99.3259C481.169 98.7701 480.147 98.4922 479.038 98.4922C477.371 98.4922 475.955 99.0755 474.788 100.242C473.621 101.409 473.038 102.826 473.038 104.492C473.038 106.159 473.621 107.576 474.788 108.742C475.955 109.909 477.371 110.492 479.038 110.492C480.321 110.492 481.48 110.126 482.513 109.392C483.546 108.659 484.271 107.692 484.688 106.492H486.269C485.815 108.124 484.921 109.449 483.587 110.466C482.253 111.484 480.737 111.992 479.038 111.992Z" fill="#BCBCC3"/>
<rect x="544.001" y="89.9922" width="469" height="29" rx="14.5" fill="black"/>
<path d="M557.208 109.305V100.589C557.208 100.294 557.31 100.045 557.514 99.8404C557.718 99.6363 557.968 99.5342 558.263 99.5342H563.737C564.032 99.5342 564.281 99.6363 564.485 99.8404C564.689 100.045 564.791 100.294 564.791 100.589V109.305L561 107.678L557.208 109.305ZM558.083 107.963L561 106.709L563.916 107.963V100.589C563.916 100.544 563.898 100.503 563.86 100.465C563.823 100.428 563.782 100.409 563.737 100.409H558.263C558.218 100.409 558.176 100.428 558.139 100.465C558.102 100.503 558.083 100.544 558.083 100.589V107.963Z" fill="#BCBCC3"/>
<rect x="578" y="99.9922" width="129" height="9" rx="4.5" fill="#3E3E42"/>
<path d="M1069.5 110.126V108.627H1086.5V110.126H1069.5ZM1069.5 105.242V103.742H1086.5V105.242H1069.5ZM1069.5 100.357V98.8574H1086.5V100.357H1069.5Z" fill="#BCBCC3"/>
<rect x="446" y="58.9922" width="41" height="8" rx="4" fill="#3E3E42"/>
<rect x="491" y="58.9922" width="50" height="8" rx="4" fill="#3E3E42"/>
<path d="M408 124.992H1109V580.992C1109 585.41 1105.42 588.992 1101 588.992H416C411.582 588.992 408 585.41 408 580.992V124.992Z" fill="#0C0C0D" stroke="#313135"/>
<g clip-path="url(#clip2_313_6138)">
<rect x="438" y="379.59" width="157.885" height="44" stroke="#2D2D2F"/>
<rect x="448.598" y="397.09" width="38" height="9" rx="4.5" fill="#272728"/>
<rect x="489.598" y="397.09" width="38" height="9" rx="4.5" fill="#272728"/>
<rect x="595.885" y="379.59" width="242" height="44" stroke="#2D2D2F"/>
<rect x="606.482" y="397.09" width="38" height="9" rx="4.5" fill="#272728"/>
<rect x="837.885" y="379.59" width="242" height="44" stroke="#2D2D2F"/>
<rect x="848.483" y="397.09" width="38" height="9" rx="4.5" fill="#272728"/>
<rect x="438" y="423.98" width="157.836" height="42" stroke="#2D2D2F"/>
<rect x="448.598" y="440.48" width="38" height="9" rx="4.5" fill="#272728"/>
<rect x="595.835" y="423.98" width="136" height="42" stroke="#2D2D2F"/>
<rect x="606.433" y="440.48" width="38" height="9" rx="4.5" fill="#272728"/>
<rect x="731.835" y="423.98" width="53" height="42" stroke="#2D2D2F"/>
<rect x="742.238" y="440.48" width="32" height="9" rx="4.5" fill="#272728"/>
<rect x="784.835" y="423.98" width="53" height="42" stroke="#2D2D2F"/>
<rect x="795.238" y="440.48" width="32" height="9" rx="4.5" fill="#272728"/>
<rect x="837.835" y="423.98" width="136" height="42" stroke="#2D2D2F"/>
<rect x="848.434" y="440.48" width="38" height="9" rx="4.5" fill="#272728"/>
<rect x="973.835" y="423.98" width="53" height="42" stroke="#2D2D2F"/>
<rect x="988.238" y="440.48" width="28" height="9" rx="4.5" fill="#272728"/>
<rect x="1026.84" y="423.98" width="53" height="42" stroke="#2D2D2F"/>
<rect x="1037.43" y="440.48" width="32" height="9" rx="4.5" fill="#272728"/>
<rect x="438" y="466.773" width="157.894" height="42" stroke="#2D2D2F"/>
<rect x="448.598" y="483.273" width="25" height="9" rx="4.5" fill="#474747"/>
<rect x="477.598" y="483.273" width="25" height="9" rx="4.5" fill="#474747"/>
<rect x="438" y="508.773" width="157.894" height="42" stroke="#2D2D2F"/>
<rect x="448.598" y="525.273" width="25" height="9" rx="4.5" fill="#474747"/>
<rect x="438" y="550.773" width="157.894" height="42" stroke="#2D2D2F"/>
<rect x="448.598" y="567.273" width="55" height="9" rx="4.5" fill="#474747"/>
<rect x="595.895" y="466.773" width="136.053" height="42" stroke="#2D2D2F"/>
<path d="M606.492 487.773C606.492 486.31 607.678 485.124 609.142 485.124H667.831C669.294 485.124 670.48 486.31 670.48 487.773V487.773C670.48 489.237 669.294 490.423 667.831 490.423H609.142C607.678 490.423 606.492 489.237 606.492 487.773V487.773Z" fill="#28282A"/>
<path d="M606.492 487.773C606.492 486.31 607.678 485.124 609.142 485.124H666.804C668.268 485.124 669.454 486.31 669.454 487.773V487.773C669.454 489.237 668.268 490.423 666.804 490.423H609.142C607.678 490.423 606.492 489.237 606.492 487.773V487.773Z" fill="#55C75E"/>
<path d="M687.548 482.898C687.96 482.901 688.367 482.976 688.767 483.124C689.168 483.271 689.529 483.512 689.851 483.846C690.176 484.181 690.435 484.632 690.628 485.201C690.823 485.767 690.923 486.472 690.926 487.315C690.926 488.125 690.845 488.846 690.682 489.478C690.519 490.107 690.286 490.639 689.982 491.072C689.681 491.506 689.315 491.835 688.885 492.061C688.454 492.287 687.969 492.4 687.43 492.4C686.879 492.4 686.39 492.292 685.963 492.075C685.535 491.858 685.187 491.558 684.919 491.176C684.651 490.791 684.484 490.348 684.418 489.848H685.796C685.886 490.246 686.07 490.568 686.347 490.815C686.627 491.059 686.988 491.181 687.43 491.181C688.108 491.181 688.636 490.885 689.016 490.295C689.395 489.702 689.586 488.874 689.589 487.812H689.517C689.36 488.07 689.165 488.293 688.93 488.48C688.698 488.667 688.437 488.811 688.148 488.913C687.859 489.016 687.551 489.067 687.223 489.067C686.69 489.067 686.205 488.936 685.768 488.674C685.332 488.412 684.984 488.052 684.725 487.595C684.466 487.137 684.337 486.615 684.337 486.028C684.337 485.444 684.469 484.914 684.734 484.438C685.002 483.962 685.376 483.586 685.854 483.309C686.336 483.029 686.9 482.892 687.548 482.898ZM687.552 484.072C687.2 484.072 686.882 484.16 686.599 484.334C686.319 484.506 686.098 484.739 685.936 485.034C685.773 485.326 685.692 485.651 685.692 486.01C685.692 486.368 685.77 486.693 685.927 486.985C686.086 487.274 686.303 487.504 686.577 487.676C686.854 487.845 687.17 487.929 687.525 487.929C687.79 487.929 688.037 487.878 688.266 487.775C688.495 487.673 688.695 487.532 688.866 487.351C689.038 487.167 689.172 486.96 689.268 486.728C689.365 486.496 689.413 486.252 689.413 485.996C689.413 485.656 689.332 485.34 689.169 485.048C689.009 484.756 688.79 484.521 688.51 484.343C688.23 484.163 687.911 484.072 687.552 484.072ZM695.633 482.898C696.045 482.901 696.452 482.976 696.852 483.124C697.252 483.271 697.614 483.512 697.936 483.846C698.261 484.181 698.52 484.632 698.713 485.201C698.908 485.767 699.008 486.472 699.011 487.315C699.011 488.125 698.929 488.846 698.767 489.478C698.604 490.107 698.371 490.639 698.067 491.072C697.766 491.506 697.4 491.835 696.969 492.061C696.539 492.287 696.054 492.4 695.515 492.4C694.964 492.4 694.475 492.292 694.048 492.075C693.62 491.858 693.272 491.558 693.004 491.176C692.736 490.791 692.569 490.348 692.503 489.848H693.88C693.971 490.246 694.154 490.568 694.431 490.815C694.711 491.059 695.073 491.181 695.515 491.181C696.193 491.181 696.721 490.885 697.1 490.295C697.48 489.702 697.671 488.874 697.674 487.812H697.602C697.445 488.07 697.249 488.293 697.015 488.48C696.783 488.667 696.522 488.811 696.233 488.913C695.944 489.016 695.636 489.067 695.308 489.067C694.775 489.067 694.29 488.936 693.853 488.674C693.417 488.412 693.069 488.052 692.81 487.595C692.551 487.137 692.422 486.615 692.422 486.028C692.422 485.444 692.554 484.914 692.819 484.438C693.087 483.962 693.46 483.586 693.939 483.309C694.421 483.029 694.985 482.892 695.633 482.898ZM695.637 484.072C695.285 484.072 694.967 484.16 694.684 484.334C694.404 484.506 694.183 484.739 694.02 485.034C693.858 485.326 693.777 485.651 693.777 486.01C693.777 486.368 693.855 486.693 694.011 486.985C694.171 487.274 694.388 487.504 694.662 487.676C694.939 487.845 695.255 487.929 695.61 487.929C695.875 487.929 696.122 487.878 696.351 487.775C696.58 487.673 696.78 487.532 696.951 487.351C697.123 487.167 697.257 486.96 697.353 486.728C697.45 486.496 697.498 486.252 697.498 485.996C697.498 485.656 697.417 485.34 697.254 485.048C697.094 484.756 696.875 484.521 696.595 484.343C696.315 484.163 695.995 484.072 695.637 484.072ZM701.215 492.359C700.968 492.359 700.755 492.272 700.578 492.097C700.4 491.92 700.311 491.706 700.311 491.456C700.311 491.209 700.4 490.998 700.578 490.824C700.755 490.646 700.968 490.557 701.215 490.557C701.461 490.557 701.674 490.646 701.851 490.824C702.029 490.998 702.118 491.209 702.118 491.456C702.118 491.622 702.076 491.774 701.991 491.912C701.91 492.048 701.802 492.156 701.666 492.237C701.531 492.319 701.38 492.359 701.215 492.359ZM703.908 492.273V491.262L707.038 488.019C707.372 487.667 707.648 487.358 707.865 487.093C708.084 486.826 708.248 486.571 708.357 486.33C708.465 486.089 708.519 485.834 708.519 485.563C708.519 485.255 708.447 484.991 708.303 484.768C708.158 484.542 707.961 484.369 707.711 484.248C707.461 484.125 707.18 484.063 706.866 484.063C706.535 484.063 706.246 484.131 705.999 484.266C705.752 484.402 705.563 484.593 705.43 484.84C705.298 485.087 705.232 485.376 705.232 485.707H703.899C703.899 485.144 704.029 484.652 704.288 484.23C704.547 483.809 704.902 483.482 705.354 483.25C705.805 483.015 706.319 482.898 706.894 482.898C707.475 482.898 707.986 483.014 708.429 483.246C708.875 483.475 709.222 483.788 709.472 484.185C709.722 484.58 709.847 485.025 709.847 485.522C709.847 485.865 709.782 486.201 709.653 486.529C709.526 486.857 709.305 487.223 708.989 487.626C708.673 488.027 708.233 488.513 707.67 489.085L705.832 491.009V491.077H709.996V492.273H703.908ZM716.535 490.539V490.052C716.535 489.702 716.608 489.383 716.752 489.094C716.9 488.802 717.113 488.569 717.393 488.394C717.676 488.216 718.018 488.128 718.419 488.128C718.828 488.128 719.171 488.215 719.448 488.39C719.725 488.564 719.934 488.798 720.076 489.09C720.221 489.382 720.293 489.702 720.293 490.052V490.539C720.293 490.889 720.221 491.209 720.076 491.501C719.931 491.79 719.719 492.024 719.439 492.201C719.162 492.376 718.822 492.463 718.419 492.463C718.012 492.463 717.669 492.376 717.389 492.201C717.109 492.024 716.897 491.79 716.752 491.501C716.608 491.209 716.535 490.889 716.535 490.539ZM717.588 490.052V490.539C717.588 490.798 717.649 491.033 717.773 491.244C717.896 491.455 718.111 491.56 718.419 491.56C718.723 491.56 718.935 491.455 719.055 491.244C719.176 491.033 719.236 490.798 719.236 490.539V490.052C719.236 489.793 719.177 489.558 719.06 489.347C718.945 489.136 718.732 489.031 718.419 489.031C718.118 489.031 717.904 489.136 717.777 489.347C717.651 489.558 717.588 489.793 717.588 490.052ZM711.884 485.246V484.759C711.884 484.409 711.956 484.089 712.101 483.797C712.248 483.505 712.462 483.271 712.742 483.097C713.025 482.922 713.367 482.835 713.767 482.835C714.176 482.835 714.52 482.922 714.797 483.097C715.074 483.271 715.283 483.505 715.424 483.797C715.566 484.089 715.637 484.409 715.637 484.759V485.246C715.637 485.596 715.564 485.916 715.42 486.208C715.278 486.497 715.068 486.731 714.788 486.908C714.511 487.083 714.17 487.17 713.767 487.17C713.358 487.17 713.013 487.083 712.733 486.908C712.456 486.731 712.245 486.497 712.101 486.208C711.956 485.916 711.884 485.596 711.884 485.246ZM712.941 484.759V485.246C712.941 485.505 713.001 485.74 713.121 485.951C713.245 486.162 713.46 486.267 713.767 486.267C714.068 486.267 714.279 486.162 714.399 485.951C714.523 485.74 714.584 485.505 714.584 485.246V484.759C714.584 484.5 714.526 484.265 714.408 484.054C714.291 483.843 714.077 483.738 713.767 483.738C713.466 483.738 713.252 483.843 713.126 484.054C713.002 484.265 712.941 484.5 712.941 484.759ZM712.313 492.273L718.671 483.025H719.751L713.392 492.273H712.313Z" fill="#55C75E"/>
<rect x="595.895" y="508.773" width="136.053" height="42" stroke="#2D2D2F"/>
<path d="M606.492 529.773C606.492 528.31 607.678 527.124 609.142 527.124H667.831C669.294 527.124 670.48 528.31 670.48 529.773V529.773C670.48 531.237 669.294 532.423 667.831 532.423H609.142C607.678 532.423 606.492 531.237 606.492 529.773V529.773Z" fill="#28282A"/>
<path d="M606.492 529.773C606.492 528.31 607.678 527.124 609.142 527.124H664.751C666.215 527.124 667.401 528.31 667.401 529.773V529.773C667.401 531.237 666.215 532.423 664.751 532.423H609.142C607.678 532.423 606.492 531.237 606.492 529.773V529.773Z" fill="#55C75E"/>
<path d="M687.225 524.898C687.637 524.901 688.044 524.976 688.444 525.124C688.845 525.271 689.206 525.512 689.528 525.846C689.853 526.181 690.112 526.632 690.305 527.201C690.501 527.767 690.6 528.472 690.603 529.315C690.603 530.125 690.522 530.846 690.359 531.478C690.196 532.107 689.963 532.639 689.659 533.072C689.358 533.506 688.992 533.835 688.562 534.061C688.131 534.287 687.646 534.4 687.107 534.4C686.557 534.4 686.067 534.292 685.64 534.075C685.212 533.858 684.864 533.558 684.597 533.176C684.329 532.791 684.161 532.348 684.095 531.848H685.473C685.563 532.246 685.747 532.568 686.024 532.815C686.304 533.059 686.665 533.181 687.107 533.181C687.785 533.181 688.313 532.885 688.693 532.295C689.072 531.702 689.263 530.874 689.266 529.812H689.194C689.037 530.07 688.842 530.293 688.607 530.48C688.375 530.667 688.115 530.811 687.826 530.913C687.536 531.016 687.228 531.067 686.9 531.067C686.367 531.067 685.882 530.936 685.446 530.674C685.009 530.412 684.661 530.052 684.402 529.595C684.143 529.137 684.014 528.615 684.014 528.028C684.014 527.444 684.146 526.914 684.411 526.438C684.679 525.962 685.053 525.586 685.531 525.309C686.013 525.029 686.578 524.892 687.225 524.898ZM687.229 526.072C686.877 526.072 686.56 526.16 686.277 526.334C685.997 526.506 685.775 526.739 685.613 527.034C685.45 527.326 685.369 527.651 685.369 528.01C685.369 528.368 685.447 528.693 685.604 528.985C685.763 529.274 685.98 529.504 686.254 529.676C686.531 529.845 686.847 529.929 687.202 529.929C687.467 529.929 687.714 529.878 687.943 529.775C688.172 529.673 688.372 529.532 688.544 529.351C688.715 529.167 688.849 528.96 688.946 528.728C689.042 528.496 689.09 528.252 689.09 527.996C689.09 527.656 689.009 527.34 688.846 527.048C688.687 526.756 688.467 526.521 688.187 526.343C687.907 526.163 687.588 526.072 687.229 526.072ZM695.287 534.4C694.721 534.4 694.212 534.292 693.761 534.075C693.312 533.855 692.954 533.554 692.686 533.172C692.418 532.789 692.275 532.353 692.257 531.862H693.612C693.645 532.259 693.821 532.586 694.14 532.842C694.459 533.098 694.842 533.226 695.287 533.226C695.642 533.226 695.957 533.144 696.231 532.982C696.508 532.816 696.725 532.589 696.881 532.3C697.041 532.011 697.121 531.681 697.121 531.311C697.121 530.935 697.039 530.599 696.877 530.304C696.714 530.009 696.49 529.777 696.204 529.608C695.921 529.44 695.596 529.354 695.229 529.351C694.949 529.351 694.667 529.399 694.384 529.495C694.101 529.592 693.872 529.718 693.698 529.875L692.42 529.685L692.939 525.025H698.024V526.221H694.099L693.806 528.809H693.86C694.041 528.634 694.28 528.488 694.578 528.371C694.879 528.254 695.201 528.195 695.545 528.195C696.108 528.195 696.609 528.329 697.048 528.597C697.491 528.865 697.839 529.23 698.092 529.694C698.348 530.155 698.474 530.685 698.471 531.284C698.474 531.883 698.339 532.417 698.065 532.887C697.794 533.357 697.417 533.727 696.936 533.998C696.457 534.266 695.907 534.4 695.287 534.4ZM700.693 534.359C700.446 534.359 700.234 534.272 700.056 534.097C699.879 533.92 699.79 533.706 699.79 533.456C699.79 533.209 699.879 532.998 700.056 532.824C700.234 532.646 700.446 532.557 700.693 532.557C700.94 532.557 701.152 532.646 701.33 532.824C701.507 532.998 701.596 533.209 701.596 533.456C701.596 533.622 701.554 533.774 701.47 533.912C701.388 534.048 701.28 534.156 701.145 534.237C701.009 534.319 700.859 534.359 700.693 534.359ZM703.193 532.467V531.338L707.189 525.025H708.079V526.686H707.515L704.656 531.212V531.284H710.134V532.467H703.193ZM707.578 534.273V532.124L707.587 531.609V525.025H708.91V534.273H707.578ZM716.535 532.539V532.052C716.535 531.702 716.608 531.383 716.752 531.094C716.9 530.802 717.113 530.569 717.393 530.394C717.676 530.216 718.018 530.128 718.419 530.128C718.828 530.128 719.171 530.215 719.448 530.39C719.725 530.564 719.934 530.798 720.076 531.09C720.221 531.382 720.293 531.702 720.293 532.052V532.539C720.293 532.889 720.221 533.209 720.076 533.501C719.931 533.79 719.719 534.024 719.439 534.201C719.162 534.376 718.822 534.463 718.419 534.463C718.012 534.463 717.669 534.376 717.389 534.201C717.109 534.024 716.897 533.79 716.752 533.501C716.608 533.209 716.535 532.889 716.535 532.539ZM717.588 532.052V532.539C717.588 532.798 717.649 533.033 717.773 533.244C717.896 533.455 718.111 533.56 718.419 533.56C718.723 533.56 718.935 533.455 719.055 533.244C719.176 533.033 719.236 532.798 719.236 532.539V532.052C719.236 531.793 719.177 531.558 719.06 531.347C718.945 531.136 718.732 531.031 718.419 531.031C718.118 531.031 717.904 531.136 717.777 531.347C717.651 531.558 717.588 531.793 717.588 532.052ZM711.884 527.246V526.759C711.884 526.409 711.956 526.089 712.101 525.797C712.248 525.505 712.462 525.271 712.742 525.097C713.025 524.922 713.367 524.835 713.767 524.835C714.176 524.835 714.52 524.922 714.797 525.097C715.074 525.271 715.283 525.505 715.424 525.797C715.566 526.089 715.637 526.409 715.637 526.759V527.246C715.637 527.596 715.564 527.916 715.42 528.208C715.278 528.497 715.068 528.731 714.788 528.908C714.511 529.083 714.17 529.17 713.767 529.17C713.358 529.17 713.013 529.083 712.733 528.908C712.456 528.731 712.245 528.497 712.101 528.208C711.956 527.916 711.884 527.596 711.884 527.246ZM712.941 526.759V527.246C712.941 527.505 713.001 527.74 713.121 527.951C713.245 528.162 713.46 528.267 713.767 528.267C714.068 528.267 714.279 528.162 714.399 527.951C714.523 527.74 714.584 527.505 714.584 527.246V526.759C714.584 526.5 714.526 526.265 714.408 526.054C714.291 525.843 714.077 525.738 713.767 525.738C713.466 525.738 713.252 525.843 713.126 526.054C713.002 526.265 712.941 526.5 712.941 526.759ZM712.313 534.273L718.671 525.025H719.751L713.392 534.273H712.313Z" fill="#55C75E"/>
<rect x="595.895" y="550.773" width="136.053" height="42" stroke="#2D2D2F"/>
<path d="M606.492 571.773C606.492 570.31 607.678 569.124 609.142 569.124H667.831C669.294 569.124 670.48 570.31 670.48 571.773V571.773C670.48 573.237 669.294 574.423 667.831 574.423H609.142C607.678 574.423 606.492 573.237 606.492 571.773V571.773Z" fill="#28282A"/>
<path d="M606.492 571.773C606.492 570.31 607.678 569.124 609.142 569.124H667.147C668.61 569.124 669.796 570.31 669.796 571.773V571.773C669.796 573.237 668.61 574.423 667.147 574.423H609.142C607.678 574.423 606.492 573.237 606.492 571.773V571.773Z" fill="#55C75E"/>
<path d="M687.61 566.898C688.022 566.901 688.429 566.976 688.829 567.124C689.23 567.271 689.591 567.512 689.913 567.846C690.238 568.181 690.497 568.632 690.69 569.201C690.886 569.767 690.985 570.472 690.988 571.315C690.988 572.125 690.907 572.846 690.744 573.478C690.581 574.107 690.348 574.639 690.044 575.072C689.743 575.506 689.377 575.835 688.947 576.061C688.516 576.287 688.031 576.4 687.492 576.4C686.942 576.4 686.452 576.292 686.025 576.075C685.597 575.858 685.249 575.558 684.982 575.176C684.714 574.791 684.546 574.348 684.48 573.848H685.858C685.948 574.246 686.132 574.568 686.409 574.815C686.689 575.059 687.05 575.181 687.492 575.181C688.17 575.181 688.698 574.885 689.078 574.295C689.457 573.702 689.648 572.874 689.651 571.812H689.579C689.422 572.07 689.227 572.293 688.992 572.48C688.76 572.667 688.5 572.811 688.211 572.913C687.921 573.016 687.613 573.067 687.285 573.067C686.752 573.067 686.267 572.936 685.831 572.674C685.394 572.412 685.046 572.052 684.787 571.595C684.528 571.137 684.399 570.615 684.399 570.028C684.399 569.444 684.531 568.914 684.796 568.438C685.064 567.962 685.438 567.586 685.916 567.309C686.398 567.029 686.963 566.892 687.61 566.898ZM687.614 568.072C687.262 568.072 686.945 568.16 686.662 568.334C686.382 568.506 686.16 568.739 685.998 569.034C685.835 569.326 685.754 569.651 685.754 570.01C685.754 570.368 685.832 570.693 685.989 570.985C686.148 571.274 686.365 571.504 686.639 571.676C686.916 571.845 687.232 571.929 687.587 571.929C687.852 571.929 688.099 571.878 688.328 571.775C688.557 571.673 688.757 571.532 688.929 571.351C689.1 571.167 689.234 570.96 689.331 570.728C689.427 570.496 689.475 570.252 689.475 569.996C689.475 569.656 689.394 569.34 689.231 569.048C689.072 568.756 688.852 568.521 688.572 568.343C688.292 568.163 687.973 568.072 687.614 568.072ZM695.695 566.898C696.107 566.901 696.514 566.976 696.914 567.124C697.315 567.271 697.676 567.512 697.998 567.846C698.323 568.181 698.582 568.632 698.775 569.201C698.97 569.767 699.07 570.472 699.073 571.315C699.073 572.125 698.992 572.846 698.829 573.478C698.666 574.107 698.433 574.639 698.129 575.072C697.828 575.506 697.462 575.835 697.032 576.061C696.601 576.287 696.116 576.4 695.577 576.4C695.026 576.4 694.537 576.292 694.11 576.075C693.682 575.858 693.334 575.558 693.066 575.176C692.798 574.791 692.631 574.348 692.565 573.848H693.943C694.033 574.246 694.217 574.568 694.494 574.815C694.774 575.059 695.135 575.181 695.577 575.181C696.255 575.181 696.783 574.885 697.163 574.295C697.542 573.702 697.733 572.874 697.736 571.812H697.664C697.507 572.07 697.312 572.293 697.077 572.48C696.845 572.667 696.584 572.811 696.295 572.913C696.006 573.016 695.698 573.067 695.37 573.067C694.837 573.067 694.352 572.936 693.915 572.674C693.479 572.412 693.131 572.052 692.872 571.595C692.613 571.137 692.484 570.615 692.484 570.028C692.484 569.444 692.616 568.914 692.881 568.438C693.149 567.962 693.523 567.586 694.001 567.309C694.483 567.029 695.047 566.892 695.695 566.898ZM695.699 568.072C695.347 568.072 695.029 568.16 694.746 568.334C694.466 568.506 694.245 568.739 694.083 569.034C693.92 569.326 693.839 569.651 693.839 570.01C693.839 570.368 693.917 570.693 694.074 570.985C694.233 571.274 694.45 571.504 694.724 571.676C695.001 571.845 695.317 571.929 695.672 571.929C695.937 571.929 696.184 571.878 696.413 571.775C696.642 571.673 696.842 571.532 697.013 571.351C697.185 571.167 697.319 570.96 697.415 570.728C697.512 570.496 697.56 570.252 697.56 569.996C697.56 569.656 697.479 569.34 697.316 569.048C697.157 568.756 696.937 568.521 696.657 568.343C696.377 568.163 696.058 568.072 695.699 568.072ZM701.277 576.359C701.03 576.359 700.818 576.272 700.64 576.097C700.462 575.92 700.373 575.706 700.373 575.456C700.373 575.209 700.462 574.998 700.64 574.824C700.818 574.646 701.03 574.557 701.277 574.557C701.524 574.557 701.736 574.646 701.913 574.824C702.091 574.998 702.18 575.209 702.18 575.456C702.18 575.622 702.138 575.774 702.053 575.912C701.972 576.048 701.864 576.156 701.728 576.237C701.593 576.319 701.442 576.359 701.277 576.359ZM706.874 576.4C706.308 576.4 705.8 576.292 705.348 576.075C704.899 575.855 704.541 575.554 704.273 575.172C704.005 574.789 703.862 574.353 703.844 573.862H705.199C705.232 574.259 705.408 574.586 705.727 574.842C706.046 575.098 706.429 575.226 706.874 575.226C707.23 575.226 707.544 575.144 707.818 574.982C708.095 574.816 708.312 574.589 708.469 574.3C708.628 574.011 708.708 573.681 708.708 573.311C708.708 572.935 708.627 572.599 708.464 572.304C708.301 572.009 708.077 571.777 707.791 571.608C707.508 571.44 707.183 571.354 706.816 571.351C706.536 571.351 706.254 571.399 705.971 571.495C705.688 571.592 705.459 571.718 705.285 571.875L704.007 571.685L704.526 567.025H709.611V568.221H705.687L705.393 570.809H705.447C705.628 570.634 705.867 570.488 706.165 570.371C706.466 570.254 706.789 570.195 707.132 570.195C707.695 570.195 708.196 570.329 708.636 570.597C709.078 570.865 709.426 571.23 709.679 571.694C709.935 572.155 710.061 572.685 710.058 573.284C710.061 573.883 709.926 574.417 709.652 574.887C709.381 575.357 709.004 575.727 708.523 575.998C708.044 576.266 707.495 576.4 706.874 576.4ZM716.535 574.539V574.052C716.535 573.702 716.608 573.383 716.752 573.094C716.9 572.802 717.113 572.569 717.393 572.394C717.676 572.216 718.018 572.128 718.419 572.128C718.828 572.128 719.171 572.215 719.448 572.39C719.725 572.564 719.934 572.798 720.076 573.09C720.221 573.382 720.293 573.702 720.293 574.052V574.539C720.293 574.889 720.221 575.209 720.076 575.501C719.931 575.79 719.719 576.024 719.439 576.201C719.162 576.376 718.822 576.463 718.419 576.463C718.012 576.463 717.669 576.376 717.389 576.201C717.109 576.024 716.897 575.79 716.752 575.501C716.608 575.209 716.535 574.889 716.535 574.539ZM717.588 574.052V574.539C717.588 574.798 717.649 575.033 717.773 575.244C717.896 575.455 718.111 575.56 718.419 575.56C718.723 575.56 718.935 575.455 719.055 575.244C719.176 575.033 719.236 574.798 719.236 574.539V574.052C719.236 573.793 719.177 573.558 719.06 573.347C718.945 573.136 718.732 573.031 718.419 573.031C718.118 573.031 717.904 573.136 717.777 573.347C717.651 573.558 717.588 573.793 717.588 574.052ZM711.884 569.246V568.759C711.884 568.409 711.956 568.089 712.101 567.797C712.248 567.505 712.462 567.271 712.742 567.097C713.025 566.922 713.367 566.835 713.767 566.835C714.176 566.835 714.52 566.922 714.797 567.097C715.074 567.271 715.283 567.505 715.424 567.797C715.566 568.089 715.637 568.409 715.637 568.759V569.246C715.637 569.596 715.564 569.916 715.42 570.208C715.278 570.497 715.068 570.731 714.788 570.908C714.511 571.083 714.17 571.17 713.767 571.17C713.358 571.17 713.013 571.083 712.733 570.908C712.456 570.731 712.245 570.497 712.101 570.208C711.956 569.916 711.884 569.596 711.884 569.246ZM712.941 568.759V569.246C712.941 569.505 713.001 569.74 713.121 569.951C713.245 570.162 713.46 570.267 713.767 570.267C714.068 570.267 714.279 570.162 714.399 569.951C714.523 569.74 714.584 569.505 714.584 569.246V568.759C714.584 568.5 714.526 568.265 714.408 568.054C714.291 567.843 714.077 567.738 713.767 567.738C713.466 567.738 713.252 567.843 713.126 568.054C713.002 568.265 712.941 568.5 712.941 568.759ZM712.313 576.273L718.671 567.025H719.751L713.392 576.273H712.313Z" fill="#55C75E"/>
<rect x="731.947" y="466.773" width="53" height="42" stroke="#2D2D2F"/>
<rect x="741.35" y="483.273" width="33" height="9" rx="4.5" fill="#474747"/>
<rect x="784.947" y="466.773" width="53" height="42" stroke="#2D2D2F"/>
<rect x="794.35" y="483.273" width="33" height="9" rx="4.5" fill="#474747"/>
<rect x="731.947" y="508.773" width="53" height="42" stroke="#2D2D2F"/>
<rect x="741.35" y="525.273" width="33" height="9" rx="4.5" fill="#474747"/>
<rect x="784.947" y="508.773" width="53" height="42" stroke="#2D2D2F"/>
<rect x="794.35" y="525.273" width="33" height="9" rx="4.5" fill="#474747"/>
<rect x="731.947" y="550.773" width="53" height="42" stroke="#2D2D2F"/>
<rect x="741.35" y="567.273" width="33" height="9" rx="4.5" fill="#474747"/>
<rect x="784.947" y="550.773" width="53" height="42" stroke="#2D2D2F"/>
<rect x="794.35" y="567.273" width="33" height="9" rx="4.5" fill="#474747"/>
<rect x="837.947" y="466.773" width="136.053" height="42" stroke="#2D2D2F"/>
<path d="M848.545 487.773C848.545 486.31 849.731 485.124 851.194 485.124H909.884C911.347 485.124 912.533 486.31 912.533 487.773V487.773C912.533 489.237 911.347 490.423 909.884 490.423H851.194C849.731 490.423 848.545 489.237 848.545 487.773V487.773Z" fill="#28282A"/>
<path d="M848.545 487.773C848.545 486.31 849.731 485.124 851.194 485.124H908.548C910.011 485.124 911.198 486.31 911.198 487.773V487.773C911.198 489.237 910.011 490.423 908.548 490.423H851.194C849.731 490.423 848.545 489.237 848.545 487.773V487.773Z" fill="#55C75E"/>
<path d="M929.638 482.898C930.05 482.901 930.457 482.976 930.857 483.124C931.258 483.271 931.619 483.512 931.941 483.846C932.266 484.181 932.525 484.632 932.718 485.201C932.913 485.767 933.013 486.472 933.016 487.315C933.016 488.125 932.935 488.846 932.772 489.478C932.609 490.107 932.376 490.639 932.072 491.072C931.771 491.506 931.405 491.835 930.975 492.061C930.544 492.287 930.059 492.4 929.52 492.4C928.969 492.4 928.48 492.292 928.053 492.075C927.625 491.858 927.277 491.558 927.009 491.176C926.741 490.791 926.574 490.348 926.508 489.848H927.886C927.976 490.246 928.16 490.568 928.437 490.815C928.716 491.059 929.078 491.181 929.52 491.181C930.198 491.181 930.726 490.885 931.106 490.295C931.485 489.702 931.676 488.874 931.679 487.812H931.607C931.45 488.07 931.255 488.293 931.02 488.48C930.788 488.667 930.527 488.811 930.238 488.913C929.949 489.016 929.641 489.067 929.313 489.067C928.78 489.067 928.295 488.936 927.858 488.674C927.422 488.412 927.074 488.052 926.815 487.595C926.556 487.137 926.427 486.615 926.427 486.028C926.427 485.444 926.559 484.914 926.824 484.438C927.092 483.962 927.466 483.586 927.944 483.309C928.426 483.029 928.99 482.892 929.638 482.898ZM929.642 484.072C929.29 484.072 928.972 484.16 928.689 484.334C928.409 484.506 928.188 484.739 928.026 485.034C927.863 485.326 927.782 485.651 927.782 486.01C927.782 486.368 927.86 486.693 928.017 486.985C928.176 487.274 928.393 487.504 928.667 487.676C928.944 487.845 929.26 487.929 929.615 487.929C929.88 487.929 930.127 487.878 930.356 487.775C930.585 487.673 930.785 487.532 930.956 487.351C931.128 487.167 931.262 486.96 931.358 486.728C931.455 486.496 931.503 486.252 931.503 485.996C931.503 485.656 931.422 485.34 931.259 485.048C931.099 484.756 930.88 484.521 930.6 484.343C930.32 484.163 930.001 484.072 929.642 484.072ZM937.772 492.4C937.125 492.4 936.553 492.288 936.056 492.066C935.563 491.843 935.176 491.536 934.896 491.144C934.616 490.753 934.477 490.307 934.48 489.808C934.477 489.416 934.557 489.056 934.72 488.728C934.885 488.397 935.109 488.122 935.392 487.902C935.675 487.679 935.992 487.538 936.341 487.477V487.423C935.88 487.312 935.511 487.065 935.234 486.683C934.957 486.3 934.82 485.861 934.823 485.364C934.82 484.891 934.945 484.47 935.198 484.099C935.454 483.726 935.805 483.432 936.25 483.219C936.696 483.005 937.203 482.898 937.772 482.898C938.335 482.898 938.838 483.006 939.281 483.223C939.726 483.437 940.077 483.731 940.333 484.104C940.589 484.474 940.718 484.894 940.721 485.364C940.718 485.861 940.577 486.3 940.297 486.683C940.017 487.065 939.653 487.312 939.204 487.423V487.477C939.55 487.538 939.862 487.679 940.139 487.902C940.419 488.122 940.642 488.397 940.807 488.728C940.976 489.056 941.062 489.416 941.065 489.808C941.062 490.307 940.92 490.753 940.64 491.144C940.36 491.536 939.972 491.843 939.475 492.066C938.981 492.288 938.414 492.4 937.772 492.4ZM937.772 491.257C938.155 491.257 938.486 491.194 938.766 491.068C939.046 490.938 939.263 490.759 939.416 490.53C939.57 490.298 939.648 490.027 939.651 489.717C939.648 489.395 939.564 489.111 939.398 488.864C939.236 488.617 939.014 488.423 938.734 488.281C938.454 488.14 938.134 488.069 937.772 488.069C937.408 488.069 937.084 488.14 936.801 488.281C936.518 488.423 936.296 488.617 936.133 488.864C935.97 489.111 935.891 489.395 935.894 489.717C935.891 490.027 935.964 490.298 936.115 490.53C936.269 490.759 936.487 490.938 936.77 491.068C937.053 491.194 937.387 491.257 937.772 491.257ZM937.772 486.953C938.079 486.953 938.352 486.892 938.59 486.768C938.828 486.645 939.014 486.473 939.15 486.254C939.288 486.034 939.359 485.776 939.362 485.481C939.359 485.192 939.29 484.939 939.154 484.723C939.022 484.506 938.837 484.339 938.599 484.221C938.361 484.101 938.085 484.041 937.772 484.041C937.453 484.041 937.173 484.101 936.932 484.221C936.695 484.339 936.509 484.506 936.377 484.723C936.244 484.939 936.18 485.192 936.183 485.481C936.18 485.776 936.246 486.034 936.381 486.254C936.517 486.473 936.704 486.645 936.941 486.768C937.182 486.892 937.459 486.953 937.772 486.953ZM943.317 492.359C943.07 492.359 942.858 492.272 942.68 492.097C942.503 491.92 942.414 491.706 942.414 491.456C942.414 491.209 942.503 490.998 942.68 490.824C942.858 490.646 943.07 490.557 943.317 490.557C943.564 490.557 943.776 490.646 943.954 490.824C944.131 490.998 944.22 491.209 944.22 491.456C944.22 491.622 944.178 491.774 944.094 491.912C944.012 492.048 943.904 492.156 943.769 492.237C943.633 492.319 943.483 492.359 943.317 492.359ZM948.905 492.4C948.492 492.394 948.086 492.319 947.685 492.174C947.288 492.03 946.926 491.789 946.601 491.452C946.276 491.114 946.016 490.661 945.82 490.092C945.627 489.523 945.531 488.813 945.531 487.961C945.531 487.154 945.611 486.437 945.77 485.811C945.933 485.185 946.166 484.656 946.47 484.226C946.774 483.792 947.142 483.463 947.572 483.237C948.003 483.011 948.486 482.898 949.022 482.898C949.573 482.898 950.062 483.006 950.49 483.223C950.917 483.44 951.263 483.74 951.528 484.122C951.796 484.504 951.966 484.939 952.039 485.427H950.661C950.568 485.042 950.383 484.727 950.106 484.483C949.829 484.239 949.468 484.117 949.022 484.117C948.345 484.117 947.816 484.412 947.437 485.003C947.06 485.593 946.871 486.413 946.868 487.464H946.935C947.095 487.202 947.291 486.979 947.523 486.795C947.757 486.609 948.019 486.466 948.308 486.366C948.6 486.264 948.908 486.213 949.23 486.213C949.766 486.213 950.25 486.344 950.684 486.606C951.12 486.865 951.468 487.223 951.727 487.681C951.986 488.138 952.115 488.662 952.115 489.252C952.115 489.842 951.981 490.377 951.714 490.855C951.449 491.334 951.075 491.713 950.594 491.993C950.112 492.27 949.549 492.406 948.905 492.4ZM948.9 491.226C949.255 491.226 949.573 491.138 949.853 490.964C950.133 490.789 950.354 490.554 950.517 490.259C950.679 489.964 950.761 489.635 950.761 489.27C950.761 488.915 950.681 488.591 950.521 488.299C950.365 488.007 950.148 487.775 949.871 487.604C949.597 487.432 949.284 487.346 948.932 487.346C948.664 487.346 948.415 487.398 948.186 487.5C947.961 487.602 947.762 487.744 947.59 487.924C947.419 488.105 947.283 488.313 947.184 488.548C947.088 488.779 947.039 489.025 947.039 489.284C947.039 489.63 947.119 489.951 947.279 490.246C947.441 490.541 947.663 490.779 947.943 490.959C948.226 491.137 948.545 491.226 948.9 491.226ZM958.588 490.539V490.052C958.588 489.702 958.66 489.383 958.805 489.094C958.952 488.802 959.166 488.569 959.446 488.394C959.729 488.216 960.071 488.128 960.471 488.128C960.881 488.128 961.224 488.215 961.501 488.39C961.778 488.564 961.987 488.798 962.129 489.09C962.273 489.382 962.345 489.702 962.345 490.052V490.539C962.345 490.889 962.273 491.209 962.129 491.501C961.984 491.79 961.772 492.024 961.492 492.201C961.215 492.376 960.875 492.463 960.471 492.463C960.065 492.463 959.722 492.376 959.442 492.201C959.162 492.024 958.949 491.79 958.805 491.501C958.66 491.209 958.588 490.889 958.588 490.539ZM959.64 490.052V490.539C959.64 490.798 959.702 491.033 959.826 491.244C959.949 491.455 960.164 491.56 960.471 491.56C960.775 491.56 960.988 491.455 961.108 491.244C961.229 491.033 961.289 490.798 961.289 490.539V490.052C961.289 489.793 961.23 489.558 961.113 489.347C960.998 489.136 960.784 489.031 960.471 489.031C960.17 489.031 959.956 489.136 959.83 489.347C959.704 489.558 959.64 489.793 959.64 490.052ZM953.937 485.246V484.759C953.937 484.409 954.009 484.089 954.153 483.797C954.301 483.505 954.515 483.271 954.795 483.097C955.078 482.922 955.419 482.835 955.82 482.835C956.229 482.835 956.572 482.922 956.849 483.097C957.126 483.271 957.336 483.505 957.477 483.797C957.619 484.089 957.689 484.409 957.689 484.759V485.246C957.689 485.596 957.617 485.916 957.473 486.208C957.331 486.497 957.12 486.731 956.84 486.908C956.563 487.083 956.223 487.17 955.82 487.17C955.41 487.17 955.066 487.083 954.786 486.908C954.509 486.731 954.298 486.497 954.153 486.208C954.009 485.916 953.937 485.596 953.937 485.246ZM954.993 484.759V485.246C954.993 485.505 955.054 485.74 955.174 485.951C955.297 486.162 955.513 486.267 955.82 486.267C956.121 486.267 956.332 486.162 956.452 485.951C956.575 485.74 956.637 485.505 956.637 485.246V484.759C956.637 484.5 956.578 484.265 956.461 484.054C956.344 483.843 956.13 483.738 955.82 483.738C955.519 483.738 955.305 483.843 955.178 484.054C955.055 484.265 954.993 484.5 954.993 484.759ZM954.366 492.273L960.724 483.025H961.804L955.445 492.273H954.366Z" fill="#55C75E"/>
<rect x="837.947" y="508.773" width="136.053" height="42" stroke="#2D2D2F"/>
<path d="M848.545 529.773C848.545 528.31 849.731 527.124 851.194 527.124H909.884C911.347 527.124 912.533 528.31 912.533 529.773V529.773C912.533 531.237 911.347 532.423 909.884 532.423H851.194C849.731 532.423 848.545 531.237 848.545 529.773V529.773Z" fill="#28282A"/>
<path d="M848.545 529.773C848.545 528.31 849.731 527.124 851.194 527.124H905.568C907.031 527.124 908.217 528.31 908.217 529.773V529.773C908.217 531.237 907.031 532.423 905.568 532.423H851.194C849.731 532.423 848.545 531.237 848.545 529.773V529.773Z" fill="#55C75E"/>
<path d="M929.377 524.898C929.789 524.901 930.196 524.976 930.596 525.124C930.997 525.271 931.358 525.512 931.68 525.846C932.005 526.181 932.264 526.632 932.457 527.201C932.653 527.767 932.752 528.472 932.755 529.315C932.755 530.125 932.674 530.846 932.511 531.478C932.349 532.107 932.115 532.639 931.811 533.072C931.51 533.506 931.144 533.835 930.714 534.061C930.283 534.287 929.798 534.4 929.26 534.4C928.709 534.4 928.219 534.292 927.792 534.075C927.364 533.858 927.017 533.558 926.749 533.176C926.481 532.791 926.314 532.348 926.247 531.848H927.625C927.715 532.246 927.899 532.568 928.176 532.815C928.456 533.059 928.817 533.181 929.26 533.181C929.937 533.181 930.465 532.885 930.845 532.295C931.224 531.702 931.415 530.874 931.418 529.812H931.346C931.189 530.07 930.994 530.293 930.759 530.48C930.527 530.667 930.267 530.811 929.978 530.913C929.689 531.016 929.38 531.067 929.052 531.067C928.519 531.067 928.034 530.936 927.598 530.674C927.161 530.412 926.813 530.052 926.554 529.595C926.296 529.137 926.166 528.615 926.166 528.028C926.166 527.444 926.299 526.914 926.563 526.438C926.831 525.962 927.205 525.586 927.683 525.309C928.165 525.029 928.73 524.892 929.377 524.898ZM929.381 526.072C929.029 526.072 928.712 526.16 928.429 526.334C928.149 526.506 927.927 526.739 927.765 527.034C927.602 527.326 927.521 527.651 927.521 528.01C927.521 528.368 927.599 528.693 927.756 528.985C927.915 529.274 928.132 529.504 928.406 529.676C928.683 529.845 928.999 529.929 929.354 529.929C929.619 529.929 929.866 529.878 930.095 529.775C930.324 529.673 930.524 529.532 930.696 529.351C930.867 529.167 931.001 528.96 931.098 528.728C931.194 528.496 931.242 528.252 931.242 527.996C931.242 527.656 931.161 527.34 930.998 527.048C930.839 526.756 930.619 526.521 930.339 526.343C930.059 526.163 929.74 526.072 929.381 526.072ZM934.192 532.467V531.338L938.189 525.025H939.079V526.686H938.514L935.655 531.212V531.284H941.133V532.467H934.192ZM938.577 534.273V532.124L938.586 531.609V525.025H939.91V534.273H938.577ZM943.267 534.359C943.02 534.359 942.808 534.272 942.631 534.097C942.453 533.92 942.364 533.706 942.364 533.456C942.364 533.209 942.453 532.998 942.631 532.824C942.808 532.646 943.02 532.557 943.267 532.557C943.514 532.557 943.726 532.646 943.904 532.824C944.082 532.998 944.171 533.209 944.171 533.456C944.171 533.622 944.128 533.774 944.044 533.912C943.963 534.048 943.854 534.156 943.719 534.237C943.583 534.319 943.433 534.359 943.267 534.359ZM945.961 534.273V533.262L949.091 530.019C949.425 529.667 949.7 529.358 949.917 529.093C950.137 528.826 950.301 528.571 950.409 528.33C950.518 528.089 950.572 527.834 950.572 527.563C950.572 527.255 950.5 526.991 950.355 526.768C950.211 526.542 950.014 526.369 949.764 526.248C949.514 526.125 949.232 526.063 948.919 526.063C948.588 526.063 948.299 526.131 948.052 526.266C947.805 526.402 947.616 526.593 947.483 526.84C947.351 527.087 947.284 527.376 947.284 527.707H945.952C945.952 527.144 946.082 526.652 946.341 526.23C946.599 525.809 946.955 525.482 947.406 525.25C947.858 525.015 948.371 524.898 948.946 524.898C949.527 524.898 950.039 525.014 950.482 525.246C950.927 525.475 951.275 525.788 951.525 526.185C951.775 526.58 951.9 527.025 951.9 527.522C951.9 527.865 951.835 528.201 951.706 528.529C951.579 528.857 951.358 529.223 951.042 529.626C950.726 530.027 950.286 530.513 949.723 531.085L947.885 533.009V533.077H952.049V534.273H945.961ZM958.588 532.539V532.052C958.588 531.702 958.66 531.383 958.805 531.094C958.952 530.802 959.166 530.569 959.446 530.394C959.729 530.216 960.071 530.128 960.471 530.128C960.881 530.128 961.224 530.215 961.501 530.39C961.778 530.564 961.987 530.798 962.129 531.09C962.273 531.382 962.345 531.702 962.345 532.052V532.539C962.345 532.889 962.273 533.209 962.129 533.501C961.984 533.79 961.772 534.024 961.492 534.201C961.215 534.376 960.875 534.463 960.471 534.463C960.065 534.463 959.722 534.376 959.442 534.201C959.162 534.024 958.949 533.79 958.805 533.501C958.66 533.209 958.588 532.889 958.588 532.539ZM959.64 532.052V532.539C959.64 532.798 959.702 533.033 959.826 533.244C959.949 533.455 960.164 533.56 960.471 533.56C960.775 533.56 960.988 533.455 961.108 533.244C961.229 533.033 961.289 532.798 961.289 532.539V532.052C961.289 531.793 961.23 531.558 961.113 531.347C960.998 531.136 960.784 531.031 960.471 531.031C960.17 531.031 959.956 531.136 959.83 531.347C959.704 531.558 959.64 531.793 959.64 532.052ZM953.937 527.246V526.759C953.937 526.409 954.009 526.089 954.153 525.797C954.301 525.505 954.515 525.271 954.795 525.097C955.078 524.922 955.419 524.835 955.82 524.835C956.229 524.835 956.572 524.922 956.849 525.097C957.126 525.271 957.336 525.505 957.477 525.797C957.619 526.089 957.689 526.409 957.689 526.759V527.246C957.689 527.596 957.617 527.916 957.473 528.208C957.331 528.497 957.12 528.731 956.84 528.908C956.563 529.083 956.223 529.17 955.82 529.17C955.41 529.17 955.066 529.083 954.786 528.908C954.509 528.731 954.298 528.497 954.153 528.208C954.009 527.916 953.937 527.596 953.937 527.246ZM954.993 526.759V527.246C954.993 527.505 955.054 527.74 955.174 527.951C955.297 528.162 955.513 528.267 955.82 528.267C956.121 528.267 956.332 528.162 956.452 527.951C956.575 527.74 956.637 527.505 956.637 527.246V526.759C956.637 526.5 956.578 526.265 956.461 526.054C956.344 525.843 956.13 525.738 955.82 525.738C955.519 525.738 955.305 525.843 955.178 526.054C955.055 526.265 954.993 526.5 954.993 526.759ZM954.366 534.273L960.724 525.025H961.804L955.445 534.273H954.366Z" fill="#55C75E"/>
<rect x="837.947" y="550.773" width="136.053" height="42" stroke="#2D2D2F"/>
<path d="M848.545 571.773C848.545 570.31 849.731 569.124 851.194 569.124H909.884C911.347 569.124 912.533 570.31 912.533 571.773V571.773C912.533 573.237 911.347 574.423 909.884 574.423H851.194C849.731 574.423 848.545 573.237 848.545 571.773V571.773Z" fill="#28282A"/>
<path d="M848.545 571.773C848.545 570.31 849.731 569.124 851.194 569.124H908.272C909.735 569.124 910.921 570.31 910.921 571.773V571.773C910.921 573.237 909.735 574.423 908.272 574.423H851.194C849.731 574.423 848.545 573.237 848.545 571.773V571.773Z" fill="#55C75E"/>
<path d="M932.494 566.898C932.907 566.901 933.313 566.976 933.714 567.124C934.114 567.271 934.475 567.512 934.797 567.846C935.123 568.181 935.381 568.632 935.574 569.201C935.77 569.767 935.869 570.472 935.872 571.315C935.872 572.125 935.791 572.846 935.628 573.478C935.466 574.107 935.232 574.639 934.928 575.072C934.627 575.506 934.261 575.835 933.831 576.061C933.4 576.287 932.916 576.4 932.377 576.4C931.826 576.4 931.337 576.292 930.909 576.075C930.482 575.858 930.134 575.558 929.866 575.176C929.598 574.791 929.431 574.348 929.365 573.848H930.742C930.832 574.246 931.016 574.568 931.293 574.815C931.573 575.059 931.934 575.181 932.377 575.181C933.054 575.181 933.583 574.885 933.962 574.295C934.341 573.702 934.532 572.874 934.535 571.812H934.463C934.307 572.07 934.111 572.293 933.876 572.48C933.644 572.667 933.384 572.811 933.095 572.913C932.806 573.016 932.497 573.067 932.169 573.067C931.636 573.067 931.151 572.936 930.715 572.674C930.278 572.412 929.931 572.052 929.672 571.595C929.413 571.137 929.283 570.615 929.283 570.028C929.283 569.444 929.416 568.914 929.681 568.438C929.949 567.962 930.322 567.586 930.801 567.309C931.282 567.029 931.847 566.892 932.494 566.898ZM932.499 568.072C932.146 568.072 931.829 568.16 931.546 568.334C931.266 568.506 931.045 568.739 930.882 569.034C930.719 569.326 930.638 569.651 930.638 570.01C930.638 570.368 930.716 570.693 930.873 570.985C931.032 571.274 931.249 571.504 931.523 571.676C931.8 571.845 932.116 571.929 932.472 571.929C932.737 571.929 932.983 571.878 933.212 571.775C933.441 571.673 933.641 571.532 933.813 571.351C933.985 571.167 934.118 570.96 934.215 570.728C934.311 570.496 934.359 570.252 934.359 569.996C934.359 569.656 934.278 569.34 934.115 569.048C933.956 568.756 933.736 568.521 933.456 568.343C933.176 568.163 932.857 568.072 932.499 568.072ZM940.629 576.4C939.981 576.4 939.409 576.288 938.913 576.066C938.419 575.843 938.032 575.536 937.752 575.144C937.472 574.753 937.334 574.307 937.337 573.808C937.334 573.416 937.413 573.056 937.576 572.728C937.742 572.397 937.966 572.122 938.249 571.902C938.532 571.679 938.848 571.538 939.197 571.477V571.423C938.737 571.312 938.368 571.065 938.091 570.683C937.814 570.3 937.677 569.861 937.68 569.364C937.677 568.891 937.802 568.47 938.055 568.099C938.311 567.726 938.661 567.432 939.107 567.219C939.552 567.005 940.06 566.898 940.629 566.898C941.192 566.898 941.695 567.006 942.137 567.223C942.583 567.437 942.934 567.731 943.189 568.104C943.445 568.474 943.575 568.894 943.578 569.364C943.575 569.861 943.433 570.3 943.153 570.683C942.873 571.065 942.509 571.312 942.06 571.423V571.477C942.407 571.538 942.718 571.679 942.995 571.902C943.275 572.122 943.498 572.397 943.664 572.728C943.832 573.056 943.918 573.416 943.921 573.808C943.918 574.307 943.777 574.753 943.497 575.144C943.217 575.536 942.828 575.843 942.331 576.066C941.838 576.288 941.27 576.4 940.629 576.4ZM940.629 575.257C941.011 575.257 941.342 575.194 941.622 575.068C941.902 574.938 942.119 574.759 942.273 574.53C942.426 574.298 942.504 574.027 942.507 573.717C942.504 573.395 942.42 573.111 942.255 572.864C942.092 572.617 941.871 572.423 941.591 572.281C941.311 572.14 940.99 572.069 940.629 572.069C940.264 572.069 939.941 572.14 939.658 572.281C939.375 572.423 939.152 572.617 938.989 572.864C938.827 573.111 938.747 573.395 938.75 573.717C938.747 574.027 938.821 574.298 938.971 574.53C939.125 574.759 939.343 574.938 939.626 575.068C939.909 575.194 940.243 575.257 940.629 575.257ZM940.629 570.953C940.936 570.953 941.208 570.892 941.446 570.768C941.684 570.645 941.871 570.473 942.006 570.254C942.145 570.034 942.215 569.776 942.218 569.481C942.215 569.192 942.146 568.939 942.011 568.723C941.878 568.506 941.693 568.339 941.455 568.221C941.217 568.101 940.942 568.041 940.629 568.041C940.31 568.041 940.03 568.101 939.789 568.221C939.551 568.339 939.366 568.506 939.233 568.723C939.101 568.939 939.036 569.192 939.039 569.481C939.036 569.776 939.102 570.034 939.238 570.254C939.373 570.473 939.56 570.645 939.798 570.768C940.039 570.892 940.316 570.953 940.629 570.953ZM946.173 576.359C945.927 576.359 945.714 576.272 945.537 576.097C945.359 575.92 945.27 575.706 945.27 575.456C945.27 575.209 945.359 574.998 945.537 574.824C945.714 574.646 945.927 574.557 946.173 574.557C946.42 574.557 946.633 574.646 946.81 574.824C946.988 574.998 947.077 575.209 947.077 575.456C947.077 575.622 947.034 575.774 946.95 575.912C946.869 576.048 946.761 576.156 946.625 576.237C946.49 576.319 946.339 576.359 946.173 576.359ZM951.259 567.025V576.273H949.859V568.424H949.804L947.591 569.87V568.533L949.899 567.025H951.259ZM958.588 574.539V574.052C958.588 573.702 958.66 573.383 958.805 573.094C958.952 572.802 959.166 572.569 959.446 572.394C959.729 572.216 960.071 572.128 960.471 572.128C960.881 572.128 961.224 572.215 961.501 572.39C961.778 572.564 961.987 572.798 962.129 573.09C962.273 573.382 962.345 573.702 962.345 574.052V574.539C962.345 574.889 962.273 575.209 962.129 575.501C961.984 575.79 961.772 576.024 961.492 576.201C961.215 576.376 960.875 576.463 960.471 576.463C960.065 576.463 959.722 576.376 959.442 576.201C959.162 576.024 958.949 575.79 958.805 575.501C958.66 575.209 958.588 574.889 958.588 574.539ZM959.64 574.052V574.539C959.64 574.798 959.702 575.033 959.826 575.244C959.949 575.455 960.164 575.56 960.471 575.56C960.775 575.56 960.988 575.455 961.108 575.244C961.229 575.033 961.289 574.798 961.289 574.539V574.052C961.289 573.793 961.23 573.558 961.113 573.347C960.998 573.136 960.784 573.031 960.471 573.031C960.17 573.031 959.956 573.136 959.83 573.347C959.704 573.558 959.64 573.793 959.64 574.052ZM953.937 569.246V568.759C953.937 568.409 954.009 568.089 954.153 567.797C954.301 567.505 954.515 567.271 954.795 567.097C955.078 566.922 955.419 566.835 955.82 566.835C956.229 566.835 956.572 566.922 956.849 567.097C957.126 567.271 957.336 567.505 957.477 567.797C957.619 568.089 957.689 568.409 957.689 568.759V569.246C957.689 569.596 957.617 569.916 957.473 570.208C957.331 570.497 957.12 570.731 956.84 570.908C956.563 571.083 956.223 571.17 955.82 571.17C955.41 571.17 955.066 571.083 954.786 570.908C954.509 570.731 954.298 570.497 954.153 570.208C954.009 569.916 953.937 569.596 953.937 569.246ZM954.993 568.759V569.246C954.993 569.505 955.054 569.74 955.174 569.951C955.297 570.162 955.513 570.267 955.82 570.267C956.121 570.267 956.332 570.162 956.452 569.951C956.575 569.74 956.637 569.505 956.637 569.246V568.759C956.637 568.5 956.578 568.265 956.461 568.054C956.344 567.843 956.13 567.738 955.82 567.738C955.519 567.738 955.305 567.843 955.178 568.054C955.055 568.265 954.993 568.5 954.993 568.759ZM954.366 576.273L960.724 567.025H961.804L955.445 576.273H954.366Z" fill="#55C75E"/>
<rect x="974" y="466.773" width="53" height="42" stroke="#2D2D2F"/>
<rect x="983.402" y="483.273" width="33" height="9" rx="4.5" fill="#474747"/>
<rect x="1027" y="466.773" width="53" height="42" stroke="#2D2D2F"/>
<rect x="1036.4" y="483.273" width="33" height="9" rx="4.5" fill="#474747"/>
<rect x="974" y="508.773" width="53" height="42" stroke="#2D2D2F"/>
<rect x="995.402" y="525.273" width="21" height="9" rx="4.5" fill="#474747"/>
<rect x="1027" y="508.773" width="53" height="42" stroke="#2D2D2F"/>
<rect x="1048.4" y="525.273" width="21" height="9" rx="4.5" fill="#474747"/>
<rect x="974" y="550.773" width="53" height="42" stroke="#2D2D2F"/>
<rect x="983.402" y="567.273" width="33" height="9" rx="4.5" fill="#474747"/>
<rect x="1027" y="550.773" width="53" height="42" stroke="#2D2D2F"/>
<rect x="1036.4" y="567.273" width="33" height="9" rx="4.5" fill="#474747"/>
</g>
<rect x="438" y="379.992" width="642" height="209" stroke="#2D2D2F"/>
<rect x="438" y="230.622" width="55" height="9" rx="4.5" fill="#242424"/>
<path d="M444.359 244.391H526.913C530.132 244.391 532.742 247.001 532.742 250.22V267.176C532.742 270.395 530.132 273.005 526.913 273.005H444.359C441.14 273.005 438.53 270.395 438.53 267.176V250.22C438.53 247.001 441.14 244.391 444.359 244.391Z" fill="black"/>
<path d="M444.359 244.391H526.913C530.132 244.391 532.742 247.001 532.742 250.22V267.176C532.742 270.395 530.132 273.005 526.913 273.005H444.359C441.14 273.005 438.53 270.395 438.53 267.176V250.22C438.53 247.001 441.14 244.391 444.359 244.391Z" stroke="#2D2D2F" stroke-width="1.05977"/>
<rect x="446.479" y="254.198" width="55" height="9" rx="4.5" fill="#1B1B1B"/>
<path d="M515.255 257.108L518.435 260.288L521.614 257.108" stroke="#ECECEE" stroke-width="0.706516" stroke-linecap="round" stroke-linejoin="round"/>
<path d="M455.658 295.995H452.28C452.184 295.441 452.006 294.951 451.747 294.523C451.489 294.09 451.166 293.722 450.781 293.421C450.396 293.12 449.956 292.894 449.462 292.744C448.975 292.587 448.448 292.509 447.882 292.509C446.876 292.509 445.985 292.762 445.208 293.268C444.431 293.767 443.823 294.502 443.384 295.471C442.944 296.435 442.724 297.612 442.724 299.003C442.724 300.418 442.944 301.61 443.384 302.58C443.829 303.543 444.437 304.272 445.208 304.766C445.985 305.253 446.873 305.497 447.873 305.497C448.427 305.497 448.944 305.425 449.426 305.28C449.914 305.13 450.35 304.91 450.736 304.621C451.127 304.332 451.455 303.977 451.72 303.555C451.991 303.134 452.178 302.652 452.28 302.11L455.658 302.128C455.532 303.007 455.258 303.832 454.836 304.603C454.421 305.374 453.876 306.054 453.202 306.644C452.527 307.228 451.738 307.686 450.835 308.017C449.932 308.342 448.929 308.505 447.827 308.505C446.202 308.505 444.751 308.129 443.474 307.376C442.197 306.623 441.192 305.536 440.457 304.115C439.723 302.694 439.355 300.99 439.355 299.003C439.355 297.01 439.726 295.306 440.466 293.891C441.207 292.47 442.215 291.383 443.492 290.63C444.769 289.878 446.214 289.501 447.827 289.501C448.857 289.501 449.815 289.646 450.7 289.935C451.585 290.224 452.374 290.648 453.066 291.208C453.759 291.762 454.328 292.443 454.773 293.25C455.225 294.05 455.52 294.966 455.658 295.995ZM463.998 308.523C462.643 308.523 461.469 308.225 460.476 307.629C459.482 307.033 458.711 306.199 458.163 305.127C457.622 304.055 457.351 302.803 457.351 301.369C457.351 299.936 457.622 298.681 458.163 297.603C458.711 296.525 459.482 295.688 460.476 295.092C461.469 294.496 462.643 294.198 463.998 294.198C465.353 294.198 466.527 294.496 467.521 295.092C468.514 295.688 469.282 296.525 469.824 297.603C470.372 298.681 470.646 299.936 470.646 301.369C470.646 302.803 470.372 304.055 469.824 305.127C469.282 306.199 468.514 307.033 467.521 307.629C466.527 308.225 465.353 308.523 463.998 308.523ZM464.016 305.904C464.751 305.904 465.365 305.702 465.859 305.298C466.353 304.889 466.72 304.341 466.961 303.655C467.208 302.968 467.331 302.203 467.331 301.36C467.331 300.511 467.208 299.744 466.961 299.057C466.72 298.365 466.353 297.814 465.859 297.404C465.365 296.995 464.751 296.79 464.016 296.79C463.264 296.79 462.637 296.995 462.138 297.404C461.644 297.814 461.274 298.365 461.027 299.057C460.786 299.744 460.665 300.511 460.665 301.36C460.665 302.203 460.786 302.968 461.027 303.655C461.274 304.341 461.644 304.889 462.138 305.298C462.637 305.702 463.264 305.904 464.016 305.904ZM484.705 294.379L479.765 308.252H476.152L471.211 294.379H474.698L477.886 304.684H478.031L481.228 294.379H484.705ZM492.002 308.523C490.611 308.523 489.41 308.234 488.398 307.656C487.393 307.072 486.619 306.247 486.077 305.181C485.535 304.109 485.264 302.848 485.264 301.397C485.264 299.969 485.535 298.717 486.077 297.639C486.625 296.555 487.39 295.712 488.371 295.11C489.353 294.502 490.506 294.198 491.83 294.198C492.685 294.198 493.492 294.336 494.251 294.613C495.016 294.884 495.69 295.306 496.274 295.878C496.864 296.45 497.328 297.179 497.665 298.064C498.002 298.943 498.171 299.991 498.171 301.207V302.209H486.799V300.006H495.037C495.031 299.379 494.895 298.822 494.63 298.335C494.365 297.841 493.995 297.452 493.519 297.169C493.05 296.886 492.502 296.745 491.876 296.745C491.207 296.745 490.62 296.908 490.114 297.233C489.608 297.552 489.214 297.973 488.931 298.497C488.654 299.015 488.513 299.584 488.507 300.204V302.128C488.507 302.935 488.654 303.627 488.949 304.206C489.244 304.778 489.657 305.217 490.187 305.524C490.716 305.825 491.337 305.976 492.047 305.976C492.523 305.976 492.953 305.91 493.339 305.777C493.724 305.639 494.058 305.437 494.341 305.172C494.624 304.907 494.838 304.579 494.983 304.187L498.035 304.531C497.843 305.338 497.475 306.042 496.934 306.644C496.398 307.24 495.711 307.704 494.874 308.035C494.037 308.36 493.08 308.523 492.002 308.523ZM500.301 308.252V294.379H503.471V296.691H503.616C503.869 295.89 504.302 295.273 504.917 294.839C505.537 294.4 506.244 294.18 507.039 294.18C507.22 294.18 507.422 294.189 507.644 294.207C507.873 294.219 508.063 294.24 508.213 294.27V297.278C508.075 297.23 507.855 297.188 507.554 297.151C507.259 297.109 506.973 297.088 506.696 297.088C506.1 297.088 505.564 297.218 505.088 297.477C504.619 297.729 504.248 298.082 503.977 298.533C503.706 298.985 503.571 299.506 503.571 300.096V308.252H500.301ZM513.494 308.532C512.614 308.532 511.823 308.375 511.118 308.062C510.42 307.743 509.866 307.273 509.456 306.653C509.053 306.033 508.851 305.268 508.851 304.359C508.851 303.576 508.996 302.929 509.285 302.417C509.574 301.905 509.968 301.496 510.468 301.189C510.968 300.882 511.531 300.65 512.157 300.493C512.789 300.331 513.442 300.213 514.117 300.141C514.93 300.057 515.589 299.982 516.095 299.915C516.601 299.843 516.968 299.735 517.197 299.59C517.432 299.44 517.549 299.208 517.549 298.895V298.84C517.549 298.16 517.347 297.633 516.944 297.26C516.54 296.886 515.959 296.7 515.201 296.7C514.4 296.7 513.765 296.874 513.295 297.224C512.831 297.573 512.518 297.985 512.356 298.461L509.303 298.028C509.543 297.185 509.941 296.48 510.495 295.914C511.049 295.342 511.726 294.914 512.527 294.631C513.328 294.342 514.213 294.198 515.183 294.198C515.851 294.198 516.516 294.276 517.179 294.433C517.841 294.589 518.446 294.848 518.994 295.21C519.542 295.565 519.982 296.05 520.313 296.664C520.65 297.278 520.819 298.046 520.819 298.967V308.252H517.675V306.346H517.567C517.368 306.732 517.088 307.093 516.727 307.43C516.372 307.761 515.923 308.029 515.381 308.234C514.845 308.433 514.216 308.532 513.494 308.532ZM514.343 306.129C514.999 306.129 515.568 306 516.05 305.741C516.531 305.476 516.902 305.127 517.161 304.693C517.426 304.26 517.558 303.787 517.558 303.275V301.64C517.456 301.725 517.281 301.803 517.034 301.875C516.793 301.948 516.522 302.011 516.221 302.065C515.92 302.119 515.622 302.167 515.327 302.209C515.032 302.252 514.776 302.288 514.559 302.318C514.072 302.384 513.635 302.492 513.25 302.643C512.864 302.794 512.56 303.004 512.337 303.275C512.115 303.54 512.003 303.883 512.003 304.305C512.003 304.907 512.223 305.362 512.663 305.669C513.102 305.976 513.662 306.129 514.343 306.129ZM529.504 313.744C528.33 313.744 527.321 313.584 526.478 313.265C525.635 312.952 524.958 312.53 524.446 312C523.934 311.47 523.579 310.883 523.38 310.239L526.325 309.525C526.457 309.796 526.65 310.064 526.903 310.329C527.156 310.6 527.496 310.823 527.923 310.998C528.357 311.178 528.902 311.269 529.558 311.269C530.485 311.269 531.253 311.043 531.861 310.591C532.47 310.146 532.774 309.411 532.774 308.387V305.759H532.611C532.442 306.096 532.196 306.443 531.87 306.798C531.551 307.153 531.127 307.451 530.597 307.692C530.073 307.933 529.414 308.053 528.619 308.053C527.553 308.053 526.587 307.803 525.719 307.304C524.858 306.798 524.172 306.045 523.66 305.046C523.154 304.04 522.901 302.781 522.901 301.27C522.901 299.747 523.154 298.461 523.66 297.413C524.172 296.36 524.861 295.562 525.729 295.02C526.596 294.472 527.562 294.198 528.628 294.198C529.441 294.198 530.109 294.336 530.633 294.613C531.163 294.884 531.584 295.213 531.897 295.598C532.211 295.977 532.448 296.336 532.611 296.673H532.792V294.379H536.016V308.478C536.016 309.664 535.733 310.645 535.167 311.422C534.601 312.199 533.827 312.78 532.846 313.165C531.864 313.551 530.75 313.744 529.504 313.744ZM529.531 305.488C530.224 305.488 530.814 305.32 531.301 304.982C531.789 304.645 532.159 304.16 532.412 303.528C532.665 302.896 532.792 302.137 532.792 301.252C532.792 300.379 532.665 299.614 532.412 298.958C532.165 298.302 531.798 297.793 531.31 297.431C530.829 297.064 530.236 296.88 529.531 296.88C528.802 296.88 528.194 297.07 527.707 297.449C527.219 297.829 526.852 298.35 526.605 299.012C526.358 299.668 526.234 300.415 526.234 301.252C526.234 302.101 526.358 302.845 526.605 303.483C526.858 304.115 527.228 304.609 527.716 304.964C528.209 305.313 528.815 305.488 529.531 305.488ZM544.873 308.523C543.482 308.523 542.281 308.234 541.269 307.656C540.264 307.072 539.49 306.247 538.948 305.181C538.406 304.109 538.135 302.848 538.135 301.397C538.135 299.969 538.406 298.717 538.948 297.639C539.496 296.555 540.261 295.712 541.242 295.11C542.224 294.502 543.377 294.198 544.701 294.198C545.557 294.198 546.363 294.336 547.122 294.613C547.887 294.884 548.561 295.306 549.145 295.878C549.735 296.45 550.199 297.179 550.536 298.064C550.873 298.943 551.042 299.991 551.042 301.207V302.209H539.671V300.006H547.908C547.902 299.379 547.766 298.822 547.501 298.335C547.237 297.841 546.866 297.452 546.39 297.169C545.921 296.886 545.373 296.745 544.747 296.745C544.078 296.745 543.491 296.908 542.985 297.233C542.48 297.552 542.085 297.973 541.802 298.497C541.525 299.015 541.384 299.584 541.378 300.204V302.128C541.378 302.935 541.525 303.627 541.82 304.206C542.115 304.778 542.528 305.217 543.058 305.524C543.588 305.825 544.208 305.976 544.918 305.976C545.394 305.976 545.824 305.91 546.21 305.777C546.595 305.639 546.929 305.437 547.212 305.172C547.495 304.907 547.709 304.579 547.854 304.187L550.907 304.531C550.714 305.338 550.347 306.042 549.805 306.644C549.269 307.24 548.582 307.704 547.745 308.035C546.908 308.36 545.951 308.523 544.873 308.523ZM558.845 308.252V294.379H562.016V296.691H562.16C562.413 295.89 562.847 295.273 563.461 294.839C564.081 294.4 564.789 294.18 565.583 294.18C565.764 294.18 565.966 294.189 566.189 294.207C566.417 294.219 566.607 294.24 566.758 294.27V297.278C566.619 297.23 566.399 297.188 566.098 297.151C565.803 297.109 565.517 297.088 565.24 297.088C564.644 297.088 564.108 297.218 563.632 297.477C563.163 297.729 562.792 298.082 562.521 298.533C562.251 298.985 562.115 299.506 562.115 300.096V308.252H558.845ZM573.865 308.523C572.474 308.523 571.272 308.234 570.261 307.656C569.255 307.072 568.481 306.247 567.939 305.181C567.398 304.109 567.127 302.848 567.127 301.397C567.127 299.969 567.398 298.717 567.939 297.639C568.487 296.555 569.252 295.712 570.234 295.11C571.215 294.502 572.368 294.198 573.693 294.198C574.548 294.198 575.355 294.336 576.114 294.613C576.878 294.884 577.553 295.306 578.137 295.878C578.727 296.45 579.19 297.179 579.528 298.064C579.865 298.943 580.033 299.991 580.033 301.207V302.209H568.662V300.006H576.899C576.893 299.379 576.758 298.822 576.493 298.335C576.228 297.841 575.858 297.452 575.382 297.169C574.912 296.886 574.364 296.745 573.738 296.745C573.07 296.745 572.483 296.908 571.977 297.233C571.471 297.552 571.077 297.973 570.794 298.497C570.517 299.015 570.375 299.584 570.369 300.204V302.128C570.369 302.935 570.517 303.627 570.812 304.206C571.107 304.778 571.519 305.217 572.049 305.524C572.579 305.825 573.199 305.976 573.91 305.976C574.385 305.976 574.816 305.91 575.201 305.777C575.587 305.639 575.921 305.437 576.204 305.172C576.487 304.907 576.701 304.579 576.845 304.187L579.898 304.531C579.705 305.338 579.338 306.042 578.796 306.644C578.26 307.24 577.574 307.704 576.737 308.035C575.9 308.36 574.942 308.523 573.865 308.523ZM582.164 313.454V294.379H585.379V296.673H585.569C585.737 296.336 585.975 295.977 586.282 295.598C586.589 295.213 587.005 294.884 587.529 294.613C588.053 294.336 588.721 294.198 589.534 294.198C590.606 294.198 591.572 294.472 592.433 295.02C593.3 295.562 593.987 296.366 594.493 297.431C595.004 298.491 595.26 299.792 595.26 301.333C595.26 302.857 595.01 304.151 594.511 305.217C594.011 306.283 593.33 307.096 592.469 307.656C591.608 308.216 590.633 308.496 589.543 308.496C588.748 308.496 588.089 308.363 587.565 308.098C587.041 307.833 586.62 307.514 586.3 307.141C585.987 306.762 585.743 306.403 585.569 306.066H585.433V313.454H582.164ZM585.37 301.315C585.37 302.212 585.497 302.998 585.749 303.673C586.008 304.347 586.379 304.874 586.86 305.253C587.348 305.627 587.938 305.813 588.631 305.813C589.353 305.813 589.958 305.621 590.446 305.235C590.934 304.844 591.301 304.311 591.548 303.637C591.801 302.956 591.927 302.182 591.927 301.315C591.927 300.454 591.804 299.689 591.557 299.021C591.31 298.353 590.943 297.829 590.455 297.449C589.968 297.07 589.359 296.88 588.631 296.88C587.932 296.88 587.339 297.064 586.851 297.431C586.364 297.799 585.993 298.314 585.74 298.976C585.494 299.638 585.37 300.418 585.37 301.315ZM603.476 308.523C602.121 308.523 600.947 308.225 599.953 307.629C598.96 307.033 598.189 306.199 597.641 305.127C597.099 304.055 596.828 302.803 596.828 301.369C596.828 299.936 597.099 298.681 597.641 297.603C598.189 296.525 598.96 295.688 599.953 295.092C600.947 294.496 602.121 294.198 603.476 294.198C604.831 294.198 606.005 294.496 606.999 295.092C607.992 295.688 608.76 296.525 609.302 297.603C609.85 298.681 610.124 299.936 610.124 301.369C610.124 302.803 609.85 304.055 609.302 305.127C608.76 306.199 607.992 307.033 606.999 307.629C606.005 308.225 604.831 308.523 603.476 308.523ZM603.494 305.904C604.229 305.904 604.843 305.702 605.337 305.298C605.83 304.889 606.198 304.341 606.439 303.655C606.685 302.968 606.809 302.203 606.809 301.36C606.809 300.511 606.685 299.744 606.439 299.057C606.198 298.365 605.83 297.814 605.337 297.404C604.843 296.995 604.229 296.79 603.494 296.79C602.741 296.79 602.115 296.995 601.615 297.404C601.122 297.814 600.751 298.365 600.504 299.057C600.264 299.744 600.143 300.511 600.143 301.36C600.143 302.203 600.264 302.968 600.504 303.655C600.751 304.341 601.122 304.889 601.615 305.298C602.115 305.702 602.741 305.904 603.494 305.904ZM612.263 308.252V294.379H615.433V296.691H615.578C615.831 295.89 616.264 295.273 616.878 294.839C617.499 294.4 618.206 294.18 619.001 294.18C619.182 294.18 619.383 294.189 619.606 294.207C619.835 294.219 620.025 294.24 620.175 294.27V297.278C620.037 297.23 619.817 297.188 619.516 297.151C619.221 297.109 618.935 297.088 618.658 297.088C618.062 297.088 617.526 297.218 617.05 297.477C616.58 297.729 616.21 298.082 615.939 298.533C615.668 298.985 615.533 299.506 615.533 300.096V308.252H612.263ZM629.384 294.379V296.908H621.409V294.379H629.384ZM623.378 291.055H626.648V304.079C626.648 304.519 626.714 304.856 626.846 305.091C626.985 305.32 627.165 305.476 627.388 305.56C627.611 305.645 627.858 305.687 628.129 305.687C628.334 305.687 628.52 305.672 628.689 305.642C628.863 305.612 628.996 305.584 629.086 305.56L629.637 308.116C629.463 308.177 629.213 308.243 628.888 308.315C628.568 308.387 628.177 308.43 627.713 308.442C626.894 308.466 626.157 308.342 625.5 308.071C624.844 307.794 624.323 307.367 623.938 306.789C623.559 306.211 623.372 305.488 623.378 304.621V291.055Z" fill="#ECECEE"/>
<rect x="438" y="323.97" width="28" height="6" rx="3" fill="#26262C"/>
<rect x="476" y="323.97" width="61" height="6" rx="3" fill="#26262C"/>
<rect x="547" y="323.97" width="119" height="6" rx="3" fill="#26262C"/>
<rect x="765.305" y="203.992" width="68.8853" height="38.1519" stroke="#2D2D2F"/>
<rect x="777.305" y="216.068" width="37" height="14" rx="7" fill="#272728"/>
<rect x="834.19" y="203.992" width="97.4992" height="38.1519" stroke="#2D2D2F"/>
<rect x="855.939" y="216.068" width="54" height="14" rx="7" fill="#272728"/>
<rect x="931.689" y="203.992" width="74.1842" height="38.1519" stroke="#2D2D2F"/>
<rect x="971.873" y="216.068" width="22" height="14" rx="7" fill="#272728"/>
<rect x="1005.87" y="203.992" width="74.1842" height="38.1519" stroke="#2D2D2F"/>
<rect x="1031.06" y="216.068" width="37" height="14" rx="7" fill="#272728"/>
<rect x="765.305" y="280.296" width="68.8853" height="38.1519" stroke="#2D2D2F"/>
<rect x="777.305" y="294.872" width="33" height="9" rx="4.5" fill="#474747"/>
<rect x="765.305" y="242.144" width="68.8853" height="38.1519" stroke="#2D2D2F"/>
<rect x="777.305" y="256.72" width="25" height="9" rx="4.5" fill="#474747"/>
<rect x="765.305" y="318.448" width="68.8853" height="38.1519" stroke="#2D2D2F"/>
<rect opacity="0.4" x="777.305" y="333.024" width="45" height="9" rx="4.5" fill="#474747"/>
<rect x="834.19" y="280.296" width="97.4992" height="38.1519" fill="#3C933B"/>
<rect x="834.19" y="280.296" width="97.4992" height="38.1519" stroke="#2D2D2F"/>
<rect x="860.439" y="294.872" width="45" height="9" rx="4.5" fill="#ECECEE" fill-opacity="0.54"/>
<rect x="834.19" y="242.144" width="97.4992" height="38.1519" fill="#45A949"/>
<rect x="834.19" y="242.144" width="97.4992" height="38.1519" stroke="#2D2D2F"/>
<rect x="860.439" y="256.72" width="45" height="9" rx="4.5" fill="#ECECEE" fill-opacity="0.54"/>
<rect x="834.19" y="318.448" width="97.4992" height="38.1519" fill="#1F6522"/>
<rect x="834.19" y="318.448" width="97.4992" height="38.1519" stroke="#2D2D2F"/>
<rect opacity="0.5" x="860.439" y="333.024" width="45" height="9" rx="4.5" fill="#ECECEE" fill-opacity="0.54"/>
<rect x="931.689" y="280.296" width="74.1842" height="38.1519" stroke="#2D2D2F"/>
<rect x="956.873" y="294.872" width="37" height="9" rx="4.5" fill="#474747"/>
<rect x="931.689" y="242.144" width="74.1842" height="38.1519" stroke="#2D2D2F"/>
<rect x="956.873" y="256.72" width="37" height="9" rx="4.5" fill="#474747"/>
<rect x="931.689" y="318.448" width="74.1842" height="38.1519" stroke="#2D2D2F"/>
<rect opacity="0.4" x="948.873" y="333.024" width="45" height="9" rx="4.5" fill="#474747"/>
<rect x="1005.87" y="280.296" width="74.1842" height="38.1519" stroke="#2D2D2F"/>
<rect x="1031.06" y="294.872" width="37" height="9" rx="4.5" fill="#474747"/>
<rect x="1005.87" y="242.144" width="74.1842" height="38.1519" stroke="#2D2D2F"/>
<rect x="1031.06" y="256.72" width="37" height="9" rx="4.5" fill="#474747"/>
<rect x="1005.87" y="318.448" width="74.1842" height="38.1519" stroke="#2D2D2F"/>
<rect opacity="0.4" x="1023.06" y="333.024" width="45" height="9" rx="4.5" fill="#474747"/>
<rect x="689" y="242.144" width="76.3037" height="114.456" stroke="#2D2D2F"/>
<rect x="689" y="242.144" width="38.1519" height="38.1519" stroke="#2D2D2F" stroke-width="1.05977"/>
<path d="M709.41 254.553V257.219C709.41 257.573 709.55 257.912 709.8 258.162C710.05 258.412 710.39 258.553 710.743 258.553H713.41M706.076 263.219H710.076M708.076 265.219V261.219M710.076 254.553H704.076C703.723 254.553 703.384 254.693 703.134 254.943C702.884 255.193 702.743 255.532 702.743 255.886V266.553C702.743 266.906 702.884 267.245 703.134 267.496C703.384 267.746 703.723 267.886 704.076 267.886H712.076C712.43 267.886 712.769 267.746 713.019 267.496C713.269 267.245 713.41 266.906 713.41 266.553V257.886L710.076 254.553Z" stroke="#ECECEE" stroke-width="1.05977" stroke-linecap="round" stroke-linejoin="round"/>
<rect x="689" y="280.296" width="38.1519" height="38.1519" stroke="#2D2D2F" stroke-width="1.05977"/>
<path d="M709.41 292.705V295.372C709.41 295.725 709.55 296.065 709.8 296.315C710.05 296.565 710.39 296.705 710.743 296.705H713.41M706.076 301.372H710.076M708.076 303.372V299.372M710.076 292.705H704.076C703.723 292.705 703.384 292.846 703.134 293.096C702.884 293.346 702.743 293.685 702.743 294.038V304.705C702.743 305.059 702.884 305.398 703.134 305.648C703.384 305.898 703.723 306.038 704.076 306.038H712.076C712.43 306.038 712.769 305.898 713.019 305.648C713.269 305.398 713.41 305.059 713.41 304.705V296.038L710.076 292.705Z" stroke="#ECECEE" stroke-width="1.05977" stroke-linecap="round" stroke-linejoin="round"/>
<rect x="689" y="318.447" width="38.1519" height="38.1519" stroke="#2D2D2F" stroke-width="1.05977"/>
<path opacity="0.5" d="M709.41 330.856V333.523C709.41 333.877 709.55 334.216 709.8 334.466C710.05 334.716 710.39 334.856 710.743 334.856H713.41M706.076 339.523H710.076M708.076 341.523V337.523M710.076 330.856H704.076C703.723 330.856 703.384 330.997 703.134 331.247C702.884 331.497 702.743 331.836 702.743 332.19V342.856C702.743 343.21 702.884 343.549 703.134 343.799C703.384 344.049 703.723 344.19 704.076 344.19H712.076C712.43 344.19 712.769 344.049 713.019 343.799C713.269 343.549 713.41 343.21 713.41 342.856V334.19L710.076 330.856Z" stroke="#ECECEE" stroke-width="1.05977" stroke-linecap="round" stroke-linejoin="round"/>
<rect x="727.152" y="242.144" width="38.1519" height="38.1519" stroke="#2D2D2F" stroke-width="1.05977"/>
<path d="M739.603 261.452C739.548 261.302 739.548 261.138 739.603 260.988C740.144 259.676 741.063 258.554 742.242 257.765C743.422 256.975 744.809 256.554 746.229 256.554C747.648 256.554 749.035 256.975 750.215 257.765C751.394 258.554 752.313 259.676 752.854 260.988C752.909 261.138 752.909 261.302 752.854 261.452C752.313 262.764 751.394 263.886 750.215 264.675C749.035 265.465 747.648 265.886 746.229 265.886C744.809 265.886 743.422 265.465 742.242 264.675C741.063 263.886 740.144 262.764 739.603 261.452Z" stroke="#ECECEE" stroke-width="1.05977" stroke-linecap="round" stroke-linejoin="round"/>
<path d="M746.229 263.22C747.333 263.22 748.229 262.324 748.229 261.22C748.229 260.115 747.333 259.22 746.229 259.22C745.124 259.22 744.229 260.115 744.229 261.22C744.229 262.324 745.124 263.22 746.229 263.22Z" stroke="#ECECEE" stroke-width="1.05977" stroke-linecap="round" stroke-linejoin="round"/>
<rect x="727.152" y="280.296" width="38.1519" height="38.1519" stroke="#2D2D2F" stroke-width="1.05977"/>
<path d="M739.603 299.604C739.548 299.455 739.548 299.29 739.603 299.14C740.144 297.828 741.063 296.706 742.242 295.917C743.422 295.127 744.809 294.706 746.229 294.706C747.648 294.706 749.035 295.127 750.215 295.917C751.394 296.706 752.313 297.828 752.854 299.14C752.909 299.29 752.909 299.455 752.854 299.604C752.313 300.916 751.394 302.038 750.215 302.828C749.035 303.617 747.648 304.039 746.229 304.039C744.809 304.039 743.422 303.617 742.242 302.828C741.063 302.038 740.144 300.916 739.603 299.604Z" stroke="#ECECEE" stroke-width="1.05977" stroke-linecap="round" stroke-linejoin="round"/>
<path d="M746.229 301.372C747.333 301.372 748.229 300.477 748.229 299.372C748.229 298.268 747.333 297.372 746.229 297.372C745.124 297.372 744.229 298.268 744.229 299.372C744.229 300.477 745.124 301.372 746.229 301.372Z" stroke="#ECECEE" stroke-width="1.05977" stroke-linecap="round" stroke-linejoin="round"/>
<rect x="727.152" y="318.447" width="38.1519" height="38.1519" stroke="#2D2D2F" stroke-width="1.05977"/>
<path opacity="0.5" d="M745.384 332.907C746.937 332.722 748.508 333.05 749.856 333.842C751.205 334.633 752.258 335.844 752.854 337.29C752.909 337.44 752.909 337.605 752.854 337.754C752.609 338.348 752.285 338.907 751.891 339.414M747.618 338.962C747.241 339.326 746.735 339.528 746.211 339.523C745.687 339.519 745.185 339.308 744.814 338.937C744.443 338.567 744.233 338.065 744.228 337.541C744.224 337.016 744.425 336.511 744.79 336.134M749.881 341.189C748.997 341.713 748.01 342.04 746.988 342.149C745.966 342.258 744.932 342.146 743.958 341.82C742.983 341.495 742.089 340.963 741.338 340.262C740.587 339.56 739.995 338.705 739.603 337.755C739.548 337.605 739.548 337.441 739.603 337.291C740.194 335.858 741.234 334.655 742.567 333.862M739.562 330.856L752.895 344.19" stroke="#ECECEE" stroke-width="1.05977" stroke-linecap="round" stroke-linejoin="round"/>
<rect x="689" y="203.992" width="76.3037" height="38.1519" stroke="#2D2D2F"/>
<path d="M440.662 177.498V168.842H437.999V166.711H440.662V158.055L442.792 155.925H447.586V158.055H443.059V166.179L441.461 167.777L443.059 169.375V177.498H447.586V179.628H442.792L440.662 177.498Z" fill="#ECECEE"/>
<rect x="447.586" y="161.118" width="9.18841" height="1.33165" fill="#4AA94A"/>
<rect x="446.255" y="163.115" width="6.65826" height="1.33165" fill="#4AA94A"/>
<rect x="453.712" y="163.115" width="3.59546" height="1.33165" fill="#ECECEE"/>
<rect x="446.255" y="165.113" width="4.66079" height="1.33165" fill="#ECECEE"/>
<rect x="446.255" y="167.11" width="1.82436" height="1.33165" fill="#FAB90C"/>
<rect x="448.878" y="167.11" width="1.99748" height="1.33165" fill="#ECECEE"/>
<rect x="446.255" y="169.108" width="4.66079" height="1.33165" fill="#4AA94A"/>
<rect x="446.255" y="171.105" width="7.85675" height="1.33165" fill="#4AA94A"/>
<rect x="454.911" y="171.105" width="2.26381" height="1.33165" fill="#ECECEE"/>
<rect width="1.82436" height="1.33165" transform="matrix(-1 0 0 1 449.411 173.104)" fill="#E74A3C"/>
<rect width="7.05776" height="1.33165" transform="matrix(-1 0 0 1 457.268 173.104)" fill="#ECECEE"/>
<path d="M462.901 158.055V166.711H465.564V168.842H462.901V177.498L460.77 179.628H455.976V177.498H460.504V169.375L462.102 167.777L460.504 166.179V158.055H455.976V155.925H460.77L462.901 158.055Z" fill="#ECECEE"/>
<path d="M573.317 175.234L571.07 167.858V160.319H572.847V167.562L574.298 172.895L575.84 167.388V164.824H577.434V167.358L578.987 172.874L580.427 167.593V160.319H582.205V167.858L579.957 175.234H578.343L576.647 169.391L574.901 175.234H573.317Z" fill="#ECECEE"/>
<path d="M559.737 175.234V160.319H567.46L567.695 161.995H561.719V166.98H566.571V168.573H561.719V173.559H568.073L567.828 175.234H559.737Z" fill="#ECECEE"/>
<path d="M546.844 175.234L546.64 173.559H550.378V161.995H546.64L546.844 160.319H556.038L556.242 161.995H552.36V173.559H556.242L556.038 175.234H546.844Z" fill="#ECECEE"/>
<path d="M537.586 175.234L534.226 167.797V160.319H536.197V167.184L538.771 173.416L541.346 167.215V160.319H543.317V167.797L539.956 175.234H537.586Z" fill="#ECECEE"/>
<path d="M521.679 175.234V160.319H527.798L531.097 163.292V165.958L528.155 168.665L530.913 172.557V175.234H528.921V172.803L526.317 169.013H523.681V175.234H521.679ZM523.681 167.613H526.96L529.136 165.427V163.976L526.96 162.025H523.681V167.613Z" fill="#ECECEE"/>
<path d="M509.061 175.234V160.319H517.55L517.785 161.995H511.042V166.98H516.518V168.573H511.042V173.559H518.162L517.917 175.234H509.061Z" fill="#ECECEE"/>
<path d="M499.577 175.234L496.216 167.797V160.319H498.187V167.184L500.762 173.416L503.336 167.215V160.319H505.308V167.797L501.947 175.234H499.577Z" fill="#ECECEE"/>
<path d="M486.724 175.234L482.894 169.758V165.723L486.724 160.319H489.595L493.293 165.723V169.758L489.462 175.234H486.724ZM484.855 169.166L487.613 173.426H488.563L491.331 169.166V166.316L488.624 162.127H487.664L484.855 166.316V169.166Z" fill="#ECECEE"/>
<path d="M473.983 175.234L470.224 169.779V165.703L473.983 160.319H480.062L480.337 162.097H475.036L472.185 166.316V169.166L475.036 173.456H480.337L480.062 175.234H473.983Z" fill="#ECECEE"/>
<g clip-path="url(#clip3_313_6138)">
<path d="M687.598 163.238V165.053M691.228 163.238V165.053M685.33 166.868H693.497M686.237 164.146H692.589C693.09 164.146 693.497 164.552 693.497 165.053V171.405C693.497 171.906 693.09 172.313 692.589 172.313H686.237C685.736 172.313 685.33 171.906 685.33 171.405V165.053C685.33 164.552 685.736 164.146 686.237 164.146Z" stroke="#ECECEE" stroke-width="0.680579" stroke-linecap="round" stroke-linejoin="round"/>
</g>
<rect x="698.941" y="164.775" width="61" height="6" rx="3" fill="#26262C"/>
<g clip-path="url(#clip4_313_6138)">
<path d="M775.367 163.238V166.868L776.728 165.507L778.09 166.868V163.238M772.645 171.178V164.373C772.645 164.072 772.765 163.783 772.977 163.571C773.19 163.358 773.478 163.238 773.779 163.238H779.451C779.571 163.238 779.687 163.286 779.772 163.371C779.857 163.456 779.905 163.572 779.905 163.692V171.859C779.905 171.979 779.857 172.095 779.772 172.18C779.687 172.265 779.571 172.313 779.451 172.313H773.779C773.478 172.313 773.19 172.193 772.977 171.98C772.765 171.768 772.645 171.479 772.645 171.178ZM772.645 171.178C772.645 170.878 772.765 170.589 772.977 170.376C773.19 170.164 773.478 170.044 773.779 170.044H779.905" stroke="#ECECEE" stroke-width="0.680579" stroke-linecap="round" stroke-linejoin="round"/>
</g>
<rect x="785.803" y="164.775" width="42" height="6" rx="3" fill="#26262C"/>
<path d="M841.415 163.692V169.137M841.415 169.137C840.663 169.137 840.054 169.746 840.054 170.498C840.054 171.25 840.663 171.859 841.415 171.859C842.167 171.859 842.776 171.25 842.776 170.498M841.415 169.137C842.167 169.137 842.776 169.746 842.776 170.498M846.859 166.415C847.611 166.415 848.221 165.805 848.221 165.054C848.221 164.302 847.611 163.692 846.859 163.692C846.108 163.692 845.498 164.302 845.498 165.054C845.498 165.805 846.108 166.415 846.859 166.415ZM846.859 166.415C846.859 167.498 846.429 168.536 845.663 169.302C844.898 170.068 843.859 170.498 842.776 170.498" stroke="#ECECEE" stroke-width="0.680579" stroke-linecap="round" stroke-linejoin="round"/>
<rect x="853.665" y="164.775" width="29" height="6" rx="3" fill="#26262C"/>
<path d="M900.36 167.775C900.36 168.527 899.751 169.136 898.999 169.136C898.247 169.136 897.638 168.527 897.638 167.775M900.36 167.775C900.36 167.023 899.751 166.414 898.999 166.414C898.247 166.414 897.638 167.023 897.638 167.775M900.36 167.775H903.082M897.638 167.775H894.916" stroke="#ECECEE" stroke-width="0.680579" stroke-linecap="round" stroke-linejoin="round"/>
<rect x="908.527" y="164.775" width="42" height="6" rx="3" fill="#26262C"/>
<path d="M965.499 158.588H1075.92C1077.98 158.588 1079.66 160.264 1079.66 162.332V173.221C1079.66 175.288 1077.98 176.964 1075.92 176.964H965.499C963.432 176.964 961.756 175.288 961.756 173.221V162.332C961.756 160.264 963.432 158.588 965.499 158.588Z" fill="black"/>
<path d="M965.499 158.588H1075.92C1077.98 158.588 1079.66 160.264 1079.66 162.332V173.221C1079.66 175.288 1077.98 176.964 1075.92 176.964H965.499C963.432 176.964 961.756 175.288 961.756 173.221V162.332C961.756 160.264 963.432 158.588 965.499 158.588Z" stroke="#2D2D2F" stroke-width="0.680579"/>
<path d="M976.389 169.137V170.952C976.389 171.193 976.294 171.423 976.123 171.594C975.953 171.764 975.722 171.859 975.482 171.859H969.13C968.889 171.859 968.658 171.764 968.488 171.594C968.318 171.423 968.222 171.193 968.222 170.952V169.137M974.574 165.961L972.306 163.692M972.306 163.692L970.037 165.961M972.306 163.692V169.137" stroke="#ECECEE" stroke-width="0.680579" stroke-linecap="round" stroke-linejoin="round"/>
<rect opacity="0.4" x="984.556" y="164.776" width="44" height="6" rx="3" fill="#ECECEE"/>
<rect opacity="0.4" x="1032.56" y="164.776" width="19" height="6" rx="3" fill="#ECECEE"/>
<rect opacity="0.4" x="1055.56" y="164.776" width="19" height="6" rx="3" fill="#ECECEE"/>
<path d="M152.53 539.709C152.53 541.866 151.422 542.957 149.229 542.957H137.976C135.831 542.957 134.771 541.866 134.771 539.709V510.697C134.747 508.516 135.831 507.426 137.952 507.426H149.205C151.398 507.426 152.506 508.516 152.506 510.697V518.993H147.132V511.977H140.145V538.382H147.132V530.916H152.506V539.709H152.53ZM174.916 542.957H169.47V527.004H162.169V542.957H156.771V507.426H162.169V522.074H169.47V507.426H174.916V542.957ZM179.301 507.426H184.699V542.957H179.301V507.426ZM206.578 526.767C206.578 528.972 205.47 530.086 203.277 530.086H194.53V542.957H189.132V507.426H203.277C205.47 507.426 206.578 508.516 206.578 510.697V526.767ZM201.132 511.977H194.53V525.511H201.132V511.977ZM227.711 539.709C227.711 541.866 226.626 542.957 224.434 542.957H213.566C211.398 542.957 210.313 541.866 210.313 539.709V531.247H215.711V538.477H222.313V531.508L211.494 521.434C210.699 520.699 210.313 519.751 210.313 518.59V510.697C210.313 508.516 211.398 507.426 213.566 507.426H224.434C226.626 507.426 227.711 508.492 227.711 510.649V518.59H222.313V511.906H215.711V518.329L226.53 528.356C227.325 529.09 227.711 530.038 227.711 531.247V539.709ZM153.06 586.333H147.711L146.626 579.602H139.855L138.771 586.333H133.446V586.238L140.434 550.755H146.12L153.06 586.333ZM145.855 575.027L143.229 559.004L140.578 575.027H145.855ZM170.265 586.333H156.072V550.802H161.47V581.593H170.265V586.333ZM187.663 586.333H173.47V550.802H178.867V581.593H187.663V586.333ZM190.964 550.802H196.361V586.333H190.964V550.802ZM219.084 586.333H213.735L212.651 579.602H205.879L204.795 586.333H199.47V586.238L206.458 550.755H212.145L219.084 586.333ZM211.879 575.027L209.253 559.004L206.602 575.027H211.879ZM240.41 586.333H235.687L227.036 563.981C227.277 565.072 227.373 565.925 227.373 566.541V586.333H222.12V550.802H226.843L235.494 572.704C235.253 571.614 235.157 570.76 235.157 570.144V550.802H240.41V586.333ZM262.506 583.086C262.506 585.243 261.398 586.333 259.205 586.333H247.952C245.807 586.333 244.747 585.243 244.747 583.086V554.073C244.747 551.893 245.807 550.802 247.952 550.802H259.205C261.398 550.802 262.506 551.893 262.506 554.073V562.369H257.132V555.353H250.145V581.759H257.132V574.292H262.506V583.086ZM281.735 586.333H266.771V550.802H281.59V555.519H272.169V565.877H280.289V570.5H272.169V581.64H281.735V586.333ZM120.675 551.49C118.313 551.49 116.265 553.102 115.711 555.33H108.651V549.712H102.916V546.322H108.651V532.741H102.916V529.327H108.651V523.686H115.711C115.928 524.61 116.41 525.416 117.06 526.056C117.976 526.957 119.253 527.526 120.651 527.526C122.048 527.526 123.325 526.957 124.241 526.056C125.157 525.156 125.735 523.899 125.735 522.525C125.735 519.751 123.446 517.523 120.651 517.523C118.289 517.523 116.241 519.135 115.687 521.363H108.626V515.722H102.891V509.204H63.6144V515.722H57.8794V529.327H63.6144V532.717H57.8794V538.358H50.8192C50.265 536.106 48.2168 534.518 45.8553 534.518C43.0602 534.495 40.771 536.746 40.771 539.52C40.771 540.894 41.3493 542.151 42.265 543.051C43.1806 543.952 44.4577 544.521 45.8553 544.521C47.2529 544.521 48.53 543.952 49.4457 543.051C50.0963 542.411 50.5782 541.582 50.7951 540.681H57.8794V546.322H63.6144V549.712H57.8794V563.294H63.6144V566.683H57.8794V572.301H50.8192C50.265 570.049 48.2168 568.461 45.8553 568.461C43.0602 568.485 40.771 570.737 40.771 573.486C40.771 576.259 43.0602 578.488 45.8553 578.488C48.2168 578.488 50.265 576.876 50.8192 574.648H57.8794V580.289H63.6144V586.926H102.916V580.289H108.578V566.683H102.916V563.294H108.651V557.676H115.711C115.928 558.601 116.41 559.407 117.06 560.047C117.976 560.947 119.253 561.516 120.651 561.516C122.048 561.516 123.325 560.947 124.241 560.047C125.157 559.146 125.735 557.89 125.735 556.515C125.759 553.742 123.47 551.49 120.675 551.49ZM118.747 520.628C119.229 520.154 119.928 519.846 120.675 519.846C121.422 519.846 122.12 520.154 122.602 520.628C123.084 521.102 123.398 521.79 123.398 522.525C123.398 523.259 123.084 523.947 122.602 524.421C122.12 524.895 121.422 525.203 120.675 525.203C119.928 525.203 119.229 524.895 118.747 524.421C118.265 523.947 117.952 523.259 117.952 522.525C117.952 521.79 118.265 521.102 118.747 520.628ZM106.289 526.981H97.2047V518.068H106.289V526.981ZM60.265 535.04H69.3493V543.976H60.265V535.04ZM60.265 569.03H69.3493V577.966H60.265V569.03ZM100.554 583.987H65.9758V580.289H71.7108V566.683H65.9758V563.294H71.7108V549.712H65.9758V546.322H71.7108V532.124H65.9758V529.327H71.7108V515.722H65.9758V510.91H100.554V515.722H94.8433V529.327H100.578V532.101H94.8674V546.322H100.602V549.712H94.8915V563.294H100.626V566.683H94.9156V580.289H100.651V583.987H100.554ZM106.289 560.971H97.2047V552.035H106.289V560.971ZM122.602 558.411C122.12 558.885 121.422 559.193 120.675 559.193C119.928 559.193 119.229 558.885 118.747 558.411C118.265 557.937 117.952 557.25 117.952 556.515C117.952 555.78 118.265 555.093 118.747 554.619C119.229 554.144 119.928 553.836 120.675 553.836C121.422 553.836 122.12 554.144 122.602 554.619C123.084 555.093 123.398 555.78 123.398 556.515C123.398 557.25 123.084 557.913 122.602 558.411Z" fill="white"/>
</g>
<defs>
<clipPath id="clip0_313_6138">
<rect width="1200" height="630" fill="white" transform="translate(0 0.5)"/>
</clipPath>
<clipPath id="clip1_313_6138">
<rect width="16" height="16" fill="white" transform="translate(419 54.9922)"/>
</clipPath>
<clipPath id="clip2_313_6138">
<rect x="438" y="379.992" width="642" height="209" fill="white"/>
</clipPath>
<clipPath id="clip3_313_6138">
<rect width="10.8893" height="10.8893" fill="white" transform="translate(683.968 162.331)"/>
</clipPath>
<clipPath id="clip4_313_6138">
<rect width="10.8893" height="10.8893" fill="white" transform="translate(770.83 162.331)"/>
</clipPath>
</defs>
</svg>
