<?xml version="1.0" encoding="UTF-8"?> <svg xmlns="http://www.w3.org/2000/svg" xmlns:xlink="http://www.w3.org/1999/xlink" version="1.1" x="0" y="0" width="760" height="380" viewBox="0, 0, 380, 190"><defs><linearGradient id="Gradient_1" gradientUnits="userSpaceOnUse" x1="106.111" y1="186.849" x2="87.418" y2="141.306" gradientTransform="matrix(1, 0, 0, 1, -47.55, -68.81)"><stop offset="0" stop-color="#006288"></stop><stop offset="1" stop-color="#B2D235"></stop></linearGradient><linearGradient id="Gradient_2" gradientUnits="userSpaceOnUse" x1="72.294" y1="83.581" x2="94.479" y2="143.874" gradientTransform="matrix(1, 0, 0, 1, -47.55, -68.81)"><stop offset="0" stop-color="#006288"></stop><stop offset="1" stop-color="#B2D235"></stop></linearGradient></defs><g id="Layer_1"><g><path d="M83.65,97.55 L49.85,97.55 C47.75,97.55 46.05,99.25 46.05,101.35 C46.05,103.45 47.75,105.15 49.85,105.15 L52.35,105.15 C53.75,105.15 54.95,106.25 54.95,107.75 C54.95,109.15 53.85,110.35 52.35,110.35 L35.65,110.35 C34.25,110.35 33.05,109.25 33.05,107.75 C33.05,106.35 34.15,105.15 35.65,105.15 L36.55,105.15 C38.65,105.15 40.35,103.45 40.35,101.35 C40.35,99.25 38.65,97.55 36.55,97.55 L20.25,97.55 C18.15,97.55 16.45,99.25 16.45,101.35 C16.45,103.45 18.15,105.15 20.25,105.15 L26.45,105.15 C27.85,105.15 29.05,106.25 29.05,107.75 C29.05,109.15 27.95,110.35 26.45,110.35 L24.95,110.35 C22.85,110.35 21.15,112.05 21.15,114.15 C21.15,116.25 22.85,117.95 24.95,117.95 L47.55,117.95 C48.95,117.95 50.15,119.05 50.15,120.55 C50.15,121.95 49.05,123.15 47.55,123.15 L42.75,123.15 C40.65,123.15 38.95,124.85 38.95,126.95 C38.95,129.05 40.65,130.75 42.75,130.75 L61.65,130.75 C63.75,130.75 65.45,129.05 65.45,126.95 C65.45,124.85 63.75,123.15 61.65,123.15 L56.85,123.15 C55.45,123.15 54.25,122.05 54.25,120.55 C54.25,119.15 55.35,117.95 56.85,117.95 L78.25,117.95 C80.35,117.95 82.05,116.25 82.05,114.15 C82.05,112.05 80.35,110.35 78.25,110.35 L73.25,110.35 C71.85,110.35 70.65,109.25 70.65,107.75 C70.65,106.35 71.75,105.15 73.25,105.15 L83.65,105.15 C85.75,105.15 87.45,103.45 87.45,101.35 C87.35,99.25 85.75,97.55 83.65,97.55 z M66.55,107.55 C66.55,108.95 65.45,110.15 63.95,110.15 L61.55,110.15 C60.15,110.15 58.95,109.05 58.95,107.55 C58.95,106.15 60.05,104.95 61.55,104.95 L63.95,104.95 C65.45,105.05 66.55,106.15 66.55,107.55 z" fill="url(#Gradient_1)"></path><path d="M83.65,84.85 L78.45,84.85 C77.05,84.85 75.85,83.75 75.85,82.25 C75.85,80.85 76.95,79.65 78.45,79.65 L78.25,79.65 C80.35,79.65 82.05,77.95 82.05,75.85 C82.05,73.75 80.35,72.05 78.25,72.05 L56.85,72.05 C55.45,72.05 54.25,70.95 54.25,69.45 C54.25,68.05 55.35,66.85 56.85,66.85 L61.65,66.85 C63.75,66.85 65.45,65.15 65.45,63.05 C65.45,60.95 63.75,59.25 61.65,59.25 L42.75,59.25 C40.65,59.25 38.95,60.95 38.95,63.05 C38.95,65.15 40.65,66.85 42.75,66.85 L47.55,66.85 C48.95,66.85 50.15,67.95 50.15,69.45 C50.15,70.85 49.05,72.05 47.55,72.05 L47.45,72.05 C45.35,72.05 43.65,73.75 43.65,75.85 C43.65,77.95 45.35,79.65 47.45,79.65 L47.55,79.65 C48.95,79.65 50.15,80.75 50.15,82.25 C50.15,83.65 49.05,84.85 47.55,84.85 L35.65,84.85 C34.25,84.85 33.05,83.75 33.05,82.25 C33.05,80.85 34.15,79.65 35.65,79.65 L36.55,79.65 C38.65,79.65 40.35,77.95 40.35,75.85 C40.35,73.75 38.65,72.05 36.55,72.05 L25.75,72.05 C23.65,72.05 21.95,73.75 21.95,75.85 C21.95,77.95 23.65,79.65 25.75,79.65 L26.35,79.65 C27.75,79.65 28.95,80.75 28.95,82.25 C28.95,83.65 27.85,84.85 26.35,84.85 L20.15,84.85 C18.05,84.85 16.35,86.55 16.35,88.65 C16.35,90.75 18.05,92.45 20.15,92.45 L57.95,92.45 C60.05,92.45 61.75,90.75 61.75,88.65 C61.75,86.55 60.05,84.85 57.95,84.85 L56.85,84.85 C55.45,84.85 54.25,83.75 54.25,82.25 C54.25,80.85 55.35,79.65 56.85,79.65 L69.15,79.65 C70.55,79.65 71.75,80.75 71.75,82.25 C71.75,83.65 70.65,84.85 69.15,84.85 C67.05,84.85 65.35,86.55 65.35,88.65 C65.35,90.75 67.05,92.45 69.15,92.45 L83.55,92.45 C85.65,92.45 87.35,90.75 87.35,88.65 C87.35,86.55 85.75,84.85 83.65,84.85 z" fill="url(#Gradient_2)"></path><path d="M129.05,109.45 C126.75,111.85 122.95,113.15 118.45,113.15 C110.35,113.15 104.65,109.65 103.55,103.05 L105.85,103.05 C106.95,108.25 111.55,110.95 118.35,110.95 C122.25,110.95 125.45,109.75 127.35,107.75 C128.45,106.55 129.05,105.05 128.95,103.35 C128.85,99.45 125.65,97.45 117.85,96.35 C112.35,95.55 105.45,94.65 105.35,88.25 C105.35,83.85 109.45,79.55 117.45,79.55 C124.55,79.55 129.25,82.75 130.55,88.55 L128.15,88.55 C126.85,84.25 123.15,81.75 117.45,81.75 C111.65,81.75 107.55,84.55 107.65,88.25 C107.75,91.95 111.05,93.15 118.15,94.05 C124.85,95.05 130.95,96.75 131.25,103.25 C131.35,105.55 130.55,107.75 129.05,109.45 z M140.15,101.65 L140.15,112.35 L137.85,112.35 L137.85,80.35 L140.15,80.35 L140.15,98.55 L158.95,80.35 L162.25,80.35 L150.15,92.05 L163.85,112.35 L161.05,112.35 L148.45,93.65 L140.15,101.65 z M180.85,122.15 C187.45,122.15 191.85,117.65 191.85,111.05 L191.85,107.15 C189.65,110.85 185.75,113.15 180.75,113.15 C172.95,113.15 167.35,107.45 167.35,99.75 L167.35,80.35 L169.65,80.35 L169.65,99.65 C169.65,106.15 174.35,110.75 180.75,110.75 C187.25,110.75 191.85,106.05 191.85,99.65 L191.85,80.35 L194.25,80.35 L194.25,110.95 C194.25,118.85 188.75,124.35 180.85,124.35" fill="#004D71"></path><path d="M248.85,101.05 C248.85,108.05 243.75,113.25 236.65,113.25 C231.45,113.25 227.45,110.35 225.65,106.15 C223.95,110.35 219.85,113.25 214.65,113.25 C207.65,113.25 202.45,108.05 202.45,101.05 L202.45,80.35 L204.85,80.35 L204.85,100.95 C204.85,106.65 208.95,110.75 214.65,110.75 C220.35,110.75 224.55,106.55 224.55,100.95 L224.55,80.35 L226.85,80.35 L226.85,100.95 C226.85,106.65 231.05,110.75 236.65,110.75 C242.35,110.75 246.55,106.55 246.55,100.95 L246.55,80.35 L248.85,80.35 L248.85,101.05 z M298.35,101.35 C298.35,106.85 300.85,110.55 306.95,110.35 L306.95,112.45 C300.05,113.05 296.05,108.55 296.05,101.35 L296.05,82.65 L291.65,82.65 L291.65,80.35 L296.05,80.35 L296.05,73.55 L298.35,73.55 L298.35,80.35 L306.95,80.35 L306.95,82.65 L298.35,82.65 L298.35,101.35 z M312.45,96.35 C312.55,104.65 318.75,110.85 326.55,110.85 C334.05,110.85 337.45,106.65 339.05,102.45 L341.45,102.45 C339.25,109.35 334.05,113.15 326.55,113.15 C317.45,113.15 310.15,105.85 310.15,96.45 C310.15,87.05 317.35,79.55 326.15,79.55 C335.75,79.55 342.25,88.25 342.15,96.35 L312.45,96.35 z M339.65,94.05 C338.55,87.15 332.85,81.95 326.15,81.95 C319.35,81.95 313.75,87.15 312.75,94.05 L339.65,94.05 z M363.65,81.75 C359.45,81.35 356.15,82.55 354.15,84.45 C351.85,86.55 350.65,89.65 350.65,92.95 L350.65,112.25 L348.25,112.25 L348.25,93.05 C348.25,86.75 351.85,83.45 352.75,82.65 C355.55,80.15 359.25,78.95 363.65,79.45 L363.65,81.75 z M286.65,97.15 L286.65,96.45 C286.65,89.15 282.35,83.05 276.25,80.65 C276.15,80.55 275.95,80.55 275.85,80.45 C275.65,80.35 275.45,80.25 275.15,80.25 C274.75,80.15 274.45,80.05 274.05,79.95 C273.95,79.95 273.85,79.95 273.75,79.85 C273.35,79.75 272.95,79.75 272.55,79.65 L272.15,79.65 C271.65,79.65 271.15,79.55 270.75,79.55 C261.95,79.55 254.75,87.15 254.75,96.45 C254.75,105.65 261.95,113.15 270.75,113.15 C276.75,113.15 281.85,109.75 284.45,104.65 L284.45,112.35 L286.75,112.35 L286.75,98.45 C286.65,97.95 286.65,97.55 286.65,97.15 z M270.65,110.85 C263.15,110.85 256.95,104.35 256.95,96.45 C256.95,88.45 263.15,81.85 270.65,81.85 C277.35,81.85 282.85,86.95 284.05,93.65 C284.25,94.55 284.25,95.45 284.25,96.35 C284.35,104.35 278.25,110.85 270.65,110.85 z" fill="#004D71"></path></g></g></svg> 