<svg xmlns="http://www.w3.org/2000/svg" viewBox="0 0 1200 675"><defs><style>.cls-1{fill:#332d37;}.cls-2{fill:#fff;}</style></defs><g id="Warstwa_2" data-name="Warstwa 2"><g id="bg"><g id="lin"><rect id="bg-2" data-name="bg" class="cls-1" width="1200" height="675"/></g></g><g id="Banners"><path class="cls-2" d="M557.32,155.59h-191a8.1,8.1,0,0,1-8.08-8.09V99.93a8.1,8.1,0,0,1,8.08-8.09h191a8.1,8.1,0,0,1,8.09,8.09V147.5A8.1,8.1,0,0,1,557.32,155.59Zm-191-61.25a5.59,5.59,0,0,0-5.58,5.59V147.5a5.59,5.59,0,0,0,5.58,5.59h191a5.6,5.6,0,0,0,5.59-5.59V99.93a5.6,5.6,0,0,0-5.59-5.59Z"/><path class="cls-2" d="M398.06,129.68V115.14h5.43a9.81,9.81,0,0,1,4,.77,6,6,0,0,1,2.73,2.4,7.93,7.93,0,0,1,1,4.18,7.4,7.4,0,0,1-1,4,6.23,6.23,0,0,1-2.75,2.4,9.5,9.5,0,0,1-4,.79Zm2.75-2.44h2.42A5.38,5.38,0,0,0,407,126a4.51,4.51,0,0,0,1.32-3.5,5.16,5.16,0,0,0-1.21-3.62,5,5,0,0,0-3.89-1.33h-2.42Z"/><path class="cls-2" d="M421.33,126.63l1.39,1.57-.36.36a4.06,4.06,0,0,1-.85.63,5.86,5.86,0,0,1-1.41.59A7.4,7.4,0,0,1,418,130a5.55,5.55,0,0,1-2.85-.71,4.91,4.91,0,0,1-1.89-2,6.05,6.05,0,0,1-.67-2.9,5.61,5.61,0,0,1,.66-2.72,5.16,5.16,0,0,1,1.83-1.91,5.66,5.66,0,0,1,5.07-.21,4.21,4.21,0,0,1,1.55,1.34,5.41,5.41,0,0,1,.85,1.89,8.45,8.45,0,0,1,.26,2.13v.37h-7.63a2,2,0,0,0,.43,1.3,2.89,2.89,0,0,0,1.08.87,3,3,0,0,0,1.33.32,5.08,5.08,0,0,0,1.65-.23,4,4,0,0,0,1.05-.51A5.22,5.22,0,0,0,421.33,126.63Zm-6.13-3.14h5a2.25,2.25,0,0,0-.28-1,2.29,2.29,0,0,0-.79-.85,2.47,2.47,0,0,0-1.33-.33,2.83,2.83,0,0,0-1.43.33,2.4,2.4,0,0,0-.88.85A2,2,0,0,0,415.2,123.49Z"/><path class="cls-2" d="M427.59,129.68l-4.34-10.22h3l2.75,7.32,2.75-7.32h2.81l-4.32,10.22Z"/><path class="cls-2" d="M443.68,126.63l1.39,1.57-.35.36a4.16,4.16,0,0,1-.86.63,5.86,5.86,0,0,1-1.41.59,7.35,7.35,0,0,1-2.06.25,5.58,5.58,0,0,1-2.85-.71,4.91,4.91,0,0,1-1.89-2,6.05,6.05,0,0,1-.67-2.9,5.61,5.61,0,0,1,.66-2.72,5.11,5.11,0,0,1,1.84-1.91,5,5,0,0,1,2.69-.71,5,5,0,0,1,2.38.5,4.26,4.26,0,0,1,1.54,1.34,5.41,5.41,0,0,1,.85,1.89,8.46,8.46,0,0,1,.27,2.13v.37h-7.64a2.09,2.09,0,0,0,.43,1.3,2.89,2.89,0,0,0,1.08.87,3,3,0,0,0,1.33.32,5.19,5.19,0,0,0,1.66-.23,4,4,0,0,0,1-.51A5.22,5.22,0,0,0,443.68,126.63Zm-6.13-3.14h5a2.14,2.14,0,0,0-.28-1,2.29,2.29,0,0,0-.79-.85,2.45,2.45,0,0,0-1.33-.33,2.85,2.85,0,0,0-1.43.33,2.4,2.4,0,0,0-.88.85A2,2,0,0,0,437.55,123.49Z"/><path class="cls-2" d="M447.19,129.68V115.14h2.57v14.54Z"/><path class="cls-2" d="M451.81,124.56a5.55,5.55,0,0,1,.7-2.73,5.31,5.31,0,0,1,1.93-2,5.94,5.94,0,0,1,5.74,0,5.21,5.21,0,0,1,1.92,2,5.65,5.65,0,0,1,0,5.45,5.34,5.34,0,0,1-1.92,2,5.51,5.51,0,0,1-7.67-2A5.51,5.51,0,0,1,451.81,124.56Zm5.5,3.25a2.59,2.59,0,0,0,1.62-.5,3.13,3.13,0,0,0,1-1.26,3.85,3.85,0,0,0,.32-1.49,3.72,3.72,0,0,0-.32-1.48,3.1,3.1,0,0,0-1-1.25,2.89,2.89,0,0,0-3.25,0,3.1,3.1,0,0,0-1,1.25,3.71,3.71,0,0,0-.31,1.48,3.83,3.83,0,0,0,.31,1.49,3.13,3.13,0,0,0,1,1.26A2.6,2.6,0,0,0,457.31,127.81Z"/><path class="cls-2" d="M464.85,134V119.46h2.49l.06,1.15a5,5,0,0,1,1.19-.89,4.05,4.05,0,0,1,2.06-.46,4.19,4.19,0,0,1,2.59.77,4.71,4.71,0,0,1,1.51,2,6.64,6.64,0,0,1,.5,2.59,5.43,5.43,0,0,1-.34,2,6,6,0,0,1-.88,1.49,5.11,5.11,0,0,1-1.9,1.45A5.65,5.65,0,0,1,470,130a5.35,5.35,0,0,1-1.52-.16l-1.08-.38V134Zm2.55-9.9v3a3.53,3.53,0,0,0,2.32.64,2.76,2.76,0,0,0,1.59-.46,3,3,0,0,0,1-1.19,3.58,3.58,0,0,0,.35-1.54,4.64,4.64,0,0,0-.25-1.58,2.33,2.33,0,0,0-.84-1.13,2.65,2.65,0,0,0-1.57-.43,2.24,2.24,0,0,0-1.36.42,2.9,2.9,0,0,0-.91,1A2.6,2.6,0,0,0,467.4,124.14Z"/><path class="cls-2" d="M477.3,129.68V119.46h2.47l.06,1.15a4.82,4.82,0,0,1,1.07-.91,3.4,3.4,0,0,1,1.9-.46,3.5,3.5,0,0,1,3.07,1.48,4.72,4.72,0,0,1,1.62-1.14,4.88,4.88,0,0,1,1.9-.34,3.81,3.81,0,0,1,3,1.14,4.44,4.44,0,0,1,1,3.09v6.21h-2.58v-6.19a2.18,2.18,0,0,0-.49-1.51,1.7,1.7,0,0,0-1.34-.54,2.11,2.11,0,0,0-1.71.78,3,3,0,0,0-.64,1.92v5.54h-2.58v-6.19a2.18,2.18,0,0,0-.49-1.51,1.7,1.7,0,0,0-1.34-.54,2.11,2.11,0,0,0-1.71.78,3,3,0,0,0-.64,1.92v5.54Z"/><path class="cls-2" d="M504.1,126.63l1.4,1.57-.36.36a4.35,4.35,0,0,1-.85.63,5.78,5.78,0,0,1-1.42.59,7.3,7.3,0,0,1-2.06.25,5.52,5.52,0,0,1-2.84-.71,4.91,4.91,0,0,1-1.89-2,6.06,6.06,0,0,1-.68-2.9,5.51,5.51,0,0,1,.67-2.72,5.4,5.4,0,0,1,6.9-2.12,4.21,4.21,0,0,1,1.55,1.34,5.8,5.8,0,0,1,.85,1.89,8.94,8.94,0,0,1,.26,2.13v.37H498a2.09,2.09,0,0,0,.42,1.3,3.14,3.14,0,0,0,2.41,1.19,5.19,5.19,0,0,0,1.66-.23,4,4,0,0,0,1.61-1ZM498,123.49h5a2.24,2.24,0,0,0-.27-1,2.32,2.32,0,0,0-.8-.85,2.45,2.45,0,0,0-1.33-.33,2.88,2.88,0,0,0-1.43.33,2.48,2.48,0,0,0-.88.85A2.07,2.07,0,0,0,498,123.49Z"/><path class="cls-2" d="M507.61,129.68V119.46h2.47l.06,1.15a5.26,5.26,0,0,1,1.14-.9,3.51,3.51,0,0,1,1.94-.47,3.7,3.7,0,0,1,2.91,1.14,4.48,4.48,0,0,1,1,3.09v6.21h-2.57v-6.19A2.1,2.1,0,0,0,514,122a1.88,1.88,0,0,0-1.39-.54,2.25,2.25,0,0,0-1.76.78,2.79,2.79,0,0,0-.7,1.92v5.54Z"/><path class="cls-2" d="M520.5,126.19v-4.64h-1.74v-2.09h1.74v-3.32h2.57v3.32h2.75v2.09h-2.75V126a2.49,2.49,0,0,0,.3,1.34,1,1,0,0,0,1,.47,2.18,2.18,0,0,0,1-.18,4,4,0,0,0,.69-.41l1.08,1.59a5.43,5.43,0,0,1-1.5.9,4.81,4.81,0,0,1-1.66.28,3,3,0,0,1-2.63-1A4.59,4.59,0,0,1,520.5,126.19Z"/><path class="cls-2" d="M557.32,603.38h-191a8.31,8.31,0,0,1-8.3-8.3V547.51a8.31,8.31,0,0,1,8.3-8.3h191a8.31,8.31,0,0,1,8.3,8.3v47.57A8.31,8.31,0,0,1,557.32,603.38Zm-191-61.24a5.37,5.37,0,0,0-5.37,5.37v47.57a5.38,5.38,0,0,0,5.37,5.37h191a5.37,5.37,0,0,0,5.37-5.37V547.51a5.36,5.36,0,0,0-5.37-5.37Z"/><path class="cls-2" d="M432.74,579.6l.7-14.54H436l4,6.87,4-6.87h2.56l.69,14.54h-2.68l-.48-10.07-3.49,5.93h-1.28l-3.51-5.78-.48,9.92Z"/><path class="cls-2" d="M458.08,576.55l1.4,1.57q-.08.06-.36.36a4.35,4.35,0,0,1-.85.63,6,6,0,0,1-1.42.59,7.35,7.35,0,0,1-2.06.25,5.48,5.48,0,0,1-2.85-.71,5,5,0,0,1-1.88-2,6.06,6.06,0,0,1-.68-2.9,5.45,5.45,0,0,1,.67-2.71,5,5,0,0,1,4.52-2.63,5,5,0,0,1,2.38.5,4.29,4.29,0,0,1,1.55,1.34,5.8,5.8,0,0,1,.85,1.89,8.94,8.94,0,0,1,.26,2.13v.37H452a2.09,2.09,0,0,0,.42,1.3,2.89,2.89,0,0,0,1.08.87,3.06,3.06,0,0,0,1.33.32,5.19,5.19,0,0,0,1.66-.23,4.28,4.28,0,0,0,1-.51A4.15,4.15,0,0,0,458.08,576.55ZM452,573.41h5a2.24,2.24,0,0,0-.27-1,2.32,2.32,0,0,0-.8-.85,2.45,2.45,0,0,0-1.33-.33,2.85,2.85,0,0,0-1.43.33,2.48,2.48,0,0,0-.88.85A2.08,2.08,0,0,0,452,573.41Z"/><path class="cls-2" d="M461.59,579.6V569.38h2.47l.06,1.28a4.39,4.39,0,0,1,.65-.64,3.67,3.67,0,0,1,1-.59,3.62,3.62,0,0,1,1.43-.25,4.41,4.41,0,0,1,.66,0,2.67,2.67,0,0,1,.6.16l-.52,2.42a3.36,3.36,0,0,0-1.18-.2,2.68,2.68,0,0,0-1.83.68,2.28,2.28,0,0,0-.76,1.81v5.51Z"/><path class="cls-2" d="M470.21,583.16l1.15-1.9a5.25,5.25,0,0,0,3,.79,2.37,2.37,0,0,0,1.68-.63,2.16,2.16,0,0,0,.67-1.69v-1.11a5.54,5.54,0,0,1-1.14.7,4,4,0,0,1-1.65.28,4.77,4.77,0,0,1-2.52-.64,4.24,4.24,0,0,1-1.61-1.77,5.67,5.67,0,0,1-.56-2.56,5.52,5.52,0,0,1,.71-2.77,5.15,5.15,0,0,1,2-2,6.08,6.08,0,0,1,3.06-.73,12.75,12.75,0,0,1,2.47.22,12.48,12.48,0,0,1,1.81.45v9.95a4.39,4.39,0,0,1-.64,2.42,4,4,0,0,1-1.73,1.51,5.76,5.76,0,0,1-2.52.52,9,9,0,0,1-2.53-.29A5.85,5.85,0,0,1,470.21,583.16Zm6.49-7.9V571.6a3.23,3.23,0,0,0-.63-.16,6.26,6.26,0,0,0-1-.06,3.22,3.22,0,0,0-1.76.45,3,3,0,0,0-1.08,1.17,3.33,3.33,0,0,0-.37,1.57,3.29,3.29,0,0,0,.59,2,2.18,2.18,0,0,0,1.9.81Q476.7,577.36,476.7,575.26Z"/><path class="cls-2" d="M490,576.55l1.39,1.57-.36.36a4.06,4.06,0,0,1-.85.63,5.86,5.86,0,0,1-1.41.59,7.42,7.42,0,0,1-2.07.25,5.45,5.45,0,0,1-2.84-.71,4.91,4.91,0,0,1-1.89-2,6.05,6.05,0,0,1-.67-2.9,5.55,5.55,0,0,1,.66-2.71,5.39,5.39,0,0,1,6.9-2.13,4.21,4.21,0,0,1,1.55,1.34,5.59,5.59,0,0,1,.85,1.89,8.45,8.45,0,0,1,.26,2.13v.37h-7.63a2,2,0,0,0,.43,1.3,2.89,2.89,0,0,0,1.08.87,3,3,0,0,0,1.33.32,5.12,5.12,0,0,0,1.65-.23,4,4,0,0,0,1-.51A5.22,5.22,0,0,0,490,576.55Zm-6.13-3.14h5a2.25,2.25,0,0,0-.28-1,2.29,2.29,0,0,0-.79-.85,2.47,2.47,0,0,0-1.33-.33,2.83,2.83,0,0,0-1.43.33,2.51,2.51,0,0,0-.89.85A2.07,2.07,0,0,0,483.9,573.41Z"/><path class="cls-2" d="M557.32,378.32h-191a8.09,8.09,0,0,1-8.08-8.08V322.66a8.09,8.09,0,0,1,8.08-8.08h191a8.09,8.09,0,0,1,8.09,8.08v47.58A8.09,8.09,0,0,1,557.32,378.32Zm-191-61.24a5.58,5.58,0,0,0-5.58,5.58v47.58a5.58,5.58,0,0,0,5.58,5.58h191a5.59,5.59,0,0,0,5.59-5.58V322.66a5.59,5.59,0,0,0-5.59-5.58Z"/><path class="cls-2" d="M395,356.67l.7-14.54h2.55l4,6.87,4-6.87h2.55l.7,14.54h-2.68l-.48-10.07-3.49,5.93H401.6l-3.51-5.78-.48,9.92Z"/><path class="cls-2" d="M418.26,356.67l-.06-1a3.44,3.44,0,0,1-1.28.9A4.49,4.49,0,0,1,415,357a4.22,4.22,0,0,1-1.65-.35,3.06,3.06,0,0,1-1.89-3,3.22,3.22,0,0,1,1.25-2.71,5.17,5.17,0,0,1,3.25-1l.88,0,1.32.07v-.24a1.39,1.39,0,0,0-.61-1.2,2.69,2.69,0,0,0-1.59-.44,4.46,4.46,0,0,0-1.75.29,7.7,7.7,0,0,0-1.15.61l-1.18-1.75a7.65,7.65,0,0,1,1-.6,6.3,6.3,0,0,1,1.4-.49,9.1,9.1,0,0,1,2.05-.19,4.61,4.61,0,0,1,3.14,1,3.4,3.4,0,0,1,1.17,2.67v6.87Zm-.06-3.62v-1l-1.09-.07-.9,0a2.49,2.49,0,0,0-1.74.49,1.55,1.55,0,0,0-.5,1.13,1.22,1.22,0,0,0,.47,1,2.16,2.16,0,0,0,1.38.37,2.65,2.65,0,0,0,1.15-.26,2.53,2.53,0,0,0,.88-.7A1.51,1.51,0,0,0,418.2,353.05Z"/><path class="cls-2" d="M423.15,356.67V346.45h2.46l.07,1.15a5.42,5.42,0,0,1,1.13-.9,3.53,3.53,0,0,1,1.94-.47,3.67,3.67,0,0,1,2.91,1.14,4.48,4.48,0,0,1,1,3.09v6.21H430.1v-6.19a2.06,2.06,0,0,0-.53-1.51,1.87,1.87,0,0,0-1.38-.54,2.25,2.25,0,0,0-1.77.79,2.75,2.75,0,0,0-.7,1.91v5.54Z"/><path class="cls-2" d="M435.12,352.66v-6.21h2.57v6.19a2,2,0,0,0,.54,1.5,1.82,1.82,0,0,0,1.38.55,2.26,2.26,0,0,0,1.77-.79,2.8,2.8,0,0,0,.7-1.92v-5.53h2.57v10.22h-2.47l-.06-1.15a5.6,5.6,0,0,1-1.12.9,3.61,3.61,0,0,1-1.95.47,3.68,3.68,0,0,1-2.92-1.15A4.55,4.55,0,0,1,435.12,352.66Z"/><path class="cls-2" d="M453.28,356.67l-.06-1a3.44,3.44,0,0,1-1.28.9,4.49,4.49,0,0,1-1.88.39,4.22,4.22,0,0,1-1.65-.35,3.05,3.05,0,0,1-1.35-1.09,3.09,3.09,0,0,1-.54-1.87,3.22,3.22,0,0,1,1.25-2.71,5.17,5.17,0,0,1,3.25-1l.88,0,1.32.07v-.24a1.39,1.39,0,0,0-.61-1.2,2.69,2.69,0,0,0-1.59-.44,4.46,4.46,0,0,0-1.75.29,7.7,7.7,0,0,0-1.15.61l-1.18-1.75a7.65,7.65,0,0,1,1-.6,6.39,6.39,0,0,1,1.39-.49,9.22,9.22,0,0,1,2.05-.19,4.62,4.62,0,0,1,3.15,1,3.4,3.4,0,0,1,1.17,2.67v6.87Zm-.06-3.62v-1l-1.09-.07-.9,0a2.49,2.49,0,0,0-1.74.49,1.51,1.51,0,0,0-.5,1.13,1.22,1.22,0,0,0,.47,1,2.16,2.16,0,0,0,1.38.37,2.65,2.65,0,0,0,1.15-.26,2.53,2.53,0,0,0,.88-.7A1.51,1.51,0,0,0,453.22,353.05Z"/><path class="cls-2" d="M458.17,356.67V342.13h2.57v14.54Z"/><path class="cls-2" d="M467.22,356.67V346.45h2.46l.07,1.28a4.28,4.28,0,0,1,.64-.64,3.83,3.83,0,0,1,1-.59,3.66,3.66,0,0,1,1.43-.25,4.55,4.55,0,0,1,.67,0,3,3,0,0,1,.6.16l-.53,2.42a3.3,3.3,0,0,0-1.17-.2,2.64,2.64,0,0,0-1.83.68,2.29,2.29,0,0,0-.77,1.81v5.51Z"/><path class="cls-2" d="M483.55,353.62l1.4,1.57-.36.36a4.35,4.35,0,0,1-.85.63,6,6,0,0,1-1.42.59,7.35,7.35,0,0,1-2.06.25,5.58,5.58,0,0,1-2.85-.71,4.89,4.89,0,0,1-1.88-2,6,6,0,0,1-.68-2.9,5.51,5.51,0,0,1,.67-2.72,5.4,5.4,0,0,1,6.9-2.12,4.29,4.29,0,0,1,1.55,1.34,5.58,5.58,0,0,1,.84,1.89,8.46,8.46,0,0,1,.27,2.13v.37h-7.64a2.09,2.09,0,0,0,.43,1.3,2.89,2.89,0,0,0,1.08.87,3.06,3.06,0,0,0,1.33.32,5.19,5.19,0,0,0,1.66-.23,4,4,0,0,0,1-.51A4.39,4.39,0,0,0,483.55,353.62Zm-6.13-3.14h5a2.24,2.24,0,0,0-.27-1,2.4,2.4,0,0,0-.8-.85,2.45,2.45,0,0,0-1.33-.33,2.85,2.85,0,0,0-1.43.33,2.48,2.48,0,0,0-.88.85A2,2,0,0,0,477.42,350.48Z"/><path class="cls-2" d="M489.81,356.67l-4.34-10.22h3l2.75,7.32,2.75-7.32h2.81l-4.31,10.22Z"/><path class="cls-2" d="M498.14,344.83v-2.7h2.75v2.7Zm.09,11.84V346.45h2.57v10.22Z"/><path class="cls-2" d="M511.66,353.62l1.39,1.57-.36.36a3.81,3.81,0,0,1-.85.63,5.86,5.86,0,0,1-1.41.59,7.35,7.35,0,0,1-2.06.25,5.58,5.58,0,0,1-2.85-.71,4.91,4.91,0,0,1-1.89-2,6.05,6.05,0,0,1-.67-2.9,5.61,5.61,0,0,1,.66-2.72,5.11,5.11,0,0,1,1.84-1.91,5.64,5.64,0,0,1,5.06-.21,4.21,4.21,0,0,1,1.55,1.34,5.41,5.41,0,0,1,.85,1.89,8.45,8.45,0,0,1,.26,2.13v.37h-7.63a2,2,0,0,0,.43,1.3,2.89,2.89,0,0,0,1.08.87,3,3,0,0,0,1.33.32,5.19,5.19,0,0,0,1.66-.23,4,4,0,0,0,1-.51A5.22,5.22,0,0,0,511.66,353.62Zm-6.13-3.14h5a2.14,2.14,0,0,0-.28-1,2.29,2.29,0,0,0-.79-.85,2.45,2.45,0,0,0-1.33-.33,2.83,2.83,0,0,0-1.43.33,2.4,2.4,0,0,0-.88.85A2,2,0,0,0,505.53,350.48Z"/><path class="cls-2" d="M517.31,356.67l-3.47-10.22h2.83l2,7.1,2.16-7.1H523l2.19,7.1,1.94-7.1h2.7l-3.47,10.22h-2.48l-2.1-6.17-2,6.17Z"/><path class="cls-2" d="M557.32,490.23h-191a8.1,8.1,0,0,1-8.08-8.08V434.57a8.1,8.1,0,0,1,8.08-8.09h191a8.1,8.1,0,0,1,8.09,8.09v47.58A8.1,8.1,0,0,1,557.32,490.23ZM366.34,429a5.59,5.59,0,0,0-5.58,5.59v47.58a5.59,5.59,0,0,0,5.58,5.58h191a5.6,5.6,0,0,0,5.59-5.58V434.57a5.6,5.6,0,0,0-5.59-5.59Z"/><path class="cls-2" d="M440.93,468.58,446.45,454h2.83l5.52,14.55h-3.05l-1.27-3.69h-5.41l-1.26,3.69Zm4.91-5.95h3.86L447.78,457Z"/><path class="cls-2" d="M467,464.26l1.92,1.66a6.29,6.29,0,0,1-1.31,1.35,7.94,7.94,0,0,1-2.07,1.18,7,7,0,0,1-2.6.48,7.47,7.47,0,0,1-3.83-1,7.05,7.05,0,0,1-2.61-2.7,7.87,7.87,0,0,1-1-3.87,8.17,8.17,0,0,1,.54-3,7.81,7.81,0,0,1,1.54-2.46,7.14,7.14,0,0,1,2.37-1.66,7.62,7.62,0,0,1,3-.59,6.91,6.91,0,0,1,3.59.85,7.32,7.32,0,0,1,2.3,2.07L467,458.33a5.93,5.93,0,0,0-1.63-1.61,4.11,4.11,0,0,0-2.32-.61,4.17,4.17,0,0,0-2.45.72,4.63,4.63,0,0,0-1.6,1.9,6.08,6.08,0,0,0-.55,2.59,5.69,5.69,0,0,0,.55,2.53,4.58,4.58,0,0,0,1.56,1.81,4.14,4.14,0,0,0,2.36.67,4.74,4.74,0,0,0,2-.37,4.06,4.06,0,0,0,1.24-.86C466.46,464.77,466.73,464.49,467,464.26Z"/><path class="cls-2" d="M470.91,468.58V454h2.75v6l5.39-6h3.12l-5.37,6,6,8.59h-3.32L475,462l-1.35,1.51v5.1Z"/><path class="cls-2" d="M871.53,382.89H675.25a9,9,0,0,1-9-9V319a9,9,0,0,1,9-9H871.53a9,9,0,0,1,9,9v55A9,9,0,0,1,871.53,382.89ZM675.25,314a5,5,0,0,0-5,5v55a5,5,0,0,0,5,5H871.53a5,5,0,0,0,5-5V319a5,5,0,0,0-5-5Z"/><path class="cls-2" d="M690.57,342.45,695.52,329h4.09l4.76,13.46h-3.85l-.87-2.78h-4.5l-.89,2.78Zm5.31-5.39h3l-1.5-4.94Z"/><path class="cls-2" d="M705.4,339v-6h3.41v5.18a2,2,0,0,0,.29,1.12,1.45,1.45,0,0,0,2.16-.09,2.15,2.15,0,0,0,.32-1.13V333H715v9.48H711.7l-.12-1a2.83,2.83,0,0,1-.88.74,3.85,3.85,0,0,1-1,.38,3.73,3.73,0,0,1-.85.11,3.55,3.55,0,0,1-2.45-.87A3.73,3.73,0,0,1,705.4,339Z"/><path class="cls-2" d="M717.57,338.46v-2.87h-1.39V333h1.39v-3.13H721V333h2.34v2.62H721v3.35q0,1.17,1.11,1.17a1.64,1.64,0,0,0,.64-.14,4,4,0,0,0,.57-.32l1.33,2.1a5.36,5.36,0,0,1-1.43.78,4.72,4.72,0,0,1-1.62.28,4.41,4.41,0,0,1-2.41-.56,3.08,3.08,0,0,1-1.24-1.54A6.56,6.56,0,0,1,717.57,338.46Z"/><path class="cls-2" d="M724.81,337.71a5.12,5.12,0,0,1,.64-2.56,4.74,4.74,0,0,1,1.78-1.83,5.5,5.5,0,0,1,5.3,0,4.81,4.81,0,0,1,1.78,1.83,5.52,5.52,0,0,1,0,5.12,4.81,4.81,0,0,1-1.78,1.83,5.58,5.58,0,0,1-5.3,0,4.74,4.74,0,0,1-1.78-1.83A5.12,5.12,0,0,1,724.81,337.71Zm5.07,2.08a1.68,1.68,0,0,0,1.35-.6,2.44,2.44,0,0,0,0-3,1.68,1.68,0,0,0-1.35-.6,1.66,1.66,0,0,0-1.35.6,2.4,2.4,0,0,0,0,3A1.66,1.66,0,0,0,729.88,339.79Z"/><path class="cls-2" d="M736.52,342.45V333h3.29l.12,1a3.11,3.11,0,0,1,1.28-1,3.85,3.85,0,0,1,1.46-.3,3.48,3.48,0,0,1,1.44.25,3,3,0,0,1,.86.55,4.36,4.36,0,0,1,.42.47,3.12,3.12,0,0,1,.83-.63,5.85,5.85,0,0,1,1.12-.46,4,4,0,0,1,1.14-.18,3.71,3.71,0,0,1,2.79,1,3.84,3.84,0,0,1,1,2.75v6h-3.41v-5.06a2.12,2.12,0,0,0-.31-1.21,1.1,1.1,0,0,0-1-.45,1.5,1.5,0,0,0-1.12.45,1.64,1.64,0,0,0-.43,1.21v5.06h-3.21v-5.06a2.21,2.21,0,0,0-.29-1.21,1.11,1.11,0,0,0-1-.45,1.5,1.5,0,0,0-1.1.45,1.61,1.61,0,0,0-.45,1.21v5.06Z"/><path class="cls-2" d="M759.66,342.45l-.12-.89a3.62,3.62,0,0,1-1.3.95,4.32,4.32,0,0,1-1.63.26,4,4,0,0,1-1.31-.24,2.58,2.58,0,0,1-1.17-.87,2.8,2.8,0,0,1-.48-1.75,3,3,0,0,1,.62-1.92,3.9,3.9,0,0,1,1.67-1.16,6.33,6.33,0,0,1,2.25-.39l.74,0,.61.06v-.18a1,1,0,0,0-.25-.76,1.31,1.31,0,0,0-.62-.34,2.92,2.92,0,0,0-.7-.09,4.88,4.88,0,0,0-1.59.23,4.33,4.33,0,0,0-1.12.53L754,334a5.87,5.87,0,0,1,1.71-.89,8.05,8.05,0,0,1,2.77-.41,4.84,4.84,0,0,1,3.2,1,3.76,3.76,0,0,1,1.22,3v5.73Zm-.12-3.47v-.62a3.83,3.83,0,0,0-.93-.09,2,2,0,0,0-1.25.34,1,1,0,0,0-.4.79c0,.7.37,1.05,1.13,1.05a1.73,1.73,0,0,0,1-.31A1.29,1.29,0,0,0,759.54,339Z"/><path class="cls-2" d="M765.41,338.46v-2.87H764V333h1.39v-3.13h3.41V333h2.34v2.62h-2.34v3.35q0,1.17,1.11,1.17a1.61,1.61,0,0,0,.64-.14,3.12,3.12,0,0,0,.57-.32l1.33,2.1a5.21,5.21,0,0,1-1.43.78,4.66,4.66,0,0,1-1.61.28,4.36,4.36,0,0,1-2.41-.56,3.1,3.1,0,0,1-1.25-1.54A6.56,6.56,0,0,1,765.41,338.46Z"/><path class="cls-2" d="M773.48,331.68V329h3.7v2.69Zm.14,10.77V333H777v9.48Z"/><path class="cls-2" d="M785.73,338.92l2,2.28a5.08,5.08,0,0,1-1.52,1.08,5.41,5.41,0,0,1-2.42.49,5.34,5.34,0,0,1-2.59-.63,4.82,4.82,0,0,1-1.85-1.79,5.13,5.13,0,0,1-.68-2.66,4.93,4.93,0,0,1,.68-2.57,5.1,5.1,0,0,1,1.85-1.81,5.15,5.15,0,0,1,2.59-.67,5.51,5.51,0,0,1,2.37.45,4.76,4.76,0,0,1,1.57,1.13l-2,2.28a4.34,4.34,0,0,0-.61-.57,2,2,0,0,0-1.23-.3,1.72,1.72,0,0,0-1.25.56,2.06,2.06,0,0,0-.54,1.5,2.13,2.13,0,0,0,.54,1.51,1.68,1.68,0,0,0,1.25.59,1.91,1.91,0,0,0,1.22-.34A5.92,5.92,0,0,0,785.73,338.92Z"/><path class="cls-2" d="M792.47,342.45V333h3.29l.12,1.19a3.66,3.66,0,0,1,1-1,2.56,2.56,0,0,1,1.44-.39,4.81,4.81,0,0,1,.7,0,1.91,1.91,0,0,1,.51.12l-.44,2.9a4.13,4.13,0,0,0-1-.12c-1.48,0-2.22.82-2.22,2.44v4.26Z"/><path class="cls-2" d="M808.21,339.55l1.07,2.22a12,12,0,0,1-1.49.63,7.26,7.26,0,0,1-2.47.37,5.61,5.61,0,0,1-4-1.32,4.81,4.81,0,0,1-1.4-3.7,5.93,5.93,0,0,1,.3-1.86,5,5,0,0,1,.92-1.64,4.36,4.36,0,0,1,1.55-1.17,5.19,5.19,0,0,1,2.19-.44,4.74,4.74,0,0,1,2.37.6,4.19,4.19,0,0,1,1.68,1.8,6.48,6.48,0,0,1,.63,3v.65h-6.42a1.48,1.48,0,0,0,.24.67,1.57,1.57,0,0,0,.72.6,3.41,3.41,0,0,0,1.41.24,5.41,5.41,0,0,0,1.59-.22A5.09,5.09,0,0,0,808.21,339.55Zm-5.05-2.85h3.37a1.47,1.47,0,0,0-.18-.67,1.7,1.7,0,0,0-.55-.59,1.67,1.67,0,0,0-1-.25,1.63,1.63,0,0,0-.94.25,1.7,1.7,0,0,0-.55.59A1.49,1.49,0,0,0,803.16,336.7Z"/><path class="cls-2" d="M813.58,342.45l-4-9.48h3.71l1.94,5.67L817,333h3.71l-4.12,9.48Z"/><path class="cls-2" d="M821.75,331.68V329h3.69v2.69Zm.14,10.77V333h3.41v9.48Z"/><path class="cls-2" d="M835.23,339.55l1.07,2.22a11.67,11.67,0,0,1-1.5.63,7.16,7.16,0,0,1-2.46.37,5.61,5.61,0,0,1-4-1.32,4.82,4.82,0,0,1-1.41-3.7,6,6,0,0,1,.31-1.86,5,5,0,0,1,.91-1.64,4.39,4.39,0,0,1,1.56-1.17,5.12,5.12,0,0,1,2.19-.44,4.74,4.74,0,0,1,2.37.6A4.19,4.19,0,0,1,836,335a6.48,6.48,0,0,1,.63,3v.65h-6.42a1.58,1.58,0,0,0,.23.67,1.66,1.66,0,0,0,.73.6,3.36,3.36,0,0,0,1.4.24,5.43,5.43,0,0,0,1.6-.22A5.09,5.09,0,0,0,835.23,339.55Zm-5.05-2.85h3.37a1.47,1.47,0,0,0-.18-.67,1.8,1.8,0,0,0-.55-.59,1.67,1.67,0,0,0-1-.25,1.63,1.63,0,0,0-.94.25,1.84,1.84,0,0,0-.56.59A1.47,1.47,0,0,0,830.18,336.7Z"/><path class="cls-2" d="M840.09,342.45,836.8,333h3.37l1.49,5.57,1.68-5.57H846l1.7,5.57,1.49-5.57h3.37l-3.29,9.48h-3l-1.63-4.88L843,342.45Z"/><path class="cls-2" d="M722,366.67l-3.29-9.49H722l1.49,5.57,1.68-5.57h2.64l1.7,5.57,1.49-5.57h3.37l-3.29,9.49h-3l-1.63-4.89-1.64,4.89Z"/><path class="cls-2" d="M735.42,355.89v-2.68h3.69v2.68Zm.14,10.78v-9.49H739v9.49Z"/><path class="cls-2" d="M741.61,362.67v-2.86h-1.39v-2.63h1.39v-3.13H745v3.13h2.34v2.63H745v3.34q0,1.17,1.11,1.17a1.45,1.45,0,0,0,.64-.14,3.12,3.12,0,0,0,.57-.32l1.33,2.1a5,5,0,0,1-1.43.79,4.91,4.91,0,0,1-1.61.28,4.36,4.36,0,0,1-2.41-.57,3,3,0,0,1-1.24-1.54A6.24,6.24,0,0,1,741.61,362.67Z"/><path class="cls-2" d="M749.76,366.67V353.21h3.41v4.84a2.71,2.71,0,0,1,.89-.71,3.59,3.59,0,0,1,1-.32,6.1,6.1,0,0,1,.85-.08,4.16,4.16,0,0,1,1.79.38,3,3,0,0,1,1.29,1.21,4.43,4.43,0,0,1,.47,2.16v6h-3.41v-5.09a1.94,1.94,0,0,0-.33-1.2,1.17,1.17,0,0,0-1-.43,1.34,1.34,0,0,0-1.24.52,2,2,0,0,0-.34,1.13v5.07Z"/><path class="cls-2" d="M769,366.67l-4.88-13.46h3.9l3,9.36,2.83-9.36h3.81l-4.9,13.46Z"/><path class="cls-2" d="M785.06,363.76l1.07,2.22a11.39,11.39,0,0,1-1.5.64,7.41,7.41,0,0,1-2.46.37,5.64,5.64,0,0,1-4-1.32,4.87,4.87,0,0,1-1.4-3.71,5.83,5.83,0,0,1,.3-1.85,5.15,5.15,0,0,1,.92-1.65,4.39,4.39,0,0,1,1.56-1.17,5.13,5.13,0,0,1,2.19-.43,4.84,4.84,0,0,1,2.37.59,4.32,4.32,0,0,1,1.68,1.8,6.5,6.5,0,0,1,.63,3v.64H780a1.49,1.49,0,0,0,.23.68,1.65,1.65,0,0,0,.73.59,3.19,3.19,0,0,0,1.4.25,5.43,5.43,0,0,0,1.6-.23A4.64,4.64,0,0,0,785.06,363.76Zm-5-2.85h3.37a1.43,1.43,0,0,0-.18-.66,1.67,1.67,0,0,0-.56-.6,1.91,1.91,0,0,0-1.89,0,1.67,1.67,0,0,0-.56.6A1.43,1.43,0,0,0,780,360.91Z"/><path class="cls-2" d="M787.92,366.67v-9.49h3.29l.12,1.19a4,4,0,0,1,1-1,2.58,2.58,0,0,1,1.44-.39,4.81,4.81,0,0,1,.7,0,3,3,0,0,1,.51.12l-.44,2.91a4.07,4.07,0,0,0-1-.12c-1.48,0-2.22.81-2.22,2.44v4.26Z"/><path class="cls-2" d="M796,355.89v-2.68h3.69v2.68Zm.14,10.78v-9.49h3.41v9.49Z"/><path class="cls-2" d="M801.58,366.22v-13H805V358a2.51,2.51,0,0,1,.82-.61,3.89,3.89,0,0,1,.88-.28,4.19,4.19,0,0,1,.68-.08,3.68,3.68,0,0,1,2.25.67,4.12,4.12,0,0,1,1.39,1.74,5.62,5.62,0,0,1,.48,2.31,5.18,5.18,0,0,1-1.45,3.9,6,6,0,0,1-4.28,1.39,10.9,10.9,0,0,1-2.31-.25A16.27,16.27,0,0,1,801.58,366.22Zm3.41-4.5V364a3,3,0,0,0,.52.14,3.33,3.33,0,0,0,.67.06,1.74,1.74,0,0,0,1.35-.56,2.6,2.6,0,0,0,.53-1.8,2.93,2.93,0,0,0-.15-.9,1.73,1.73,0,0,0-.48-.75,1.18,1.18,0,0,0-.84-.3,1.4,1.4,0,0,0-1.23.52A2.27,2.27,0,0,0,805,361.72Z"/><path class="cls-2" d="M813.06,366.67V353.21h3.41v13.46Z"/><path class="cls-2" d="M826.34,363.76l1.07,2.22a11.74,11.74,0,0,1-1.49.64,7.51,7.51,0,0,1-2.47.37,5.61,5.61,0,0,1-4-1.32,4.83,4.83,0,0,1-1.4-3.71,5.83,5.83,0,0,1,.3-1.85,5,5,0,0,1,.92-1.65,4.45,4.45,0,0,1,1.55-1.17,5.19,5.19,0,0,1,2.19-.43,4.82,4.82,0,0,1,2.37.59,4.28,4.28,0,0,1,1.69,1.8,6.63,6.63,0,0,1,.62,3v.64h-6.42a1.64,1.64,0,0,0,.24.68,1.62,1.62,0,0,0,.72.59,3.24,3.24,0,0,0,1.41.25,5.36,5.36,0,0,0,1.59-.23A4.64,4.64,0,0,0,826.34,363.76Zm-5-2.85h3.37a1.45,1.45,0,0,0-.19-.66,1.64,1.64,0,0,0-.55-.6,1.75,1.75,0,0,0-1-.25,1.71,1.71,0,0,0-.94.25,1.64,1.64,0,0,0-.55.6A1.43,1.43,0,0,0,821.3,360.91Z"/><path class="cls-2" d="M557.32,266.9h-191a8.1,8.1,0,0,1-8.08-8.09V211.23a8.1,8.1,0,0,1,8.08-8.08h191a8.1,8.1,0,0,1,8.09,8.08v47.58A8.1,8.1,0,0,1,557.32,266.9Zm-191-61.25a5.59,5.59,0,0,0-5.58,5.58v47.58a5.59,5.59,0,0,0,5.58,5.59h191a5.6,5.6,0,0,0,5.59-5.59V211.23a5.6,5.6,0,0,0-5.59-5.58Z"/><path class="cls-2" d="M400.35,245.25V230.7H405a5.85,5.85,0,0,1,2.5.46,4,4,0,0,1,1.54,1.17,4.12,4.12,0,0,1,.77,1.48,5.08,5.08,0,0,1,.22,1.43,4.78,4.78,0,0,1-.42,2.09,4.06,4.06,0,0,1-1.15,1.43,5,5,0,0,1-1.58.82,6,6,0,0,1-1.71.26H403v5.41Zm2.64-7.72h2a2.25,2.25,0,0,0,1.66-.63,2.12,2.12,0,0,0,.63-1.58A2.22,2.22,0,0,0,405,233h-2Z"/><path class="cls-2" d="M411.77,241.23V235h2.58v6.19a2.06,2.06,0,0,0,.53,1.51,1.88,1.88,0,0,0,1.39.54,2.25,2.25,0,0,0,1.76-.78,2.79,2.79,0,0,0,.7-1.92V235h2.57v10.23h-2.46l-.07-1.16a5.33,5.33,0,0,1-1.12.9,3.52,3.52,0,0,1-1.95.47,3.65,3.65,0,0,1-2.91-1.15A4.49,4.49,0,0,1,411.77,241.23Z"/><path class="cls-2" d="M423.83,245.25V230.7h2.58v14.55Z"/><path class="cls-2" d="M428.94,245.25V230.7h2.57v14.55Z"/><path class="cls-2" d="M438,245.25V235h2.47l.06,1.29a4.41,4.41,0,0,1,.65-.65,4.13,4.13,0,0,1,1-.59,3.85,3.85,0,0,1,1.43-.25,4.23,4.23,0,0,1,.66.05,2.64,2.64,0,0,1,.6.15l-.52,2.42a3.36,3.36,0,0,0-1.18-.2,2.68,2.68,0,0,0-1.83.68,2.28,2.28,0,0,0-.76,1.81v5.52Z"/><path class="cls-2" d="M454.32,242.19l1.39,1.57q-.06.08-.36.36a4.06,4.06,0,0,1-.85.63,5.49,5.49,0,0,1-1.41.59,7.4,7.4,0,0,1-2.06.25,5.55,5.55,0,0,1-2.85-.7,4.94,4.94,0,0,1-1.89-2,6.05,6.05,0,0,1-.67-2.9,5.55,5.55,0,0,1,.66-2.71,5.39,5.39,0,0,1,6.9-2.13,4.3,4.3,0,0,1,1.55,1.34,5.41,5.41,0,0,1,.85,1.89,8.53,8.53,0,0,1,.26,2.14v.37h-7.63a2,2,0,0,0,.43,1.29,2.92,2.92,0,0,0,1.08.88,3,3,0,0,0,1.33.31,4.82,4.82,0,0,0,1.65-.23,4,4,0,0,0,1.05-.51A5.22,5.22,0,0,0,454.32,242.19Zm-6.13-3.14h5a2.19,2.19,0,0,0-.28-1,2.21,2.21,0,0,0-.79-.85,2.37,2.37,0,0,0-1.33-.34,2.73,2.73,0,0,0-1.43.34,2.32,2.32,0,0,0-.88.85A1.93,1.93,0,0,0,448.19,239.05Z"/><path class="cls-2" d="M464.83,249.61v-5a3.8,3.8,0,0,1-.95.62,3.62,3.62,0,0,1-1.6.31,4.78,4.78,0,0,1-2.7-.73,4.54,4.54,0,0,1-1.66-1.94,6.12,6.12,0,0,1-.57-2.65,5.54,5.54,0,0,1,.71-2.77,5.26,5.26,0,0,1,2-2,6.14,6.14,0,0,1,3.07-.73,12.65,12.65,0,0,1,2.46.22,12,12,0,0,1,1.81.46v14.13Zm0-8.62v-3.75a4.85,4.85,0,0,0-.63-.16,6.31,6.31,0,0,0-1-.06,3,3,0,0,0-2.45.93,3.48,3.48,0,0,0-.75,2.26,4.23,4.23,0,0,0,.26,1.5,2.67,2.67,0,0,0,.8,1.18,2.13,2.13,0,0,0,1.42.46,2.71,2.71,0,0,0,1.77-.52A2.35,2.35,0,0,0,464.83,241Z"/><path class="cls-2" d="M469.89,241.23V235h2.57v6.19a2.1,2.1,0,0,0,.53,1.51,1.88,1.88,0,0,0,1.39.54,2.29,2.29,0,0,0,1.77-.78,2.83,2.83,0,0,0,.69-1.92V235h2.58v10.23H477l-.06-1.16a5.42,5.42,0,0,1-1.13.9,3.48,3.48,0,0,1-1.95.47,3.67,3.67,0,0,1-2.91-1.15A4.53,4.53,0,0,1,469.89,241.23Z"/><path class="cls-2" d="M490.17,242.19l1.39,1.57-.36.36a4.06,4.06,0,0,1-.85.63,5.42,5.42,0,0,1-1.42.59,7.3,7.3,0,0,1-2.06.25,5.54,5.54,0,0,1-2.84-.7,4.94,4.94,0,0,1-1.89-2,6.05,6.05,0,0,1-.67-2.9,5.55,5.55,0,0,1,.66-2.71,5,5,0,0,1,1.83-1.92,5.66,5.66,0,0,1,5.07-.21,4.3,4.3,0,0,1,1.55,1.34,5.59,5.59,0,0,1,.85,1.89,8.53,8.53,0,0,1,.26,2.14v.37h-7.63a2,2,0,0,0,.43,1.29,2.92,2.92,0,0,0,1.08.88,3,3,0,0,0,1.33.31,4.86,4.86,0,0,0,1.65-.23,4,4,0,0,0,1.05-.51A5.22,5.22,0,0,0,490.17,242.19ZM484,239.05h5a2.19,2.19,0,0,0-.28-1,2.21,2.21,0,0,0-.79-.85,2.39,2.39,0,0,0-1.33-.34,2.73,2.73,0,0,0-1.43.34,2.43,2.43,0,0,0-.89.85A2,2,0,0,0,484,239.05Z"/><path class="cls-2" d="M493.18,244l1.54-1.68a3.92,3.92,0,0,0,1.21.8,4.21,4.21,0,0,0,1.67.32,3.28,3.28,0,0,0,1.33-.23.75.75,0,0,0,.5-.71.86.86,0,0,0-.18-.54,1.91,1.91,0,0,0-.73-.45,10.85,10.85,0,0,0-1.68-.5,8.45,8.45,0,0,1-1.44-.52,3.61,3.61,0,0,1-1.3-1,2.49,2.49,0,0,1-.53-1.63,2.59,2.59,0,0,1,.62-1.74,3.87,3.87,0,0,1,1.59-1.09,5.5,5.5,0,0,1,2-.37,8.2,8.2,0,0,1,2.31.28,5.43,5.43,0,0,1,1.7.85l-1.33,1.81a4.33,4.33,0,0,0-1.1-.55,4.56,4.56,0,0,0-1.58-.25,2.24,2.24,0,0,0-1.27.27.81.81,0,0,0-.37.66c0,.32.2.57.6.76a11.07,11.07,0,0,0,1.87.57,6.34,6.34,0,0,1,2.47,1.08,2.66,2.66,0,0,1,.93,2.22,2.62,2.62,0,0,1-.6,1.71,3.79,3.79,0,0,1-1.59,1.12,6,6,0,0,1-2.2.39,7.85,7.85,0,0,1-2.58-.4A4.22,4.22,0,0,1,493.18,244Z"/><path class="cls-2" d="M505,241.76v-4.65h-1.74V235H505V231.7h2.58V235h2.74v2.09h-2.74v4.47a2.49,2.49,0,0,0,.29,1.34,1,1,0,0,0,1,.47,2.34,2.34,0,0,0,1-.17,4.89,4.89,0,0,0,.69-.42l1.09,1.59a5.62,5.62,0,0,1-1.51.9,4.53,4.53,0,0,1-1.65.28,3.06,3.06,0,0,1-2.64-1A4.59,4.59,0,0,1,505,241.76Z"/><rect class="cls-2" x="460.83" y="51.41" width="2" height="32.69"/><polygon class="cls-2" points="455.05 76.13 461.83 82.92 468.62 76.13 468.62 81.89 461.83 88.67 455.05 81.89 455.05 76.13"/><rect class="cls-2" x="460.83" y="265.27" width="2" height="42.16"/><polygon class="cls-2" points="455.05 299.46 461.83 306.25 468.62 299.46 468.62 305.22 461.83 312 455.05 305.22 455.05 299.46"/><rect class="cls-2" x="460.83" y="153.09" width="2" height="42.16"/><polygon class="cls-2" points="455.05 187.28 461.83 194.06 468.62 187.28 468.62 193.04 461.83 199.82 455.05 193.04 455.05 187.28"/><rect class="cls-2" x="460.83" y="376.1" width="2" height="42.16"/><polygon class="cls-2" points="455.05 410.29 461.83 417.07 468.62 410.29 468.62 416.05 461.83 422.83 455.05 416.05 455.05 410.29"/><rect class="cls-2" x="460.83" y="488.01" width="2" height="42.16"/><polygon class="cls-2" points="455.05 522.2 461.83 528.99 468.62 522.2 468.62 527.96 461.83 534.74 455.05 527.96 455.05 522.2"/><polygon class="cls-2" points="950.35 350.03 878.5 350.03 878.5 348.03 948.35 348.03 948.35 124.71 576.9 124.71 576.9 122.71 950.35 122.71 950.35 350.03"/><polygon class="cls-2" points="584.87 116.93 578.09 123.71 584.87 130.49 579.11 130.49 572.33 123.71 579.11 116.93 584.87 116.93"/><polygon class="cls-2" points="359.51 465.24 209.99 465.24 209.99 122.71 345.38 122.71 345.38 124.71 211.99 124.71 211.99 463.24 359.51 463.24 359.51 465.24"/><polygon class="cls-2" points="337.41 130.49 344.2 123.71 337.41 116.93 343.17 116.93 349.95 123.71 343.17 130.49 337.41 130.49"/><polygon class="cls-2" points="774.39 459.36 576.9 459.36 576.9 457.36 772.39 457.36 772.39 380.9 774.39 380.9 774.39 459.36"/><polygon class="cls-2" points="584.87 451.58 578.09 458.36 584.87 465.14 579.11 465.14 572.33 458.36 579.11 451.58 584.87 451.58"/><polygon class="cls-2" points="987.17 413.05 981.19 413.05 981.19 411.36 985.48 411.36 985.48 407.08 987.17 407.08 987.17 413.05"/><path class="cls-2" d="M970.85,413.05H960.5v-1.69h10.35Zm-20.69,0H939.81v-1.69h10.35Zm-20.7,0H919.12v-1.69h10.34Zm-20.69,0H898.43v-1.69h10.34Zm-20.69,0H877.73v-1.69h10.35Zm-20.69,0H857v-1.69h10.35Zm-20.69,0H836.35v-1.69H846.7Zm-20.69,0H815.66v-1.69H826Zm-20.7,0H795v-1.69h10.34Zm-20.69,0H774.28v-1.69h10.34Zm-20.69,0H753.58v-1.69h10.35Zm-20.69,0H732.89v-1.69h10.35Zm-20.69,0H712.2v-1.69h10.35Zm-20.7,0H691.51v-1.69h10.34Zm-20.69,0H670.82v-1.69h10.34Zm-20.69,0H650.13v-1.69h10.34Zm-20.69,0H629.43v-1.69h10.35Z"/><polygon class="cls-2" points="619.09 413.05 613.11 413.05 613.11 407.08 614.81 407.08 614.81 411.36 619.09 411.36 619.09 413.05"/><path class="cls-2" d="M614.81,396.52h-1.7V386h1.7Zm0-21.11h-1.7V364.86h1.7Zm0-21.11h-1.7V343.75h1.7Zm0-21.11h-1.7V322.64h1.7Zm0-21.11h-1.7V301.53h1.7Z"/><polygon class="cls-2" points="614.81 290.97 613.11 290.97 613.11 285 619.09 285 619.09 286.69 614.81 286.69 614.81 290.97"/><path class="cls-2" d="M970.85,286.69H960.5V285h10.35Zm-20.69,0H939.81V285h10.35Zm-20.69,0H919.12V285h10.35Zm-20.7,0H898.43V285h10.34Zm-20.69,0H877.74V285h10.34Zm-20.69,0H857V285h10.35Zm-20.69,0H836.35V285H846.7Zm-20.69,0H815.66V285H826Zm-20.7,0H795V285h10.34Zm-20.69,0H774.28V285h10.34Zm-20.69,0H753.58V285h10.35Zm-20.69,0H732.89V285h10.35Zm-20.69,0H712.2V285h10.35Zm-20.7,0H691.51V285h10.34Zm-20.69,0H670.82V285h10.34Zm-20.69,0H650.13V285h10.34Zm-20.69,0H629.43V285h10.35Z"/><polygon class="cls-2" points="987.17 290.97 985.48 290.97 985.48 286.69 981.19 286.69 981.19 285 987.17 285 987.17 290.97"/><path class="cls-2" d="M987.17,396.52h-1.69V386h1.69Zm0-21.11h-1.69V364.86h1.69Zm0-21.11h-1.69V343.75h1.69Zm0-21.11h-1.69V322.64h1.69Zm0-21.11h-1.69V301.53h1.69Z"/><polygon class="cls-2" points="774.39 302.23 772.39 302.23 772.39 237.31 564.16 237.31 564.16 235.31 774.39 235.31 774.39 302.23"/><polygon class="cls-2" points="766.61 294.26 773.39 301.05 780.17 294.26 780.17 300.02 773.39 306.8 766.61 300.02 766.61 294.26"/><path class="cls-2" d="M850.87,439.69v-2.33h5.21v6a7.55,7.55,0,0,1-2.24,1.41,8.85,8.85,0,0,1-3.58.62,7.86,7.86,0,0,1-4.08-1,6.89,6.89,0,0,1-2.62-2.71,8,8,0,0,1-.91-3.83,8.22,8.22,0,0,1,.54-3,7.77,7.77,0,0,1,1.54-2.45,7,7,0,0,1,2.37-1.66,7.45,7.45,0,0,1,3-.6,7,7,0,0,1,3.58.85,7.45,7.45,0,0,1,2.3,2.07l-1.94,1.73a5.94,5.94,0,0,0-1.62-1.62,4.64,4.64,0,0,0-4.78.11,4.72,4.72,0,0,0-1.59,1.91,6.05,6.05,0,0,0-.56,2.59,5.35,5.35,0,0,0,.67,2.7,4.68,4.68,0,0,0,1.77,1.79,4.74,4.74,0,0,0,2.41.63,4.54,4.54,0,0,0,3.09-1v-2.27Z"/><path class="cls-2" d="M858.74,433.22v-2.71h2.75v2.71Zm.09,11.84V434.83h2.57v10.23Z"/><path class="cls-2" d="M864.91,441.57v-4.65h-1.74v-2.09h1.74v-3.32h2.57v3.32h2.75v2.09h-2.75v4.47a2.49,2.49,0,0,0,.3,1.34,1,1,0,0,0,1,.47,2.38,2.38,0,0,0,1-.17,4.29,4.29,0,0,0,.68-.42l1.09,1.6a6,6,0,0,1-1.5.89,4.63,4.63,0,0,1-1.66.28,3.08,3.08,0,0,1-2.64-1A4.59,4.59,0,0,1,864.91,441.57Z"/><path class="cls-2" d="M873.06,445.06V430.51h2.75v5.85H883v-5.85h2.75v14.55H883V438.8h-7.22v6.26Z"/><path class="cls-2" d="M888.52,441v-6.21h2.58V441a2.1,2.1,0,0,0,.53,1.51,1.88,1.88,0,0,0,1.39.54,2.25,2.25,0,0,0,1.76-.78,2.79,2.79,0,0,0,.7-1.92v-5.54h2.57v10.23h-2.46l-.07-1.16a5.66,5.66,0,0,1-1.12.91,3.61,3.61,0,0,1-1.95.46,3.67,3.67,0,0,1-2.91-1.15A4.49,4.49,0,0,1,888.52,441Z"/><path class="cls-2" d="M900.58,444.73V430.51h2.58v5a3.35,3.35,0,0,1,1-.59,4.9,4.9,0,0,1,4.31.38,4.54,4.54,0,0,1,1.6,1.89,6,6,0,0,1,.56,2.61,5.62,5.62,0,0,1-.71,2.79,5.34,5.34,0,0,1-2,2,5.88,5.88,0,0,1-3.07.77,13.2,13.2,0,0,1-2.45-.22A15.06,15.06,0,0,1,900.58,444.73Zm2.58-5.63V443l.63.16a6.26,6.26,0,0,0,1,.06,3.06,3.06,0,0,0,1.76-.47,3.1,3.1,0,0,0,1.08-1.22,3.51,3.51,0,0,0,.37-1.6,4.27,4.27,0,0,0-.26-1.48,2.61,2.61,0,0,0-.81-1.13,2.24,2.24,0,0,0-1.42-.42,2.41,2.41,0,0,0-1.76.6A2.19,2.19,0,0,0,903.16,439.1Z"/><path class="cls-2" d="M915.56,445.06l5.52-14.55h2.84l5.51,14.55h-3l-1.26-3.69h-5.41l-1.27,3.69Zm4.91-6h3.86l-1.92-5.64Z"/><path class="cls-2" d="M937.94,442.05l1.52,1.65a5.58,5.58,0,0,1-1.71,1.23,5.46,5.46,0,0,1-2.28.45,6.09,6.09,0,0,1-3-.68,4.64,4.64,0,0,1-1.88-1.92,6,6,0,0,1-.64-2.85,5.38,5.38,0,0,1,.7-2.72,5.26,5.26,0,0,1,1.93-2,5.46,5.46,0,0,1,2.86-.74,5.58,5.58,0,0,1,2.27.45,5.22,5.22,0,0,1,1.75,1.21l-1.64,1.66a2.89,2.89,0,0,0-1-.79,3.17,3.17,0,0,0-1.37-.28,2.76,2.76,0,0,0-1.62.45,2.86,2.86,0,0,0-1,1.19,3.92,3.92,0,0,0-.32,1.56,3.87,3.87,0,0,0,.32,1.51,2.94,2.94,0,0,0,1,1.22,2.64,2.64,0,0,0,1.62.48,3.3,3.3,0,0,0,1.41-.3A2.92,2.92,0,0,0,937.94,442.05Z"/><path class="cls-2" d="M942.06,441.57v-4.65h-1.75v-2.09h1.75v-3.32h2.57v3.32h2.75v2.09h-2.75v4.47a2.49,2.49,0,0,0,.3,1.34,1,1,0,0,0,1,.47,2.38,2.38,0,0,0,1-.17,4.79,4.79,0,0,0,.68-.42l1.09,1.6a6,6,0,0,1-1.5.89,4.63,4.63,0,0,1-1.66.28,3.08,3.08,0,0,1-2.64-1A4.59,4.59,0,0,1,942.06,441.57Z"/><path class="cls-2" d="M950,433.22v-2.71h2.75v2.71Zm.09,11.84V434.83h2.58v10.23Z"/><path class="cls-2" d="M954.79,439.93a5.48,5.48,0,0,1,.7-2.72,5.42,5.42,0,0,1,1.93-2,5.94,5.94,0,0,1,5.74,0,5.42,5.42,0,0,1,1.93,2,5.47,5.47,0,0,1,.69,2.72,5.54,5.54,0,0,1-.69,2.73,5.52,5.52,0,0,1-9.6,0A5.55,5.55,0,0,1,954.79,439.93Zm5.5,3.25a2.59,2.59,0,0,0,1.62-.5,3,3,0,0,0,1-1.25,3.89,3.89,0,0,0,.32-1.5,3.76,3.76,0,0,0-.32-1.48,3.07,3.07,0,0,0-1-1.24,2.84,2.84,0,0,0-3.25,0,3.07,3.07,0,0,0-1,1.24,3.75,3.75,0,0,0-.31,1.48,3.88,3.88,0,0,0,.31,1.5,3,3,0,0,0,1,1.25A2.6,2.6,0,0,0,960.29,443.18Z"/><path class="cls-2" d="M967.83,445.06V434.83h2.47l.06,1.16a5,5,0,0,1,1.14-.91,3.59,3.59,0,0,1,1.94-.47,3.67,3.67,0,0,1,2.91,1.15,4.5,4.5,0,0,1,1,3.08v6.22h-2.57v-6.2a2.06,2.06,0,0,0-.53-1.5,1.88,1.88,0,0,0-1.39-.55,2.29,2.29,0,0,0-1.77.79,2.79,2.79,0,0,0-.69,1.92v5.54Z"/><path class="cls-2" d="M979.35,443.81l1.54-1.68a3.92,3.92,0,0,0,1.21.8,4.21,4.21,0,0,0,1.67.32,3.24,3.24,0,0,0,1.33-.23.74.74,0,0,0,.5-.71.88.88,0,0,0-.18-.54,1.91,1.91,0,0,0-.73-.45,9.72,9.72,0,0,0-1.68-.49,8.54,8.54,0,0,1-1.44-.53,3.61,3.61,0,0,1-1.3-1,2.49,2.49,0,0,1-.53-1.62,2.6,2.6,0,0,1,.62-1.75,3.93,3.93,0,0,1,1.59-1.09,5.5,5.5,0,0,1,2-.37,8.59,8.59,0,0,1,2.31.28,5.32,5.32,0,0,1,1.7.85l-1.33,1.81a4.68,4.68,0,0,0-1.1-.55,4.56,4.56,0,0,0-1.58-.25,2.24,2.24,0,0,0-1.27.27.82.82,0,0,0-.37.67q0,.48.6.75a11.89,11.89,0,0,0,1.87.58,6.19,6.19,0,0,1,2.47,1.07,2.66,2.66,0,0,1,.93,2.22,2.62,2.62,0,0,1-.6,1.71A3.79,3.79,0,0,1,986,445a6,6,0,0,1-2.19.4,7.86,7.86,0,0,1-2.59-.41A4.22,4.22,0,0,1,979.35,443.81Z"/></g></g></svg>