<svg width="1122" height="584" viewBox="0 0 1122 584" fill="none" xmlns="http://www.w3.org/2000/svg">
<rect width="1122" height="584" fill="#332D37"/>
<rect width="3" height="89" transform="matrix(-4.37114e-08 1 1 4.37114e-08 224 353.917)" fill="white"/>
<path d="M312.729 349L307.208 349L312.729 353.916L312.729 357L307.208 361.916L312.729 361.916L319.354 356.366L319.354 354.4L312.729 349Z" fill="white"/>
<rect width="3" height="89" transform="matrix(-4.37114e-08 1 1 4.37114e-08 514 354.917)" fill="white"/>
<path d="M602.729 350L597.208 350L602.729 354.916L602.729 358L597.208 362.916L602.729 362.916L609.354 357.366L609.354 355.4L602.729 350Z" fill="white"/>
<rect width="3" height="89" transform="matrix(-4.37114e-08 1 1 4.37114e-08 772 354.917)" fill="white"/>
<path d="M860.729 350L855.208 350L860.729 354.916L860.729 358L855.208 362.916L860.729 362.916L867.354 357.366L867.354 355.4L860.729 350Z" fill="white"/>
<rect width="3" height="36" transform="matrix(-1 -8.74228e-08 -8.74228e-08 1 418.78 198)" fill="white"/>
<path d="M423.916 233.51L423.916 227.989L419 233.51L415.916 233.51L411 227.989L411 233.51L416.55 240.135L418.516 240.135L423.916 233.51Z" fill="white"/>
<rect x="92.5" y="261.5" width="120" height="188" rx="8.5" stroke="white" stroke-width="3"/>
<path d="M145.55 340H147.98L145.046 335.284C146.486 335.05 147.89 333.898 147.89 331.756C147.89 329.542 146.342 327.994 143.966 327.994H138.692V340H140.798V335.518H142.886L145.55 340ZM145.73 331.756C145.73 332.908 144.866 333.664 143.678 333.664H140.798V329.848H143.678C144.866 329.848 145.73 330.604 145.73 331.756ZM152.681 340H154.787V329.848H158.423V327.994H149.045V329.848H152.681V340ZM160.208 340H167.606V338.146H162.314V327.994H160.208V340ZM141.342 355.232H142.35L142.242 353.216L143.934 354.314L144.438 353.45L142.656 352.532L144.438 351.614L143.934 350.75L142.242 351.83L142.35 349.814H141.342L141.432 351.83L139.74 350.75L139.254 351.614L141.036 352.532L139.254 353.45L139.74 354.314L141.432 353.216L141.342 355.232ZM145.891 360.938C145.891 361.622 146.467 362.198 147.151 362.198C147.835 362.198 148.411 361.622 148.411 360.938C148.411 360.254 147.835 359.678 147.151 359.678C146.467 359.678 145.891 360.254 145.891 360.938ZM149.835 360.866C150.735 361.748 152.085 362.216 153.561 362.216C155.901 362.216 157.179 361.046 157.179 359.516C157.179 357.464 155.325 357.032 153.813 356.708C152.787 356.474 151.923 356.24 151.923 355.574C151.923 354.962 152.553 354.602 153.543 354.602C154.623 354.602 155.595 355.052 156.117 355.646L156.909 354.314C156.117 353.612 155.001 353.09 153.525 353.09C151.329 353.09 150.105 354.314 150.105 355.736C150.105 357.68 151.887 358.076 153.381 358.4C154.443 358.634 155.361 358.904 155.361 359.66C155.361 360.308 154.785 360.722 153.651 360.722C152.517 360.722 151.311 360.128 150.699 359.498L149.835 360.866ZM161.367 362H163.401L166.947 353.306H164.913L162.375 359.822L159.837 353.306H157.821L161.367 362ZM146.176 377.232H147.184L147.076 375.216L148.768 376.314L149.272 375.45L147.49 374.532L149.272 373.614L148.768 372.75L147.076 373.83L147.184 371.814H146.176L146.266 373.83L144.574 372.75L144.088 373.614L145.87 374.532L144.088 375.45L144.574 376.314L146.266 375.216L146.176 377.232ZM150.725 382.938C150.725 383.622 151.301 384.198 151.985 384.198C152.669 384.198 153.245 383.622 153.245 382.938C153.245 382.254 152.669 381.678 151.985 381.678C151.301 381.678 150.725 382.254 150.725 382.938ZM156.533 384H158.567L162.113 375.306H160.079L157.541 381.822L155.003 375.306H152.987L156.533 384Z" fill="white"/>
<rect x="340.5" y="261.5" width="152" height="188" rx="8.5" stroke="white" stroke-width="3"/>
<path d="M362.403 345.006C362.403 348.588 364.941 351.216 368.541 351.216C372.141 351.216 374.679 348.588 374.679 345.006C374.679 341.424 372.141 338.796 368.541 338.796C364.941 338.796 362.403 341.424 362.403 345.006ZM372.519 345.006C372.519 347.472 370.953 349.344 368.541 349.344C366.111 349.344 364.563 347.472 364.563 345.006C364.563 342.522 366.111 340.668 368.541 340.668C370.953 340.668 372.519 342.522 372.519 345.006ZM378.542 354.312V349.794C379.244 350.73 380.234 351.216 381.332 351.216C383.582 351.216 385.184 349.506 385.184 346.644C385.184 343.782 383.582 342.09 381.332 342.09C380.198 342.09 379.19 342.63 378.542 343.494V342.306H376.652V354.312H378.542ZM383.222 346.644C383.222 348.336 382.268 349.542 380.774 349.542C379.892 349.542 378.956 349.002 378.542 348.372V344.934C378.956 344.286 379.892 343.764 380.774 343.764C382.268 343.764 383.222 344.97 383.222 346.644ZM386.554 346.644C386.554 349.398 388.498 351.216 391.108 351.216C392.494 351.216 393.772 350.784 394.636 349.956L393.772 348.714C393.16 349.326 392.152 349.668 391.306 349.668C389.668 349.668 388.678 348.588 388.534 347.274H395.248V346.824C395.248 344.088 393.574 342.09 390.964 342.09C388.39 342.09 386.554 344.124 386.554 346.644ZM390.964 343.638C392.674 343.638 393.376 344.916 393.412 345.942H388.516C388.606 344.88 389.344 343.638 390.964 343.638ZM402.981 351H404.871V344.88C404.871 343.098 403.935 342.09 402.063 342.09C400.695 342.09 399.579 342.81 399.003 343.494V342.306H397.113V351H399.003V344.934C399.435 344.34 400.263 343.764 401.235 343.764C402.297 343.764 402.981 344.214 402.981 345.564V351ZM414.238 351H416.668L413.734 346.284C415.174 346.05 416.578 344.898 416.578 342.756C416.578 340.542 415.03 338.994 412.654 338.994H407.38V351H409.486V346.518H411.574L414.238 351ZM414.418 342.756C414.418 343.908 413.554 344.664 412.366 344.664H409.486V340.848H412.366C413.554 340.848 414.418 341.604 414.418 342.756ZM418.143 345.006C418.143 348.588 420.681 351.216 424.281 351.216C427.881 351.216 430.419 348.588 430.419 345.006C430.419 341.424 427.881 338.796 424.281 338.796C420.681 338.796 418.143 341.424 418.143 345.006ZM428.259 345.006C428.259 347.472 426.693 349.344 424.281 349.344C421.851 349.344 420.303 347.472 420.303 345.006C420.303 342.522 421.851 340.668 424.281 340.668C426.693 340.668 428.259 342.522 428.259 345.006ZM440.31 351H442.614L437.898 338.994H435.27L430.554 351H432.858L433.74 348.696H439.428L440.31 351ZM436.584 340.776L438.834 346.842H434.334L436.584 340.776ZM443.925 351H448.389C452.133 351 454.671 348.534 454.671 345.006C454.671 341.478 452.133 338.994 448.389 338.994H443.925V351ZM446.031 349.146V340.848H448.389C451.071 340.848 452.511 342.684 452.511 345.006C452.511 347.274 450.999 349.146 448.389 349.146H446.031ZM457.123 343.53C458.113 342.828 458.815 341.694 458.815 340.452C458.815 339.408 458.149 338.814 457.411 338.814C456.745 338.814 456.187 339.372 456.187 340.056C456.187 340.722 456.655 341.19 457.267 341.19C457.375 341.19 457.519 341.154 457.573 341.136C457.447 341.748 456.853 342.486 456.277 342.828L457.123 343.53ZM459.568 349.866C460.468 350.748 461.818 351.216 463.294 351.216C465.634 351.216 466.912 350.046 466.912 348.516C466.912 346.464 465.058 346.032 463.546 345.708C462.52 345.474 461.656 345.24 461.656 344.574C461.656 343.962 462.286 343.602 463.276 343.602C464.356 343.602 465.328 344.052 465.85 344.646L466.642 343.314C465.85 342.612 464.734 342.09 463.258 342.09C461.062 342.09 459.838 343.314 459.838 344.736C459.838 346.68 461.62 347.076 463.114 347.4C464.176 347.634 465.094 347.904 465.094 348.66C465.094 349.308 464.518 349.722 463.384 349.722C462.25 349.722 461.044 349.128 460.432 348.498L459.568 349.866ZM375.955 367.006C375.955 370.588 378.493 373.216 382.093 373.216C385.693 373.216 388.231 370.588 388.231 367.006C388.231 363.424 385.693 360.796 382.093 360.796C378.493 360.796 375.955 363.424 375.955 367.006ZM386.071 367.006C386.071 369.472 384.505 371.344 382.093 371.344C379.663 371.344 378.115 369.472 378.115 367.006C378.115 364.522 379.663 362.668 382.093 362.668C384.505 362.668 386.071 364.522 386.071 367.006ZM392.095 376.312V371.794C392.797 372.73 393.787 373.216 394.885 373.216C397.135 373.216 398.737 371.506 398.737 368.644C398.737 365.782 397.135 364.09 394.885 364.09C393.751 364.09 392.743 364.63 392.095 365.494V364.306H390.205V376.312H392.095ZM396.775 368.644C396.775 370.336 395.821 371.542 394.327 371.542C393.445 371.542 392.509 371.002 392.095 370.372V366.934C392.509 366.286 393.445 365.764 394.327 365.764C395.821 365.764 396.775 366.97 396.775 368.644ZM400.106 368.644C400.106 371.398 402.05 373.216 404.66 373.216C406.046 373.216 407.324 372.784 408.188 371.956L407.324 370.714C406.712 371.326 405.704 371.668 404.858 371.668C403.22 371.668 402.23 370.588 402.086 369.274H408.8V368.824C408.8 366.088 407.126 364.09 404.516 364.09C401.942 364.09 400.106 366.124 400.106 368.644ZM404.516 365.638C406.226 365.638 406.928 366.916 406.964 367.942H402.068C402.158 366.88 402.896 365.638 404.516 365.638ZM416.534 373H418.424V366.88C418.424 365.098 417.488 364.09 415.616 364.09C414.248 364.09 413.132 364.81 412.556 365.494V364.306H410.666V373H412.556V366.934C412.988 366.34 413.816 365.764 414.788 365.764C415.85 365.764 416.534 366.214 416.534 367.564V373ZM420.933 373H428.331V371.146H423.039V360.994H420.933V373ZM435.312 373H437.202V367.24C437.202 364.9 435.51 364.09 433.584 364.09C432.198 364.09 430.938 364.54 429.93 365.494L430.704 366.808C431.46 366.07 432.306 365.71 433.278 365.71C434.484 365.71 435.312 366.322 435.312 367.33V368.626C434.682 367.888 433.674 367.51 432.504 367.51C431.082 367.51 429.48 368.338 429.48 370.336C429.48 372.262 431.082 373.216 432.504 373.216C433.656 373.216 434.664 372.802 435.312 372.064V373ZM435.312 371.02C434.88 371.614 434.07 371.92 433.242 371.92C432.18 371.92 431.388 371.308 431.388 370.372C431.388 369.418 432.18 368.806 433.242 368.806C434.07 368.806 434.88 369.112 435.312 369.706V371.02ZM445.52 373H447.41V366.88C447.41 365.098 446.474 364.09 444.602 364.09C443.234 364.09 442.118 364.81 441.542 365.494V364.306H439.652V373H441.542V366.934C441.974 366.34 442.802 365.764 443.774 365.764C444.836 365.764 445.52 366.214 445.52 367.564V373ZM449.325 368.644C449.325 371.398 451.269 373.216 453.879 373.216C455.265 373.216 456.543 372.784 457.407 371.956L456.543 370.714C455.931 371.326 454.923 371.668 454.077 371.668C452.439 371.668 451.449 370.588 451.305 369.274H458.019V368.824C458.019 366.088 456.345 364.09 453.735 364.09C451.161 364.09 449.325 366.124 449.325 368.644ZM453.735 365.638C455.445 365.638 456.147 366.916 456.183 367.942H451.287C451.377 366.88 452.115 365.638 453.735 365.638Z" fill="white"/>
<rect x="328.5" y="96.5" width="176" height="80" rx="8.5" stroke="white" stroke-width="3"/>
<path d="M378.842 130.308C379.904 131.442 381.506 132.216 383.72 132.216C386.96 132.216 388.364 130.506 388.364 128.508C388.364 125.898 386.006 125.286 384.026 124.782C382.604 124.422 381.38 124.116 381.38 123.18C381.38 122.28 382.172 121.686 383.414 121.686C384.674 121.686 385.952 122.118 386.888 123.054L388.094 121.488C386.978 120.408 385.466 119.814 383.594 119.814C380.966 119.814 379.22 121.344 379.22 123.324C379.22 125.862 381.524 126.438 383.486 126.924C384.944 127.302 386.222 127.626 386.222 128.706C386.222 129.498 385.538 130.344 383.81 130.344C382.136 130.344 380.84 129.57 380.012 128.688L378.842 130.308ZM396.009 132H398.385L394.695 127.248L398.313 123.306H395.973L392.139 127.5V119.994H390.249V132H392.139V129.66L393.345 128.418L396.009 132ZM399.634 133.71L399.346 135.402C399.616 135.474 400.138 135.528 400.408 135.528C401.758 135.51 402.802 135.042 403.396 133.566L407.59 123.306H405.556L403.018 129.822L400.48 123.306H398.464L402.028 132.108L401.596 133.098C401.344 133.674 400.948 133.854 400.354 133.854C400.138 133.854 399.832 133.8 399.634 133.71ZM417.923 132H420.173L423.593 119.994H421.235L418.913 129.246L416.429 119.994H414.755L412.271 129.246L409.931 119.994H407.573L411.011 132H413.261L415.583 123.144L417.923 132ZM429.538 132H431.428V126.24C431.428 123.9 429.736 123.09 427.81 123.09C426.424 123.09 425.164 123.54 424.156 124.494L424.93 125.808C425.686 125.07 426.532 124.71 427.504 124.71C428.71 124.71 429.538 125.322 429.538 126.33V127.626C428.908 126.888 427.9 126.51 426.73 126.51C425.308 126.51 423.706 127.338 423.706 129.336C423.706 131.262 425.308 132.216 426.73 132.216C427.882 132.216 428.89 131.802 429.538 131.064V132ZM429.538 130.02C429.106 130.614 428.296 130.92 427.468 130.92C426.406 130.92 425.614 130.308 425.614 129.372C425.614 128.418 426.406 127.806 427.468 127.806C428.296 127.806 429.106 128.112 429.538 128.706V130.02ZM436.488 132.216C437.37 132.216 437.928 131.982 438.27 131.658L437.82 130.236C437.676 130.398 437.334 130.542 436.974 130.542C436.434 130.542 436.146 130.11 436.146 129.516V124.962H437.91V123.306H436.146V120.93H434.256V123.306H432.816V124.962H434.256V129.984C434.256 131.424 435.03 132.216 436.488 132.216ZM439.086 127.644C439.086 130.398 441.03 132.216 443.64 132.216C445.026 132.216 446.304 131.784 447.168 130.956L446.304 129.714C445.692 130.326 444.684 130.668 443.838 130.668C442.2 130.668 441.21 129.588 441.066 128.274H447.78V127.824C447.78 125.088 446.106 123.09 443.496 123.09C440.922 123.09 439.086 125.124 439.086 127.644ZM443.496 124.638C445.206 124.638 445.908 125.916 445.944 126.942H441.048C441.138 125.88 441.876 124.638 443.496 124.638ZM449.646 132H451.536V126.078C451.914 125.466 452.976 124.926 453.768 124.926C454.002 124.926 454.2 124.944 454.362 124.98V123.108C453.228 123.108 452.184 123.756 451.536 124.584V123.306H449.646V132ZM400.323 154H402.429V149.518H405.597C408.099 149.518 409.521 147.79 409.521 145.756C409.521 143.722 408.117 141.994 405.597 141.994H400.323V154ZM407.361 145.756C407.361 146.908 406.497 147.664 405.309 147.664H402.429V143.848H405.309C406.497 143.848 407.361 144.604 407.361 145.756ZM411.274 154H415.738C419.482 154 422.02 151.534 422.02 148.006C422.02 144.478 419.482 141.994 415.738 141.994H411.274V154ZM413.38 152.146V143.848H415.738C418.42 143.848 419.86 145.684 419.86 148.006C419.86 150.274 418.348 152.146 415.738 152.146H413.38ZM431.235 154H433.827L428.589 147.664L433.467 141.994H430.857L426.159 147.718V141.994H424.053V154H426.159V150.166L427.203 148.942L431.235 154Z" fill="white"/>
<rect x="630.5" y="261.5" width="120" height="188" rx="8.5" stroke="white" stroke-width="3"/>
<path d="M673.053 356.006C673.053 359.768 675.879 362.234 679.353 362.234C681.441 362.234 683.115 361.37 684.303 360.056V355.556H678.615V357.41H682.197V359.282C681.657 359.786 680.577 360.362 679.353 360.362C676.977 360.362 675.213 358.526 675.213 356.006C675.213 353.486 676.977 351.668 679.353 351.668C680.703 351.668 681.837 352.37 682.467 353.27L684.195 352.298C683.223 350.912 681.693 349.796 679.353 349.796C675.879 349.796 673.053 352.244 673.053 356.006ZM686.496 362H690.96C694.704 362 697.242 359.534 697.242 356.006C697.242 352.478 694.704 349.994 690.96 349.994H686.496V362ZM688.602 360.146V351.848H690.96C693.642 351.848 695.082 353.684 695.082 356.006C695.082 358.274 693.57 360.146 690.96 360.146H688.602ZM698.501 360.308C699.563 361.442 701.165 362.216 703.379 362.216C706.619 362.216 708.023 360.506 708.023 358.508C708.023 355.898 705.665 355.286 703.685 354.782C702.263 354.422 701.039 354.116 701.039 353.18C701.039 352.28 701.831 351.686 703.073 351.686C704.333 351.686 705.611 352.118 706.547 353.054L707.753 351.488C706.637 350.408 705.125 349.814 703.253 349.814C700.625 349.814 698.879 351.344 698.879 353.324C698.879 355.862 701.183 356.438 703.145 356.924C704.603 357.302 705.881 357.626 705.881 358.706C705.881 359.498 705.197 360.344 703.469 360.344C701.795 360.344 700.499 359.57 699.671 358.688L698.501 360.308Z" fill="white"/>
<rect x="906.5" y="303.5" width="105" height="105" fill="#332D37" stroke="white" stroke-width="3"/>
<rect x="958.5" y="380.5" width="39" height="14" fill="#332D37" stroke="white" stroke-width="3"/>
<rect x="924.5" y="323.5" width="47" height="48" fill="#332D37" stroke="white" stroke-width="3"/>
<rect x="979.5" y="325.5" width="18" height="10" fill="#332D37" stroke="white" stroke-width="3"/>
<rect x="979.5" y="343.5" width="18" height="10" fill="#332D37" stroke="white" stroke-width="3"/>
<rect x="979.5" y="361.5" width="18" height="10" fill="#332D37" stroke="white" stroke-width="3"/>
<rect x="935.5" y="334.5" width="26" height="26" fill="#332D37" stroke="white" stroke-width="3"/>
<rect x="888.5" y="285.5" width="15" height="15" fill="#332D37" stroke="white" stroke-width="3"/>
<rect x="888.5" y="411.5" width="15" height="15" fill="#332D37" stroke="white" stroke-width="3"/>
<rect x="888.5" y="310.5" width="17" height="8" fill="#332D37" stroke="white" stroke-width="3"/>
<rect x="888.5" y="326.5" width="17" height="9" fill="#332D37" stroke="white" stroke-width="3"/>
<rect x="888.5" y="343.5" width="17" height="9" fill="#332D37" stroke="white" stroke-width="3"/>
<rect x="888.5" y="359.5" width="17" height="9" fill="#332D37" stroke="white" stroke-width="3"/>
<rect x="888.5" y="376.5" width="17" height="9" fill="#332D37" stroke="white" stroke-width="3"/>
<rect x="888.5" y="393.5" width="17" height="8" fill="#332D37" stroke="white" stroke-width="3"/>
<rect x="1014.5" y="285.5" width="15" height="15" fill="#332D37" stroke="white" stroke-width="3"/>
<rect x="1014.5" y="411.5" width="15" height="15" fill="#332D37" stroke="white" stroke-width="3"/>
<rect x="1012.5" y="310.5" width="17" height="8" fill="#332D37" stroke="white" stroke-width="3"/>
<rect x="1012.5" y="326.5" width="17" height="9" fill="#332D37" stroke="white" stroke-width="3"/>
<rect x="1012.5" y="343.5" width="17" height="9" fill="#332D37" stroke="white" stroke-width="3"/>
<rect x="1012.5" y="359.5" width="17" height="9" fill="#332D37" stroke="white" stroke-width="3"/>
<rect x="1012.5" y="376.5" width="17" height="9" fill="#332D37" stroke="white" stroke-width="3"/>
<rect x="1012.5" y="393.5" width="17" height="8" fill="#332D37" stroke="white" stroke-width="3"/>
<rect x="913.5" y="302.5" width="17" height="8" transform="rotate(-90 913.5 302.5)" fill="#332D37" stroke="white" stroke-width="3"/>
<rect x="929.5" y="302.5" width="17" height="9" transform="rotate(-90 929.5 302.5)" fill="#332D37" stroke="white" stroke-width="3"/>
<rect x="946.5" y="302.5" width="17" height="9" transform="rotate(-90 946.5 302.5)" fill="#332D37" stroke="white" stroke-width="3"/>
<rect x="962.5" y="302.5" width="17" height="9" transform="rotate(-90 962.5 302.5)" fill="#332D37" stroke="white" stroke-width="3"/>
<rect x="979.5" y="302.5" width="17" height="9" transform="rotate(-90 979.5 302.5)" fill="#332D37" stroke="white" stroke-width="3"/>
<rect x="996.5" y="302.5" width="17" height="8" transform="rotate(-90 996.5 302.5)" fill="#332D37" stroke="white" stroke-width="3"/>
<rect x="913.5" y="426.5" width="17" height="8" transform="rotate(-90 913.5 426.5)" fill="#332D37" stroke="white" stroke-width="3"/>
<rect x="929.5" y="426.5" width="17" height="9" transform="rotate(-90 929.5 426.5)" fill="#332D37" stroke="white" stroke-width="3"/>
<rect x="946.5" y="426.5" width="17" height="9" transform="rotate(-90 946.5 426.5)" fill="#332D37" stroke="white" stroke-width="3"/>
<rect x="962.5" y="426.5" width="17" height="9" transform="rotate(-90 962.5 426.5)" fill="#332D37" stroke="white" stroke-width="3"/>
<rect x="979.5" y="426.5" width="17" height="9" transform="rotate(-90 979.5 426.5)" fill="#332D37" stroke="white" stroke-width="3"/>
<rect x="996.5" y="426.5" width="17" height="8" transform="rotate(-90 996.5 426.5)" fill="#332D37" stroke="white" stroke-width="3"/>
<rect x="905" y="306" width="10" height="102" fill="white"/>
<rect x="1003" y="306" width="10" height="102" fill="white"/>
<rect x="909" y="312" width="10" height="102" transform="rotate(-90 909 312)" fill="white"/>
<rect x="909" y="410" width="10" height="102" transform="rotate(-90 909 410)" fill="white"/>
<rect x="942" y="366" width="12" height="9" fill="#332D37"/>
</svg>
