<?xml version="1.0" encoding="UTF-8"?> <!-- Generator: Adobe Illustrator 25.0.1, SVG Export Plug-In . SVG Version: 6.00 Build 0) --> <svg xmlns="http://www.w3.org/2000/svg" xmlns:xlink="http://www.w3.org/1999/xlink" version="1.1" id="Layer_1" x="0px" y="0px" viewBox="0 0 1200 628" style="enable-background:new 0 0 1200 628;" xml:space="preserve"> <style type="text/css"> .st0{fill:#E0384F;} .st1{fill:#4D4D4D;} .st2{fill-rule:evenodd;clip-rule:evenodd;fill:#1D1D1B;} </style> <g> <g> <path id="path4" class="st0" d="M368.8,104.3c23.1,4.6,43.7,19.6,55.4,40.1c3.7,6.2,6.6,13,8.4,20c-21.2,21.3-42.6,42.6-63.9,63.9 c-2.7-1.2-5.1-2.4-8.1-2.7c-5.3-0.4-10.8,1.8-14,6.1c-4.6,5.7-4.4,14.8,0.5,20.3c4.8,5.8,13.9,7,20.3,3.2c4.2-2.4,7-6.7,7.6-11.5 c0.7-4.2-0.6-8-2.7-11.6c7-7.2,14.2-14.2,21.2-21.3c13.5-13.4,26.9-27,40.4-40.3c4.5,22.3-0.8,46.1-14,64.5 c-10,14-24.3,24.9-40.6,30.5c-11.4,4.1-23.8,5.5-35.8,4.4c-14.5-1.3-28.8-6.6-40.6-15.2c2.1-2.4,4.5-4.6,6.7-6.9 c20.7-20.7,41.4-41.4,62.1-62.1c1.6-1.6,3.5-3.2,4.7-5.2c1.4-2.1,0.8-5.3,0.9-7.8c0.1-8.3-0.2-16.6,0.2-24.8 c4.2-1.1,7.9-3.2,10.4-6.8c3.9-5.5,3.7-13.6-0.5-18.9c-2.2-2.9-5.5-4.9-8.9-5.8c-5.4-1.3-11.3,0.4-15.1,4.4 c-2.2,2.2-3.6,5-4.3,7.9c-1,4.8,0.4,10,3.7,13.7c2.5,2.9,5.8,4.4,9.3,5.4c0,9.1,0,18.4,0,27.5c0.1,2.8-1.8,4.1-3.5,5.9 c-21.4,21.4-42.8,42.8-64.3,64.2c-1.9,1.9-3.8,3.8-5.7,5.6c-6.6-5.3-12.3-11.6-17-18.7c-1.2-1.8-2.3-3.6-3.2-5.6 c5.5-5.4,10.8-10.8,16.2-16.2c0.6-0.5,1.1-1.2,1.9-1.4c2.6,0.8,4.8,2.2,7.7,2.3c4.7,0.5,9.3-1,12.7-4.3c4.4-4.3,6.1-11.1,3.9-16.9 c-1.8-5.3-6.4-9.2-11.8-10.3c-3.7-0.7-7.7-0.2-11,1.7c-5.5,2.9-8.7,9.3-8.1,15.5c0.1,3,1.5,5.1,2.6,7.8c-0.8,1.2-2,2.2-3,3.3 c-4.6,4.5-9.1,9.2-13.8,13.7c-5.4-11.4-8.4-24.1-8.1-36.7c0.1-1.1-0.1-2.1,0.8-3c6.5-6.6,13.2-13.1,19.7-19.7c1-1,2-2.1,3.1-2.9 c1-0.7,2.5-0.7,3.7-0.8c6.5,0,13,0.1,19.5,0c1,2.8,1.9,5.5,4,7.8c4,4.7,10.6,6.6,16.5,4.9c5.8-1.6,10.3-6.7,11.4-12.6 c0.7-5-0.6-10.2-4.1-13.9c-5.4-5.7-15-6.5-21.3-1.7c-3.4,2.5-5.3,6.1-6.3,10c-6.9,0.1-13.8,0-20.7,0c-1.6,0-3.1,0.2-4.6,0.9 c-1.7,0.9-3,2.5-4.4,3.8c-5.4,5.4-10.8,10.8-16.2,16.2c0.2-2.1,0.5-4.3,0.9-6.4c2.9-12.4,8.5-24.3,16.5-34.3 c7.7-9.6,17.5-17.5,28.5-22.9C331.3,102.9,350.7,100.5,368.8,104.3z"></path> <path id="path6" class="st1" d="M464.5,135.6c3.7-0.1,7.6-0.2,11.3,0.5c0.3,11.8,0.1,23.5-0.1,35.3c-0.3,13.8-0.4,27.5-0.9,41.3 c-0.1,6.8-0.4,13.6-0.6,20.4c-6.1-0.1-12.2,0.2-18.2-0.4c-0.2-1.8-0.3-3.7-0.3-5.5c-0.5-24.1-0.4-48.1,0.1-72.2 c0.3-5.4,0.2-11,0.8-16.4c0.2-0.9-0.1-1.8,1-2.1C459.7,135.7,462.2,135.7,464.5,135.6z"></path> <path id="path8" class="st1" d="M819.4,141.5c7,0.4,14.4,1.7,20.9,4.6c1.7,0.9,3.9,1.7,5.1,3.3c-0.1,2.4-1.2,4.9-2,7.1 c-1.5,3.5-3.1,7.1-5.3,10.2c-7.5-3.5-15.3-5.9-23.6-5.6c-2.6,0.1-5.7,0.7-7.7,2.5c-2.2,1.8-2.8,5.2-1.4,7.6 c0.9,1.6,2.8,2.5,4.5,3.2c4.9,2,10.2,2.7,15.4,4.3c6.3,1.9,13,4.8,17.5,9.9c2.8,3,4.3,6.7,5.2,10.7c1.2,6.4,0.3,13.1-3.1,18.8 c-2.9,4.7-7.2,8.4-12.2,10.7c-8.2,3.9-17.9,4.5-26.8,3.5c-8.5-1.1-17.3-3.8-24.5-8.6c0.2-2.8,1.1-5.4,2.1-8.1 c1.3-3.6,2.7-7.2,4.9-10.3c4.4,2.8,9.2,5.7,14.2,7.2c5,1.7,10.4,2.2,15.5,0.9c2-0.5,4.2-1.5,5.3-3.4c1.3-2.1,1.4-5.3-0.1-7.3 c-1.3-1.7-3.3-2.8-5.2-3.5c-5.3-2-10.5-2.6-15.9-4.3c-3.9-1.1-7.7-3-10.9-5.4c-3.9-3.1-6.8-7.4-7.9-12.3 c-1.4-5.7-1.5-12.2,0.6-17.7c2.2-6.2,7.4-11.3,13.2-14.1C803.7,141.9,811.7,141.1,819.4,141.5z"></path> <path id="path10" class="st1" d="M919.7,143.8c4.2,1.4,8.8,3.1,12.1,6.1c-1.1,4.8-3.1,9.5-5.2,13.9c-0.9,1.9-2,3.5-3.3,5.1 c-7.5-4.2-16-7.1-24.7-5.8c-7.9,1.3-14.4,7-17.3,14.4c-2.6,6.7-2.4,14.1-0.3,20.9c1.3,4.2,3.9,7.9,7.3,10.6 c4.4,3.3,9.8,4.5,15.2,4.1c6.8-0.4,12.7-3.4,18.1-7.4c4.5,4.7,7.6,11,10.5,16.8c-3.2,3.4-7.2,5.9-11.4,7.8 c-9.4,4.2-19.7,5.3-29.8,4c-7.6-1.1-14.7-3.9-20.5-9c-6.8-5.8-11.1-13.8-13.2-22.4c-1.7-7.2-2.4-14.8-1.5-22.1 c1.1-8.9,4.5-17.4,10.5-24.2c6.8-7.9,16.4-12.6,26.6-14.3C901.7,140.8,911.2,141.3,919.7,143.8z"></path> <path id="path12" class="st1" d="M692,142.5c-9.9,0.1-19.8,0.3-29.6,1.4c-0.9,11.9-0.7,23.8-1.1,35.7c-0.1,13.5-0.2,27-0.2,40.5 c0.1,4.1-0.1,8.4,0.4,12.5c2.4,0.5,5.1,0.3,7.5,0.3c4.7-0.1,9.5-0.1,14.1-0.7c0.8-7.9,0.4-15.6,0.6-23.6c0.1-2.1,0.1-4.2,0.1-6.2 c2.8,0.1,5.6,0.2,8.4,0.1c7.2,9.4,13.8,19.4,20.3,29.3c0.6,0.8,1.1,1.8,1.9,2.4c2.3,0,4.8-0.9,6.9-1.7c4.4-1.6,9-3.4,12.9-6 c-0.6-1.4-1.3-2.7-2.1-4c-5.2-8.3-11-16.3-17.2-23.9c4.9-2.1,9.2-5.1,12.1-9.6c3.4-5.1,4.3-11.6,4.1-17.6c-0.3-6.1-2-12.6-6-17.4 c-3.6-4.5-8.9-7.5-14.3-9.2C704.7,142.9,698.4,142.5,692,142.5z M692.9,162.2c3.4,0,6.8,0.3,9.8,1.6c3.5,1.5,5.3,4.9,5.5,8.6 c0.4,4.1-0.8,8-4.4,10.3c-5.3,3.2-12.8,2.2-18.7,1.8c0-7.3,0-14.6,0-22C687.6,162.5,690.3,162.3,692.9,162.2z"></path> <path id="path14" class="st1" d="M762.5,142.7c2,0,4,0.2,5.9,0.5c0.8,9,0.3,18,0.7,27c0,8,0,16,0,24.1c-0.3,12.7,0,25.4-0.8,38.1 c-3.6,1.2-7.6,1.1-11.3,1.1c-3.9-0.2-7.5-0.1-11.4-0.8c-0.7-25.1-0.6-50.2-0.4-75.2c0-4.7,0.2-9.4,0.5-14.1 C751.4,142.5,756.9,142.6,762.5,142.7z"></path> <path id="path18" class="st1" d="M634,167.6c6.2,0.9,12.5,2.4,18.5,4.2c-1.1,4.4-2.5,8.7-4,13c-4.8,14.4-9.8,28.8-14.9,43.1 c-0.6,1.7-1.2,3.5-2.1,5c-0.9,0.6-2.5,0.5-3.6,0.6c-5.5,0-11-0.3-16.5-1.1c-3.3-9.7-6.1-19.6-8.7-29.6c-1.1,2.6-1.9,5.2-2.9,7.8 c-2.6,7.1-5.4,14.2-8.4,21.2c-0.4,0.7-0.5,1.4-1.4,1.5c-1.4,0.3-2.9,0.3-4.4,0.3c-5-0.1-10-0.3-14.9-1.1 c-4.1-13.8-8.1-27.6-11.9-41.4c-1.7-6.5-3.8-13-4.9-19.7c6.1-1.8,12.5-2.8,18.8-3.5c1,2.6,1.8,5.2,2.5,7.9 c3,11.2,5.4,22.6,8.1,33.9c3-9.2,6.9-18,10.2-27.1c0.4-1.3,1.1-2.5,0.6-3.8c-0.9-3-2.2-5.7-2.5-8.9c4.3-1.2,8.8-1.6,13.2-1.9 c1.4,0,2.9-0.2,4.2,0.2c0.9,1,1.2,2.6,1.6,3.8c3.7,12.4,6.9,25,10.2,37.5c4.2-13.2,7.8-26.5,12-39.7 C633.4,169.1,633.6,168.3,634,167.6z"></path> <path id="path20" class="st1" d="M518.1,168.7c7.2,0.1,14.2,2.3,20,6.6c-4.3,4.4-8.6,8.6-12.9,13c-2.1-0.9-4.2-1.8-6.6-1.9 c-4.8-0.3-9.7,1.7-12.8,5.5c-2.2,2.5-3.4,5.7-3.6,9c-0.3,5.3,2.2,10.6,6.6,13.6c4.9,3.4,11.8,3.6,16.9,0.5 c5.4-3.1,8.3-9.7,7.2-15.8c-0.3-2.2-1.3-4-2.3-5.9c4.2-4.2,8.4-8.5,12.6-12.7c5.7,7.6,7.6,17.4,6.3,26.7 c-0.8,4.8-2.6,9.5-5.5,13.4c-4,5.6-9.9,9.6-16.5,11.4c-8.3,2.4-17.7,1.8-25.4-2.1c-5.9-2.9-10.7-8-13.5-13.9 c-3.3-7.6-4.4-16.4-2.1-24.4c1.9-7.1,6.5-13.4,12.5-17.5C504.7,170.3,511.4,168.6,518.1,168.7z"></path> </g> <g> <path class="st2" d="M352.3,459.5h-18.2v-5.1H316c-1.5,0-2.6,1.1-2.6,2.6v23.2H290c-1.4,0-2.6,1.2-2.6,2.6v18.1h5.2v18.1 c0,1.5,1.2,2.6,2.6,2.6h15.5c1.5,0,2.6-1.1,2.6-2.6v-18.1h20.7v-20.7h18.2c1.5,0,2.6-1.1,2.6-2.6V462 C354.9,460.6,353.7,459.5,352.3,459.5z M274.5,480.1h-23.3v-23.2c0-1.5-1.2-2.6-2.6-2.6h-18.2v5.2h-18.2c-1.5,0-2.6,1.2-2.6,2.6 v15.5c0,1.5,1.2,2.6,2.6,2.6h18.2v20.7H251v18.1c0,1.5,1.2,2.6,2.6,2.6h15.5c1.5,0,2.6-1.1,2.6-2.6v-18.1h5.1v-18.1 C276.9,481.3,275.8,480.1,274.5,480.1L274.5,480.1z M212.2,438.8h18.2v5.1h18.2c1.5,0,2.6-1.1,2.6-2.6v-23.3h23.4 c1.4,0,2.6-1.2,2.6-2.6v-18.1h-5.2v-18.2c0-1.5-1.2-2.6-2.6-2.6h-15.5c-1.5,0-2.6,1.2-2.6,2.6v18.1h-20.7v20.6h-18.2 c-1.5,0-2.6,1.2-2.6,2.6v15.6C209.6,437.7,210.8,438.8,212.2,438.8z M290,418.1h23.3v23.3c0,1.5,1.2,2.6,2.6,2.6h18.2v-5.1h18.2 c1.5,0,2.6-1.2,2.6-2.6v-15.5c0-1.5-1.2-2.6-2.6-2.6h-18.2v-20.6h-20.7v-18.2c0-1.5-1.2-2.6-2.6-2.6h-15.5c-1.5,0-2.6,1.2-2.6,2.6 v18.1h-5.1v18.1C287.5,417,288.6,418.1,290,418.1L290,418.1z M261.5,469.8H303v-41.3h-41.5V469.8L261.5,469.8z"></path> <path class="st2" d="M892.3,420.7v2.4c-4.8-4.4-11.3-6.9-19.3-6.9c-15,0-27.8,11.1-30,27.7h17.9c1,0,2-0.6,2.4-1.6 c2.2-5.7,7.3-9.3,13.8-9.3c8.1,0,15.2,6.6,15.2,16c0,9.6-7.2,16-15.2,16c-6.4,0-11.6-3.5-13.8-9.3c-0.2-0.5-0.6-0.9-1-1.2 c-0.4-0.3-1-0.4-1.5-0.4H843c0.5,5.4,2.5,10.7,5.7,15.1c3.2,4.4,7.6,7.9,12.7,10c5.1,2.1,10.6,2.9,16,2.1 c5.4-0.7,10.6-2.9,14.9-6.4v2.4c0,1.5,1.2,2.6,2.6,2.6h14.6c1.5,0,2.6-1.2,2.6-2.6v-56.9c0-1.5-1.1-2.6-2.6-2.6h-14.6 C893.5,418.1,892.3,419.3,892.3,420.7z M508.8,417.8c-4.6-0.1-9.2,0.8-13.5,2.7c-4.2,1.9-7.9,4.9-10.8,8.5v-7.2 c0-1.5-1.2-2.6-2.6-2.6h-4.2c-1.5,0-2.6,1.2-2.6,2.6v22.2h8.1c1.2,0,2.2-0.7,2.5-1.8c1.7-5.2,5.2-9.5,9.9-12.3 c4.7-2.8,10.2-3.8,15.6-2.9c5.4,0.9,10.3,3.7,13.7,7.9c3.5,4.2,5.3,9.5,5.2,14.9c0,14.5-10.2,23.6-22.8,23.6 c-5,0-9.9-1.7-13.9-4.8c-4-3.1-6.8-7.4-8.1-12.2c-0.1-0.6-0.5-1-0.9-1.4c-0.4-0.4-1-0.6-1.6-0.6h-7.8v44.3c0,1.5,1.2,2.6,2.6,2.6 h4.2c1.5,0,2.6-1.2,2.6-2.6v-28.1c2.9,3.6,6.6,6.5,10.8,8.5s8.8,2.9,13.5,2.7c4.1,0,8.2-0.9,12-2.5c3.8-1.6,7.2-4,10-7 c2.8-3,5-6.5,6.5-10.4c1.4-3.9,2.1-8,1.9-12.1c0.2-4.1-0.5-8.2-1.9-12.1c-1.4-3.8-3.7-7.4-6.5-10.3c-2.8-3-6.3-5.4-10-7 C517.1,418.7,513,417.8,508.8,417.8L508.8,417.8z M990.4,442v35.5c0,1.5-1.2,2.6-2.6,2.6h-14.6c-1.5,0-2.6-1.2-2.6-2.6v-31.3 c0-7.3-4.4-12.2-10.7-12.2c-7.8,0-12.9,5.3-12.9,17.3v26.2c0,1.5-1.2,2.6-2.6,2.6h-14.6c-1.5,0-2.6-1.2-2.6-2.6v-56.9 c0-1.5,1.2-2.6,2.6-2.6h14.6c1.5,0,2.6,1.2,2.6,2.6v3.4c2.5-2.5,5.4-4.5,8.7-5.9c3.3-1.3,6.8-2,10.3-1.9 C980.7,416.2,990.4,426.4,990.4,442z M838.3,475.4c0.4,1.2-0.1,2.5-1.3,3c-4.2,2.2-8.9,3.6-15,3.6c-15.5,0-24.9-8.5-24.9-24.8 v-23.4h-8.6c-1.5,0-2.6-1.2-2.6-2.6v-10.5c0-1.5,1.2-2.6,2.6-2.6h8.7v-15.7c0-1.5,1.2-2.6,2.6-2.6h14.6c1.5,0,2.6,1.2,2.6,2.6 v15.7h15.7c1.5,0,2.6,1.2,2.6,2.6v10.5c0,1.5-1.2,2.6-2.6,2.6H817v21.5c0,6.4,3.1,9,8.3,9c2,0,4.4-0.4,6.6-1.2 c1.3-0.6,2.9,0.2,3.4,1.7L838.3,475.4z M756.2,477.6v-56.9c0-1.5,1.1-2.6,2.6-2.6h14.6c1.5,0,2.6,1.2,2.6,2.6v56.9 c0,1.5-1.2,2.6-2.6,2.6h-14.6C757.3,480.1,756.2,478.9,756.2,477.6z M777.6,399.8c0,6.3-4.8,10.9-11.6,10.9 c-6.7,0-11.4-4.7-11.4-10.9c0-6.1,4.8-11.2,11.4-11.2C772.8,388.5,777.6,393.7,777.6,399.8z M746.3,475.3c0.3,1.2-0.2,2.5-1.4,3 c-4.2,2.2-8.9,3.6-15,3.6c-15.5,0-24.9-8.5-24.9-24.8v-23.4h-8.6c-1.5,0-2.6-1.2-2.6-2.6v-10.5c0-1.5,1.2-2.6,2.6-2.6h8.7v-15.7 c0-1.5,1.2-2.6,2.6-2.6h14.6c1.5,0,2.6,1.2,2.6,2.6v15.7h15.7c1.5,0,2.6,1.2,2.6,2.6v10.5c0,1.5-1.2,2.6-2.6,2.6h-15.7v21.5 c0,6.4,3.1,9,8.3,9c2,0,4.4-0.4,6.6-1.2c1.3-0.6,2.9,0.2,3.4,1.7L746.3,475.3L746.3,475.3z M683.4,443.6v33.9 c0,1.5-1.1,2.6-2.6,2.6h-4.2c-1.5,0-2.6-1.2-2.6-2.6v-32.1c0-11.4-6.8-19.1-17-19.1c-12.8,0-21.2,8.7-21.2,24.5v26.7 c0,1.5-1.2,2.6-2.6,2.6H629c-1.5,0-2.6-1.2-2.6-2.6v-55.8c0-1.5,1.1-2.6,2.6-2.6h4.2c1.5,0,2.6,1.2,2.6,2.6v7.6 c2.5-3.8,5.9-6.8,10-8.9c4-2,8.5-3,13.1-2.8C673.6,417.6,683.4,428.2,683.4,443.6L683.4,443.6z M560.3,444.5h42.5 c-1.7-12-10.2-18.5-20.5-18.5c-5.3-0.1-10.4,1.8-14.4,5.2C563.8,434.5,561.1,439.2,560.3,444.5L560.3,444.5z M612.4,451.5h-52.5 c0.9,13.7,11.3,21.9,21.8,21.9c8.1,0,15.5-2.9,20-11.3c0.3-0.5,0.7-0.9,1.2-1.2c0.5-0.2,1.1-0.3,1.7-0.2l3.4,0.7 c1.6,0.4,2.5,2.2,1.8,3.6c-2.5,5.2-6.5,9.5-11.5,12.5c-5,2.9-10.7,4.3-16.5,4c-4.2,0-8.3-0.8-12.1-2.4c-3.8-1.6-7.3-4-10.2-6.9 c-2.9-3-5.1-6.5-6.6-10.4c-1.5-3.9-2.2-8-2-12.1c0-19.5,14.7-32.1,31.6-32.1c16.5,0,29.3,12.2,30,30.3V451.5z M451.9,449.6 c0.1-3.1-0.4-6.1-1.5-9c-1.1-2.9-2.8-5.5-5-7.7c-2.2-2.2-4.7-3.9-7.6-5.1c-2.8-1.2-5.9-1.8-9-1.7c-12.7,0-23.3,9.5-23.3,23.5 c-0.1,3.1,0.4,6.2,1.6,9.1c1.1,2.9,2.8,5.5,5,7.7c2.2,2.2,4.8,4,7.7,5.1c2.9,1.2,6,1.8,9.1,1.7c3.1,0,6.2-0.6,9-1.8 c2.9-1.2,5.4-3,7.6-5.2c2.2-2.2,3.8-4.8,4.9-7.7C451.5,455.7,452,452.6,451.9,449.6z M461.2,449.6c0.1,4.2-0.7,8.4-2.3,12.4 c-1.6,3.9-4,7.5-7,10.5c-3,3-6.6,5.3-10.6,6.9c-4,1.6-8.2,2.3-12.4,2.2c-4.3,0.1-8.5-0.6-12.5-2.1c-4-1.5-7.6-3.9-10.6-6.9 c-3-3-5.4-6.6-7-10.5c-1.6-3.9-2.4-8.2-2.3-12.4c-0.1-4.2,0.7-8.5,2.3-12.4c1.6-3.9,4-7.5,7.1-10.4c3-3,6.7-5.3,10.6-6.8 c4-1.5,8.2-2.2,12.5-2.1C446.8,417.8,461.2,431,461.2,449.6L461.2,449.6z"></path> </g> </g> </svg> 