<svg width="161" height="53" viewBox="0 0 161 53" fill="none" xmlns="http://www.w3.org/2000/svg">
<path fill-rule="evenodd" clip-rule="evenodd" d="M72.3052 23.687C73.7671 23.687 74.506 22.9604 74.506 21.5225H74.49V15.6597H70.9076V20.6377H66.249V3.03418H70.9076V7.71143H74.49V2.18066C74.49 0.727051 73.751 0 72.2892 0H64.7871C63.3735 0 62.6506 0.727051 62.6667 2.18066V21.5225C62.6667 22.9604 63.3735 23.687 64.8032 23.687H72.3052ZM85.7992 23.687H89.4297V0H85.7992V9.76562H80.9317V0H77.3333V23.687H80.9317V13.0522H85.7992V23.687ZM95.9518 0H92.3534V23.687H95.9518V0ZM108.337 15.1069C109.799 15.1069 110.538 14.3643 110.538 12.8945V2.18066C110.538 0.727051 109.799 0 108.337 0H98.9076V23.687H102.506V15.1069H108.337ZM102.506 3.03418H106.908V12.0571H102.506V3.03418ZM122.442 23.687C123.904 23.687 124.627 22.9604 124.627 21.5225V15.8809C124.627 15.0752 124.369 14.4429 123.839 13.9531L116.627 7.26904V2.98682H121.028V7.44287H124.627V2.14893C124.627 0.710938 123.904 0 122.442 0H115.197C113.751 0 113.028 0.727051 113.028 2.18066V7.44287C113.028 8.21729 113.285 8.84912 113.815 9.33887L121.028 16.0547V20.7007H116.627V15.8809H113.028V21.5225C113.028 22.9604 113.751 23.687 115.197 23.687H122.442ZM71.2932 52.605H74.8594L70.2329 28.8862H66.4418L61.7831 52.542V52.605H65.3333L66.0562 48.1172H70.5703L71.2932 52.605ZM68.3052 34.3853L70.0562 45.0674H66.5382L68.3052 34.3853ZM76.8675 52.605H86.3293V49.4443H80.4659V28.9175H76.8675V52.605ZM88.4659 52.605H97.9277V49.4443H92.0643V28.9175H88.4659V52.605ZM103.727 28.9175H100.129V52.605H103.727V28.9175ZM115.309 52.605H118.876L114.249 28.8862H110.458L105.799 52.542V52.605H109.349L110.072 48.1172H114.586L115.309 52.605ZM112.321 34.3853L114.072 45.0674H110.554L112.321 34.3853ZM129.944 52.605H133.092V28.9175H129.59V41.812C129.59 42.2231 129.655 42.792 129.815 43.5186L124.048 28.9175H120.9V52.605H124.402V39.4102C124.402 38.9995 124.337 38.4307 124.177 37.7036L129.944 52.605ZM145.622 52.605C147.084 52.605 147.823 51.8779 147.823 50.4399V44.5776H144.241V49.5552H139.582V31.9517H144.241V36.6289H147.823V31.0986C147.823 29.6445 147.084 28.9175 145.622 28.9175H138.12C136.691 28.9175 135.984 29.6445 135.984 31.0986V50.4399C135.984 51.8779 136.691 52.605 138.12 52.605H145.622ZM150.667 52.605H160.643V49.4761H154.265V42.0493H159.679V38.9678H154.265V32.0625H160.546V28.9175H150.667V52.605ZM49.9598 31.936C50.3293 30.4507 51.6948 29.376 53.2691 29.376C55.1325 29.376 56.6586 30.877 56.6426 32.7261C56.6426 33.6426 56.257 34.48 55.6466 35.0806C55.0361 35.6812 54.1847 36.0601 53.253 36.0601C52.3213 36.0601 51.4699 35.6812 50.8594 35.0806C50.4257 34.6538 50.1044 34.1167 49.9598 33.5005H45.253V37.2456H41.4297V39.5049H45.2048V48.5757H41.4297V53H15.2289V48.5757H11.4056V44.8145H6.69879C6.32932 46.2998 4.96385 47.3745 3.38956 47.3745C1.52611 47.3745 0 45.8892 0 44.04C0 42.207 1.52611 40.7061 3.38956 40.6904C4.96385 40.6904 6.32932 41.749 6.69879 43.25H11.4056V39.4893H15.2289V37.2295H11.4056V28.1909H15.2289V25.9312H11.4056V22.1704H6.68272C6.53815 22.7705 6.21687 23.3237 5.78313 23.7505C5.17268 24.3511 4.32129 24.73 3.38956 24.73C2.45782 24.73 1.60643 24.3511 0.995987 23.7505C0.385544 23.1499 0 22.3125 0 21.396C0 19.5469 1.52611 18.0459 3.38956 18.0615C4.96385 18.0615 6.32932 19.1206 6.69879 20.6216H11.4056V16.8608H15.2289V14.6011H11.4056V5.53076H15.2289V1.18506H41.4137V5.53076H45.237V9.2915H49.9438C50.3133 7.80615 51.6787 6.73145 53.253 6.73145C55.1165 6.73145 56.6426 8.21729 56.6426 10.0659C56.6426 10.9824 56.257 11.8198 55.6466 12.4204C55.0361 13.021 54.1847 13.3999 53.253 13.3999C52.3213 13.3999 51.4699 13.021 50.8594 12.4204C50.4257 11.9937 50.1044 11.4565 49.9598 10.8403H45.253V14.6011H41.4297V16.8765H45.253V25.9155H41.4297V28.1748H45.253V31.936H49.9598ZM53.2691 8.28027C52.7711 8.28027 52.3052 8.48584 51.9839 8.80176C51.6627 9.11768 51.4538 9.57617 51.4538 10.0659C51.4538 10.5557 51.6627 11.0142 51.9839 11.3301C52.3052 11.646 52.7711 11.8516 53.2691 11.8516C53.7671 11.8516 54.2329 11.646 54.5542 11.3301C54.8755 11.0142 55.0843 10.5557 55.0843 10.0659C55.0843 9.57617 54.8755 9.11768 54.5542 8.80176C54.2329 8.48584 53.7671 8.28027 53.2691 8.28027ZM3.38956 23.1816C3.88756 23.1816 4.33736 22.9761 4.6747 22.6602C5.01205 22.3281 5.20482 21.8857 5.20482 21.396C5.20482 20.4004 4.40161 19.6104 3.38956 19.6104C2.37752 19.6104 1.5743 20.4004 1.5743 21.396C1.5743 21.8857 1.78313 22.3442 2.10442 22.6602C2.4257 22.9761 2.89157 23.1816 3.38956 23.1816ZM3.38956 45.8257C3.88756 45.8257 4.33736 45.6206 4.6747 45.3042C5.01205 44.9883 5.20482 44.5459 5.20482 44.04C5.20482 43.5503 4.99599 43.0923 4.6747 42.7759C4.35341 42.46 3.88756 42.2544 3.38956 42.2544C2.89157 42.2544 2.4257 42.46 2.10442 42.7759C1.78313 43.0923 1.5743 43.5503 1.5743 44.04C1.5743 44.5303 1.78313 44.9883 2.10442 45.3042C2.4257 45.6206 2.89157 45.8257 3.38956 45.8257ZM37.6225 13.0366H43.6787V7.09521H37.6225V13.0366ZM19.0522 18.4092H12.996V24.3667H19.0522V18.4092ZM19.0522 41.0693H12.996V47.0269H19.0522V41.0693ZM16.8032 51.0405H39.8554H39.9197V48.1646H36.0964V39.0942H39.9036V36.8345H36.0803V27.7642H39.8876V25.5044H36.0643V16.4497H39.8715V14.1904H36.0482V5.11963H39.8554V2.32275H16.8032V5.11963H20.6265V14.1904H16.8032V16.4658H20.6265V25.5205H16.8032V27.7798H20.6265V36.8501H16.8032V39.1099H20.6265V48.1802H16.8032V51.0405ZM37.6225 35.6968H43.6787V29.7393H37.6225V35.6968ZM53.2691 34.5117C53.7671 34.5117 54.2329 34.3062 54.5542 33.9902C54.8755 33.6582 55.0843 33.2158 55.0843 32.7261C55.0843 32.2363 54.8755 31.7778 54.5542 31.4619C54.2329 31.146 53.7671 30.9404 53.2691 30.9404C52.7711 30.9404 52.3052 31.146 51.9839 31.4619C51.6627 31.7778 51.4538 32.2363 51.4538 32.7261C51.4538 33.2158 51.6627 33.6743 51.9839 33.9902C52.3052 34.3062 52.7711 34.5117 53.2691 34.5117Z" fill="white"/>
</svg>
