<?xml version="1.0" encoding="UTF-8"?> <svg xmlns="http://www.w3.org/2000/svg" xmlns:xlink="http://www.w3.org/1999/xlink" version="1.1" x="0" y="0" width="600" height="300" viewBox="0, 0, 200, 100"><g id="Layer_1"><g><path d="M10.66,66.607 L10.66,76.007 L5.994,76.007 L5.994,50.859 L10.66,50.859 L10.66,53.153 C11.925,51.412 13.971,50.41 16.122,50.478 C20.638,50.478 24.09,53.994 24.09,59.727 L24.09,59.765 C24.09,65.614 20.674,69.283 16.084,69.283 C13.949,69.324 11.927,68.326 10.66,66.607 z M19.16,59.918 L19.16,59.65 C19.16,56.096 17.452,54.338 14.835,54.338 C12.104,54.338 10.434,56.593 10.434,59.803 L10.434,60.147 C10.434,63.32 12.026,65.423 14.835,65.423 C17.375,65.423 19.157,63.472 19.157,59.918 z M31.417,54.185 C31.909,52.121 33.237,50.669 36.537,50.669 L36.917,50.669 L36.917,55.217 L35.058,55.217 C32.213,55.217 31.417,56.517 31.417,59.65 L31.417,68.899 L26.716,68.899 L26.716,50.859 L31.417,50.859 L31.417,54.184 z M37.298,59.918 C37.298,54.418 41.091,50.518 46.516,50.518 C51.903,50.518 55.697,54.418 55.697,59.918 C55.799,62.417 54.852,64.844 53.087,66.615 C51.321,68.386 48.896,69.339 46.397,69.245 C41.014,69.245 37.296,65.423 37.296,59.918 z M50.917,60.034 L50.917,59.88 C50.917,56.44 49.248,54.375 46.518,54.375 C43.748,54.375 42.078,56.44 42.078,59.88 L42.078,60.033 C42.078,63.396 43.71,65.385 46.443,65.385 C49.208,65.385 50.916,63.399 50.916,60.033 z M63.172,68.899 C59.72,68.707 58.96,67.099 58.884,64.121 L58.884,54.681 L56.342,54.681 L56.342,50.859 L58.884,50.859 L58.884,47.459 L63.474,44.859 L63.474,50.859 L67.002,50.859 L67.002,54.681 L63.437,54.681 L63.437,63.664 C63.386,64.02 63.505,64.379 63.758,64.634 C64.011,64.889 64.369,65.011 64.726,64.964 L66.812,64.964 L66.812,68.899 L63.172,68.899 z M68.072,59.992 C68.072,54.411 71.789,50.513 77.025,50.513 C82.45,50.513 85.674,54.145 85.674,59.84 L85.674,61.445 L72.696,61.445 C72.738,62.588 73.243,63.664 74.094,64.428 C74.945,65.192 76.07,65.577 77.211,65.496 C79.867,65.496 81.004,64.235 81.573,62.706 L85.673,64.158 C84.421,67.063 81.802,69.203 77.136,69.203 C71.558,69.206 68.067,65.614 68.067,59.999 z M72.623,58.157 L80.933,58.157 C80.743,55.52 79.339,54.182 76.91,54.182 C74.638,54.124 72.734,55.889 72.619,58.159 z M87.383,64.121 C87.383,60.069 90.383,59.152 94.401,58.272 C97.701,57.622 99.371,57.472 99.487,56.472 L99.487,56.287 C99.487,55.217 98.537,54.222 96.109,54.222 C93.682,54.222 92.543,55.445 92.429,57.051 L92.429,57.319 L87.763,57.319 C87.914,53.23 91.101,50.519 96.146,50.519 C101.004,50.519 103.964,52.659 103.964,57.552 L103.964,68.899 L99.448,68.899 L99.448,66.455 C98.168,68.407 95.933,69.516 93.604,69.355 C89.77,69.359 87.38,67.257 87.38,64.123 z M99.483,61.445 L99.483,59.915 C98.15,60.516 96.748,60.953 95.31,61.215 C93.489,61.674 92.122,62.286 92.122,63.891 C92.122,65.115 93.072,65.956 94.702,65.956 C96.939,65.958 99.368,64.811 99.482,61.447 z M111.927,53.799 C112.791,51.692 114.89,50.36 117.163,50.474 C121.071,50.474 123.384,53.111 123.384,58.079 L123.384,68.899 L118.685,68.899 L118.685,58.35 C118.685,55.827 117.738,54.528 115.536,54.528 C113.299,54.528 111.932,56.364 111.932,59.728 L111.932,68.899 L107.231,68.899 L107.231,50.859 L111.932,50.859 L111.932,53.799 z M141.296,59.918 C141.296,54.376 144.824,50.478 149.945,50.478 C154.878,50.478 157.988,53.994 157.988,59.727 L157.988,60.415 L143.154,60.415 C143.268,64.658 145.773,67.677 149.984,67.677 C153.854,67.677 155.751,65.69 156.583,63.435 L158.176,64.008 C157.191,66.799 154.688,69.284 149.982,69.284 C144.559,69.283 141.296,65.385 141.296,59.918 z M143.154,58.924 L156.016,58.924 C155.939,54.605 153.626,52.081 149.908,52.081 C146.113,52.081 143.458,54.799 143.154,58.924 z M161.368,59.88 C161.368,54.26 164.895,50.48 170.132,50.48 C174.011,50.263 177.457,52.937 178.212,56.748 L176.354,57.168 C175.903,54.116 173.213,51.901 170.132,52.046 C165.882,52.046 163.264,55.104 163.264,59.805 L163.264,59.958 C163.264,64.546 165.844,67.679 170.094,67.679 C173.213,67.852 175.948,65.613 176.393,62.52 L178.253,62.979 C177.496,66.827 174.01,69.522 170.096,69.286 C164.895,69.283 161.368,65.423 161.368,59.88 z M179.96,65.919 L181.402,64.925 C182.955,66.791 185.274,67.846 187.702,67.792 C190.471,67.792 192.217,66.415 192.217,64.198 C192.217,61.906 189.863,61.217 186.717,60.453 C183.074,59.611 180.684,58.732 180.684,55.444 C180.684,52.578 183.227,50.476 186.684,50.476 C189.354,50.467 191.897,51.61 193.665,53.61 L192.298,54.68 C190.902,52.997 188.832,52.018 186.645,52.005 C184.105,52.005 182.473,53.343 182.473,55.369 C182.473,57.624 184.331,58.082 187.594,58.847 C190.743,59.573 194.007,60.682 194.007,64.007 C194.007,67.218 191.507,69.321 187.671,69.321 C184.71,69.451 181.859,68.193 179.96,65.919 z M142.46,45.662 L133.852,45.662 L133.852,68.992 L131.902,68.992 L131.902,45.662 L123.257,45.662 L123.257,43.962 L142.462,43.962 L142.462,45.662 z" fill="#009FD4"></path><path d="M134.593,31.834 L132.993,31.834 L132.993,23.993 L134.593,23.993 L134.593,31.834 z M142.872,37.583 L142.072,36.183 L148.811,32.262 L149.611,33.662 z M139.501,33.59 L138.113,32.783 L142.003,25.993 L143.393,26.801 z" fill="#EE751C"></path></g></g></svg> 