<svg xmlns="http://www.w3.org/2000/svg" role="img" viewBox="111.45 162.82 54.60 49.73"><defs><clipPath id="d"><path d="M.5.8164h54.75v48.75H.5zm0 0"/></clipPath><clipPath id="c"><path d="M0 0h150v51H0z"/></clipPath><filter id="a" width="100%" height="100%" x="0%" y="0%"><feColorMatrix color-interpolation-filters="sRGB" values="0 0 0 0 1 0 0 0 0 1 0 0 0 0 1 0 0 0 1 0"/></filter><mask id="b"><g filter="url(#a)"><path fill-opacity=".42" d="M-37.5-37.5h450v450h-450z"/></g></mask></defs><g mask="url(#b)"><g clip-path="url(#c)" transform="translate(112 162)"><g clip-path="url(#d)"><path fill-rule="evenodd" d="M67.53125 22.60547c1.35547 0 2.03906-.66797 2.03906-1.99219h-.01562v-5.39062h-3.32031v4.57812h-4.31641V3.60938h4.3164v4.30078h3.32032V2.82422c0-1.33594-.6836-2.00781-2.03906-2.00781H60.5625c-1.3086 0-1.97656.67187-1.96484 2.0078v17.78907c0 1.32422.65625 1.99219 1.98047 1.99219zm12.5039 0h3.36329V.8164h-3.36328v8.98437h-4.51172V.81641H72.1914v21.78906h3.33203v-9.78125h4.51172zM89.44532.8164h-3.33594v21.78906h3.33594zm11.47656 13.89843c1.35157 0 2.03907-.68359 2.03907-2.03515V2.82422c0-1.33594-.6875-2.00781-2.03906-2.00781h-8.73829v21.78906h3.33204v-7.89063zM95.51564 3.60937h4.08203v8.30079h-4.08204zm18.47656 18.9961c1.35547 0 2.02344-.66797 2.02344-1.99219v-5.1875c0-.74219-.23829-1.32422-.73047-1.77344l-6.6836-6.14843V3.5664h4.07813v4.09765h3.33594v-4.8711c0-1.3203-.66797-1.97655-2.02344-1.97655h-6.71485c-1.33984 0-2.01171.67187-2.01171 2.0078v4.83985c0 .71094.23828 1.29297.73046 1.74219l6.6836 6.17969v4.27343h-4.07813v-4.43359h-3.33594v5.1875c0 1.32422.67188 1.99219 2.01172 1.99219zM66.59375 49.20312h3.30469l-4.28906-21.8164h-3.51172l-4.31641 21.76172v.05468h3.28906l.67188-4.125h4.17968zm-2.76953-16.7578l1.6211 9.82812H62.1875zm7.9336 16.7578h8.76952v-2.90624h-5.43359V27.41796h-3.33594zm10.75 0h8.76562v-2.90624h-5.4336V27.41796h-3.33203zm14.14062-21.78515H93.3164v21.78515h3.33203zm10.73437 21.78515h3.30469l-4.28906-21.8164h-3.51172l-4.3164 21.76172v.05468h3.28906l.66796-4.125h4.1836zm-2.76953-16.7578l1.6211 9.82812h-3.25782zm16.32813 16.7578h2.91796V27.41797h-3.24609v11.85937c0 .37891.0625.90235.21094 1.57032l-5.34375-13.4297h-2.91797v21.78516h3.2461V37.06641c0-.375-.0625-.89844-.21094-1.56641zm14.53125 0c1.35156 0 2.03906-.66796 2.03906-1.98828v-5.39453h-3.32031v4.57813H129.875v-16.1914h4.3164v4.30468h3.32032v-5.08984c0-1.33594-.6875-2.00391-2.03906-2.00391h-6.95313c-1.32422 0-1.98047.66797-1.98047 2.0039v17.79297c0 1.32032.65625 1.98828 1.98047 1.98828zm4.67187 0h9.2461v-2.875h-5.91016V39.4961h5.01562v-2.83593h-5.01562v-6.35157h5.82031v-2.89062h-9.15625zM46.82422 30.19141c.34375-1.36329 1.60937-2.35157 3.0664-2.35157 1.72657 0 3.14063 1.37891 3.125 3.08204 0 .83984-.35546 1.61328-.92187 2.16406-.5664.55078-1.35547.90234-2.21875.90234s-1.65234-.35156-2.21875-.90234c-.39844-.39453-.69922-.88672-.83203-1.45313h-4.35938v3.44532h-3.54297v2.07812h3.4961V45.5h-3.4961v4.0664H14.64063V45.5h-3.54297v-3.46094H6.73438c-.33985 1.36719-1.60547 2.35547-3.06641 2.35547-1.72656 0-3.14063-1.36719-3.14063-3.0664 0-1.6875 1.41407-3.06641 3.14063-3.08204 1.46094 0 2.72656.97266 3.0664 2.35547h4.36329v-3.46093h3.54297V35.0625h-3.54297V26.75h3.54297v-2.07813h-3.54297v-3.46093h-4.375c-.13672.55078-.4336 1.0625-.83594 1.45312-.5664.55078-1.35547.90235-2.21875.90235s-1.65234-.35157-2.21484-.90235C.88672 22.11328.52733 21.33984.52733 20.5c0-1.70313 1.41407-3.08203 3.14063-3.07031 1.46094 0 2.72656.97656 3.0664 2.35547h4.36329v-3.45704h3.54297V14.25h-3.54297V5.90625h3.54297v-3.9961h24.26562v3.9961h3.54297v3.45703h4.35937C47.15234 8 48.41797 7.01172 49.875 7.01172c1.72656 0 3.14063 1.36328 3.14063 3.0664 0 .83985-.35547 1.61329-.92188 2.16407-.5664.55468-1.35547.90234-2.21875.90234s-1.65234-.34765-2.21875-.90234c-.39844-.39063-.69922-.88672-.83203-1.45313h-4.35938V14.25h-3.54297v2.08984h3.54297v8.31641h-3.54297v2.07813h3.54297v3.45703zm3.0664-21.75782c-.46093 0-.89453.19141-1.1914.48047-.29688.28907-.49219.71094-.49219 1.16407 0 .44921.19531.87109.49219 1.16015.29687.29297.73047.48047 1.1914.48047.46094 0 .89454-.1875 1.19141-.48047.29688-.28906.49219-.71094.49219-1.16015 0-.45313-.19531-.875-.49219-1.16407-.29687-.28906-.73047-.48047-1.1914-.48047zM3.66797 22.14062c.46484 0 .8789-.1875 1.1914-.48046.3125-.3047.4922-.71094.4922-1.16016 0-.91797-.7422-1.64453-1.6836-1.64453-.9375 0-1.67969.72656-1.67969 1.64453 0 .44922.1914.8711.49219 1.16016.29687.29296.72656.48046 1.1875.48046zm0 20.82813c.46484 0 .8789-.1875 1.1914-.48047.3125-.28906.4922-.69531.4922-1.16016 0-.45312-.19141-.875-.4922-1.16406-.29687-.28906-.72656-.48047-1.1914-.48047-.46094 0-.89063.19141-1.1875.48047-.30078.28907-.49219.71094-.49219 1.16407 0 .44921.1914.87109.49219 1.16015.29687.29297.72656.48047 1.1875.48047zm31.72265-30.16016h5.61329V7.34375h-5.61328zM18.1836 17.75h-5.61328v5.48047h5.61328zm0 20.84375h-5.61328v5.48047h5.61328zm-2.08593 9.17188h21.42187v-2.64454h-3.54297v-8.34375h3.52735v-2.07812h-3.53907v-8.34375h3.52735v-2.07813h-3.54297v-8.32812h3.52734v-2.07813H33.9336V5.52734h3.52735V2.95313H16.09766v2.57421h3.54296v8.34375h-3.54296v2.09375h3.54296v8.32813h-3.54296v2.07812h3.54296v8.34375h-3.54296v2.07813h3.54296v8.34375h-3.54296zm19.29296-14.11329h5.61329v-5.48047h-5.61328zm14.5-1.08984c.46094 0 .89454-.1875 1.19141-.48047.29688-.30469.49219-.71094.49219-1.16016 0-.45312-.19531-.875-.49219-1.16406-.29687-.29297-.73047-.48047-1.1914-.48047-.46094 0-.89454.1875-1.19141.48047-.29688.28907-.49219.71094-.49219 1.16407 0 .44921.19531.87109.49219 1.16015.29687.29297.73047.48047 1.1914.48047zm0 0"/></g></g></g></svg>