<?xml version="1.0" encoding="UTF-8"?> <svg xmlns="http://www.w3.org/2000/svg" width="1200" height="675" viewBox="0 0 1200 675" fill="none"><rect width="1200" height="675" fill="#332D37"></rect><rect x="970.398" y="541.315" width="113.602" height="93.5542" rx="4.77318" fill="#322D36" stroke="white" stroke-width="2.86391"></rect><path d="M1000.52 584.115C1003.59 584.115 1004.95 582.466 1004.95 580.558C1004.95 576.297 998.282 577.62 998.282 575.472C998.282 574.63 999.038 574.046 1000.21 574.046C1001.41 574.046 1002.63 574.458 1003.54 575.369L1004.67 573.874C1003.63 572.843 1002.17 572.259 1000.4 572.259C997.87 572.259 996.22 573.719 996.22 575.627C996.22 579.837 1002.89 578.342 1002.89 580.747C1002.89 581.521 1002.25 582.328 1000.6 582.328C999.004 582.328 997.749 581.572 996.976 580.73L995.842 582.294C996.873 583.359 998.402 584.115 1000.52 584.115ZM1011.06 583.909C1014.64 583.909 1017.04 581.555 1017.04 578.17C1017.04 574.819 1014.64 572.448 1011.05 572.448H1006.78V583.909H1011.06ZM1011.05 582.139H1008.79V574.218H1011.06C1013.61 574.218 1014.98 575.97 1014.98 578.17C1014.98 580.352 1013.54 582.139 1011.05 582.139ZM1028.93 584.115C1031.23 584.115 1032.66 582.895 1033.53 581.521L1031.82 580.662C1031.27 581.607 1030.15 582.328 1028.93 582.328C1026.66 582.328 1024.98 580.576 1024.98 578.187C1024.98 575.764 1026.66 574.046 1028.93 574.046C1030.15 574.046 1031.27 574.75 1031.82 575.713L1033.52 574.819C1032.68 573.444 1031.23 572.259 1028.93 572.259C1025.54 572.259 1022.91 574.647 1022.91 578.187C1022.91 581.71 1025.54 584.115 1028.93 584.115ZM1041.97 583.909V578.393C1041.97 576.177 1040.35 575.403 1038.49 575.403C1037.17 575.403 1035.97 575.816 1035.01 576.744L1035.76 577.998C1036.47 577.276 1037.29 576.933 1038.22 576.933C1039.35 576.933 1040.16 577.517 1040.16 578.479V579.716C1039.54 579.012 1038.6 578.651 1037.46 578.651C1036.11 578.651 1034.59 579.441 1034.59 581.366C1034.59 583.187 1036.12 584.115 1037.46 584.115C1038.56 584.115 1039.54 583.72 1040.16 582.998V583.909H1041.97ZM1038.18 582.878C1037.17 582.878 1036.4 582.294 1036.4 581.383C1036.4 580.49 1037.17 579.888 1038.18 579.888C1038.96 579.888 1039.73 580.18 1040.16 580.747V582.019C1039.73 582.586 1038.96 582.878 1038.18 582.878ZM1046.11 583.909V578.256C1046.47 577.654 1047.48 577.139 1048.26 577.139C1048.48 577.139 1048.65 577.156 1048.81 577.19V575.403C1047.74 575.403 1046.74 576.022 1046.11 576.812V575.61H1044.3V583.909H1046.11ZM1057.91 583.909V572.448H1056.1V576.761C1055.45 575.867 1054.49 575.403 1053.44 575.403C1051.31 575.403 1049.76 577.07 1049.76 579.751C1049.76 582.5 1051.33 584.115 1053.44 584.115C1054.52 584.115 1055.47 583.6 1056.1 582.775V583.909H1057.91ZM1053.97 582.517C1052.53 582.517 1051.62 581.366 1051.62 579.751C1051.62 578.153 1052.53 577.001 1053.97 577.001C1054.81 577.001 1055.71 577.5 1056.1 578.118V581.4C1055.71 582.019 1054.81 582.517 1053.97 582.517ZM1011.17 600.909V595.032C1011.17 593.331 1010.27 592.403 1008.49 592.403C1007.18 592.403 1006.12 593.074 1005.57 593.727V589.448H1003.76V600.909H1005.57V595.101C1005.98 594.551 1006.77 594.001 1007.7 594.001C1008.71 594.001 1009.36 594.379 1009.36 595.685V600.909H1011.17ZM1017.27 601.115C1019.92 601.115 1021.54 599.122 1021.54 596.751C1021.54 594.362 1019.92 592.403 1017.27 592.403C1014.63 592.403 1013.01 594.362 1013.01 596.751C1013.01 599.122 1014.63 601.115 1017.27 601.115ZM1017.27 599.517C1015.75 599.517 1014.89 598.229 1014.89 596.751C1014.89 595.29 1015.75 594.001 1017.27 594.001C1018.82 594.001 1019.66 595.29 1019.66 596.751C1019.66 598.229 1018.82 599.517 1017.27 599.517ZM1025.18 600.909V589.448H1023.38V600.909H1025.18ZM1035.17 600.909V589.448H1033.37V593.761C1032.71 592.867 1031.75 592.403 1030.7 592.403C1028.57 592.403 1027.02 594.07 1027.02 596.751C1027.02 599.5 1028.59 601.115 1030.7 601.115C1031.78 601.115 1032.73 600.6 1033.37 599.775V600.909H1035.17ZM1031.23 599.517C1029.79 599.517 1028.88 598.366 1028.88 596.751C1028.88 595.153 1029.79 594.001 1031.23 594.001C1032.08 594.001 1032.97 594.5 1033.37 595.118V598.4C1032.97 599.019 1032.08 599.517 1031.23 599.517ZM1041.36 601.115C1042.66 601.115 1043.88 600.686 1044.72 599.895L1043.9 598.71C1043.3 599.311 1042.35 599.638 1041.53 599.638C1039.97 599.638 1039.04 598.589 1038.9 597.352H1045.29V596.905C1045.29 594.294 1043.71 592.403 1041.22 592.403C1038.76 592.403 1037.01 594.345 1037.01 596.751C1037.01 599.38 1038.85 601.115 1041.36 601.115ZM1043.56 596.063H1038.88C1038.95 595.067 1039.67 593.881 1041.2 593.881C1042.83 593.881 1043.5 595.084 1043.56 596.063ZM1048.88 600.909V595.256C1049.24 594.654 1050.25 594.139 1051.02 594.139C1051.25 594.139 1051.42 594.156 1051.57 594.19V592.403C1050.51 592.403 1049.51 593.022 1048.88 593.812V592.61H1047.07V600.909H1048.88Z" fill="white"></path><rect x="799.519" y="541.315" width="113.602" height="93.5542" rx="4.77318" fill="#322D36" stroke="white" stroke-width="2.86391"></rect><path d="M845.2 583.909V572.448H843.189V577.122H837.227V572.448H835.216V583.909H837.227V578.892H843.189V583.909H845.2ZM851.913 583.909C855.487 583.909 857.893 581.555 857.893 578.17C857.893 574.819 855.487 572.448 851.896 572.448H847.634V583.909H851.913ZM851.896 582.139H849.645V574.218H851.913C854.456 574.218 855.831 575.97 855.831 578.17C855.831 580.352 854.387 582.139 851.896 582.139ZM871.742 583.909V572.448H868.906L865.796 580.318L862.669 572.448H859.834V583.909H861.844V575.06L865.367 583.909H866.226L869.731 575.06V583.909H871.742ZM876.192 583.909V572.448H874.181V583.909H876.192ZM821.955 601.115C823.587 601.115 824.549 600.411 825.134 599.638L823.948 598.521C823.484 599.174 822.848 599.517 822.041 599.517C820.546 599.517 819.532 598.366 819.532 596.751C819.532 595.136 820.546 594.001 822.041 594.001C822.848 594.001 823.484 594.311 823.948 594.964L825.134 593.881C824.549 593.091 823.587 592.403 821.955 592.403C819.446 592.403 817.676 594.242 817.676 596.751C817.676 599.26 819.446 601.115 821.955 601.115ZM830.496 601.115C833.142 601.115 834.757 599.122 834.757 596.751C834.757 594.362 833.142 592.403 830.496 592.403C827.849 592.403 826.234 594.362 826.234 596.751C826.234 599.122 827.849 601.115 830.496 601.115ZM830.496 599.517C828.966 599.517 828.107 598.229 828.107 596.751C828.107 595.29 828.966 594.001 830.496 594.001C832.042 594.001 832.884 595.29 832.884 596.751C832.884 598.229 832.042 599.517 830.496 599.517ZM844.023 600.909V595.067C844.023 593.366 843.129 592.403 841.342 592.403C840.036 592.403 838.954 593.074 838.404 593.727V592.61H836.6V600.909H838.404V595.101C838.833 594.551 839.624 594.001 840.535 594.001C841.548 594.001 842.219 594.414 842.219 595.72V600.909H844.023ZM853.789 600.909V595.067C853.789 593.366 852.896 592.403 851.109 592.403C849.803 592.403 848.72 593.074 848.17 593.727V592.61H846.366V600.909H848.17V595.101C848.6 594.551 849.39 594.001 850.301 594.001C851.315 594.001 851.985 594.414 851.985 595.72V600.909H853.789ZM859.981 601.115C861.287 601.115 862.507 600.686 863.349 599.895L862.525 598.71C861.923 599.311 860.978 599.638 860.153 599.638C858.59 599.638 857.662 598.589 857.524 597.352H863.916V596.905C863.916 594.294 862.335 592.403 859.844 592.403C857.387 592.403 855.634 594.345 855.634 596.751C855.634 599.38 857.473 601.115 859.981 601.115ZM862.181 596.063H857.507C857.576 595.067 858.297 593.881 859.827 593.881C861.459 593.881 862.129 595.084 862.181 596.063ZM869.478 601.115C871.11 601.115 872.072 600.411 872.657 599.638L871.471 598.521C871.007 599.174 870.371 599.517 869.564 599.517C868.069 599.517 867.055 598.366 867.055 596.751C867.055 595.136 868.069 594.001 869.564 594.001C870.371 594.001 871.007 594.311 871.471 594.964L872.657 593.881C872.072 593.091 871.11 592.403 869.478 592.403C866.969 592.403 865.199 594.242 865.199 596.751C865.199 599.26 866.969 601.115 869.478 601.115ZM876.764 601.115C877.589 601.115 878.122 600.875 878.448 600.583L878.019 599.208C877.881 599.363 877.572 599.517 877.228 599.517C876.713 599.517 876.438 599.088 876.438 598.521V594.173H878.122V592.61H876.438V590.341H874.633V592.61H873.259V594.173H874.633V598.967C874.633 600.359 875.355 601.115 876.764 601.115ZM883.506 601.115C886.152 601.115 887.767 599.122 887.767 596.751C887.767 594.362 886.152 592.403 883.506 592.403C880.86 592.403 879.244 594.362 879.244 596.751C879.244 599.122 880.86 601.115 883.506 601.115ZM883.506 599.517C881.977 599.517 881.117 598.229 881.117 596.751C881.117 595.29 881.977 594.001 883.506 594.001C885.052 594.001 885.894 595.29 885.894 596.751C885.894 598.229 885.052 599.517 883.506 599.517ZM891.414 600.909V595.256C891.775 594.654 892.789 594.139 893.562 594.139C893.785 594.139 893.957 594.156 894.112 594.19V592.403C893.046 592.403 892.05 593.022 891.414 593.812V592.61H889.61V600.909H891.414Z" fill="white"></path><rect x="628.639" y="541.315" width="113.602" height="93.5542" rx="4.77318" fill="#322D36" stroke="white" stroke-width="2.86391"></rect><path d="M656.901 583.909L654.083 579.407C655.475 579.184 656.815 578.067 656.815 576.039C656.815 573.908 655.32 572.448 653.052 572.448H648.017V583.909H650.028V579.631H652.038L654.564 583.909H656.901ZM652.794 577.861H650.028V574.218H652.794C653.929 574.218 654.753 574.922 654.753 576.022C654.753 577.139 653.929 577.861 652.794 577.861ZM660.8 584.115C663.017 584.115 664.667 582.878 664.667 580.266V572.448H662.656V580.249C662.656 581.486 661.866 582.328 660.646 582.328C659.769 582.328 659.134 581.882 658.687 581.366L657.742 582.895C658.566 583.755 659.615 584.115 660.8 584.115ZM673.85 583.909V581.314H675.379V579.545H673.85V572.448H671.083L666.375 579.699V581.314H671.839V583.909H673.85ZM671.839 579.545H668.351L671.839 574.252V579.545ZM681.085 584.115C683.646 584.115 685.467 582.603 685.467 580.232C685.467 577.878 683.732 576.537 681.79 576.537C680.69 576.537 679.762 576.984 679.195 577.517V574.218H684.694V572.448H677.185V578.84L678.611 579.252C679.35 578.565 680.157 578.273 681.12 578.273C682.529 578.273 683.422 579.081 683.422 580.301C683.422 581.435 682.529 582.328 681.068 582.328C679.797 582.328 678.748 581.847 677.992 580.954L676.841 582.345C677.769 583.428 679.126 584.115 681.085 584.115ZM699.668 583.909V582.139H693.826V578.943H699.548V577.173H693.826V574.218H699.668V572.448H691.815V583.909H699.668ZM706.475 583.909V574.218H709.946V572.448H700.994V574.218H704.465V583.909H706.475ZM721.633 583.909V572.448H719.623V577.122H713.66V572.448H711.65V583.909H713.66V578.892H719.623V583.909H721.633ZM651.075 601.115C652.707 601.115 653.67 600.411 654.254 599.638L653.068 598.521C652.604 599.174 651.969 599.517 651.161 599.517C649.666 599.517 648.652 598.366 648.652 596.751C648.652 595.136 649.666 594.001 651.161 594.001C651.969 594.001 652.604 594.311 653.068 594.964L654.254 593.881C653.67 593.091 652.707 592.403 651.075 592.403C648.566 592.403 646.796 594.242 646.796 596.751C646.796 599.26 648.566 601.115 651.075 601.115ZM659.616 601.115C662.262 601.115 663.878 599.122 663.878 596.751C663.878 594.362 662.262 592.403 659.616 592.403C656.97 592.403 655.355 594.362 655.355 596.751C655.355 599.122 656.97 601.115 659.616 601.115ZM659.616 599.517C658.087 599.517 657.228 598.229 657.228 596.751C657.228 595.29 658.087 594.001 659.616 594.001C661.163 594.001 662.005 595.29 662.005 596.751C662.005 598.229 661.163 599.517 659.616 599.517ZM673.143 600.909V595.067C673.143 593.366 672.25 592.403 670.463 592.403C669.157 592.403 668.074 593.074 667.524 593.727V592.61H665.72V600.909H667.524V595.101C667.954 594.551 668.744 594.001 669.655 594.001C670.669 594.001 671.339 594.414 671.339 595.72V600.909H673.143ZM682.91 600.909V595.067C682.91 593.366 682.016 592.403 680.229 592.403C678.923 592.403 677.84 593.074 677.291 593.727V592.61H675.486V600.909H677.291V595.101C677.72 594.551 678.511 594.001 679.421 594.001C680.435 594.001 681.105 594.414 681.105 595.72V600.909H682.91ZM689.102 601.115C690.408 601.115 691.628 600.686 692.47 599.895L691.645 598.71C691.043 599.311 690.098 599.638 689.274 599.638C687.71 599.638 686.782 598.589 686.644 597.352H693.037V596.905C693.037 594.294 691.456 592.403 688.964 592.403C686.507 592.403 684.754 594.345 684.754 596.751C684.754 599.38 686.593 601.115 689.102 601.115ZM691.301 596.063H686.627C686.696 595.067 687.418 593.881 688.947 593.881C690.579 593.881 691.25 595.084 691.301 596.063ZM698.598 601.115C700.23 601.115 701.193 600.411 701.777 599.638L700.591 598.521C700.127 599.174 699.492 599.517 698.684 599.517C697.189 599.517 696.175 598.366 696.175 596.751C696.175 595.136 697.189 594.001 698.684 594.001C699.492 594.001 700.127 594.311 700.591 594.964L701.777 593.881C701.193 593.091 700.23 592.403 698.598 592.403C696.089 592.403 694.319 594.242 694.319 596.751C694.319 599.26 696.089 601.115 698.598 601.115ZM705.885 601.115C706.709 601.115 707.242 600.875 707.569 600.583L707.139 599.208C707.001 599.363 706.692 599.517 706.349 599.517C705.833 599.517 705.558 599.088 705.558 598.521V594.173H707.242V592.61H705.558V590.341H703.754V592.61H702.379V594.173H703.754V598.967C703.754 600.359 704.476 601.115 705.885 601.115ZM712.626 601.115C715.272 601.115 716.888 599.122 716.888 596.751C716.888 594.362 715.272 592.403 712.626 592.403C709.98 592.403 708.365 594.362 708.365 596.751C708.365 599.122 709.98 601.115 712.626 601.115ZM712.626 599.517C711.097 599.517 710.238 598.229 710.238 596.751C710.238 595.29 711.097 594.001 712.626 594.001C714.173 594.001 715.015 595.29 715.015 596.751C715.015 598.229 714.173 599.517 712.626 599.517ZM720.534 600.909V595.256C720.895 594.654 721.909 594.139 722.682 594.139C722.906 594.139 723.078 594.156 723.232 594.19V592.403C722.167 592.403 721.17 593.022 720.534 593.812V592.61H718.73V600.909H720.534Z" fill="white"></path><rect x="457.759" y="541.315" width="113.602" height="93.5542" rx="4.77318" fill="#322D36" stroke="white" stroke-width="2.86391"></rect><path d="M496.96 584.115C499.177 584.115 500.826 582.878 500.826 580.266V572.448H498.816V580.249C498.816 581.486 498.026 582.328 496.806 582.328C495.929 582.328 495.293 581.882 494.847 581.366L493.902 582.895C494.726 583.755 495.775 584.115 496.96 584.115ZM508.016 583.909V574.218H511.487V572.448H502.535V574.218H506.006V583.909H508.016ZM522.394 583.909L517.892 572.448H515.383L510.881 583.909H513.167L514.009 581.693H519.267L520.109 583.909H522.394ZM518.7 579.923H514.576L516.638 574.458L518.7 579.923ZM528.541 584.133C530.517 584.133 532.132 583.291 533.249 582.036V577.758H527.819V579.527H531.256V581.297C530.74 581.796 529.709 582.328 528.541 582.328C526.272 582.328 524.588 580.576 524.588 578.187C524.588 575.764 526.272 574.046 528.541 574.046C529.812 574.046 530.895 574.716 531.513 575.575L533.146 574.63C532.235 573.324 530.774 572.259 528.541 572.259C525.207 572.259 522.526 574.579 522.526 578.187C522.526 581.778 525.207 584.133 528.541 584.133ZM480.195 601.115C481.828 601.115 482.79 600.411 483.374 599.638L482.189 598.521C481.725 599.174 481.089 599.517 480.281 599.517C478.786 599.517 477.773 598.366 477.773 596.751C477.773 595.136 478.786 594.001 480.281 594.001C481.089 594.001 481.725 594.311 482.189 594.964L483.374 593.881C482.79 593.091 481.828 592.403 480.195 592.403C477.687 592.403 475.917 594.242 475.917 596.751C475.917 599.26 477.687 601.115 480.195 601.115ZM488.736 601.115C491.383 601.115 492.998 599.122 492.998 596.751C492.998 594.362 491.383 592.403 488.736 592.403C486.09 592.403 484.475 594.362 484.475 596.751C484.475 599.122 486.09 601.115 488.736 601.115ZM488.736 599.517C487.207 599.517 486.348 598.229 486.348 596.751C486.348 595.29 487.207 594.001 488.736 594.001C490.283 594.001 491.125 595.29 491.125 596.751C491.125 598.229 490.283 599.517 488.736 599.517ZM502.264 600.909V595.067C502.264 593.366 501.37 592.403 499.583 592.403C498.277 592.403 497.194 593.074 496.645 593.727V592.61H494.84V600.909H496.645V595.101C497.074 594.551 497.865 594.001 498.775 594.001C499.789 594.001 500.459 594.414 500.459 595.72V600.909H502.264ZM512.03 600.909V595.067C512.03 593.366 511.136 592.403 509.349 592.403C508.043 592.403 506.961 593.074 506.411 593.727V592.61H504.607V600.909H506.411V595.101C506.84 594.551 507.631 594.001 508.542 594.001C509.555 594.001 510.226 594.414 510.226 595.72V600.909H512.03ZM518.222 601.115C519.528 601.115 520.748 600.686 521.59 599.895L520.765 598.71C520.164 599.311 519.219 599.638 518.394 599.638C516.83 599.638 515.902 598.589 515.765 597.352H522.157V596.905C522.157 594.294 520.576 592.403 518.085 592.403C515.627 592.403 513.875 594.345 513.875 596.751C513.875 599.38 515.713 601.115 518.222 601.115ZM520.422 596.063H515.748C515.816 595.067 516.538 593.881 518.067 593.881C519.7 593.881 520.37 595.084 520.422 596.063ZM527.718 601.115C529.351 601.115 530.313 600.411 530.897 599.638L529.712 598.521C529.248 599.174 528.612 599.517 527.804 599.517C526.309 599.517 525.295 598.366 525.295 596.751C525.295 595.136 526.309 594.001 527.804 594.001C528.612 594.001 529.248 594.311 529.712 594.964L530.897 593.881C530.313 593.091 529.351 592.403 527.718 592.403C525.21 592.403 523.44 594.242 523.44 596.751C523.44 599.26 525.21 601.115 527.718 601.115ZM535.005 601.115C535.83 601.115 536.362 600.875 536.689 600.583L536.259 599.208C536.122 599.363 535.813 599.517 535.469 599.517C534.953 599.517 534.678 599.088 534.678 598.521V594.173H536.362V592.61H534.678V590.341H532.874V592.61H531.5V594.173H532.874V598.967C532.874 600.359 533.596 601.115 535.005 601.115ZM541.747 601.115C544.393 601.115 546.008 599.122 546.008 596.751C546.008 594.362 544.393 592.403 541.747 592.403C539.1 592.403 537.485 594.362 537.485 596.751C537.485 599.122 539.1 601.115 541.747 601.115ZM541.747 599.517C540.217 599.517 539.358 598.229 539.358 596.751C539.358 595.29 540.217 594.001 541.747 594.001C543.293 594.001 544.135 595.29 544.135 596.751C544.135 598.229 543.293 599.517 541.747 599.517ZM549.655 600.909V595.256C550.016 594.654 551.029 594.139 551.803 594.139C552.026 594.139 552.198 594.156 552.353 594.19V592.403C551.287 592.403 550.291 593.022 549.655 593.812V592.61H547.85V600.909H549.655Z" fill="white"></path><rect x="286.88" y="541.315" width="113.602" height="93.5542" rx="4.77318" fill="#322D36" stroke="white" stroke-width="2.86391"></rect><path d="M316.762 592.501V586.504C316.762 584.82 315.886 583.995 314.374 583.995C313.119 583.995 312.02 584.768 311.556 585.507C311.281 584.614 310.525 583.995 309.288 583.995C308.016 583.995 306.933 584.82 306.573 585.318V584.201H304.768V592.501H306.573V586.693C306.951 586.16 307.689 585.593 308.497 585.593C309.477 585.593 309.855 586.195 309.855 587.088V592.501H311.659V586.693C312.02 586.143 312.776 585.593 313.583 585.593C314.563 585.593 314.958 586.195 314.958 587.088V592.501H316.762ZM320.01 583.188C320.628 583.188 321.127 582.689 321.127 582.071C321.127 581.452 320.628 580.954 320.01 580.954C319.391 580.954 318.893 581.452 318.893 582.071C318.893 582.689 319.391 583.188 320.01 583.188ZM320.903 592.501V584.201H319.099V592.501H320.903ZM327.024 592.707C328.657 592.707 329.619 592.003 330.203 591.229L329.017 590.112C328.553 590.765 327.918 591.109 327.11 591.109C325.615 591.109 324.601 589.958 324.601 588.343C324.601 586.727 325.615 585.593 327.11 585.593C327.918 585.593 328.553 585.903 329.017 586.556L330.203 585.473C329.619 584.683 328.657 583.995 327.024 583.995C324.515 583.995 322.745 585.834 322.745 588.343C322.745 590.851 324.515 592.707 327.024 592.707ZM333.606 592.501V586.848C333.967 586.246 334.981 585.731 335.754 585.731C335.978 585.731 336.149 585.748 336.304 585.782V583.995C335.239 583.995 334.242 584.614 333.606 585.404V584.201H331.802V592.501H333.606ZM341.522 592.707C344.169 592.707 345.784 590.714 345.784 588.343C345.784 585.954 344.169 583.995 341.522 583.995C338.876 583.995 337.261 585.954 337.261 588.343C337.261 590.714 338.876 592.707 341.522 592.707ZM341.522 591.109C339.993 591.109 339.134 589.82 339.134 588.343C339.134 586.882 339.993 585.593 341.522 585.593C343.069 585.593 343.911 586.882 343.911 588.343C343.911 589.82 343.069 591.109 341.522 591.109ZM357.074 592.707C360.407 592.707 362.04 590.8 362.04 587.965V581.04H359.995V587.913C359.995 589.734 358.981 590.92 357.074 590.92C355.166 590.92 354.153 589.734 354.153 587.913V581.04H352.108V587.965C352.108 590.8 353.757 592.707 357.074 592.707ZM368.41 592.707C371.486 592.707 372.844 591.058 372.844 589.15C372.844 584.889 366.176 586.212 366.176 584.064C366.176 583.222 366.932 582.638 368.101 582.638C369.304 582.638 370.524 583.05 371.434 583.961L372.569 582.466C371.52 581.435 370.06 580.851 368.29 580.851C365.764 580.851 364.114 582.311 364.114 584.219C364.114 588.429 370.782 586.934 370.782 589.339C370.782 590.112 370.146 590.92 368.496 590.92C366.898 590.92 365.644 590.164 364.87 589.322L363.736 590.886C364.767 591.951 366.297 592.707 368.41 592.707ZM380.469 592.501C382.634 592.501 383.802 591.178 383.802 589.391C383.802 587.999 382.823 586.779 381.586 586.59C382.651 586.366 383.579 585.387 383.579 583.961C383.579 582.346 382.428 581.04 380.314 581.04H374.678V592.501H380.469ZM379.919 585.765H376.688V582.81H379.919C380.933 582.81 381.517 583.445 381.517 584.287C381.517 585.164 380.933 585.765 379.919 585.765ZM380.005 590.731H376.688V587.535H380.005C381.139 587.535 381.74 588.274 381.74 589.133C381.74 590.13 381.087 590.731 380.005 590.731Z" fill="white"></path><rect x="116" y="541.315" width="113.602" height="93.5542" rx="4.77318" fill="#322D36" stroke="white" stroke-width="2.86391"></rect><path d="M144.538 592.501C148.112 592.501 150.518 590.147 150.518 586.762C150.518 583.411 148.112 581.04 144.521 581.04H140.259V592.501H144.538ZM144.521 590.731H142.27V582.81H144.538C147.081 582.81 148.456 584.562 148.456 586.762C148.456 588.944 147.012 590.731 144.521 590.731ZM157.975 592.707C160.277 592.707 161.704 591.487 162.58 590.112L160.862 589.253C160.312 590.198 159.195 590.92 157.975 590.92C155.707 590.92 154.023 589.167 154.023 586.779C154.023 584.356 155.707 582.638 157.975 582.638C159.195 582.638 160.312 583.342 160.862 584.304L162.563 583.411C161.721 582.036 160.277 580.851 157.975 580.851C154.59 580.851 151.961 583.239 151.961 586.779C151.961 590.301 154.59 592.707 157.975 592.707ZM170.612 592.501V581.04H168.602V592.501H170.612ZM180.42 592.501V586.659C180.42 584.957 179.527 583.995 177.74 583.995C176.434 583.995 175.351 584.665 174.802 585.318V584.201H172.997V592.501H174.802V586.693C175.231 586.143 176.022 585.593 176.932 585.593C177.946 585.593 178.616 586.006 178.616 587.312V592.501H180.42ZM187.231 592.707C189.379 592.707 190.909 591.075 190.909 588.343C190.909 585.61 189.379 583.995 187.231 583.995C186.149 583.995 185.186 584.511 184.568 585.335V584.201H182.764V595.663H184.568V591.35C185.255 592.226 186.183 592.707 187.231 592.707ZM186.699 591.109C185.857 591.109 184.963 590.594 184.568 589.975V586.693C184.98 586.074 185.857 585.593 186.699 585.593C188.125 585.593 189.053 586.727 189.053 588.343C189.053 589.958 188.125 591.109 186.699 591.109ZM200.121 592.501V584.201H198.316V590.027C197.904 590.576 197.114 591.109 196.203 591.109C195.172 591.109 194.519 590.697 194.519 589.408V584.201H192.715V590.078C192.715 591.762 193.608 592.707 195.395 592.707C196.701 592.707 197.732 592.054 198.316 591.401V592.501H200.121ZM204.973 592.707C205.798 592.707 206.33 592.467 206.657 592.174L206.227 590.8C206.09 590.954 205.781 591.109 205.437 591.109C204.921 591.109 204.646 590.68 204.646 590.112V585.765H206.33V584.201H204.646V581.933H202.842V584.201H201.468V585.765H202.842V590.559C202.842 591.951 203.564 592.707 204.973 592.707Z" fill="white"></path><rect x="509.31" y="40.1318" width="298.801" height="93.5542" rx="4.77318" fill="#322D36" stroke="white" stroke-width="2.86391"></rect><path d="M640.744 83C644.318 83 646.724 80.6459 646.724 77.2607C646.724 73.91 644.318 71.5387 640.727 71.5387H636.465V83H640.744ZM640.727 81.2301H638.476V73.3085H640.744C643.287 73.3085 644.662 75.0613 644.662 77.2607C644.662 79.443 643.218 81.2301 640.727 81.2301ZM652.944 83C656.518 83 658.923 80.6459 658.923 77.2607C658.923 73.91 656.518 71.5387 652.926 71.5387H648.665V83H652.944ZM652.926 81.2301H650.675V73.3085H652.944C655.487 73.3085 656.861 75.0613 656.861 77.2607C656.861 79.443 655.418 81.2301 652.926 81.2301ZM669.748 83L666.93 78.4979C668.322 78.2746 669.662 77.1576 669.662 75.13C669.662 72.9992 668.167 71.5387 665.899 71.5387H660.865V83H662.875V78.7213H664.885L667.411 83H669.748ZM665.642 76.9514H662.875V73.3085H665.642C666.776 73.3085 667.6 74.0131 667.6 75.1128C667.6 76.2297 666.776 76.9514 665.642 76.9514ZM675.675 83.2062C678.235 83.2062 680.057 81.6941 680.057 79.3227C680.057 76.9686 678.321 75.6283 676.38 75.6283C675.28 75.6283 674.352 76.0751 673.785 76.6078V73.3085H679.284V71.5387H671.774V77.9309L673.201 78.3433C673.94 77.656 674.747 77.3638 675.709 77.3638C677.118 77.3638 678.012 78.1715 678.012 79.3915C678.012 80.5256 677.118 81.4191 675.658 81.4191C674.386 81.4191 673.338 80.938 672.582 80.0444L671.431 81.4363C672.359 82.5189 673.716 83.2062 675.675 83.2062ZM624.253 100.206C625.885 100.206 626.847 99.5017 627.431 98.7284L626.246 97.6115C625.782 98.2645 625.146 98.6081 624.338 98.6081C622.844 98.6081 621.83 97.4569 621.83 95.8416C621.83 94.2264 622.844 93.0923 624.338 93.0923C625.146 93.0923 625.782 93.4016 626.246 94.0545L627.431 92.972C626.847 92.1815 625.885 91.4942 624.253 91.4942C621.744 91.4942 619.974 93.3328 619.974 95.8416C619.974 98.3504 621.744 100.206 624.253 100.206ZM632.794 100.206C635.44 100.206 637.055 98.2129 637.055 95.8416C637.055 93.4531 635.44 91.4942 632.794 91.4942C630.147 91.4942 628.532 93.4531 628.532 95.8416C628.532 98.2129 630.147 100.206 632.794 100.206ZM632.794 98.6081C631.264 98.6081 630.405 97.3194 630.405 95.8416C630.405 94.381 631.264 93.0923 632.794 93.0923C634.34 93.0923 635.182 94.381 635.182 95.8416C635.182 97.3194 634.34 98.6081 632.794 98.6081ZM646.321 100V94.1576C646.321 92.4565 645.427 91.4942 643.64 91.4942C642.334 91.4942 641.252 92.1644 640.702 92.8173V91.7004H638.897V100H640.702V94.192C641.131 93.6421 641.922 93.0923 642.832 93.0923C643.846 93.0923 644.516 93.5047 644.516 94.8106V100H646.321ZM656.087 100V94.1576C656.087 92.4565 655.193 91.4942 653.406 91.4942C652.1 91.4942 651.018 92.1644 650.468 92.8173V91.7004H648.664V100H650.468V94.192C650.898 93.6421 651.688 93.0923 652.599 93.0923C653.613 93.0923 654.283 93.5047 654.283 94.8106V100H656.087ZM662.279 100.206C663.585 100.206 664.805 99.7766 665.647 98.9862L664.822 97.8005C664.221 98.4019 663.276 98.7284 662.451 98.7284C660.887 98.7284 659.959 97.6802 659.822 96.443H666.214V95.9963C666.214 93.3844 664.633 91.4942 662.142 91.4942C659.685 91.4942 657.932 93.4359 657.932 95.8416C657.932 98.4707 659.77 100.206 662.279 100.206ZM664.479 95.1543H659.805C659.874 94.1576 660.595 92.972 662.125 92.972C663.757 92.972 664.427 94.1748 664.479 95.1543ZM671.775 100.206C673.408 100.206 674.37 99.5017 674.954 98.7284L673.769 97.6115C673.305 98.2645 672.669 98.6081 671.861 98.6081C670.366 98.6081 669.353 97.4569 669.353 95.8416C669.353 94.2264 670.366 93.0923 671.861 93.0923C672.669 93.0923 673.305 93.4016 673.769 94.0545L674.954 92.972C674.37 92.1815 673.408 91.4942 671.775 91.4942C669.267 91.4942 667.497 93.3328 667.497 95.8416C667.497 98.3504 669.267 100.206 671.775 100.206ZM679.062 100.206C679.887 100.206 680.42 99.9656 680.746 99.6735L680.316 98.2988C680.179 98.4535 679.87 98.6081 679.526 98.6081C679.011 98.6081 678.736 98.1786 678.736 97.6115V93.2641H680.42V91.7004H678.736V89.4322H676.931V91.7004H675.557V93.2641H676.931V98.0583C676.931 99.4501 677.653 100.206 679.062 100.206ZM685.804 100.206C688.45 100.206 690.065 98.2129 690.065 95.8416C690.065 93.4531 688.45 91.4942 685.804 91.4942C683.157 91.4942 681.542 93.4531 681.542 95.8416C681.542 98.2129 683.157 100.206 685.804 100.206ZM685.804 98.6081C684.274 98.6081 683.415 97.3194 683.415 95.8416C683.415 94.381 684.274 93.0923 685.804 93.0923C687.35 93.0923 688.192 94.381 688.192 95.8416C688.192 97.3194 687.35 98.6081 685.804 98.6081ZM693.712 100V94.3467C694.073 93.7452 695.087 93.2297 695.86 93.2297C696.083 93.2297 696.255 93.2469 696.41 93.2813V91.4942C695.344 91.4942 694.348 92.1128 693.712 92.9032V91.7004H691.908V100H693.712Z" fill="white"></path><rect x="628.639" y="415.303" width="113.602" height="68.7337" rx="4.77318" fill="#322D36" stroke="white" stroke-width="2.86391"></rect><path d="M659.928 445.486V443.716H654.085V440.52H659.807V438.75H654.085V435.795H659.928V434.025H652.075V445.486H659.928ZM666.735 445.486V435.795H670.206V434.025H661.253V435.795H664.724V445.486H666.735ZM681.893 445.486V434.025H679.883V438.699H673.92V434.025H671.909V445.486H673.92V440.469H679.883V445.486H681.893ZM690.768 445.486V441.19H693.809C696.198 441.19 697.538 439.558 697.538 437.616C697.538 435.657 696.215 434.025 693.809 434.025H688.757V445.486H690.768ZM693.534 439.421H690.768V435.795H693.534C694.668 435.795 695.476 436.517 695.476 437.616C695.476 438.699 694.668 439.421 693.534 439.421ZM701.239 445.486V441.19H704.28C706.669 441.19 708.009 439.558 708.009 437.616C708.009 435.657 706.686 434.025 704.28 434.025H699.228V445.486H701.239ZM704.005 439.421H701.239V435.795H704.005C705.14 435.795 705.947 436.517 705.947 437.616C705.947 438.699 705.14 439.421 704.005 439.421ZM714.891 445.486V440.727L719.324 434.025H717.022L713.877 438.922L710.733 434.025H708.43L712.881 440.727V445.486H714.891Z" fill="white"></path><rect x="286.88" y="415.303" width="113.602" height="68.7337" rx="4.77318" fill="#322D36" stroke="white" stroke-width="2.86391"></rect><path d="M301.593 445.486V440.52H307.316V438.75H301.593V435.795H307.436V434.025H299.583V445.486H301.593ZM314.008 445.486V435.795H317.479V434.025H308.527V435.795H311.998V445.486H314.008ZM323.461 445.486C327.036 445.486 329.441 443.132 329.441 439.747C329.441 436.396 327.036 434.025 323.444 434.025H319.183V445.486H323.461ZM323.444 443.716H321.193V435.795H323.461C326.005 435.795 327.379 437.548 327.379 439.747C327.379 441.929 325.936 443.716 323.444 443.716ZM333.393 445.486V434.025H331.382V445.486H333.393ZM347.854 445.486V434.025H346.05V438.338C345.397 437.444 344.435 436.981 343.387 436.981C341.256 436.981 339.709 438.647 339.709 441.328C339.709 444.077 341.273 445.693 343.387 445.693C344.469 445.693 345.414 445.177 346.05 444.352V445.486H347.854ZM343.919 444.094C342.476 444.094 341.565 442.943 341.565 441.328C341.565 439.73 342.476 438.579 343.919 438.579C344.761 438.579 345.655 439.077 346.05 439.696V442.978C345.655 443.596 344.761 444.094 343.919 444.094ZM354.041 445.693C355.347 445.693 356.567 445.263 357.409 444.473L356.585 443.287C355.983 443.888 355.038 444.215 354.213 444.215C352.65 444.215 351.722 443.167 351.584 441.929H357.976V441.483C357.976 438.871 356.396 436.981 353.904 436.981C351.447 436.981 349.694 438.922 349.694 441.328C349.694 443.957 351.533 445.693 354.041 445.693ZM356.241 440.641H351.567C351.636 439.644 352.357 438.458 353.887 438.458C355.519 438.458 356.189 439.661 356.241 440.641ZM361.562 442.995V439.696C361.974 439.077 362.85 438.579 363.71 438.579C365.136 438.579 366.046 439.73 366.046 441.328C366.046 442.943 365.136 444.094 363.71 444.094C362.85 444.094 361.974 443.613 361.562 442.995ZM361.562 445.486V444.352C362.197 445.177 363.16 445.693 364.225 445.693C366.356 445.693 367.919 444.077 367.919 441.328C367.919 438.647 366.373 436.981 364.225 436.981C363.194 436.981 362.232 437.444 361.562 438.338V434.025H359.757V445.486H361.562ZM377.148 445.486V437.187H375.344V443.012C374.931 443.562 374.141 444.094 373.23 444.094C372.199 444.094 371.546 443.682 371.546 442.393V437.187H369.742V443.063C369.742 444.747 370.635 445.693 372.422 445.693C373.728 445.693 374.759 445.04 375.344 444.387V445.486H377.148ZM382.877 448.854C384.904 448.854 387.138 448.047 387.138 445.057V437.187H385.334V438.338C384.664 437.444 383.719 436.981 382.67 436.981C380.522 436.981 378.993 438.544 378.993 441.242C378.993 443.974 380.557 445.504 382.67 445.504C383.753 445.504 384.698 444.954 385.334 444.112V445.057C385.334 446.827 384.062 447.377 382.877 447.377C381.777 447.377 380.918 447.084 380.23 446.311L379.388 447.617C380.419 448.545 381.468 448.854 382.877 448.854ZM383.203 443.888C381.76 443.888 380.849 442.84 380.849 441.242C380.849 439.644 381.76 438.579 383.203 438.579C384.045 438.579 384.921 439.077 385.334 439.678V442.789C384.921 443.39 384.045 443.888 383.203 443.888Z" fill="white"></path><rect x="116" y="415.303" width="113.602" height="68.7337" rx="4.77318" fill="#322D36" stroke="white" stroke-width="2.86391"></rect><path d="M151.761 445.486V441.19H154.802C157.191 441.19 158.531 439.558 158.531 437.616C158.531 435.657 157.208 434.025 154.802 434.025H149.75V445.486H151.761ZM154.527 439.421H151.761V435.795H154.527C155.661 435.795 156.469 436.517 156.469 437.616C156.469 438.699 155.661 439.421 154.527 439.421ZM163.681 445.693C166.328 445.693 167.943 443.699 167.943 441.328C167.943 438.939 166.328 436.981 163.681 436.981C161.035 436.981 159.42 438.939 159.42 441.328C159.42 443.699 161.035 445.693 163.681 445.693ZM163.681 444.094C162.152 444.094 161.293 442.806 161.293 441.328C161.293 439.867 162.152 438.579 163.681 438.579C165.228 438.579 166.07 439.867 166.07 441.328C166.07 442.806 165.228 444.094 163.681 444.094ZM178.927 445.486L181.504 437.187H179.614L177.861 443.218L175.903 437.187H174.304L172.328 443.218L170.576 437.187H168.703L171.28 445.486H173.17L175.095 439.403L177.037 445.486H178.927ZM186.606 445.693C187.912 445.693 189.132 445.263 189.974 444.473L189.149 443.287C188.548 443.888 187.602 444.215 186.778 444.215C185.214 444.215 184.286 443.167 184.149 441.929H190.541V441.483C190.541 438.871 188.96 436.981 186.468 436.981C184.011 436.981 182.258 438.922 182.258 441.328C182.258 443.957 184.097 445.693 186.606 445.693ZM188.805 440.641H184.131C184.2 439.644 184.922 438.458 186.451 438.458C188.084 438.458 188.754 439.661 188.805 440.641ZM194.126 445.486V439.833C194.487 439.232 195.501 438.716 196.274 438.716C196.497 438.716 196.669 438.733 196.824 438.768V436.981C195.758 436.981 194.762 437.599 194.126 438.39V437.187H192.322V445.486H194.126ZM144.983 462.693C147.217 462.693 148.437 461.576 148.437 460.098C148.437 456.799 143.419 457.898 143.419 456.438C143.419 455.854 144.004 455.407 144.949 455.407C145.997 455.407 146.908 455.854 147.406 456.403L148.162 455.132C147.423 454.479 146.358 453.981 144.949 453.981C142.852 453.981 141.684 455.132 141.684 456.489C141.684 459.685 146.701 458.517 146.701 460.149C146.701 460.802 146.134 461.249 145.052 461.249C143.986 461.249 142.835 460.699 142.251 460.098L141.426 461.387C142.285 462.229 143.557 462.693 144.983 462.693ZM157.642 462.486V454.187H155.838V460.012C155.425 460.562 154.635 461.094 153.724 461.094C152.693 461.094 152.04 460.682 152.04 459.393V454.187H150.236V460.063C150.236 461.747 151.129 462.693 152.916 462.693C154.222 462.693 155.253 462.04 155.838 461.387V462.486H157.642ZM164.453 462.693C166.601 462.693 168.13 461.06 168.13 458.328C168.13 455.596 166.601 453.981 164.453 453.981C163.37 453.981 162.408 454.496 161.79 455.321V454.187H159.985V465.648H161.79V461.335C162.477 462.211 163.405 462.693 164.453 462.693ZM163.92 461.094C163.078 461.094 162.185 460.579 161.79 459.96V456.678C162.202 456.06 163.078 455.579 163.92 455.579C165.347 455.579 166.274 456.713 166.274 458.328C166.274 459.943 165.347 461.094 163.92 461.094ZM174.404 462.693C176.552 462.693 178.081 461.06 178.081 458.328C178.081 455.596 176.552 453.981 174.404 453.981C173.321 453.981 172.359 454.496 171.741 455.321V454.187H169.936V465.648H171.741V461.335C172.428 462.211 173.356 462.693 174.404 462.693ZM173.871 461.094C173.029 461.094 172.136 460.579 171.741 459.96V456.678C172.153 456.06 173.029 455.579 173.871 455.579C175.297 455.579 176.225 456.713 176.225 458.328C176.225 459.943 175.297 461.094 173.871 461.094ZM181.691 462.486V451.025H179.887V462.486H181.691ZM184.943 453.173C185.561 453.173 186.06 452.675 186.06 452.056C186.06 451.437 185.561 450.939 184.943 450.939C184.324 450.939 183.826 451.437 183.826 452.056C183.826 452.675 184.324 453.173 184.943 453.173ZM185.836 462.486V454.187H184.032V462.486H185.836ZM192.026 462.693C193.332 462.693 194.552 462.263 195.394 461.473L194.569 460.287C193.968 460.888 193.023 461.215 192.198 461.215C190.634 461.215 189.706 460.167 189.569 458.929H195.961V458.483C195.961 455.871 194.38 453.981 191.888 453.981C189.431 453.981 187.679 455.922 187.679 458.328C187.679 460.957 189.517 462.693 192.026 462.693ZM194.225 457.641H189.552C189.62 456.644 190.342 455.458 191.871 455.458C193.504 455.458 194.174 456.661 194.225 457.641ZM200.594 462.693C202.828 462.693 204.048 461.576 204.048 460.098C204.048 456.799 199.031 457.898 199.031 456.438C199.031 455.854 199.615 455.407 200.56 455.407C201.608 455.407 202.519 455.854 203.017 456.403L203.773 455.132C203.034 454.479 201.969 453.981 200.56 453.981C198.464 453.981 197.295 455.132 197.295 456.489C197.295 459.685 202.313 458.517 202.313 460.149C202.313 460.802 201.746 461.249 200.663 461.249C199.598 461.249 198.446 460.699 197.862 460.098L197.037 461.387C197.897 462.229 199.168 462.693 200.594 462.693Z" fill="white"></path><path d="M650.164 463.443L646.819 459.4L649.923 455.802H648.262L645.272 459.434V455.802H643.932V463.443H645.272V461.003L645.948 460.213L648.503 463.443H650.164ZM653.67 463.581C655.721 463.581 656.626 462.481 656.626 461.21C656.626 458.369 652.181 459.251 652.181 457.819C652.181 457.257 652.685 456.868 653.464 456.868C654.266 456.868 655.079 457.143 655.687 457.75L656.443 456.753C655.744 456.066 654.77 455.676 653.59 455.676C651.906 455.676 650.806 456.65 650.806 457.922C650.806 460.728 655.251 459.732 655.251 461.336C655.251 461.851 654.827 462.389 653.728 462.389C652.662 462.389 651.826 461.885 651.31 461.324L650.554 462.367C651.242 463.077 652.261 463.581 653.67 463.581ZM663.279 463.443V462.263H659.281L663.199 456.879V455.802H657.551V456.982H661.446L657.551 462.355V463.443H663.279ZM666.828 463.569C669.039 463.569 670.196 461.828 670.196 459.617C670.196 457.498 669.291 455.676 667.046 455.676C665.339 455.676 664.228 456.822 664.228 458.243C664.228 459.869 665.408 460.705 666.783 460.705C667.688 460.705 668.49 460.156 668.833 459.64C668.845 459.709 668.845 459.789 668.845 459.858C668.845 461.106 668.215 462.378 666.828 462.378C666.095 462.378 665.66 462.126 665.259 461.702L664.629 462.722C665.144 463.226 665.878 463.569 666.828 463.569ZM667.149 459.56C666.313 459.56 665.58 459.136 665.58 458.197C665.58 457.578 666.107 456.868 667.115 456.868C668.295 456.868 668.742 457.83 668.822 458.655C668.432 459.205 667.802 459.56 667.149 459.56ZM674.201 463.581C676.343 463.581 677.248 461.542 677.248 459.629C677.248 457.704 676.343 455.688 674.201 455.688C672.047 455.688 671.142 457.704 671.142 459.629C671.142 461.542 672.047 463.581 674.201 463.581ZM674.201 462.389C672.952 462.389 672.506 461.084 672.506 459.629C672.506 458.162 672.952 456.879 674.201 456.879C675.45 456.879 675.885 458.162 675.885 459.629C675.885 461.084 675.438 462.389 674.201 462.389ZM680.893 463.581C682.669 463.581 683.78 462.653 683.78 461.347C683.78 460.167 682.738 459.571 682.005 459.491C682.784 459.365 683.654 458.769 683.654 457.738C683.654 456.467 682.554 455.688 680.905 455.688C679.633 455.688 678.705 456.192 678.11 456.891L678.797 457.727C679.347 457.166 679.988 456.879 680.779 456.879C681.627 456.879 682.325 457.246 682.325 457.945C682.325 458.643 681.649 458.953 680.744 458.953C680.447 458.953 680 458.953 679.874 458.941V460.156C679.988 460.144 680.424 460.133 680.744 460.133C681.844 460.133 682.44 460.465 682.44 461.221C682.44 461.92 681.856 462.389 680.848 462.389C680.034 462.389 679.232 462.034 678.74 461.462L678.007 462.344C678.534 463.031 679.542 463.581 680.893 463.581ZM687.849 463.443V455.802H686.681L684.481 458.025L685.26 458.838L686.509 457.532V463.443H687.849ZM695.397 463.443L693.519 460.442C694.447 460.293 695.34 459.548 695.34 458.197C695.34 456.776 694.343 455.802 692.831 455.802H689.475V463.443H690.815V460.591H692.155L693.839 463.443H695.397ZM692.659 459.411H690.815V456.982H692.659C693.416 456.982 693.965 457.452 693.965 458.185C693.965 458.93 693.416 459.411 692.659 459.411ZM703.301 463.443V455.802H701.96V461.095L698.054 455.802H696.679V463.443H698.02V457.979L702.006 463.443H703.301ZM711.649 463.443L708.785 459.514L711.477 455.802H709.862L707.903 458.598L705.932 455.802H704.329L707.009 459.526L704.157 463.443H705.76L707.903 460.453L710.045 463.443H711.649ZM715.828 463.581C717.363 463.581 718.314 462.767 718.898 461.851L717.753 461.278C717.386 461.908 716.642 462.389 715.828 462.389C714.316 462.389 713.194 461.221 713.194 459.629C713.194 458.013 714.316 456.868 715.828 456.868C716.642 456.868 717.386 457.338 717.753 457.979L718.887 457.383C718.326 456.467 717.363 455.676 715.828 455.676C713.572 455.676 711.819 457.269 711.819 459.629C711.819 461.977 713.572 463.581 715.828 463.581ZM726.789 463.443L723.787 455.802H722.115L719.113 463.443H720.637L721.198 461.966H724.704L725.265 463.443H726.789ZM724.326 460.786H721.576L722.951 457.143L724.326 460.786Z" fill="white"></path><path d="M316.741 463.443V460.133H320.556V458.953H316.741V456.982H320.636V455.802H315.401V463.443H316.741ZM325.017 463.443V456.982H327.331V455.802H321.363V456.982H323.677V463.443H325.017ZM332.958 463.443V461.714H333.977V460.534H332.958V455.802H331.114L327.975 460.637V461.714H331.618V463.443H332.958ZM331.618 460.534H329.292L331.618 457.005V460.534ZM340.405 463.443V462.263H337.026C339.065 460.717 340.359 459.457 340.359 458.036C340.359 456.513 339.076 455.688 337.598 455.688C336.521 455.688 335.445 456.089 334.769 456.914L335.548 457.784C336.04 457.234 336.716 456.879 337.61 456.879C338.309 456.879 339.007 457.234 339.007 458.036C339.007 459.148 337.839 460.133 334.872 462.378V463.443H340.405ZM344.274 463.581C346.049 463.581 347.161 462.653 347.161 461.347C347.161 460.167 346.118 459.571 345.385 459.491C346.164 459.365 347.035 458.769 347.035 457.738C347.035 456.467 345.935 455.688 344.285 455.688C343.014 455.688 342.086 456.192 341.49 456.891L342.177 457.727C342.727 457.166 343.369 456.879 344.159 456.879C345.007 456.879 345.706 457.246 345.706 457.945C345.706 458.643 345.03 458.953 344.125 458.953C343.827 458.953 343.38 458.953 343.254 458.941V460.156C343.369 460.144 343.804 460.133 344.125 460.133C345.225 460.133 345.82 460.465 345.82 461.221C345.82 461.92 345.236 462.389 344.228 462.389C343.415 462.389 342.613 462.034 342.12 461.462L341.387 462.344C341.914 463.031 342.922 463.581 344.274 463.581ZM353.796 463.443V462.263H350.417C352.456 460.717 353.75 459.457 353.75 458.036C353.75 456.513 352.467 455.688 350.989 455.688C349.912 455.688 348.836 456.089 348.16 456.914L348.939 457.784C349.431 457.234 350.107 456.879 351.001 456.879C351.7 456.879 352.398 457.234 352.398 458.036C352.398 459.148 351.23 460.133 348.263 462.378V463.443H353.796ZM361.972 463.443V455.802H360.632V458.918H356.657V455.802H355.316V463.443H356.657V460.098H360.632V463.443H361.972ZM367.169 463.581C367.879 463.581 368.532 463.42 369.094 463.123L369.758 463.867L370.686 463.088L370.056 462.378C370.697 461.679 371.075 460.728 371.075 459.629C371.075 457.349 369.449 455.676 367.169 455.676C364.878 455.676 363.263 457.349 363.263 459.629C363.263 461.908 364.878 463.581 367.169 463.581ZM367.169 462.389C365.623 462.389 364.637 461.198 364.637 459.629C364.637 458.048 365.623 456.868 367.169 456.868C368.704 456.868 369.701 458.048 369.701 459.629C369.701 460.305 369.517 460.912 369.185 461.381L368.234 460.305L367.295 461.084L368.246 462.16C367.925 462.309 367.57 462.389 367.169 462.389Z" fill="white"></path><rect x="509.31" y="181.418" width="298.801" height="157.515" rx="4.77318" fill="#322D36" stroke="white" stroke-width="2.86391"></rect><path d="M615.482 256.469L611.187 250.575L615.225 245.007H612.802L609.863 249.2L606.908 245.007H604.502L608.523 250.592L604.244 256.469H606.65L609.863 251.984L613.077 256.469H615.482ZM617.615 247.155C618.234 247.155 618.732 246.657 618.732 246.038C618.732 245.42 618.234 244.921 617.615 244.921C616.997 244.921 616.498 245.42 616.498 246.038C616.498 246.657 616.997 247.155 617.615 247.155ZM618.509 256.469V248.169H616.705V256.469H618.509ZM622.654 256.469V245.007H620.85V256.469H622.654ZM625.905 247.155C626.524 247.155 627.022 246.657 627.022 246.038C627.022 245.42 626.524 244.921 625.905 244.921C625.286 244.921 624.788 245.42 624.788 246.038C624.788 246.657 625.286 247.155 625.905 247.155ZM626.799 256.469V248.169H624.994V256.469H626.799ZM636.562 256.469V250.626C636.562 248.925 635.669 247.963 633.882 247.963C632.576 247.963 631.493 248.633 630.943 249.286V248.169H629.139V256.469H630.943V250.661C631.373 250.111 632.163 249.561 633.074 249.561C634.088 249.561 634.758 249.973 634.758 251.279V256.469H636.562ZM646.191 256.469L643.133 252.207L646.002 248.169H643.975L641.999 250.97L640.04 248.169H638.012L640.882 252.207L637.823 256.469H639.851L642.016 253.41L644.164 256.469H646.191ZM661.276 256.469L656.259 250.403L660.916 245.007H658.424L653.939 250.455V245.007H651.929V256.469H653.939V252.809L654.953 251.623L658.785 256.469H661.276ZM663.46 247.155C664.079 247.155 664.577 246.657 664.577 246.038C664.577 245.42 664.079 244.921 663.46 244.921C662.842 244.921 662.343 245.42 662.343 246.038C662.343 246.657 662.842 247.155 663.46 247.155ZM664.354 256.469V248.169H662.55V256.469H664.354ZM674.118 256.469V250.626C674.118 248.925 673.224 247.963 671.437 247.963C670.131 247.963 669.049 248.633 668.499 249.286V248.169H666.694V256.469H668.499V250.661C668.928 250.111 669.719 249.561 670.629 249.561C671.643 249.561 672.313 249.973 672.313 251.279V256.469H674.118ZM678.97 256.675C679.794 256.675 680.327 256.434 680.654 256.142L680.224 254.768C680.086 254.922 679.777 255.077 679.433 255.077C678.918 255.077 678.643 254.647 678.643 254.08V249.733H680.327V248.169H678.643V245.901H676.839V248.169H675.464V249.733H676.839V254.527C676.839 255.919 677.56 256.675 678.97 256.675ZM685.797 256.675C687.103 256.675 688.323 256.245 689.165 255.455L688.34 254.269C687.739 254.871 686.794 255.197 685.969 255.197C684.405 255.197 683.477 254.149 683.34 252.912H689.732V252.465C689.732 249.853 688.151 247.963 685.66 247.963C683.202 247.963 681.45 249.905 681.45 252.31C681.45 254.939 683.288 256.675 685.797 256.675ZM687.997 251.623H683.323C683.391 250.626 684.113 249.441 685.642 249.441C687.275 249.441 687.945 250.644 687.997 251.623ZM698.799 256.469L695.74 252.207L698.61 248.169H696.582L694.606 250.97L692.647 248.169H690.619L693.489 252.207L690.43 256.469H692.458L694.623 253.41L696.771 256.469H698.799ZM707.612 256.469L712.045 246.399V245.007H703.78V246.777H709.725L705.395 256.469H707.612Z" fill="white"></path><path d="M617.138 274.425L614.274 270.496L616.966 266.784H615.351L613.392 269.579L611.422 266.784H609.818L612.499 270.507L609.646 274.425H611.25L613.392 271.435L615.534 274.425H617.138ZM621.318 274.562C622.853 274.562 623.804 273.749 624.388 272.832L623.242 272.26C622.876 272.89 622.131 273.371 621.318 273.371C619.806 273.371 618.683 272.202 618.683 270.61C618.683 268.995 619.806 267.849 621.318 267.849C622.131 267.849 622.876 268.319 623.242 268.96L624.376 268.365C623.815 267.448 622.853 266.658 621.318 266.658C619.061 266.658 617.308 268.25 617.308 270.61C617.308 272.958 619.061 274.562 621.318 274.562ZM627.5 274.425L630.455 267.712V266.784H624.945V267.964H628.909L626.022 274.425H627.5ZM637.778 274.425L634.433 270.381L637.537 266.784H635.876L632.886 270.415V266.784H631.546V274.425H632.886V271.985L633.562 271.194L636.117 274.425H637.778ZM641.388 274.425V266.784H640.219L638.02 269.006L638.799 269.82L640.047 268.514V274.425H641.388ZM645.831 274.562C647.538 274.562 648.649 273.405 648.649 271.996C648.649 270.37 647.458 269.522 646.083 269.522C645.189 269.522 644.388 270.083 644.032 270.599C644.032 270.518 644.032 270.45 644.032 270.381C644.032 269.041 644.766 267.861 646.049 267.861C646.77 267.861 647.217 268.113 647.618 268.525L648.237 267.517C647.721 267.002 646.988 266.669 646.049 266.669C643.838 266.669 642.681 268.411 642.681 270.61C642.681 272.741 643.586 274.562 645.831 274.562ZM645.751 273.371C644.582 273.371 644.124 272.397 644.055 271.572C644.433 271.022 645.075 270.679 645.728 270.679C646.553 270.679 647.286 271.103 647.286 272.042C647.286 272.649 646.759 273.371 645.751 273.371ZM652.619 274.562C654.762 274.562 655.667 272.523 655.667 270.61C655.667 268.686 654.762 266.669 652.619 266.669C650.466 266.669 649.561 268.686 649.561 270.61C649.561 272.523 650.466 274.562 652.619 274.562ZM652.619 273.371C651.371 273.371 650.924 272.065 650.924 270.61C650.924 269.144 651.371 267.861 652.619 267.861C653.868 267.861 654.303 269.144 654.303 270.61C654.303 272.065 653.857 273.371 652.619 273.371ZM660.125 274.425V267.964H662.439V266.784H656.471V267.964H658.785V274.425H660.125ZM665.172 272.168V271.137H662.423V272.168H665.172ZM667.667 274.425V271.114H671.482V269.934H667.667V267.964H671.562V266.784H666.327V274.425H667.667ZM674.122 274.425V271.114H677.937V269.934H674.122V267.964H678.017V266.784H672.782V274.425H674.122ZM682.914 274.574C684.231 274.574 685.308 274.012 686.053 273.176V270.324H682.433V271.504H684.724V272.684C684.38 273.016 683.693 273.371 682.914 273.371C681.402 273.371 680.279 272.202 680.279 270.61C680.279 268.995 681.402 267.849 682.914 267.849C683.762 267.849 684.484 268.296 684.896 268.869L685.984 268.239C685.377 267.368 684.403 266.658 682.914 266.658C680.692 266.658 678.905 268.204 678.905 270.61C678.905 273.004 680.692 274.574 682.914 274.574ZM690.266 274.562C691.973 274.562 693.084 273.405 693.084 271.996C693.084 270.37 691.893 269.522 690.518 269.522C689.625 269.522 688.823 270.083 688.468 270.599C688.468 270.518 688.468 270.45 688.468 270.381C688.468 269.041 689.201 267.861 690.484 267.861C691.206 267.861 691.652 268.113 692.053 268.525L692.672 267.517C692.156 267.002 691.423 266.669 690.484 266.669C688.273 266.669 687.116 268.411 687.116 270.61C687.116 272.741 688.021 274.562 690.266 274.562ZM690.186 273.371C689.018 273.371 688.559 272.397 688.491 271.572C688.869 271.022 689.51 270.679 690.163 270.679C690.988 270.679 691.721 271.103 691.721 272.042C691.721 272.649 691.194 273.371 690.186 273.371ZM696.379 274.425L699.334 267.712V266.784H693.824V267.964H697.788L694.901 274.425H696.379ZM703.243 274.562C704.95 274.562 706.061 273.405 706.061 271.996C706.061 270.37 704.87 269.522 703.495 269.522C702.602 269.522 701.8 270.083 701.445 270.599C701.445 270.518 701.445 270.45 701.445 270.381C701.445 269.041 702.178 267.861 703.461 267.861C704.183 267.861 704.629 268.113 705.03 268.525L705.649 267.517C705.134 267.002 704.4 266.669 703.461 266.669C701.25 266.669 700.093 268.411 700.093 270.61C700.093 272.741 700.998 274.562 703.243 274.562ZM703.163 273.371C701.995 273.371 701.536 272.397 701.468 271.572C701.846 271.022 702.487 270.679 703.14 270.679C703.965 270.679 704.698 271.103 704.698 272.042C704.698 272.649 704.171 273.371 703.163 273.371Z" fill="white"></path><rect x="260.15" y="182.372" width="166.107" height="156.56" rx="4.77318" fill="#322D36" stroke="white" stroke-width="2.86391"></rect><rect x="917.894" y="182.372" width="166.107" height="73.5069" rx="4.77318" fill="#322D36" stroke="white" stroke-width="2.86391"></rect><rect x="917.894" y="265.426" width="166.107" height="73.5069" rx="4.77318" fill="#322D36" stroke="white" stroke-width="2.86391"></rect><path d="M312.778 256.469V245.007H310.768V249.681H304.805V245.007H302.795V256.469H304.805V251.451H310.768V256.469H312.778ZM314.817 259.716C315.058 259.785 315.573 259.837 315.831 259.837C317.12 259.82 318.099 259.373 318.666 257.964L322.67 248.169H320.746L318.323 254.39L315.9 248.169H313.958L317.378 256.572L316.965 257.517C316.725 258.067 316.347 258.239 315.762 258.239C315.556 258.239 315.264 258.187 315.075 258.101L314.817 259.716ZM328.271 256.675C330.419 256.675 331.948 255.043 331.948 252.31C331.948 249.578 330.419 247.963 328.271 247.963C327.188 247.963 326.226 248.478 325.607 249.303V248.169H323.803V259.631H325.607V255.317C326.295 256.194 327.222 256.675 328.271 256.675ZM327.738 255.077C326.896 255.077 326.002 254.561 325.607 253.943V250.661C326.02 250.042 326.896 249.561 327.738 249.561C329.164 249.561 330.092 250.695 330.092 252.31C330.092 253.926 329.164 255.077 327.738 255.077ZM337.603 256.675C338.909 256.675 340.129 256.245 340.971 255.455L340.146 254.269C339.545 254.871 338.6 255.197 337.775 255.197C336.211 255.197 335.283 254.149 335.146 252.912H341.538V252.465C341.538 249.853 339.957 247.963 337.466 247.963C335.008 247.963 333.256 249.905 333.256 252.31C333.256 254.939 335.094 256.675 337.603 256.675ZM339.802 251.623H335.129C335.197 250.626 335.919 249.441 337.448 249.441C339.081 249.441 339.751 250.644 339.802 251.623ZM345.123 256.469V250.815C345.484 250.214 346.498 249.698 347.271 249.698C347.494 249.698 347.666 249.716 347.821 249.75V247.963C346.756 247.963 345.759 248.582 345.123 249.372V248.169H343.319V256.469H345.123ZM358.211 256.469L355.393 251.967C356.785 251.743 358.126 250.626 358.126 248.599C358.126 246.468 356.631 245.007 354.362 245.007H349.328V256.469H351.338V252.19H353.349L355.874 256.469H358.211ZM354.105 250.42H351.338V246.777H354.105C355.239 246.777 356.063 247.482 356.063 248.582C356.063 249.698 355.239 250.42 354.105 250.42ZM370.462 256.469L365.96 245.007H363.451L358.949 256.469H361.234L362.076 254.252H367.334L368.176 256.469H370.462ZM366.767 252.482H362.643L364.705 247.018L366.767 252.482ZM383.604 256.469V245.007H380.769L377.659 252.877L374.532 245.007H371.696V256.469H373.707V247.619L377.229 256.469H378.089L381.594 247.619V256.469H383.604Z" fill="white"></path><path d="M987.008 215.626C989.311 215.626 990.737 214.406 991.614 213.031L989.895 212.172C989.345 213.117 988.228 213.839 987.008 213.839C984.74 213.839 983.056 212.086 983.056 209.698C983.056 207.275 984.74 205.557 987.008 205.557C988.228 205.557 989.345 206.261 989.895 207.223L991.596 206.33C990.754 204.955 989.311 203.77 987.008 203.77C983.623 203.77 980.994 206.158 980.994 209.698C980.994 213.22 983.623 215.626 987.008 215.626ZM994.958 215.42V203.959H993.154V215.42H994.958ZM1001.06 215.626C1003.71 215.626 1005.32 213.633 1005.32 211.262C1005.32 208.873 1003.71 206.914 1001.06 206.914C998.416 206.914 996.8 208.873 996.8 211.262C996.8 213.633 998.416 215.626 1001.06 215.626ZM1001.06 214.028C999.533 214.028 998.673 212.739 998.673 211.262C998.673 209.801 999.533 208.512 1001.06 208.512C1002.61 208.512 1003.45 209.801 1003.45 211.262C1003.45 212.739 1002.61 214.028 1001.06 214.028ZM1010.95 215.626C1012.58 215.626 1013.54 214.922 1014.13 214.148L1012.94 213.031C1012.48 213.684 1011.84 214.028 1011.03 214.028C1009.54 214.028 1008.52 212.877 1008.52 211.262C1008.52 209.646 1009.54 208.512 1011.03 208.512C1011.84 208.512 1012.48 208.821 1012.94 209.474L1014.13 208.392C1013.54 207.601 1012.58 206.914 1010.95 206.914C1008.44 206.914 1006.67 208.753 1006.67 211.262C1006.67 213.77 1008.44 215.626 1010.95 215.626ZM1023.49 215.42L1019.99 210.883L1023.42 207.12H1021.19L1017.53 211.124V203.959H1015.72V215.42H1017.53V213.186L1018.7 211.983L1021.22 215.42H1023.49Z" fill="white"></path><path d="M966.67 298.679C967.735 298.679 968.714 298.438 969.556 297.992L970.553 299.108L971.945 297.94L971 296.875C971.962 295.826 972.529 294.4 972.529 292.751C972.529 289.331 970.089 286.822 966.67 286.822C963.233 286.822 960.81 289.331 960.81 292.751C960.81 296.17 963.233 298.679 966.67 298.679ZM966.67 296.892C964.35 296.892 962.872 295.105 962.872 292.751C962.872 290.379 964.35 288.609 966.67 288.609C968.972 288.609 970.467 290.379 970.467 292.751C970.467 293.764 970.192 294.675 969.694 295.38L968.268 293.764L966.859 294.933L968.285 296.548C967.804 296.771 967.271 296.892 966.67 296.892ZM978.383 298.679C981.459 298.679 982.816 297.029 982.816 295.122C982.816 290.86 976.149 292.184 976.149 290.036C976.149 289.194 976.905 288.609 978.073 288.609C979.276 288.609 980.496 289.022 981.407 289.932L982.541 288.438C981.493 287.407 980.032 286.822 978.262 286.822C975.736 286.822 974.087 288.283 974.087 290.19C974.087 294.4 980.754 292.905 980.754 295.311C980.754 296.084 980.118 296.892 978.469 296.892C976.871 296.892 975.616 296.136 974.843 295.294L973.709 296.857C974.74 297.923 976.269 298.679 978.383 298.679ZM986.661 298.473V294.177H989.702C992.091 294.177 993.431 292.544 993.431 290.603C993.431 288.644 992.108 287.011 989.702 287.011H984.65V298.473H986.661ZM989.427 292.407H986.661V288.781H989.427C990.561 288.781 991.369 289.503 991.369 290.603C991.369 291.685 990.561 292.407 989.427 292.407ZM997.132 298.473V287.011H995.121V298.473H997.132ZM1006.01 298.473V293.507H1011.73V291.737H1006.01V288.781H1011.85V287.011H1004V298.473H1006.01ZM1015.43 298.473V287.011H1013.63V298.473H1015.43ZM1024.66 298.473V292.957C1024.66 290.74 1023.05 289.967 1021.19 289.967C1019.87 289.967 1018.67 290.379 1017.71 291.307L1018.46 292.562C1019.17 291.84 1019.99 291.496 1020.92 291.496C1022.05 291.496 1022.86 292.08 1022.86 293.043V294.28C1022.24 293.575 1021.3 293.215 1020.16 293.215C1018.81 293.215 1017.29 294.005 1017.29 295.93C1017.29 297.751 1018.82 298.679 1020.16 298.679C1021.26 298.679 1022.24 298.284 1022.86 297.562V298.473H1024.66ZM1020.88 297.442C1019.87 297.442 1019.1 296.857 1019.1 295.947C1019.1 295.053 1019.87 294.452 1020.88 294.452C1021.66 294.452 1022.43 294.744 1022.86 295.311V296.582C1022.43 297.15 1021.66 297.442 1020.88 297.442ZM1029.86 298.679C1032.09 298.679 1033.31 297.562 1033.31 296.084C1033.31 292.785 1028.29 293.885 1028.29 292.424C1028.29 291.84 1028.88 291.393 1029.82 291.393C1030.87 291.393 1031.78 291.84 1032.28 292.39L1033.03 291.118C1032.3 290.465 1031.23 289.967 1029.82 289.967C1027.73 289.967 1026.56 291.118 1026.56 292.476C1026.56 295.672 1031.57 294.503 1031.57 296.136C1031.57 296.789 1031.01 297.235 1029.92 297.235C1028.86 297.235 1027.71 296.686 1027.12 296.084L1026.3 297.373C1027.16 298.215 1028.43 298.679 1029.86 298.679ZM1042.53 298.473V292.596C1042.53 290.895 1041.64 289.967 1039.85 289.967C1038.55 289.967 1037.48 290.637 1036.93 291.29V287.011H1035.13V298.473H1036.93V292.665C1037.34 292.115 1038.13 291.565 1039.06 291.565C1040.07 291.565 1040.73 291.943 1040.73 293.249V298.473H1042.53Z" fill="white"></path><path d="M289.786 274.563C291.837 274.563 292.742 273.464 292.742 272.192C292.742 269.351 288.297 270.233 288.297 268.801C288.297 268.24 288.801 267.85 289.58 267.85C290.382 267.85 291.195 268.125 291.802 268.732L292.559 267.736C291.86 267.048 290.886 266.659 289.706 266.659C288.022 266.659 286.922 267.633 286.922 268.904C286.922 271.711 291.367 270.714 291.367 272.318C291.367 272.833 290.943 273.372 289.844 273.372C288.778 273.372 287.942 272.868 287.426 272.306L286.67 273.349C287.358 274.059 288.377 274.563 289.786 274.563ZM299.257 274.426V273.246H295.878C297.917 271.699 299.211 270.439 299.211 269.019C299.211 267.495 297.928 266.67 296.451 266.67C295.374 266.67 294.297 267.071 293.621 267.896L294.4 268.767C294.893 268.217 295.568 267.862 296.462 267.862C297.161 267.862 297.86 268.217 297.86 269.019C297.86 270.13 296.691 271.115 293.724 273.36V274.426H299.257ZM302.828 274.426L305.784 267.713V266.785H300.274V267.965H304.237L301.35 274.426H302.828ZM313.106 274.426L309.761 270.382L312.866 266.785H311.205L308.215 270.416V266.785H306.875V274.426H308.215V271.986L308.891 271.195L311.445 274.426H313.106ZM318.606 274.426V273.246H315.238V266.785H313.898V274.426H318.606ZM322.511 274.563C324.653 274.563 325.558 272.524 325.558 270.611C325.558 268.687 324.653 266.67 322.511 266.67C320.357 266.67 319.452 268.687 319.452 270.611C319.452 272.524 320.357 274.563 322.511 274.563ZM322.511 273.372C321.262 273.372 320.816 272.066 320.816 270.611C320.816 269.145 321.262 267.862 322.511 267.862C323.76 267.862 324.195 269.145 324.195 270.611C324.195 272.066 323.748 273.372 322.511 273.372ZM329.673 274.563C331.38 274.563 332.491 273.406 332.491 271.997C332.491 270.37 331.3 269.523 329.925 269.523C329.031 269.523 328.23 270.084 327.874 270.6C327.874 270.519 327.874 270.451 327.874 270.382C327.874 269.042 328.608 267.862 329.891 267.862C330.612 267.862 331.059 268.114 331.46 268.526L332.079 267.518C331.563 267.003 330.83 266.67 329.891 266.67C327.68 266.67 326.523 268.412 326.523 270.611C326.523 272.742 327.428 274.563 329.673 274.563ZM329.593 273.372C328.424 273.372 327.966 272.398 327.897 271.573C328.275 271.023 328.917 270.68 329.57 270.68C330.395 270.68 331.128 271.104 331.128 272.043C331.128 272.65 330.601 273.372 329.593 273.372ZM338.226 274.426V272.696H339.245V271.516H338.226V266.785H336.381L333.242 271.619V272.696H336.885V274.426H338.226ZM336.885 271.516H334.56L336.885 267.988V271.516ZM343.107 274.426V266.785H341.938L339.739 269.007L340.518 269.821L341.766 268.515V274.426H343.107ZM347.584 274.426C349.967 274.426 351.571 272.856 351.571 270.6C351.571 268.366 349.967 266.785 347.573 266.785H344.732V274.426H347.584ZM347.573 273.246H346.072V267.965H347.584C349.28 267.965 350.196 269.133 350.196 270.6C350.196 272.054 349.234 273.246 347.573 273.246ZM359.347 274.426L356.346 266.785H354.673L351.672 274.426H353.195L353.757 272.948H357.262L357.823 274.426H359.347ZM356.884 271.768H354.135L355.509 268.125L356.884 271.768ZM364.031 274.426C365.474 274.426 366.253 273.544 366.253 272.352C366.253 271.424 365.6 270.611 364.775 270.485C365.486 270.336 366.104 269.683 366.104 268.732C366.104 267.656 365.337 266.785 363.928 266.785H360.17V274.426H364.031ZM363.664 269.935H361.51V267.965H363.664C364.34 267.965 364.729 268.389 364.729 268.95C364.729 269.534 364.34 269.935 363.664 269.935ZM363.721 273.246H361.51V271.115H363.721C364.477 271.115 364.878 271.608 364.878 272.18C364.878 272.845 364.443 273.246 363.721 273.246ZM374.265 274.426V266.785H372.925V269.901H368.95V266.785H367.61V274.426H368.95V271.081H372.925V274.426H374.265ZM377.228 274.426V266.785H375.888V274.426H377.228ZM381.579 274.563C383.721 274.563 384.626 272.524 384.626 270.611C384.626 268.687 383.721 266.67 381.579 266.67C379.425 266.67 378.52 268.687 378.52 270.611C378.52 272.524 379.425 274.563 381.579 274.563ZM381.579 273.372C380.33 273.372 379.884 272.066 379.884 270.611C379.884 269.145 380.33 267.862 381.579 267.862C382.828 267.862 383.263 269.145 383.263 270.611C383.263 272.066 382.816 273.372 381.579 273.372ZM391.215 274.426V273.246H387.836C389.875 271.699 391.17 270.439 391.17 269.019C391.17 267.495 389.887 266.67 388.409 266.67C387.332 266.67 386.255 267.071 385.579 267.896L386.358 268.767C386.851 268.217 387.527 267.862 388.42 267.862C389.119 267.862 389.818 268.217 389.818 269.019C389.818 270.13 388.649 271.115 385.682 273.36V274.426H391.215ZM395.084 274.563C396.86 274.563 397.971 273.635 397.971 272.329C397.971 271.149 396.929 270.554 396.195 270.474C396.974 270.348 397.845 269.752 397.845 268.721C397.845 267.449 396.745 266.67 395.096 266.67C393.824 266.67 392.896 267.174 392.301 267.873L392.988 268.709C393.538 268.148 394.179 267.862 394.97 267.862C395.817 267.862 396.516 268.228 396.516 268.927C396.516 269.626 395.84 269.935 394.935 269.935C394.637 269.935 394.191 269.935 394.065 269.924V271.138C394.179 271.127 394.615 271.115 394.935 271.115C396.035 271.115 396.631 271.447 396.631 272.203C396.631 272.902 396.047 273.372 395.038 273.372C394.225 273.372 393.423 273.017 392.931 272.444L392.197 273.326C392.724 274.013 393.732 274.563 395.084 274.563Z" fill="white"></path><path d="M984.931 233.376V225.735H983.763L981.563 227.957L982.342 228.771L983.591 227.465V233.376H984.931ZM989.283 233.513C991.425 233.513 992.33 231.474 992.33 229.561C992.33 227.637 991.425 225.621 989.283 225.621C987.129 225.621 986.224 227.637 986.224 229.561C986.224 231.474 987.129 233.513 989.283 233.513ZM989.283 232.322C988.034 232.322 987.587 231.016 987.587 229.561C987.587 228.095 988.034 226.812 989.283 226.812C990.531 226.812 990.967 228.095 990.967 229.561C990.967 231.016 990.52 232.322 989.283 232.322ZM996.353 233.513C998.495 233.513 999.4 231.474 999.4 229.561C999.4 227.637 998.495 225.621 996.353 225.621C994.199 225.621 993.294 227.637 993.294 229.561C993.294 231.474 994.199 233.513 996.353 233.513ZM996.353 232.322C995.104 232.322 994.658 231.016 994.658 229.561C994.658 228.095 995.104 226.812 996.353 226.812C997.602 226.812 998.037 228.095 998.037 229.561C998.037 231.016 997.59 232.322 996.353 232.322ZM1008.64 233.376V225.735H1006.75L1004.67 230.982L1002.59 225.735H1000.7V233.376H1002.04V227.476L1004.39 233.376H1004.96L1007.3 227.476V233.376H1008.64ZM1015.18 233.376V229.458C1015.18 228.324 1014.58 227.705 1013.39 227.705C1012.52 227.705 1011.81 228.152 1011.44 228.588V225.735H1010.24V233.376H1011.44V229.504C1011.72 229.137 1012.24 228.771 1012.86 228.771C1013.54 228.771 1013.97 229.023 1013.97 229.893V233.376H1015.18ZM1020.89 233.376V232.322H1018.07L1020.84 228.714V227.843H1016.5V228.885H1019.22L1016.5 232.46V233.376H1020.89Z" fill="white"></path><path d="M948.158 316.567C950.208 316.567 951.113 315.467 951.113 314.196C951.113 311.355 946.669 312.237 946.669 310.805C946.669 310.244 947.173 309.854 947.952 309.854C948.754 309.854 949.567 310.129 950.174 310.736L950.93 309.74C950.231 309.052 949.258 308.663 948.078 308.663C946.394 308.663 945.294 309.637 945.294 310.908C945.294 313.715 949.739 312.718 949.739 314.322C949.739 314.837 949.315 315.376 948.215 315.376C947.15 315.376 946.314 314.872 945.798 314.31L945.042 315.353C945.729 316.063 946.749 316.567 948.158 316.567ZM957.629 316.43V315.25H954.249C956.289 313.703 957.583 312.443 957.583 311.023C957.583 309.499 956.3 308.674 954.822 308.674C953.745 308.674 952.669 309.075 951.993 309.9L952.772 310.771C953.264 310.221 953.94 309.866 954.834 309.866C955.532 309.866 956.231 310.221 956.231 311.023C956.231 312.134 955.063 313.119 952.096 315.364V316.43H957.629ZM961.818 316.567C963.525 316.567 964.74 315.559 964.74 313.978C964.74 312.409 963.583 311.515 962.288 311.515C961.555 311.515 960.936 311.813 960.558 312.168V309.969H964.224V308.789H959.218V313.05L960.169 313.325C960.661 312.867 961.2 312.672 961.841 312.672C962.781 312.672 963.376 313.211 963.376 314.024C963.376 314.78 962.781 315.376 961.807 315.376C960.959 315.376 960.26 315.055 959.756 314.459L958.989 315.387C959.608 316.109 960.513 316.567 961.818 316.567ZM967.358 316.43V313.119H971.173V311.939H967.358V309.969H971.253V308.789H966.018V316.43H967.358ZM977.09 316.43V315.25H973.722V308.789H972.382V316.43H977.09ZM980.995 316.43V308.789H979.826L977.627 311.011L978.406 311.825L979.654 310.519V316.43H980.995ZM987.912 316.43V315.25H984.533C986.572 313.703 987.867 312.443 987.867 311.023C987.867 309.499 986.584 308.674 985.106 308.674C984.029 308.674 982.952 309.075 982.276 309.9L983.055 310.771C983.548 310.221 984.224 309.866 985.117 309.866C985.816 309.866 986.515 310.221 986.515 311.023C986.515 312.134 985.346 313.119 982.379 315.364V316.43H987.912ZM992.033 316.567C993.591 316.567 994.966 315.834 994.966 314.459C994.966 313.497 994.175 312.798 993.248 312.489C994.107 312.214 994.84 311.641 994.84 310.679C994.84 309.258 993.385 308.674 992.033 308.674C990.682 308.674 989.227 309.258 989.227 310.679C989.227 311.641 989.96 312.214 990.819 312.489C989.891 312.798 989.101 313.497 989.101 314.459C989.101 315.834 990.464 316.567 992.033 316.567ZM992.033 311.951C991.575 311.87 990.59 311.595 990.59 310.885C990.59 310.232 991.208 309.866 992.033 309.866C992.858 309.866 993.477 310.232 993.477 310.885C993.477 311.595 992.503 311.87 992.033 311.951ZM992.033 315.376C991.163 315.376 990.464 314.963 990.464 314.287C990.464 313.497 991.552 313.153 992.033 313.085C992.503 313.153 993.603 313.497 993.603 314.287C993.603 314.963 992.881 315.376 992.033 315.376ZM998.88 316.567C1000.93 316.567 1001.84 315.467 1001.84 314.196C1001.84 311.355 997.391 312.237 997.391 310.805C997.391 310.244 997.895 309.854 998.674 309.854C999.476 309.854 1000.29 310.129 1000.9 310.736L1001.65 309.74C1000.95 309.052 999.98 308.663 998.8 308.663C997.116 308.663 996.016 309.637 996.016 310.908C996.016 313.715 1000.46 312.718 1000.46 314.322C1000.46 314.837 1000.04 315.376 998.938 315.376C997.872 315.376 997.036 314.872 996.52 314.31L995.764 315.353C996.452 316.063 997.471 316.567 998.88 316.567ZM1009.83 316.43L1006.83 308.789H1005.16L1002.16 316.43H1003.68L1004.24 314.952H1007.75L1008.31 316.43H1009.83ZM1007.37 313.772H1004.62L1005.99 310.129L1007.37 313.772ZM1013.93 316.579C1015.25 316.579 1016.32 316.017 1017.07 315.181V312.329H1013.45V313.509H1015.74V314.688C1015.4 315.021 1014.71 315.376 1013.93 315.376C1012.42 315.376 1011.29 314.207 1011.29 312.615C1011.29 311 1012.42 309.854 1013.93 309.854C1014.78 309.854 1015.5 310.301 1015.91 310.874L1017 310.244C1016.39 309.373 1015.42 308.663 1013.93 308.663C1011.71 308.663 1009.92 310.209 1009.92 312.615C1009.92 315.009 1011.71 316.579 1013.93 316.579ZM1025.08 316.43V308.789H1023.74V314.081L1019.84 308.789H1018.46V316.43H1019.8V310.965L1023.79 316.43H1025.08ZM1028.05 316.43V313.119H1031.86V311.939H1028.05V309.969H1031.94V308.789H1026.71V316.43H1028.05ZM1034.5 316.43V308.789H1033.16V316.43H1034.5ZM1038.85 316.567C1041 316.567 1041.9 314.528 1041.9 312.615C1041.9 310.69 1041 308.674 1038.85 308.674C1036.7 308.674 1035.8 310.69 1035.8 312.615C1035.8 314.528 1036.7 316.567 1038.85 316.567ZM1038.85 315.376C1037.61 315.376 1037.16 314.07 1037.16 312.615C1037.16 311.149 1037.61 309.866 1038.85 309.866C1040.1 309.866 1040.54 311.149 1040.54 312.615C1040.54 314.07 1040.09 315.376 1038.85 315.376ZM1045.92 316.567C1048.07 316.567 1048.97 314.528 1048.97 312.615C1048.97 310.69 1048.07 308.674 1045.92 308.674C1043.77 308.674 1042.87 310.69 1042.87 312.615C1042.87 314.528 1043.77 316.567 1045.92 316.567ZM1045.92 315.376C1044.68 315.376 1044.23 314.07 1044.23 312.615C1044.23 311.149 1044.68 309.866 1045.92 309.866C1047.17 309.866 1047.61 311.149 1047.61 312.615C1047.61 314.07 1047.16 315.376 1045.92 315.376ZM1052.99 316.567C1055.14 316.567 1056.04 314.528 1056.04 312.615C1056.04 310.69 1055.14 308.674 1052.99 308.674C1050.84 308.674 1049.94 310.69 1049.94 312.615C1049.94 314.528 1050.84 316.567 1052.99 316.567ZM1052.99 315.376C1051.75 315.376 1051.3 314.07 1051.3 312.615C1051.3 311.149 1051.75 309.866 1052.99 309.866C1054.24 309.866 1054.68 311.149 1054.68 312.615C1054.68 314.07 1054.23 315.376 1052.99 315.376Z" fill="white"></path><path d="M684.609 496.58V529.486" stroke="white" stroke-width="2.86391" stroke-miterlimit="10"></path><path d="M657.879 145.142L657.879 174.258" stroke="white" stroke-width="2.86391" stroke-miterlimit="10"></path><path d="M342.85 496.58V529.486" stroke="white" stroke-width="2.86391" stroke-miterlimit="10"></path><path d="M514.083 416.735L514.083 529.86" stroke="white" stroke-width="2.86391" stroke-miterlimit="10"></path><path d="M171.97 496.58V533.678" stroke="white" stroke-width="2.86391" stroke-miterlimit="10"></path><path d="M684.609 354.34V406.339" stroke="white" stroke-width="2.86391" stroke-miterlimit="10"></path><path d="M734.25 354.34V393.824" stroke="white" stroke-width="2.86391" stroke-miterlimit="10"></path><path d="M784.846 354.34V371.867" stroke="white" stroke-width="2.86391" stroke-miterlimit="10"></path><path d="M543.323 354.34V390.96" stroke="white" stroke-width="2.86391" stroke-miterlimit="10"></path><path d="M592.964 354.34V418.644" stroke="white" stroke-width="2.86391" stroke-miterlimit="10"></path><path d="M855.842 390.96V529.487" stroke="white" stroke-width="2.86391" stroke-miterlimit="10"></path><path d="M343.203 390.96L343.203 405.757" stroke="white" stroke-width="2.86391" stroke-miterlimit="10"></path><path d="M1027.68 370.436H785.199" stroke="white" stroke-width="2.86391" stroke-miterlimit="10"></path><path d="M856.797 392.392H734.604" stroke="white" stroke-width="2.86391" stroke-miterlimit="10"></path><path d="M544.631 389.528H341.771" stroke="white" stroke-width="2.86391" stroke-miterlimit="10"></path><path d="M514.56 449.67H410.982" stroke="white" stroke-width="2.86391" stroke-miterlimit="10"></path><path d="M677.325 504.19L684.609 496.896L691.893 504.19V498.004L684.609 490.72L677.325 498.004V504.19Z" fill="white"></path><path d="M513.605 418.167H594.399" stroke="white" stroke-width="2.86391" stroke-miterlimit="10"></path><path d="M650.596 152.884L657.88 145.591L665.163 152.884V146.698L657.88 139.414L650.596 146.698V152.884Z" fill="white"></path><path d="M726.967 361.948L734.25 354.655L741.534 361.948V355.762L734.25 348.479L726.967 355.762V361.948Z" fill="white"></path><path d="M1026.72 369.003L1026.72 529.859" stroke="white" stroke-width="2.86391" stroke-miterlimit="10"></path><path d="M677.325 361.948L684.609 354.655L691.893 361.948V355.762L684.609 348.479L677.325 355.762V361.948Z" fill="white"></path><path d="M777.562 361.948L784.846 354.655L792.13 361.948V355.762L784.846 348.479L777.562 355.762V361.948Z" fill="white"></path><path d="M335.566 504.19L342.85 496.896L350.134 504.19V498.004L342.85 490.72L335.566 498.004V504.19Z" fill="white"></path><path d="M419.679 456.601L412.385 449.317L419.679 442.033L413.493 442.033L406.209 449.317L413.493 456.601L419.679 456.601Z" fill="white"></path><path d="M691.893 520.313L684.609 527.607L677.325 520.313L677.325 526.499L684.609 533.783L691.893 526.499L691.893 520.313Z" fill="white"></path><path d="M164.687 504.19L171.97 496.896L179.254 504.19V498.004L171.97 490.72L164.687 498.004V504.19Z" fill="white"></path><path d="M585.68 361.948L592.964 354.655L600.248 361.948V355.762L592.964 348.479L585.68 355.762V361.948Z" fill="white"></path><path d="M665.163 164.234L657.879 171.528L650.596 164.234L650.596 170.42L657.879 177.704L665.163 170.42L665.163 164.234Z" fill="white"></path><path d="M536.04 361.948L543.323 354.655L550.607 361.948V355.762L543.323 348.479L536.04 355.762V361.948Z" fill="white"></path><path d="M350.134 520.313L342.85 527.607L335.566 520.313L335.566 526.499L342.85 533.783L350.134 526.499L350.134 520.313Z" fill="white"></path><path d="M350.134 398.12L342.85 405.413L335.566 398.12L335.566 404.306L342.85 411.59L350.134 404.306L350.134 398.12Z" fill="white"></path><path d="M491.172 259.697H441.531" stroke="white" stroke-width="2.86391" stroke-miterlimit="10"></path><path d="M483.534 252.061L490.828 259.344L483.534 266.628L489.721 266.628L497.004 259.344L489.721 252.061L483.534 252.061Z" fill="white"></path><path d="M450.227 266.629L442.934 259.345L450.227 252.061L444.041 252.061L436.757 259.345L444.041 266.629L450.227 266.629Z" fill="white"></path><path d="M904.529 301.701H818.611" stroke="white" stroke-width="2.86391" stroke-miterlimit="10"></path><path d="M895.937 294.064L903.23 301.348L895.937 308.632L902.123 308.632L909.407 301.348L902.123 294.064L895.937 294.064Z" fill="white"></path><path d="M829.217 308.633L821.924 301.349L829.217 294.065L823.031 294.065L815.748 301.349L823.031 308.633L829.217 308.633Z" fill="white"></path><path d="M904.529 218.647H818.611" stroke="white" stroke-width="2.86391" stroke-miterlimit="10"></path><path d="M895.937 211.011L903.23 218.295L895.937 225.578L902.123 225.578L909.407 218.295L902.123 211.011L895.937 211.011Z" fill="white"></path><path d="M829.217 225.579L821.924 218.295L829.217 211.011L823.031 211.011L815.748 218.295L823.031 225.579L829.217 225.579Z" fill="white"></path><rect x="658.233" y="370.436" width="54.4142" height="22.9112" fill="#332D37"></rect><rect x="523.629" y="406.711" width="54.4142" height="22.9112" fill="#332D37"></rect><rect x="431.984" y="380.937" width="54.4142" height="22.9112" fill="#332D37"></rect><path d="M675.152 386.163L672.96 382.661C674.043 382.488 675.085 381.619 675.085 380.042C675.085 378.385 673.923 377.249 672.158 377.249H668.243V386.163H669.806V382.835H671.37L673.335 386.163H675.152ZM671.958 381.459H669.806V378.625H671.958C672.84 378.625 673.482 379.173 673.482 380.029C673.482 380.897 672.84 381.459 671.958 381.459ZM680.938 386.337C682.475 386.337 683.731 385.682 684.6 384.706V381.378H680.377V382.755H683.05V384.132C682.649 384.519 681.847 384.934 680.938 384.934C679.174 384.934 677.864 383.57 677.864 381.713C677.864 379.828 679.174 378.492 680.938 378.492C681.927 378.492 682.769 379.013 683.25 379.681L684.52 378.946C683.811 377.93 682.675 377.102 680.938 377.102C678.345 377.102 676.26 378.906 676.26 381.713C676.26 384.506 678.345 386.337 680.938 386.337ZM695.49 386.163V377.249H693.284L690.865 383.37L688.433 377.249H686.228V386.163H687.791V379.28L690.531 386.163H691.199L693.926 379.28V386.163H695.49ZM698.951 386.163V377.249H697.387V386.163H698.951ZM702.409 386.163V377.249H700.846V386.163H702.409Z" fill="#928F94"></path><path d="M537.876 422.6C539.6 422.6 540.883 421.638 540.883 419.606V413.525H539.319V419.593C539.319 420.555 538.705 421.21 537.756 421.21C537.074 421.21 536.58 420.862 536.232 420.461L535.497 421.651C536.139 422.319 536.954 422.6 537.876 422.6ZM546.475 422.439V414.902H549.175V413.525H542.212V414.902H544.912V422.439H546.475ZM557.658 422.439L554.156 413.525H552.205L548.703 422.439H550.481L551.136 420.715H555.225L555.88 422.439H557.658ZM554.784 419.339H551.577L553.181 415.089L554.784 419.339ZM562.438 422.613C563.975 422.613 565.232 421.958 566.1 420.983V417.655H561.877V419.031H564.55V420.408C564.149 420.796 563.347 421.21 562.438 421.21C560.674 421.21 559.365 419.847 559.365 417.989C559.365 416.104 560.674 414.768 562.438 414.768C563.427 414.768 564.269 415.289 564.751 415.957L566.02 415.222C565.312 414.207 564.176 413.378 562.438 413.378C559.846 413.378 557.761 415.182 557.761 417.989C557.761 420.782 559.846 422.613 562.438 422.613Z" fill="#928F94"></path><rect x="831.976" y="461.126" width="48.6864" height="22.9112" fill="#332D37"></rect><path d="M446.744 393.006C449.337 393.006 450.607 391.523 450.607 389.317V383.931H449.016V389.277C449.016 390.694 448.228 391.616 446.744 391.616C445.261 391.616 444.472 390.694 444.472 389.277V383.931H442.882V389.317C442.882 391.523 444.165 393.006 446.744 393.006ZM460.129 392.846L456.627 383.931H454.676L451.174 392.846H452.952L453.606 391.122H457.696L458.351 392.846H460.129ZM457.255 389.745H454.048L455.651 385.495L457.255 389.745ZM467.998 392.846L465.807 389.344C466.889 389.17 467.932 388.302 467.932 386.725C467.932 385.067 466.769 383.931 465.005 383.931H461.089V392.846H462.653V389.518H464.216L466.181 392.846H467.998ZM464.804 388.141H462.653V385.308H464.804C465.686 385.308 466.328 385.856 466.328 386.711C466.328 387.58 465.686 388.141 464.804 388.141ZM473.052 392.846V385.308H475.752V383.931H468.789V385.308H471.489V392.846H473.052Z" fill="#928F94"></path><path d="M845.296 476.854V469.316H847.995V467.939H841.032V469.316H843.732V476.854H845.296ZM858.582 476.854V467.939H856.377L853.958 474.06L851.526 467.939H849.321V476.854H850.884V469.971L853.624 476.854H854.292L857.019 469.971V476.854H858.582ZM863.808 476.854C866.588 476.854 868.459 475.023 868.459 472.39C868.459 469.783 866.588 467.939 863.794 467.939H860.48V476.854H863.808ZM863.794 475.477H862.043V469.316H863.808C865.786 469.316 866.855 470.679 866.855 472.39C866.855 474.087 865.732 475.477 863.794 475.477ZM871.532 476.854V467.939H869.968V476.854H871.532Z" fill="#928F94"></path></svg> 