<svg width="1127" height="584" viewBox="0 0 1127 584" fill="none" xmlns="http://www.w3.org/2000/svg">
<rect width="1127" height="584" fill="#332D37"/>
<rect x="252.5" y="264.5" width="153" height="77" rx="8.5" stroke="white" stroke-width="3"/>
<path d="M299.764 309H302.392L307.108 296.994H304.714L301.078 306.714L297.442 296.994H295.048L299.764 309ZM306.753 304.644C306.753 307.398 308.697 309.216 311.307 309.216C312.693 309.216 313.971 308.784 314.835 307.956L313.971 306.714C313.359 307.326 312.351 307.668 311.505 307.668C309.867 307.668 308.877 306.588 308.733 305.274H315.447V304.824C315.447 302.088 313.773 300.09 311.163 300.09C308.589 300.09 306.753 302.124 306.753 304.644ZM311.163 301.638C312.873 301.638 313.575 302.916 313.611 303.942H308.715C308.805 302.88 309.543 301.638 311.163 301.638ZM317.313 309H319.203V303.078C319.581 302.466 320.643 301.926 321.435 301.926C321.669 301.926 321.867 301.944 322.029 301.98V300.108C320.895 300.108 319.851 300.756 319.203 301.584V300.306H317.313V309ZM324.489 298.866C325.137 298.866 325.659 298.344 325.659 297.696C325.659 297.048 325.137 296.526 324.489 296.526C323.859 296.526 323.319 297.048 323.319 297.696C323.319 298.344 323.859 298.866 324.489 298.866ZM323.553 309H325.443V300.306H323.553V309ZM327.895 309H329.785V296.994H327.895V309ZM337.547 309H339.437V303.24C339.437 300.9 337.745 300.09 335.819 300.09C334.433 300.09 333.173 300.54 332.165 301.494L332.939 302.808C333.695 302.07 334.541 301.71 335.513 301.71C336.719 301.71 337.547 302.322 337.547 303.33V304.626C336.917 303.888 335.909 303.51 334.739 303.51C333.317 303.51 331.715 304.338 331.715 306.336C331.715 308.262 333.317 309.216 334.739 309.216C335.891 309.216 336.899 308.802 337.547 308.064V309ZM337.547 307.02C337.115 307.614 336.305 307.92 335.477 307.92C334.415 307.92 333.623 307.308 333.623 306.372C333.623 305.418 334.415 304.806 335.477 304.806C336.305 304.806 337.115 305.112 337.547 305.706V307.02ZM344.497 309.216C345.379 309.216 345.937 308.982 346.279 308.658L345.829 307.236C345.685 307.398 345.343 307.542 344.983 307.542C344.443 307.542 344.155 307.11 344.155 306.516V301.962H345.919V300.306H344.155V297.93H342.265V300.306H340.825V301.962H342.265V306.984C342.265 308.424 343.039 309.216 344.497 309.216ZM351.559 309.216C354.349 309.216 356.041 307.146 356.041 304.644C356.041 302.16 354.349 300.09 351.559 300.09C348.805 300.09 347.095 302.16 347.095 304.644C347.095 307.146 348.805 309.216 351.559 309.216ZM351.559 307.542C349.957 307.542 349.057 306.192 349.057 304.644C349.057 303.114 349.957 301.764 351.559 301.764C353.179 301.764 354.079 303.114 354.079 304.644C354.079 306.192 353.179 307.542 351.559 307.542ZM357.953 309H359.843V303.078C360.221 302.466 361.283 301.926 362.075 301.926C362.309 301.926 362.507 301.944 362.669 301.98V300.108C361.535 300.108 360.491 300.756 359.843 301.584V300.306H357.953V309Z" fill="white"/>
<rect x="658.5" y="264.5" width="153" height="77" rx="8.5" stroke="white" stroke-width="3"/>
<path d="M690.232 309.216C692.752 309.216 694.228 307.956 695.146 306.516L693.346 305.598C692.77 306.606 691.618 307.344 690.232 307.344C687.946 307.344 686.182 305.526 686.182 303.006C686.182 300.486 687.946 298.668 690.232 298.668C691.618 298.668 692.77 299.424 693.346 300.414L695.146 299.496C694.246 298.056 692.752 296.796 690.232 296.796C686.776 296.796 684.022 299.316 684.022 303.006C684.022 306.696 686.776 309.216 690.232 309.216ZM700.562 303.546H703.892V302.322H700.562V298.722H699.23V302.322H695.9V303.546H699.23V307.272H700.562V303.546ZM709.597 303.546H712.927V302.322H709.597V298.722H708.265V302.322H704.935V303.546H708.265V307.272H709.597V303.546ZM718.755 304.644C718.755 307.29 720.609 309.216 723.255 309.216C724.947 309.216 725.973 308.496 726.585 307.668L725.343 306.516C724.857 307.182 724.191 307.542 723.345 307.542C721.761 307.542 720.717 306.336 720.717 304.644C720.717 302.952 721.761 301.764 723.345 301.764C724.191 301.764 724.857 302.106 725.343 302.79L726.585 301.638C725.973 300.81 724.947 300.09 723.255 300.09C720.609 300.09 718.755 302.016 718.755 304.644ZM732.167 309.216C734.957 309.216 736.649 307.146 736.649 304.644C736.649 302.16 734.957 300.09 732.167 300.09C729.413 300.09 727.703 302.16 727.703 304.644C727.703 307.146 729.413 309.216 732.167 309.216ZM732.167 307.542C730.565 307.542 729.665 306.192 729.665 304.644C729.665 303.114 730.565 301.764 732.167 301.764C733.787 301.764 734.687 303.114 734.687 304.644C734.687 306.192 733.787 307.542 732.167 307.542ZM749.217 309H751.107V302.718C751.107 300.954 750.207 300.09 748.605 300.09C747.309 300.09 746.157 300.9 745.653 301.692C745.365 300.738 744.573 300.09 743.277 300.09C741.963 300.09 740.811 300.954 740.451 301.494V300.306H738.561V309H740.451V302.934C740.847 302.358 741.621 301.764 742.449 301.764C743.475 301.764 743.889 302.394 743.889 303.33V309H745.779V302.916C746.157 302.358 746.949 301.764 747.795 301.764C748.803 301.764 749.217 302.394 749.217 303.33V309ZM755.445 312.312V307.794C756.147 308.73 757.137 309.216 758.235 309.216C760.485 309.216 762.087 307.506 762.087 304.644C762.087 301.782 760.485 300.09 758.235 300.09C757.101 300.09 756.093 300.63 755.445 301.494V300.306H753.555V312.312H755.445ZM760.125 304.644C760.125 306.336 759.171 307.542 757.677 307.542C756.795 307.542 755.859 307.002 755.445 306.372V302.934C755.859 302.286 756.795 301.764 757.677 301.764C759.171 301.764 760.125 302.97 760.125 304.644ZM764.932 298.866C765.58 298.866 766.102 298.344 766.102 297.696C766.102 297.048 765.58 296.526 764.932 296.526C764.302 296.526 763.762 297.048 763.762 297.696C763.762 298.344 764.302 298.866 764.932 298.866ZM763.996 309H765.886V300.306H763.996V309ZM768.338 309H770.228V296.994H768.338V309ZM772.14 304.644C772.14 307.398 774.084 309.216 776.694 309.216C778.08 309.216 779.358 308.784 780.222 307.956L779.358 306.714C778.746 307.326 777.738 307.668 776.892 307.668C775.254 307.668 774.264 306.588 774.12 305.274H780.834V304.824C780.834 302.088 779.16 300.09 776.55 300.09C773.976 300.09 772.14 302.124 772.14 304.644ZM776.55 301.638C778.26 301.638 778.962 302.916 778.998 303.942H774.102C774.192 302.88 774.93 301.638 776.55 301.638ZM782.7 309H784.59V303.078C784.968 302.466 786.03 301.926 786.822 301.926C787.056 301.926 787.254 301.944 787.416 301.98V300.108C786.282 300.108 785.238 300.756 784.59 301.584V300.306H782.7V309Z" fill="white"/>
<rect x="893.5" y="264.5" width="153" height="77" rx="8.5" stroke="white" stroke-width="3"/>
<path d="M929.142 296.866C930.042 297.748 931.392 298.216 932.868 298.216C935.208 298.216 936.486 297.046 936.486 295.516C936.486 293.464 934.632 293.032 933.12 292.708C932.094 292.474 931.23 292.24 931.23 291.574C931.23 290.962 931.86 290.602 932.85 290.602C933.93 290.602 934.902 291.052 935.424 291.646L936.216 290.314C935.424 289.612 934.308 289.09 932.832 289.09C930.636 289.09 929.412 290.314 929.412 291.736C929.412 293.68 931.194 294.076 932.688 294.4C933.75 294.634 934.668 294.904 934.668 295.66C934.668 296.308 934.092 296.722 932.958 296.722C931.824 296.722 930.618 296.128 930.006 295.498L929.142 296.866ZM939.324 287.866C939.972 287.866 940.494 287.344 940.494 286.696C940.494 286.048 939.972 285.526 939.324 285.526C938.694 285.526 938.154 286.048 938.154 286.696C938.154 287.344 938.694 287.866 939.324 287.866ZM938.388 298H940.278V289.306H938.388V298ZM953.386 298H955.276V291.718C955.276 289.954 954.376 289.09 952.774 289.09C951.478 289.09 950.326 289.9 949.822 290.692C949.534 289.738 948.742 289.09 947.446 289.09C946.132 289.09 944.98 289.954 944.62 290.494V289.306H942.73V298H944.62V291.934C945.016 291.358 945.79 290.764 946.618 290.764C947.644 290.764 948.058 291.394 948.058 292.33V298H949.948V291.916C950.326 291.358 951.118 290.764 951.964 290.764C952.972 290.764 953.386 291.394 953.386 292.33V298ZM963.592 298H965.482V289.306H963.592V295.408C963.142 296.002 962.314 296.542 961.36 296.542C960.298 296.542 959.614 296.128 959.614 294.778V289.306H957.724V295.462C957.724 297.244 958.642 298.216 960.514 298.216C961.882 298.216 962.962 297.55 963.592 296.848V298ZM967.937 298H969.827V285.994H967.937V298ZM977.589 298H979.479V292.24C979.479 289.9 977.787 289.09 975.861 289.09C974.475 289.09 973.215 289.54 972.207 290.494L972.981 291.808C973.737 291.07 974.583 290.71 975.555 290.71C976.761 290.71 977.589 291.322 977.589 292.33V293.626C976.959 292.888 975.951 292.51 974.781 292.51C973.359 292.51 971.757 293.338 971.757 295.336C971.757 297.262 973.359 298.216 974.781 298.216C975.933 298.216 976.941 297.802 977.589 297.064V298ZM977.589 296.02C977.157 296.614 976.347 296.92 975.519 296.92C974.457 296.92 973.665 296.308 973.665 295.372C973.665 294.418 974.457 293.806 975.519 293.806C976.347 293.806 977.157 294.112 977.589 294.706V296.02ZM984.539 298.216C985.421 298.216 985.979 297.982 986.321 297.658L985.871 296.236C985.727 296.398 985.385 296.542 985.025 296.542C984.485 296.542 984.197 296.11 984.197 295.516V290.962H985.961V289.306H984.197V286.93H982.307V289.306H980.867V290.962H982.307V295.984C982.307 297.424 983.081 298.216 984.539 298.216ZM988.613 287.866C989.261 287.866 989.783 287.344 989.783 286.696C989.783 286.048 989.261 285.526 988.613 285.526C987.983 285.526 987.443 286.048 987.443 286.696C987.443 287.344 987.983 287.866 988.613 287.866ZM987.677 298H989.567V289.306H987.677V298ZM995.943 298.216C998.733 298.216 1000.42 296.146 1000.42 293.644C1000.42 291.16 998.733 289.09 995.943 289.09C993.189 289.09 991.479 291.16 991.479 293.644C991.479 296.146 993.189 298.216 995.943 298.216ZM995.943 296.542C994.341 296.542 993.441 295.192 993.441 293.644C993.441 292.114 994.341 290.764 995.943 290.764C997.563 290.764 998.463 292.114 998.463 293.644C998.463 295.192 997.563 296.542 995.943 296.542ZM1008.21 298H1010.1V291.88C1010.1 290.098 1009.16 289.09 1007.29 289.09C1005.92 289.09 1004.8 289.81 1004.23 290.494V289.306H1002.34V298H1004.23V291.934C1004.66 291.34 1005.49 290.764 1006.46 290.764C1007.52 290.764 1008.21 291.214 1008.21 292.564V298ZM927.099 315.644C927.099 318.398 929.043 320.216 931.653 320.216C933.039 320.216 934.317 319.784 935.181 318.956L934.317 317.714C933.705 318.326 932.697 318.668 931.851 318.668C930.213 318.668 929.223 317.588 929.079 316.274H935.793V315.824C935.793 313.088 934.119 311.09 931.509 311.09C928.935 311.09 927.099 313.124 927.099 315.644ZM931.509 312.638C933.219 312.638 933.921 313.916 933.957 314.942H929.061C929.151 313.88 929.889 312.638 931.509 312.638ZM942.428 320H944.552L941.348 315.536L944.354 311.306H942.23L940.178 314.258L938.108 311.306H935.984L938.99 315.536L935.804 320H937.91L940.178 316.796L942.428 320ZM944.871 315.644C944.871 318.398 946.815 320.216 949.425 320.216C950.811 320.216 952.089 319.784 952.953 318.956L952.089 317.714C951.477 318.326 950.469 318.668 949.623 318.668C947.985 318.668 946.995 317.588 946.851 316.274H953.565V315.824C953.565 313.088 951.891 311.09 949.281 311.09C946.707 311.09 944.871 313.124 944.871 315.644ZM949.281 312.638C950.991 312.638 951.693 313.916 951.729 314.942H946.833C946.923 313.88 947.661 312.638 949.281 312.638ZM954.89 315.644C954.89 318.29 956.744 320.216 959.39 320.216C961.082 320.216 962.108 319.496 962.72 318.668L961.478 317.516C960.992 318.182 960.326 318.542 959.48 318.542C957.896 318.542 956.852 317.336 956.852 315.644C956.852 313.952 957.896 312.764 959.48 312.764C960.326 312.764 960.992 313.106 961.478 313.79L962.72 312.638C962.108 311.81 961.082 311.09 959.39 311.09C956.744 311.09 954.89 313.016 954.89 315.644ZM970.245 320H972.135V311.306H970.245V317.408C969.795 318.002 968.967 318.542 968.013 318.542C966.951 318.542 966.267 318.128 966.267 316.778V311.306H964.377V317.462C964.377 319.244 965.295 320.216 967.167 320.216C968.535 320.216 969.615 319.55 970.245 318.848V320ZM977.2 320.216C978.082 320.216 978.64 319.982 978.982 319.658L978.532 318.236C978.388 318.398 978.046 318.542 977.686 318.542C977.146 318.542 976.858 318.11 976.858 317.516V312.962H978.622V311.306H976.858V308.93H974.968V311.306H973.528V312.962H974.968V317.984C974.968 319.424 975.742 320.216 977.2 320.216ZM985.648 320H987.538V314.24C987.538 311.9 985.846 311.09 983.92 311.09C982.534 311.09 981.274 311.54 980.266 312.494L981.04 313.808C981.796 313.07 982.642 312.71 983.614 312.71C984.82 312.71 985.648 313.322 985.648 314.33V315.626C985.018 314.888 984.01 314.51 982.84 314.51C981.418 314.51 979.816 315.338 979.816 317.336C979.816 319.262 981.418 320.216 982.84 320.216C983.992 320.216 985 319.802 985.648 319.064V320ZM985.648 318.02C985.216 318.614 984.406 318.92 983.578 318.92C982.516 318.92 981.724 318.308 981.724 317.372C981.724 316.418 982.516 315.806 983.578 315.806C984.406 315.806 985.216 316.112 985.648 316.706V318.02ZM989.989 320H991.879V318.812C992.545 319.676 993.535 320.216 994.669 320.216C996.883 320.216 998.521 318.524 998.521 315.662C998.521 312.854 996.901 311.09 994.669 311.09C993.571 311.09 992.563 311.594 991.879 312.512V307.994H989.989V320ZM991.879 317.39V313.952C992.293 313.304 993.229 312.764 994.111 312.764C995.623 312.764 996.577 313.97 996.577 315.662C996.577 317.354 995.623 318.542 994.111 318.542C993.229 318.542 992.293 318.038 991.879 317.39ZM1000.45 320H1002.34V307.994H1000.45V320ZM1004.25 315.644C1004.25 318.398 1006.19 320.216 1008.8 320.216C1010.19 320.216 1011.47 319.784 1012.33 318.956L1011.47 317.714C1010.86 318.326 1009.85 318.668 1009 318.668C1007.36 318.668 1006.37 317.588 1006.23 316.274H1012.94V315.824C1012.94 313.088 1011.27 311.09 1008.66 311.09C1006.09 311.09 1004.25 313.124 1004.25 315.644ZM1008.66 312.638C1010.37 312.638 1011.07 313.916 1011.11 314.942H1006.21C1006.3 313.88 1007.04 312.638 1008.66 312.638Z" fill="white"/>
<path d="M486 238.69V344.44C486 345.949 486.599 347.396 487.667 348.463C488.734 349.531 490.181 350.13 491.69 350.13H571.81C573.32 350.13 574.768 349.531 575.837 348.464C576.906 347.397 577.507 345.95 577.51 344.44V254.59C577.504 253.088 576.904 251.65 575.84 250.59L559.95 234.67C558.889 233.608 557.451 233.008 555.95 233H491.69C490.181 233 488.734 233.599 487.667 234.667C486.599 235.734 486 237.181 486 238.69Z" fill="#332D37" stroke="white" stroke-width="2.94712" stroke-miterlimit="10"/>
<path d="M522.866 287.216C525.386 287.216 526.862 285.956 527.78 284.516L525.98 283.598C525.404 284.606 524.252 285.344 522.866 285.344C520.58 285.344 518.816 283.526 518.816 281.006C518.816 278.486 520.58 276.668 522.866 276.668C524.252 276.668 525.404 277.424 525.98 278.414L527.78 277.496C526.88 276.056 525.386 274.796 522.866 274.796C519.41 274.796 516.656 277.316 516.656 281.006C516.656 284.696 519.41 287.216 522.866 287.216ZM533.196 281.546H536.526V280.322H533.196V276.722H531.864V280.322H528.534V281.546H531.864V285.272H533.196V281.546ZM542.231 281.546H545.561V280.322H542.231V276.722H540.899V280.322H537.569V281.546H540.899V285.272H542.231V281.546ZM511.812 304.644C511.812 307.29 513.666 309.216 516.312 309.216C518.004 309.216 519.03 308.496 519.642 307.668L518.4 306.516C517.914 307.182 517.248 307.542 516.402 307.542C514.818 307.542 513.774 306.336 513.774 304.644C513.774 302.952 514.818 301.764 516.402 301.764C517.248 301.764 517.914 302.106 518.4 302.79L519.642 301.638C519.03 300.81 518.004 300.09 516.312 300.09C513.666 300.09 511.812 302.016 511.812 304.644ZM525.223 309.216C528.013 309.216 529.705 307.146 529.705 304.644C529.705 302.16 528.013 300.09 525.223 300.09C522.469 300.09 520.759 302.16 520.759 304.644C520.759 307.146 522.469 309.216 525.223 309.216ZM525.223 307.542C523.621 307.542 522.721 306.192 522.721 304.644C522.721 303.114 523.621 301.764 525.223 301.764C526.843 301.764 527.743 303.114 527.743 304.644C527.743 306.192 526.843 307.542 525.223 307.542ZM537.738 309H539.628V296.994H537.738V301.512C537.036 300.594 536.028 300.09 534.948 300.09C532.698 300.09 531.078 301.854 531.078 304.662C531.078 307.524 532.716 309.216 534.948 309.216C536.064 309.216 537.072 308.676 537.738 307.812V309ZM537.738 306.39C537.306 307.038 536.388 307.542 535.488 307.542C533.994 307.542 533.04 306.336 533.04 304.662C533.04 302.97 533.994 301.764 535.488 301.764C536.388 301.764 537.306 302.286 537.738 302.934V306.39ZM541.537 304.644C541.537 307.398 543.481 309.216 546.091 309.216C547.477 309.216 548.755 308.784 549.619 307.956L548.755 306.714C548.143 307.326 547.135 307.668 546.289 307.668C544.651 307.668 543.661 306.588 543.517 305.274H550.231V304.824C550.231 302.088 548.557 300.09 545.947 300.09C543.373 300.09 541.537 302.124 541.537 304.644ZM545.947 301.638C547.657 301.638 548.359 302.916 548.395 303.942H543.499C543.589 302.88 544.327 301.638 545.947 301.638Z" fill="white"/>
<path d="M556.5 253.5V233L577 251V253.5H556.5Z" fill="white"/>
<path d="M80 238.69V344.44C80 345.949 80.5995 347.396 81.6666 348.463C82.7336 349.531 84.1809 350.13 85.69 350.13H165.81C167.32 350.13 168.768 349.531 169.837 348.464C170.906 347.397 171.507 345.95 171.51 344.44V254.59C171.504 253.088 170.904 251.65 169.84 250.59L153.95 234.67C152.889 233.608 151.451 233.008 149.95 233H85.69C84.1809 233 82.7336 233.599 81.6666 234.667C80.5995 235.734 80 237.181 80 238.69Z" fill="#332D37" stroke="white" stroke-width="2.94712" stroke-miterlimit="10"/>
<path d="M101.863 287H104.491L109.207 274.994H106.813L103.177 284.714L99.5409 274.994H97.1469L101.863 287ZM108.852 282.644C108.852 285.398 110.796 287.216 113.406 287.216C114.792 287.216 116.07 286.784 116.934 285.956L116.07 284.714C115.458 285.326 114.45 285.668 113.604 285.668C111.966 285.668 110.976 284.588 110.832 283.274H117.546V282.824C117.546 280.088 115.872 278.09 113.262 278.09C110.688 278.09 108.852 280.124 108.852 282.644ZM113.262 279.638C114.972 279.638 115.674 280.916 115.71 281.942H110.814C110.904 280.88 111.642 279.638 113.262 279.638ZM119.412 287H121.302V281.078C121.68 280.466 122.742 279.926 123.534 279.926C123.768 279.926 123.966 279.944 124.128 279.98V278.108C122.994 278.108 121.95 278.756 121.302 279.584V278.306H119.412V287ZM126.588 276.866C127.236 276.866 127.758 276.344 127.758 275.696C127.758 275.048 127.236 274.526 126.588 274.526C125.958 274.526 125.418 275.048 125.418 275.696C125.418 276.344 125.958 276.866 126.588 276.866ZM125.652 287H127.542V278.306H125.652V287ZM129.994 287H131.884V274.994H129.994V287ZM138.259 287.216C141.049 287.216 142.741 285.146 142.741 282.644C142.741 280.16 141.049 278.09 138.259 278.09C135.505 278.09 133.795 280.16 133.795 282.644C133.795 285.146 135.505 287.216 138.259 287.216ZM138.259 285.542C136.657 285.542 135.757 284.192 135.757 282.644C135.757 281.114 136.657 279.764 138.259 279.764C139.879 279.764 140.779 281.114 140.779 282.644C140.779 284.192 139.879 285.542 138.259 285.542ZM144.546 289.232C145.608 290.204 146.706 290.528 148.182 290.528C150.324 290.528 152.646 289.682 152.646 286.55V278.306H150.756V279.512C150.054 278.594 149.064 278.09 147.966 278.09C145.734 278.09 144.114 279.746 144.114 282.554C144.114 285.416 145.752 287.018 147.966 287.018C149.1 287.018 150.09 286.442 150.756 285.578V286.622C150.756 288.404 149.424 288.98 148.182 288.98C147.03 288.98 146.13 288.674 145.428 287.864L144.546 289.232ZM150.756 284.174C150.342 284.822 149.406 285.344 148.524 285.344C147.03 285.344 146.076 284.228 146.076 282.554C146.076 280.88 147.03 279.764 148.524 279.764C149.406 279.764 150.342 280.286 150.756 280.934V284.174ZM106.312 304.644C106.312 307.29 108.166 309.216 110.812 309.216C112.504 309.216 113.53 308.496 114.142 307.668L112.9 306.516C112.414 307.182 111.748 307.542 110.902 307.542C109.318 307.542 108.274 306.336 108.274 304.644C108.274 302.952 109.318 301.764 110.902 301.764C111.748 301.764 112.414 302.106 112.9 302.79L114.142 301.638C113.53 300.81 112.504 300.09 110.812 300.09C108.166 300.09 106.312 302.016 106.312 304.644ZM119.723 309.216C122.513 309.216 124.205 307.146 124.205 304.644C124.205 302.16 122.513 300.09 119.723 300.09C116.969 300.09 115.259 302.16 115.259 304.644C115.259 307.146 116.969 309.216 119.723 309.216ZM119.723 307.542C118.121 307.542 117.221 306.192 117.221 304.644C117.221 303.114 118.121 301.764 119.723 301.764C121.343 301.764 122.243 303.114 122.243 304.644C122.243 306.192 121.343 307.542 119.723 307.542ZM132.238 309H134.128V296.994H132.238V301.512C131.536 300.594 130.528 300.09 129.448 300.09C127.198 300.09 125.578 301.854 125.578 304.662C125.578 307.524 127.216 309.216 129.448 309.216C130.564 309.216 131.572 308.676 132.238 307.812V309ZM132.238 306.39C131.806 307.038 130.888 307.542 129.988 307.542C128.494 307.542 127.54 306.336 127.54 304.662C127.54 302.97 128.494 301.764 129.988 301.764C130.888 301.764 131.806 302.286 132.238 302.934V306.39ZM136.037 304.644C136.037 307.398 137.981 309.216 140.591 309.216C141.977 309.216 143.255 308.784 144.119 307.956L143.255 306.714C142.643 307.326 141.635 307.668 140.789 307.668C139.151 307.668 138.161 306.588 138.017 305.274H144.731V304.824C144.731 302.088 143.057 300.09 140.447 300.09C137.873 300.09 136.037 302.124 136.037 304.644ZM140.447 301.638C142.157 301.638 142.859 302.916 142.895 303.942H137.999C138.089 302.88 138.827 301.638 140.447 301.638Z" fill="white"/>
<path d="M152 255.5V235L172.5 253V255.5H152Z" fill="white"/>
<rect width="3" height="31" transform="matrix(-4.39062e-08 1 1 4.35174e-08 193 302)" fill="white"/>
<path d="M224.125 297L218.579 297L224.125 301.916L224.125 305L218.579 309.916L224.125 309.916L230.779 304.366L230.779 302.4L224.125 297Z" fill="white"/>
<rect width="3" height="31" transform="matrix(-4.39062e-08 1 1 4.35174e-08 425 302)" fill="white"/>
<path d="M456.125 297L450.579 297L456.125 301.916L456.125 305L450.579 309.916L456.125 309.916L462.779 304.366L462.779 302.4L456.125 297Z" fill="white"/>
<rect width="3" height="31" transform="matrix(-4.39062e-08 1 1 4.35174e-08 598 302)" fill="white"/>
<path d="M629.125 297L623.579 297L629.125 301.916L629.125 305L623.579 309.916L629.125 309.916L635.779 304.366L635.779 302.4L629.125 297Z" fill="white"/>
<rect width="3" height="31" transform="matrix(-4.39062e-08 1 1 4.35174e-08 833 302)" fill="white"/>
<path d="M864.125 297L858.579 297L864.125 301.916L864.125 305L858.579 309.916L864.125 309.916L870.779 304.366L870.779 302.4L864.125 297Z" fill="white"/>
</svg>
