<?xml version="1.0" encoding="UTF-8"?> <svg xmlns="http://www.w3.org/2000/svg" role="img" viewBox="116.98 13.61 143.91 44.53"><style>svg {enable-background:new 0 0 378 72}</style><style>.st0{fill:#002e5d}</style><path d="M135.5 31.2v-6.7c0-.5-.1-.9-.1-.9s.5.1.9.1h5c3.8 0 6.1.6 6.1 4.1 0 2.3-1.4 4.3-5.9 4.3h-5.2c-.5 0-.9.1-.9.1s.1-.5.1-1m0 15.4v-7.7c0-.5-.1-.9-.1-.9s.5.1.9.1h4.3c3.4 0 7.6 0 7.6 4.7 0 3.5-3 4.7-7 4.7h-4.8c-.5 0-.9.1-.9.1v-1m-12.2-27.1v32.2c0 1 .1 1.4-.7 1.9-.7.4-1.5.5-2.7.7-.1 0-.1.5 0 .5H146c11 0 15.6-4.4 15.6-11.2 0-5-2.3-8.1-7-9.3-.1 0-.1-.1 0-.1 3-.9 5.7-3.1 5.7-8.3 0-7.1-4.8-9.5-15.3-9.5h-25c-.1 0-.1.5 0 .5 1.2.2 1.9.3 2.7.7.7.5.6.9.6 1.9" class="st0"></path><path d="M254.7 19.5c0-1-.1-1.4.7-1.9.7-.5 1.5-.5 2.7-.7.1 0 .1-.5 0-.5h-19.2c-.1 0-.1.4 0 .5 1.2.2 1.8.3 2.5.7.7.5.7.8.7 1.9v19.4c0 4.4-2.5 7.8-7.6 7.8-5 0-7.6-3.4-7.6-7.8V19.5c0-1-.1-1.4.7-1.9.7-.4 1.3-.6 2.5-.7.1 0 .1-.5 0-.5H212c-.1 0-.1.5 0 .5.7 0 1.1.1 1.5.4.6.5.7 1.1.7 2.2v19c0 9.2 5 17 20.3 17 15.2 0 20.3-7.8 20.3-17l-.1-19z" class="st0"></path><path d="M196.4 54.9c.1 0 .1-.5 0-.5-1.2-.2-1.9-.3-2.7-.7-.7-.5-.7-.8-.7-1.9V39.5l13.3-19.7c.7-1.1 1.2-1.6 1.8-2.2.1-.1.3-.2.5-.3.5-.3.8-.3 1.4-.4.1 0 .2-.5 0-.5h-17.9c-.1 0-.1.5 0 .5.9 0 1.9 0 1.8 1.3-.1 1.2-5.3 8.7-7.1 11.5-.3.4-.5.8-.6 1.3-.1-.5-.4-1-.6-1.3-2.6-3.8-7-10-7.1-11.5-.1-1.3.9-1.3 1.8-1.3.1 0 .2-.5 0-.5h-18.8c-.1 0-.1.4 0 .5.8.1 1.2 0 2.2.5.1.1.4.2.5.3.6.5 1 1 1.7 2.1l13.3 19.7v12.3c0 1 .1 1.4-.7 1.9-.7.4-1.5.5-2.7.7-.1 0-.1.5 0 .5h20.6z" class="st0"></path></svg> 