<?xml version="1.0" encoding="UTF-8"?> <svg xmlns="http://www.w3.org/2000/svg" xmlns:xlink="http://www.w3.org/1999/xlink" version="1.1" x="0" y="0" width="400" height="200" viewBox="0, 0, 400, 200"><defs><clipPath id="Clip_1"><path d="M18.901,71.277 L381.099,71.277 L381.099,128.723 L18.901,128.723 z"></path></clipPath></defs><g id="Layer_1"><g><g clip-path="url(#Clip_1)"><path d="M50.981,89.245 C50.981,97.596 45.916,105.185 36.053,106.963 L49.968,123.408 L51.227,121.643 L76.287,86.205 L76.287,71.277 L35.546,71.277 C45.916,72.289 50.981,80.89 50.981,89.245" fill="#EBAC2C"></path><path d="M58.06,126.189 L76.533,100.376 L76.533,128.723 L56.208,128.723 L58.06,126.189 z M22.387,99.364 L32,99.364 C39.08,99.364 42.629,94.309 42.629,89.245 C42.629,84.177 39.08,79.372 32,79.372 L18.841,79.372 L18.841,128.723 L43.395,128.723 L22.387,103.416 L22.387,99.364" fill="#292E5D"></path></g><path d="M160.808,80.89 L169.162,80.89 L169.162,120.121 L160.808,120.121 z" fill="#292E5D"></path><path d="M218.938,111.537 L175.488,111.512 L175.488,120.122 L219.266,120.122 C222.553,120.122 225.346,118.85 227.62,116.576 C229.895,114.304 231.166,111.512 231.166,108.225 C231.166,104.938 229.895,102.158 227.62,99.87 C225.346,97.596 222.553,96.337 219.266,96.337 L187.419,96.099 C185.541,96.085 184.023,94.566 184.009,92.688 C184.023,90.801 185.555,89.279 187.442,89.277 L231.166,89.245 L231.166,80.89 L187.386,80.89 C184.087,80.89 181.306,82.162 179.035,84.436 C176.761,86.711 175.488,89.504 175.488,92.791 C175.488,96.077 176.761,98.858 179.035,101.142 C181.306,103.416 184.087,104.428 187.386,104.428 L219.197,104.43 C221.087,104.43 222.616,105.965 222.609,107.854 C222.616,109.887 220.97,111.538 218.938,111.537" fill="#292E5D"></path><path d="M254.696,80.89 L290.887,80.89 L290.887,89.245 L254.696,89.245 C251.668,89.245 249.134,90.244 246.847,92.531 C244.572,94.806 243.561,97.337 243.561,100.376 C243.561,103.404 244.572,105.938 246.847,108.225 C249.134,110.496 251.668,111.512 254.696,111.512 L290.887,111.512 L290.885,120.122 L254.714,120.122 C249.4,120.122 244.832,118.085 241.027,114.292 C237.234,110.496 235.465,105.938 235.465,100.623 C235.465,95.312 237.234,90.75 241.027,86.958 C244.832,82.918 249.381,80.89 254.696,80.89" fill="#292E5D"></path><path d="M154.74,120.122 L143.606,104.679 C146.633,104.428 149.167,103.416 151.195,101.142 C153.469,98.858 154.74,96.077 154.74,92.791 C154.74,89.504 153.469,86.711 151.195,84.436 C148.92,82.162 146.127,80.89 142.84,80.89 L99.06,80.89 L99.06,120.122 L107.414,120.122 L107.414,104.679 L133.227,104.679 L144.362,120.122 L154.74,120.122 z M142.34,96.646 L107.414,96.584 L107.414,89.504 L142.687,89.432 C144.588,89.429 146.134,90.964 146.143,92.866 C146.134,94.958 144.433,96.649 142.34,96.646" fill="#292E5D"></path><path d="M332.64,120.122 L309.715,80.89 L319.528,80.89 L337.447,112.017 L355.377,80.89 L365.039,80.89 L342.253,120.122" fill="#EBAC2C"></path><path d="M295.954,96.83 L312.401,96.83 L312.401,104.428 L295.954,104.428 z" fill="#EBAC2C"></path><path d="M374.014,86.89 L374.674,86.89 C375.446,86.89 376.07,86.633 376.07,86.009 C376.07,85.458 375.666,85.091 374.785,85.091 C374.417,85.091 374.161,85.128 374.014,85.164 L374.014,86.89 z M373.977,90.304 L372.582,90.304 L372.582,84.283 C373.133,84.174 373.904,84.1 374.895,84.1 C376.033,84.1 376.547,84.283 376.988,84.54 C377.318,84.798 377.574,85.275 377.574,85.862 C377.574,86.523 377.061,87.037 376.326,87.257 L376.326,87.331 C376.914,87.55 377.244,87.991 377.428,88.799 C377.612,89.717 377.722,90.084 377.868,90.304 L376.363,90.304 C376.18,90.084 376.07,89.533 375.886,88.836 C375.776,88.175 375.409,87.881 374.638,87.881 L373.977,87.881 L373.977,90.304 z M370.269,87.147 C370.269,89.827 372.251,91.956 374.968,91.956 C377.612,91.956 379.557,89.827 379.557,87.184 C379.557,84.504 377.612,82.338 374.932,82.338 C372.251,82.338 370.269,84.504 370.269,87.147 z M381.099,87.147 C381.099,90.561 378.419,93.241 374.932,93.241 C371.481,93.241 368.727,90.561 368.727,87.147 C368.727,83.806 371.481,81.126 374.932,81.126 C378.419,81.126 381.099,83.806 381.099,87.147" fill="#292E5D"></path></g></g></svg> 