<?xml version="1.0" encoding="UTF-8"?>
<svg id="_レイヤー_1" data-name=" レイヤー 1" xmlns="http://www.w3.org/2000/svg" version="1.1" viewBox="0 0 322.5 327.8">
  <defs>
    <style>
      .cls-1 {
        fill: #3d3a39;
      }

      .cls-1, .cls-2 {
        stroke-width: 0px;
      }

      .cls-2 {
        fill: #De2f77;
      }
    </style>
  </defs>
  <g>
    <g>
      <rect class="cls-2" x="159.6" y="87.1" width="33" height="74.9" transform="translate(-36.5 161) rotate(-45)"/>
      <rect class="cls-2" x="147.5" y="159.1" width="33" height="25.3" transform="translate(-73.4 166.3) rotate(-45)"/>
      <rect class="cls-2" x="117.9" y="121.7" width="33" height="40.7" transform="translate(-61.1 136.7) rotate(-45)"/>
    </g>
    <g>
      <path class="cls-2" d="M95,74.3c-40.3,43.3-27,92.1-11.4,115.7,23.8,14.5,50.7,15.6,71,9.5-31.8-9.4-83.2-55.7-59.6-125.2h0Z"/>
      <path class="cls-2" d="M227.5,204.5c40.3-43.3,27-92.1,11.4-115.7-23.8-14.5-50.7-15.5-71-9.5,31.8,9.4,83.2,55.7,59.6,125.2h0Z"/>
      <path class="cls-2" d="M226.3,73.2c-43.3-40.3-92.1-27-115.7-11.4-14.5,23.8-15.5,50.7-9.5,71,9.4-31.8,55.7-83.2,125.2-59.6h0Z"/>
      <path class="cls-2" d="M96.3,205.6c43.3,40.3,92.1,27,115.7,11.4,14.5-23.8,15.6-50.7,9.5-71-9.4,31.8-55.7,83.2-125.2,59.6h0Z"/>
    </g>
  </g>
  <g>
    <path class="cls-1" d="M73.7,273.4c-1.7,5.9-7.6,7.9-15.7,7.9s-12.9-2-11.2-7.9l3.7-12.9c1.7-5.8,7.6-7.8,15.7-7.8s12.9,2,11.2,7.8c0,0-3.7,12.9-3.7,12.9ZM69.9,262c.9-3.1-1.8-3.4-5.4-3.4s-6.4.3-7.3,3.4l-2.8,9.9c-.9,3,1.8,3.4,5.4,3.4s6.4-.3,7.3-3.4l2.9-9.9h0Z"/>
    <path class="cls-1" d="M107.3,264.8c-1.5,5.3-6.5,7.1-13.7,7.1h-6.6l-2.5,8.9c-2,.2-5,.2-7.1,0l7.9-27.6h13.7c7.2,0,11.1,1.9,9.6,7.2,0,0-1.2,4.3-1.2,4.3ZM101,262.1c.7-2.5-1.2-2.9-3.9-2.9h-6.5l-2,7h6.5c2.6,0,4.8-.4,5.5-2.8l.4-1.3h0Z"/>
    <path class="cls-1" d="M108.1,280.8l7.9-27.6h21.9c-.3,1.7-1,4-1.6,5.7h-14.8l-1.5,5.3h14.4c-.3,1.6-.9,4-1.6,5.6h-14.4l-1.5,5.4h14.8c-.3,1.6-1,4-1.6,5.7h-21.9Z"/>
    <path class="cls-1" d="M147.8,263.4l-5,17.4c-2.3.2-4.9.2-7.1,0l7.9-27.6c2.5-.2,5.2-.2,7.6,0l7.2,17.8,5.1-17.8c2.6-.2,4.8-.2,7.1,0l-7.9,27.6c-2.7.2-5.2.2-7.8,0l-7.2-17.4h0Z"/>
    <path class="cls-2" d="M197.1,274.8c-1.4,4.7-6.6,6.5-14.3,6.5s-7.1-.2-10.7-.6c.2-1.6.9-4.2,1.7-5.8,4.2.4,7.6.6,10.5.6s5.6-.2,6-1.8l.4-1.2c.4-1.4,0-1.2-4.1-2.3l-5.6-1.5c-2.9-.7-4.8-2.3-3.6-6.7l.8-2.8c1.4-4.8,7-6.5,14.3-6.5s6.4.2,10.3.9c-.2,1.6-.9,4-1.6,5.6-4.1-.6-6.9-.8-10.1-.8s-5.8.2-6.2,1.8l-.3,1c-.4,1.4.3,1.7,4.2,2.7l5.6,1.4c3.1.8,4.9,2,3.6,6.3l-.9,3.1h0Z"/>
    <path class="cls-2" d="M228.1,253.3c1.8-.2,5.8-.2,7,0l-5.8,20.1c-1.7,5.9-7.6,7.9-15.6,7.9s-12.8-2-11.1-7.9l5.8-20.1c1.9-.2,5.4-.2,7.1,0l-5.4,18.7c-.9,3,1.8,3.4,5.4,3.4s6.4-.4,7.3-3.4l5.4-18.7Z"/>
    <path class="cls-2" d="M257.5,274.8c-1.4,4.7-6.6,6.5-14.3,6.5s-7.1-.2-10.7-.6c.2-1.6.9-4.2,1.7-5.8,4.2.4,7.6.6,10.5.6s5.6-.2,6-1.8l.4-1.2c.4-1.4,0-1.2-4.1-2.3l-5.6-1.5c-2.9-.7-4.8-2.3-3.6-6.7l.8-2.8c1.4-4.8,7-6.5,14.3-6.5s6.4.2,10.3.9c-.2,1.6-.9,4-1.6,5.6-4.1-.6-6.9-.8-10.1-.8s-5.8.2-6.2,1.8l-.3,1c-.4,1.4.3,1.7,4.2,2.7l5.6,1.4c3.1.8,4.9,2,3.6,6.3l-.9,3.1h0Z"/>
    <path class="cls-2" d="M268.9,253.3c2.1-.2,5.1-.2,7.1,0l-7.9,27.6c-2,.2-5.1.2-7.1,0l7.9-27.6Z"/>
  </g>
</svg>