<?xml version="1.0" encoding="UTF-8"?> <svg xmlns="http://www.w3.org/2000/svg" xmlns:xlink="http://www.w3.org/1999/xlink" version="1.1" x="0" y="0" width="500" height="250" viewBox="0, 0, 500, 250"><g id="Layer_1"><g><path d="M250.045,12.515 C249.887,12.515 249.767,12.64 249.767,12.792 C249.767,18.154 246.7,20.239 245.5,20.854 C244.262,20.353 241.007,18.549 240.542,13.189 C240.527,13.038 240.392,12.925 240.242,12.937 C240.1,12.949 239.987,13.072 239.987,13.214 L239.987,13.239 C240.025,13.632 240.04,14.008 240.04,14.368 C240.04,18.916 237.505,20.974 236.447,21.641 C235.165,21.249 231.767,19.735 230.83,14.436 C230.807,14.287 230.665,14.187 230.515,14.214 C230.38,14.238 230.282,14.356 230.282,14.487 L230.282,14.534 C230.417,15.295 230.477,15.999 230.477,16.651 C230.477,20.517 228.422,22.51 227.492,23.215 C226.187,22.937 222.662,21.73 221.267,16.526 C221.23,16.381 221.08,16.294 220.93,16.334 C220.81,16.366 220.727,16.477 220.727,16.599 C220.727,16.623 220.727,16.646 220.735,16.671 C221.027,17.77 221.155,18.762 221.155,19.655 C221.155,23.001 219.482,24.866 218.71,25.562 C217.382,25.4 213.767,24.505 211.923,19.444 C211.873,19.299 211.808,19.208 211.665,19.261 C211.633,19.261 211.6,19.266 211.571,19.278 C211.457,19.319 211.386,19.424 211.386,19.536 C211.386,19.569 211.395,19.602 211.405,19.631 C211.915,21.041 212.114,22.292 212.114,23.386 C212.114,26.189 210.827,27.942 210.163,28.665 C208.833,28.619 205.149,28.045 202.871,23.159 C202.803,23.024 202.758,22.937 202.619,23.002 C202.58,23.002 202.539,23.009 202.503,23.026 C202.404,23.073 202.342,23.176 202.342,23.278 C202.342,23.318 202.351,23.357 202.365,23.393 C203.154,25.08 203.438,26.57 203.438,27.838 C203.438,30.195 202.463,31.794 201.919,32.504 C200.59,32.573 196.869,32.323 194.172,27.655 C194.097,27.523 194.066,27.442 193.935,27.518 C193.889,27.518 193.838,27.527 193.796,27.555 C193.706,27.604 193.659,27.699 193.659,27.792 C193.659,27.839 193.668,27.888 193.694,27.933 C194.808,29.863 195.177,31.571 195.177,32.994 C195.177,34.966 194.469,36.37 194.04,37.044 C192.72,37.229 188.991,37.3 185.9,32.888 C185.813,32.764 185.799,32.683 185.675,32.773 C185.619,32.773 185.566,32.788 185.518,32.822 C185.44,32.877 185.398,32.961 185.398,33.048 C185.398,33.103 185.416,33.16 185.45,33.208 C186.946,35.344 187.397,37.269 187.397,38.821 C187.397,40.456 186.901,41.645 186.578,42.259 C185.276,42.559 181.576,42.946 178.121,38.827 C178.019,38.707 178.025,38.627 177.908,38.727 C177.845,38.727 177.782,38.746 177.73,38.791 C177.662,38.846 177.632,38.923 177.632,39.002 C177.632,39.064 177.651,39.13 177.695,39.183 C179.627,41.485 180.157,43.631 180.157,45.289 C180.157,46.591 179.838,47.552 179.609,48.097 C178.334,48.511 174.684,49.218 170.883,45.415 C170.776,45.31 170.794,45.227 170.685,45.337 C170.614,45.337 170.545,45.364 170.491,45.415 C170.438,45.47 170.41,45.543 170.41,45.613 C170.41,45.685 170.438,45.754 170.491,45.808 C172.92,48.235 173.505,50.618 173.505,52.354 C173.505,53.327 173.326,54.059 173.178,54.521 C171.948,55.043 168.371,56.073 164.251,52.612 C164.129,52.516 164.167,52.43 164.07,52.548 C163.99,52.548 163.912,52.582 163.856,52.648 C163.812,52.699 163.793,52.762 163.793,52.826 C163.793,52.906 163.827,52.982 163.891,53.037 C166.877,55.543 167.494,58.195 167.494,59.963 C167.494,60.634 167.413,61.124 167.33,61.483 C166.152,62.11 162.677,63.448 158.265,60.361 C158.14,60.276 158.194,60.186 158.107,60.312 C158.02,60.312 157.931,60.352 157.878,60.43 C157.846,60.479 157.829,60.534 157.829,60.589 C157.829,60.675 157.871,60.762 157.947,60.814 C161.56,63.345 162.167,66.331 162.167,68.052 C162.167,68.407 162.14,68.696 162.109,68.929 C160.992,69.656 157.643,71.294 152.98,68.601 C152.848,68.524 152.918,68.432 152.84,68.564 C152.746,68.564 152.653,68.614 152.603,68.704 C152.576,68.746 152.565,68.793 152.565,68.84 C152.565,68.937 152.613,69.029 152.705,69.082 C157.027,71.578 157.567,74.989 157.567,76.534 C157.567,76.646 157.558,76.713 157.554,76.804 C156.501,77.626 153.31,79.546 148.435,77.272 C148.294,77.206 148.38,77.107 148.32,77.245 C148.212,77.245 148.111,77.306 148.065,77.405 C148.047,77.443 148.04,77.482 148.04,77.522 C148.04,77.626 148.101,77.726 148.198,77.774 C153.046,80.035 153.653,83.685 153.707,85.041 C152.733,85.95 149.721,88.145 144.662,86.302 C144.516,86.25 144.618,86.143 144.565,86.287 C144.453,86.287 144.346,86.356 144.306,86.468 C144.296,86.5 144.291,86.53 144.291,86.563 C144.291,86.677 144.361,86.782 144.473,86.824 C149.511,88.655 150.42,92.248 150.588,93.59 C149.692,94.58 146.885,97.025 141.691,95.63 C141.542,95.593 141.657,95.473 141.618,95.623 C141.496,95.623 141.385,95.705 141.351,95.825 C141.344,95.848 141.341,95.878 141.341,95.9 C141.341,96.02 141.423,96.133 141.544,96.17 C146.728,97.558 147.947,101.06 148.229,102.373 C147.42,103.445 144.839,106.115 139.544,105.185 C139.514,105.178 139.503,105.163 139.491,105.155 C139.49,105.163 139.494,105.163 139.492,105.178 C139.361,105.178 139.244,105.275 139.223,105.403 C139.217,105.418 139.218,105.44 139.218,105.455 C139.218,105.583 139.31,105.703 139.447,105.725 C144.727,106.655 146.246,110.038 146.645,111.328 C145.938,112.453 143.597,115.348 138.234,114.883 C138.218,114.883 138.216,114.875 138.206,114.868 C138.206,114.875 138.208,114.875 138.208,114.883 C138.067,114.883 137.947,114.995 137.935,115.13 C137.933,115.145 137.932,115.153 137.932,115.16 C137.932,115.303 138.043,115.423 138.189,115.438 C143.533,115.903 145.341,119.143 145.847,120.388 C145.236,121.58 143.156,124.663 137.78,124.663 C137.624,124.663 137.499,124.783 137.499,124.94 C137.499,125.09 137.625,125.218 137.78,125.218 C143.139,125.218 145.222,128.278 145.841,129.478 C145.339,130.723 143.534,133.97 138.175,134.443 C138.032,134.458 137.92,134.578 137.92,134.72 C137.92,134.728 137.926,134.735 137.926,134.743 C137.936,134.893 138.071,135.005 138.222,134.998 C143.564,134.525 145.907,137.398 146.626,138.538 C146.236,139.813 144.727,143.218 139.426,144.155 C139.29,144.178 139.193,144.29 139.193,144.425 C139.193,144.44 139.198,144.455 139.198,144.47 C139.227,144.62 139.37,144.725 139.518,144.695 C144.805,143.765 147.389,146.428 148.201,147.5 C147.921,148.813 146.707,152.323 141.515,153.718 C141.391,153.748 141.309,153.86 141.309,153.98 C141.309,154.01 141.312,154.033 141.319,154.055 C141.36,154.198 141.511,154.288 141.662,154.25 C146.838,152.863 149.643,155.285 150.55,156.283 C150.387,157.61 149.487,161.218 144.429,163.063 C144.317,163.1 144.25,163.205 144.25,163.318 C144.25,163.348 144.253,163.378 144.266,163.415 C144.317,163.558 144.478,163.633 144.618,163.58 C149.665,161.743 152.673,163.918 153.658,164.833 C153.607,166.183 153.012,169.85 148.15,172.115 C148.048,172.168 147.988,172.265 147.988,172.37 C147.988,172.408 147.998,172.445 148.018,172.483 C148.081,172.625 148.247,172.685 148.386,172.618 C153.25,170.345 156.433,172.25 157.495,173.075 C157.501,173.173 157.509,173.24 157.509,173.36 C157.509,174.905 156.969,178.318 152.647,180.815 C152.554,180.868 152.506,180.958 152.506,181.055 C152.506,181.1 152.518,181.145 152.545,181.19 C152.622,181.325 152.791,181.37 152.922,181.295 C157.573,178.61 160.915,180.23 162.043,180.958 C162.074,181.198 162.101,181.49 162.101,181.85 C162.101,183.575 161.494,186.553 157.878,189.088 C157.805,189.133 157.762,189.223 157.762,189.313 C157.762,189.365 157.78,189.425 157.809,189.47 C157.897,189.598 158.073,189.628 158.199,189.538 C162.592,186.463 166.057,187.783 167.25,188.405 C167.333,188.765 167.419,189.26 167.419,189.943 C167.419,191.713 166.802,194.368 163.815,196.865 C163.75,196.925 163.714,197.008 163.714,197.083 C163.714,197.143 163.739,197.21 163.78,197.255 C163.88,197.375 164.055,197.39 164.171,197.293 C168.283,193.843 171.851,194.855 173.092,195.38 C173.241,195.838 173.424,196.58 173.424,197.563 C173.424,199.295 172.837,201.68 170.408,204.103 C170.355,204.163 170.327,204.23 170.327,204.305 C170.327,204.373 170.355,204.448 170.408,204.5 C170.515,204.605 170.692,204.605 170.799,204.5 C174.59,200.705 178.229,201.395 179.515,201.815 C179.744,202.355 180.069,203.323 180.069,204.635 C180.069,206.293 179.54,208.438 177.607,210.74 C177.563,210.793 177.544,210.86 177.544,210.92 C177.544,211.003 177.575,211.078 177.64,211.13 C177.759,211.228 177.933,211.213 178.034,211.1 C181.479,206.99 185.166,207.365 186.481,207.665 C186.804,208.273 187.305,209.465 187.305,211.108 C187.305,212.66 186.855,214.588 185.358,216.725 C185.322,216.778 185.307,216.83 185.307,216.883 C185.307,216.973 185.346,217.055 185.423,217.108 C185.549,217.198 185.722,217.168 185.81,217.048 C188.891,212.645 192.602,212.698 193.934,212.885 C194.362,213.553 195.081,214.963 195.081,216.95 C195.081,218.368 194.712,220.078 193.597,222.013 C193.57,222.058 193.56,222.103 193.56,222.148 C193.56,222.245 193.609,222.335 193.7,222.388 C193.831,222.463 193.998,222.418 194.076,222.29 C196.767,217.625 200.476,217.37 201.812,217.438 C202.356,218.143 203.335,219.748 203.335,222.11 C203.335,223.378 203.056,224.87 202.267,226.557 C202.251,226.595 202.24,226.633 202.24,226.678 C202.24,226.775 202.301,226.88 202.401,226.925 C202.542,226.992 202.704,226.932 202.77,226.79 C205.044,221.915 208.712,221.33 210.05,221.285 C210.709,221.99 212.012,223.745 212.012,226.58 C212.012,227.667 211.813,228.92 211.301,230.33 C211.291,230.36 211.285,230.39 211.285,230.427 C211.285,230.54 211.354,230.645 211.47,230.682 C211.612,230.735 211.771,230.66 211.825,230.525 C213.655,225.478 217.255,224.57 218.59,224.405 C219.362,225.088 221.042,226.955 221.042,230.315 C221.042,231.207 220.922,232.205 220.63,233.3 C220.622,233.33 220.615,233.345 220.615,233.375 C220.615,233.495 220.697,233.607 220.825,233.637 C220.975,233.675 221.125,233.592 221.162,233.442 C222.557,228.253 226.067,227.038 227.38,226.76 C228.302,227.458 230.372,229.452 230.372,233.33 C230.372,233.982 230.32,234.695 230.185,235.445 C230.185,235.467 230.177,235.482 230.177,235.497 C230.177,235.632 230.275,235.745 230.41,235.767 C230.56,235.797 230.702,235.692 230.725,235.542 C231.662,230.262 235.037,228.74 236.327,228.342 C237.377,229.003 239.935,231.057 239.935,235.625 C239.935,235.985 239.92,236.36 239.882,236.757 L239.882,236.78 C239.882,236.922 239.995,237.042 240.137,237.057 C240.287,237.072 240.422,236.96 240.437,236.802 C240.902,231.455 244.143,229.647 245.388,229.145 C246.58,229.753 249.663,231.83 249.663,237.215 C249.663,237.365 249.79,237.485 249.94,237.485 C250.098,237.485 250.218,237.365 250.218,237.215 L250.218,237.207 C250.218,231.845 253.285,229.76 254.485,229.145 C255.73,229.655 258.978,231.462 259.45,236.817 C259.458,236.967 259.593,237.08 259.743,237.065 C259.893,237.05 259.998,236.93 259.998,236.787 L259.998,236.765 C259.96,236.375 259.953,235.992 259.953,235.632 C259.953,231.087 262.488,229.025 263.545,228.357 C264.82,228.755 268.225,230.262 269.155,235.565 C269.185,235.715 269.328,235.812 269.478,235.79 C269.613,235.767 269.71,235.647 269.71,235.52 C269.71,235.497 269.71,235.482 269.703,235.467 C269.568,234.71 269.508,234.005 269.508,233.352 C269.508,229.482 271.578,227.488 272.5,226.783 C273.805,227.06 277.33,228.275 278.718,233.472 C278.763,233.622 278.913,233.712 279.063,233.667 C279.183,233.637 279.265,233.525 279.265,233.405 C279.265,233.382 279.265,233.352 279.258,233.33 C278.965,232.235 278.845,231.237 278.845,230.345 C278.845,227 280.51,225.133 281.283,224.435 C282.611,224.6 286.226,225.5 288.071,230.555 C288.116,230.697 288.281,230.772 288.423,230.72 C288.536,230.682 288.603,230.577 288.603,230.465 C288.603,230.427 288.603,230.397 288.588,230.367 C288.071,228.958 287.876,227.705 287.876,226.61 C287.876,223.805 289.166,222.058 289.833,221.33 C291.161,221.375 294.843,221.952 297.123,226.835 C297.191,226.977 297.356,227.038 297.491,226.97 C297.596,226.925 297.656,226.82 297.656,226.715 C297.656,226.678 297.641,226.64 297.633,226.602 C296.846,224.915 296.561,223.43 296.561,222.155 C296.561,219.8 297.528,218.21 298.076,217.49 C299.396,217.423 303.123,217.67 305.823,222.342 C305.898,222.47 306.071,222.515 306.198,222.44 C306.288,222.388 306.341,222.298 306.341,222.2 C306.341,222.155 306.326,222.11 306.303,222.065 C305.186,220.13 304.818,218.42 304.818,217.003 C304.818,215.023 305.531,213.62 305.958,212.945 C307.278,212.765 311.006,212.69 314.096,217.108 C314.178,217.228 314.358,217.258 314.478,217.175 C314.561,217.123 314.598,217.033 314.598,216.943 C314.598,216.89 314.583,216.838 314.553,216.785 C313.053,214.655 312.596,212.728 312.596,211.175 C312.596,209.54 313.098,208.355 313.421,207.733 C314.726,207.44 318.423,207.05 321.881,211.168 C321.978,211.288 322.151,211.303 322.271,211.198 C322.339,211.145 322.368,211.07 322.368,210.995 C322.368,210.928 322.353,210.868 322.308,210.815 C320.373,208.505 319.841,206.36 319.841,204.703 C319.841,203.398 320.163,202.438 320.388,201.89 C321.671,201.478 325.316,200.773 329.119,204.575 C329.231,204.68 329.404,204.68 329.509,204.575 C329.561,204.523 329.591,204.448 329.591,204.38 C329.591,204.305 329.561,204.238 329.509,204.185 C327.079,201.755 326.494,199.37 326.494,197.638 C326.494,196.663 326.674,195.928 326.824,195.47 C328.054,194.945 331.631,193.918 335.756,197.375 C335.876,197.473 336.049,197.458 336.146,197.345 C336.191,197.293 336.206,197.233 336.206,197.165 C336.206,197.09 336.176,197.008 336.109,196.955 C333.124,194.443 332.509,191.795 332.509,190.025 C332.509,189.35 332.591,188.863 332.674,188.503 C333.851,187.88 337.331,186.538 341.741,189.628 C341.861,189.71 342.034,189.688 342.124,189.553 C342.161,189.508 342.176,189.455 342.176,189.395 C342.176,189.313 342.131,189.223 342.056,189.17 C338.441,186.643 337.834,183.658 337.834,181.933 C337.834,181.58 337.856,181.288 337.894,181.055 C339.011,180.328 342.356,178.685 347.021,181.385 C347.156,181.46 347.321,181.415 347.404,181.28 C347.426,181.235 347.441,181.19 347.441,181.145 C347.441,181.048 347.389,180.95 347.299,180.905 C342.971,178.408 342.439,174.995 342.439,173.45 C342.439,173.338 342.446,173.27 342.454,173.173 C343.511,172.348 346.699,170.443 351.566,172.715 C351.709,172.783 351.874,172.715 351.934,172.58 C351.956,172.543 351.964,172.498 351.964,172.46 C351.964,172.355 351.904,172.258 351.799,172.213 C346.946,169.948 346.346,166.288 346.294,164.938 C347.276,164.023 350.284,161.833 355.346,163.678 C355.489,163.73 355.646,163.655 355.699,163.513 C355.714,163.483 355.714,163.445 355.714,163.415 C355.714,163.303 355.646,163.198 355.534,163.16 C350.494,161.323 349.586,157.73 349.414,156.388 C350.306,155.398 353.119,152.953 358.316,154.348 C358.466,154.385 358.616,154.303 358.654,154.153 C358.661,154.13 358.661,154.108 358.661,154.078 C358.661,153.958 358.579,153.845 358.459,153.815 C353.276,152.428 352.054,148.918 351.776,147.605 C352.579,146.533 355.166,143.863 360.461,144.793 C360.611,144.823 360.761,144.725 360.784,144.568 L360.784,144.523 C360.784,144.395 360.694,144.275 360.559,144.253 C355.279,143.323 353.756,139.94 353.359,138.65 C354.071,137.51 356.411,134.623 361.766,135.095 C361.924,135.11 362.051,134.99 362.066,134.84 L362.066,134.818 C362.066,134.675 361.961,134.555 361.819,134.54 C356.471,134.075 354.664,130.835 354.154,129.59 C354.761,128.398 356.846,125.308 362.224,125.308 C362.381,125.308 362.501,125.188 362.501,125.038 C362.501,124.88 362.381,124.753 362.224,124.753 C356.861,124.753 354.776,121.693 354.161,120.493 C354.664,119.255 356.471,116 361.826,115.528 C361.969,115.513 362.081,115.393 362.081,115.25 L362.081,115.228 C362.066,115.078 361.946,114.973 361.804,114.973 L361.781,114.973 C356.434,115.445 354.094,112.565 353.374,111.425 C353.764,110.15 355.279,106.753 360.581,105.815 C360.709,105.793 360.806,105.673 360.806,105.545 C360.806,105.53 360.799,105.515 360.799,105.493 C360.776,105.365 360.664,105.268 360.529,105.268 L360.484,105.268 C355.196,106.198 352.616,103.543 351.799,102.47 C352.076,101.158 353.291,97.648 358.481,96.245 C358.609,96.215 358.691,96.103 358.691,95.983 C358.691,95.96 358.691,95.938 358.676,95.915 C358.646,95.788 358.534,95.705 358.414,95.705 C358.384,95.705 358.361,95.713 358.339,95.713 C353.156,97.108 350.351,94.685 349.451,93.688 C349.609,92.36 350.509,88.745 355.564,86.905 C355.684,86.862 355.751,86.755 355.751,86.644 C355.751,86.611 355.744,86.578 355.736,86.548 C355.691,86.437 355.586,86.364 355.474,86.364 C355.436,86.364 355.414,86.371 355.376,86.381 C350.336,88.22 347.329,86.044 346.339,85.129 C346.391,83.782 346.984,80.113 351.844,77.845 C351.949,77.798 352.009,77.699 352.009,77.595 C352.009,77.555 351.994,77.515 351.979,77.478 C351.934,77.376 351.836,77.32 351.731,77.32 C351.686,77.32 351.649,77.327 351.611,77.344 C346.744,79.614 343.564,77.71 342.499,76.885 C342.491,76.79 342.484,76.72 342.484,76.602 C342.484,75.056 343.024,71.647 347.351,69.149 C347.441,69.096 347.486,69.004 347.486,68.907 C347.486,68.862 347.479,68.816 347.449,68.771 C347.404,68.681 347.306,68.632 347.209,68.632 C347.164,68.629 347.119,68.642 347.074,68.667 C342.416,71.356 339.079,69.731 337.954,69.002 C337.916,68.767 337.894,68.474 337.894,68.113 C337.894,66.389 338.501,63.404 342.109,60.875 C342.191,60.82 342.236,60.735 342.236,60.649 C342.236,60.594 342.214,60.538 342.184,60.489 C342.131,60.411 342.041,60.372 341.959,60.372 C341.899,60.371 341.846,60.386 341.794,60.42 C337.399,63.498 333.934,62.179 332.741,61.551 C332.659,61.192 332.576,60.701 332.576,60.017 C332.576,58.249 333.191,55.596 336.176,53.09 C336.244,53.035 336.274,52.954 336.274,52.876 C336.274,52.813 336.251,52.75 336.214,52.699 C336.161,52.634 336.079,52.599 335.996,52.599 C335.936,52.598 335.869,52.621 335.824,52.662 C331.714,56.113 328.144,55.104 326.899,54.581 C326.749,54.121 326.569,53.38 326.569,52.396 C326.569,50.661 327.154,48.278 329.584,45.849 C329.636,45.794 329.666,45.726 329.666,45.653 C329.666,45.584 329.636,45.511 329.584,45.457 C329.524,45.404 329.456,45.377 329.381,45.377 C329.314,45.377 329.239,45.405 329.194,45.457 C325.399,49.25 321.753,48.558 320.471,48.146 C320.238,47.602 319.916,46.633 319.916,45.322 C319.916,43.663 320.448,41.518 322.383,39.214 C322.421,39.162 322.451,39.099 322.451,39.036 C322.451,38.957 322.413,38.877 322.346,38.822 C322.293,38.781 322.233,38.758 322.166,38.758 C322.083,38.757 322.008,38.793 321.956,38.857 C318.506,42.966 314.823,42.595 313.503,42.295 C313.181,41.685 312.678,40.49 312.678,38.843 C312.678,37.291 313.128,35.366 314.628,33.228 C314.658,33.181 314.681,33.125 314.681,33.068 C314.681,32.98 314.636,32.896 314.561,32.842 C314.516,32.81 314.456,32.791 314.403,32.791 C314.313,32.793 314.231,32.835 314.178,32.913 C311.096,37.316 307.376,37.257 306.048,37.072 C305.621,36.403 304.901,34.992 304.901,33.007 C304.901,31.585 305.276,29.876 306.386,27.944 C306.408,27.901 306.423,27.854 306.423,27.807 C306.423,27.709 306.378,27.616 306.281,27.565 C306.243,27.541 306.191,27.529 306.146,27.529 C306.048,27.529 305.958,27.577 305.906,27.666 C303.221,32.325 299.508,32.588 298.166,32.519 C297.626,31.811 296.643,30.207 296.643,27.842 C296.643,26.571 296.928,25.085 297.716,23.399 C297.731,23.362 297.738,23.32 297.738,23.282 C297.738,23.177 297.678,23.078 297.581,23.031 C297.543,23.015 297.498,23.003 297.461,23.003 C297.356,23.002 297.258,23.061 297.213,23.163 C294.941,28.03 291.281,28.62 289.931,28.671 C289.278,27.962 287.966,26.212 287.966,23.38 C287.966,22.283 288.168,21.032 288.678,19.624 C288.693,19.593 288.693,19.561 288.693,19.53 C288.693,19.416 288.626,19.309 288.513,19.27 C288.483,19.258 288.446,19.252 288.416,19.252 C288.303,19.252 288.198,19.322 288.161,19.434 C286.323,24.477 282.723,25.387 281.388,25.556 C280.615,24.87 278.928,23.004 278.928,19.636 C278.928,18.743 279.055,17.751 279.348,16.652 C279.355,16.629 279.355,16.605 279.355,16.58 C279.355,16.457 279.273,16.346 279.153,16.314 C279.003,16.275 278.853,16.361 278.808,16.51 C277.42,21.697 273.918,22.914 272.598,23.197 C271.683,22.502 269.598,20.507 269.598,16.621 C269.598,15.97 269.658,15.263 269.793,14.506 L269.793,14.456 C269.793,14.325 269.703,14.208 269.568,14.185 C269.418,14.158 269.275,14.26 269.245,14.409 C268.315,19.694 264.933,21.214 263.643,21.611 C262.593,20.95 260.035,18.892 260.035,14.326 C260.035,13.966 260.05,13.59 260.088,13.199 L260.088,13.174 C260.088,13.03 259.975,12.911 259.833,12.899 C259.683,12.884 259.548,12.998 259.533,13.151 C259.06,18.554 255.76,20.344 254.538,20.831 C253.315,20.188 250.323,18.093 250.323,12.792 C250.323,12.64 250.195,12.515 250.045,12.515 z" fill="#A30046"></path><path d="M254.98,21.62 L263.455,22.36 L272.335,23.923 L281.08,26.262 L289.533,29.334 L297.761,33.17 L305.591,37.687 L312.941,42.834 L319.901,48.667 L326.268,55.036 L332.096,61.982 L337.264,69.358 L341.779,77.173 L345.596,85.354 L348.686,93.828 L351.026,102.588 L352.594,111.468 L353.381,120.475 L353.381,129.49 L352.601,138.46 L351.026,147.378 L348.694,156.1 L345.589,164.613 L341.786,172.773 L337.279,180.58 L332.103,187.975 L326.276,194.913 L319.893,201.295 L312.978,207.1 L305.613,212.253 L297.798,216.768 L289.615,220.585 L281.118,223.683 L272.38,226.023 L263.515,227.59 L254.508,228.37 L245.507,228.378 L236.47,227.59 L227.575,226.023 L218.875,223.683 L210.391,220.6 L202.193,216.775 L194.424,212.298 L186.999,207.093 L180.063,201.273 L173.682,194.89 L167.893,187.99 L162.715,180.595 L158.188,172.758 L154.385,164.605 L151.308,156.153 L148.955,147.378 L147.392,138.513 L146.602,129.49 L146.602,120.513 L147.392,111.475 L148.949,102.633 L151.311,93.828 L154.381,85.396 L158.212,77.183 L162.69,69.427 L167.89,61.999 L173.664,55.115 L180.076,48.703 L187.002,42.892 L194.367,37.736 L202.194,33.216 L210.353,29.408 L218.83,26.322 L227.627,23.966 L236.462,22.408 L245.462,21.622 L254.973,21.622 C254.98,21.622 254.98,21.62 254.98,21.62 z" fill="#FFFFFF"></path><path d="M249.977,24.722 C194.694,24.722 149.716,69.702 149.716,124.982 C149.715,180.272 194.694,225.249 249.977,225.249 C305.268,225.249 350.246,180.272 350.246,124.982 C350.246,69.701 305.268,24.722 249.977,24.722 z" fill="#A30046"></path><path d="M249.977,26.386 C304.353,26.386 348.589,70.621 348.589,124.981 C348.589,179.356 304.353,223.591 249.977,223.591 C195.613,223.591 151.374,179.356 151.374,124.981 C151.377,70.618 195.613,26.386 249.977,26.386 z" fill="#FFFFFF"></path><path d="M249.977,56.571 C212.257,56.571 181.562,87.263 181.562,124.983 C181.562,162.715 212.256,193.405 249.977,193.405 C287.71,193.405 318.401,162.715 318.401,124.983 C318.401,87.263 287.71,56.571 249.977,56.571 z" fill="#A30046"></path><path d="M249.977,58.232 C286.795,58.232 316.736,88.18 316.736,124.983 C316.736,161.793 286.795,191.74 249.977,191.74 C213.175,191.74 183.226,161.793 183.226,124.983 C183.226,88.18 213.175,58.232 249.977,58.232 z" fill="#FFFFFF"></path><path d="M249.977,61.131 C214.772,61.131 186.123,89.778 186.123,124.983 C186.123,160.195 214.772,188.845 249.977,188.845 C285.19,188.845 313.841,160.195 313.841,124.983 C313.841,89.778 285.19,61.131 249.977,61.131 z" fill="#A30046"></path><path d="M249.977,61.592 C284.935,61.592 313.376,90.033 313.376,124.983 C313.376,159.94 284.935,188.38 249.977,188.38 C215.027,188.38 186.586,159.94 186.586,124.983 C186.586,90.033 215.027,61.592 249.977,61.592 z" fill="#FFFFFF"></path><path d="M249.977,64.975 C216.887,64.975 189.97,91.9 189.97,124.983 C189.97,158.08 216.895,184.998 249.977,184.998 C283.075,184.998 310.001,158.08 310.001,124.983 C310.001,91.9 283.075,64.975 249.977,64.975 z" fill="#A30046"></path><path d="M249.977,66.053 C282.475,66.053 308.921,92.493 308.921,124.983 C308.921,157.488 282.475,183.918 249.977,183.918 C217.48,183.918 191.046,157.488 191.046,124.983 C191.046,92.493 217.48,66.053 249.977,66.053 z" fill="#FFFFFF"></path><path d="M249.985,80.938 C274.27,80.938 294.026,100.698 294.026,124.983 C294.026,149.275 274.27,169.038 249.985,169.038 C225.692,169.038 205.934,149.275 205.934,124.983 C205.934,100.698 225.692,80.938 249.985,80.938 z" fill="#A30046"></path><path d="M217.142,99.56 L217.142,128.832 C217.15,129.08 217.69,153.387 243.902,158.9 C247.33,159.627 249.385,165.117 249.4,165.17 L250.082,167.022 L250.765,165.17 C250.78,165.117 252.835,159.627 256.27,158.9 C282.475,153.387 283.023,129.08 283.023,128.84 L283.023,99.56 L217.142,99.56 z" fill="#FFFFFF"></path><path d="M218.59,101.008 L281.575,101.008 L281.575,121.025 C280.788,120.463 279.415,119.375 278.838,118.632 C278.118,117.717 277.51,118.325 277.105,118.94 C276.985,119.113 276.498,119.66 275.86,120.35 L271.698,124.752 C271.698,124.752 271.083,124.752 270.678,124.242 C270.453,123.965 268.248,125.915 266.275,127.76 C264.618,129.305 263.133,130.767 263.133,130.767 L263.073,130.79 C263.073,130.85 263.088,130.887 263.163,130.91 C264.145,131.157 265.06,131.39 265.99,131.742 C267.558,132.342 269.178,132.432 270.243,133.82 C270.528,134.18 270.528,134.72 270.663,135.147 C270.768,135.462 270.858,135.762 271.143,135.942 C272.185,136.602 272.433,136.167 273.535,136.677 C273.535,136.677 275.77,137.66 274.308,138.537 C273.805,138.837 273.385,139.122 273.025,139.392 L267.048,132.927 L263.71,132.927 L267.625,139.587 L272.785,139.587 C270.738,141.222 271.008,142.317 271.188,143.097 C271.443,144.207 271.953,145.76 272.395,147.042 C271.48,147.02 270.003,146.967 270.003,146.967 L268.54,147.582 C268.54,147.59 270.925,148.01 269.575,149.78 C270.963,149.202 272.118,149.202 272.118,149.202 L272.905,148.527 C272.913,148.55 272.958,148.677 272.958,148.685 C271.615,150.057 270.13,151.287 268.51,152.382 C268.525,152.06 268.728,150.087 268.728,150.087 L267.805,150.357 L267.768,152.862 L267.798,152.847 C267.115,153.282 266.395,153.687 265.66,154.077 C265.983,153.492 266.215,150.012 266.215,150.012 C266.215,150.012 264.715,151.212 263.133,151.002 C263.133,151.002 264.048,151.947 263.238,152.945 C262.42,153.942 262.578,153.89 263.538,154.22 C264.513,154.55 264.018,153.62 264.865,154.145 C265.03,154.242 265.128,154.295 265.203,154.317 C262.443,155.712 259.368,156.77 255.97,157.49 C253.03,158.105 251.05,161.225 250.082,163.145 C249.115,161.225 247.135,158.105 244.195,157.49 C244.15,157.475 244.105,157.467 244.06,157.452 C244.607,157.467 245.132,157.43 245.62,157.317 C246.437,157.122 247.472,159.065 248.29,158.757 C248.395,158.652 248.492,158.757 248.702,158.652 C249.52,158.247 248.35,158.502 248.86,157.782 C249.062,157.482 249.167,157.175 249.467,156.77 C248.657,156.357 247.84,156.567 246.925,156.462 L246.925,156.155 C246.002,155.847 244.885,155.952 243.962,155.645 C244.067,154.827 244.982,154.422 244.982,153.5 C244.375,153.5 243.662,153.605 243.047,153.402 L243.047,153.095 C241.615,152.712 240.355,153.402 239.027,153.485 C239.02,153.357 239.027,153.222 239.027,153.095 C238.892,153.125 238.652,153.057 238.652,152.99 C238.757,152.54 239.275,152.367 239.62,152.052 C239.687,151.947 239.822,151.917 239.86,151.782 C239.59,151.76 239.312,151.79 239.035,151.805 L239.035,151.895 C238.915,152.435 237.002,152.75 234.82,152.285 C233.725,152.052 232.765,151.662 232.105,151.265 C232.007,151.422 231.94,151.542 231.932,151.565 C231.79,151.91 232,152.292 232.345,152.367 C232.832,152.465 233.32,152.367 233.8,152.397 C234.152,152.435 234.25,152.78 234.46,153.02 C234.61,152.982 234.76,152.945 234.91,152.892 C234.955,152.915 235.255,153.162 235.187,153.297 C235.082,153.402 234.805,153.44 234.88,153.612 C235.015,153.852 235.427,153.89 235.502,154.167 C235.525,154.295 235.48,154.422 235.45,154.557 C233.125,153.44 231.025,152.082 229.15,150.5 C229.435,150.537 229.697,150.455 229.9,150.342 C230.035,150.267 230.11,150.14 230.177,150.042 C230.38,149.727 231.13,149.937 231.13,149.465 C231.362,149.292 231.64,149.217 231.872,149.052 C231.805,148.61 231.265,147.965 231.227,147.927 C230.852,147.485 230.83,147.515 230.59,147.005 C230.455,147.102 229.42,147.035 229.487,146.727 C229.42,146.9 227.282,148.355 227.177,148.625 C227.177,148.632 227.23,148.7 227.245,148.73 C225.145,146.592 223.375,144.117 221.957,141.297 C222.55,141.357 222.977,141.23 222.91,140.3 C223.322,140.3 223.63,140.097 223.93,139.895 C224.035,139.685 223.652,139.565 223.727,139.377 C223.937,138.867 224.642,139.28 224.747,138.972 C225.257,138.26 223.727,138.665 223.217,138.357 L223.217,138.155 C222.505,138.057 221.687,138.462 221.08,137.952 C220.975,137.855 221.177,137.345 220.967,137.135 C220.825,137.09 220.562,137.255 220.345,137.48 C218.665,132.665 218.59,128.87 218.59,128.825 L218.59,116.893 L222.1,116.765 L222.175,116.413 C222.16,116.563 222.145,116.698 222.1,116.765 C222.58,117.125 222.827,117.08 222.827,117.08 C223.742,117.793 224.395,117.11 224.897,118.13 C225.587,119.495 226.727,119.15 228.002,119.533 C228.46,119.675 228.91,120.71 229.352,121.895 C229.367,121.618 229.367,121.34 229.255,121.077 C228.872,119.93 227.942,119 226.945,118.235 C226.562,117.845 225.872,118.077 225.332,117.77 C225.025,117.463 224.875,116.923 224.485,116.848 C223.795,116.773 223.172,116.54 222.64,116.233 C222.872,116.233 223.172,116.308 223.172,116.233 C223.712,115.31 224.56,115.078 225.175,114.23 C225.407,113.998 225.872,113.848 226.105,114.08 C226.87,114.695 227.335,115.618 228.175,116.075 C228.407,116.233 228.715,116.075 228.947,116.158 C229.637,116.615 230.41,116.848 231.182,116.615 C231.49,116.54 231.872,115.925 232.105,116.158 C233.027,116.93 233.792,117.845 234.415,118.925 C234.49,119.083 234.715,119.158 234.887,119.24 C235.105,119.465 235.18,119.855 235.412,120.155 C236.41,121.16 237.407,122 238.18,123.08 C240.332,123.62 242.567,123.852 244.795,123.927 C245.417,123.927 246.032,124.16 246.572,124.467 C247.802,125.082 248.417,126.312 249.572,127.235 C250.03,127.625 250.262,128.39 250.72,128.39 C251.725,128.547 252.498,129.162 253.338,129.47 C253.878,129.702 254.185,130.31 254.568,130.775 C254.8,131.082 254.418,131.315 254.418,131.622 C254.493,131.772 254.725,132.005 254.65,132.087 C253.728,132.702 252.648,132.702 251.725,133.235 C251.342,133.467 251.492,134.007 251.185,134.24 C250.96,134.547 250.877,134.855 250.877,135.162 C250.802,135.237 250.72,135.395 250.72,135.395 C249.88,135.935 248.957,136.085 248.335,136.775 C247.72,137.315 247.187,138.012 246.49,138.47 C246.182,138.702 245.65,138.702 245.185,138.627 C245.035,138.627 245.027,138.47 245.027,138.395 C244.795,137.622 244.72,136.775 244.262,136.16 C243.955,135.62 243.415,135.32 242.875,135.087 C242.26,134.855 241.72,134.547 241.187,134.157 C241.03,134.007 240.955,133.775 240.955,133.625 C240.797,132.777 240.332,132.162 240.107,131.39 C239.875,130.85 239.642,130.392 239.102,130.002 C238.795,129.852 238.645,129.545 238.412,129.387 C238.18,129.162 237.872,128.93 237.64,128.772 C237.497,128.772 237.415,128.78 237.175,128.93 C238.42,129.642 238.3,130.842 238.247,131.915 L239.53,133.092 C239.53,133.092 240.332,133.685 240.07,134.307 C240.04,134.397 239.957,134.54 239.845,134.72 C241.06,135.74 242.14,136.55 242.14,136.55 C242.14,136.55 244.622,137.105 244.682,139.235 C244.705,140.022 245.522,139.985 245.575,140.307 L255.895,131.277 C255.895,131.277 253.143,128.42 252.738,128.322 C252.355,128.225 251.425,127.947 250.885,127.745 C250.375,127.542 247.225,124.347 246.002,123.942 C244.78,123.53 242.74,123.635 241.72,123.432 C240.707,123.222 239.072,123.125 238.36,122.307 C238.142,122.06 232.142,115.483 232.142,115.483 C232.142,115.483 230.815,116.495 230.207,116.398 C229.592,116.293 227.447,113.743 226.84,113.645 C226.225,113.54 226.127,113.135 225.617,113.54 C225.107,113.953 222.857,115.79 222.347,115.58 C222.34,115.58 222.325,115.588 222.317,115.588 C222.25,115.573 220.517,115.063 219.767,114.583 C219.152,114.185 218.897,113.975 218.59,113.885 L218.59,101.008 z" fill="#A30046"></path><path d="M220.36,102.808 L220.36,111.898 L237.827,111.898 L241.697,115.37 C241.75,115.385 241.802,115.393 241.855,115.415 C242.335,115.655 242.875,115.812 243.325,116.09 L239.132,111.898 L240.557,111.898 L245.11,117.147 C245.132,116.982 245.155,116.81 245.252,116.675 L245.282,116.645 L241.592,111.898 L242.71,111.898 L245.717,116.353 C245.875,116.292 246.04,116.27 246.22,116.292 L243.587,111.898 L244.57,111.898 L247.022,116.728 C247.15,116.825 247.277,116.915 247.427,116.982 C247.397,116.877 247.412,116.787 247.457,116.713 L245.327,111.898 L246.175,111.898 L247.825,116.412 C247.877,116.39 247.937,116.368 247.99,116.345 C248.057,116.323 248.132,116.315 248.207,116.3 L246.872,111.898 L247.675,111.898 L248.672,116.27 C248.815,116.277 248.95,116.3 249.085,116.33 L248.32,111.898 L249.055,111.898 L249.542,116.525 C249.572,116.54 249.602,116.548 249.625,116.57 C249.73,116.652 249.827,116.72 249.932,116.787 L249.685,111.898 L250.427,111.898 L250.337,117.132 C250.382,117.207 250.42,117.29 250.45,117.387 C250.502,117.65 250.45,117.875 250.45,118.137 C250.502,118.137 250.547,118.145 250.6,118.152 L251.05,111.898 L251.785,111.898 L251.297,115.378 C251.44,115.363 251.59,115.378 251.74,115.378 L252.415,111.898 L253.203,111.898 L252.595,114.178 C252.648,114.14 252.7,114.103 252.745,114.065 C252.903,113.96 253.06,113.908 253.225,113.87 L253.87,111.898 L254.695,111.898 L253.9,113.885 C253.93,113.885 253.96,113.893 253.983,113.9 C254.125,113.96 254.298,114.028 254.373,114.162 L255.43,111.898 L256.36,111.898 L255.273,113.863 C255.288,113.863 255.288,113.855 255.295,113.855 C255.513,113.825 255.7,113.885 255.873,114.005 L257.185,111.898 L258.243,111.898 L256.195,114.74 C256.225,114.8 256.263,114.853 256.33,114.882 C256.615,115.01 256.863,114.68 257.065,114.515 C257.193,114.395 257.065,114.14 257.148,113.983 C257.365,113.75 257.643,113.608 257.935,113.48 L259.21,111.898 L260.508,111.898 L259.338,113.165 C259.383,113.173 259.443,113.188 259.495,113.202 C259.69,113.27 259.885,113.36 260.073,113.465 L261.693,111.898 L263.305,111.898 L260.778,114.05 C260.943,114.29 260.988,114.552 261.003,114.83 L264.858,111.898 L279.715,111.898 L279.715,102.808 L220.36,102.808 z" fill="#FFFFFF"></path><path d="M221.192,103.64 L221.192,111.064 L278.875,111.064 L278.875,103.64 L221.192,103.64 z" fill="#A30046"></path><path d="M272.919,105.185 C271.576,105.185 270.796,105.576 270.796,106.528 C270.796,107.406 271.516,107.63 272.258,107.743 L273.316,107.908 C273.781,107.976 274.044,108.066 274.044,108.396 C274.044,108.771 273.676,108.928 273.128,108.928 C272.626,108.928 272.042,108.83 272.027,108.238 L270.714,108.238 C270.729,109.58 272.086,109.708 273.128,109.708 C274.816,109.708 275.356,109.071 275.356,108.268 C275.356,107.488 274.764,107.196 273.976,107.069 L272.522,106.836 C272.222,106.791 272.027,106.663 272.027,106.43 C272.027,106.138 272.341,105.928 272.828,105.928 C273.293,105.928 273.827,105.988 273.902,106.543 L275.191,106.543 C275.108,105.335 273.804,105.185 272.919,105.185 z M224.791,105.298 L224.791,109.588 L227.567,109.588 C228.909,109.588 229.569,108.741 229.569,107.451 C229.569,106.161 228.931,105.298 227.461,105.298 L224.791,105.298 z M231.317,105.298 L231.317,109.588 L232.478,109.588 L232.478,105.298 L231.317,105.298 z M253.269,105.298 L253.269,109.588 L256.044,109.588 C257.386,109.588 258.046,108.741 258.046,107.451 C258.046,106.161 257.408,105.298 255.938,105.298 L253.269,105.298 z M234.084,105.305 L234.084,106.123 L235.674,106.123 L235.674,109.588 L236.837,109.588 L236.837,106.123 L238.426,106.123 L238.426,105.305 L234.084,105.305 z M240.94,105.305 L239.056,109.588 L240.308,109.588 L240.661,108.704 L242.626,108.704 L242.979,109.588 L244.231,109.588 L242.349,105.305 L240.94,105.305 z M244.861,105.305 L244.861,106.123 L246.452,106.123 L246.452,109.588 L247.614,109.588 L247.614,106.123 L249.204,106.123 L249.204,105.305 L244.861,105.305 z M259.434,105.305 L259.434,109.588 L263.455,109.588 L263.455,108.771 L260.59,108.771 L260.59,107.788 L263.289,107.788 L263.289,107.009 L260.59,107.009 L260.59,106.123 L263.431,106.123 L263.431,105.305 L259.434,105.305 z M265.014,105.305 L265.014,108.05 C265.014,108.538 265.066,109.716 267.264,109.716 C269.454,109.716 269.514,108.538 269.514,108.05 L269.514,105.305 L268.345,105.305 L268.345,107.766 C268.345,108.186 268.329,108.891 267.264,108.891 C266.191,108.891 266.177,108.186 266.177,107.766 L266.177,105.305 L265.014,105.305 z M225.955,106.115 L227.14,106.115 C228.032,106.115 228.37,106.611 228.37,107.406 C228.37,108.313 228.025,108.771 227.252,108.771 L225.955,108.771 L225.955,106.115 z M254.432,106.115 L255.617,106.115 C256.509,106.115 256.847,106.611 256.847,107.406 C256.847,108.313 256.495,108.771 255.722,108.771 L254.432,108.771 L254.432,106.115 z M241.645,106.228 L242.32,107.93 L240.969,107.93 L241.645,106.228 z M236.702,112.408 C236.47,112.491 236.125,113.166 236.125,113.166 L239.852,115.783 C240.084,115.648 240.325,115.536 240.573,115.446 L236.702,112.408 z M234.025,113.286 C233.785,113.398 233.5,114.185 233.5,114.185 L238.741,116.961 C238.794,116.781 238.877,116.609 239.012,116.451 C239.042,116.406 239.086,116.383 239.116,116.346 L234.025,113.286 z M264.879,113.338 L261.295,115.709 C261.58,115.866 261.917,115.933 262.254,115.985 L265.36,114.163 C265.375,113.916 264.879,113.338 264.879,113.338 z M267.49,114.389 L254.658,120.808 C254.703,120.89 254.74,120.98 254.778,121.063 L267.91,115.356 C267.955,115.093 267.49,114.389 267.49,114.389 z M234.557,116.046 C234.354,116.173 234.182,116.923 234.182,116.923 L238.509,118.574 C238.531,118.559 238.554,118.544 238.569,118.528 C238.606,118.311 238.614,118.078 238.622,117.853 L234.557,116.045 z M251.192,116.113 L250.906,118.175 C251.004,118.183 251.094,118.199 251.192,118.214 L251.596,116.113 L251.192,116.113 z M252.069,116.113 L251.492,118.288 C251.56,118.303 251.62,118.311 251.68,118.326 C251.71,118.334 251.739,118.348 251.769,118.356 L252.497,116.113 L252.069,116.113 z M253.007,116.113 L252.062,118.461 C252.152,118.499 252.242,118.529 252.324,118.574 L253.464,116.113 L253.007,116.113 z M254.034,116.113 L252.601,118.709 C252.691,118.754 252.766,118.806 252.849,118.851 L254.552,116.113 L254.034,116.113 z M255.204,116.113 L253.105,119.024 C253.188,119.084 253.261,119.135 253.336,119.195 L255.812,116.113 L255.204,116.113 z M256.607,116.113 L253.577,119.399 C253.644,119.459 253.711,119.518 253.779,119.593 L257.349,116.113 L256.608,116.113 z M258.346,116.113 L253.99,119.826 C254.057,119.894 254.11,119.968 254.17,120.043 L259.322,116.113 L258.346,116.113 z M260.687,116.113 L254.357,120.298 C254.41,120.373 254.454,120.456 254.507,120.538 L262.036,116.113 L260.687,116.113 z M243.804,116.563 C243.834,116.773 243.744,117.028 243.879,117.163 C244.157,117.381 244.48,117.816 244.862,117.651 C244.87,117.651 244.877,117.651 244.884,117.644 L243.805,116.562 z M272.777,118.656 C272.672,118.663 272.567,118.709 272.492,118.776 L268.81,122.053 C268.66,122.188 268.389,122.226 268.202,122.144 L264.077,120.118 C263.889,120.028 263.596,120.035 263.416,120.132 L262.382,120.695 C262.209,120.792 261.909,120.808 261.729,120.718 L260.409,120.11 C260.221,120.028 259.922,120.028 259.742,120.118 L258.872,120.553 C258.692,120.643 258.377,120.688 258.182,120.658 L257.425,120.531 C257.23,120.493 256.929,120.561 256.764,120.673 L254.663,122.144 C254.498,122.256 254.229,122.256 254.064,122.144 L252.879,121.288 C252.714,121.176 252.466,121.198 252.331,121.348 L251.042,122.75 C250.907,122.9 250.652,122.939 250.487,122.834 L248.656,121.678 C248.483,121.573 248.222,121.589 248.064,121.716 L247.254,122.375 C247.097,122.503 246.819,122.533 246.639,122.443 L244.651,121.49 C244.471,121.4 244.156,121.334 243.954,121.334 L242.394,121.334 C242.191,121.334 241.884,121.251 241.711,121.146 L239.792,120.036 L238.021,120.261 C238.501,120.779 239.633,121.716 239.843,121.956 C240.556,122.774 242.335,122.204 243.355,122.406 C244.375,122.609 245.432,122.856 246.684,123.163 C247.524,123.381 249.376,124.551 250.757,125.646 C250.764,125.646 250.78,125.63 250.795,125.63 C251.342,125.285 251.971,124.663 252.586,124.94 C253.119,125.203 253.585,125.54 254.05,125.87 C254.815,125.908 255.564,125.976 256.247,125.548 C256.659,125.143 257.071,124.731 257.476,124.529 C258.091,124.116 258.609,123.193 259.322,123.5 C259.734,123.703 259.119,123.914 258.812,124.326 L258.812,124.625 C258.609,124.828 258.301,124.934 258.091,125.144 C257.791,125.654 258.707,125.451 258.504,125.968 C258.504,126.268 257.995,126.171 257.68,126.269 C257.365,126.404 257.327,126.83 257.507,126.875 C257.837,127.018 258.451,127.348 259.029,127.678 C259.059,127.633 259.111,127.595 259.149,127.55 C259.254,127.588 259.351,127.626 259.471,127.663 C259.674,127.663 259.884,127.558 260.086,127.663 C260.289,127.866 260.492,127.865 260.702,127.865 C260.702,127.97 260.806,128.075 260.904,128.075 C261.106,128.382 260.596,128.893 260.904,128.998 C261.414,129.2 261.827,129.411 262.24,129.718 C262.345,129.921 262.135,130.334 262.24,130.334 C262.547,130.536 263.363,130.438 263.161,129.921 C262.958,129.411 262.441,129.2 261.721,128.998 C261.316,128.893 261.519,128.076 261.317,127.971 C260.739,127.641 259.959,127.573 259.202,127.498 C259.501,127.22 259.967,126.965 260.252,126.68 C260.349,126.47 260.147,126.066 260.252,125.863 C260.454,125.451 261.069,125.451 261.377,125.038 L261.377,124.731 C261.174,124.318 260.559,124.221 260.454,123.704 C261.481,124.116 262.607,124.01 263.74,124.01 C263.74,124.078 263.739,124.168 263.762,124.243 L266.132,123.141 C266.132,123.141 267.639,123.62 268.584,123.935 C269.424,123.125 269.634,122.646 270.017,123.029 C270.482,123.494 271.539,123.584 271.539,123.584 C271.539,123.584 273.301,121.746 274.794,119.706 L273.084,118.709 C272.994,118.664 272.881,118.641 272.776,118.656 z M240.399,119.3 L245.694,121.317 C245.732,121.227 245.762,121.138 245.807,121.048 L241.862,119.3 L240.399,119.3 z M243.151,119.3 L245.942,120.771 C245.979,120.689 246.024,120.599 246.076,120.516 L244.037,119.3 L243.151,119.3 z M244.877,119.3 L246.249,120.253 C246.302,120.178 246.355,120.104 246.415,120.021 L245.485,119.3 L244.877,119.3 z M246.069,119.3 L246.617,119.788 C246.677,119.721 246.744,119.646 246.812,119.579 L246.526,119.3 L246.069,119.3 z M246.977,119.3 L247.036,119.36 C247.058,119.345 247.082,119.315 247.105,119.3 L246.977,119.3 z M225.28,119.743 C225.317,120.883 226.291,121.611 226.809,122.541 C226.876,122.683 226.945,122.923 226.84,122.99 C226.667,123.2 226.419,123.306 226.179,123.516 C226.111,123.546 225.97,123.546 225.902,123.516 C225.662,123.239 225.557,122.923 225.347,122.615 C225.317,122.578 225.248,122.541 225.211,122.579 C225.001,122.751 224.657,122.961 224.799,123.163 C224.934,123.373 225.174,123.515 225.107,123.755 C225.077,123.86 225.002,123.966 225.039,124.033 C225.384,124.416 225.49,124.896 225.902,125.173 C226.082,125.278 226.217,125.143 226.352,125.106 C226.697,125.031 227.086,125.001 227.393,125.211 C227.431,125.624 227.258,126.111 227.461,126.456 C227.671,126.869 228.016,127.184 228.398,127.394 C229.051,127.701 229.262,128.465 229.607,129.05 C229.674,129.223 229.749,129.433 229.816,129.606 C229.959,129.951 230.019,130.334 230.064,130.716 C230.131,130.994 229.577,131.684 229.607,131.961 C229.674,132.756 229.712,133.07 229.78,133.865 C229.802,134.098 229.644,134.489 229.449,134.901 C228.759,131.751 227.288,128.098 224.393,128.098 C221.101,128.098 221.222,132.824 221.784,136.161 L228.826,136.161 C228.624,136.611 228.526,136.948 228.773,136.948 C228.878,136.91 229.09,136.979 229.09,137.084 C229.157,137.849 229.021,138.576 228.811,139.341 C228.534,140.309 226.906,140.375 226.456,141.313 C226.418,141.38 224.62,141.726 224.657,141.793 C224.83,142.108 226.943,142.137 226.771,142.452 C226.598,142.797 228.916,143.045 228.571,143.248 C228.046,143.66 226.666,144.845 227.011,145.19 C227.604,145.153 230.402,146.435 230.994,146.397 C231.099,146.397 231.204,146.36 231.309,146.33 C231.474,146.292 231.654,146.398 231.789,146.361 C232.089,146.316 232.142,146.743 232.285,146.93 L231.999,147.133 C232.066,147.23 232.103,147.306 232.148,147.418 C232.238,147.516 232.659,147.44 232.554,147.68 C232.532,147.74 232.33,147.868 232.217,147.928 C232.517,148.4 232.862,148.843 233.162,149.315 C233.207,149.405 232.689,150.283 232.307,150.913 C232.907,151.153 233.686,151.37 234.564,151.573 L234.684,150.995 C234.707,150.92 234.782,150.875 234.857,150.89 L234.872,150.89 L235.636,147.327 L234.196,140.788 C234.151,140.586 233.995,140.361 233.852,140.286 C233.702,140.211 233.559,139.986 233.521,139.783 L231.984,141.762 C231.842,141.897 231.714,142.175 231.706,142.378 L231.631,145.512 C231.624,145.715 231.459,145.896 231.249,145.911 L230.177,145.993 C229.974,146.008 229.802,145.859 229.787,145.656 L229.54,141.642 C229.525,141.44 229.607,141.141 229.72,140.969 L230.514,139.798 C230.499,139.746 230.499,139.685 230.499,139.633 C230.244,138.343 229.794,137.158 229.764,135.906 C229.741,134.878 230.155,133.896 230.102,132.861 C230.102,132.561 230.102,132.201 230.244,131.848 C230.319,131.668 230.521,131.45 230.701,131.375 L231.946,130.813 L231.924,130.896 L231.797,130.986 L231.894,131.046 L231.872,131.166 L231.977,131.098 L233.657,132.171 C233.575,132.231 233.521,132.313 233.521,132.418 C233.521,132.591 233.664,132.733 233.829,132.733 C234.001,132.733 234.144,132.591 234.144,132.418 C234.144,132.298 234.07,132.201 233.972,132.149 L235.412,130.738 L234.917,130.416 L236.477,130.641 C236.672,130.634 236.957,130.731 237.1,130.858 L237.407,131.135 C237.46,130.88 237.511,130.626 237.264,130.228 C236.971,129.748 235.291,129.598 234.646,129.351 C234.564,129.568 234.474,129.786 234.422,129.981 L234.084,130.325 C233.956,130.452 234.294,130.319 234.422,130.266 C234.437,130.296 234.459,130.318 234.451,130.356 C234.444,130.371 234.437,130.393 234.415,130.423 L234.466,130.445 L233.845,132.021 L232.682,130.356 L232.644,130.385 C232.689,130.07 232.861,129.68 232.704,129.433 C232.531,129.163 232.412,128.742 232.367,128.45 C232.434,128.457 232.531,128.473 232.584,128.481 L232.592,128.383 C231.467,128.27 230.949,128.045 230.949,127.873 C230.949,127.61 232.09,127.318 233.717,127.318 C235.345,127.318 236.485,127.61 236.485,127.873 C236.485,128.038 235.99,128.263 234.917,128.375 L234.925,128.473 C235.127,128.451 235.547,128.398 235.922,128.301 C236.372,128.503 236.776,128.698 237.091,128.863 C237.039,128.796 236.972,128.69 236.874,128.69 C236.792,128.15 237.107,127.536 236.874,127.154 C236.177,126.149 235.412,125.225 234.872,124.07 C234.64,123.688 234.182,123.531 233.874,123.223 C233.642,122.923 233.103,122.84 232.72,123.073 C232.405,123.223 232.254,123.688 231.947,123.921 C231.489,124.071 231.182,123.689 230.867,123.531 C230.627,123.411 230.244,123.395 229.937,123.5 C230.267,124.408 230.597,125.21 230.92,125.563 C231.212,125.893 231.82,126.276 232.547,126.673 C232.675,126.381 232.997,126.329 233.672,126.329 C234.632,126.329 234.85,126.456 234.865,127.086 C233.507,126.741 232.48,127.086 232.48,127.086 L232.427,127.296 C231.91,127.356 231.445,127.445 231.167,127.573 C231.047,127.213 231.024,126.629 230.822,126.524 C230.057,126.149 229.262,126.388 228.85,125.698 C228.505,125.143 228.602,124.409 228.16,123.966 C228.122,123.929 228.046,123.929 228.016,123.891 C227.844,123.509 227.529,123.103 227.709,122.683 C227.874,122.233 228.189,121.783 228.016,121.296 C227.911,120.951 227.709,120.606 227.394,120.396 C226.944,120.051 226.389,120.299 225.872,120.156 C225.662,120.089 225.52,119.811 225.28,119.743 z M244.005,123.959 L243.796,128.204 C243.623,128.114 243.45,128.038 243.27,127.986 C243.247,128.008 243.218,128.03 243.188,128.053 C243.398,128.105 243.593,128.203 243.788,128.315 L243.735,129.329 C243.608,129.434 243.495,129.53 243.457,129.613 C243.225,129.508 242.842,129.434 241.507,128.579 C241.515,128.541 241.65,128.474 241.822,128.399 C241.53,128.256 241.132,128.031 240.524,127.641 C240.532,127.589 240.93,127.43 241.17,127.31 C240.855,127.25 240.533,127.266 240.188,127.408 C240.18,127.513 239.347,127.859 239.332,127.956 C239.745,128.226 240.164,128.458 240.592,128.69 C240.517,128.735 240.457,128.78 240.457,128.803 C241.012,129.163 241.583,129.471 242.183,129.771 C242.175,129.846 242.168,129.928 242.161,130.026 C242.926,130.521 243.712,130.91 244.597,131.315 C244.634,131.233 244.725,131.129 244.83,131.016 C244.17,130.709 243.585,130.408 243,130.033 C243.008,129.973 243.487,129.785 243.719,129.673 L243.683,130.423 L244.44,130.423 L244.426,130.671 L245.205,130.671 C245.145,130.761 245.077,130.851 245.032,130.918 C245.167,130.986 245.303,131.045 245.445,131.113 C245.498,130.985 245.655,130.836 245.82,130.671 L245.88,130.671 L245.88,130.618 C246.09,130.415 246.33,130.213 246.457,130.063 C246.285,129.928 246.067,129.8 245.827,129.688 L245.558,124.214 L244.823,124.214 C244.823,124.169 244.815,123.959 244.815,123.959 L244.005,123.959 z M244.298,124.266 L244.515,124.266 C244.53,124.514 244.613,126.561 244.62,126.786 L244.5,129.269 C244.478,129.621 244.462,129.943 244.447,130.115 L244.005,130.115 C244.02,129.815 244.283,124.536 244.298,124.266 z M245.041,124.521 L245.265,124.521 C245.272,124.791 245.535,130.07 245.558,130.37 L244.748,130.37 C244.755,130.325 244.778,129.763 244.793,129.56 L244.935,126.921 C244.935,126.921 244.928,126.786 244.928,126.771 C244.98,125.751 245.04,124.626 245.04,124.521 z M233.663,127.625 C233.34,127.633 233.026,127.686 232.718,127.843 C232.523,127.918 232.403,128.075 232.485,128.308 C232.523,128.27 232.561,128.189 232.598,128.151 C232.673,128.151 232.831,128.225 232.906,128.188 C233.258,127.918 233.64,127.731 234.06,127.843 C234.255,127.881 234.293,128.075 234.488,128.188 C234.6,128.27 234.712,128.226 234.832,128.226 C234.869,128.076 234.788,127.956 234.683,127.843 C234.683,127.806 234.6,127.76 234.637,127.693 C234.315,127.648 233.986,127.61 233.663,127.625 z M233.985,128.428 L234.142,128.51 C234.105,128.525 234.142,128.616 234.142,128.661 L234.293,128.661 C234.33,128.586 234.217,128.465 234.142,128.503 C234.097,128.428 234.06,128.428 233.985,128.428 z M233.603,128.473 C233.52,128.473 233.482,128.473 233.445,128.548 L233.603,128.473 z M233.445,128.548 C233.37,128.518 233.258,128.631 233.295,128.706 L233.445,128.706 C233.445,128.669 233.482,128.57 233.445,128.548 z M234,129.103 C233.91,129.088 233.804,129.103 233.707,129.118 C233.617,129.148 233.588,129.238 233.49,129.305 C233.52,129.335 233.55,129.365 233.565,129.365 L233.579,129.403 C233.782,129.463 233.992,129.411 234.202,129.411 C234.142,129.388 234.105,129.328 234.053,129.305 L234.18,129.305 C234.165,129.178 234.09,129.126 234,129.103 z M256.74,131.375 L255.255,132.635 L256.207,132.635 L257.541,131.413 L256.74,131.375 z M257.969,131.413 L256.589,132.598 L257.678,132.598 L258.712,131.413 L257.969,131.413 z M259.102,131.413 L258.104,132.598 L259.094,132.598 L259.928,131.428 L259.102,131.413 z M236.881,132.606 L236.333,137.151 C236.371,137.211 236.402,137.278 236.417,137.346 L236.888,141.418 L236.979,141.005 C236.994,140.93 237.068,140.877 237.143,140.892 L237.331,140.93 C237.413,140.945 237.466,141.028 237.451,141.103 L237.061,142.887 L237.744,148.647 C237.766,148.85 237.624,149.023 237.422,149.031 L236.393,149.091 C236.191,149.098 235.989,148.948 235.944,148.753 L235.884,148.452 L235.344,150.988 L235.352,150.995 C235.427,151.01 235.478,151.086 235.463,151.168 L235.336,151.738 C237.188,152.106 238.704,152.203 239.019,151.798 C238.779,151.813 238.539,151.82 238.299,151.775 C238.127,151.737 237.983,151.288 238.021,151.288 C238.096,151.221 238.097,151.078 238.165,151.041 C238.472,150.973 239.155,150.433 239.41,150.313 C239.387,150.253 239.395,150.215 239.41,150.185 C238.18,149.33 237.977,147.207 237.977,147.207 L239.124,146.96 L239.364,148.108 C239.372,148.131 239.395,148.183 239.41,148.176 L239.919,148.07 C239.934,148.063 239.934,148.011 239.934,147.996 L239.686,146.849 L240.766,146.616 C240.766,146.616 241.607,148.888 240.535,150.133 C240.625,150.163 240.714,150.201 240.797,150.245 C240.932,150.35 241.007,150.59 241.104,150.56 C241.487,150.38 241.696,149.968 242.011,149.69 C241.869,149.308 241.42,149.241 241.285,148.866 C241.285,148.791 241.247,148.686 241.285,148.618 C241.562,148.311 241.801,147.996 241.936,147.613 C242.011,147.336 241.937,147.028 241.975,146.75 C242.012,146.54 242.243,146.33 242.146,146.195 C241.973,145.918 240.309,145.573 240.136,145.265 C240.069,145.16 240.099,144.98 240.136,144.815 C240.271,144.328 240.068,143.916 240.031,143.421 C240.031,143.181 239.821,142.97 239.821,142.7 C240.346,142.528 242.147,142.701 242.664,142.491 L242.664,142.356 C242.424,141.906 242.146,141.448 241.898,140.998 C241.868,140.893 241.868,140.759 241.898,140.654 C241.928,140.609 241.952,140.549 241.996,140.526 C242.424,140.601 242.949,140.555 243.362,140.623 C243.632,140.69 243.706,140.443 243.841,140.233 C243.841,140.203 243.984,140.202 244.052,140.202 C244.119,140.165 244.156,140.068 244.156,139.993 C244.156,139.303 242.387,139.168 242.042,138.538 C241.592,137.743 241.524,137.608 240.797,137.015 C239.822,136.25 240.008,135.905 239.521,135.2 C239.078,135.823 238.486,136.559 238.059,136.851 C238.089,137.181 238.066,137.518 237.826,137.69 L237.893,137.654 C237.803,137.736 237.721,137.81 237.638,137.878 L239.619,146.825 L239.162,146.924 L237.219,138.171 C236.552,138.524 236.792,137.624 236.657,137.414 C236.762,137.249 236.874,137.158 236.979,137.068 L236.934,136.873 C236.784,136.926 236.641,136.911 236.559,136.686 C236.679,136.588 237.182,135.935 237.302,136.018 C237.399,136.063 237.504,136.086 237.609,136.109 C237.624,136.079 238.449,134.579 238.756,134.226 C238.719,134.159 238.681,134.099 238.636,134.031 L236.956,132.688 L236.881,132.606 z M258.781,132.793 L255.616,139.197 L265.314,139.197 L262.802,132.793 L258.781,132.793 z M254.903,133.115 L248.213,139.476 L253.35,139.476 L253.614,139.108 L249.023,139.108 L255.331,133.115 L254.903,133.115 z M259.036,133.206 L262.516,133.206 C262.614,133.446 264.511,138.276 264.706,138.786 L256.283,138.786 C256.553,138.253 258.931,133.424 259.036,133.206 z M231.383,133.558 C231.406,134.09 231.429,134.495 230.972,135.808 C231.092,136.228 231.114,136.386 231.039,137.084 C231.024,137.241 231.046,137.383 231.076,137.533 C231.113,137.736 231.166,137.922 231.189,138.132 C231.211,138.282 231.264,138.425 231.316,138.56 C231.324,138.575 231.324,138.583 231.324,138.598 L232.434,136.955 L231.384,133.558 z M237.631,136.115 C237.736,136.138 237.834,136.168 237.909,136.221 C237.849,136.146 237.759,136.093 237.631,136.115 z M237.369,136.528 L237.347,136.55 L237.354,136.565 C237.354,136.558 237.362,136.543 237.369,136.528 z M231.369,138.899 C231.136,139.004 230.761,138.957 230.761,139.257 C230.716,139.64 230.603,140.217 231.023,140.39 L230.859,140.3 C232.089,141.133 231.879,140.728 232.172,140.428 C231.939,140.083 231.444,139.753 231.316,139.341 C231.294,139.303 231.841,139.971 232.006,139.468 C231.901,139.386 231.474,138.831 231.369,138.899 z M254.567,139.685 L250.786,145.993 C251.318,146.045 251.852,146.091 252.295,146.091 C253.315,146.091 254.941,146.398 255.038,146.908 C255.143,147.418 255.489,148.4 256.307,148.505 C257.117,148.602 258.848,148.805 258.848,148.805 C258.848,148.805 257.222,149.623 257.319,150.44 C257.387,150.958 258.939,150.86 260.139,150.897 C260.836,150.132 261.946,149.082 262.726,149.149 C263.761,149.232 264.287,149.247 266.012,148.82 C265.944,148.145 265.952,147.77 265.884,147.582 C265.884,147.582 265.246,148.325 264.279,148.325 C263.814,148.325 263.687,147.89 263.822,147.507 C263.949,147.125 263.866,146.285 263.791,146.18 C263.716,146.075 263.896,145.671 263.896,145.671 C262.824,145.468 262.396,144.702 262.396,144.702 C262.396,144.702 263.746,144.32 264.077,144.447 C264.406,144.575 264.932,144.103 265.449,144.065 C266.117,144.013 266.341,144.267 266.341,144.267 C266.341,144.267 266.724,143.938 267.009,143.938 C267.287,143.938 267.031,144.448 266.829,144.755 C266.829,144.755 267.34,146.053 268.052,146.233 C268.36,146.308 269.372,146.322 270.452,146.33 L266.858,139.798 L254.566,139.685 z M248.17,139.805 L246.466,141.575 L246.67,141.762 L248.372,140 L248.17,139.805 z M249.151,139.813 L247.059,142.003 L247.261,142.198 L249.355,140 L249.151,139.813 z M250.112,139.813 L247.42,142.82 L247.471,142.858 C247.126,142.941 242.47,144.05 243.355,144.935 C243.865,145.445 245.312,145.67 246.624,145.767 L247.216,145.805 C247.448,145.82 247.667,145.827 247.877,145.835 L247.855,145.663 L252.271,139.993 L252.054,139.82 L247.824,145.258 L247.718,144.207 L251.312,140 L251.102,139.82 L247.689,143.825 L247.607,142.986 L247.622,143 L250.321,139.993 L250.112,139.813 z M253.021,139.82 L248.679,145.873 L248.903,146.039 L253.247,139.986 L253.021,139.82 z M254.843,140.181 L266.536,140.181 L267.925,142.784 L253.456,142.784 L254.844,140.181 z M237.1,141.171 L234.961,150.815 L235.119,150.853 L237.256,141.207 L237.1,141.171 z M231.144,146.721 C231.196,146.909 231.331,147.044 231.286,147.276 C231.518,147.276 231.698,147.688 231.788,147.508 C231.931,147.275 231.376,147.044 231.653,146.721 L231.144,146.721 z M247.426,147.861 C246.113,147.846 244.845,148.168 243.563,148.168 C243.15,148.168 243.36,148.514 243.428,148.656 C243.495,148.859 243.84,148.791 244.05,148.791 L244.05,149 C245.641,149.135 247.164,148.79 248.829,149.135 C248.971,149.203 248.971,149.346 249.038,149.414 C249.106,149.691 248.971,149.968 249.106,150.111 C249.451,150.523 250.216,150.179 250.486,150.659 C250.628,150.869 250.56,151.146 250.56,151.356 C251.603,151.011 252.706,150.801 253.538,149.969 L253.538,149.69 C252.428,149.068 251.115,149.203 249.938,148.858 C249.87,148.858 250.005,148.311 249.87,148.236 C249.45,147.823 248.76,148.101 248.13,148.034 C248.063,148.034 248.063,147.89 247.995,147.89 C247.808,147.875 247.62,147.868 247.425,147.861 z M237.706,149.121 C237.909,149.526 238.111,149.93 238.464,150.185 C238.621,150.343 238.464,150.492 238.516,150.65 C238.111,150.747 237.601,150.853 237.293,150.695 C236.993,150.545 236.784,150.185 236.581,149.832 C236.536,149.832 236.379,149.834 236.334,149.781 C236.281,149.631 236.281,149.375 236.334,149.375 C236.731,149.225 237.196,149.375 237.601,149.323 C237.706,149.323 237.706,149.12 237.706,149.12 z M262.096,152.188 L258.856,153.808 L258.827,154.663 L258.827,154.707 L262.397,155.128 L262.096,152.188 z M249.743,153.388 C248.926,153.493 248.416,154.002 247.606,154.205 L246.991,154.205 C247.606,154.505 248.318,154.206 248.933,154.303 L248.521,154.205 C249.339,154.302 250.156,154.206 250.966,154.101 L250.966,153.793 C250.561,153.696 250.051,154.002 249.743,153.59 L249.743,153.388 z" fill="#FFFFFF"></path><path d="M251.498,31.144 L235.284,32.267 L235.592,39.813 L236.402,39.754 C236.634,35.303 237.355,33.103 242.125,32.773 L243.174,47.939 C243.324,50.105 242.934,50.349 239.897,50.561 L239.964,51.535 L249.549,50.871 L249.481,49.896 C246.451,50.104 246.032,49.915 245.882,47.75 L244.832,32.585 C249.594,32.255 250.547,34.637 251.455,38.71 L252.294,38.651 L251.498,31.144 z M255.361,31.157 L255.212,32.124 C257.889,32.546 258.196,33.201 258.001,34.459 L255.842,48.13 C255.587,49.711 254.881,49.877 252.496,49.498 L252.339,50.464 L269.259,53.136 L270.879,45.644 L270.047,45.511 C268.089,50.973 267.047,51.799 261.34,50.896 C258.58,50.461 258.309,49.895 258.557,48.341 L259.585,41.827 C263.02,42.37 264.242,43.305 264.002,46.919 L264.67,47.027 L266.102,37.966 L265.405,37.856 C264.655,41.391 262.9,41.361 259.735,40.862 L260.68,34.882 C260.912,33.435 261.264,33.077 264.384,33.57 C269.634,34.4 269.987,35.253 270.317,40.525 L271.067,40.645 L272.012,33.788 L255.362,31.157 z M223.036,34.851 L221.641,35.282 L220.973,52.521 C220.921,53.732 220.764,55.541 218.304,56.296 L218.589,57.232 L225.699,55.047 L225.413,54.114 C224.401,54.425 222.721,54.77 222.293,53.394 C222.211,53.136 222.174,52.635 222.189,52.036 L222.204,49.306 L228.841,47.265 L230.132,49.055 C230.829,50.033 231.414,50.734 231.534,51.124 C231.826,52.056 230.626,52.509 228.863,53.05 L229.149,53.986 L237.841,51.313 L237.548,50.38 C235.711,50.947 234.924,51.075 233.461,49.083 L223.036,34.851 z M222.624,38.584 L227.978,46.11 L222.242,47.874 L222.572,38.6 L222.624,38.584 z M287.236,38.608 L286.756,39.458 C288.691,40.555 289.223,41.164 288.39,42.628 L283.178,51.842 C280.936,55.813 282.923,59.245 286.013,60.996 C289.531,62.987 293.078,62.901 295.253,59.05 L299.693,51.207 C300.961,48.963 302.041,48.106 304.26,49.362 L304.741,48.512 L298.553,45.01 L298.073,45.861 C300.15,47.036 299.993,48.474 298.575,50.978 L294.286,58.562 C292.839,61.114 290.213,62.122 287.183,60.411 C284.161,58.7 283.868,56.13 285.421,53.39 L290.409,44.58 C291.609,42.454 291.901,42.371 294.414,43.789 L294.885,42.938 L287.236,38.608 z M209.918,40.087 L195.871,48.277 L199.487,54.906 L200.19,54.496 C198.431,50.4 198.101,48.109 202.225,45.703 L209.883,58.831 C210.978,60.706 210.738,61.098 208.111,62.63 L208.604,63.477 L216.902,58.634 L216.407,57.789 C213.782,59.321 213.324,59.338 212.228,57.463 L204.567,44.335 C208.693,41.929 210.605,43.642 213.225,46.892 L213.953,46.467 L209.916,40.088 z M191.969,50.709 L191.422,51.196 C191.673,51.805 192.108,52.911 191.562,53.395 C190.689,54.171 188.419,53.864 186.593,55.488 C184.137,57.669 183.807,60.651 185.808,62.902 C191.328,69.11 198.669,58.736 202.239,62.754 C204.007,64.741 203.181,67.04 201.291,68.716 C198.491,71.204 194.034,70.156 191.143,68.004 L190.615,68.473 C191.626,69.607 192.753,70.673 193.763,71.81 C195.155,73.372 195.691,74.057 196.119,74.622 L196.687,74.118 C196.347,73.406 196.051,72.213 196.76,71.584 C197.549,70.881 199.607,71.518 201.92,69.464 C204.397,67.264 205.53,64.003 203.168,61.346 C197.414,54.873 190.534,65.93 186.568,61.467 C185.106,59.823 185.535,57.734 187.056,56.381 C189.941,53.819 193.787,55.045 196.58,56.997 L197.127,56.51 C196.279,55.557 195.332,54.696 194.482,53.742 C193.635,52.79 192.87,51.725 191.969,50.709 z M308.146,51.083 L307.456,51.781 C308.408,52.711 309.601,54.212 308.386,55.454 L300.781,63.239 C299.078,64.988 297.346,66.484 295.148,64.344 L294.466,65.043 L299.949,70.391 L300.622,69.692 C299.032,68.136 299.079,66.541 301.006,64.562 L308.557,56.833 L308.634,56.833 L305.776,76.846 L306.285,77.339 L317.454,65.906 C319.201,64.117 320.626,64.638 321.826,65.815 L322.508,65.118 L317.386,60.109 L316.704,60.807 C317.971,62.268 318.099,63.69 316.771,65.05 L309.016,72.991 L308.94,72.991 L311.603,54.458 L308.146,51.083 z M324.713,68.584 L323.903,69.134 C325.343,71.243 325.433,71.845 324.105,72.746 L312.668,80.554 C311.348,81.46 310.815,81.164 309.375,79.055 L308.565,79.607 L313.636,87.028 L314.445,86.479 C312.96,84.302 312.879,83.701 314.199,82.798 L325.635,74.99 C326.955,74.086 327.487,74.38 328.942,76.511 L329.752,75.958 L324.713,68.584 z M249.705,68.822 L242.835,69.217 L242.865,69.616 C243.968,69.55 244.148,69.784 244.178,70.304 L244.508,75.944 C244.545,76.595 244.268,76.723 243.286,76.78 L243.315,77.179 L250.291,76.776 L250.282,73.648 L249.945,73.667 C249.63,76.014 249.293,76.432 246.938,76.569 C245.798,76.634 245.641,76.432 245.603,75.793 L245.452,73.105 C246.862,73.023 247.432,73.289 247.65,74.753 L247.928,74.737 L247.717,71.001 L247.426,71.017 C247.433,72.491 246.728,72.633 245.43,72.708 L245.28,70.244 C245.25,69.647 245.362,69.473 246.645,69.399 C248.812,69.274 249.031,69.582 249.615,71.656 L249.923,71.639 L249.705,68.822 z M258.871,69.405 C257.783,69.391 256.965,70.022 256.777,71.081 C256.193,74.415 261.369,74.14 260.986,76.298 C260.799,77.367 259.853,77.682 258.833,77.504 C257.333,77.238 256.546,75.547 256.501,74.078 L256.215,74.026 C256.102,74.636 256.05,75.267 255.945,75.879 C255.795,76.719 255.713,77.061 255.645,77.343 L255.945,77.398 C256.088,77.107 256.395,76.712 256.77,76.779 C257.198,76.852 257.513,77.673 258.758,77.892 C260.093,78.129 261.421,77.667 261.669,76.237 C262.284,72.758 257.011,73.356 257.431,70.959 C257.588,70.074 258.368,69.682 259.186,69.827 C260.731,70.1 261.315,71.642 261.398,73.03 L261.691,73.083 C261.781,72.57 261.817,72.048 261.907,71.533 C261.997,71.021 262.148,70.507 262.246,69.96 L261.945,69.91 C261.81,70.144 261.57,70.563 261.277,70.514 C260.812,70.429 260.332,69.625 259.35,69.452 C259.185,69.422 259.028,69.407 258.871,69.405 z M240.113,69.616 L236.64,70.499 L236.731,70.883 C237.698,70.64 237.938,70.693 238.103,71.327 L238.718,73.741 L235.32,74.599 L234.705,72.185 C234.547,71.551 234.735,71.39 235.702,71.143 L235.606,70.758 L232.125,71.642 L232.223,72.025 C233.236,71.77 233.475,71.822 233.633,72.457 L235.029,77.932 C235.186,78.567 234.998,78.728 233.986,78.985 L234.091,79.37 L237.563,78.487 L237.466,78.101 C236.499,78.347 236.258,78.294 236.101,77.662 L235.462,75.138 L238.853,74.278 L239.491,76.802 C239.656,77.434 239.46,77.595 238.5,77.842 L238.598,78.226 L242.077,77.344 L241.981,76.957 C240.968,77.215 240.728,77.162 240.563,76.528 L239.176,71.053 C239.011,70.419 239.205,70.256 240.21,70.002 L240.113,69.616 z M265.051,70.848 L263.962,73.731 L264.277,73.84 C265.08,72.203 265.695,71.491 267.54,72.124 L265.523,77.99 C265.238,78.828 265.051,78.857 263.873,78.455 L263.746,78.833 L267.45,80.106 L267.585,79.726 C266.415,79.324 266.28,79.185 266.573,78.348 L268.583,72.484 C270.428,73.116 270.405,74.165 270.097,75.838 L270.428,75.95 L271.32,73.003 L265.051,70.848 z M229.665,72.585 L223.635,75.348 L224.836,78.185 L225.142,78.046 C224.587,76.312 224.542,75.368 226.312,74.555 L228.901,80.195 C229.268,81.001 229.156,81.152 228.031,81.668 L228.195,82.029 L231.757,80.397 L231.593,80.034 C230.461,80.551 230.273,80.54 229.906,79.733 L227.325,74.097 C229.095,73.284 229.8,74.058 230.738,75.482 L231.053,75.339 L229.665,72.585 z M276.907,75.523 L271.657,80.215 C271.289,80.544 270.712,81.011 269.789,80.501 L269.602,80.85 L272.258,82.317 L272.452,81.969 C272.07,81.76 271.492,81.365 271.777,80.85 C271.83,80.752 271.965,80.6 272.145,80.434 L272.947,79.663 L275.43,81.034 L275.272,81.922 C275.182,82.403 275.145,82.772 275.063,82.919 C274.868,83.267 274.395,83.046 273.743,82.679 L273.548,83.031 L276.794,84.824 L276.982,84.475 C276.299,84.095 276.037,83.901 276.21,82.906 L277.433,75.815 L276.907,75.523 z M276.195,76.741 L276.217,76.752 L275.527,80.456 L273.383,79.272 L276.195,76.741 z M169.056,77.024 L168.318,78.291 L179.517,91.423 C180.298,92.345 181.41,93.779 180.113,96.006 L180.958,96.5 L184.698,90.074 L183.857,89.578 C183.323,90.493 182.323,91.888 181.08,91.168 C180.846,91.025 180.477,90.688 180.079,90.238 L178.238,88.221 L181.736,82.219 L183.9,82.661 C185.077,82.904 185.98,83.024 186.33,83.23 C187.174,83.723 186.603,84.867 185.673,86.461 L186.519,86.953 L191.101,79.096 L190.254,78.602 C189.285,80.268 188.792,80.892 186.363,80.423 L169.056,77.024 z M330.923,77.086 L330.031,77.493 C330.969,79.541 330.939,79.857 329.221,81.536 L316.577,94.015 L316.921,94.78 L331.32,93.744 C333.863,93.564 336.795,92.732 338.265,95.492 L339.159,95.08 L336.173,88.563 L335.289,88.975 C335.746,90.37 336.158,91.465 334.575,92.193 C334.23,92.35 333.78,92.47 332.94,92.522 L320.685,93.475 L320.663,93.422 L330.128,84.348 C330.728,83.774 331.134,83.35 331.651,83.113 C332.244,82.843 332.633,83.17 333.69,85.492 L334.575,85.085 L330.923,77.086 z M217.979,78.805 L212.594,83.026 L212.835,83.339 C213.855,82.54 213.922,82.548 214.552,83.351 L217.732,87.412 C218.249,88.075 218.234,88.232 217.259,88.989 L217.506,89.304 L220.402,87.034 L220.155,86.722 C219.397,87.316 219.15,87.428 218.655,86.79 L217.004,84.691 C218.226,83.735 218.684,83.641 219.689,84.921 L219.914,84.744 L217.499,81.658 L217.275,81.835 C218.235,83.065 217.859,83.516 216.756,84.376 L215.287,82.504 C214.792,81.866 214.785,81.761 215.969,80.833 C217.575,79.569 218.212,80.104 219.72,81.328 L219.907,81.179 L217.979,78.806 z M282.495,79.16 L280.493,81.505 L280.755,81.712 C282.06,80.443 282.884,79.984 284.4,81.206 L280.515,86.039 C279.96,86.729 279.773,86.694 278.805,85.917 L278.558,86.226 L281.609,88.681 L281.857,88.375 C280.897,87.595 280.822,87.424 281.378,86.733 L285.262,81.899 C286.785,83.12 286.409,84.1 285.547,85.569 L285.818,85.787 L287.662,83.317 L282.495,79.16 z M171.276,80.049 L180.315,81.955 L177.293,87.139 L171.249,80.096 L171.276,80.049 z M289.538,85.041 L289.237,85.305 C289.972,86.135 289.898,86.421 289.508,86.767 L285.271,90.498 C284.783,90.933 284.512,90.798 283.86,90.063 L283.561,90.325 L288.189,95.568 L290.648,93.64 L290.422,93.378 C288.382,94.585 287.835,94.569 286.275,92.799 C285.525,91.944 285.586,91.697 286.073,91.277 L288.09,89.491 C289.028,90.556 289.17,91.171 288.151,92.244 L288.338,92.455 L291.143,89.972 L290.956,89.762 C289.793,90.677 289.253,90.204 288.391,89.229 L290.242,87.594 C290.692,87.199 290.896,87.18 291.751,88.142 C293.184,89.77 293.07,90.138 291.802,91.878 L292.006,92.109 L294.091,90.205 L289.538,85.041 z M210.562,86.245 C209.691,86.234 208.84,86.525 208.186,87.247 C206.692,88.9 207.552,91.352 208.98,92.642 C210.413,93.932 212.939,94.547 214.432,92.897 C215.924,91.24 215.069,88.788 213.636,87.498 C212.826,86.771 211.681,86.259 210.562,86.245 z M209.759,86.89 C210.759,86.86 211.854,87.654 212.759,88.472 C214.072,89.657 215.378,91.255 214.14,92.628 C212.895,94 211.176,92.859 209.86,91.674 C208.544,90.482 207.243,88.885 208.483,87.512 C208.871,87.086 209.305,86.903 209.759,86.89 z M162.523,90.332 L160.613,97.232 L161.557,97.494 C162.227,95.679 163.404,94.877 165.238,95.387 L175.937,98.342 L175.976,98.409 L158.458,105.032 L157.173,109.681 L158.113,109.944 C158.467,108.661 159.211,106.899 160.882,107.364 L171.374,110.267 C173.728,110.912 175.875,111.707 175.059,114.662 L176.001,114.924 L178.037,107.544 L177.098,107.282 C176.505,109.427 175.087,110.161 172.419,109.426 L162.007,106.547 L161.971,106.479 L180.877,99.318 L181.066,98.635 L165.655,94.375 C163.252,93.715 163.016,92.207 163.465,90.587 L162.523,90.332 z M339.736,97.037 L338.784,97.232 C339.323,99.894 338.822,100.412 337.569,100.659 L324.001,103.426 C322.434,103.749 322.029,103.135 321.549,100.765 L320.588,100.96 L324.009,117.744 L331.591,116.65 L331.425,115.816 C325.62,115.891 324.488,115.209 323.333,109.547 C322.778,106.802 323.214,106.352 324.759,106.037 L331.216,104.724 C331.913,108.129 331.464,109.607 327.992,110.65 L328.126,111.309 L337.111,109.479 L336.976,108.789 C333.406,109.322 332.813,107.672 332.176,104.53 L338.108,103.322 C339.548,103.03 340.007,103.247 340.629,106.33 C341.694,111.55 341.019,112.18 336.189,114.325 L336.339,115.066 L343.096,113.559 L339.736,97.037 z M296.919,97.561 C296.162,97.576 295.396,97.772 294.751,98.102 C293.034,98.979 291.57,101.132 292.59,103.112 C293.603,105.091 296.207,105.152 297.917,104.275 C299.634,103.39 301.096,101.245 300.083,99.265 C299.446,98.027 298.187,97.539 296.919,97.561 z M206.378,97.757 L206.236,98.02 C207.814,99.437 208.227,100.18 207.576,101.395 L207.121,102.241 C206.732,102.969 206.529,102.865 205.632,102.385 L201.175,99.977 C200.524,99.625 200.47,99.445 201.055,98.35 L200.703,98.163 L198.94,101.441 L199.291,101.636 C199.75,100.781 199.928,100.562 200.844,101.057 L204.969,103.278 C206.186,103.938 206.156,104.02 205.615,105.025 L205.967,105.213 L209.096,99.4 L206.377,97.751 z M297.812,98.431 C298.607,98.371 299.305,98.62 299.725,99.445 C300.572,101.088 298.899,102.302 297.324,103.104 C295.749,103.922 293.791,104.574 292.944,102.931 C292.104,101.281 293.77,100.075 295.352,99.265 C296.14,98.86 297.024,98.491 297.812,98.431 z M302.485,104.883 L302.102,105.001 C302.485,106.239 302.455,106.299 301.48,106.599 L296.552,108.129 C295.749,108.384 295.614,108.31 295.247,107.14 L294.864,107.251 L295.959,110.77 L296.334,110.65 C296.049,109.727 296.034,109.449 296.807,109.217 L299.357,108.422 C299.822,109.899 299.739,110.364 298.187,110.844 L298.269,111.121 L302.011,109.96 L301.929,109.689 C300.444,110.146 300.152,109.636 299.739,108.301 L302.011,107.597 C302.784,107.357 302.881,107.38 303.331,108.82 C303.939,110.778 303.22,111.175 301.54,112.15 L301.607,112.381 L304.509,111.422 L302.485,104.882 z M205.096,106.075 C204.856,106.825 204.712,107.11 203.704,107.14 L196.504,107.282 L196.32,107.852 L201.926,112.111 C202.317,112.419 202.886,112.892 202.56,113.897 L202.94,114.017 L203.877,111.129 L203.498,110.994 C203.368,111.406 203.086,112.051 202.527,111.871 C202.425,111.833 202.245,111.729 202.048,111.587 L201.14,110.942 L202.013,108.25 L202.914,108.234 C203.404,108.234 203.777,108.197 203.936,108.25 C204.315,108.377 204.184,108.879 203.955,109.599 L204.333,109.719 L205.476,106.195 L205.097,106.067 z M201.426,108.272 L200.672,110.604 L197.651,108.316 L197.656,108.294 L201.426,108.272 z M166.454,114.542 C161.731,114.429 156.07,117.347 155.947,122.799 C155.823,128.252 161.344,131.417 166.067,131.53 C170.785,131.635 176.444,128.724 176.57,123.264 C176.696,117.812 171.172,114.647 166.454,114.542 z M194.741,114.744 L193.859,121.569 L194.257,121.621 C194.398,120.519 194.66,120.392 195.18,120.452 L200.785,121.179 C201.431,121.261 201.503,121.547 201.38,122.529 L201.777,122.582 L202.669,115.645 L199.592,115.066 L199.55,115.412 C201.798,116.147 202.15,116.56 201.848,118.9 C201.703,120.04 201.474,120.144 200.835,120.069 L198.163,119.724 C198.345,118.314 198.714,117.804 200.193,117.857 L200.227,117.587 L196.512,117.107 L196.478,117.392 C197.928,117.662 197.937,118.374 197.767,119.672 L195.319,119.357 C194.725,119.274 194.575,119.139 194.738,117.857 C195.017,115.712 195.361,115.547 197.509,115.359 L197.548,115.051 L194.741,114.744 z M166.38,117.736 C170.722,117.841 175.7,118.711 175.598,123.241 C175.491,127.779 170.481,128.423 166.14,128.326 C161.798,128.221 156.821,127.351 156.928,122.821 C157.03,118.284 162.041,117.639 166.381,117.736 z M298.202,118.246 L297.803,118.27 L297.961,121.299 L298.358,121.277 C298.336,120.85 298.366,120.151 298.959,120.121 C299.064,120.106 299.267,120.145 299.507,120.212 L300.586,120.482 L300.736,123.316 L299.896,123.647 C299.446,123.827 299.108,123.991 298.936,123.999 C298.546,124.021 298.479,123.504 298.442,122.754 L298.043,122.777 L298.246,126.482 L298.644,126.46 C298.599,125.672 298.621,125.349 299.558,124.967 L306.226,122.244 L306.197,121.652 L299.431,119.679 C298.958,119.544 298.254,119.296 298.202,118.246 z M278.821,119.402 C277.531,119.402 276.578,120.354 275.918,121.426 C275.91,121.434 275.904,121.45 275.889,121.457 C275.634,121.81 272.888,124.314 271.838,124.847 C271.328,125.147 270.406,124.944 269.783,125.357 C269.483,125.664 269.274,126.174 269.071,126.587 C268.569,127.082 267.879,127.194 267.369,127.674 C267.159,127.659 266.964,127.712 266.867,127.974 C266.799,127.937 266.657,127.997 266.612,128.02 C266.199,128.327 265.988,128.739 265.785,129.249 C265.575,129.459 265.276,129.556 264.968,129.766 C264.968,129.871 264.759,129.968 264.864,130.073 L265.17,130.073 C265.17,130.073 266.641,129.819 267.376,129.857 C267.436,129.887 269.634,130.539 270.143,130.794 C270.811,131.207 272.761,132.173 273.069,132.383 C273.631,132.841 273.886,133.561 274.509,133.869 C274.786,134.011 276.504,134.686 276.557,134.686 C277.509,135.196 278.349,136.306 278.499,137.446 C278.461,137.828 278.694,139.757 278.769,139.974 C278.776,140.004 278.79,140.019 278.798,140.042 C281.475,134.072 281.574,128.873 281.574,128.828 L281.574,121.592 C281.274,121.345 280.988,121.254 280.11,120.819 C280.11,120.804 280.103,120.804 280.103,120.789 C280.05,120.587 279.946,120.43 279.841,120.28 C279.586,119.912 279.174,119.657 278.821,119.402 z M324.323,119.633 L323.873,128.417 L324.849,128.462 C324.969,126.19 325.088,125.462 327.556,125.589 L333.631,125.897 L333.541,127.412 C333.369,130.832 332.356,131.596 328.599,131.701 C323.536,131.851 323.078,133.343 323.01,134.701 C322.913,136.546 324.001,137.634 327.976,138.001 L328.022,137.191 C325.659,136.959 325.254,136.449 325.284,135.879 C325.396,133.659 331.403,135.347 333.683,130.089 L333.736,130.089 C333.886,133.577 335.529,136.517 338.214,136.652 C342.331,136.862 343.216,132.886 343.373,129.818 L343.838,120.631 L342.863,120.58 C342.736,123.16 342.548,123.639 340.755,123.549 L328.073,122.897 C325.358,122.762 325.163,122.334 325.298,119.679 L324.323,119.633 z M301.149,120.647 L304.786,121.689 L304.794,121.712 L301.284,123.092 L301.149,120.647 z M199.875,123.895 C196.344,124.03 198.037,129.062 195.601,129.152 C194.703,129.182 194.158,128.507 194.124,127.674 C194.071,126.107 195.455,125.215 196.796,124.84 L196.784,124.539 C196.265,124.562 195.746,124.637 195.224,124.652 C194.705,124.675 194.168,124.637 193.619,124.66 L193.629,124.96 C193.886,125.035 194.347,125.184 194.357,125.484 C194.371,125.957 193.687,126.595 193.726,127.592 C193.772,128.935 194.624,129.811 195.856,129.766 C199.243,129.639 197.882,124.637 200.077,124.554 C201.163,124.517 201.672,125.372 201.711,126.4 C201.765,127.93 200.277,129.062 198.847,129.414 L198.857,129.699 C199.478,129.676 200.108,129.594 200.728,129.571 C201.58,129.541 201.935,129.556 202.226,129.564 L202.212,129.249 C201.899,129.174 201.449,128.963 201.434,128.573 C201.419,128.146 202.153,127.66 202.106,126.4 C202.06,125.05 201.328,123.842 199.875,123.895 z M334.599,125.948 L340.78,126.263 C342.137,126.331 342.557,126.706 342.415,129.391 C342.265,132.323 341.672,133.786 338.477,133.621 C334.674,133.426 334.306,131.642 334.501,127.847 L334.599,125.948 z M298.172,127.532 L297.707,131.087 L298.104,131.138 C298.224,130.216 298.299,129.924 299.297,130.051 L301.765,130.374 L301.681,130.989 C301.501,132.369 301.059,132.646 299.529,132.571 C297.467,132.474 297.227,133.066 297.159,133.614 C297.062,134.364 297.467,134.844 299.08,135.121 L299.116,134.792 C298.164,134.619 298.014,134.402 298.044,134.169 C298.164,133.269 300.55,134.146 301.652,132.076 L301.674,132.085 C301.621,133.502 302.199,134.755 303.287,134.897 C304.952,135.107 305.439,133.517 305.604,132.28 L306.085,128.552 L305.694,128.499 C305.551,129.549 305.461,129.736 304.741,129.638 L299.597,128.979 C298.494,128.829 298.435,128.656 298.57,127.576 L298.171,127.532 z M302.155,130.426 L304.659,130.749 C305.207,130.824 305.372,130.988 305.229,132.076 C305.072,133.261 304.786,133.839 303.489,133.674 C301.951,133.472 301.854,132.729 302.056,131.191 L302.154,130.427 z M265.45,130.448 C264.872,130.456 264.294,130.508 263.732,130.636 L263.935,130.741 C265.218,130.741 266.403,131.049 267.685,131.251 C268.248,131.304 268.644,131.746 269.169,132.076 C269.964,132.571 270.895,132.301 271.322,132.744 C271.832,133.254 271.69,134.387 271.892,134.844 C272.005,135.114 272.658,135.541 273.43,135.616 C274.075,135.676 274.757,135.698 275.275,136.073 C275.965,136.576 276.003,137.889 275.688,138.129 C274.525,139.006 273.378,139.772 272.508,140.904 C272.163,141.729 272.544,143.769 273.737,145.157 C273.932,145.382 273.79,145.771 273.534,146.078 C273.324,146.333 273.594,147.414 273.849,147.616 C273.872,147.639 273.94,147.594 274.022,147.534 C275.605,145.719 276.977,143.693 278.117,141.458 C277.982,141.226 277.885,141.024 277.84,140.746 C277.84,140.124 277.945,139.516 277.84,138.893 C277.69,138.226 277.044,136.689 276.047,135.977 C275.237,135.392 273.085,133.846 272.868,133.561 C272.005,132.459 271.082,131.731 269.987,131.304 C269.642,131.169 267.782,130.584 267.174,130.539 C266.604,130.487 266.027,130.448 265.45,130.448 z M176.071,132.556 L168.583,133.592 L168.731,134.335 C174.484,134.755 175.57,135.062 176.512,139.854 L177.378,144.249 L157.523,135.85 L156.827,135.984 L159.517,149.649 L166.536,148.487 L166.406,147.819 C163.987,147.909 160.17,147.887 159.461,144.295 L158.428,139.052 L178.128,147.504 L178.979,147.339 L176.071,132.557 z M264.25,133.232 C264.497,133.659 267.714,139.135 267.796,139.277 L272.5,139.277 C272.065,138.805 267.001,133.322 266.911,133.232 L264.25,133.232 z M197.869,135.331 L194.918,136.232 L196.626,142.643 L199.624,141.946 L199.539,141.616 C197.738,141.871 196.797,141.751 196.299,139.869 L202.295,138.28 C203.152,138.047 203.278,138.181 203.601,139.388 L203.985,139.284 L202.976,135.489 L202.592,135.594 C202.912,136.794 202.869,136.973 202.012,137.206 L196.014,138.797 C195.516,136.914 196.395,136.344 197.959,135.669 L197.87,135.331 z M296.758,136.465 L295.745,139.989 L296.136,140.102 C296.428,139.067 296.593,138.879 297.223,139.059 L302.653,140.611 C303.283,140.792 303.327,141.039 303.042,142.051 L303.417,142.157 L304.43,138.654 L304.04,138.542 C303.755,139.547 303.59,139.727 302.96,139.547 L297.53,137.994 C296.9,137.814 296.855,137.574 297.14,136.569 L296.758,136.465 z M322.31,139.456 L322.093,140.184 C322.76,140.604 323.637,141.459 323.367,142.374 C323.067,143.386 320.975,143.926 320.098,146.888 C319.145,150.061 319.902,153.428 323.307,154.448 C331.602,156.923 331.633,143.897 337.355,145.607 C339.462,146.237 340.197,148.239 339.612,150.189 C338.517,153.879 334.594,154.861 331.196,154.674 L330.987,155.379 C332.209,155.739 333.476,155.978 334.691,156.338 C335.914,156.706 337.129,157.2 338.427,157.59 L338.636,156.886 C338.104,156.503 337.152,155.798 337.362,155.093 C337.692,153.975 339.785,153.038 340.482,150.698 C341.42,147.556 340.129,144.842 337.242,143.987 C329.284,141.617 328.504,154.291 323.352,152.761 C320.809,152.003 320.3,149.611 321.02,147.196 C322.092,143.603 326.433,142.156 330.018,142.456 L330.222,141.782 C328.767,141.347 327.252,141.039 325.789,140.604 C323.787,140.004 322.969,139.703 322.309,139.456 z M295.362,141.347 L292.88,146.972 L295.633,148.374 L295.751,148.097 C293.929,146.612 293.636,146.251 294.439,144.429 L295.174,142.756 L299.854,150.211 L300.124,150.323 L302.412,145.126 L299.794,143.874 L299.682,144.121 C300.514,144.661 301.789,145.561 301.182,146.926 L300.304,148.929 L295.691,141.489 L295.362,141.347 z M204.573,141.451 L204.216,141.616 C204.541,142.329 204.638,142.637 203.914,143.342 L198.733,148.336 L198.982,148.876 L205.988,148.201 C206.481,148.156 207.222,148.118 207.664,149.078 L208.023,148.907 L206.75,146.155 L206.39,146.319 C206.57,146.709 206.803,147.369 206.269,147.616 C206.17,147.669 205.969,147.707 205.726,147.737 L204.623,147.879 L203.433,145.306 L204.084,144.691 C204.443,144.354 204.695,144.076 204.843,144.009 C205.207,143.844 205.454,144.302 205.77,144.984 L206.133,144.811 L204.573,141.451 z M203.012,145.719 L204.04,147.939 L200.271,148.314 L200.265,148.299 L203.012,145.72 z M179.448,147.766 L178.54,148.126 C179.499,150.579 179.443,151.186 177.952,151.763 L165.061,156.811 C163.57,157.396 163.117,156.991 162.175,154.583 L161.27,154.944 L164.52,163.254 L165.432,162.901 C164.501,160.523 164.555,159.923 166.048,159.338 L178.94,154.292 C180.431,153.714 180.881,154.119 181.811,156.496 L182.724,156.136 L179.447,147.766 z M292.572,149.912 C291.574,149.957 290.622,150.362 290.007,151.292 C288.784,153.152 290.007,155.446 291.612,156.504 C293.225,157.569 295.812,157.786 297.042,155.926 C298.265,154.066 297.042,151.778 295.43,150.713 C294.627,150.18 293.577,149.867 292.572,149.912 z M208.923,150.278 L206.279,151.951 L206.477,152.229 C208.629,151.239 209.166,151.307 210.536,153.227 C211.198,154.157 211.105,154.396 210.586,154.771 L208.39,156.331 C207.569,155.176 207.492,154.553 208.614,153.586 L208.453,153.362 L205.405,155.537 L205.57,155.768 C206.817,154.981 207.309,155.499 208.066,156.564 L206.051,157.996 C205.568,158.341 205.36,158.342 204.615,157.292 C203.354,155.529 203.501,155.176 204.946,153.578 L204.769,153.323 L202.495,155.004 L206.487,160.614 L206.812,160.381 C206.168,159.474 206.271,159.203 206.695,158.896 L211.298,155.626 C211.827,155.244 212.082,155.401 212.657,156.211 L212.979,155.972 L208.923,150.278 z M291.777,150.669 C292.707,150.632 293.787,151.194 294.709,151.809 C296.187,152.776 297.724,154.163 296.705,155.708 C295.692,157.253 293.817,156.392 292.332,155.417 C290.854,154.442 289.324,153.053 290.337,151.508 C290.719,150.931 291.222,150.692 291.777,150.669 z M318.544,153.159 L314.63,161.244 L315.507,161.671 C316.655,159.301 317.142,158.926 318.582,159.623 L331.032,165.66 C332.472,166.358 332.479,166.966 331.354,169.291 L332.239,169.71 L336.133,161.679 L335.255,161.251 C334.138,163.546 333.657,163.913 332.217,163.215 L319.767,157.186 C318.319,156.488 318.32,155.88 319.43,153.578 L318.544,153.159 z M287.487,155.401 L285.327,157.643 L285.612,157.922 C286.242,157.269 286.887,157.284 287.704,158.064 L290.877,161.124 L290.877,161.153 L282.709,160.044 L282.507,160.254 L287.201,164.776 C287.936,165.481 287.727,166.066 287.254,166.561 L287.54,166.838 L289.564,164.732 L289.279,164.461 C288.686,164.978 288.11,165.031 287.547,164.499 L284.285,161.357 L284.285,161.326 L291.86,162.362 L293.225,160.936 L292.94,160.667 C292.565,161.057 291.95,161.544 291.44,161.049 L288.245,157.974 C287.525,157.277 286.909,156.579 287.779,155.672 L287.487,155.401 z M214.31,157.441 C213.89,157.419 213.373,157.703 212.638,158.401 L212.87,158.633 C213.575,157.973 213.838,157.981 214.01,158.146 C214.663,158.776 212.532,160.171 213.537,162.278 L213.522,162.301 C212.412,161.409 211.067,161.132 210.307,161.919 C209.136,163.127 210.125,164.468 211.026,165.331 L213.717,167.941 L214.003,167.655 C213.245,166.92 213.147,166.74 213.657,166.215 L217.258,162.482 C218.023,161.687 218.209,161.739 218.982,162.496 L219.26,162.203 L216.688,159.713 L216.41,159.999 C217.077,160.651 217.265,160.877 216.568,161.604 L214.842,163.388 L214.4,162.953 C213.387,161.986 213.432,161.468 214.407,160.283 C215.72,158.685 215.375,158.146 214.977,157.756 C214.775,157.561 214.566,157.449 214.311,157.441 z M183.119,158.828 C182.185,158.828 180.947,159.279 179.23,160.299 L179.677,160.982 C181.714,159.782 182.343,159.954 182.655,160.434 C183.869,162.301 178.016,164.454 179.264,170.056 L179.221,170.086 C177.052,167.348 173.993,165.938 171.74,167.4 C168.286,169.65 169.907,173.393 171.58,175.958 L176.598,183.676 L177.418,183.136 C176.012,180.976 175.883,180.481 177.381,179.506 L188.03,172.568 C190.254,171.121 190.694,171.315 192.07,173.408 L191.985,173.498 C193.408,174.796 193.915,175.411 192.939,177.684 L185.96,193.884 L187.043,194.874 L202.238,186.699 C203.309,186.136 204.944,185.348 206.845,187.088 L207.505,186.369 L202.02,181.351 L201.354,182.071 C202.136,182.784 203.291,184.059 202.32,185.117 C202.138,185.319 201.728,185.611 201.204,185.903 L198.844,187.276 L193.717,182.588 L194.606,180.571 C195.096,179.469 195.401,178.614 195.678,178.307 C196.336,177.587 197.335,178.389 198.694,179.634 L199.352,178.915 L192.933,173.033 L192.978,173.011 L188.181,165.639 L187.365,166.172 C188.609,168.084 188.938,168.736 186.87,170.086 L181.769,173.401 L180.945,172.127 C179.079,169.262 179.452,168.046 182.43,165.759 C186.436,162.661 185.926,161.177 185.188,160.037 C184.684,159.265 184.053,158.821 183.118,158.821 z M281.048,161.956 L278.565,163.703 L278.798,164.033 C279.15,163.785 279.758,163.434 280.096,163.914 C280.163,164.012 280.238,164.199 280.305,164.431 L280.649,165.496 L278.332,167.124 L277.605,166.59 C277.208,166.305 276.893,166.104 276.795,165.977 C276.57,165.647 276.974,165.323 277.589,164.881 L277.365,164.559 L274.327,166.696 L274.553,167.026 C275.198,166.568 275.49,166.419 276.307,167.004 L282.158,171.211 L282.644,170.859 L280.718,164.086 C280.591,163.613 280.417,162.893 281.279,162.285 L281.048,161.956 z M212.453,162.131 C212.929,162.17 213.402,162.543 214.013,163.133 L214.568,163.674 L212.82,165.489 C212.432,165.886 212.205,165.915 211.419,165.15 C210.556,164.325 210.261,163.749 211.172,162.811 C211.576,162.391 211.919,162.181 212.249,162.136 C212.318,162.127 212.385,162.126 212.453,162.131 z M221.055,163.254 L219.578,165.465 C219.233,165.983 218.775,165.75 218.347,165.473 L218.123,165.804 L220.905,167.663 L221.131,167.333 C220.238,166.733 220.102,166.614 220.725,165.684 C221.385,164.694 222.383,164.627 223.275,165.227 C224.918,166.322 223.8,168.204 222.893,169.554 C221.985,170.904 220.68,172.659 219.03,171.556 C217.74,170.686 218.063,169.088 218.34,167.85 L218.078,167.679 L216.398,170.273 L216.653,170.439 C216.893,170.259 217.275,170.086 217.552,170.273 C217.815,170.446 217.883,171.264 218.813,171.886 C220.403,172.951 222.78,172.073 223.98,170.281 C225.18,168.488 225.091,165.953 223.501,164.896 C222.413,164.161 221.663,164.529 221.311,164.297 C220.973,164.072 221.16,163.779 221.333,163.449 L221.055,163.254 z M312.938,164.138 L307.335,171.946 L308.131,172.516 C309.908,170.048 310.32,169.839 312.083,171.106 L324.436,179.963 C321.654,183.848 319.209,183.06 315.488,181.17 L315.001,181.853 L321.292,186.031 L330.766,172.816 L324.758,168.242 L324.285,168.901 C327.563,171.923 328.801,173.874 326.018,177.759 L313.665,168.901 C311.902,167.633 311.962,167.176 313.732,164.708 L312.938,164.139 z M280.815,166.051 L281.866,169.689 L281.842,169.703 L278.813,167.468 L280.815,166.051 z M175.836,168.991 C177.408,168.901 178.492,170.16 179.915,172.35 L180.952,173.941 L175.765,177.316 C174.628,178.059 174.071,177.999 172.606,175.749 C171.006,173.289 170.625,171.751 173.311,170.011 C174.306,169.366 175.122,169.036 175.837,168.991 z M269.453,169.516 L269.664,172.141 L267.27,173.251 L269.835,173.866 L270.143,176.484 L271.522,174.234 L274.111,174.744 L272.4,172.741 L273.683,170.446 L271.246,171.451 L269.453,169.516 z M232.509,170.071 L230.716,172.006 L228.278,170.994 L229.56,173.297 L227.85,175.299 L230.437,174.788 L231.819,177.038 L232.125,174.421 L234.69,173.806 L232.298,172.696 L232.509,170.071 z M260.168,171.631 C260.011,171.638 259.838,171.661 259.666,171.691 C258.346,171.969 257.551,173.162 257.776,174.234 C257.896,174.819 258.203,175.268 258.856,175.133 C259.246,175.051 259.479,174.66 259.404,174.285 C259.314,173.85 258.954,173.603 258.519,173.693 C258.466,173.708 258.383,173.753 258.323,173.775 C258.263,173.783 258.217,173.769 258.202,173.693 C258.105,173.206 258.66,172.291 259.508,172.111 C260.37,171.931 261.031,172.223 261.279,173.408 C261.556,174.735 260.288,175.68 259.351,177.585 C259.013,178.283 258.57,179.116 258.637,179.424 L258.736,179.918 L263.505,178.936 L263.19,176.648 L262.861,176.708 C262.838,177.931 262.778,177.998 261.661,178.23 L259.373,178.703 C259.8,176.536 262.838,175.028 262.486,173.326 C262.246,172.186 261.323,171.571 260.168,171.631 z M240.668,171.773 C240.038,172.381 239.13,172.284 238.373,172.126 L238.283,172.561 C239.483,172.809 239.685,173.018 239.55,173.694 L238.658,178.095 C238.501,178.83 238.133,178.868 237.038,178.643 L236.956,179.04 L240.721,179.806 L240.803,179.415 C239.82,179.213 239.498,179.034 239.648,178.299 L240.976,171.833 L240.668,171.773 z M253.913,172.523 L253.598,172.546 C253.156,173.296 252.256,173.446 251.476,173.499 L251.512,173.941 C252.735,173.851 252.991,174.001 253.036,174.691 L253.343,179.176 C253.396,179.926 253.043,180.068 251.933,180.143 L251.956,180.54 L255.795,180.278 L255.765,179.881 C254.775,179.948 254.408,179.859 254.363,179.109 L253.913,172.523 z M246.548,172.554 C245.1,172.449 244.073,173.453 243.976,174.833 C243.886,176.146 244.71,177.33 245.858,177.413 C246.54,177.458 247.282,176.971 247.507,176.333 L247.531,176.333 C247.531,176.543 247.531,176.663 247.516,176.843 C247.419,178.193 247.081,180.278 245.461,180.158 C245.356,180.158 244.785,180.053 244.793,179.903 C244.808,179.738 245.325,179.641 245.363,179.131 C245.393,178.696 245.108,178.44 244.68,178.41 C244.305,178.38 243.953,178.688 243.923,179.071 C243.863,179.903 244.568,180.436 245.348,180.489 C247.403,180.631 248.595,178.456 248.738,176.439 C248.85,174.901 248.258,172.674 246.548,172.554 z M246.391,172.869 C247.516,172.959 247.733,174.024 247.666,174.939 C247.598,175.921 247.095,177.105 246.113,177.03 C244.95,176.948 245.026,175.719 245.086,174.879 C245.138,174.129 245.341,172.801 246.391,172.869 z M303.241,176.543 L295.898,183.196 L296.551,183.915 C298.929,181.77 299.22,181.651 300.915,183.518 L304.23,187.186 L305.963,194.439 C306.435,196.426 306.758,198.406 304.77,200.198 L305.424,200.925 L310.778,196.088 L310.126,195.36 C309.436,195.975 308.378,196.748 307.665,195.968 C307.508,195.788 307.2,195.406 307.088,194.956 L305.288,187.545 L312.413,189.96 C313.448,190.305 314.026,190.448 314.326,190.785 C314.678,191.168 314.393,191.498 312.72,193.013 L313.374,193.732 L319.958,187.785 L319.298,187.059 C317.393,188.784 316.35,188.371 314.16,187.689 L306.008,185.107 L302.926,181.703 C301.239,179.828 301.47,179.475 303.9,177.278 L303.241,176.542 z M193.17,183.924 L197.592,187.973 L189.433,192.383 L189.395,192.353 L193.17,183.924 z M277.966,192.735 C277.673,192.832 275.934,194.325 274.186,194.903 C273.166,195.233 270.49,195.579 269.282,195.624 L268.802,195.773 L271.126,204.504 C271.186,204.781 270.766,205.576 271.013,206.326 C271.133,206.701 271.599,206.933 272.004,206.798 C272.596,206.61 272.626,205.824 272.461,205.314 C272.386,205.074 272.252,204.848 272.169,204.6 C272.417,204.075 273.669,203.101 274.667,202.771 C277.562,201.826 279.092,203.933 279.91,206.43 C280.877,209.385 281.147,212.183 277.734,213.307 C276.099,213.84 274.103,213.375 273.338,212.04 C273.481,212.025 273.646,212.004 273.811,211.944 C274.936,211.576 275.596,210.675 275.206,209.497 C274.928,208.635 273.909,208.171 273.047,208.449 C271.682,208.899 271.442,210.346 271.847,211.583 C272.552,213.728 275.161,215.161 278.273,214.141 C282.173,212.858 283.952,208.973 282.872,205.665 C281.814,202.448 278.365,200.543 275.222,201.578 C273.722,202.073 272.739,202.629 271.922,203.941 L270.415,198.249 C271.255,198.181 272.056,198.098 272.889,197.828 C276.729,196.561 278.251,193.329 278.086,192.819 C278.064,192.736 278.018,192.72 277.966,192.735 z M229.157,195.098 C227.402,196.47 225.121,196.005 223.231,195.427 L222.902,196.508 C225.894,197.431 226.367,198.016 225.849,199.688 L222.467,210.645 C221.904,212.483 220.959,212.49 218.229,211.65 L217.928,212.617 L227.296,215.506 L227.596,214.537 C225.166,213.787 224.387,213.247 224.957,211.417 L229.914,195.323 L229.156,195.097 z M291.947,196.028 C291.459,195.998 290.957,196.102 290.492,196.357 C289.262,197.062 288.842,198.608 289.54,199.838 C290.245,201.068 291.782,201.495 293.012,200.79 C294.257,200.085 294.684,198.541 293.971,197.318 C293.529,196.538 292.764,196.088 291.947,196.028 z M208.771,196.251 C208.647,196.243 208.524,196.244 208.402,196.253 C207.587,196.321 206.823,196.777 206.39,197.55 C205.698,198.78 206.129,200.326 207.363,201.023 C208.611,201.721 210.152,201.285 210.833,200.047 C211.531,198.795 211.093,197.273 209.859,196.576 C209.513,196.379 209.141,196.274 208.771,196.251 z M258.541,197.617 C258.376,197.625 258.219,197.633 258.062,197.648 C254.349,198.038 252.143,200.34 252.466,203.4 C252.736,205.958 254.634,207.323 256.884,208.141 C255.894,209.018 252.436,211.275 252.691,213.72 C252.961,216.39 255.166,218.46 259.329,218.033 C264.781,217.463 265.629,214.14 265.336,211.35 C265.126,209.303 263.004,207.45 260.612,206.617 C262.194,205.462 264.061,203.731 263.836,201.571 C263.566,198.931 260.948,197.565 258.541,197.617 z M241.164,197.663 C238.164,197.783 236.116,199.493 235.831,202.17 C235.553,204.727 237.136,206.46 239.153,207.728 C238.013,208.373 234.158,209.865 233.896,212.31 C233.611,214.98 235.336,217.463 239.491,217.905 C244.944,218.49 246.466,215.415 246.759,212.625 C246.984,210.577 245.289,208.321 243.129,207.016 C244.914,206.206 247.103,204.909 247.336,202.749 C247.628,199.936 245.026,197.978 242.499,197.716 C242.034,197.663 241.592,197.648 241.164,197.663 z M241.306,198.48 C241.576,198.48 241.839,198.495 242.102,198.525 C244.209,198.75 246.031,200.047 245.776,202.432 C245.551,204.54 244.021,205.546 242.326,206.506 C241.028,205.598 237.249,203.776 237.504,201.436 C237.729,199.306 239.461,198.495 241.306,198.48 z M258.624,198.496 C260.432,198.556 262.037,199.5 262.254,201.593 C262.472,203.7 261.181,204.998 259.726,206.288 C258.271,205.665 254.191,204.675 253.951,202.343 C253.696,199.898 255.728,198.75 257.843,198.525 C258.106,198.503 258.369,198.489 258.624,198.496 z M239.926,208.237 C241.824,209.602 245.34,210.997 245.033,213.862 C244.755,216.502 242.221,217.342 239.888,217.095 C237.331,216.825 235.613,215.415 235.898,212.723 C236.146,210.36 237.991,209.31 239.926,208.237 z M257.739,208.477 C259.884,209.422 263.611,210.06 263.911,212.925 C264.181,215.565 261.878,216.915 259.545,217.155 C256.995,217.425 255.008,216.405 254.73,213.705 C254.483,211.35 256.074,209.932 257.739,208.477 z" fill="#A30046"></path></g></g></svg> 