<svg width="1200" height="675" viewBox="0 0 1200 675" fill="none" xmlns="http://www.w3.org/2000/svg">
<g clip-path="url(#clip0_1750_5573)">
<rect width="1200" height="675" fill="white"/>
<g clip-path="url(#clip1_1750_5573)">
<path opacity="0.4" d="M216.293 330.102L635.28 330.102C643.726 330.102 650.572 323.249 650.572 314.796V99.9257C650.572 91.473 643.726 84.6206 635.28 84.6206L216.293 84.6206C207.847 84.6206 201 91.473 201 99.9257V314.796C201 323.249 207.847 330.102 216.293 330.102Z" fill="url(#paint0_linear_1750_5573)"/>
<path fill-rule="evenodd" clip-rule="evenodd" d="M990 500.001C990 332.754 854.535 197.164 687.414 197.164C520.294 197.164 384.828 332.742 384.828 500.001H990Z" fill="#252A80"/>
<path opacity="0.8" fill-rule="evenodd" clip-rule="evenodd" d="M881.003 305.216C831.06 255.003 761.926 223.934 685.54 223.934C533.202 223.934 409.716 347.535 409.716 499.986H682.928L714.545 469.338" fill="url(#paint1_linear_1750_5573)"/>
<path fill-rule="evenodd" clip-rule="evenodd" d="M726.065 500C726.065 477.489 707.829 459.25 685.349 459.25C662.869 459.25 644.633 477.501 644.633 500H726.078H726.065Z" fill="#00D0C9"/>
<path d="M731.915 493.24L735.024 496.352L881.003 305.383L691.301 452.592L694.41 455.704C703.777 456.419 712.952 460.347 720.114 467.515C727.276 474.683 731.201 483.866 731.915 493.24Z" fill="#00D0C9"/>
<path opacity="0.3" d="M691.288 452.607L694.398 455.719C702.859 456.356 711.155 459.66 717.961 465.565L879.78 306.328L691.288 452.594V452.607Z" fill="url(#paint2_linear_1750_5573)"/>
<path d="M639.064 84.6211H424.372C415.926 84.6211 409.079 91.4734 409.079 99.9262V314.797C409.079 323.25 415.926 330.102 424.372 330.102H639.064C647.51 330.102 654.357 323.25 654.357 314.797V99.9262C654.357 91.4734 647.51 84.6211 639.064 84.6211Z" fill="#252A80" stroke="#00D0C9" stroke-width="2.54" stroke-miterlimit="10"/>
<path opacity="0.4" d="M637.522 85.7031H424.996C416.55 85.7031 409.703 92.5554 409.703 101.008V313.711C409.703 322.164 416.55 329.016 424.996 329.016H637.522C645.968 329.016 652.814 322.164 652.814 313.711V101.008C652.814 92.5554 645.968 85.7031 637.522 85.7031Z" fill="url(#paint3_linear_1750_5573)"/>
<path fill-rule="evenodd" clip-rule="evenodd" d="M629.392 127.741H595.468C594.411 127.741 593.468 128.124 592.728 128.595C591.989 129.067 591.352 129.692 590.893 130.368L573.371 156.91C573.371 156.91 573.345 156.961 573.333 156.986C569.599 159.741 567.152 164.231 567.152 169.294C567.152 169.575 567.152 169.843 567.177 170.123H503.65L479.246 129.858V129.82C478.813 129.144 478.163 128.506 477.424 128.034C476.697 127.562 475.741 127.18 474.696 127.18H441.295C437.077 127.18 434.809 131.822 436.682 135.087L496.781 238.614L529.877 295.281C530.182 295.816 530.705 296.122 531.278 296.173C531.368 296.275 531.47 296.39 531.584 296.505C532.018 296.977 532.693 297.589 533.585 298.01C534.49 298.444 535.675 298.724 536.975 298.342C538.262 297.972 539.422 297.079 540.467 295.663C540.76 295.268 540.862 294.77 540.798 294.311L634.069 135.585L634.107 135.534C635.879 132.026 633.648 127.741 629.405 127.741H629.392ZM618.802 154.321C618.802 154.321 618.713 154.359 618.675 154.384L596.857 168.223C596.615 164.703 595.188 161.501 592.996 159.053L627.34 139.806L618.802 154.333V154.321ZM593.939 132.371H593.952C594.118 132.154 594.385 131.86 594.704 131.656C595.022 131.44 595.29 131.376 595.456 131.376H629.379C630.106 131.376 630.564 131.707 630.807 132.128C631.023 132.524 631.1 133.085 630.87 133.684L590.091 156.54C587.758 154.997 584.993 154.104 582.024 154.104C581.132 154.104 580.265 154.193 579.424 154.346L593.939 132.371ZM582.024 157.815C588.23 157.815 593.264 162.943 593.264 169.281C593.264 175.62 588.23 180.748 582.024 180.748C575.818 180.748 570.784 175.62 570.784 169.281C570.784 162.943 575.818 157.815 582.024 157.815ZM569.93 178.12L537.357 235.731C537.077 236.254 536.669 236.407 536.363 236.407C536.057 236.407 535.649 236.254 535.356 235.731L520.383 210.121L493.481 225.642L488.179 216.498L515.068 201.869L501.05 175.786C501.165 175.582 501.433 175.301 501.93 174.957C502.987 174.23 504.376 173.796 505.128 173.796C505.243 173.796 505.358 173.784 505.472 173.758H567.827C568.299 175.34 569.025 176.806 569.955 178.12H569.93ZM439.893 131.644C440.174 131.134 440.671 130.802 441.295 130.802H474.696C474.849 130.802 475.117 130.866 475.448 131.082C475.767 131.287 476.022 131.554 476.187 131.797L500.311 171.666C500.158 171.756 500.018 171.845 499.878 171.934C499.126 172.457 498.349 173.146 497.852 174.026C497.329 174.97 497.125 176.207 497.801 177.419L510.149 200.402L486.331 213.347L439.842 133.225C439.588 132.792 439.588 132.179 439.893 131.644ZM535.076 294.732C534.706 294.541 534.35 294.26 534.082 293.98C533.942 293.839 533.84 293.725 533.776 293.648C533.738 293.61 533.712 293.546 533.712 293.546C533.458 293.163 533.088 292.921 532.667 292.832L499.929 236.79L495.29 228.806L519.032 215.095L532.158 237.542C533.062 239.149 534.668 240.055 536.338 240.055C538.007 240.055 539.587 239.149 540.518 237.529L572.504 180.964C575.091 183.158 578.405 184.485 582.024 184.485C589.007 184.485 594.882 179.561 596.475 172.929C596.628 172.878 596.768 172.827 596.908 172.738L614.584 161.527L537.039 293.482C536.86 293.788 536.796 294.12 536.796 294.439C536.478 294.719 536.21 294.834 536.032 294.885C535.726 294.975 535.42 294.936 535.089 294.77L535.076 294.732Z" fill="white"/>
</g>
<path d="M189.578 539.5H184.269V575.031H189.578V539.5Z" fill="#10BBB7"/>
<path d="M143.618 575.031H154.687C156.844 575.031 157.934 573.941 157.934 571.784H157.911V562.99H152.625V570.456H145.751V544.051H152.625V551.067H157.911V542.771C157.911 540.59 156.82 539.5 154.663 539.5H143.594C141.508 539.5 140.442 540.59 140.465 542.771V571.784C140.465 573.941 141.508 575.031 143.618 575.031Z" fill="#10BBB7"/>
<path d="M226.58 563.582V570.551H220.085V563.322H214.775V571.784C214.775 573.941 215.842 575.031 217.975 575.031H228.665C230.822 575.031 231.889 573.941 231.889 571.784V563.322C231.889 562.113 231.51 561.165 230.728 560.43L220.085 550.403V543.98H226.58V550.664H231.889V542.724C231.889 540.567 230.822 539.5 228.665 539.5H217.975C215.842 539.5 214.775 540.59 214.775 542.771V550.664C214.775 551.826 215.155 552.774 215.937 553.508L226.58 563.582Z" fill="#10BBB7"/>
<path d="M167.415 559.079H174.597V575.031H179.954V539.5H174.597V554.148H167.415V539.5H162.105V575.031H167.415V559.079Z" fill="#10BBB7"/>
<path d="M239.213 602.217C239.213 602.833 239.308 603.686 239.545 604.777L231.035 582.875H226.39V618.406H231.557V598.614C231.557 597.998 231.462 597.144 231.225 596.054L239.734 618.406H244.38V582.875H239.213V602.217Z" fill="#252A80"/>
<path d="M210.982 582.828L204.108 618.312V618.406H209.347L210.413 611.675H217.074L218.141 618.406H223.403L216.576 582.828H210.982ZM211.125 607.1L213.732 591.077L216.315 607.1H211.125Z" fill="#252A80"/>
<path d="M201.051 582.875H195.741V618.406H201.051V582.875Z" fill="#252A80"/>
<path d="M275.62 613.713V602.572H283.608V597.95H275.62V587.592H284.888V582.875H270.311V618.406H285.03V613.713H275.62Z" fill="#252A80"/>
<path d="M262.868 582.875H251.799C249.689 582.875 248.646 583.965 248.646 586.146V615.159C248.646 617.316 249.689 618.406 251.799 618.406H262.868C265.025 618.406 266.116 617.316 266.116 615.159V606.365H260.83V613.831H253.956V587.426H260.83V594.442H266.116V586.146C266.116 583.965 265.025 582.875 262.868 582.875Z" fill="#252A80"/>
<path d="M146.036 582.828L139.162 618.312V618.406H144.4L145.467 611.675H152.128L153.194 618.406H158.456L151.63 582.828H146.036ZM146.178 607.1L148.786 591.077L151.369 607.1H146.178Z" fill="#252A80"/>
<path d="M126.599 583.564C124.276 583.564 122.262 585.175 121.716 587.403H114.771V581.762H109.13V578.373H114.771V564.814H109.13V561.401H114.771V555.76H121.716C121.93 556.684 122.404 557.49 123.044 558.13C123.945 559.031 125.201 559.6 126.576 559.6C127.95 559.6 129.207 559.031 130.107 558.13C131.008 557.229 131.577 555.973 131.577 554.598C131.577 551.825 129.325 549.597 126.576 549.597C124.253 549.597 122.238 551.209 121.693 553.437H114.748V547.796H109.106V541.277H70.4705V547.796H64.8292V561.401H70.4705V564.791H64.8292V570.432H57.8842C57.339 568.18 55.3242 566.592 53.0013 566.592C50.2518 566.568 48 568.82 48 571.594C48 572.968 48.5689 574.225 49.4696 575.125C50.3703 576.026 51.6266 576.595 53.0013 576.595C54.3761 576.595 55.6324 576.026 56.5331 575.125C57.1731 574.485 57.6471 573.656 57.8605 572.755H64.8292V578.396H70.4705V581.786H64.8292V595.344H70.4705V598.734H64.8292V604.375H57.8842C57.339 602.123 55.3242 600.535 53.0013 600.535C50.2518 600.559 48 602.81 48 605.56C48 608.333 50.2518 610.561 53.0013 610.561C55.3242 610.561 57.339 608.95 57.8842 606.721H64.8292V612.363H70.4705V619H109.13V612.363H114.7V598.757H109.13V595.368H114.771V589.75H121.716C121.93 590.674 122.404 591.48 123.044 592.12C123.945 593.021 125.201 593.59 126.576 593.59C127.95 593.59 129.207 593.021 130.107 592.12C131.008 591.22 131.577 589.963 131.577 588.589C131.601 585.815 129.349 583.564 126.599 583.564Z" fill="#252A80"/>
<path d="M124.703 552.704C125.177 552.23 125.865 551.922 126.599 551.922C127.334 551.922 128.022 552.23 128.496 552.704C128.97 553.178 129.278 553.866 129.278 554.6C129.278 555.335 128.97 556.023 128.496 556.497C128.022 556.971 127.334 557.279 126.599 557.279C125.865 557.279 125.177 556.971 124.703 556.497C124.229 556.023 123.921 555.335 123.921 554.6C123.921 553.866 124.229 553.178 124.703 552.704Z" fill="#00D0C9"/>
<path d="M54.8979 573.489C54.4002 573.963 53.7365 574.271 53.0017 574.271C52.2669 574.271 51.5795 573.963 51.1054 573.489C50.6314 573.015 50.3232 572.327 50.3232 571.593C50.3232 570.099 51.5084 568.914 53.0017 568.914C54.495 568.914 55.6801 570.099 55.6801 571.593C55.6801 572.327 55.3957 572.991 54.8979 573.489Z" fill="#252A80"/>
<path d="M54.8979 607.458C54.4002 607.932 53.7365 608.24 53.0017 608.24C52.2669 608.24 51.5795 607.932 51.1054 607.458C50.6314 606.983 50.3232 606.296 50.3232 605.561C50.3232 604.826 50.6314 604.139 51.1054 603.665C51.5795 603.191 52.2669 602.883 53.0017 602.883C53.7365 602.883 54.4239 603.191 54.8979 603.665C55.372 604.139 55.6801 604.826 55.6801 605.561C55.6801 606.32 55.3957 606.983 54.8979 607.458Z" fill="#252A80"/>
<path d="M112.449 550.145H103.513V559.057H112.449V550.145Z" fill="white"/>
<path d="M76.1108 567.113H67.1748V576.049H76.1108V567.113Z" fill="white"/>
<path d="M76.1108 584.109H67.1748V593.045H76.1108V584.109Z" fill="#252A80"/>
<path d="M76.1108 601.105H67.1748V610.042H76.1108V601.105Z" fill="white"/>
<path d="M106.903 616.749H106.808H72.7939V612.458H78.4353V598.853H72.7939V595.463H78.4353V581.858H72.7939V578.468H78.4353V564.886H72.7939V561.473H78.4353V547.867H72.7939V543.672H106.808V547.867H101.19V561.473H106.832V564.863H101.214V578.444H106.855V581.834H101.238V595.44H106.879V598.829H101.261V612.435H106.903V616.749Z" fill="#00D0C9"/>
<path d="M112.449 584.109H103.513V593.045H112.449V584.109Z" fill="white"/>
<path d="M128.496 590.485C128.022 590.959 127.334 591.267 126.599 591.267C125.865 591.267 125.177 590.959 124.703 590.485C124.229 590.011 123.921 589.323 123.921 588.589C123.921 587.854 124.229 587.166 124.703 586.692C125.177 586.218 125.865 585.91 126.599 585.91C127.334 585.91 128.022 586.218 128.496 586.692C128.97 587.166 129.278 587.854 129.278 588.589C129.278 589.323 128.97 589.987 128.496 590.485Z" fill="#00D0C9"/>
<path d="M166.728 582.875H161.419V618.406H175.38V613.665H166.728V582.875Z" fill="#252A80"/>
<path d="M199.249 562.16H207.853C210.01 562.16 211.1 561.046 211.1 558.842V542.771C211.1 540.59 210.01 539.5 207.853 539.5H193.939V575.031H199.249V562.16ZM199.249 544.051H205.744V557.585H199.249V544.051Z" fill="#10BBB7"/>
<path d="M183.842 582.875H178.532V618.406H192.493V613.665H183.842V582.875Z" fill="#252A80"/>
</g>
<defs>
<linearGradient id="paint0_linear_1750_5573" x1="650.572" y1="207.355" x2="201" y2="207.355" gradientUnits="userSpaceOnUse">
<stop stop-color="#252A80"/>
<stop offset="1" stop-color="white"/>
</linearGradient>
<linearGradient id="paint1_linear_1750_5573" x1="409.703" y1="361.973" x2="881.003" y2="361.973" gradientUnits="userSpaceOnUse">
<stop stop-color="#252A80"/>
<stop offset="0.661458" stop-color="#0A9FB3"/>
<stop offset="0.9999" stop-color="#00D0C9"/>
</linearGradient>
<linearGradient id="paint2_linear_1750_5573" x1="785.528" y1="306.341" x2="785.528" y2="465.565" gradientUnits="userSpaceOnUse">
<stop stop-color="white"/>
<stop offset="0.13" stop-color="#D7D7E7"/>
<stop offset="0.36" stop-color="#989AC3"/>
<stop offset="0.57" stop-color="#666AA6"/>
<stop offset="0.76" stop-color="#424791"/>
<stop offset="0.9" stop-color="#2C3184"/>
<stop offset="1" stop-color="#252A80"/>
</linearGradient>
<linearGradient id="paint3_linear_1750_5573" x1="414.189" y1="90.2054" x2="648.51" y2="324.32" gradientUnits="userSpaceOnUse">
<stop stop-color="white"/>
<stop offset="0.17" stop-color="#CBCCE0"/>
<stop offset="0.39" stop-color="#9093BE"/>
<stop offset="0.58" stop-color="#6265A3"/>
<stop offset="0.76" stop-color="#404590"/>
<stop offset="0.9" stop-color="#2C3184"/>
<stop offset="1" stop-color="#252A80"/>
</linearGradient>
<clipPath id="clip0_1750_5573">
<rect width="1200" height="675" fill="white"/>
</clipPath>
<clipPath id="clip1_1750_5573">
<rect width="789" height="417" fill="white" transform="translate(201 83)"/>
</clipPath>
</defs>
</svg>
