<svg width="1200" height="626" viewBox="0 0 1200 626" fill="none" xmlns="http://www.w3.org/2000/svg">
<rect width="1200" height="626" fill="#332D37"/>
<path fill-rule="evenodd" clip-rule="evenodd" d="M1081 85H376C371.582 85 368 88.5817 368 93V559C368 563.418 371.582 567 376 567H1081C1085.42 567 1089 563.418 1089 559V93C1089 88.5817 1085.42 85 1081 85ZM376 83C370.477 83 366 87.4771 366 93V559C366 564.523 370.477 569 376 569H1081C1086.52 569 1091 564.523 1091 559V93C1091 87.4772 1086.52 83 1081 83H376Z" fill="white"/>
<path fill-rule="evenodd" clip-rule="evenodd" d="M601.172 516.241L602.13 513.932C603.011 514.297 603.978 514.5 605 514.5H609.875V517H605C603.644 517 602.351 516.73 601.172 516.241ZM990.125 517V514.5H995C996.022 514.5 996.989 514.297 997.87 513.932L998.828 516.241C997.649 516.73 996.356 517 995 517H990.125ZM1005 151.014H1002.5V146C1002.5 144.978 1002.3 144.011 1001.93 143.13L1004.24 142.172C1004.73 143.351 1005 144.644 1005 146V151.014ZM609.875 136H605C603.644 136 602.351 136.27 601.172 136.759L602.13 139.068C603.011 138.703 603.978 138.5 605 138.5H609.875V136ZM595 501.986H597.5V507C597.5 508.022 597.703 508.989 598.068 509.87L595.759 510.828C595.27 509.649 595 508.356 595 507V501.986ZM595 491.958H597.5V481.931H595V491.958ZM595 471.903H597.5V461.875H595V471.903ZM595 451.847H597.5V441.819H595V451.847ZM595 431.792H597.5V421.764H595V431.792ZM595 411.736H597.5V401.708H595V411.736ZM595 391.681H597.5V381.653H595V391.681ZM595 371.625H597.5V361.597H595V371.625ZM595 351.569H597.5V341.542H595V351.569ZM595 331.514H597.5V321.486H595V331.514ZM595 311.458H597.5V301.431H595V311.458ZM595 291.403H597.5V281.375H595V291.403ZM595 271.347H597.5V261.32H595V271.347ZM595 251.292H597.5V241.264H595V251.292ZM595 231.236H597.5V221.208H595V231.236ZM595 211.181H597.5V201.153H595V211.181ZM595 191.125H597.5V181.097H595V191.125ZM595 171.07H597.5V161.042H595V171.07ZM595 151.014H597.5V146C597.5 144.978 597.703 144.011 598.068 143.13L595.759 142.172C595.27 143.351 595 144.644 595 146V151.014ZM619.625 136V138.5H629.375V136H619.625ZM639.125 136V138.5H648.875V136H639.125ZM658.625 136V138.5H668.375V136H658.625ZM678.125 136V138.5H687.875V136H678.125ZM697.625 136V138.5H707.375V136H697.625ZM717.125 136V138.5H726.875V136H717.125ZM736.625 136V138.5H746.375V136H736.625ZM756.125 136V138.5H765.875V136H756.125ZM775.625 136V138.5H785.375V136H775.625ZM795.125 136V138.5H804.875V136H795.125ZM814.625 136V138.5H824.375V136H814.625ZM834.125 136V138.5H843.875V136H834.125ZM853.625 136V138.5H863.375V136H853.625ZM873.125 136V138.5H882.875V136H873.125ZM892.625 136V138.5H902.375V136H892.625ZM912.125 136V138.5H921.875V136H912.125ZM931.625 136V138.5H941.375V136H931.625ZM951.125 136V138.5H960.875V136H951.125ZM970.625 136V138.5H980.375V136H970.625ZM990.125 136V138.5H995C996.022 138.5 996.989 138.703 997.87 139.068L998.828 136.759C997.649 136.27 996.356 136 995 136H990.125ZM1005 161.042H1002.5V171.069H1005V161.042ZM1005 181.097H1002.5V191.125H1005V181.097ZM1005 201.153H1002.5V211.181H1005V201.153ZM1005 221.208H1002.5V231.236H1005V221.208ZM1005 241.264H1002.5V251.292H1005V241.264ZM1005 261.319H1002.5V271.347H1005V261.319ZM1005 281.375H1002.5V291.403H1005V281.375ZM1005 301.431H1002.5V311.458H1005V301.431ZM1005 321.486H1002.5V331.514H1005V321.486ZM1005 341.542H1002.5V351.569H1005V341.542ZM1005 361.597H1002.5V371.625H1005V361.597ZM1005 381.653H1002.5V391.68H1005V381.653ZM1005 401.708H1002.5V411.736H1005V401.708ZM1005 421.764H1002.5V431.792H1005V421.764ZM1005 441.819H1002.5V451.847H1005V441.819ZM1005 461.875H1002.5V471.903H1005V461.875ZM1005 481.93H1002.5V491.958H1005V481.93ZM1005 501.986H1002.5V507C1002.5 508.022 1002.3 508.989 1001.93 509.87L1004.24 510.828C1004.73 509.649 1005 508.356 1005 507V501.986ZM980.375 517V514.5H970.625V517H980.375ZM960.875 517V514.5H951.125V517H960.875ZM941.375 517V514.5H931.625V517H941.375ZM921.875 517V514.5H912.125V517H921.875ZM902.375 517V514.5H892.625V517H902.375ZM882.875 517V514.5H873.125V517H882.875ZM863.375 517V514.5H853.625V517H863.375ZM843.875 517V514.5H834.125V517H843.875ZM824.375 517V514.5H814.625V517H824.375ZM804.875 517V514.5H795.125V517H804.875ZM785.375 517V514.5H775.625V517H785.375ZM765.875 517V514.5H756.125V517H765.875ZM746.375 517V514.5H736.625V517H746.375ZM726.875 517V514.5H717.125V517H726.875ZM707.375 517V514.5H697.625V517H707.375ZM687.875 517V514.5H678.125V517H687.875ZM668.375 517V514.5H658.625V517H668.375ZM648.875 517V514.5H639.125V517H648.875ZM629.375 517V514.5H619.625V517H629.375Z" fill="white"/>
<path fill-rule="evenodd" clip-rule="evenodd" d="M502 286.5H398C393.858 286.5 390.5 289.858 390.5 294V360C390.5 364.142 393.858 367.5 398 367.5H502C506.142 367.5 509.5 364.142 509.5 360V294C509.5 289.858 506.142 286.5 502 286.5ZM398 284C392.477 284 388 288.477 388 294V360C388 365.523 392.477 370 398 370H502C507.523 370 512 365.523 512 360V294C512 288.477 507.523 284 502 284H398Z" fill="white"/>
<path d="M413.197 334.216C415.717 334.216 417.193 332.956 418.111 331.516L416.311 330.598C415.735 331.606 414.583 332.344 413.197 332.344C410.911 332.344 409.147 330.526 409.147 328.006C409.147 325.486 410.911 323.668 413.197 323.668C414.583 323.668 415.735 324.424 416.311 325.414L418.111 324.496C417.211 323.056 415.717 321.796 413.197 321.796C409.741 321.796 406.987 324.316 406.987 328.006C406.987 331.696 409.741 334.216 413.197 334.216Z" fill="white"/>
<path d="M419.743 334H421.633V321.994H419.743V334Z" fill="white"/>
<path d="M428.008 334.216C430.798 334.216 432.49 332.146 432.49 329.644C432.49 327.16 430.798 325.09 428.008 325.09C425.254 325.09 423.544 327.16 423.544 329.644C423.544 332.146 425.254 334.216 428.008 334.216ZM428.008 332.542C426.406 332.542 425.506 331.192 425.506 329.644C425.506 328.114 426.406 326.764 428.008 326.764C429.628 326.764 430.528 328.114 430.528 329.644C430.528 331.192 429.628 332.542 428.008 332.542Z" fill="white"/>
<path d="M440.271 334H442.161V325.306H440.271V331.408C439.821 332.002 438.993 332.542 438.039 332.542C436.977 332.542 436.293 332.128 436.293 330.778V325.306H434.403V331.462C434.403 333.244 435.321 334.216 437.193 334.216C438.561 334.216 439.641 333.55 440.271 332.848V334Z" fill="white"/>
<path d="M450.736 334H452.626V321.994H450.736V326.512C450.034 325.594 449.026 325.09 447.946 325.09C445.696 325.09 444.076 326.854 444.076 329.662C444.076 332.524 445.714 334.216 447.946 334.216C449.062 334.216 450.07 333.676 450.736 332.812V334ZM450.736 331.39C450.304 332.038 449.386 332.542 448.486 332.542C446.992 332.542 446.038 331.336 446.038 329.662C446.038 327.97 446.992 326.764 448.486 326.764C449.386 326.764 450.304 327.286 450.736 327.934V331.39Z" fill="white"/>
<path d="M468.122 334H470.156V321.994H468.05V330.508L461.912 321.994H459.752V334H461.858V325.252L468.122 334Z" fill="white"/>
<path d="M481.203 334H483.507L478.791 321.994H476.163L471.447 334H473.751L474.633 331.696H480.321L481.203 334ZM477.477 323.776L479.727 329.842H475.227L477.477 323.776Z" fill="white"/>
<path d="M486.502 334H488.608V323.848H492.244V321.994H482.866V323.848H486.502V334Z" fill="white"/>
<path d="M236.761 289.34C237.661 290.222 239.011 290.69 240.487 290.69C242.827 290.69 244.105 289.52 244.105 287.99C244.105 285.938 242.251 285.506 240.739 285.182C239.713 284.948 238.849 284.714 238.849 284.048C238.849 283.436 239.479 283.076 240.469 283.076C241.549 283.076 242.521 283.526 243.043 284.12L243.835 282.788C243.043 282.086 241.927 281.564 240.451 281.564C238.255 281.564 237.031 282.788 237.031 284.21C237.031 286.154 238.813 286.55 240.307 286.874C241.369 287.108 242.287 287.378 242.287 288.134C242.287 288.782 241.711 289.196 240.577 289.196C239.443 289.196 238.237 288.602 237.625 287.972L236.761 289.34Z" fill="white"/>
<path d="M245.467 286.118C245.467 288.872 247.411 290.69 250.021 290.69C251.407 290.69 252.685 290.258 253.549 289.43L252.685 288.188C252.073 288.8 251.065 289.142 250.219 289.142C248.581 289.142 247.591 288.062 247.447 286.748H254.161V286.298C254.161 283.562 252.487 281.564 249.877 281.564C247.303 281.564 245.467 283.598 245.467 286.118ZM249.877 283.112C251.587 283.112 252.289 284.39 252.325 285.416H247.429C247.519 284.354 248.257 283.112 249.877 283.112Z" fill="white"/>
<path d="M261.895 290.474H263.785V284.354C263.785 282.572 262.849 281.564 260.977 281.564C259.609 281.564 258.493 282.284 257.917 282.968V281.78H256.027V290.474H257.917V284.408C258.349 283.814 259.177 283.238 260.149 283.238C261.211 283.238 261.895 283.688 261.895 285.038V290.474Z" fill="white"/>
<path d="M272.36 290.474H274.25V278.468H272.36V282.986C271.658 282.068 270.65 281.564 269.57 281.564C267.32 281.564 265.7 283.328 265.7 286.136C265.7 288.998 267.338 290.69 269.57 290.69C270.686 290.69 271.694 290.15 272.36 289.286V290.474ZM272.36 287.864C271.928 288.512 271.01 289.016 270.11 289.016C268.616 289.016 267.662 287.81 267.662 286.136C267.662 284.444 268.616 283.238 270.11 283.238C271.01 283.238 271.928 283.76 272.36 284.408V287.864Z" fill="white"/>
<path d="M282.258 280.34C282.906 280.34 283.428 279.818 283.428 279.17C283.428 278.522 282.906 278 282.258 278C281.628 278 281.088 278.522 281.088 279.17C281.088 279.818 281.628 280.34 282.258 280.34ZM283.212 281.78H281.322V290.978C281.322 292.004 280.782 292.4 280.098 292.4C279.936 292.4 279.702 292.382 279.558 292.346L279.36 293.912C279.63 293.966 279.936 294.002 280.332 294.002C282.24 294.002 283.212 292.832 283.212 290.978V281.78Z" fill="white"/>
<path d="M289.587 290.69C292.377 290.69 294.069 288.62 294.069 286.118C294.069 283.634 292.377 281.564 289.587 281.564C286.833 281.564 285.123 283.634 285.123 286.118C285.123 288.62 286.833 290.69 289.587 290.69ZM289.587 289.016C287.985 289.016 287.085 287.666 287.085 286.118C287.085 284.588 287.985 283.238 289.587 283.238C291.207 283.238 292.107 284.588 292.107 286.118C292.107 287.666 291.207 289.016 289.587 289.016Z" fill="white"/>
<path d="M295.982 290.474H297.872V289.286C298.538 290.15 299.528 290.69 300.662 290.69C302.876 290.69 304.514 288.998 304.514 286.136C304.514 283.328 302.894 281.564 300.662 281.564C299.564 281.564 298.556 282.068 297.872 282.986V278.468H295.982V290.474ZM297.872 287.864V284.426C298.286 283.778 299.222 283.238 300.104 283.238C301.616 283.238 302.57 284.444 302.57 286.136C302.57 287.828 301.616 289.016 300.104 289.016C299.222 289.016 298.286 288.512 297.872 287.864Z" fill="white"/>
<path d="M305.685 289.34C306.585 290.222 307.935 290.69 309.411 290.69C311.751 290.69 313.029 289.52 313.029 287.99C313.029 285.938 311.175 285.506 309.663 285.182C308.637 284.948 307.773 284.714 307.773 284.048C307.773 283.436 308.403 283.076 309.393 283.076C310.473 283.076 311.445 283.526 311.967 284.12L312.759 282.788C311.967 282.086 310.851 281.564 309.375 281.564C307.179 281.564 305.955 282.788 305.955 284.21C305.955 286.154 307.737 286.55 309.231 286.874C310.293 287.108 311.211 287.378 311.211 288.134C311.211 288.782 310.635 289.196 309.501 289.196C308.367 289.196 307.161 288.602 306.549 287.972L305.685 289.34Z" fill="white"/>
<path d="M236.525 371.006H238.415V365.084C238.793 364.472 239.855 363.932 240.647 363.932C240.881 363.932 241.079 363.95 241.241 363.986V362.114C240.107 362.114 239.063 362.762 238.415 363.59V362.312H236.525V371.006Z" fill="white"/>
<path d="M242.225 366.65C242.225 369.404 244.169 371.222 246.779 371.222C248.165 371.222 249.443 370.79 250.307 369.962L249.443 368.72C248.831 369.332 247.823 369.674 246.977 369.674C245.339 369.674 244.349 368.594 244.205 367.28H250.919V366.83C250.919 364.094 249.245 362.096 246.635 362.096C244.061 362.096 242.225 364.13 242.225 366.65ZM246.635 363.644C248.345 363.644 249.047 364.922 249.083 365.948H244.187C244.277 364.886 245.015 363.644 246.635 363.644Z" fill="white"/>
<path d="M255.395 371.222C256.277 371.222 256.835 370.988 257.177 370.664L256.727 369.242C256.583 369.404 256.241 369.548 255.881 369.548C255.341 369.548 255.053 369.116 255.053 368.522V363.968H256.817V362.312H255.053V359.936H253.163V362.312H251.723V363.968H253.163V368.99C253.163 370.43 253.937 371.222 255.395 371.222Z" fill="white"/>
<path d="M264.401 371.006H266.291V362.312H264.401V368.414C263.951 369.008 263.123 369.548 262.169 369.548C261.107 369.548 260.423 369.134 260.423 367.784V362.312H258.533V368.468C258.533 370.25 259.451 371.222 261.323 371.222C262.691 371.222 263.771 370.556 264.401 369.854V371.006Z" fill="white"/>
<path d="M268.745 371.006H270.635V365.084C271.013 364.472 272.075 363.932 272.867 363.932C273.101 363.932 273.299 363.95 273.461 363.986V362.114C272.327 362.114 271.283 362.762 270.635 363.59V362.312H268.745V371.006Z" fill="white"/>
<path d="M280.854 371.006H282.744V364.886C282.744 363.104 281.808 362.096 279.936 362.096C278.568 362.096 277.452 362.816 276.876 363.5V362.312H274.986V371.006H276.876V364.94C277.308 364.346 278.136 363.77 279.108 363.77C280.17 363.77 280.854 364.22 280.854 365.57V371.006Z" fill="white"/>
<path d="M289.822 371.006H291.712V359H289.822V371.006Z" fill="white"/>
<path d="M298.087 371.222C300.877 371.222 302.569 369.152 302.569 366.65C302.569 364.166 300.877 362.096 298.087 362.096C295.333 362.096 293.623 364.166 293.623 366.65C293.623 369.152 295.333 371.222 298.087 371.222ZM298.087 369.548C296.485 369.548 295.585 368.198 295.585 366.65C295.585 365.12 296.485 363.77 298.087 363.77C299.707 363.77 300.607 365.12 300.607 366.65C300.607 368.198 299.707 369.548 298.087 369.548Z" fill="white"/>
<path d="M304.374 373.238C305.436 374.21 306.534 374.534 308.01 374.534C310.152 374.534 312.474 373.688 312.474 370.556V362.312H310.584V363.518C309.882 362.6 308.892 362.096 307.794 362.096C305.562 362.096 303.942 363.752 303.942 366.56C303.942 369.422 305.58 371.024 307.794 371.024C308.928 371.024 309.918 370.448 310.584 369.584V370.628C310.584 372.41 309.252 372.986 308.01 372.986C306.858 372.986 305.958 372.68 305.256 371.87L304.374 373.238ZM310.584 368.18C310.17 368.828 309.234 369.35 308.352 369.35C306.858 369.35 305.904 368.234 305.904 366.56C305.904 364.886 306.858 363.77 308.352 363.77C309.234 363.77 310.17 364.292 310.584 364.94V368.18Z" fill="white"/>
<path d="M253.307 393.222C256.097 393.222 257.789 391.152 257.789 388.65C257.789 386.166 256.097 384.096 253.307 384.096C250.553 384.096 248.843 386.166 248.843 388.65C248.843 391.152 250.553 393.222 253.307 393.222ZM253.307 391.548C251.705 391.548 250.805 390.198 250.805 388.65C250.805 387.12 251.705 385.77 253.307 385.77C254.927 385.77 255.827 387.12 255.827 388.65C255.827 390.198 254.927 391.548 253.307 391.548Z" fill="white"/>
<path d="M265.57 393.006H267.46V384.312H265.57V390.414C265.12 391.008 264.292 391.548 263.338 391.548C262.276 391.548 261.592 391.134 261.592 389.784V384.312H259.702V390.468C259.702 392.25 260.62 393.222 262.492 393.222C263.86 393.222 264.94 392.556 265.57 391.854V393.006Z" fill="white"/>
<path d="M272.524 393.222C273.406 393.222 273.964 392.988 274.306 392.664L273.856 391.242C273.712 391.404 273.37 391.548 273.01 391.548C272.47 391.548 272.182 391.116 272.182 390.522V385.968H273.946V384.312H272.182V381.936H270.292V384.312H268.852V385.968H270.292V390.99C270.292 392.43 271.066 393.222 272.524 393.222Z" fill="white"/>
<path d="M277.552 396.318V391.8C278.254 392.736 279.244 393.222 280.342 393.222C282.592 393.222 284.194 391.512 284.194 388.65C284.194 385.788 282.592 384.096 280.342 384.096C279.208 384.096 278.2 384.636 277.552 385.5V384.312H275.662V396.318H277.552ZM282.232 388.65C282.232 390.342 281.278 391.548 279.784 391.548C278.902 391.548 277.966 391.008 277.552 390.378V386.94C277.966 386.292 278.902 385.77 279.784 385.77C281.278 385.77 282.232 386.976 282.232 388.65Z" fill="white"/>
<path d="M291.972 393.006H293.862V384.312H291.972V390.414C291.522 391.008 290.694 391.548 289.74 391.548C288.678 391.548 287.994 391.134 287.994 389.784V384.312H286.104V390.468C286.104 392.25 287.022 393.222 288.894 393.222C290.262 393.222 291.342 392.556 291.972 391.854V393.006Z" fill="white"/>
<path d="M298.927 393.222C299.809 393.222 300.367 392.988 300.709 392.664L300.259 391.242C300.115 391.404 299.773 391.548 299.413 391.548C298.873 391.548 298.585 391.116 298.585 390.522V385.968H300.349V384.312H298.585V381.936H296.695V384.312H295.255V385.968H296.695V390.99C296.695 392.43 297.469 393.222 298.927 393.222Z" fill="white"/>
<path d="M680.837 54.006C680.837 57.768 683.663 60.234 687.137 60.234C689.225 60.234 690.899 59.37 692.087 58.056V53.556H686.399V55.41H689.981V57.282C689.441 57.786 688.361 58.362 687.137 58.362C684.761 58.362 682.997 56.526 682.997 54.006C682.997 51.486 684.761 49.668 687.137 49.668C688.487 49.668 689.621 50.37 690.251 51.27L691.979 50.298C691.007 48.912 689.477 47.796 687.137 47.796C683.663 47.796 680.837 50.244 680.837 54.006Z" fill="white"/>
<path d="M699.949 60.216C702.469 60.216 703.945 58.956 704.863 57.516L703.063 56.598C702.487 57.606 701.335 58.344 699.949 58.344C697.663 58.344 695.899 56.526 695.899 54.006C695.899 51.486 697.663 49.668 699.949 49.668C701.335 49.668 702.487 50.424 703.063 51.414L704.863 50.496C703.963 49.056 702.469 47.796 699.949 47.796C696.493 47.796 693.739 50.316 693.739 54.006C693.739 57.696 696.493 60.216 699.949 60.216Z" fill="white"/>
<path d="M706.549 60H708.655V55.518H711.823C714.325 55.518 715.747 53.79 715.747 51.756C715.747 49.722 714.343 47.994 711.823 47.994H706.549V60ZM713.587 51.756C713.587 52.908 712.723 53.664 711.535 53.664H708.655V49.848H711.535C712.723 49.848 713.587 50.604 713.587 51.756Z" fill="white"/>
<path d="M723.959 63.312V58.794C724.661 59.73 725.651 60.216 726.749 60.216C728.999 60.216 730.601 58.506 730.601 55.644C730.601 52.782 728.999 51.09 726.749 51.09C725.615 51.09 724.607 51.63 723.959 52.494V51.306H722.069V63.312H723.959ZM728.639 55.644C728.639 57.336 727.685 58.542 726.191 58.542C725.309 58.542 724.373 58.002 723.959 57.372V53.934C724.373 53.286 725.309 52.764 726.191 52.764C727.685 52.764 728.639 53.97 728.639 55.644Z" fill="white"/>
<path d="M732.51 60H734.4V54.078C734.778 53.466 735.84 52.926 736.632 52.926C736.866 52.926 737.064 52.944 737.226 52.98V51.108C736.092 51.108 735.048 51.756 734.4 52.584V51.306H732.51V60Z" fill="white"/>
<path d="M742.674 60.216C745.464 60.216 747.156 58.146 747.156 55.644C747.156 53.16 745.464 51.09 742.674 51.09C739.92 51.09 738.21 53.16 738.21 55.644C738.21 58.146 739.92 60.216 742.674 60.216ZM742.674 58.542C741.072 58.542 740.172 57.192 740.172 55.644C740.172 54.114 741.072 52.764 742.674 52.764C744.294 52.764 745.194 54.114 745.194 55.644C745.194 57.192 744.294 58.542 742.674 58.542Z" fill="white"/>
<path d="M750.005 49.866C750.653 49.866 751.175 49.344 751.175 48.696C751.175 48.048 750.653 47.526 750.005 47.526C749.375 47.526 748.835 48.048 748.835 48.696C748.835 49.344 749.375 49.866 750.005 49.866ZM750.959 51.306H749.069V60.504C749.069 61.53 748.529 61.926 747.845 61.926C747.683 61.926 747.449 61.908 747.305 61.872L747.107 63.438C747.377 63.492 747.683 63.528 748.079 63.528C749.987 63.528 750.959 62.358 750.959 60.504V51.306Z" fill="white"/>
<path d="M752.871 55.644C752.871 58.398 754.815 60.216 757.425 60.216C758.811 60.216 760.089 59.784 760.953 58.956L760.089 57.714C759.477 58.326 758.469 58.668 757.623 58.668C755.985 58.668 754.995 57.588 754.851 56.274H761.565V55.824C761.565 53.088 759.891 51.09 757.281 51.09C754.707 51.09 752.871 53.124 752.871 55.644ZM757.281 52.638C758.991 52.638 759.693 53.916 759.729 54.942H754.833C754.923 53.88 755.661 52.638 757.281 52.638Z" fill="white"/>
<path d="M762.89 55.644C762.89 58.29 764.744 60.216 767.39 60.216C769.082 60.216 770.108 59.496 770.72 58.668L769.478 57.516C768.992 58.182 768.326 58.542 767.48 58.542C765.896 58.542 764.852 57.336 764.852 55.644C764.852 53.952 765.896 52.764 767.48 52.764C768.326 52.764 768.992 53.106 769.478 53.79L770.72 52.638C770.108 51.81 769.082 51.09 767.39 51.09C764.744 51.09 762.89 53.016 762.89 55.644Z" fill="white"/>
<path d="M774.987 60.216C775.869 60.216 776.427 59.982 776.769 59.658L776.319 58.236C776.175 58.398 775.833 58.542 775.473 58.542C774.933 58.542 774.645 58.11 774.645 57.516V52.962H776.409V51.306H774.645V48.93H772.755V51.306H771.315V52.962H772.755V57.984C772.755 59.424 773.529 60.216 774.987 60.216Z" fill="white"/>
<path d="M742.613 120H744.647L748.193 111.306H746.159L743.621 117.822L741.083 111.306H739.067L742.613 120Z" fill="white"/>
<path d="M750.315 109.866C750.963 109.866 751.485 109.344 751.485 108.696C751.485 108.048 750.963 107.526 750.315 107.526C749.685 107.526 749.145 108.048 749.145 108.696C749.145 109.344 749.685 109.866 750.315 109.866ZM749.379 120H751.269V111.306H749.379V120Z" fill="white"/>
<path d="M753.721 120H755.611V114.078C755.989 113.466 757.051 112.926 757.843 112.926C758.077 112.926 758.275 112.944 758.437 112.98V111.108C757.303 111.108 756.259 111.756 755.611 112.584V111.306H753.721V120Z" fill="white"/>
<path d="M762.571 120.216C763.453 120.216 764.011 119.982 764.353 119.658L763.903 118.236C763.759 118.398 763.417 118.542 763.057 118.542C762.517 118.542 762.229 118.11 762.229 117.516V112.962H763.993V111.306H762.229V108.93H760.339V111.306H758.899V112.962H760.339V117.984C760.339 119.424 761.113 120.216 762.571 120.216Z" fill="white"/>
<path d="M771.577 120H773.467V111.306H771.577V117.408C771.127 118.002 770.299 118.542 769.345 118.542C768.283 118.542 767.599 118.128 767.599 116.778V111.306H765.709V117.462C765.709 119.244 766.627 120.216 768.499 120.216C769.867 120.216 770.947 119.55 771.577 118.848V120Z" fill="white"/>
<path d="M781.232 120H783.122V114.24C783.122 111.9 781.43 111.09 779.504 111.09C778.118 111.09 776.858 111.54 775.85 112.494L776.624 113.808C777.38 113.07 778.226 112.71 779.198 112.71C780.404 112.71 781.232 113.322 781.232 114.33V115.626C780.602 114.888 779.594 114.51 778.424 114.51C777.002 114.51 775.4 115.338 775.4 117.336C775.4 119.262 777.002 120.216 778.424 120.216C779.576 120.216 780.584 119.802 781.232 119.064V120ZM781.232 118.02C780.8 118.614 779.99 118.92 779.162 118.92C778.1 118.92 777.308 118.308 777.308 117.372C777.308 116.418 778.1 115.806 779.162 115.806C779.99 115.806 780.8 116.112 781.232 116.706V118.02Z" fill="white"/>
<path d="M785.573 120H787.463V107.994H785.573V120Z" fill="white"/>
<path d="M800.405 120H802.295V113.88C802.295 112.098 801.359 111.09 799.487 111.09C798.119 111.09 797.003 111.81 796.427 112.494V111.306H794.537V120H796.427V113.934C796.859 113.34 797.687 112.764 798.659 112.764C799.721 112.764 800.405 113.214 800.405 114.564V120Z" fill="white"/>
<path d="M804.21 115.644C804.21 118.398 806.154 120.216 808.764 120.216C810.15 120.216 811.428 119.784 812.292 118.956L811.428 117.714C810.816 118.326 809.808 118.668 808.962 118.668C807.324 118.668 806.334 117.588 806.19 116.274H812.904V115.824C812.904 113.088 811.23 111.09 808.62 111.09C806.046 111.09 804.21 113.124 804.21 115.644ZM808.62 112.638C810.33 112.638 811.032 113.916 811.068 114.942H806.172C806.262 113.88 807 112.638 808.62 112.638Z" fill="white"/>
<path d="M817.38 120.216C818.262 120.216 818.82 119.982 819.162 119.658L818.712 118.236C818.568 118.398 818.226 118.542 817.866 118.542C817.326 118.542 817.038 118.11 817.038 117.516V112.962H818.802V111.306H817.038V108.93H815.148V111.306H813.708V112.962H815.148V117.984C815.148 119.424 815.922 120.216 817.38 120.216Z" fill="white"/>
<path d="M828.096 120H830.076L832.776 111.306H830.814L828.978 117.624L826.908 111.306H825.252L823.182 117.624L821.346 111.306H819.384L822.084 120H824.064L826.08 113.628L828.096 120Z" fill="white"/>
<path d="M838.012 120.216C840.802 120.216 842.494 118.146 842.494 115.644C842.494 113.16 840.802 111.09 838.012 111.09C835.258 111.09 833.548 113.16 833.548 115.644C833.548 118.146 835.258 120.216 838.012 120.216ZM838.012 118.542C836.41 118.542 835.51 117.192 835.51 115.644C835.51 114.114 836.41 112.764 838.012 112.764C839.632 112.764 840.532 114.114 840.532 115.644C840.532 117.192 839.632 118.542 838.012 118.542Z" fill="white"/>
<path d="M844.407 120H846.297V114.078C846.675 113.466 847.737 112.926 848.529 112.926C848.763 112.926 848.961 112.944 849.123 112.98V111.108C847.989 111.108 846.945 111.756 846.297 112.584V111.306H844.407V120Z" fill="white"/>
<path d="M856.407 120H858.783L855.093 115.248L858.711 111.306H856.371L852.537 115.5V107.994H850.647V120H852.537V117.66L853.743 116.418L856.407 120Z" fill="white"/>
<path fill-rule="evenodd" clip-rule="evenodd" d="M757 286.5H634C629.858 286.5 626.5 289.858 626.5 294V360C626.5 364.142 629.858 367.5 634 367.5H757C761.142 367.5 764.5 364.142 764.5 360V294C764.5 289.858 761.142 286.5 757 286.5ZM634 284C628.477 284 624 288.477 624 294V360C624 365.523 628.477 370 634 370H757C762.523 370 767 365.523 767 360V294C767 288.477 762.523 284 757 284H634Z" fill="white"/>
<path d="M650.786 320.644C650.786 323.29 652.64 325.216 655.286 325.216C656.978 325.216 658.004 324.496 658.616 323.668L657.374 322.516C656.888 323.182 656.222 323.542 655.376 323.542C653.792 323.542 652.748 322.336 652.748 320.644C652.748 318.952 653.792 317.764 655.376 317.764C656.222 317.764 656.888 318.106 657.374 318.79L658.616 317.638C658.004 316.81 656.978 316.09 655.286 316.09C652.64 316.09 650.786 318.016 650.786 320.644Z" fill="white"/>
<path d="M664.198 325.216C666.988 325.216 668.68 323.146 668.68 320.644C668.68 318.16 666.988 316.09 664.198 316.09C661.444 316.09 659.734 318.16 659.734 320.644C659.734 323.146 661.444 325.216 664.198 325.216ZM664.198 323.542C662.596 323.542 661.696 322.192 661.696 320.644C661.696 319.114 662.596 317.764 664.198 317.764C665.818 317.764 666.718 319.114 666.718 320.644C666.718 322.192 665.818 323.542 664.198 323.542Z" fill="white"/>
<path d="M674.516 325.216C677.306 325.216 678.998 323.146 678.998 320.644C678.998 318.16 677.306 316.09 674.516 316.09C671.762 316.09 670.052 318.16 670.052 320.644C670.052 323.146 671.762 325.216 674.516 325.216ZM674.516 323.542C672.914 323.542 672.014 322.192 672.014 320.644C672.014 319.114 672.914 317.764 674.516 317.764C676.136 317.764 677.036 319.114 677.036 320.644C677.036 322.192 676.136 323.542 674.516 323.542Z" fill="white"/>
<path d="M680.91 325H682.8V319.078C683.178 318.466 684.24 317.926 685.032 317.926C685.266 317.926 685.464 317.944 685.626 317.98V316.108C684.492 316.108 683.448 316.756 682.8 317.584V316.306H680.91V325Z" fill="white"/>
<path d="M693.271 325H695.161V312.994H693.271V317.512C692.569 316.594 691.561 316.09 690.481 316.09C688.231 316.09 686.611 317.854 686.611 320.662C686.611 323.524 688.249 325.216 690.481 325.216C691.597 325.216 692.605 324.676 693.271 323.812V325ZM693.271 322.39C692.839 323.038 691.921 323.542 691.021 323.542C689.527 323.542 688.573 322.336 688.573 320.662C688.573 318.97 689.527 317.764 691.021 317.764C691.921 317.764 692.839 318.286 693.271 318.934V322.39Z" fill="white"/>
<path d="M698.546 314.866C699.194 314.866 699.716 314.344 699.716 313.696C699.716 313.048 699.194 312.526 698.546 312.526C697.916 312.526 697.376 313.048 697.376 313.696C697.376 314.344 697.916 314.866 698.546 314.866ZM697.61 325H699.5V316.306H697.61V325Z" fill="white"/>
<path d="M707.819 325H709.709V318.88C709.709 317.098 708.773 316.09 706.901 316.09C705.533 316.09 704.417 316.81 703.841 317.494V316.306H701.951V325H703.841V318.934C704.273 318.34 705.102 317.764 706.074 317.764C707.136 317.764 707.819 318.214 707.819 319.564V325Z" fill="white"/>
<path d="M717.474 325H719.364V319.24C719.364 316.9 717.672 316.09 715.746 316.09C714.36 316.09 713.1 316.54 712.092 317.494L712.866 318.808C713.622 318.07 714.468 317.71 715.44 317.71C716.646 317.71 717.474 318.322 717.474 319.33V320.626C716.844 319.888 715.836 319.51 714.666 319.51C713.244 319.51 711.642 320.338 711.642 322.336C711.642 324.262 713.244 325.216 714.666 325.216C715.818 325.216 716.826 324.802 717.474 324.064V325ZM717.474 323.02C717.042 323.614 716.232 323.92 715.404 323.92C714.342 323.92 713.55 323.308 713.55 322.372C713.55 321.418 714.342 320.806 715.404 320.806C716.232 320.806 717.042 321.112 717.474 321.706V323.02Z" fill="white"/>
<path d="M724.425 325.216C725.307 325.216 725.865 324.982 726.207 324.658L725.757 323.236C725.613 323.398 725.271 323.542 724.911 323.542C724.371 323.542 724.083 323.11 724.083 322.516V317.962H725.847V316.306H724.083V313.93H722.193V316.306H720.753V317.962H722.193V322.984C722.193 324.424 722.967 325.216 724.425 325.216Z" fill="white"/>
<path d="M731.487 325.216C734.277 325.216 735.969 323.146 735.969 320.644C735.969 318.16 734.277 316.09 731.487 316.09C728.733 316.09 727.023 318.16 727.023 320.644C727.023 323.146 728.733 325.216 731.487 325.216ZM731.487 323.542C729.885 323.542 728.985 322.192 728.985 320.644C728.985 319.114 729.885 317.764 731.487 317.764C733.107 317.764 734.007 319.114 734.007 320.644C734.007 322.192 733.107 323.542 731.487 323.542Z" fill="white"/>
<path d="M737.881 325H739.771V319.078C740.149 318.466 741.211 317.926 742.003 317.926C742.237 317.926 742.435 317.944 742.597 317.98V316.108C741.463 316.108 740.419 316.756 739.771 317.584V316.306H737.881V325Z" fill="white"/>
<path d="M664.848 336.866C665.496 336.866 666.018 336.344 666.018 335.696C666.018 335.048 665.496 334.526 664.848 334.526C664.218 334.526 663.678 335.048 663.678 335.696C663.678 336.344 664.218 336.866 664.848 336.866ZM663.912 347H665.802V338.306H663.912V347Z" fill="white"/>
<path d="M674.122 347H676.012V340.88C676.012 339.098 675.076 338.09 673.204 338.09C671.836 338.09 670.72 338.81 670.144 339.494V338.306H668.254V347H670.144V340.934C670.576 340.34 671.404 339.764 672.376 339.764C673.438 339.764 674.122 340.214 674.122 341.564V347Z" fill="white"/>
<path d="M677.711 345.866C678.611 346.748 679.961 347.216 681.437 347.216C683.777 347.216 685.055 346.046 685.055 344.516C685.055 342.464 683.201 342.032 681.689 341.708C680.663 341.474 679.799 341.24 679.799 340.574C679.799 339.962 680.429 339.602 681.419 339.602C682.499 339.602 683.471 340.052 683.993 340.646L684.785 339.314C683.993 338.612 682.877 338.09 681.401 338.09C679.205 338.09 677.981 339.314 677.981 340.736C677.981 342.68 679.763 343.076 681.257 343.4C682.319 343.634 683.237 343.904 683.237 344.66C683.237 345.308 682.661 345.722 681.527 345.722C680.393 345.722 679.187 345.128 678.575 344.498L677.711 345.866Z" fill="white"/>
<path d="M689.567 347.216C690.449 347.216 691.007 346.982 691.349 346.658L690.899 345.236C690.755 345.398 690.413 345.542 690.053 345.542C689.513 345.542 689.225 345.11 689.225 344.516V339.962H690.989V338.306H689.225V335.93H687.335V338.306H685.895V339.962H687.335V344.984C687.335 346.424 688.109 347.216 689.567 347.216Z" fill="white"/>
<path d="M698.015 347H699.905V341.24C699.905 338.9 698.213 338.09 696.287 338.09C694.901 338.09 693.641 338.54 692.633 339.494L693.407 340.808C694.163 340.07 695.009 339.71 695.981 339.71C697.187 339.71 698.015 340.322 698.015 341.33V342.626C697.385 341.888 696.377 341.51 695.207 341.51C693.785 341.51 692.183 342.338 692.183 344.336C692.183 346.262 693.785 347.216 695.207 347.216C696.359 347.216 697.367 346.802 698.015 346.064V347ZM698.015 345.02C697.583 345.614 696.773 345.92 695.945 345.92C694.883 345.92 694.091 345.308 694.091 344.372C694.091 343.418 694.883 342.806 695.945 342.806C696.773 342.806 697.583 343.112 698.015 343.706V345.02Z" fill="white"/>
<path d="M708.224 347H710.114V340.88C710.114 339.098 709.178 338.09 707.306 338.09C705.938 338.09 704.822 338.81 704.246 339.494V338.306H702.356V347H704.246V340.934C704.678 340.34 705.506 339.764 706.478 339.764C707.54 339.764 708.224 340.214 708.224 341.564V347Z" fill="white"/>
<path d="M712.029 342.644C712.029 345.29 713.883 347.216 716.529 347.216C718.221 347.216 719.247 346.496 719.859 345.668L718.617 344.516C718.131 345.182 717.465 345.542 716.619 345.542C715.035 345.542 713.991 344.336 713.991 342.644C713.991 340.952 715.035 339.764 716.619 339.764C717.465 339.764 718.131 340.106 718.617 340.79L719.859 339.638C719.247 338.81 718.221 338.09 716.529 338.09C713.883 338.09 712.029 340.016 712.029 342.644Z" fill="white"/>
<path d="M720.976 342.644C720.976 345.398 722.92 347.216 725.53 347.216C726.916 347.216 728.194 346.784 729.058 345.956L728.194 344.714C727.582 345.326 726.574 345.668 725.728 345.668C724.09 345.668 723.1 344.588 722.956 343.274H729.67V342.824C729.67 340.088 727.996 338.09 725.386 338.09C722.812 338.09 720.976 340.124 720.976 342.644ZM725.386 339.638C727.096 339.638 727.798 340.916 727.834 341.942H722.938C723.028 340.88 723.766 339.638 725.386 339.638Z" fill="white"/>
<path fill-rule="evenodd" clip-rule="evenodd" d="M963 161.5H876C871.858 161.5 868.5 164.858 868.5 169V214C868.5 218.142 871.858 221.5 876 221.5H963C967.142 221.5 970.5 218.142 970.5 214V169C970.5 164.858 967.142 161.5 963 161.5ZM876 159C870.477 159 866 163.477 866 169V214C866 219.523 870.477 224 876 224H963C968.523 224 973 219.523 973 214V169C973 163.477 968.523 159 963 159H876Z" fill="white"/>
<path d="M901.099 187H903.079L905.779 178.306H903.817L901.981 184.624L899.911 178.306H898.255L896.185 184.624L894.349 178.306H892.387L895.087 187H897.067L899.083 180.628L901.099 187Z" fill="white"/>
<path d="M911.015 187.216C913.805 187.216 915.497 185.146 915.497 182.644C915.497 180.16 913.805 178.09 911.015 178.09C908.261 178.09 906.551 180.16 906.551 182.644C906.551 185.146 908.261 187.216 911.015 187.216ZM911.015 185.542C909.413 185.542 908.513 184.192 908.513 182.644C908.513 181.114 909.413 179.764 911.015 179.764C912.635 179.764 913.535 181.114 913.535 182.644C913.535 184.192 912.635 185.542 911.015 185.542Z" fill="white"/>
<path d="M917.41 187H919.3V181.078C919.678 180.466 920.74 179.926 921.532 179.926C921.766 179.926 921.964 179.944 922.126 179.98V178.108C920.992 178.108 919.948 178.756 919.3 179.584V178.306H917.41V187Z" fill="white"/>
<path d="M929.41 187H931.786L928.096 182.248L931.714 178.306H929.374L925.54 182.5V174.994H923.65V187H925.54V184.66L926.746 183.418L929.41 187Z" fill="white"/>
<path d="M932.127 182.644C932.127 185.398 934.071 187.216 936.681 187.216C938.067 187.216 939.345 186.784 940.209 185.956L939.345 184.714C938.733 185.326 937.725 185.668 936.879 185.668C935.241 185.668 934.251 184.588 934.107 183.274H940.821V182.824C940.821 180.088 939.147 178.09 936.537 178.09C933.963 178.09 932.127 180.124 932.127 182.644ZM936.537 179.638C938.247 179.638 938.949 180.916 938.985 181.942H934.089C934.179 180.88 934.917 179.638 936.537 179.638Z" fill="white"/>
<path d="M942.687 187H944.577V181.078C944.955 180.466 946.017 179.926 946.809 179.926C947.043 179.926 947.241 179.944 947.403 179.98V178.108C946.269 178.108 945.225 178.756 944.577 179.584V178.306H942.687V187Z" fill="white"/>
<path d="M888.348 198.866C888.996 198.866 889.518 198.344 889.518 197.696C889.518 197.048 888.996 196.526 888.348 196.526C887.718 196.526 887.178 197.048 887.178 197.696C887.178 198.344 887.718 198.866 888.348 198.866ZM887.412 209H889.302V200.306H887.412V209Z" fill="white"/>
<path d="M897.622 209H899.512V202.88C899.512 201.098 898.576 200.09 896.704 200.09C895.336 200.09 894.22 200.81 893.644 201.494V200.306H891.754V209H893.644V202.934C894.076 202.34 894.904 201.764 895.876 201.764C896.938 201.764 897.622 202.214 897.622 203.564V209Z" fill="white"/>
<path d="M901.211 207.866C902.111 208.748 903.461 209.216 904.937 209.216C907.277 209.216 908.555 208.046 908.555 206.516C908.555 204.464 906.701 204.032 905.189 203.708C904.163 203.474 903.299 203.24 903.299 202.574C903.299 201.962 903.929 201.602 904.919 201.602C905.999 201.602 906.971 202.052 907.493 202.646L908.285 201.314C907.493 200.612 906.377 200.09 904.901 200.09C902.705 200.09 901.481 201.314 901.481 202.736C901.481 204.68 903.263 205.076 904.757 205.4C905.819 205.634 906.737 205.904 906.737 206.66C906.737 207.308 906.161 207.722 905.027 207.722C903.893 207.722 902.687 207.128 902.075 206.498L901.211 207.866Z" fill="white"/>
<path d="M913.067 209.216C913.949 209.216 914.507 208.982 914.849 208.658L914.399 207.236C914.255 207.398 913.913 207.542 913.553 207.542C913.013 207.542 912.725 207.11 912.725 206.516V201.962H914.489V200.306H912.725V197.93H910.835V200.306H909.395V201.962H910.835V206.984C910.835 208.424 911.609 209.216 913.067 209.216Z" fill="white"/>
<path d="M921.515 209H923.405V203.24C923.405 200.9 921.713 200.09 919.787 200.09C918.401 200.09 917.141 200.54 916.133 201.494L916.907 202.808C917.663 202.07 918.509 201.71 919.481 201.71C920.687 201.71 921.515 202.322 921.515 203.33V204.626C920.885 203.888 919.877 203.51 918.707 203.51C917.285 203.51 915.683 204.338 915.683 206.336C915.683 208.262 917.285 209.216 918.707 209.216C919.859 209.216 920.867 208.802 921.515 208.064V209ZM921.515 207.02C921.083 207.614 920.273 207.92 919.445 207.92C918.383 207.92 917.591 207.308 917.591 206.372C917.591 205.418 918.383 204.806 919.445 204.806C920.273 204.806 921.083 205.112 921.515 205.706V207.02Z" fill="white"/>
<path d="M931.724 209H933.614V202.88C933.614 201.098 932.678 200.09 930.806 200.09C929.438 200.09 928.322 200.81 927.746 201.494V200.306H925.856V209H927.746V202.934C928.178 202.34 929.006 201.764 929.978 201.764C931.04 201.764 931.724 202.214 931.724 203.564V209Z" fill="white"/>
<path d="M935.529 204.644C935.529 207.29 937.383 209.216 940.029 209.216C941.721 209.216 942.747 208.496 943.359 207.668L942.117 206.516C941.631 207.182 940.965 207.542 940.119 207.542C938.535 207.542 937.491 206.336 937.491 204.644C937.491 202.952 938.535 201.764 940.119 201.764C940.965 201.764 941.631 202.106 942.117 202.79L943.359 201.638C942.747 200.81 941.721 200.09 940.029 200.09C937.383 200.09 935.529 202.016 935.529 204.644Z" fill="white"/>
<path d="M944.476 204.644C944.476 207.398 946.42 209.216 949.03 209.216C950.416 209.216 951.694 208.784 952.558 207.956L951.694 206.714C951.082 207.326 950.074 207.668 949.228 207.668C947.59 207.668 946.6 206.588 946.456 205.274H953.17V204.824C953.17 202.088 951.496 200.09 948.886 200.09C946.312 200.09 944.476 202.124 944.476 204.644ZM948.886 201.638C950.596 201.638 951.298 202.916 951.334 203.942H946.438C946.528 202.88 947.266 201.638 948.886 201.638Z" fill="white"/>
<path fill-rule="evenodd" clip-rule="evenodd" d="M963 251.5H876C871.858 251.5 868.5 254.858 868.5 259V303C868.5 307.142 871.858 310.5 876 310.5H963C967.142 310.5 970.5 307.142 970.5 303V259C970.5 254.858 967.142 251.5 963 251.5ZM876 249C870.477 249 866 253.477 866 259V303C866 308.523 870.477 313 876 313H963C968.523 313 973 308.523 973 303V259C973 253.477 968.523 249 963 249H876Z" fill="white"/>
<path d="M901.099 276H903.079L905.779 267.306H903.817L901.981 273.624L899.911 267.306H898.255L896.185 273.624L894.349 267.306H892.387L895.087 276H897.067L899.083 269.628L901.099 276Z" fill="white"/>
<path d="M911.015 276.216C913.805 276.216 915.497 274.146 915.497 271.644C915.497 269.16 913.805 267.09 911.015 267.09C908.261 267.09 906.551 269.16 906.551 271.644C906.551 274.146 908.261 276.216 911.015 276.216ZM911.015 274.542C909.413 274.542 908.513 273.192 908.513 271.644C908.513 270.114 909.413 268.764 911.015 268.764C912.635 268.764 913.535 270.114 913.535 271.644C913.535 273.192 912.635 274.542 911.015 274.542Z" fill="white"/>
<path d="M917.41 276H919.3V270.078C919.678 269.466 920.74 268.926 921.532 268.926C921.766 268.926 921.964 268.944 922.126 268.98V267.108C920.992 267.108 919.948 267.756 919.3 268.584V267.306H917.41V276Z" fill="white"/>
<path d="M929.41 276H931.786L928.096 271.248L931.714 267.306H929.374L925.54 271.5V263.994H923.65V276H925.54V273.66L926.746 272.418L929.41 276Z" fill="white"/>
<path d="M932.127 271.644C932.127 274.398 934.071 276.216 936.681 276.216C938.067 276.216 939.345 275.784 940.209 274.956L939.345 273.714C938.733 274.326 937.725 274.668 936.879 274.668C935.241 274.668 934.251 273.588 934.107 272.274H940.821V271.824C940.821 269.088 939.147 267.09 936.537 267.09C933.963 267.09 932.127 269.124 932.127 271.644ZM936.537 268.638C938.247 268.638 938.949 269.916 938.985 270.942H934.089C934.179 269.88 934.917 268.638 936.537 268.638Z" fill="white"/>
<path d="M942.687 276H944.577V270.078C944.955 269.466 946.017 268.926 946.809 268.926C947.043 268.926 947.241 268.944 947.403 268.98V267.108C946.269 267.108 945.225 267.756 944.577 268.584V267.306H942.687V276Z" fill="white"/>
<path d="M888.348 287.866C888.996 287.866 889.518 287.344 889.518 286.696C889.518 286.048 888.996 285.526 888.348 285.526C887.718 285.526 887.178 286.048 887.178 286.696C887.178 287.344 887.718 287.866 888.348 287.866ZM887.412 298H889.302V289.306H887.412V298Z" fill="white"/>
<path d="M897.622 298H899.512V291.88C899.512 290.098 898.576 289.09 896.704 289.09C895.336 289.09 894.22 289.81 893.644 290.494V289.306H891.754V298H893.644V291.934C894.076 291.34 894.904 290.764 895.876 290.764C896.938 290.764 897.622 291.214 897.622 292.564V298Z" fill="white"/>
<path d="M901.211 296.866C902.111 297.748 903.461 298.216 904.937 298.216C907.277 298.216 908.555 297.046 908.555 295.516C908.555 293.464 906.701 293.032 905.189 292.708C904.163 292.474 903.299 292.24 903.299 291.574C903.299 290.962 903.929 290.602 904.919 290.602C905.999 290.602 906.971 291.052 907.493 291.646L908.285 290.314C907.493 289.612 906.377 289.09 904.901 289.09C902.705 289.09 901.481 290.314 901.481 291.736C901.481 293.68 903.263 294.076 904.757 294.4C905.819 294.634 906.737 294.904 906.737 295.66C906.737 296.308 906.161 296.722 905.027 296.722C903.893 296.722 902.687 296.128 902.075 295.498L901.211 296.866Z" fill="white"/>
<path d="M913.067 298.216C913.949 298.216 914.507 297.982 914.849 297.658L914.399 296.236C914.255 296.398 913.913 296.542 913.553 296.542C913.013 296.542 912.725 296.11 912.725 295.516V290.962H914.489V289.306H912.725V286.93H910.835V289.306H909.395V290.962H910.835V295.984C910.835 297.424 911.609 298.216 913.067 298.216Z" fill="white"/>
<path d="M921.515 298H923.405V292.24C923.405 289.9 921.713 289.09 919.787 289.09C918.401 289.09 917.141 289.54 916.133 290.494L916.907 291.808C917.663 291.07 918.509 290.71 919.481 290.71C920.687 290.71 921.515 291.322 921.515 292.33V293.626C920.885 292.888 919.877 292.51 918.707 292.51C917.285 292.51 915.683 293.338 915.683 295.336C915.683 297.262 917.285 298.216 918.707 298.216C919.859 298.216 920.867 297.802 921.515 297.064V298ZM921.515 296.02C921.083 296.614 920.273 296.92 919.445 296.92C918.383 296.92 917.591 296.308 917.591 295.372C917.591 294.418 918.383 293.806 919.445 293.806C920.273 293.806 921.083 294.112 921.515 294.706V296.02Z" fill="white"/>
<path d="M931.724 298H933.614V291.88C933.614 290.098 932.678 289.09 930.806 289.09C929.438 289.09 928.322 289.81 927.746 290.494V289.306H925.856V298H927.746V291.934C928.178 291.34 929.006 290.764 929.978 290.764C931.04 290.764 931.724 291.214 931.724 292.564V298Z" fill="white"/>
<path d="M935.529 293.644C935.529 296.29 937.383 298.216 940.029 298.216C941.721 298.216 942.747 297.496 943.359 296.668L942.117 295.516C941.631 296.182 940.965 296.542 940.119 296.542C938.535 296.542 937.491 295.336 937.491 293.644C937.491 291.952 938.535 290.764 940.119 290.764C940.965 290.764 941.631 291.106 942.117 291.79L943.359 290.638C942.747 289.81 941.721 289.09 940.029 289.09C937.383 289.09 935.529 291.016 935.529 293.644Z" fill="white"/>
<path d="M944.476 293.644C944.476 296.398 946.42 298.216 949.03 298.216C950.416 298.216 951.694 297.784 952.558 296.956L951.694 295.714C951.082 296.326 950.074 296.668 949.228 296.668C947.59 296.668 946.6 295.588 946.456 294.274H953.17V293.824C953.17 291.088 951.496 289.09 948.886 289.09C946.312 289.09 944.476 291.124 944.476 293.644ZM948.886 290.638C950.596 290.638 951.298 291.916 951.334 292.942H946.438C946.528 291.88 947.266 290.638 948.886 290.638Z" fill="white"/>
<path fill-rule="evenodd" clip-rule="evenodd" d="M963 342.5H876C871.858 342.5 868.5 345.858 868.5 350V393C868.5 397.142 871.858 400.5 876 400.5H963C967.142 400.5 970.5 397.142 970.5 393V350C970.5 345.858 967.142 342.5 963 342.5ZM876 340C870.477 340 866 344.477 866 350V393C866 398.523 870.477 403 876 403H963C968.523 403 973 398.523 973 393V350C973 344.477 968.523 340 963 340H876Z" fill="white"/>
<path d="M901.099 367H903.079L905.779 358.306H903.817L901.981 364.624L899.911 358.306H898.255L896.185 364.624L894.349 358.306H892.387L895.087 367H897.067L899.083 360.628L901.099 367Z" fill="white"/>
<path d="M911.015 367.216C913.805 367.216 915.497 365.146 915.497 362.644C915.497 360.16 913.805 358.09 911.015 358.09C908.261 358.09 906.551 360.16 906.551 362.644C906.551 365.146 908.261 367.216 911.015 367.216ZM911.015 365.542C909.413 365.542 908.513 364.192 908.513 362.644C908.513 361.114 909.413 359.764 911.015 359.764C912.635 359.764 913.535 361.114 913.535 362.644C913.535 364.192 912.635 365.542 911.015 365.542Z" fill="white"/>
<path d="M917.41 367H919.3V361.078C919.678 360.466 920.74 359.926 921.532 359.926C921.766 359.926 921.964 359.944 922.126 359.98V358.108C920.992 358.108 919.948 358.756 919.3 359.584V358.306H917.41V367Z" fill="white"/>
<path d="M929.41 367H931.786L928.096 362.248L931.714 358.306H929.374L925.54 362.5V354.994H923.65V367H925.54V364.66L926.746 363.418L929.41 367Z" fill="white"/>
<path d="M932.127 362.644C932.127 365.398 934.071 367.216 936.681 367.216C938.067 367.216 939.345 366.784 940.209 365.956L939.345 364.714C938.733 365.326 937.725 365.668 936.879 365.668C935.241 365.668 934.251 364.588 934.107 363.274H940.821V362.824C940.821 360.088 939.147 358.09 936.537 358.09C933.963 358.09 932.127 360.124 932.127 362.644ZM936.537 359.638C938.247 359.638 938.949 360.916 938.985 361.942H934.089C934.179 360.88 934.917 359.638 936.537 359.638Z" fill="white"/>
<path d="M942.687 367H944.577V361.078C944.955 360.466 946.017 359.926 946.809 359.926C947.043 359.926 947.241 359.944 947.403 359.98V358.108C946.269 358.108 945.225 358.756 944.577 359.584V358.306H942.687V367Z" fill="white"/>
<path d="M888.348 378.866C888.996 378.866 889.518 378.344 889.518 377.696C889.518 377.048 888.996 376.526 888.348 376.526C887.718 376.526 887.178 377.048 887.178 377.696C887.178 378.344 887.718 378.866 888.348 378.866ZM887.412 389H889.302V380.306H887.412V389Z" fill="white"/>
<path d="M897.622 389H899.512V382.88C899.512 381.098 898.576 380.09 896.704 380.09C895.336 380.09 894.22 380.81 893.644 381.494V380.306H891.754V389H893.644V382.934C894.076 382.34 894.904 381.764 895.876 381.764C896.938 381.764 897.622 382.214 897.622 383.564V389Z" fill="white"/>
<path d="M901.211 387.866C902.111 388.748 903.461 389.216 904.937 389.216C907.277 389.216 908.555 388.046 908.555 386.516C908.555 384.464 906.701 384.032 905.189 383.708C904.163 383.474 903.299 383.24 903.299 382.574C903.299 381.962 903.929 381.602 904.919 381.602C905.999 381.602 906.971 382.052 907.493 382.646L908.285 381.314C907.493 380.612 906.377 380.09 904.901 380.09C902.705 380.09 901.481 381.314 901.481 382.736C901.481 384.68 903.263 385.076 904.757 385.4C905.819 385.634 906.737 385.904 906.737 386.66C906.737 387.308 906.161 387.722 905.027 387.722C903.893 387.722 902.687 387.128 902.075 386.498L901.211 387.866Z" fill="white"/>
<path d="M913.067 389.216C913.949 389.216 914.507 388.982 914.849 388.658L914.399 387.236C914.255 387.398 913.913 387.542 913.553 387.542C913.013 387.542 912.725 387.11 912.725 386.516V381.962H914.489V380.306H912.725V377.93H910.835V380.306H909.395V381.962H910.835V386.984C910.835 388.424 911.609 389.216 913.067 389.216Z" fill="white"/>
<path d="M921.515 389H923.405V383.24C923.405 380.9 921.713 380.09 919.787 380.09C918.401 380.09 917.141 380.54 916.133 381.494L916.907 382.808C917.663 382.07 918.509 381.71 919.481 381.71C920.687 381.71 921.515 382.322 921.515 383.33V384.626C920.885 383.888 919.877 383.51 918.707 383.51C917.285 383.51 915.683 384.338 915.683 386.336C915.683 388.262 917.285 389.216 918.707 389.216C919.859 389.216 920.867 388.802 921.515 388.064V389ZM921.515 387.02C921.083 387.614 920.273 387.92 919.445 387.92C918.383 387.92 917.591 387.308 917.591 386.372C917.591 385.418 918.383 384.806 919.445 384.806C920.273 384.806 921.083 385.112 921.515 385.706V387.02Z" fill="white"/>
<path d="M931.724 389H933.614V382.88C933.614 381.098 932.678 380.09 930.806 380.09C929.438 380.09 928.322 380.81 927.746 381.494V380.306H925.856V389H927.746V382.934C928.178 382.34 929.006 381.764 929.978 381.764C931.04 381.764 931.724 382.214 931.724 383.564V389Z" fill="white"/>
<path d="M935.529 384.644C935.529 387.29 937.383 389.216 940.029 389.216C941.721 389.216 942.747 388.496 943.359 387.668L942.117 386.516C941.631 387.182 940.965 387.542 940.119 387.542C938.535 387.542 937.491 386.336 937.491 384.644C937.491 382.952 938.535 381.764 940.119 381.764C940.965 381.764 941.631 382.106 942.117 382.79L943.359 381.638C942.747 380.81 941.721 380.09 940.029 380.09C937.383 380.09 935.529 382.016 935.529 384.644Z" fill="white"/>
<path d="M944.476 384.644C944.476 387.398 946.42 389.216 949.03 389.216C950.416 389.216 951.694 388.784 952.558 387.956L951.694 386.714C951.082 387.326 950.074 387.668 949.228 387.668C947.59 387.668 946.6 386.588 946.456 385.274H953.17V384.824C953.17 382.088 951.496 380.09 948.886 380.09C946.312 380.09 944.476 382.124 944.476 384.644ZM948.886 381.638C950.596 381.638 951.298 382.916 951.334 383.942H946.438C946.528 382.88 947.266 381.638 948.886 381.638Z" fill="white"/>
<path fill-rule="evenodd" clip-rule="evenodd" d="M963 431.5H876C871.858 431.5 868.5 434.858 868.5 439V483C868.5 487.142 871.858 490.5 876 490.5H963C967.142 490.5 970.5 487.142 970.5 483V439C970.5 434.858 967.142 431.5 963 431.5ZM876 429C870.477 429 866 433.477 866 439V483C866 488.523 870.477 493 876 493H963C968.523 493 973 488.523 973 483V439C973 433.477 968.523 429 963 429H876Z" fill="white"/>
<path d="M901.099 458H903.079L905.779 449.306H903.817L901.981 455.624L899.911 449.306H898.255L896.185 455.624L894.349 449.306H892.387L895.087 458H897.067L899.083 451.628L901.099 458Z" fill="white"/>
<path d="M911.015 458.216C913.805 458.216 915.497 456.146 915.497 453.644C915.497 451.16 913.805 449.09 911.015 449.09C908.261 449.09 906.551 451.16 906.551 453.644C906.551 456.146 908.261 458.216 911.015 458.216ZM911.015 456.542C909.413 456.542 908.513 455.192 908.513 453.644C908.513 452.114 909.413 450.764 911.015 450.764C912.635 450.764 913.535 452.114 913.535 453.644C913.535 455.192 912.635 456.542 911.015 456.542Z" fill="white"/>
<path d="M917.41 458H919.3V452.078C919.678 451.466 920.74 450.926 921.532 450.926C921.766 450.926 921.964 450.944 922.126 450.98V449.108C920.992 449.108 919.948 449.756 919.3 450.584V449.306H917.41V458Z" fill="white"/>
<path d="M929.41 458H931.786L928.096 453.248L931.714 449.306H929.374L925.54 453.5V445.994H923.65V458H925.54V455.66L926.746 454.418L929.41 458Z" fill="white"/>
<path d="M932.127 453.644C932.127 456.398 934.071 458.216 936.681 458.216C938.067 458.216 939.345 457.784 940.209 456.956L939.345 455.714C938.733 456.326 937.725 456.668 936.879 456.668C935.241 456.668 934.251 455.588 934.107 454.274H940.821V453.824C940.821 451.088 939.147 449.09 936.537 449.09C933.963 449.09 932.127 451.124 932.127 453.644ZM936.537 450.638C938.247 450.638 938.949 451.916 938.985 452.942H934.089C934.179 451.88 934.917 450.638 936.537 450.638Z" fill="white"/>
<path d="M942.687 458H944.577V452.078C944.955 451.466 946.017 450.926 946.809 450.926C947.043 450.926 947.241 450.944 947.403 450.98V449.108C946.269 449.108 945.225 449.756 944.577 450.584V449.306H942.687V458Z" fill="white"/>
<path d="M888.348 469.866C888.996 469.866 889.518 469.344 889.518 468.696C889.518 468.048 888.996 467.526 888.348 467.526C887.718 467.526 887.178 468.048 887.178 468.696C887.178 469.344 887.718 469.866 888.348 469.866ZM887.412 480H889.302V471.306H887.412V480Z" fill="white"/>
<path d="M897.622 480H899.512V473.88C899.512 472.098 898.576 471.09 896.704 471.09C895.336 471.09 894.22 471.81 893.644 472.494V471.306H891.754V480H893.644V473.934C894.076 473.34 894.904 472.764 895.876 472.764C896.938 472.764 897.622 473.214 897.622 474.564V480Z" fill="white"/>
<path d="M901.211 478.866C902.111 479.748 903.461 480.216 904.937 480.216C907.277 480.216 908.555 479.046 908.555 477.516C908.555 475.464 906.701 475.032 905.189 474.708C904.163 474.474 903.299 474.24 903.299 473.574C903.299 472.962 903.929 472.602 904.919 472.602C905.999 472.602 906.971 473.052 907.493 473.646L908.285 472.314C907.493 471.612 906.377 471.09 904.901 471.09C902.705 471.09 901.481 472.314 901.481 473.736C901.481 475.68 903.263 476.076 904.757 476.4C905.819 476.634 906.737 476.904 906.737 477.66C906.737 478.308 906.161 478.722 905.027 478.722C903.893 478.722 902.687 478.128 902.075 477.498L901.211 478.866Z" fill="white"/>
<path d="M913.067 480.216C913.949 480.216 914.507 479.982 914.849 479.658L914.399 478.236C914.255 478.398 913.913 478.542 913.553 478.542C913.013 478.542 912.725 478.11 912.725 477.516V472.962H914.489V471.306H912.725V468.93H910.835V471.306H909.395V472.962H910.835V477.984C910.835 479.424 911.609 480.216 913.067 480.216Z" fill="white"/>
<path d="M921.515 480H923.405V474.24C923.405 471.9 921.713 471.09 919.787 471.09C918.401 471.09 917.141 471.54 916.133 472.494L916.907 473.808C917.663 473.07 918.509 472.71 919.481 472.71C920.687 472.71 921.515 473.322 921.515 474.33V475.626C920.885 474.888 919.877 474.51 918.707 474.51C917.285 474.51 915.683 475.338 915.683 477.336C915.683 479.262 917.285 480.216 918.707 480.216C919.859 480.216 920.867 479.802 921.515 479.064V480ZM921.515 478.02C921.083 478.614 920.273 478.92 919.445 478.92C918.383 478.92 917.591 478.308 917.591 477.372C917.591 476.418 918.383 475.806 919.445 475.806C920.273 475.806 921.083 476.112 921.515 476.706V478.02Z" fill="white"/>
<path d="M931.724 480H933.614V473.88C933.614 472.098 932.678 471.09 930.806 471.09C929.438 471.09 928.322 471.81 927.746 472.494V471.306H925.856V480H927.746V473.934C928.178 473.34 929.006 472.764 929.978 472.764C931.04 472.764 931.724 473.214 931.724 474.564V480Z" fill="white"/>
<path d="M935.529 475.644C935.529 478.29 937.383 480.216 940.029 480.216C941.721 480.216 942.747 479.496 943.359 478.668L942.117 477.516C941.631 478.182 940.965 478.542 940.119 478.542C938.535 478.542 937.491 477.336 937.491 475.644C937.491 473.952 938.535 472.764 940.119 472.764C940.965 472.764 941.631 473.106 942.117 473.79L943.359 472.638C942.747 471.81 941.721 471.09 940.029 471.09C937.383 471.09 935.529 473.016 935.529 475.644Z" fill="white"/>
<path d="M944.476 475.644C944.476 478.398 946.42 480.216 949.03 480.216C950.416 480.216 951.694 479.784 952.558 478.956L951.694 477.714C951.082 478.326 950.074 478.668 949.228 478.668C947.59 478.668 946.6 477.588 946.456 476.274H953.17V475.824C953.17 473.088 951.496 471.09 948.886 471.09C946.312 471.09 944.476 473.124 944.476 475.644ZM948.886 472.638C950.596 472.638 951.298 473.916 951.334 474.942H946.438C946.528 473.88 947.266 472.638 948.886 472.638Z" fill="white"/>
<path fill-rule="evenodd" clip-rule="evenodd" d="M132.5 278C105.151 278 83 300.253 83 327.727C83 349.731 97.1694 368.316 116.846 374.905C119.321 375.34 120.249 373.848 120.249 372.543C120.249 371.362 120.187 367.446 120.187 363.281C107.75 365.581 104.532 360.236 103.542 357.438C102.986 356.009 100.572 351.596 98.4688 350.415C96.7363 349.482 94.2612 347.182 98.4069 347.12C102.305 347.058 105.089 350.725 106.017 352.217C110.473 359.738 117.588 357.625 120.434 356.32C120.868 353.087 122.167 350.912 123.59 349.669C112.576 348.426 101.068 344.137 101.068 325.116C101.068 319.708 102.986 315.233 106.141 311.752C105.646 310.509 103.914 305.412 106.636 298.574C106.636 298.574 110.782 297.269 120.249 303.671C124.209 302.553 128.416 301.993 132.624 301.993C136.831 301.993 141.039 302.553 144.999 303.671C154.466 297.207 158.611 298.574 158.611 298.574C161.334 305.412 159.601 310.509 159.106 311.752C162.262 315.233 164.18 319.646 164.18 325.116C164.18 344.199 152.609 348.426 141.596 349.669C143.39 351.223 144.937 354.206 144.937 358.868C144.937 365.519 144.875 370.865 144.875 372.543C144.875 373.848 145.803 375.402 148.278 374.905C167.831 368.316 182 349.669 182 327.727C182 300.253 159.849 278 132.5 278Z" fill="white"/>
<path d="M199 312L199 308L338 308L338 312L199 312Z" fill="white"/>
<path d="M337.521 317.189L332 317.189L337.521 312.273L337.521 308.34L332 303.423L337.521 303.423L344.146 309.323L344.146 311.289L337.521 317.189Z" fill="white"/>
<path d="M526 329L526 326L581 326L581 329L526 329Z" fill="white"/>
<path d="M580.521 334.766L575 334.766L580.521 329.85L580.521 325.916L575 321L580.521 321L587.146 326.9L587.146 328.866L580.521 334.766Z" fill="white"/>
<path d="M526.625 321L532.146 321L526.625 325.916L526.625 329.85L532.146 334.766L526.625 334.766L520 328.866L520 326.9L526.625 321Z" fill="white"/>
<path d="M344 341L344 345L205 345L205 341L344 341Z" fill="white"/>
<path d="M205.554 336.145L211.075 336.145L205.554 341.061L205.554 344.995L211.075 349.911L205.554 349.911L198.929 344.011L198.929 342.045L205.554 336.145Z" fill="white"/>
<path d="M848.071 187L848.071 191L709.071 191L709.071 187L848.071 187Z" fill="white"/>
<path d="M709 187.145H713V262.145H709V187.145Z" fill="white"/>
<path d="M704 261.666V256.145L708.916 261.666H712.85L717.766 256.145V261.666L711.866 268.292H709.9L704 261.666Z" fill="white"/>
<path d="M848 281.145L848 285.145L796 285.145L796 281.145L848 281.145Z" fill="white"/>
<path d="M796 283.145H800V304.145H796V283.145Z" fill="white"/>
<path d="M800 303.145L800 307.145L784 307.145L784 303.145L800 303.145Z" fill="white"/>
<path d="M784.625 298.145L790.146 298.145L784.625 303.062L784.625 306.995L790.146 311.911L784.625 311.911L778 306.011L778 304.045L784.625 298.145Z" fill="white"/>
<path d="M848.071 466.911L848.071 462.911L709.071 462.911L709.071 466.911L848.071 466.911Z" fill="white"/>
<path d="M709 467H712V392H709V467Z" fill="white"/>
<path d="M704 392.245V397.766L708.916 392.245H712.85L717.766 397.766V392.245L711.866 385.62H709.9L704 392.245Z" fill="white"/>
<path d="M848 372.766L848 368.766L796 368.766L796 372.766L848 372.766Z" fill="white"/>
<path d="M796 370.766H800V349.766H796V370.766Z" fill="white"/>
<path d="M800 350.766L800 346.766L784 346.766L784 350.766L800 350.766Z" fill="white"/>
<path d="M784.625 355.766L790.146 355.766L784.625 350.85L784.625 346.916L790.146 342L784.625 342L778 347.9L778 349.866L784.625 355.766Z" fill="white"/>
<path d="M1072.81 107.763L1059.77 85.1675C1059.26 84.2988 1059 83.3133 1059 82.3102C1059 81.3071 1059.26 80.3216 1059.77 79.4529L1072.81 56.8575C1073.31 55.9887 1074.03 55.2672 1074.9 54.7656C1075.77 54.264 1076.76 53.9999 1077.76 54H1103.85C1104.85 54 1105.84 54.2641 1106.71 54.7657C1107.58 55.2673 1108.3 55.9888 1108.8 56.8575L1121.85 79.4529C1122.35 80.3217 1122.61 81.3072 1122.61 82.3104C1122.61 83.3137 1122.35 84.2992 1121.85 85.168L1108.8 107.763C1108.3 108.632 1107.58 109.353 1106.71 109.855C1105.84 110.356 1104.85 110.62 1103.85 110.62H1077.76C1076.76 110.621 1075.77 110.356 1074.9 109.855C1074.03 109.353 1073.31 108.632 1072.81 107.763V107.763Z" fill="white"/>
<path opacity="0.07" d="M1095.05 73.4894L1091.69 70.1349L1090.14 73.4581L1086.82 70.1428L1086.01 74.1623L1083.06 74.6692L1082.44 77.2941L1078.63 78.2061L1082.05 81.6271L1078.66 83.1344L1082.05 86.5187L1078.64 87.9739L1101.84 111.173L1107.54 111.155L1118.25 91.8099L1096.59 70.1498L1095.05 73.4894Z" fill="black"/>
<path d="M1093.7 78.8795H1088.03C1087.7 78.8795 1087.43 79.1513 1087.43 79.4828L1087.43 85.1516C1087.43 85.3115 1087.49 85.4646 1087.61 85.5777C1087.72 85.6908 1087.87 85.7546 1088.03 85.7554H1093.7C1093.86 85.7548 1094.02 85.6909 1094.13 85.5779C1094.24 85.4648 1094.31 85.3116 1094.31 85.1516V79.4828C1094.31 79.1513 1094.04 78.8795 1093.7 78.8795" fill="#332D37"/>
<path d="M1102.68 78.4222C1102.98 78.4222 1103.22 78.1777 1103.22 77.8805V76.9979C1103.22 76.7008 1102.98 76.4563 1102.68 76.4563H1099.92V73.879C1099.92 73.7194 1099.86 73.5666 1099.74 73.4538C1099.63 73.3409 1099.48 73.2771 1099.32 73.2762H1096.73L1096.73 70.5081C1096.73 70.2114 1096.49 69.9669 1096.19 69.9669L1095.3 69.9674C1095.01 69.9674 1094.76 70.2114 1094.76 70.5086L1094.76 73.2757H1091.85V70.5076C1091.85 70.2114 1091.61 69.9669 1091.31 69.9669L1090.43 69.9674C1090.13 69.9674 1089.89 70.2114 1089.89 70.5086L1089.89 73.2757L1086.97 73.2762V70.5076C1086.97 70.2114 1086.73 69.9669 1086.43 69.9669H1085.55C1085.25 69.9669 1085.01 70.2114 1085.01 70.5086L1085.01 73.2762H1082.42C1082.26 73.2767 1082.11 73.3403 1081.99 73.4532C1081.88 73.5661 1081.82 73.7192 1081.82 73.879V76.4567H1079.06C1078.76 76.4567 1078.52 76.7013 1078.52 76.9984L1078.52 77.882C1078.52 78.1792 1078.76 78.4227 1079.06 78.4227H1081.82L1081.82 81.3349H1079.06C1078.76 81.3349 1078.52 81.5784 1078.52 81.8756L1078.52 82.7587C1078.52 83.0569 1078.76 83.3004 1079.06 83.3004H1081.82V86.2126L1079.06 86.2121C1078.76 86.2121 1078.52 86.4561 1078.52 86.7533L1078.52 87.6364C1078.52 87.9346 1078.76 88.1776 1079.06 88.1776H1081.82V90.7568C1081.82 91.0873 1082.09 91.3597 1082.42 91.3597H1085.01V94.1262C1085.01 94.4244 1085.25 94.6679 1085.55 94.6679H1086.43C1086.73 94.6679 1086.97 94.4244 1086.97 94.1262L1086.97 91.3597H1089.89L1089.89 94.1262C1089.89 94.4244 1090.13 94.6679 1090.43 94.6679H1091.31C1091.61 94.6679 1091.85 94.4244 1091.85 94.1262L1091.85 91.3597H1094.76L1094.76 94.1262C1094.76 94.4244 1095.01 94.6679 1095.31 94.6679H1096.19C1096.49 94.6679 1096.73 94.4244 1096.73 94.1262V91.3597H1099.32C1099.48 91.3589 1099.63 91.2951 1099.74 91.1821C1099.86 91.0691 1099.92 90.9161 1099.92 90.7563L1099.92 88.1776L1102.68 88.1771C1102.98 88.1771 1103.22 87.9341 1103.22 87.6364V86.7543C1103.22 86.4561 1102.98 86.2126 1102.68 86.2126H1099.92V83.3004L1102.68 83.2994C1102.98 83.2994 1103.22 83.0569 1103.22 82.7587V81.8766C1103.22 81.5784 1102.98 81.3349 1102.68 81.3349H1099.92V78.4227H1102.68V78.4222ZM1097.88 89.333H1083.85V75.3013L1097.89 75.3008L1097.88 89.333Z" fill="#332D37"/>
</svg>
