<?xml version="1.0" encoding="UTF-8"?> <!-- Generator: Adobe Illustrator 24.0.1, SVG Export Plug-In . SVG Version: 6.00 Build 0) --> <svg xmlns="http://www.w3.org/2000/svg" xmlns:xlink="http://www.w3.org/1999/xlink" version="1.1" id="Layer_1" x="0px" y="0px" viewBox="0 0 1024 675" style="enable-background:new 0 0 1024 675;" xml:space="preserve"> <style type="text/css"> .st0{fill:#DE3A33;} .st1{fill:#A7A9AC;} .st2{fill:#343137;} .st3{fill:url(#SVGID_1_);} .st4{fill:url(#SVGID_2_);} .st5{fill:url(#SVGID_3_);} .st6{fill:url(#SVGID_4_);} .st7{fill:url(#SVGID_5_);} .st8{fill:url(#SVGID_6_);} .st9{fill:url(#SVGID_7_);} .st10{fill:url(#SVGID_8_);} .st11{fill:url(#SVGID_9_);} .st12{fill:url(#SVGID_10_);} .st13{fill:url(#SVGID_11_);} .st14{fill:url(#SVGID_12_);} </style> <g> <g> <g> <path d="M457.5,406.2c3.2-1.1,7.3-0.2,9.3,2.7c1.3,2.1,1,5.2-0.9,6.9c-3,2.5-7.7,2.7-10.8,0.3c-2.1-1.6-2.7-4.8-1.4-7.1 C454.6,407.6,456,406.7,457.5,406.2z"></path> <path d="M793.3,406.2c3.2-1.1,7.2-0.2,9.3,2.6c1.4,2.2,1,5.5-1.1,7.2c-3.1,2.3-7.8,2.4-10.7-0.1c-2-1.7-2.5-5-1-7.2 C790.6,407.5,791.9,406.7,793.3,406.2z"></path> <path d="M542.2,409.4c3.9,0,7.8,0,11.8,0c0,8.8,0,17.7,0,26.5c5.4-5.6,11-11.1,16.5-16.6c4.7,0,9.4,0,14.1,0 c-7.4,7.4-14.8,14.9-22.3,22.2c7.7,7.8,15.7,15.5,23.4,23.4c-5.1,0-10.1,0-15.2,0c-5.5-5.6-11-11-16.4-16.6c0,5.5,0,11.1,0,16.6 c-3.9,0-7.8,0-11.8,0C542.2,446.4,542.2,427.9,542.2,409.4z"></path> <path d="M591.4,409.4c4.1,0,8.1,0,12.2,0c0,13.2,0,26.4,0,39.7c-0.1,1.3,0.6,2.6,1.7,3.2c2.4,1.4,5.3,1.7,8,1.8 c11.8,0.3,23.6,0.1,35.4,0.1c0,3.5,0,7,0,10.5c-7.7,0-15.4,0-23.1,0c-6.9,0-13.9,0.2-20.7-1.1c-4.4-0.8-9-2.6-11.5-6.4 c-1.8-2.6-2.2-5.9-2.1-9C591.4,435.2,591.4,422.3,591.4,409.4z"></path> <g> <path d="M320.8,411.4c4.2-1.2,8.7-1.5,13-1.7c6.4,0,12.9,0,19.4,0c4.7,0,9.4,0.1,14,1.2c3.6,0.9,7.2,2.8,9.2,6.2 c1.7,2.8,1.9,6.3,1.9,9.5c0,6.6,0,13.2,0,19.8c0,3.4,0,7-1.9,10c-1.2,2.1-3.1,3.5-5.1,4.7c3.8,3.5,7.4,7.1,11.1,10.7 c-5.6,0-11.3,0-16.9,0c-2.5-2.5-5-4.9-7.5-7.4c-6.6,0-13.2,0-19.8,0c-5.6,0.1-11.3-0.2-16.6-1.9c-3.3-1.1-6.7-2.8-8.7-5.8 c-1.5-2.1-2.2-4.7-2.1-7.3c0-8.3,0-16.7,0-25c0-2.3,0.4-4.6,1.5-6.6C314,414.5,317.3,412.4,320.8,411.4z M329.3,420.4 c-2.4,0.4-5.9,1.1-6.2,4c-0.1,8.2,0,16.5,0,24.7c-0.1,1.4,0.7,2.6,1.9,3.2c2.3,1.3,5,1.4,7.6,1.5c6.2,0,12.3,0,18.5,0 c3.8,0,7.8,0,11.5-1.1c1.5-0.5,3.5-1.4,3.4-3.2c0-8.4,0-16.7,0-25.1c-0.2-2-2.3-2.9-4-3.4c-5.4-1.3-11.1-0.9-16.6-1 C340,420.1,334.6,419.8,329.3,420.4z"></path> </g> <path d="M385.6,420.6c3.9,0,7.8,0,11.7,0c0.1,9.9,0,19.9,0.1,29.8c-0.1,1.5,1.3,2.4,2.5,2.9c2.6,0.9,5.5,1,8.2,1.1 c5.4,0,10.8,0,16.3,0c2.4-0.1,5-0.2,7.3-1.1c1.1-0.4,2.3-1.2,2.3-2.4c0-10.1,0-20.2,0-30.2c4,0,7.9,0,11.9,0 c0,10.1,0,20.2,0,30.2c0,3.4-1.1,7-3.8,9.3c-3.6,3.1-8.6,3.8-13.2,4.3c-6.7,0.5-13.5,0.2-20.2,0.3c-6-0.2-12.3-0.5-17.6-3.7 c-3.4-2-5.4-5.8-5.4-9.7C385.6,441,385.6,430.8,385.6,420.6z"></path> <path d="M479.5,423.7c4.7-2.7,10.3-2.9,15.6-3c13.3,0,26.6,0,39.9,0c0,3.4,0,6.9,0,10.3c-13.3,0-26.6,0-39.9,0 c-2.4,0-4.9,0-7.3,0.7c-1.3,0.4-2.7,1.3-2.6,2.8c0,5.3,0,10.6,0,15.8c0,1.5,1.3,2.4,2.6,2.9c2.6,0.9,5.4,1,8.2,1.1 c13,0,26,0,39,0c0,3.4,0,6.9,0,10.3c-12,0-23.9,0-35.9,0c-5,0-10,0-14.9-1.2c-2.9-0.7-5.9-2-7.9-4.4c-1.9-2.1-2.8-5-2.7-7.8 c0-6,0-12,0-18.1C473.8,429.3,476.1,425.6,479.5,423.7z"></path> <g> <path d="M671.7,421.3c5.3-0.8,10.6-0.5,15.9-0.6c5.9,0,11.9-0.2,17.5,1.6c3.1,1,6.1,2.9,7.8,5.8c1.3,2.2,1.8,4.8,1.7,7.3 c0,5.3,0,10.5,0,15.8c-0.1,3.7-2,7.2-5,9.3c-4.7,3.3-10.7,4.1-16.3,4.2c-5.3,0-10.5,0-15.8,0c-6-0.1-12.3-1.3-17.2-5 c-2.8-2.1-4.5-5.4-4.4-8.9c0-5.3,0-10.5,0-15.8c0-3.2,1.4-6.4,3.8-8.5C663.1,423.6,667.4,422,671.7,421.3z M675.6,431.3 c-1.9,0.3-3.7,0.8-5.5,1.6c-1.2,0.6-2.4,1.6-2.4,3c0,4.7,0,9.4,0,14.1c0,1.8,1.9,2.7,3.3,3.2c4.8,1.8,9.9,1.1,14.9,1.2 c4.8-0.1,9.8,0.5,14.4-1.5c1.2-0.6,2.6-1.4,2.6-2.9c0-5,0-9.9,0-14.9c0-1.2-1.1-2.1-2.1-2.6c-3.7-1.6-7.8-1.5-11.7-1.4 C684.5,431.1,680,430.8,675.6,431.3z"></path> </g> <g> <path d="M737.7,421.3c5.4-0.8,10.9-0.6,16.4-0.6c5.9,0,11.9,0.2,17.5,2.2c3.6,1.2,7.2,3.2,9.2,6.6c1.4,2.3,1.5,5.1,1.5,7.7 c0,7.9,0,15.8,0,23.7c-0.1,4.6-0.5,9.4-2.6,13.7c-1.2,2.5-3.1,4.7-5.6,5.8c-3.9,1.6-8.2,1.7-12.4,1.9c-4.4,0-8.7,0-13.1,0 c0-3.3,0-6.6,0-9.9c4.9,0,9.9,0,14.8,0c2,0,4.3-0.7,5.5-2.4c1.2-1.6,1.3-3.7,1.2-5.6c-7.1,0-14.2,0-21.3,0 c-5.1,0-10.4-0.2-15.3-1.8c-3.1-1-6.1-2.4-8.3-4.8c-1.8-2-2.7-4.7-2.7-7.4c0-5.1,0-10.3,0-15.4c0-3.1,1-6.4,3.2-8.6 C728.9,423.2,733.4,422,737.7,421.3z M737.8,431.5c-1.7,0.3-3.6,1.4-3.5,3.4c0,5,0,10,0,15c0,1.9,1.9,3,3.5,3.4 c5.2,1.2,10.5,0.5,15.8,0.6c5.5,0,11.1,0.1,16.6,0c-0.1-6.2,0-12.4,0-18.5c0.1-1.5-1.5-2.4-2.7-2.9c-5.4-2.1-11.3-1.4-17-1.5 C746.3,431.1,742,430.7,737.8,431.5z"></path> </g> <path d="M815.3,423.7c4.7-2.7,10.4-2.9,15.7-3c13.3,0,26.6,0,39.9,0c0,3.4,0,6.9,0,10.3c-13.1,0-26.3,0-39.4,0 c-2.6,0-5.2,0-7.7,0.7c-1.3,0.4-2.7,1.3-2.6,2.8c0,5.3,0,10.6,0,15.8c0,1.5,1.3,2.5,2.6,2.9c2.8,1,5.7,1,8.6,1.1 c12.9,0,25.7,0,38.6,0c0,3.4,0,6.9,0,10.3c-13.1,0-26.3,0-39.4,0c-4.7-0.1-9.5-0.4-14-2.1c-3.1-1.1-5.9-3.4-7.1-6.5 c-1.3-3.4-0.9-7-1-10.6c0.1-4.3-0.2-8.5,0.2-12.8C809.7,429,812,425.5,815.3,423.7z"></path> <path d="M454.3,421.8c3.8,0,7.7,0,11.5,0c0,14.3,0,28.6,0,42.8c-3.8,0-7.7,0-11.5,0C454.3,450.4,454.3,436.1,454.3,421.8z"></path> <path d="M790.1,421.8c3.8,0,7.7,0,11.5,0c0,14.3,0,28.6,0,42.8c-3.8,0-7.7,0-11.5,0C790.1,450.4,790.1,436.1,790.1,421.8z"></path> </g> <g> <path class="st0" d="M255.2,417.3c12.8-1.6,25.6-2.9,38.4-4.2c-0.7,0.1-1.4,0.3-2,0.4c-21.2,2.7-42.4,5.9-63.2,10.8 c-11,2.7-22,5.7-32.3,10.3c-4.4,2.1-8.9,4.4-12.4,7.8c-1.9,1.9-3.6,4.3-3.8,7c-0.1,1.8,0.5,3.6,1.5,5.1c2,2.9,4.9,5.1,7.9,6.9 c6.4,3.8,13.4,6.4,20.4,8.7c0.7,0.2,1.3,0.5,2,0.4c27-5.2,54.4-8.4,81.8-10.9c-3.3,0.6-6.7,0.9-10,1.4 c-21.4,2.9-42.9,6.4-63.8,12.1c15.7,4.3,31.8,7.2,47.9,9.8c30.5,4.7,61.2,7.6,91.9,9.7c31.9,2.1,63.8,3.2,95.7,3.5 c11.9,0.2,23.7-0.2,35.6,0.2c-8.9,0-17.9,0.2-26.8,0.4c-6.3,0.1-12.6-0.1-18.9,0.2c-10.4-0.1-20.8-0.1-31.2-0.3 c-50.3-0.8-100.6-3.3-150.6-9.2c-19.8-2.3-39.6-5.3-59.1-9.3c-5.2,1.7-10.2,4-14.9,6.7c-3-1.8-5.8-4-7.8-6.9 c3.4-1,6.8-1.9,10.2-2.8c-3.9-1-7.8-2-11.6-3.2c-7.2-2.2-14.3-4.7-20.9-8.4c-3.6-2.1-7.3-4.6-9.2-8.4c-1.4-2.9-0.6-6.4,1.5-8.8 c3.6-4.2,8.6-6.7,13.5-8.9c7.6-3.4,15.6-5.8,23.6-7.9C210.3,423.7,232.8,420.3,255.2,417.3z"></path> <path class="st0" d="M159,486.8c6.6,3.7,13.7,6.2,20.9,8.4c-0.5,3.3,1.4,6.5,3.7,8.7c3.9,3.7,8.8,6.1,13.6,8.3 c8.5,3.7,17.5,6.3,26.5,8.6c19.1,4.8,38.5,8,58,10.7c46.4,6.2,93.3,9.1,140.1,10.5c15.8,0.4,31.5,0.6,47.3,0.7 c7.2,0,14.4-0.1,21.5,0.1c-7.3,0.2-14.6,0-21.9,0.3c-30.6,0.4-61.3,0.1-91.9-1c-40.8-1.5-81.6-4.2-122.1-9.3 c-22.1-2.9-44.3-6.3-65.9-11.9c-8.3-2.2-16.5-4.7-24.3-8.2c-4.6-2.1-9.3-4.5-12.8-8.3c-2.2-2.3-3.4-5.8-2.1-8.9 C151.4,491.6,155.3,489,159,486.8z"></path> </g> <g> <path class="st1" d="M283.3,437.5c3.4-0.4,6.8-0.5,10.2-1c-2,0.6-4.1,0.7-6.1,1c-19.9,2.6-39.8,5.8-59.4,10.4 c-8.1,2-16.2,4.2-24.1,7.1c-5,1.9-10,3.9-14.6,6.7c-3-1.8-5.9-4-7.9-6.9c20.4-5.9,41.3-9.5,62.3-12.5 C256.9,440.3,270.1,438.8,283.3,437.5z"></path> <path class="st1" d="M159,463.5c6.6,3.7,13.7,6.2,20.9,8.4c-0.3,2.1,0.3,4.2,1.5,6c2,2.9,4.9,5.1,7.8,6.9 c7.3,4.4,15.5,7.2,23.6,9.7c18.2,5.4,36.8,8.9,55.5,11.8c28.3,4.3,56.8,7.1,85.3,9.1c35,2.4,70,3.6,105.1,3.9 c10.7,0.2,21.4-0.2,32,0.2c-6.9,0.2-13.8-0.1-20.6,0.3c-26.2,0.3-52.5,0.2-78.7-0.5c-40.6-1.1-81.3-3.5-121.7-7.9 c-21.7-2.5-43.4-5.5-64.8-9.9c-8.4-1.8-16.7-3.8-25-6.3c-7.2-2.2-14.3-4.7-20.9-8.4c-3.5-2.1-7.2-4.5-9.1-8.2 c-1.4-2.5-1-5.7,0.7-8C152.7,467.5,155.9,465.4,159,463.5z"></path> </g> </g> <g> <path class="st2" d="M421.9,263.3c-16.1,0-25.5-7-25.5-20.3c0-16.1,15.9-22.5,37.6-24.5v-4.2c0-9.1-5-13.3-14.3-13.3 c-5.8,0-12.1,1.8-16.9,4.2l-2.6-6.8c5.6-2.8,13.1-4.8,20.5-4.8c14.5,0,23.5,6.8,23.5,21.9v43.2C439,261.6,430.8,263.3,421.9,263.3 z M434,224.4c-17.1,2-27,6.8-27,18.5c0,9.1,5.6,14.1,16.1,14.1c4.2,0,8.6-0.8,11.1-2.2v-30.4H434z"></path> <path class="st2" d="M496.9,262.2v-46.3c0-10.1-4.2-15.1-15.1-15.1c-4.6,0-8.4,0.8-11.9,2.2V262h-10.9v-63.6 c6.2-2.8,14.5-4.8,22.9-4.8c18.1,0,26.1,7.8,26.1,22.1V262h-10.9V262.2z"></path> <path class="st2" d="M539,262.7c-9.5,0-16.1-5.8-16.1-16.9v-44h-7.8v-6.8h7.8v-15.5l10.9-3.4v18.9h11.7v6.8h-11.7v44 c0,5.8,2.8,9.3,8.4,9.3c1.2,0,2.4-0.2,3.4-0.4v7C543.8,262.3,541.6,262.7,539,262.7z"></path> <path class="st2" d="M631.1,262.2v-46.7c0-8.8-4-14.5-13.7-14.5c-5.6,0-9.7,2.6-13.1,6.4v55.1h-10.9v-48.7 c0-7.8-4.2-12.9-14.1-12.9c-5.2,0-8.8,0.6-12.5,2.2V262h-10.7v-63.6c6.6-2.8,13.9-4.8,23.1-4.8c10.1,0,15.7,2.8,20.1,7.8 c4.6-4.8,11.3-7.8,19.3-7.8c16.5,0,23.7,8.8,23.7,21.7V262h-10.9V262.2z"></path> <path class="st2" d="M656.8,262.2v-23.9v-20.7v-22.5h6h5v17.1v16.3v33.8h-5.4h-5.6V262.2z"></path> <path class="st2" d="M703.9,263.3c-16.1,0-26.1-14.3-26.1-34.8s9.9-34.8,26.1-34.8c6.2,0,11.5,1.6,15.1,4.4l-2.6,6.6 c-2.6-2-6.6-3.4-10.5-3.4c-10.7,0-16.7,11.5-16.7,27c0,15.1,6.2,27.2,16.7,27.2c4,0,7.8-1.2,10.5-3.2l2.8,6.8 C715.5,261.8,710.1,263.3,703.9,263.3z"></path> <path class="st2" d="M755.8,202.5c-2-0.8-4.4-1.2-6.8-1.2c-3,0-6.2,0.6-8.6,1.8v59.1h-10.9v-63.6c5.8-2.8,13.3-4.8,22.9-4.8 c2.6,0,5.2,0.2,5.8,0.4L755.8,202.5z"></path> <path class="st2" d="M786.5,263.3c-18.1,0-26.5-14.7-26.5-34.8s8.4-34.8,26.5-34.8c18.1,0,26.5,14.7,26.5,34.8 C812.9,248.8,804.6,263.3,786.5,263.3z M786.5,200.7c-11.7,0-15.5,12.5-15.5,27.4c0,14.9,3.8,27.8,15.5,27.8 c11.7,0,15.5-12.7,15.5-27.8C802,213,798.2,200.7,786.5,200.7z"></path> <g> <path class="st2" d="M292.6,229.5h11.5h7c0.6,2.4,2.8,4,5.2,4c3,0,5.4-2.4,5.4-5.4c0-3-2.4-5.6-5.4-5.6c-2.6,0-4.6,1.8-5.2,4.2 H302h-9.3v-8h8.6c0,0,0.8,0,1.2-0.2c0.8-0.6,2.8-2.6,2.8-2.6l5.4-5.4c0.8,0.4,1.6,0.6,2.6,0.6c3,0,5.4-2.4,5.4-5.4 s-2.4-5.4-5.4-5.4c-3,0-5.4,2.4-5.4,5.4c0,1,0.4,2,0.8,3l-6.4,6.4c0,0-0.8,0.8-1.2,0.8c-0.2,0-0.6,0-0.6,0h-7.8v-3.4v-8.8 c3.6-0.6,6.2-3.8,6.2-7.6c0-4.2-3.4-7.8-7.6-7.8c-4.2,0-7.8,3.4-7.8,7.8c0,3.8,2.8,6.8,6.2,7.6V216h-7.6c0,0-0.4,0-0.6,0 c-0.4-0.2-1.2-0.8-1.2-0.8l-6.4-6.4c0.6-0.8,0.8-1.8,0.8-3c0-3-2.4-5.4-5.4-5.4s-5.4,2.4-5.4,5.4s2.4,5.4,5.4,5.4 c1,0,1.8-0.2,2.6-0.6l5.4,5.4c0,0,2,2,2.8,2.6c0.4,0.4,1.2,0.2,1.2,0.2h8.6v5.6v2.4h-8.8h-9.7c-0.6-2.4-2.8-4.2-5.2-4.2 c-3,0-5.4,2.6-5.4,5.6c0,3,2.4,5.4,5.4,5.4c2.6,0,4.6-1.6,5.2-4h9.7h8.8v7.8h-8.6c0,0-0.8,0-1.2,0.2c-0.8,0.6-2.8,2.6-2.8,2.6 l-5.4,5.4c-0.8-0.4-1.6-0.6-2.6-0.6c-3,0-5.4,2.4-5.4,5.4s2.4,5.4,5.4,5.4s5.4-2.4,5.4-5.4c0-1-0.4-2-0.8-3l6.4-6.4 c0,0,0.8-0.8,1.2-0.8c0.2,0,0.6,0,0.6,0h7.8v5.6v6.6c-3.6,0.6-6.2,3.8-6.2,7.6c0,4.2,3.4,7.8,7.8,7.8c4.2,0,7.6-3.4,7.6-7.8 c0-3.8-2.8-6.8-6.2-7.6v-12.1h7.8c0,0,0.4,0,0.6,0c0.4,0.2,1.2,0.8,1.2,0.8l6.4,6.4c-0.6,0.8-0.8,1.8-0.8,3c0,3,2.4,5.4,5.4,5.4 s5.4-2.4,5.4-5.4s-2.4-5.4-5.4-5.4c-1,0-1.8,0.2-2.6,0.6l-5.4-5.4c0,0-2-2-2.8-2.6c-0.4-0.4-1.2-0.2-1.2-0.2h-8.6v-4.6v-3.2 H292.6z M316.5,225.4c1.4,0,2.6,1.2,2.6,2.6s-1.2,2.6-2.6,2.6c-1.4,0-2.6-1.2-2.6-2.6C313.7,226.5,314.9,225.4,316.5,225.4z M313.1,203.1c1.4,0,2.6,1.2,2.6,2.6s-1.2,2.6-2.6,2.6c-1.4,0-2.6-1.2-2.6-2.6C310.5,204.3,311.7,203.1,313.1,203.1z M269.3,208.5c-1.4,0-2.6-1.2-2.6-2.6c0-1.4,1.2-2.6,2.6-2.6c1.4,0,2.6,1.2,2.6,2.6S270.7,208.5,269.3,208.5z M266,230.7 c-1.4,0-2.6-1.2-2.6-2.6c0-1.4,1.2-2.6,2.6-2.6c1.4,0,2.6,1.2,2.6,2.6C268.7,229.5,267.6,230.7,266,230.7z M269.3,253 c-1.4,0-2.6-1.2-2.6-2.6s1.2-2.6,2.6-2.6c1.4,0,2.6,1.2,2.6,2.6C271.9,251.8,270.7,253,269.3,253z M313.1,247.6 c1.4,0,2.6,1.2,2.6,2.6s-1.2,2.6-2.6,2.6c-1.4,0-2.6-1.2-2.6-2.6C310.5,248.8,311.7,247.6,313.1,247.6z M291.2,264.5 c-2.6,0-4.8-2.2-4.8-4.8s2.2-4.8,4.8-4.8s4.8,2.2,4.8,4.8S294,264.5,291.2,264.5z M291.2,191.5c2.6,0,4.8,2.2,4.8,4.8 c0,2.6-2.2,4.8-4.8,4.8s-4.8-2.2-4.8-4.8C286.4,193.7,288.6,191.5,291.2,191.5z"></path> <linearGradient id="SVGID_1_" gradientUnits="userSpaceOnUse" x1="224.395" y1="-1252.0986" x2="224.395" y2="-1165" gradientTransform="matrix(1 0 0 -1 0 -985)"> <stop offset="0" style="stop-color:#2D2E32"></stop> <stop offset="2.350235e-02" style="stop-color:#3E4044"></stop> <stop offset="7.545573e-02" style="stop-color:#5C6268"></stop> <stop offset="0.1331" style="stop-color:#778087"></stop> <stop offset="0.1951" style="stop-color:#8E9AA3"></stop> <stop offset="0.2629" style="stop-color:#A1B0BA"></stop> <stop offset="0.3384" style="stop-color:#B0C3CD"></stop> <stop offset="0.425" style="stop-color:#BCD1DB"></stop> <stop offset="0.5293" style="stop-color:#C4DBE6"></stop> <stop offset="0.6697" style="stop-color:#C9E1EC"></stop> <stop offset="1" style="stop-color:#CAE3EE"></stop> </linearGradient> <path class="st3" d="M241.7,158.7l-28.8,16.7c-3.4,1.8-5.8,5.2-5.8,9.3c0,0.4,0,0.6,0,1v42v1v7.2c7.8,11.1,19.3,20.9,31.8,26.3 c0,0-1-1-1.2-1.2c-0.8-1-1.4-2.2-1.6-3.6c0-0.2,0-1.2,0-1.4v-0.4v-27.4l0,0v-27.8c0-0.2,0-0.4,0-0.6c0-0.8,0.2-1.4,0.4-2 c-0.4-3.2-0.6-6.4-0.6-9.7C235.9,177.6,237.9,167.7,241.7,158.7z"></path> <linearGradient id="SVGID_2_" gradientUnits="userSpaceOnUse" x1="282.8796" y1="-1297.4238" x2="202.1902" y2="-1216.7347" gradientTransform="matrix(1 0 0 -1 0 -985)"> <stop offset="0" style="stop-color:#2D2E32"></stop> <stop offset="2.350235e-02" style="stop-color:#3E4044"></stop> <stop offset="7.545573e-02" style="stop-color:#5C6268"></stop> <stop offset="0.1331" style="stop-color:#778087"></stop> <stop offset="0.1951" style="stop-color:#8E9AA3"></stop> <stop offset="0.2629" style="stop-color:#A1B0BA"></stop> <stop offset="0.3384" style="stop-color:#B0C3CD"></stop> <stop offset="0.425" style="stop-color:#BCD1DB"></stop> <stop offset="0.5293" style="stop-color:#C4DBE6"></stop> <stop offset="0.6697" style="stop-color:#C9E1EC"></stop> <stop offset="1" style="stop-color:#CAE3EE"></stop> </linearGradient> <path class="st4" d="M207.1,235.7v34.8c0,0.4,0,0.6,0,1c0,4,2.4,7.6,5.8,9.3l38,21.9c1.4,0,2.8,0.2,4,0.2 c16.1,0,31-5.4,43.2-14.5l-3,1.8c-1,0.8-2.4,1.2-3.8,1.2c-0.4,0-1,0-1.4-0.2c-0.8-0.2-1.6-0.4-2.4-1l-47.7-27.4 C239.3,262.2,217.4,251,207.1,235.7z"></path> <linearGradient id="SVGID_3_" gradientUnits="userSpaceOnUse" x1="250.8473" y1="-1274.6968" x2="346.7119" y2="-1274.6968" gradientTransform="matrix(1 0 0 -1 0 -985)"> <stop offset="0" style="stop-color:#7E2D2F"></stop> <stop offset="3.716034e-02" style="stop-color:#883031"></stop> <stop offset="0.1348" style="stop-color:#9E3836"></stop> <stop offset="0.2479" style="stop-color:#B13E39"></stop> <stop offset="0.3843" style="stop-color:#BF433C"></stop> <stop offset="0.5679" style="stop-color:#C8463E"></stop> <stop offset="1" style="stop-color:#CA473E"></stop> </linearGradient> <path class="st5" d="M346.1,258c-0.4,1.8-1.6,3.4-3.2,4.4L298,288.2c-13.9,8-27,14.5-43.2,14.5c-1.4,0-2.8,0-4-0.2l34.8,20.1 c1.6,1,3.6,1.6,5.6,1.6c2.2,0,4-0.6,5.8-1.8l34-19.7c0,0,0.6-0.8,0.8-1.4c9-12.1,14.7-30,14.9-46.1 C346.7,255.4,346.3,257.6,346.1,258z"></path> <path class="st2" d="M375.4,184.6c0-3.8-2-7.2-5.2-9H370c0,0-0.2,0-0.2-0.2l-37-21.3c-2.2-1.2-4.4-2-4.4-2s-2-0.8-2.8-0.8 c-13.3,0.4-35,5.8-36.8,13.9c0.2,0,0.8-0.2,0.8-0.2c0.4,0,0.8-0.2,1.4-0.2c1.4,0,2.6,0.4,3.8,1.2l47.7,27.4c0,0,0,0,0.2,0l0,0 c0.6,0.4,1.2,0.8,1.8,1.4c1,1.2,1.6,2.8,1.6,4.4c0,0,0,0,0,0.2l0,0c0,0,0,2.4,0,56.3c0,27.6-15.7,46.9-15.3,46.9 c2.2-1.4,38.8-22.5,38.8-22.5s0.2,0,0.2-0.2h0.2l0,0c3.2-1.8,5.2-5.2,5.2-9C375.4,271.5,375.4,184.8,375.4,184.6z"></path> <linearGradient id="SVGID_4_" gradientUnits="userSpaceOnUse" x1="312.9306" y1="-1126.7333" x2="227.3239" y2="-1173.4281" gradientTransform="matrix(1 0 0 -1 0 -985)"> <stop offset="0" style="stop-color:#2D2E32"></stop> <stop offset="2.350235e-02" style="stop-color:#3E4044"></stop> <stop offset="7.545573e-02" style="stop-color:#5C6268"></stop> <stop offset="0.1331" style="stop-color:#778087"></stop> <stop offset="0.1951" style="stop-color:#8E9AA3"></stop> <stop offset="0.2629" style="stop-color:#A1B0BA"></stop> <stop offset="0.3384" style="stop-color:#B0C3CD"></stop> <stop offset="0.425" style="stop-color:#BCD1DB"></stop> <stop offset="0.5293" style="stop-color:#C4DBE6"></stop> <stop offset="0.6697" style="stop-color:#C9E1EC"></stop> <stop offset="1" style="stop-color:#CAE3EE"></stop> </linearGradient> <path class="st6" d="M239.9,193.5l47.7-27.4c0.6-0.4,23.3-12.3,40.4-12.1c1.8,0,3.4,0,5,0.2l-36-20.7c-1.6-1-3.6-1.8-5.8-1.8 c-2,0-4,0.6-5.6,1.6l-37.8,21.9l-6.2,3.6c-3.8,9-6,18.9-6,29.2c0,3.4,0.2,6.6,0.6,9.7C237.1,195.9,238.3,194.5,239.9,193.5z"></path> </g> </g> </g> </svg> 