<?xml version="1.0" encoding="utf-8"?>
<!-- Generator: Adobe Illustrator 28.2.0, SVG Export Plug-In . SVG Version: 6.00 Build 0)  -->
<svg version="1.1" id="Layer_1" xmlns="http://www.w3.org/2000/svg" xmlns:xlink="http://www.w3.org/1999/xlink" x="0px" y="0px"
	 viewBox="0 0 2000 1200" style="enable-background:new 0 0 2000 1200;" xml:space="preserve">
<style type="text/css">
	.st0{fill:#FFFFFF;}
	.st1{fill:#A55AFF;}
	.st2{fill:url(#SVGID_1_);}
	.st3{fill:#31BAA3;}
	.st4{fill:#0081E2;}
	.st5{fill:url(#SVGID_00000034047222164585637050000017756151370145378980_);}
	.st6{fill:url(#SVGID_00000023995801398291882180000007682262209325675194_);}
	.st7{fill:url(#SVGID_00000026880892678624970810000000523674404731501240_);}
	.st8{fill:url(#SVGID_00000089532770776068889020000002305008304087055545_);}
	.st9{fill:url(#SVGID_00000018237983437527320980000005430078205445668766_);}
	.st10{fill:#203F5B;}
	.st11{fill:url(#SVGID_00000077315356406556371040000010231997552225826236_);}
	.st12{fill:url(#SVGID_00000137850831556813812470000011456209173530666668_);}
	.st13{fill:url(#SVGID_00000101806439190730143470000013472796245807333284_);}
	.st14{fill:url(#SVGID_00000103259685845453956500000008399075958208397968_);}
	.st15{fill:url(#SVGID_00000010307085354478196660000003536940714325237648_);}
	.st16{fill:url(#SVGID_00000145742396469883537560000006707390394419476102_);}
	.st17{fill:url(#SVGID_00000057133749299696765050000016690147375401674904_);}
	.st18{fill:url(#SVGID_00000174571194107320954120000002440203249458644615_);}
	.st19{fill:url(#SVGID_00000126286498872349549940000017263137199978213538_);}
	.st20{fill:url(#SVGID_00000133516638347893911160000003789203775877202332_);}
	.st21{fill:url(#SVGID_00000040573639296700148600000002610551842840682420_);}
	.st22{fill:url(#SVGID_00000152233641439693243850000001045037622017548424_);}
	.st23{fill:url(#SVGID_00000033345263921152285660000011830949039142469781_);}
	.st24{fill:url(#SVGID_00000006699781113226737170000014233338073047070593_);}
	.st25{fill:url(#SVGID_00000020360335271920806590000004498657389025727423_);}
	.st26{fill:url(#SVGID_00000052803207873550942480000010675876809127610018_);}
	.st27{fill:url(#SVGID_00000013903651024385507630000010086481902604445868_);}
	.st28{fill:url(#SVGID_00000041267214572017965840000015909015080334201739_);}
</style>
<g>
	<g>
		<g>
			<g>
				<g>
					<g>
						<g>
							<path class="st1" d="M842.73,406.52c4.27-0.91,8.62-1.37,12.99-1.36l0.74,0l0-0.01l0.73,0.01l2.52,0l-2.52,0l193.3,1.7
								c0.41-46.05-31.57-61.87-46.43-66.73c-3.99-1.29-8.15-1.95-12.34-1.94l-136.01-0.09c-4.36-0.01-8.72,0.45-12.99,1.36
								c-35,7.55-48.06,30.31-52.78,40.06c-2.24,4.59-3.41,9.63-3.41,14.74l0.14,64.13c0.36-4.1,1.46-8.1,3.27-11.81
								C794.67,436.83,807.73,414.08,842.73,406.52z"/>
						</g>
						<g>
							<linearGradient id="SVGID_1_" gradientUnits="userSpaceOnUse" x1="858.7675" y1="372.4883" x2="988.7038" y2="372.4883">
								<stop  offset="0" style="stop-color:#231F20;stop-opacity:0"/>
								<stop  offset="1" style="stop-color:#231F20"/>
							</linearGradient>
							<path class="st2" d="M855.78,405.25l194.72,1.62c0.41-46.05-31.57-61.87-46.43-66.73c-3.99-1.29-8.15-1.95-12.34-1.94
								l-135.95-0.08V405.25z"/>
						</g>
						<g>
							<path class="st3" d="M902.71,573.05c-24.01,0-43.49-19.36-43.7-43.33l-0.02,0.02l0,0l-2.53-124.58l-0.74,0
								c-4.36-0.01-8.72,0.45-12.99,1.36c-35,7.55-48.06,30.31-52.78,40.06c-1.81,3.71-2.91,7.72-3.27,11.81l0.19,86.75
								c1.34,19.85,7.94,33.75,16.69,43.49l0,0c0,0,0,0,0,0c0.62,0.69,1.25,1.36,1.9,2.01c0.01,0.01,0.03,0.03,0.04,0.04
								c1.95,1.97,3.98,3.75,6.07,5.36c0,0,0,0,0,0c4.19,3.23,8.62,5.78,13.03,7.79c0,0,0,0,0.01,0c2.2,1,4.39,1.87,6.55,2.63
								c0.01,0,0.02,0.01,0.03,0.01c2.15,0.75,4.26,1.38,6.3,1.92c0.03,0.01,0.06,0.01,0.08,0.02c0.65,0.17,1.29,0.33,1.93,0.48
								c0.03,0.01,0.06,0.02,0.1,0.02c1.31,0.31,2.59,0.58,3.83,0.82c0.04,0.01,0.09,0.02,0.13,0.02c0.56,0.11,1.11,0.2,1.65,0.3
								c0.07,0.01,0.14,0.02,0.21,0.04c1.17,0.2,2.29,0.36,3.36,0.5c0.06,0.01,0.11,0.01,0.17,0.02c0.46,0.06,0.91,0.11,1.35,0.16
								c0.09,0.01,0.19,0.02,0.28,0.03c0.46,0.05,0.91,0.1,1.34,0.14c0.02,0,0.05,0,0.07,0.01c0.47,0.04,0.92,0.08,1.36,0.12
								c0.07,0.01,0.13,0.01,0.19,0.01c0.36,0.03,0.7,0.05,1.03,0.07c0.1,0.01,0.19,0.01,0.29,0.02c0.32,0.02,0.64,0.04,0.94,0.05
								c0.05,0,0.11,0.01,0.17,0.01c0.35,0.02,0.69,0.03,1.01,0.04c0.05,0,0.09,0,0.14,0c0.26,0.01,0.51,0.02,0.75,0.02
								c0.08,0,0.15,0,0.22,0c0.22,0,0.42,0.01,0.61,0.01c0.04,0,0.09,0,0.13,0c0.9,0.01,1.48-0.01,1.7-0.02c0.01,0,0.02,0,0.03,0
								c0.02,0,0.04,0,0.05,0c0,0,0,0,0,0l0.03,0c30.68,3.14,68.65-46.21,68.65-46.21l4.97-5.54
								C926.31,567.87,915.12,573.05,902.71,573.05z"/>
						</g>
						<path class="st4" d="M1050.49,406.87v-0.94c0-0.48,0-0.96-0.01-1.43v-0.26c0-0.18-0.01-0.36-0.02-0.54
							c-0.01-0.21-0.01-0.42-0.02-0.62c0-0.01,0-0.03,0-0.04c0-0.08-0.01-0.17-0.01-0.25c0-0.01,0-0.02,0-0.03
							c0-0.11,0-0.22-0.01-0.33c0-0.18-0.01-0.37-0.02-0.56c-0.01-0.11-0.02-0.22-0.02-0.32c-0.02-0.42-0.04-0.83-0.07-1.25
							c-0.01-0.2-0.02-0.41-0.03-0.62c-0.02-0.18-0.03-0.36-0.04-0.54c-0.02-0.17-0.03-0.33-0.04-0.5
							c-0.03-0.37-0.06-0.72-0.09-1.07c-0.17-1.92-0.42-3.78-0.72-5.59c-0.08-0.48-0.17-0.97-0.26-1.45
							c-0.02-0.14-0.04-0.28-0.07-0.42c-0.02-0.11-0.04-0.22-0.06-0.32c-0.05-0.26-0.1-0.51-0.16-0.76
							c-0.1-0.51-0.21-1.02-0.32-1.52c-0.12-0.54-0.25-1.07-0.38-1.59c-0.02-0.1-0.04-0.2-0.07-0.3c-0.16-0.63-0.33-1.25-0.51-1.87
							c-0.17-0.64-0.37-1.27-0.57-1.9c-0.14-0.46-0.29-0.91-0.45-1.36c-0.05-0.16-0.1-0.31-0.16-0.46
							c-0.05-0.15-0.11-0.31-0.16-0.46c-0.05-0.14-0.1-0.28-0.16-0.42c-0.11-0.3-0.22-0.6-0.33-0.89c-0.02-0.07-0.05-0.12-0.07-0.19
							c-0.11-0.28-0.22-0.57-0.33-0.84c-0.44-1.12-0.92-2.2-1.42-3.26c-0.17-0.37-0.35-0.74-0.53-1.11
							c-0.08-0.17-0.17-0.35-0.27-0.52c-0.17-0.37-0.37-0.72-0.56-1.08c-0.17-0.31-0.32-0.61-0.49-0.91
							c-0.03-0.07-0.07-0.13-0.12-0.19c-0.22-0.41-0.45-0.81-0.68-1.2c-0.4-0.68-0.81-1.35-1.23-2c-0.17-0.26-0.33-0.52-0.5-0.77
							c-0.36-0.53-0.72-1.05-1.08-1.56c-0.21-0.3-0.42-0.58-0.63-0.87c-0.4-0.55-0.82-1.09-1.24-1.62c-0.1-0.13-0.21-0.26-0.31-0.38
							c-0.23-0.3-0.48-0.6-0.73-0.9c-0.16-0.18-0.32-0.36-0.47-0.54c-0.16-0.18-0.32-0.37-0.48-0.55c-0.14-0.17-0.28-0.32-0.42-0.48
							c-0.2-0.22-0.41-0.45-0.62-0.67c-0.83-0.91-1.68-1.77-2.55-2.61c-0.32-0.29-0.62-0.59-0.94-0.88
							c-1.23-1.13-2.48-2.19-3.74-3.18c-0.5-0.4-1.01-0.78-1.52-1.16c-1.01-0.76-2.02-1.47-3.03-2.12c-0.5-0.34-1.01-0.66-1.51-0.97
							c-0.5-0.32-1-0.62-1.5-0.92c-0.4-0.23-0.79-0.46-1.18-0.68c-0.6-0.34-1.19-0.67-1.77-0.97c-0.49-0.25-0.97-0.5-1.45-0.74
							c-0.96-0.49-1.9-0.93-2.81-1.34c-1.37-0.62-2.7-1.17-3.94-1.64c-0.42-0.16-0.82-0.32-1.22-0.46
							c-0.28-0.11-0.57-0.21-0.85-0.31c-0.49-0.17-0.97-0.33-1.43-0.48c-3.99-1.29-8.15-1.95-12.34-1.94l-27.23-0.02l-0.29-0.05
							l-35.32-0.03c0.75,0,1.49,0.02,2.23,0.05c25.33,1.17,45.5,22.07,45.5,47.69c0,7.27-1.62,14.17-4.54,20.34v0.01
							c-1.94,4.1-4.43,7.88-7.4,11.23l-105.67,112.3c0.2,23.97,19.69,43.33,43.7,43.33c12.41,0,23.6-5.18,31.55-13.48l97.44-108.58
							c6.82-6,12.03-16.04,15.2-23.42c2.34-5.47,3.56-11.37,3.61-17.32l0.02-3.38H1050.49z"/>
						
							<linearGradient id="SVGID_00000140700000283868014080000005240987673912023223_" gradientUnits="userSpaceOnUse" x1="980.4379" y1="457.6707" x2="844.2511" y2="593.8575">
							<stop  offset="0" style="stop-color:#231F20;stop-opacity:0"/>
							<stop  offset="1" style="stop-color:#000000"/>
						</linearGradient>
						<path style="fill:url(#SVGID_00000140700000283868014080000005240987673912023223_);" d="M980.38,439.51
							c-6.8-5.66-13.49-11.5-19.9-17.62L859.02,529.72c0.2,23.97,19.69,43.33,43.7,43.33c12.41,0,23.6-5.18,31.55-13.48l82.26-91.66
							C1004.12,458.81,992.07,449.24,980.38,439.51z"/>
						<g>
							
								<linearGradient id="SVGID_00000165230950944870766950000002821756793301111951_" gradientUnits="userSpaceOnUse" x1="822.3857" y1="496.8393" x2="822.3857" y2="398.6533">
								<stop  offset="0" style="stop-color:#231F20;stop-opacity:0"/>
								<stop  offset="1" style="stop-color:#000000"/>
							</linearGradient>
							<path style="fill:url(#SVGID_00000165230950944870766950000002821756793301111951_);" d="M858.08,516.67l-1.62-111.5l-0.74,0
								c-4.36-0.01-8.72,0.45-12.99,1.36c-35,7.55-48.06,30.31-52.78,40.06c-1.81,3.71-2.91,7.72-3.27,11.81l0.06,58.27H858.08z"/>
						</g>
					</g>
					<g>
						<g>
							<path class="st1" d="M1155.23,614.91c-4.42,0.94-8.93,1.42-13.46,1.41l-0.77,0l0,0.01l-0.75-0.01l-2.61,0l2.61,0
								l-200.31-1.76c-0.42,47.72,32.71,64.12,48.11,69.15c4.13,1.34,8.45,2.02,12.79,2.01l140.94,0.09
								c4.52,0.01,9.03-0.47,13.46-1.41c36.27-7.83,49.8-31.41,54.69-41.51c2.32-4.76,3.53-9.98,3.53-15.28l-0.15-66.46
								c-0.37,4.25-1.51,8.4-3.39,12.24C1205.03,583.5,1191.5,607.08,1155.23,614.91z"/>
						</g>
						<g>
							
								<linearGradient id="SVGID_00000054242131460620495730000004358042845147676553_" gradientUnits="userSpaceOnUse" x1="10597.7607" y1="3660.7107" x2="10732.4092" y2="3660.7107" gradientTransform="matrix(-1 0 0 -1 11736.375 4310.8921)">
								<stop  offset="0" style="stop-color:#231F20;stop-opacity:0"/>
								<stop  offset="1" style="stop-color:#231F20"/>
							</linearGradient>
							<path style="fill:url(#SVGID_00000054242131460620495730000004358042845147676553_);" d="M1141.71,616.23l-201.78-1.68
								c-0.42,47.72,32.71,64.12,48.11,69.15c4.13,1.34,8.45,2.02,12.79,2.01l140.88,0.09V616.23z"/>
						</g>
						<g>
							<path class="st3" d="M1093.07,442.35c24.88,0,45.07,20.07,45.29,44.9l0.02-0.03l0,0l2.62,129.1l0.77,0
								c4.52,0.01,9.03-0.47,13.46-1.41c36.27-7.83,49.8-31.41,54.69-41.51c1.88-3.85,3.01-8,3.39-12.24l-0.2-89.9
								c-1.38-20.57-8.23-34.97-17.3-45.07l0,0c0,0,0,0,0,0c-0.64-0.72-1.3-1.41-1.97-2.09c-0.01-0.01-0.03-0.03-0.04-0.04
								c-2.02-2.04-4.12-3.88-6.29-5.55c0,0,0,0,0,0c-4.35-3.35-8.93-5.99-13.5-8.08c0,0,0,0-0.01,0c-2.28-1.04-4.55-1.94-6.79-2.72
								c-0.01,0-0.02-0.01-0.03-0.01c-2.22-0.78-4.41-1.43-6.53-1.99c-0.03-0.01-0.06-0.01-0.09-0.02c-0.67-0.18-1.34-0.34-2-0.5
								c-0.03-0.01-0.07-0.02-0.1-0.02c-1.36-0.32-2.69-0.6-3.97-0.85c-0.05-0.01-0.09-0.02-0.14-0.03
								c-0.58-0.11-1.15-0.21-1.71-0.31c-0.07-0.01-0.15-0.03-0.22-0.04c-1.21-0.2-2.37-0.37-3.48-0.52
								c-0.06-0.01-0.12-0.01-0.18-0.02c-0.48-0.06-0.94-0.12-1.4-0.17c-0.1-0.01-0.19-0.02-0.29-0.03
								c-0.47-0.05-0.94-0.1-1.39-0.14c-0.02,0-0.05-0.01-0.08-0.01c-0.49-0.05-0.96-0.09-1.41-0.12c-0.07-0.01-0.13-0.01-0.2-0.01
								c-0.37-0.03-0.73-0.05-1.07-0.08c-0.1-0.01-0.2-0.01-0.3-0.02c-0.34-0.02-0.66-0.04-0.97-0.05c-0.06,0-0.12-0.01-0.17-0.01
								c-0.37-0.02-0.72-0.03-1.05-0.04c-0.05,0-0.09,0-0.14,0c-0.27-0.01-0.53-0.02-0.78-0.02c-0.08,0-0.15,0-0.23,0
								c-0.22,0-0.43-0.01-0.63-0.01c-0.04,0-0.09,0-0.13,0c-0.93-0.01-1.53,0.01-1.76,0.02c-0.01,0-0.02,0-0.03,0
								c-0.03,0-0.04,0-0.05,0c0,0,0,0,0,0l-0.03,0c-31.79-3.26-71.14,47.88-71.14,47.88l-5.15,5.74
								C1068.62,447.72,1080.21,442.35,1093.07,442.35z"/>
						</g>
						<path class="st4" d="M939.94,614.56v0.98c0,0.5,0,0.99,0.01,1.48v0.27c0,0.19,0.01,0.37,0.02,0.56
							c0.01,0.22,0.01,0.43,0.02,0.64c0,0.01,0,0.03,0,0.04c0,0.09,0.01,0.17,0.01,0.26c0,0.01,0,0.02,0,0.03
							c0,0.11,0,0.23,0.01,0.35c0,0.19,0.01,0.39,0.02,0.58c0.01,0.11,0.02,0.22,0.02,0.33c0.02,0.43,0.04,0.86,0.08,1.29
							c0.01,0.21,0.02,0.42,0.03,0.64c0.02,0.19,0.03,0.37,0.04,0.56c0.02,0.17,0.03,0.35,0.04,0.52c0.03,0.38,0.06,0.75,0.09,1.11
							c0.18,1.99,0.43,3.92,0.74,5.79c0.09,0.5,0.17,1,0.27,1.5c0.02,0.15,0.04,0.29,0.08,0.44c0.02,0.11,0.04,0.22,0.06,0.33
							c0.05,0.27,0.1,0.53,0.16,0.79c0.1,0.53,0.22,1.05,0.34,1.58c0.12,0.56,0.26,1.1,0.4,1.65c0.02,0.1,0.04,0.21,0.08,0.31
							c0.16,0.66,0.35,1.29,0.53,1.93c0.18,0.66,0.38,1.32,0.6,1.97c0.15,0.47,0.3,0.94,0.47,1.41c0.05,0.16,0.1,0.32,0.16,0.47
							c0.05,0.16,0.11,0.32,0.16,0.47c0.05,0.15,0.1,0.29,0.16,0.44c0.11,0.31,0.23,0.62,0.35,0.92c0.03,0.07,0.05,0.13,0.08,0.2
							c0.11,0.29,0.22,0.59,0.35,0.87c0.46,1.16,0.95,2.28,1.48,3.37c0.18,0.39,0.36,0.77,0.55,1.15c0.09,0.18,0.18,0.36,0.28,0.54
							c0.18,0.38,0.38,0.75,0.58,1.12c0.17,0.32,0.34,0.63,0.51,0.94c0.03,0.07,0.07,0.14,0.12,0.2c0.22,0.42,0.47,0.84,0.71,1.24
							c0.41,0.71,0.84,1.4,1.28,2.07c0.17,0.27,0.35,0.54,0.52,0.8c0.37,0.55,0.74,1.09,1.12,1.61c0.22,0.31,0.43,0.6,0.66,0.91
							c0.41,0.57,0.85,1.13,1.29,1.68c0.1,0.14,0.22,0.27,0.32,0.4c0.24,0.31,0.5,0.62,0.76,0.93c0.16,0.19,0.33,0.37,0.49,0.56
							c0.16,0.19,0.33,0.38,0.49,0.57c0.15,0.17,0.29,0.34,0.44,0.5c0.21,0.23,0.42,0.47,0.64,0.7c0.86,0.94,1.74,1.84,2.64,2.7
							c0.33,0.3,0.65,0.61,0.98,0.91c1.28,1.17,2.57,2.27,3.87,3.3c0.52,0.41,1.04,0.81,1.57,1.2c1.04,0.79,2.1,1.52,3.14,2.2
							c0.52,0.35,1.04,0.68,1.56,1.01c0.52,0.33,1.04,0.64,1.55,0.95c0.41,0.24,0.82,0.47,1.23,0.71c0.62,0.35,1.23,0.69,1.84,1.01
							c0.51,0.26,1.01,0.52,1.5,0.77c0.99,0.51,1.97,0.97,2.92,1.39c1.42,0.65,2.8,1.21,4.08,1.7c0.43,0.16,0.85,0.33,1.27,0.47
							c0.29,0.11,0.6,0.22,0.88,0.32c0.51,0.18,1.01,0.35,1.48,0.5c4.13,1.34,8.45,2.02,12.79,2.01l28.22,0.02l0.3,0.05l36.6,0.03
							c-0.78,0-1.54-0.02-2.31-0.05c-26.24-1.21-47.15-22.87-47.15-49.41c0-7.53,1.68-14.68,4.7-21.07v-0.01
							c2.01-4.25,4.59-8.16,7.66-11.64l109.5-116.37c-0.21-24.84-20.4-44.9-45.28-44.9c-12.86,0-24.46,5.37-32.7,13.97
							L959.41,568.84c-7.07,6.21-12.46,16.62-15.75,24.27c-2.42,5.67-3.69,11.78-3.74,17.95l-0.03,3.5H939.94z"/>
						
							<linearGradient id="SVGID_00000062178470392968445850000015033071998941237120_" gradientUnits="userSpaceOnUse" x1="10723.8428" y1="3748.9819" x2="10582.7178" y2="3890.1069" gradientTransform="matrix(-1 0 0 -1 11736.375 4310.8921)">
							<stop  offset="0" style="stop-color:#231F20;stop-opacity:0"/>
							<stop  offset="1" style="stop-color:#000000"/>
						</linearGradient>
						<path style="fill:url(#SVGID_00000062178470392968445850000015033071998941237120_);" d="M1012.59,580.73
							c7.04,5.87,13.98,11.92,20.62,18.26l105.15-111.74c-0.21-24.84-20.4-44.9-45.28-44.9c-12.86,0-24.46,5.37-32.7,13.97
							l-85.24,94.99C987.99,560.73,1000.48,570.65,1012.59,580.73z"/>
						<g>
							
								<linearGradient id="SVGID_00000013887495175610905480000006710959942561846186_" gradientUnits="userSpaceOnUse" x1="10560.0596" y1="3789.5708" x2="10560.0596" y2="3687.8245" gradientTransform="matrix(-1 0 0 -1 11736.375 4310.8921)">
								<stop  offset="0" style="stop-color:#231F20;stop-opacity:0"/>
								<stop  offset="1" style="stop-color:#000000"/>
							</linearGradient>
							<path style="fill:url(#SVGID_00000013887495175610905480000006710959942561846186_);" d="M1139.32,500.77l1.68,115.55l0.77,0
								c4.52,0.01,9.03-0.47,13.46-1.41c36.27-7.83,49.8-31.41,54.69-41.51c1.88-3.85,3.01-8,3.39-12.24l-0.06-60.38H1139.32z"/>
						</g>
					</g>
				</g>
			</g>
		</g>
	</g>
	<g>
		<g>
			<path class="st10" d="M568.26,730.5h26.9c1.04,0.12,2.05,0.17,3.04,0.17c0.98,0,1.94,0.06,2.86,0.17
				c8.56,0.23,17.01,1.3,25.34,3.21c8.33,1.91,15.85,5.76,22.57,11.54c5.9,4.98,10.67,11.08,14.32,18.31
				c3.65,7.23,5.99,14.73,7.03,22.48c0.23,1.51,0.4,3.01,0.52,4.51c0.11,1.51,0.17,3.01,0.17,4.51c0,1.27-0.03,2.55-0.09,3.82
				c-0.06,1.28-0.2,2.55-0.43,3.82c-0.93,7.75-3.27,15.27-7.03,22.57c-3.76,7.29-8.59,13.48-14.49,18.57
				c-7.75,6.6-16.12,10.68-25.08,12.24c-8.97,1.56-18.37,2.34-28.21,2.34h-27.43V730.5z M594.99,835.69
				c6.71,0.12,13.13-0.26,19.27-1.13c6.13-0.87,11.98-3.32,17.53-7.38c4.97-3.82,8.79-8.51,11.46-14.06
				c2.66-5.55,3.99-11.46,3.99-17.71c0-6.71-1.45-13.1-4.34-19.18c-2.89-6.08-7.12-11.02-12.67-14.84
				c-4.17-2.89-8.65-4.83-13.45-5.81c-4.8-0.98-9.69-1.53-14.67-1.65c-1.39-0.11-2.78-0.17-4.17-0.17c-1.39,0-2.78,0-4.17,0h-1.74
				v81.93H594.99z"/>
			<path class="st10" d="M707.64,820.93c1.74,5.67,4.95,10.18,9.63,13.54c4.69,3.36,9.92,5.03,15.71,5.03
				c4.4,0,8.53-0.75,12.41-2.26c3.88-1.5,6.91-3.53,9.11-6.08l25.52-0.17c-2.89,8.68-8.77,16-17.62,21.96
				c-8.85,5.96-18.37,8.94-28.55,8.94c-14,0-25.95-4.89-35.84-14.67c-9.89-9.78-14.84-21.67-14.84-35.67
				c0-14.23,4.92-26.44,14.75-36.62c9.83-10.18,21.93-15.28,36.28-15.28c13.77,0,25.43,5.05,34.98,15.14
				c9.55,10.1,14.32,21.84,14.32,35.22c0,1.5-0.09,2.97-0.26,4.42c-0.17,1.44-0.38,2.86-0.61,4.24c-0.12,0.46-0.2,0.87-0.26,1.22
				c-0.06,0.35-0.09,0.69-0.09,1.04H707.64z M760.24,800.45c-1.85-5.67-5.21-10.12-10.07-13.37c-4.86-3.24-10.24-4.86-16.14-4.86
				c-0.23,0-0.46,0-0.69,0c-0.23,0-0.46,0-0.69,0c-5.55,0.34-10.76,2.15-15.62,5.42c-4.86,3.27-8.1,7.54-9.72,12.81H760.24z"/>
			<path class="st10" d="M798.42,730.5h23.09v128.27h-23.09V730.5z"/>
			<path class="st10" d="M887.81,759.49c14.12,0.12,26.04,5.24,35.76,15.36c9.72,10.13,14.58,22.19,14.58,36.19
				c0,14.23-5.03,26.27-15.1,36.1c-10.07,9.84-22.16,14.75-36.28,14.75c-13.89,0-25.84-4.97-35.84-14.93
				c-10.01-9.95-15.01-21.93-15.01-35.93c0-14.46,5.06-26.64,15.19-36.54c10.12-9.89,22.36-14.84,36.71-14.84V759.49z
				 M884.69,782.31c-0.69,0.06-1.39,0.15-2.08,0.26c-2.89,0.58-5.73,1.62-8.51,3.12c-2.78,1.51-5.15,3.3-7.12,5.38
				c-2.66,2.66-4.66,5.7-5.99,9.11c-1.33,3.41-2,7.03-2,10.85c0,7.75,2.66,14.44,7.98,20.05c5.32,5.61,11.92,8.42,19.79,8.42
				c8.21,0,14.98-2.73,20.31-8.18c5.32-5.45,7.98-12.25,7.98-20.37c0-7.89-2.72-14.68-8.16-20.37c-5.44-5.69-12.15-8.53-20.14-8.53
				C886.08,782.17,885.38,782.26,884.69,782.31z"/>
			<path class="st10" d="M989.53,789c-0.35-2.2-1.36-3.88-3.04-5.03c-1.68-1.16-3.62-1.74-5.81-1.74c-2.55,0-4.69,0.67-6.42,2
				c-1.74,1.33-2.6,3.33-2.6,5.99v0.17c-0.12,2.2,0.69,3.91,2.43,5.12c1.74,1.21,3.59,2.17,5.55,2.86c0.92,0.23,1.82,0.46,2.69,0.69
				c0.87,0.23,1.65,0.46,2.34,0.69c7.75,2.32,14.69,5.35,20.83,9.11c6.13,3.76,9.2,10.44,9.2,20.05c0,4.51-0.81,8.71-2.43,12.58
				c-1.62,3.88-4.05,7.38-7.29,10.5c-2.55,2.32-5.53,4.28-8.94,5.9c-3.41,1.62-6.92,2.78-10.5,3.47c-0.93,0.11-1.85,0.23-2.78,0.35
				c-0.93,0.11-1.85,0.17-2.78,0.17c-9.84,0-18.02-3.07-24.56-9.2c-6.54-6.13-9.98-14.12-10.33-23.95h23.61
				c0.58,3.12,1.91,5.73,3.99,7.81c2.08,2.08,4.8,3.12,8.16,3.12c2.78,0,5.26-0.78,7.46-2.34c2.2-1.56,3.3-3.85,3.3-6.86
				c0-2.9-1.07-5.13-3.21-6.69c-2.14-1.57-4.54-2.82-7.2-3.74c-1.04-0.46-2.06-0.84-3.04-1.13c-0.98-0.29-1.94-0.61-2.86-0.96
				c-0.81-0.23-1.56-0.46-2.26-0.69c-0.69-0.23-1.39-0.46-2.08-0.7c-1.27-0.46-2.49-0.93-3.65-1.39c-1.16-0.46-2.32-0.99-3.47-1.57
				c-0.93-0.46-1.88-1.01-2.86-1.65c-0.98-0.64-2-1.42-3.04-2.35c-3.12-2.67-5.47-5.68-7.03-9.05c-1.56-3.36-2.34-7.08-2.34-11.14
				c0-8.93,3.3-16.13,9.89-21.58c6.6-5.45,14.12-8.18,22.57-8.18c7.98,0,15.16,2.85,21.52,8.54c6.36,5.7,9.55,12.63,9.55,20.79
				H989.53z"/>
			<path class="st10" d="M1048.66,730.5h26.9c1.04,0.12,2.05,0.17,3.04,0.17c0.98,0,1.94,0.06,2.86,0.17
				c8.56,0.23,17.01,1.3,25.34,3.21c8.33,1.91,15.85,5.76,22.57,11.54c5.9,4.98,10.67,11.08,14.32,18.31
				c3.65,7.23,5.99,14.73,7.03,22.48c0.23,1.51,0.4,3.01,0.52,4.51c0.11,1.51,0.17,3.01,0.17,4.51c0,1.27-0.03,2.55-0.09,3.82
				c-0.06,1.28-0.2,2.55-0.43,3.82c-0.93,7.75-3.27,15.27-7.03,22.57c-3.76,7.29-8.59,13.48-14.49,18.57
				c-7.75,6.6-16.12,10.68-25.08,12.24c-8.97,1.56-18.37,2.34-28.21,2.34h-27.43V730.5z M1075.39,835.69
				c6.71,0.12,13.13-0.26,19.27-1.13c6.13-0.87,11.98-3.32,17.53-7.38c4.97-3.82,8.79-8.51,11.46-14.06
				c2.66-5.55,3.99-11.46,3.99-17.71c0-6.71-1.45-13.1-4.34-19.18c-2.89-6.08-7.12-11.02-12.67-14.84
				c-4.17-2.89-8.65-4.83-13.45-5.81c-4.8-0.98-9.69-1.53-14.67-1.65c-1.39-0.11-2.78-0.17-4.17-0.17c-1.39,0-2.78,0-4.17,0h-1.74
				v81.93H1075.39z"/>
			<path class="st10" d="M1265.11,858.77h-21.18v-13.02h-0.35c-2.89,4.17-6.71,7.58-11.46,10.24c-4.75,2.66-9.66,4.45-14.75,5.38
				c-1.04,0.11-2.11,0.23-3.21,0.35c-1.1,0.11-2.17,0.17-3.21,0.17c-7.41,0-14.12-1.42-20.14-4.25
				c-6.02-2.83-11.11-6.74-15.28-11.72c-3.82-4.63-6.77-9.95-8.85-15.97c-2.08-6.02-3.12-12.38-3.12-19.09
				c0-6.71,0.95-12.9,2.86-18.57c1.91-5.67,5.06-10.99,9.46-15.97c4.86-5.67,10.27-9.86,16.23-12.58
				c5.96-2.72,12.47-4.08,19.53-4.08c6.6,0,12.67,1.42,18.23,4.25c5.56,2.84,10.24,6.97,14.06,12.41v-13.71h21.18V858.77z
				 M1243.24,810.52c0-7.98-2.58-14.72-7.72-20.22c-5.15-5.49-11.83-8.18-20.05-8.07c-8.45-0.11-15.36,2.66-20.74,8.33
				c-5.38,5.67-8.07,12.73-8.07,21.18c0,7.87,2.8,14.49,8.42,19.88c5.61,5.38,12.29,8.01,20.05,7.9c8.33,0.12,15.1-2.6,20.31-8.16
				c5.21-5.55,7.81-12.44,7.81-20.66V810.52z"/>
			<path class="st10" d="M1285.76,783.09h-11.28v-20.48h11.28V730.5h23.09v32.11h13.89v20.48h-13.89v75.68h-23.09V783.09z"/>
			<path class="st10" d="M1431.74,858.77h-21.18v-13.02h-0.35c-2.89,4.17-6.71,7.58-11.46,10.24c-4.75,2.66-9.66,4.45-14.75,5.38
				c-1.04,0.11-2.11,0.23-3.21,0.35c-1.1,0.11-2.17,0.17-3.21,0.17c-7.41,0-14.12-1.42-20.13-4.25
				c-6.02-2.83-11.11-6.74-15.28-11.72c-3.82-4.63-6.77-9.95-8.85-15.97c-2.08-6.02-3.12-12.38-3.12-19.09
				c0-6.71,0.95-12.9,2.86-18.57c1.91-5.67,5.06-10.99,9.46-15.97c4.86-5.67,10.27-9.86,16.23-12.58
				c5.96-2.72,12.47-4.08,19.53-4.08c6.6,0,12.67,1.42,18.23,4.25c5.56,2.84,10.24,6.97,14.06,12.41v-13.71h21.18V858.77z
				 M1409.87,810.52c0-7.98-2.58-14.72-7.72-20.22c-5.15-5.49-11.83-8.18-20.05-8.07c-8.45-0.11-15.36,2.66-20.74,8.33
				c-5.38,5.67-8.07,12.73-8.07,21.18c0,7.87,2.8,14.49,8.42,19.88c5.61,5.38,12.3,8.01,20.05,7.9c8.33,0.12,15.1-2.6,20.31-8.16
				c5.21-5.55,7.81-12.44,7.81-20.66V810.52z"/>
		</g>
	</g>
</g>
</svg>
