<svg width="1127" height="584" viewBox="0 0 1127 584" fill="none" xmlns="http://www.w3.org/2000/svg">
<rect width="1127" height="584" fill="#332D37"/>
<rect x="303.373" y="326.373" width="140.025" height="86.2544" stroke="white" stroke-width="2.74558"/>
<rect x="303.373" y="438.373" width="140.025" height="86.2544" stroke="white" stroke-width="2.74558" stroke-dasharray="10 10"/>
<rect x="303.373" y="106.373" width="140.025" height="87.2544" stroke="white" stroke-width="2.74558"/>
<rect x="684.74" y="206.373" width="140.025" height="102.254" stroke="#00AF91" stroke-width="2.74558"/>
<rect x="303.373" y="216.373" width="140.025" height="87.2544" stroke="white" stroke-width="2.74558"/>
<path d="M333.397 71.16C333.397 74.1 335.457 76.24 338.397 76.24C340.277 76.24 341.417 75.44 342.097 74.52L340.717 73.24C340.177 73.98 339.437 74.38 338.497 74.38C336.737 74.38 335.577 73.04 335.577 71.16C335.577 69.28 336.737 67.96 338.497 67.96C339.437 67.96 340.177 68.34 340.717 69.1L342.097 67.82C341.417 66.9 340.277 66.1 338.397 66.1C335.457 66.1 333.397 68.24 333.397 71.16ZM349.838 76H351.938V69.6C351.938 67 350.058 66.1 347.918 66.1C346.378 66.1 344.978 66.6 343.858 67.66L344.718 69.12C345.558 68.3 346.498 67.9 347.578 67.9C348.918 67.9 349.838 68.58 349.838 69.7V71.14C349.138 70.32 348.018 69.9 346.718 69.9C345.138 69.9 343.358 70.82 343.358 73.04C343.358 75.18 345.138 76.24 346.718 76.24C347.998 76.24 349.118 75.78 349.838 74.96V76ZM349.838 73.8C349.358 74.46 348.458 74.8 347.538 74.8C346.358 74.8 345.478 74.12 345.478 73.08C345.478 72.02 346.358 71.34 347.538 71.34C348.458 71.34 349.358 71.68 349.838 72.34V73.8ZM354.661 76H356.761V62.66H354.661V76ZM359.485 76H361.585V62.66H359.485V76ZM368.606 74.74C369.606 75.72 371.106 76.24 372.746 76.24C375.346 76.24 376.766 74.94 376.766 73.24C376.766 70.96 374.706 70.48 373.026 70.12C371.886 69.86 370.926 69.6 370.926 68.86C370.926 68.18 371.626 67.78 372.726 67.78C373.926 67.78 375.006 68.28 375.586 68.94L376.466 67.46C375.586 66.68 374.346 66.1 372.706 66.1C370.266 66.1 368.906 67.46 368.906 69.04C368.906 71.2 370.886 71.64 372.546 72C373.726 72.26 374.746 72.56 374.746 73.4C374.746 74.12 374.106 74.58 372.846 74.58C371.586 74.58 370.246 73.92 369.566 73.22L368.606 74.74ZM381.78 76.24C382.76 76.24 383.38 75.98 383.76 75.62L383.26 74.04C383.1 74.22 382.72 74.38 382.32 74.38C381.72 74.38 381.4 73.9 381.4 73.24V68.18L383.36 68.18V66.34L381.4 66.34V63.7H379.3V66.34H377.7V68.18H379.3V73.76C379.3 75.36 380.16 76.24 381.78 76.24ZM391.167 76H393.267V69.6C393.267 67 391.387 66.1 389.247 66.1C387.707 66.1 386.307 66.6 385.187 67.66L386.047 69.12C386.887 68.3 387.827 67.9 388.907 67.9C390.247 67.9 391.167 68.58 391.167 69.7V71.14C390.467 70.32 389.347 69.9 388.047 69.9C386.467 69.9 384.687 70.82 384.687 73.04C384.687 75.18 386.467 76.24 388.047 76.24C389.327 76.24 390.447 75.78 391.167 74.96V76ZM391.167 73.8C390.687 74.46 389.787 74.8 388.867 74.8C387.687 74.8 386.807 74.12 386.807 73.08C386.807 72.02 387.687 71.34 388.867 71.34C389.787 71.34 390.687 71.68 391.167 72.34V73.8ZM395.389 71.16C395.389 74.1 397.449 76.24 400.389 76.24C402.269 76.24 403.409 75.44 404.089 74.52L402.709 73.24C402.169 73.98 401.429 74.38 400.489 74.38C398.729 74.38 397.569 73.04 397.569 71.16C397.569 69.28 398.729 67.96 400.489 67.96C401.429 67.96 402.169 68.34 402.709 69.1L404.089 67.82C403.409 66.9 402.269 66.1 400.389 66.1C397.449 66.1 395.389 68.24 395.389 71.16ZM412.331 76H414.971L410.871 70.72L414.891 66.34H412.291L408.031 71V62.66H405.931V76H408.031V73.4L409.371 72.02L412.331 76Z" fill="white"/>
<path d="M688.606 338.16C688.606 341.1 690.666 343.24 693.606 343.24C695.486 343.24 696.626 342.44 697.306 341.52L695.926 340.24C695.386 340.98 694.646 341.38 693.706 341.38C691.946 341.38 690.786 340.04 690.786 338.16C690.786 336.28 691.946 334.96 693.706 334.96C694.646 334.96 695.386 335.34 695.926 336.1L697.306 334.82C696.626 333.9 695.486 333.1 693.606 333.1C690.666 333.1 688.606 335.24 688.606 338.16ZM703.507 343.24C706.607 343.24 708.487 340.94 708.487 338.16C708.487 335.4 706.607 333.1 703.507 333.1C700.447 333.1 698.547 335.4 698.547 338.16C698.547 340.94 700.447 343.24 703.507 343.24ZM703.507 341.38C701.727 341.38 700.727 339.88 700.727 338.16C700.727 336.46 701.727 334.96 703.507 334.96C705.307 334.96 706.307 336.46 706.307 338.16C706.307 339.88 705.307 341.38 703.507 341.38ZM710.612 343H712.712V336.42C713.132 335.74 714.312 335.14 715.192 335.14C715.452 335.14 715.672 335.16 715.852 335.2V333.12C714.592 333.12 713.432 333.84 712.712 334.76V333.34H710.612V343ZM721.906 343.24C725.006 343.24 726.886 340.94 726.886 338.16C726.886 335.4 725.006 333.1 721.906 333.1C718.846 333.1 716.946 335.4 716.946 338.16C716.946 340.94 718.846 343.24 721.906 343.24ZM721.906 341.38C720.126 341.38 719.126 339.88 719.126 338.16C719.126 336.46 720.126 334.96 721.906 334.96C723.706 334.96 724.706 336.46 724.706 338.16C724.706 339.88 723.706 341.38 721.906 341.38ZM735.531 343H737.631V333.34H735.531V340.12C735.031 340.78 734.111 341.38 733.051 341.38C731.871 341.38 731.111 340.92 731.111 339.42V333.34H729.011V340.18C729.011 342.16 730.031 343.24 732.111 343.24C733.631 343.24 734.831 342.5 735.531 341.72V343ZM743.258 343.24C744.238 343.24 744.858 342.98 745.238 342.62L744.738 341.04C744.578 341.22 744.198 341.38 743.798 341.38C743.198 341.38 742.878 340.9 742.878 340.24V335.18H744.838V333.34H742.878V330.7H740.778V333.34H739.178V335.18H740.778V340.76C740.778 342.36 741.638 343.24 743.258 343.24ZM747.785 331.74C748.505 331.74 749.085 331.16 749.085 330.44C749.085 329.72 748.505 329.14 747.785 329.14C747.085 329.14 746.485 329.72 746.485 330.44C746.485 331.16 747.085 331.74 747.785 331.74ZM746.745 343H748.845V333.34H746.745V343ZM758.089 343H760.189V336.2C760.189 334.22 759.149 333.1 757.069 333.1C755.549 333.1 754.309 333.9 753.669 334.66V333.34H751.569V343H753.669V336.26C754.149 335.6 755.069 334.96 756.149 334.96C757.329 334.96 758.089 335.46 758.089 336.96V343ZM762.317 338.16C762.317 341.22 764.477 343.24 767.377 343.24C768.917 343.24 770.337 342.76 771.297 341.84L770.337 340.46C769.657 341.14 768.537 341.52 767.597 341.52C765.777 341.52 764.677 340.32 764.517 338.86H771.977V338.36C771.977 335.32 770.117 333.1 767.217 333.1C764.357 333.1 762.317 335.36 762.317 338.16ZM767.217 334.82C769.117 334.82 769.897 336.24 769.937 337.38H764.497C764.597 336.2 765.417 334.82 767.217 334.82ZM778.346 341.74C779.346 342.72 780.846 343.24 782.486 343.24C785.086 343.24 786.506 341.94 786.506 340.24C786.506 337.96 784.446 337.48 782.766 337.12C781.626 336.86 780.666 336.6 780.666 335.86C780.666 335.18 781.366 334.78 782.466 334.78C783.666 334.78 784.746 335.28 785.326 335.94L786.206 334.46C785.326 333.68 784.086 333.1 782.446 333.1C780.006 333.1 778.646 334.46 778.646 336.04C778.646 338.2 780.626 338.64 782.286 339C783.466 339.26 784.486 339.56 784.486 340.4C784.486 341.12 783.846 341.58 782.586 341.58C781.326 341.58 779.986 340.92 779.306 340.22L778.346 341.74ZM791.52 343.24C792.5 343.24 793.12 342.98 793.5 342.62L793 341.04C792.84 341.22 792.46 341.38 792.06 341.38C791.46 341.38 791.14 340.9 791.14 340.24V335.18H793.1V333.34H791.14V330.7H789.04V333.34H787.44V335.18H789.04V340.76C789.04 342.36 789.9 343.24 791.52 343.24ZM800.907 343H803.007V336.6C803.007 334 801.127 333.1 798.987 333.1C797.447 333.1 796.047 333.6 794.927 334.66L795.787 336.12C796.627 335.3 797.567 334.9 798.647 334.9C799.987 334.9 800.907 335.58 800.907 336.7V338.14C800.207 337.32 799.087 336.9 797.787 336.9C796.207 336.9 794.427 337.82 794.427 340.04C794.427 342.18 796.207 343.24 797.787 343.24C799.067 343.24 800.187 342.78 800.907 341.96V343ZM800.907 340.8C800.427 341.46 799.527 341.8 798.607 341.8C797.427 341.8 796.547 341.12 796.547 340.08C796.547 339.02 797.427 338.34 798.607 338.34C799.527 338.34 800.427 338.68 800.907 339.34V340.8ZM808.629 343.24C809.609 343.24 810.229 342.98 810.609 342.62L810.109 341.04C809.949 341.22 809.569 341.38 809.169 341.38C808.569 341.38 808.249 340.9 808.249 340.24V335.18H810.209V333.34H808.249V330.7H806.149V333.34H804.549V335.18H806.149V340.76C806.149 342.36 807.009 343.24 808.629 343.24ZM811.516 338.16C811.516 341.22 813.676 343.24 816.576 343.24C818.116 343.24 819.536 342.76 820.496 341.84L819.536 340.46C818.856 341.14 817.736 341.52 816.796 341.52C814.976 341.52 813.876 340.32 813.716 338.86H821.176V338.36C821.176 335.32 819.316 333.1 816.416 333.1C813.556 333.1 811.516 335.36 811.516 338.16ZM816.416 334.82C818.316 334.82 819.096 336.24 819.136 337.38H813.696C813.796 336.2 814.616 334.82 816.416 334.82Z" fill="#00AF91"/>
<rect width="3" height="28" transform="matrix(1.19249e-08 -1 -1 -1.15361e-08 510.367 225)" fill="white"/>
<rect width="3.00001" height="70" transform="matrix(-1 8.74228e-08 8.78116e-08 1 511.367 155)" fill="white"/>
<rect width="3" height="29" transform="matrix(1.18482e-08 -1 -1 -1.16107e-08 511.367 157)" fill="white"/>
<path d="M483.867 161.529L488.859 161.529L483.867 157L483.867 154.16L488.859 149.631L483.867 149.631L477.877 154.743L477.877 156.555L483.867 161.529Z" fill="white"/>
<rect width="3" height="28" transform="matrix(1.19249e-08 -1 -1 -1.15361e-08 510.367 360.369)" fill="white"/>
<rect width="3.00001" height="70" transform="matrix(-1 8.74228e-08 8.78116e-08 1 511.367 290.369)" fill="white"/>
<rect width="3" height="29" transform="matrix(1.18482e-08 -1 -1 -1.16107e-08 511.367 292.369)" fill="white"/>
<path d="M483.867 296.898L488.859 296.898L483.867 292.369L483.867 289.529L488.859 285L483.867 285L477.877 290.112L477.877 291.924L483.867 296.898Z" fill="white"/>
<path d="M483.867 386.898L488.859 386.898L483.867 382.369L483.867 379.529L488.859 375L483.867 375L477.877 380.112L477.877 381.924L483.867 386.898Z" fill="white"/>
<path d="M742.943 126.799L745.689 126.799L745.689 189.283L742.943 189.283L742.943 126.799Z" fill="white"/>
<path d="M745.576 125L745.576 127.746L487.367 127.746L487.367 125L745.576 125Z" fill="white"/>
<path d="M738.367 188.699L738.367 183.707L742.896 188.699L745.736 188.699L750.265 183.707L750.265 188.699L745.153 194.689L743.341 194.689L738.367 188.699Z" fill="white"/>
<path d="M493.008 111.398L498 111.398L493.008 106.869L493.008 104.029L498 99.5L493.008 99.5L487.018 104.612L487.018 106.424L493.008 111.398Z" fill="white"/>
<path d="M475.887 243.576L475.887 246.322L671.5 246.322L671.5 243.576L475.887 243.576Z" fill="white"/>
<path d="M666.992 239L662 239L666.992 243.529L666.992 246.369L662 250.897L666.992 250.897L672.982 245.785L672.982 243.974L666.992 239Z" fill="white"/>
<path d="M672.5 268.286L672.5 271.032L480.463 271.032L480.463 268.286L672.5 268.286Z" fill="white"/>
<path d="M481.877 263.71L486.869 263.71L481.877 268.239L481.877 271.079L486.869 275.608L481.877 275.608L475.887 270.495L475.887 268.684L481.877 263.71Z" fill="white"/>
<path d="M492 105.5L774 105.5V195" stroke="white" stroke-width="3"/>
<path d="M510 450V381H482.5" stroke="white" stroke-width="3" stroke-dasharray="10 10"/>
</svg>
